<svg xmlns="http://www.w3.org/2000/svg" xmlns:xlink="http://www.w3.org/1999/xlink" xmlns:lucid="lucid" width="1480.71" height="1470.67"><g transform="translate(-380 -280)" lucid:page-tab-id="IlzKaeKFK78S"><path d="M0 0h2000v2000H0z" fill="#fff"/><path d="M480 706c0-3.3 2.7-6 6-6h1328c3.3 0 6 2.7 6 6v788c0 3.3-2.7 6-6 6H486c-3.3 0-6-2.7-6-6z" stroke="#000" stroke-width="3" fill="#fff"/><use xlink:href="#a" transform="matrix(1,0,0,1,492,712) translate(0 26.66666666666667)"/><use xlink:href="#b" transform="matrix(1,0,0,1,492,712) translate(62.96296296296297 26.66666666666667)"/><path d="M540 1136c0-3.3 2.7-6 6-6h1208c3.3 0 6 2.7 6 6v288c0 3.3-2.7 6-6 6H546c-3.3 0-6-2.7-6-6z" stroke="#000" stroke-width="3" fill="#fff" fill-opacity="0"/><use xlink:href="#c" transform="matrix(1,0,0,1,545,1135) translate(0 26.66666666666667)"/><use xlink:href="#d" transform="matrix(1,0,0,1,545,1135) translate(144.16666666666669 26.66666666666667)"/><a xlink:href="https://github.com/selfdriventeam/kata/blob/main/doc/arc/components/notification_engine.md" target="_blank"><path d="M400 306c0-3.3 2.7-6 6-6h868c3.3 0 6 2.7 6 6v128c0 3.3-2.7 6-6 6H406c-3.3 0-6-2.7-6-6z" fill="#e5e5e5"/><path d="M401.35 302.44l1.1-1.1m2.8-1.14l.75-.2h1m4 0h1.98m4 0h2m3.98 0h2m4 0h1.98m4 0h2m3.98 0h2m4 0h1.98m4 0h2m3.98 0h2m3.98 0h2m4 0h2m3.98 0h2m3.98 0h2m4 0h1.98m4 0h2m3.98 0h2m4 0h1.98m4 0h2m3.98 0h2m4 0h1.98m4 0h2m3.98 0h2m4 0h1.98m4 0h2m3.98 0h2m3.98 0h2m4 0h2m3.98 0h2m3.98 0h2m4 0h1.98m4 0h2m3.98 0h2m4 0h1.98m4 0h2m3.98 0h2m4 0h1.98m4 0h2m3.98 0h2m3.98 0h2m4 0h2m3.98 0h2m3.98 0h2m4 0h1.98m4 0h2m3.98 0h2m4 0h1.98m4 0h2m3.98 0h2m4 0h1.98m4 0h2m3.98 0h2m4 0h1.98m4 0h2m3.98 0h2m3.98 0h2m4 0h2m3.98 0h2m3.98 0h2m4 0h1.98m4 0h2m3.98 0h2m4 0h1.98m4 0h2m3.98 0h2m4 0h1.98m4 0h2m3.98 0h2m3.98 0h2m4 0h2m3.98 0h2m3.98 0h2m4 0H838m4 0h2m3.98 0h2m4 0h1.98m4 0h2m3.98 0h2m4 0h1.98m4 0h2m3.98 0h2m4 0h1.98m4 0h2m3.98 0h2m3.98 0h2m4 0h2m3.98 0h2m3.98 0h2m4 0h1.98m4 0h2m3.98 0h2m4 0h1.98m4 0h2m3.98 0h2m4 0h1.98m4 0h2m3.98 0h2m3.98 0h2m4 0h2m3.98 0h2m3.98 0h2m4 0h1.98m4 0h2m3.98 0h2m4 0h1.98m4 0h2m3.98 0h2m4 0h1.98m4 0h2m3.98 0h2m4 0h1.98m4 0h2m3.98 0h2m3.98 0h2m4 0h2m3.98 0h2m3.98 0h2m4 0h1.98m4 0h2m3.98 0h2m4 0h1.98m4 0h2m3.98 0h2m4 0h1.98m4 0h2m3.98 0h2m3.98 0h2m4 0h2m3.98 0h2m3.98 0h2m4 0h1.98m4 0h2m3.98 0h2m4 0h1.98m4 0h2m3.98 0h2m4 0h1.98m4 0h2m3.98 0h2m4 0h1.98m4 0h2m3.98 0h2m3.98 0h2m4 0h2m3.98 0h2m3.98 0h1l.75.2m2.8 1.15l1.1 1.1m1.15 2.8l.2.75v1.02m0 4.06v2.03m0 4.07v2.04m0 4.07v2.03m0 4.07v2.03m0 4.06v2.03m0 4.06v2.03m0 4.05v2.03m0 4.07v2.03m0 4.06v2.03m0 4.07v2.03m0 4.06v2.03m0 4.07v2.03m0 4.06v2.03m0 4.07v2.03m0 4.06v2.04m0 4.07v2.04m0 4.06v2.03m0 4.07v2.03m0 4.06v2.03m0 4.06v2.02m0 4.06V434l-.2.75m-1.15 2.8l-1.1 1.1m-2.8 1.15l-.75.2h-1m-4 0h-1.98m-4 0h-2m-3.98 0h-2m-4 0h-1.98m-4 0h-2m-3.98 0h-2m-4 0h-1.98m-4 0h-2m-3.98 0h-2m-3.98 0h-2m-4 0h-2m-3.98 0h-2m-3.98 0h-2m-4 0h-1.98m-4 0h-2m-3.98 0h-2m-4 0h-1.98m-4 0h-2m-3.98 0h-2m-4 0h-1.98m-4 0h-2m-3.98 0h-2m-4 0h-1.98m-4 0h-2m-3.98 0h-2m-3.98 0h-2m-4 0h-2m-3.98 0h-2m-3.98 0h-2m-4 0h-1.98m-4 0h-2m-3.98 0h-2m-4 0h-1.98m-4 0h-2m-3.98 0h-2m-4 0h-1.98m-4 0h-2m-3.98 0h-2m-3.98 0h-2m-4 0h-2m-3.98 0h-2m-3.98 0h-2m-4 0h-1.98m-4 0h-2m-3.98 0h-2m-4 0h-1.98m-4 0h-2m-3.98 0h-2m-4 0h-1.98m-4 0h-2m-3.98 0h-2m-4 0h-1.98m-4 0h-2m-3.98 0h-2m-3.98 0h-2m-4 0h-2m-3.98 0h-2m-3.98 0h-2m-4 0h-1.98m-4 0h-2m-3.98 0h-2m-4 0h-1.98m-4 0h-2m-3.98 0h-2m-4 0h-1.98m-4 0h-2m-3.98 0h-2m-3.98 0h-2m-4 0h-2m-3.98 0h-2m-3.98 0h-2m-4 0H842m-4 0h-2m-3.98 0h-2m-4 0h-1.98m-4 0h-2m-3.98 0h-2m-4 0h-1.98m-4 0h-2m-3.98 0h-2m-4 0h-1.98m-4 0h-2m-3.98 0h-2m-3.98 0h-2m-4 0h-2m-3.98 0h-2m-3.98 0h-2m-4 0h-1.98m-4 0h-2m-3.98 0h-2m-4 0h-1.98m-4 0h-2m-3.98 0h-2m-4 0h-1.98m-4 0h-2m-3.98 0h-2m-3.98 0h-2m-4 0h-2m-3.98 0h-2m-3.98 0h-2m-4 0h-1.98m-4 0h-2m-3.98 0h-2m-4 0h-1.98m-4 0h-2m-3.98 0h-2m-4 0h-1.98m-4 0h-2m-3.98 0h-2m-4 0h-1.98m-4 0h-2m-3.98 0h-2m-3.98 0h-2m-4 0h-2m-3.98 0h-2m-3.98 0h-2m-4 0h-1.98m-4 0h-2m-3.98 0h-2m-4 0h-1.98m-4 0h-2m-3.98 0h-2m-4 0h-1.98m-4 0h-2m-3.98 0h-2m-3.98 0h-2m-4 0h-2m-3.98 0h-2m-3.98 0h-2m-4 0h-1.98m-4 0h-2m-3.98 0h-2m-4 0h-1.98m-4 0h-2m-3.98 0h-2m-4 0h-1.98m-4 0h-2m-3.98 0h-2m-4 0h-1.98m-4 0h-2m-3.98 0h-2m-3.98 0h-2m-4 0h-2m-3.98 0h-2m-3.98 0h-1l-.75-.2m-2.8-1.15l-1.1-1.1m-1.15-2.8l-.2-.75v-1.02m0-4.06v-2.03m0-4.07v-2.04m0-4.07v-2.03m0-4.07v-2.03m0-4.06v-2.03m0-4.06v-2.03m0-4.05v-2.03m0-4.07v-2.03m0-4.06v-2.03m0-4.07v-2.03m0-4.06v-2.03m0-4.07v-2.03m0-4.06v-2.03m0-4.07v-2.03m0-4.06v-2.04m0-4.07v-2.04m0-4.06v-2.03m0-4.07v-2.03m0-4.06v-2.03m0-4.06v-2.02m0-4.06V306l.2-.75" stroke="#000" fill="none"/><use xlink:href="#e" transform="matrix(1,0,0,1,412,312) translate(104.08024691358025 88.8888888888889)"/><use xlink:href="#f" transform="matrix(1,0,0,1,412,312) translate(313.9567901234568 88.8888888888889)"/><path class="lucid-link lucid-hotspot lucid-overlay-hotspot" d="M400 306c0-3.3 2.7-6 6-6h868c3.3 0 6 2.7 6 6v128c0 3.3-2.7 6-6 6H406c-3.3 0-6-2.7-6-6z" fill="none"/><path class="lucid-link lucid-hotspot lucid-overlay-hotspot" d="M401.35 302.44l1.1-1.1m2.8-1.14l.75-.2h1m4 0h1.98m4 0h2m3.98 0h2m4 0h1.98m4 0h2m3.98 0h2m4 0h1.98m4 0h2m3.98 0h2m3.98 0h2m4 0h2m3.98 0h2m3.98 0h2m4 0h1.98m4 0h2m3.98 0h2m4 0h1.98m4 0h2m3.98 0h2m4 0h1.98m4 0h2m3.98 0h2m4 0h1.98m4 0h2m3.98 0h2m3.98 0h2m4 0h2m3.98 0h2m3.98 0h2m4 0h1.98m4 0h2m3.98 0h2m4 0h1.98m4 0h2m3.98 0h2m4 0h1.98m4 0h2m3.98 0h2m3.98 0h2m4 0h2m3.98 0h2m3.98 0h2m4 0h1.98m4 0h2m3.98 0h2m4 0h1.98m4 0h2m3.98 0h2m4 0h1.98m4 0h2m3.98 0h2m4 0h1.98m4 0h2m3.98 0h2m3.98 0h2m4 0h2m3.98 0h2m3.98 0h2m4 0h1.98m4 0h2m3.98 0h2m4 0h1.98m4 0h2m3.98 0h2m4 0h1.98m4 0h2m3.98 0h2m3.98 0h2m4 0h2m3.98 0h2m3.98 0h2m4 0H838m4 0h2m3.98 0h2m4 0h1.98m4 0h2m3.98 0h2m4 0h1.98m4 0h2m3.98 0h2m4 0h1.98m4 0h2m3.98 0h2m3.98 0h2m4 0h2m3.98 0h2m3.98 0h2m4 0h1.98m4 0h2m3.98 0h2m4 0h1.98m4 0h2m3.98 0h2m4 0h1.98m4 0h2m3.98 0h2m3.98 0h2m4 0h2m3.98 0h2m3.98 0h2m4 0h1.98m4 0h2m3.98 0h2m4 0h1.98m4 0h2m3.98 0h2m4 0h1.98m4 0h2m3.98 0h2m4 0h1.98m4 0h2m3.98 0h2m3.98 0h2m4 0h2m3.98 0h2m3.98 0h2m4 0h1.98m4 0h2m3.98 0h2m4 0h1.98m4 0h2m3.98 0h2m4 0h1.98m4 0h2m3.98 0h2m3.98 0h2m4 0h2m3.98 0h2m3.98 0h2m4 0h1.98m4 0h2m3.98 0h2m4 0h1.98m4 0h2m3.98 0h2m4 0h1.98m4 0h2m3.98 0h2m4 0h1.98m4 0h2m3.98 0h2m3.98 0h2m4 0h2m3.98 0h2m3.98 0h1l.75.2m2.8 1.15l1.1 1.1m1.15 2.8l.2.75v1.02m0 4.06v2.03m0 4.07v2.04m0 4.07v2.03m0 4.07v2.03m0 4.06v2.03m0 4.06v2.03m0 4.05v2.03m0 4.07v2.03m0 4.06v2.03m0 4.07v2.03m0 4.06v2.03m0 4.07v2.03m0 4.06v2.03m0 4.07v2.03m0 4.06v2.04m0 4.07v2.04m0 4.06v2.03m0 4.07v2.03m0 4.06v2.03m0 4.06v2.02m0 4.06V434l-.2.75m-1.15 2.8l-1.1 1.1m-2.8 1.15l-.75.2h-1m-4 0h-1.98m-4 0h-2m-3.98 0h-2m-4 0h-1.98m-4 0h-2m-3.98 0h-2m-4 0h-1.98m-4 0h-2m-3.98 0h-2m-3.98 0h-2m-4 0h-2m-3.98 0h-2m-3.98 0h-2m-4 0h-1.98m-4 0h-2m-3.98 0h-2m-4 0h-1.98m-4 0h-2m-3.98 0h-2m-4 0h-1.98m-4 0h-2m-3.98 0h-2m-4 0h-1.98m-4 0h-2m-3.98 0h-2m-3.98 0h-2m-4 0h-2m-3.98 0h-2m-3.98 0h-2m-4 0h-1.98m-4 0h-2m-3.98 0h-2m-4 0h-1.98m-4 0h-2m-3.98 0h-2m-4 0h-1.98m-4 0h-2m-3.98 0h-2m-3.98 0h-2m-4 0h-2m-3.98 0h-2m-3.98 0h-2m-4 0h-1.98m-4 0h-2m-3.98 0h-2m-4 0h-1.98m-4 0h-2m-3.98 0h-2m-4 0h-1.98m-4 0h-2m-3.98 0h-2m-4 0h-1.98m-4 0h-2m-3.98 0h-2m-3.98 0h-2m-4 0h-2m-3.98 0h-2m-3.98 0h-2m-4 0h-1.98m-4 0h-2m-3.98 0h-2m-4 0h-1.98m-4 0h-2m-3.98 0h-2m-4 0h-1.98m-4 0h-2m-3.98 0h-2m-3.98 0h-2m-4 0h-2m-3.98 0h-2m-3.98 0h-2m-4 0H842m-4 0h-2m-3.98 0h-2m-4 0h-1.98m-4 0h-2m-3.98 0h-2m-4 0h-1.98m-4 0h-2m-3.98 0h-2m-4 0h-1.98m-4 0h-2m-3.98 0h-2m-3.98 0h-2m-4 0h-2m-3.98 0h-2m-3.98 0h-2m-4 0h-1.98m-4 0h-2m-3.98 0h-2m-4 0h-1.98m-4 0h-2m-3.98 0h-2m-4 0h-1.98m-4 0h-2m-3.98 0h-2m-3.98 0h-2m-4 0h-2m-3.98 0h-2m-3.98 0h-2m-4 0h-1.98m-4 0h-2m-3.98 0h-2m-4 0h-1.98m-4 0h-2m-3.98 0h-2m-4 0h-1.98m-4 0h-2m-3.98 0h-2m-4 0h-1.98m-4 0h-2m-3.98 0h-2m-3.98 0h-2m-4 0h-2m-3.98 0h-2m-3.98 0h-2m-4 0h-1.98m-4 0h-2m-3.98 0h-2m-4 0h-1.98m-4 0h-2m-3.98 0h-2m-4 0h-1.98m-4 0h-2m-3.98 0h-2m-3.98 0h-2m-4 0h-2m-3.98 0h-2m-3.98 0h-2m-4 0h-1.98m-4 0h-2m-3.98 0h-2m-4 0h-1.98m-4 0h-2m-3.98 0h-2m-4 0h-1.98m-4 0h-2m-3.98 0h-2m-4 0h-1.98m-4 0h-2m-3.98 0h-2m-3.98 0h-2m-4 0h-2m-3.98 0h-2m-3.98 0h-1l-.75-.2m-2.8-1.15l-1.1-1.1m-1.15-2.8l-.2-.75v-1.02m0-4.06v-2.03m0-4.07v-2.04m0-4.07v-2.03m0-4.07v-2.03m0-4.06v-2.03m0-4.06v-2.03m0-4.05v-2.03m0-4.07v-2.03m0-4.06v-2.03m0-4.07v-2.03m0-4.06v-2.03m0-4.07v-2.03m0-4.06v-2.03m0-4.07v-2.03m0-4.06v-2.04m0-4.07v-2.04m0-4.06v-2.03m0-4.07v-2.03m0-4.06v-2.03m0-4.06v-2.02m0-4.06V306l.2-.75" fill="none"/></a><path d="M412.53 442.92c0 1.38-1.12 2.5-2.5 2.5s-2.5-1.12-2.5-2.5 1.12-2.5 2.5-2.5 2.5 1.12 2.5 2.5zm2.5 9.54c0 1.38-1.13 2.5-2.5 2.5-1.4 0-2.5-1.12-2.5-2.5s1.1-2.5 2.5-2.5c1.37 0 2.5 1.12 2.5 2.5zm2.5 9.53c0 1.38-1.13 2.5-2.5 2.5-1.4 0-2.5-1.12-2.5-2.5 0-1.4 1.1-2.5 2.5-2.5 1.37 0 2.5 1.1 2.5 2.5zm2.48 9.53c0 1.38-1.1 2.5-2.5 2.5-1.37 0-2.5-1.12-2.5-2.5s1.13-2.5 2.5-2.5c1.4 0 2.5 1.12 2.5 2.5zm2.5 9.54c0 1.38-1.12 2.5-2.5 2.5s-2.5-1.12-2.5-2.5 1.12-2.5 2.5-2.5 2.5 1.12 2.5 2.5zm2.5 9.54c0 1.4-1.13 2.5-2.5 2.5-1.4 0-2.5-1.1-2.5-2.5 0-1.37 1.1-2.5 2.5-2.5 1.37 0 2.5 1.13 2.5 2.5zm2.48 9.55c0 1.38-1.12 2.5-2.5 2.5s-2.5-1.12-2.5-2.5c0-1.4 1.12-2.5 2.5-2.5s2.5 1.1 2.5 2.5zm2.5 9.53c0 1.38-1.13 2.5-2.5 2.5-1.4 0-2.5-1.12-2.5-2.5s1.1-2.5 2.5-2.5c1.37 0 2.5 1.12 2.5 2.5zm2.5 9.54c0 1.38-1.13 2.5-2.5 2.5-1.4 0-2.5-1.12-2.5-2.5s1.1-2.5 2.5-2.5c1.37 0 2.5 1.12 2.5 2.5zm2.48 9.54c0 1.38-1.12 2.5-2.5 2.5s-2.5-1.12-2.5-2.5 1.12-2.5 2.5-2.5 2.5 1.12 2.5 2.5zm2.5 9.54c0 1.38-1.13 2.5-2.5 2.5-1.4 0-2.5-1.12-2.5-2.5s1.1-2.5 2.5-2.5c1.37 0 2.5 1.12 2.5 2.5zm2.48 9.53c0 1.4-1.12 2.5-2.5 2.5s-2.5-1.1-2.5-2.5c0-1.38 1.12-2.5 2.5-2.5s2.5 1.12 2.5 2.5zm2.5 9.54c0 1.38-1.13 2.5-2.5 2.5-1.4 0-2.5-1.12-2.5-2.5s1.1-2.5 2.5-2.5c1.37 0 2.5 1.12 2.5 2.5zm2.48 9.54c0 1.4-1.12 2.5-2.5 2.5s-2.5-1.1-2.5-2.5c0-1.37 1.12-2.5 2.5-2.5s2.5 1.13 2.5 2.5zm2.5 9.55c0 1.38-1.12 2.5-2.5 2.5-1.4 0-2.5-1.12-2.5-2.5s1.1-2.5 2.5-2.5c1.38 0 2.5 1.12 2.5 2.5zm2.5 9.54c0 1.37-1.13 2.5-2.5 2.5-1.4 0-2.5-1.13-2.5-2.5 0-1.4 1.1-2.5 2.5-2.5 1.37 0 2.5 1.1 2.5 2.5zm2.48 9.52c0 1.38-1.12 2.5-2.5 2.5s-2.5-1.12-2.5-2.5 1.12-2.5 2.5-2.5 2.5 1.12 2.5 2.5zm2.5 9.54c0 1.38-1.13 2.5-2.5 2.5-1.4 0-2.5-1.12-2.5-2.5s1.1-2.5 2.5-2.5c1.37 0 2.5 1.12 2.5 2.5zm2.48 9.54c0 1.38-1.12 2.5-2.5 2.5s-2.5-1.12-2.5-2.5 1.12-2.5 2.5-2.5 2.5 1.12 2.5 2.5zm2.5 9.54c0 1.38-1.13 2.5-2.5 2.5-1.4 0-2.5-1.12-2.5-2.5s1.1-2.5 2.5-2.5c1.37 0 2.5 1.12 2.5 2.5zm2.48 9.53c0 1.4-1.1 2.5-2.5 2.5-1.38 0-2.5-1.1-2.5-2.5 0-1.38 1.12-2.5 2.5-2.5 1.4 0 2.5 1.12 2.5 2.5zm2.5 9.54c0 1.4-1.12 2.5-2.5 2.5s-2.5-1.1-2.5-2.5c0-1.37 1.12-2.5 2.5-2.5s2.5 1.13 2.5 2.5zm2.5 9.55c0 1.38-1.13 2.5-2.5 2.5-1.4 0-2.5-1.12-2.5-2.5s1.1-2.5 2.5-2.5c1.37 0 2.5 1.12 2.5 2.5zm2.48 9.54c0 1.37-1.12 2.5-2.5 2.5s-2.5-1.13-2.5-2.5c0-1.4 1.12-2.5 2.5-2.5s2.5 1.1 2.5 2.5zm2.5 9.53c0 1.38-1.13 2.5-2.5 2.5-1.4 0-2.5-1.12-2.5-2.5s1.1-2.5 2.5-2.5c1.37 0 2.5 1.12 2.5 2.5z" fill="#5e5e5e"/><path d="M412.47 442.35l-4.84 1.26-.8-3.1h5.15z" fill="#5e5e5e"/><path d="M476.56 697.6l-8.1-12.65 8.98-2.34z" stroke="#5e5e5e" stroke-width="5" fill="#5e5e5e"/><path d="M1285.02 311.44c0 1.38-1.12 2.5-2.5 2.5s-2.5-1.12-2.5-2.5 1.12-2.5 2.5-2.5 2.5 1.12 2.5 2.5zm8.13 5.9c0 1.4-1.12 2.5-2.5 2.5s-2.5-1.1-2.5-2.5c0-1.37 1.12-2.5 2.5-2.5s2.5 1.13 2.5 2.5zm8.13 5.93c0 1.38-1.12 2.5-2.5 2.5s-2.5-1.12-2.5-2.5 1.12-2.5 2.5-2.5 2.5 1.12 2.5 2.5zm8.13 5.9c0 1.4-1.1 2.5-2.5 2.5-1.37 0-2.5-1.1-2.5-2.5 0-1.37 1.13-2.5 2.5-2.5 1.4 0 2.5 1.13 2.5 2.5zm8.14 5.93c0 1.38-1.12 2.5-2.5 2.5-1.4 0-2.5-1.12-2.5-2.5s1.1-2.5 2.5-2.5c1.38 0 2.5 1.12 2.5 2.5zm8.12 5.9c0 1.4-1.12 2.5-2.5 2.5s-2.5-1.1-2.5-2.5c0-1.37 1.12-2.5 2.5-2.5s2.5 1.13 2.5 2.5zm8.13 5.92c0 1.38-1.13 2.5-2.5 2.5-1.4 0-2.5-1.12-2.5-2.5s1.1-2.5 2.5-2.5c1.37 0 2.5 1.12 2.5 2.5zm8.12 5.92c0 1.38-1.12 2.5-2.5 2.5s-2.5-1.12-2.5-2.5 1.12-2.5 2.5-2.5 2.5 1.12 2.5 2.5zm8.13 5.9c0 1.4-1.12 2.5-2.5 2.5s-2.5-1.1-2.5-2.5c0-1.37 1.12-2.5 2.5-2.5s2.5 1.13 2.5 2.5zm8.13 5.93c0 1.38-1.12 2.5-2.5 2.5s-2.5-1.12-2.5-2.5c0-1.4 1.12-2.5 2.5-2.5s2.5 1.1 2.5 2.5zm8.13 5.9c0 1.4-1.1 2.5-2.5 2.5-1.37 0-2.5-1.1-2.5-2.5 0-1.37 1.13-2.5 2.5-2.5 1.4 0 2.5 1.13 2.5 2.5zm8.13 5.92c0 1.37-1.1 2.5-2.5 2.5-1.38 0-2.5-1.13-2.5-2.5 0-1.4 1.12-2.5 2.5-2.5 1.4 0 2.5 1.1 2.5 2.5zm8.13 5.9c0 1.4-1.12 2.5-2.5 2.5s-2.5-1.1-2.5-2.5c0-1.37 1.12-2.5 2.5-2.5s2.5 1.13 2.5 2.5zm8.13 5.92c0 1.38-1.13 2.5-2.5 2.5-1.4 0-2.5-1.12-2.5-2.5s1.1-2.5 2.5-2.5c1.37 0 2.5 1.12 2.5 2.5zm8.12 5.92c0 1.38-1.12 2.5-2.5 2.5s-2.5-1.12-2.5-2.5c0-1.4 1.12-2.5 2.5-2.5s2.5 1.1 2.5 2.5zm8.13 5.9c0 1.4-1.12 2.5-2.5 2.5s-2.5-1.1-2.5-2.5c0-1.37 1.12-2.5 2.5-2.5s2.5 1.13 2.5 2.5zm8.13 5.92c0 1.38-1.12 2.5-2.5 2.5s-2.5-1.12-2.5-2.5 1.12-2.5 2.5-2.5 2.5 1.12 2.5 2.5zm8.13 5.92c0 1.38-1.1 2.5-2.5 2.5-1.38 0-2.5-1.12-2.5-2.5s1.12-2.5 2.5-2.5c1.4 0 2.5 1.12 2.5 2.5zm8.13 5.9c0 1.4-1.12 2.5-2.5 2.5s-2.5-1.1-2.5-2.5c0-1.37 1.12-2.5 2.5-2.5s2.5 1.13 2.5 2.5zm8.13 5.92c0 1.4-1.12 2.5-2.5 2.5s-2.5-1.1-2.5-2.5c0-1.38 1.12-2.5 2.5-2.5s2.5 1.12 2.5 2.5zm8.13 5.92c0 1.38-1.13 2.5-2.5 2.5-1.4 0-2.5-1.12-2.5-2.5s1.1-2.5 2.5-2.5c1.37 0 2.5 1.12 2.5 2.5zm8.12 5.9c0 1.4-1.12 2.5-2.5 2.5s-2.5-1.1-2.5-2.5c0-1.37 1.12-2.5 2.5-2.5s2.5 1.13 2.5 2.5zm8.13 5.93c0 1.38-1.12 2.5-2.5 2.5s-2.5-1.12-2.5-2.5 1.12-2.5 2.5-2.5 2.5 1.12 2.5 2.5zm8.13 5.9c0 1.4-1.12 2.5-2.5 2.5s-2.5-1.1-2.5-2.5c0-1.37 1.12-2.5 2.5-2.5s2.5 1.13 2.5 2.5zm8.13 5.92c0 1.38-1.1 2.5-2.5 2.5-1.38 0-2.5-1.12-2.5-2.5s1.12-2.5 2.5-2.5c1.4 0 2.5 1.12 2.5 2.5zm8.13 5.92c0 1.37-1.12 2.5-2.5 2.5s-2.5-1.13-2.5-2.5c0-1.4 1.12-2.5 2.5-2.5s2.5 1.1 2.5 2.5zm8.13 5.9c0 1.38-1.12 2.5-2.5 2.5s-2.5-1.12-2.5-2.5 1.12-2.5 2.5-2.5 2.5 1.12 2.5 2.5zm8.13 5.92c0 1.38-1.13 2.5-2.5 2.5-1.4 0-2.5-1.12-2.5-2.5s1.1-2.5 2.5-2.5c1.37 0 2.5 1.12 2.5 2.5zm8.12 5.9c0 1.4-1.12 2.5-2.5 2.5s-2.5-1.1-2.5-2.5c0-1.37 1.12-2.5 2.5-2.5s2.5 1.13 2.5 2.5zm8.13 5.92c0 1.38-1.12 2.5-2.5 2.5s-2.5-1.12-2.5-2.5 1.12-2.5 2.5-2.5 2.5 1.12 2.5 2.5zm8.13 5.92c0 1.38-1.12 2.5-2.5 2.5s-2.5-1.12-2.5-2.5 1.12-2.5 2.5-2.5 2.5 1.12 2.5 2.5zm8.12 5.9c0 1.4-1.1 2.5-2.5 2.5-1.38 0-2.5-1.1-2.5-2.5 0-1.37 1.12-2.5 2.5-2.5 1.4 0 2.5 1.13 2.5 2.5zm8.13 5.93c0 1.37-1.12 2.5-2.5 2.5s-2.5-1.13-2.5-2.5c0-1.4 1.12-2.5 2.5-2.5s2.5 1.1 2.5 2.5zm8.13 5.9c0 1.38-1.12 2.5-2.5 2.5s-2.5-1.12-2.5-2.5 1.12-2.5 2.5-2.5 2.5 1.12 2.5 2.5zm8.13 5.9c0 1.4-1.13 2.5-2.5 2.5-1.4 0-2.5-1.1-2.5-2.5 0-1.37 1.1-2.5 2.5-2.5 1.37 0 2.5 1.13 2.5 2.5zm8.12 5.93c0 1.38-1.12 2.5-2.5 2.5s-2.5-1.12-2.5-2.5 1.12-2.5 2.5-2.5 2.5 1.12 2.5 2.5zm8.13 5.9c0 1.4-1.12 2.5-2.5 2.5s-2.5-1.1-2.5-2.5c0-1.37 1.12-2.5 2.5-2.5s2.5 1.13 2.5 2.5zm8.13 5.92c0 1.4-1.12 2.5-2.5 2.5-1.4 0-2.5-1.1-2.5-2.5 0-1.38 1.1-2.5 2.5-2.5 1.38 0 2.5 1.12 2.5 2.5zm8.12 5.92c0 1.38-1.12 2.5-2.5 2.5s-2.5-1.12-2.5-2.5 1.12-2.5 2.5-2.5 2.5 1.12 2.5 2.5zm8.13 5.9c0 1.4-1.12 2.5-2.5 2.5s-2.5-1.1-2.5-2.5c0-1.37 1.12-2.5 2.5-2.5s2.5 1.13 2.5 2.5zm8.13 5.93c0 1.38-1.12 2.5-2.5 2.5s-2.5-1.12-2.5-2.5 1.12-2.5 2.5-2.5 2.5 1.12 2.5 2.5zm8.13 5.9c0 1.4-1.13 2.5-2.5 2.5-1.4 0-2.5-1.1-2.5-2.5 0-1.37 1.1-2.5 2.5-2.5 1.37 0 2.5 1.13 2.5 2.5zm8.12 5.92c0 1.4-1.12 2.5-2.5 2.5s-2.5-1.1-2.5-2.5c0-1.38 1.12-2.5 2.5-2.5s2.5 1.12 2.5 2.5zm8.13 5.92c0 1.38-1.12 2.5-2.5 2.5s-2.5-1.12-2.5-2.5 1.12-2.5 2.5-2.5 2.5 1.12 2.5 2.5zm8.12 5.9c0 1.4-1.1 2.5-2.5 2.5-1.38 0-2.5-1.1-2.5-2.5 0-1.37 1.12-2.5 2.5-2.5 1.4 0 2.5 1.13 2.5 2.5zm8.13 5.93c0 1.38-1.12 2.5-2.5 2.5s-2.5-1.12-2.5-2.5 1.12-2.5 2.5-2.5 2.5 1.12 2.5 2.5zm8.13 5.9c0 1.4-1.12 2.5-2.5 2.5s-2.5-1.1-2.5-2.5c0-1.37 1.12-2.5 2.5-2.5s2.5 1.13 2.5 2.5zm8.13 5.92c0 1.37-1.12 2.5-2.5 2.5s-2.5-1.13-2.5-2.5c0-1.4 1.12-2.5 2.5-2.5s2.5 1.1 2.5 2.5zm8.13 5.9c0 1.4-1.13 2.5-2.5 2.5-1.4 0-2.5-1.1-2.5-2.5 0-1.37 1.1-2.5 2.5-2.5 1.37 0 2.5 1.13 2.5 2.5zm8.12 5.92c0 1.38-1.12 2.5-2.5 2.5s-2.5-1.12-2.5-2.5 1.12-2.5 2.5-2.5 2.5 1.12 2.5 2.5zm8.13 5.92c0 1.38-1.12 2.5-2.5 2.5-1.4 0-2.5-1.12-2.5-2.5 0-1.4 1.1-2.5 2.5-2.5 1.38 0 2.5 1.1 2.5 2.5zm8.12 5.9c0 1.4-1.12 2.5-2.5 2.5s-2.5-1.1-2.5-2.5c0-1.37 1.12-2.5 2.5-2.5s2.5 1.13 2.5 2.5zm8.13 5.92c0 1.38-1.12 2.5-2.5 2.5s-2.5-1.12-2.5-2.5 1.12-2.5 2.5-2.5 2.5 1.12 2.5 2.5zm8.13 5.92c0 1.38-1.12 2.5-2.5 2.5s-2.5-1.12-2.5-2.5 1.12-2.5 2.5-2.5 2.5 1.12 2.5 2.5zm8.13 5.9c0 1.4-1.12 2.5-2.5 2.5s-2.5-1.1-2.5-2.5c0-1.37 1.12-2.5 2.5-2.5s2.5 1.13 2.5 2.5zm8.13 5.93c0 1.4-1.13 2.5-2.5 2.5-1.4 0-2.5-1.1-2.5-2.5 0-1.38 1.1-2.5 2.5-2.5 1.37 0 2.5 1.12 2.5 2.5zm8.12 5.92c0 1.38-1.12 2.5-2.5 2.5s-2.5-1.12-2.5-2.5 1.12-2.5 2.5-2.5 2.5 1.12 2.5 2.5zm8.12 5.9c0 1.4-1.1 2.5-2.5 2.5-1.38 0-2.5-1.1-2.5-2.5 0-1.37 1.12-2.5 2.5-2.5 1.4 0 2.5 1.13 2.5 2.5zm8.13 5.93c0 1.38-1.12 2.5-2.5 2.5s-2.5-1.12-2.5-2.5 1.12-2.5 2.5-2.5 2.5 1.12 2.5 2.5zm8.13 5.9c0 1.4-1.12 2.5-2.5 2.5s-2.5-1.1-2.5-2.5c0-1.37 1.12-2.5 2.5-2.5s2.5 1.13 2.5 2.5zm8.13 5.92c0 1.4-1.12 2.5-2.5 2.5s-2.5-1.1-2.5-2.5c0-1.38 1.12-2.5 2.5-2.5s2.5 1.12 2.5 2.5zm8.13 5.92c0 1.37-1.12 2.5-2.5 2.5s-2.5-1.13-2.5-2.5c0-1.4 1.12-2.5 2.5-2.5s2.5 1.1 2.5 2.5zm8.13 5.9c0 1.38-1.13 2.5-2.5 2.5-1.4 0-2.5-1.12-2.5-2.5s1.1-2.5 2.5-2.5c1.37 0 2.5 1.12 2.5 2.5z" fill="#5e5e5e"/><path d="M1284.04 309.46l-2.94 4.04-.6-.44v-6.18z" fill="#5e5e5e"/><path d="M1808.17 693.88l-14.26-4.64 5.46-7.5z" stroke="#5e5e5e" stroke-width="5" fill="#5e5e5e"/><path d="M600 1206c0-3.3 2.7-6 6-6h268c3.3 0 6 2.7 6 6v68c0 3.3-2.7 6-6 6H606c-3.3 0-6-2.7-6-6z" stroke="#000" stroke-width="3" fill="#fff"/><use xlink:href="#g" transform="matrix(1,0,0,1,605,1205) translate(29.53703703703701 42.19791666666667)"/><path d="M918.9 766c0-3.3 2.67-6 6-6H1414c3.3 0 6 2.7 6 6v108c0 3.3-2.7 6-6 6H924.9c-3.33 0-6-2.7-6-6z" stroke="#000" stroke-width="3" fill="#fff"/><use xlink:href="#h" transform="matrix(1,0,0,1,923.8862194750509,765) translate(140.53703703703704 61.35416666666667)"/><use xlink:href="#i" transform="matrix(1,0,0,1,923.8862194750509,765) translate(223.87037037037038 61.35416666666667)"/><path d="M1440 1206c0-3.3 2.7-6 6-6h248c3.3 0 6 2.7 6 6v68c0 3.3-2.7 6-6 6h-248c-3.3 0-6-2.7-6-6z" stroke="#000" stroke-width="3" fill="#fff"/><use xlink:href="#j" transform="matrix(1,0,0,1,1445,1205) translate(71.43518518518518 42.19791666666667)"/><path d="M540 966c0-3.3 2.7-6 6-6h1208c3.3 0 6 2.7 6 6v108c0 3.3-2.7 6-6 6H546c-3.3 0-6-2.7-6-6z" stroke="#000" stroke-width="3" fill="#fff"/><use xlink:href="#a" transform="matrix(1,0,0,1,545,965) translate(0 26.66666666666667)"/><use xlink:href="#d" transform="matrix(1,0,0,1,545,965) translate(62.96296296296297 26.66666666666667)"/><path d="M600 1306c0-3.3 2.7-6 6-6h268c3.3 0 6 2.7 6 6v68c0 3.3-2.7 6-6 6H606c-3.3 0-6-2.7-6-6z" stroke="#000" stroke-width="3" fill="#fff"/><use xlink:href="#k" transform="matrix(1,0,0,1,605,1305) translate(37.91666666666666 42.19791666666667)"/><path d="M1169.44 884v49.64" stroke="#5e5e5e" stroke-width="5" fill="none"/><path d="M1171.94 884.07h-5v-2.57h5z" fill="#5e5e5e"/><path d="M1169.44 950.4l-4.63-14.26h9.28z" stroke="#5e5e5e" stroke-width="5" fill="#5e5e5e"/><path d="M1171.6 1084v19.64" stroke="#5e5e5e" stroke-width="5" fill="none"/><path d="M1174.1 1084.06h-5v-2.56h5z" fill="#5e5e5e"/><path d="M1171.6 1120.4l-4.62-14.26h9.27z" stroke="#5e5e5e" stroke-width="5" fill="#5e5e5e"/><path d="M1440 1306c0-3.3 2.7-6 6-6h248c3.3 0 6 2.7 6 6v68c0 3.3-2.7 6-6 6h-248c-3.3 0-6-2.7-6-6z" stroke="#000" stroke-width="3" fill="#fff"/><use xlink:href="#l" transform="matrix(1,0,0,1,1445,1305) translate(63.98148148148148 42.19791666666667)"/><path d="M1030 1306c0-3.3 2.7-6 6-6h248c3.3 0 6 2.7 6 6v68c0 3.3-2.7 6-6 6h-248c-3.3 0-6-2.7-6-6z" stroke="#000" stroke-width="3" fill="#fff"/><use xlink:href="#m" transform="matrix(1,0,0,1,1035,1305) translate(65.78703703703704 42.19791666666667)"/><path d="M840 996c0-3.3 2.7-6 6-6h268c3.3 0 6 2.7 6 6v48c0 3.3-2.7 6-6 6H846c-3.3 0-6-2.7-6-6z" stroke="#000" stroke-width="3" fill="#fff"/><use xlink:href="#n" transform="matrix(1,0,0,1,845,995) translate(42.546296296296276 33.04166666666667)"/><use xlink:href="#o" transform="matrix(1,0,0,1,845,995) translate(173.75 33.04166666666667)"/><path d="M1220 996c0-3.3 2.7-6 6-6h268c3.3 0 6 2.7 6 6v48c0 3.3-2.7 6-6 6h-268c-3.3 0-6-2.7-6-6z" stroke="#000" stroke-width="3" fill="#fff"/><use xlink:href="#p" transform="matrix(1,0,0,1,1225,995) translate(58.24074074074073 33.04166666666667)"/><use xlink:href="#o" transform="matrix(1,0,0,1,1225,995) translate(158.05555555555554 33.04166666666667)"/><path d="M1030 1206c0-3.3 2.7-6 6-6h248c3.3 0 6 2.7 6 6v68c0 3.3-2.7 6-6 6h-248c-3.3 0-6-2.7-6-6z" stroke="#000" stroke-width="3" fill="#fff"/><use xlink:href="#q" transform="matrix(1,0,0,1,1035,1205) translate(33.611111111111114 42.19791666666667)"/><use xlink:href="#r" transform="matrix(1,0,0,1,1035,1205) translate(113.14814814814815 42.19791666666667)"/><path d="M480 1606c0-3.3 2.7-6 6-6h1328c3.3 0 6 2.7 6 6v118.67c0 3.3-2.7 6-6 6H486c-3.3 0-6-2.7-6-6z" stroke="#000" stroke-width="3" fill="#e5e5e5"/><use xlink:href="#s" transform="matrix(1,0,0,1,492.0000000000001,1612) translate(0 71.11111111111111)"/><use xlink:href="#t" transform="matrix(1,0,0,1,492.0000000000001,1612) translate(246.66666666666666 71.11111111111111)"/><use xlink:href="#u" transform="matrix(1,0,0,1,492.0000000000001,1612) translate(818.5185185185185 71.11111111111111)"/><path d="M1130.54 1526.36l-.07 47.28" stroke="#5e5e5e" stroke-width="5" fill="none"/><path d="M1130.57 1509.6l4.6 14.26h-9.26zM1130.44 1590.4l-4.6-14.26h9.26z" stroke="#5e5e5e" stroke-width="5" fill="#5e5e5e"/><path d="M1235.2 1526.36l.32 47.28" stroke="#5e5e5e" stroke-width="5" fill="none"/><path d="M1235.08 1509.6l4.73 14.23-9.26.06zM1235.63 1590.4l-4.73-14.22 9.27-.07z" stroke="#5e5e5e" stroke-width="5" fill="#5e5e5e"/><path d="M1029.86 1526.36l-.46 47.3" stroke="#5e5e5e" stroke-width="5" fill="none"/><path d="M1030.02 1509.6l4.5 14.3-9.27-.1zM1029.24 1590.4l-4.5-14.3 9.27.1z" stroke="#5e5e5e" stroke-width="5" fill="#5e5e5e"/><defs><path d="M205 0l-28-72H64L36 0H1l101-248h38L239 0h-34zm-38-99l-47-123c-12 45-31 82-46 123h93" id="v"/><path d="M30-248c87 1 191-15 191 75 0 78-77 80-158 76V0H30v-248zm33 125c57 0 124 11 124-50 0-59-68-47-124-48v98" id="w"/><path d="M33 0v-248h34V0H33" id="x"/><g id="a"><use transform="matrix(0.0925925925925926,0,0,0.0925925925925926,0,0)" xlink:href="#v"/><use transform="matrix(0.0925925925925926,0,0,0.0925925925925926,22.222222222222225,0)" xlink:href="#w"/><use transform="matrix(0.0925925925925926,0,0,0.0925925925925926,44.44444444444445,0)" xlink:href="#x"/></g><path d="M143 4C61 4 22-44 18-125c-5-107 100-154 193-111 17 8 29 25 37 43l-32 9c-13-25-37-40-76-40-61 0-88 39-88 99 0 61 29 100 91 101 35 0 62-11 79-27v-45h-74v-28h105v86C228-13 192 4 143 4" id="y"/><path d="M141-36C126-15 110 5 73 4 37 3 15-17 15-53c-1-64 63-63 125-63 3-35-9-54-41-54-24 1-41 7-42 31l-33-3c5-37 33-52 76-52 45 0 72 20 72 64v82c-1 20 7 32 28 27v20c-31 9-61-2-59-35zM48-53c0 20 12 33 32 33 41-3 63-29 60-74-43 2-92-5-92 41" id="z"/><path d="M59-47c-2 24 18 29 38 22v24C64 9 27 4 27-40v-127H5v-23h24l9-43h21v43h35v23H59v120" id="A"/><path d="M100-194c63 0 86 42 84 106H49c0 40 14 67 53 68 26 1 43-12 49-29l28 8c-11 28-37 45-77 45C44 4 14-33 15-96c1-61 26-98 85-98zm52 81c6-60-76-77-97-28-3 7-6 17-6 28h103" id="B"/><path d="M206 0h-36l-40-164L89 0H53L-1-190h32L70-26l43-164h34l41 164 42-164h31" id="C"/><path d="M179-190L93 31C79 59 56 82 12 73V49c39 6 53-20 64-50L1-190h34L92-34l54-156h33" id="D"/><g id="b"><use transform="matrix(0.0925925925925926,0,0,0.0925925925925926,0,0)" xlink:href="#y"/><use transform="matrix(0.0925925925925926,0,0,0.0925925925925926,25.925925925925927,0)" xlink:href="#z"/><use transform="matrix(0.0925925925925926,0,0,0.0925925925925926,44.44444444444444,0)" xlink:href="#A"/><use transform="matrix(0.0925925925925926,0,0,0.0925925925925926,53.703703703703695,0)" xlink:href="#B"/><use transform="matrix(0.0925925925925926,0,0,0.0925925925925926,72.22222222222223,0)" xlink:href="#C"/><use transform="matrix(0.0925925925925926,0,0,0.0925925925925926,96.20370370370371,0)" xlink:href="#z"/><use transform="matrix(0.0925925925925926,0,0,0.0925925925925926,114.72222222222223,0)" xlink:href="#D"/></g><path d="M212-179c-10-28-35-45-73-45-59 0-87 40-87 99 0 60 29 101 89 101 43 0 62-24 78-52l27 14C228-24 195 4 139 4 59 4 22-46 18-125c-6-104 99-153 187-111 19 9 31 26 39 46" id="E"/><path d="M100-194c62-1 85 37 85 99 1 63-27 99-86 99S16-35 15-95c0-66 28-99 85-99zM99-20c44 1 53-31 53-75 0-43-8-75-51-75s-53 32-53 75 10 74 51 75" id="F"/><path d="M210-169c-67 3-38 105-44 169h-31v-121c0-29-5-50-35-48C34-165 62-65 56 0H25l-1-190h30c1 10-1 24 2 32 10-44 99-50 107 0 11-21 27-35 58-36 85-2 47 119 55 194h-31v-121c0-29-5-49-35-48" id="G"/><path d="M117-194c89-4 53 116 60 194h-32v-121c0-31-8-49-39-48C34-167 62-67 57 0H25l-1-190h30c1 10-1 24 2 32 11-22 29-35 61-36" id="H"/><g id="c"><use transform="matrix(0.0925925925925926,0,0,0.0925925925925926,0,0)" xlink:href="#E"/><use transform="matrix(0.0925925925925926,0,0,0.0925925925925926,23.981481481481485,0)" xlink:href="#F"/><use transform="matrix(0.0925925925925926,0,0,0.0925925925925926,42.5,0)" xlink:href="#G"/><use transform="matrix(0.0925925925925926,0,0,0.0925925925925926,70.18518518518519,0)" xlink:href="#G"/><use transform="matrix(0.0925925925925926,0,0,0.0925925925925926,97.87037037037038,0)" xlink:href="#F"/><use transform="matrix(0.0925925925925926,0,0,0.0925925925925926,116.3888888888889,0)" xlink:href="#H"/></g><path d="M24 0v-261h32V0H24" id="I"/><path d="M114-163C36-179 61-72 57 0H25l-1-190h30c1 12-1 29 2 39 6-27 23-49 58-41v29" id="J"/><g id="d"><use transform="matrix(0.0925925925925926,0,0,0.0925925925925926,0,0)" xlink:href="#I"/><use transform="matrix(0.0925925925925926,0,0,0.0925925925925926,7.314814814814816,0)" xlink:href="#z"/><use transform="matrix(0.0925925925925926,0,0,0.0925925925925926,25.833333333333336,0)" xlink:href="#D"/><use transform="matrix(0.0925925925925926,0,0,0.0925925925925926,42.5,0)" xlink:href="#B"/><use transform="matrix(0.0925925925925926,0,0,0.0925925925925926,61.018518518518526,0)" xlink:href="#J"/></g><g id="e"><use transform="matrix(0.30864197530864196,0,0,0.30864197530864196,0,0)" xlink:href="#v"/><use transform="matrix(0.30864197530864196,0,0,0.30864197530864196,74.07407407407408,0)" xlink:href="#w"/><use transform="matrix(0.30864197530864196,0,0,0.30864197530864196,148.14814814814815,0)" xlink:href="#x"/></g><g id="f"><use transform="matrix(0.30864197530864196,0,0,0.30864197530864196,0,0)" xlink:href="#y"/><use transform="matrix(0.30864197530864196,0,0,0.30864197530864196,86.41975308641975,0)" xlink:href="#z"/><use transform="matrix(0.30864197530864196,0,0,0.30864197530864196,148.14814814814815,0)" xlink:href="#A"/><use transform="matrix(0.30864197530864196,0,0,0.30864197530864196,179.01234567901238,0)" xlink:href="#B"/><use transform="matrix(0.30864197530864196,0,0,0.30864197530864196,240.74074074074076,0)" xlink:href="#C"/><use transform="matrix(0.30864197530864196,0,0,0.30864197530864196,320.67901234567904,0)" xlink:href="#z"/><use transform="matrix(0.30864197530864196,0,0,0.30864197530864196,382.40740740740745,0)" xlink:href="#D"/></g><path d="M84 4C-5 8 30-112 23-190h32v120c0 31 7 50 39 49 72-2 45-101 50-169h31l1 190h-30c-1-10 1-25-2-33-11 22-28 36-60 37" id="K"/><path d="M106-169C34-169 62-67 57 0H25v-261h32l-1 103c12-21 28-36 61-36 89 0 53 116 60 194h-32v-121c2-32-8-49-39-48" id="L"/><path d="M24-231v-30h32v30H24zM24 0v-190h32V0H24" id="M"/><path d="M96-169c-40 0-48 33-48 73s9 75 48 75c24 0 41-14 43-38l32 2c-6 37-31 61-74 61-59 0-76-41-82-99-10-93 101-131 147-64 4 7 5 14 7 22l-32 3c-4-21-16-35-41-35" id="N"/><g id="g"><use transform="matrix(0.0925925925925926,0,0,0.0925925925925926,0,0)" xlink:href="#v"/><use transform="matrix(0.0925925925925926,0,0,0.0925925925925926,22.222222222222225,0)" xlink:href="#K"/><use transform="matrix(0.0925925925925926,0,0,0.0925925925925926,40.74074074074075,0)" xlink:href="#A"/><use transform="matrix(0.0925925925925926,0,0,0.0925925925925926,50.00000000000001,0)" xlink:href="#L"/><use transform="matrix(0.0925925925925926,0,0,0.0925925925925926,68.51851851851853,0)" xlink:href="#B"/><use transform="matrix(0.0925925925925926,0,0,0.0925925925925926,87.03703703703705,0)" xlink:href="#H"/><use transform="matrix(0.0925925925925926,0,0,0.0925925925925926,105.55555555555557,0)" xlink:href="#A"/><use transform="matrix(0.0925925925925926,0,0,0.0925925925925926,114.81481481481485,0)" xlink:href="#M"/><use transform="matrix(0.0925925925925926,0,0,0.0925925925925926,122.12962962962965,0)" xlink:href="#N"/><use transform="matrix(0.0925925925925926,0,0,0.0925925925925926,138.7962962962963,0)" xlink:href="#z"/><use transform="matrix(0.0925925925925926,0,0,0.0925925925925926,157.31481481481484,0)" xlink:href="#A"/><use transform="matrix(0.0925925925925926,0,0,0.0925925925925926,166.5740740740741,0)" xlink:href="#M"/><use transform="matrix(0.0925925925925926,0,0,0.0925925925925926,173.8888888888889,0)" xlink:href="#F"/><use transform="matrix(0.0925925925925926,0,0,0.0925925925925926,192.40740740740748,0)" xlink:href="#H"/></g><path d="M30 0v-248h33v221h125V0H30" id="O"/><path d="M85-194c31 0 48 13 60 33l-1-100h32l1 261h-30c-2-10 0-23-3-31C134-8 116 4 85 4 32 4 16-35 15-94c0-66 23-100 70-100zm9 24c-40 0-46 34-46 75 0 40 6 74 45 74 42 0 51-32 51-76 0-42-9-74-50-73" id="P"/><g id="h"><use transform="matrix(0.0925925925925926,0,0,0.0925925925925926,0,0)" xlink:href="#O"/><use transform="matrix(0.0925925925925926,0,0,0.0925925925925926,18.51851851851852,0)" xlink:href="#F"/><use transform="matrix(0.0925925925925926,0,0,0.0925925925925926,37.03703703703704,0)" xlink:href="#z"/><use transform="matrix(0.0925925925925926,0,0,0.0925925925925926,55.555555555555564,0)" xlink:href="#P"/></g><path d="M115-194c53 0 69 39 70 98 0 66-23 100-70 100C84 3 66-7 56-30L54 0H23l1-261h32v101c10-23 28-34 59-34zm-8 174c40 0 45-34 45-75 0-40-5-75-45-74-42 0-51 32-51 76 0 43 10 73 51 73" id="Q"/><g id="i"><use transform="matrix(0.0925925925925926,0,0,0.0925925925925926,0,0)" xlink:href="#Q"/><use transform="matrix(0.0925925925925926,0,0,0.0925925925925926,18.51851851851852,0)" xlink:href="#z"/><use transform="matrix(0.0925925925925926,0,0,0.0925925925925926,37.03703703703704,0)" xlink:href="#I"/><use transform="matrix(0.0925925925925926,0,0,0.0925925925925926,44.351851851851855,0)" xlink:href="#z"/><use transform="matrix(0.0925925925925926,0,0,0.0925925925925926,62.870370370370374,0)" xlink:href="#H"/><use transform="matrix(0.0925925925925926,0,0,0.0925925925925926,81.38888888888889,0)" xlink:href="#N"/><use transform="matrix(0.0925925925925926,0,0,0.0925925925925926,98.05555555555557,0)" xlink:href="#B"/><use transform="matrix(0.0925925925925926,0,0,0.0925925925925926,116.57407407407409,0)" xlink:href="#J"/></g><path d="M240 0l2-218c-23 76-54 145-80 218h-23L58-218 59 0H30v-248h44l77 211c21-75 51-140 76-211h43V0h-30" id="R"/><path d="M135-143c-3-34-86-38-87 0 15 53 115 12 119 90S17 21 10-45l28-5c4 36 97 45 98 0-10-56-113-15-118-90-4-57 82-63 122-42 12 7 21 19 24 35" id="S"/><g id="j"><use transform="matrix(0.0925925925925926,0,0,0.0925925925925926,0,0)" xlink:href="#R"/><use transform="matrix(0.0925925925925926,0,0,0.0925925925925926,27.685185185185187,0)" xlink:href="#B"/><use transform="matrix(0.0925925925925926,0,0,0.0925925925925926,46.20370370370371,0)" xlink:href="#A"/><use transform="matrix(0.0925925925925926,0,0,0.0925925925925926,55.46296296296297,0)" xlink:href="#J"/><use transform="matrix(0.0925925925925926,0,0,0.0925925925925926,66.4814814814815,0)" xlink:href="#M"/><use transform="matrix(0.0925925925925926,0,0,0.0925925925925926,73.7962962962963,0)" xlink:href="#N"/><use transform="matrix(0.0925925925925926,0,0,0.0925925925925926,90.46296296296298,0)" xlink:href="#S"/></g><path d="M9 0v-24l116-142H16v-24h144v24L44-24h123V0H9" id="T"/><g id="k"><use transform="matrix(0.0925925925925926,0,0,0.0925925925925926,0,0)" xlink:href="#v"/><use transform="matrix(0.0925925925925926,0,0,0.0925925925925926,22.222222222222225,0)" xlink:href="#K"/><use transform="matrix(0.0925925925925926,0,0,0.0925925925925926,40.74074074074075,0)" xlink:href="#A"/><use transform="matrix(0.0925925925925926,0,0,0.0925925925925926,50.00000000000001,0)" xlink:href="#L"/><use transform="matrix(0.0925925925925926,0,0,0.0925925925925926,68.51851851851853,0)" xlink:href="#F"/><use transform="matrix(0.0925925925925926,0,0,0.0925925925925926,87.03703703703705,0)" xlink:href="#J"/><use transform="matrix(0.0925925925925926,0,0,0.0925925925925926,98.05555555555557,0)" xlink:href="#M"/><use transform="matrix(0.0925925925925926,0,0,0.0925925925925926,105.37037037037038,0)" xlink:href="#T"/><use transform="matrix(0.0925925925925926,0,0,0.0925925925925926,122.03703703703705,0)" xlink:href="#z"/><use transform="matrix(0.0925925925925926,0,0,0.0925925925925926,140.55555555555557,0)" xlink:href="#A"/><use transform="matrix(0.0925925925925926,0,0,0.0925925925925926,149.81481481481484,0)" xlink:href="#M"/><use transform="matrix(0.0925925925925926,0,0,0.0925925925925926,157.12962962962965,0)" xlink:href="#F"/><use transform="matrix(0.0925925925925926,0,0,0.0925925925925926,175.64814814814815,0)" xlink:href="#H"/></g><path d="M177-190C167-65 218 103 67 71c-23-6-38-20-44-43l32-5c15 47 100 32 89-28v-30C133-14 115 1 83 1 29 1 15-40 15-95c0-56 16-97 71-98 29-1 48 16 59 35 1-10 0-23 2-32h30zM94-22c36 0 50-32 50-73 0-42-14-75-50-75-39 0-46 34-46 75s6 73 46 73" id="U"/><g id="l"><use transform="matrix(0.0925925925925926,0,0,0.0925925925925926,0,0)" xlink:href="#E"/><use transform="matrix(0.0925925925925926,0,0,0.0925925925925926,23.981481481481485,0)" xlink:href="#z"/><use transform="matrix(0.0925925925925926,0,0,0.0925925925925926,42.5,0)" xlink:href="#N"/><use transform="matrix(0.0925925925925926,0,0,0.0925925925925926,59.16666666666667,0)" xlink:href="#L"/><use transform="matrix(0.0925925925925926,0,0,0.0925925925925926,77.68518518518519,0)" xlink:href="#M"/><use transform="matrix(0.0925925925925926,0,0,0.0925925925925926,85,0)" xlink:href="#H"/><use transform="matrix(0.0925925925925926,0,0,0.0925925925925926,103.51851851851853,0)" xlink:href="#U"/></g><g id="m"><use transform="matrix(0.0925925925925926,0,0,0.0925925925925926,0,0)" xlink:href="#O"/><use transform="matrix(0.0925925925925926,0,0,0.0925925925925926,18.51851851851852,0)" xlink:href="#F"/><use transform="matrix(0.0925925925925926,0,0,0.0925925925925926,37.03703703703704,0)" xlink:href="#U"/><use transform="matrix(0.0925925925925926,0,0,0.0925925925925926,55.555555555555564,0)" xlink:href="#U"/><use transform="matrix(0.0925925925925926,0,0,0.0925925925925926,74.07407407407408,0)" xlink:href="#M"/><use transform="matrix(0.0925925925925926,0,0,0.0925925925925926,81.38888888888889,0)" xlink:href="#H"/><use transform="matrix(0.0925925925925926,0,0,0.0925925925925926,99.90740740740739,0)" xlink:href="#U"/></g><path d="M160-131c35 5 61 23 61 61C221 17 115-2 30 0v-248c76 3 177-17 177 60 0 33-19 50-47 57zm-97-11c50-1 110 9 110-42 0-47-63-36-110-37v79zm0 115c55-2 124 14 124-45 0-56-70-42-124-44v89" id="V"/><g id="n"><use transform="matrix(0.0925925925925926,0,0,0.0925925925925926,0,0)" xlink:href="#V"/><use transform="matrix(0.0925925925925926,0,0,0.0925925925925926,22.222222222222225,0)" xlink:href="#J"/><use transform="matrix(0.0925925925925926,0,0,0.0925925925925926,33.24074074074075,0)" xlink:href="#F"/><use transform="matrix(0.0925925925925926,0,0,0.0925925925925926,51.75925925925927,0)" xlink:href="#C"/><use transform="matrix(0.0925925925925926,0,0,0.0925925925925926,75.74074074074075,0)" xlink:href="#S"/><use transform="matrix(0.0925925925925926,0,0,0.0925925925925926,92.40740740740742,0)" xlink:href="#B"/><use transform="matrix(0.0925925925925926,0,0,0.0925925925925926,110.92592592592594,0)" xlink:href="#J"/></g><g id="o"><use transform="matrix(0.0925925925925926,0,0,0.0925925925925926,0,0)" xlink:href="#v"/><use transform="matrix(0.0925925925925926,0,0,0.0925925925925926,22.222222222222225,0)" xlink:href="#w"/><use transform="matrix(0.0925925925925926,0,0,0.0925925925925926,44.44444444444445,0)" xlink:href="#x"/></g><g id="p"><use transform="matrix(0.0925925925925926,0,0,0.0925925925925926,0,0)" xlink:href="#w"/><use transform="matrix(0.0925925925925926,0,0,0.0925925925925926,22.222222222222225,0)" xlink:href="#K"/><use transform="matrix(0.0925925925925926,0,0,0.0925925925925926,40.74074074074075,0)" xlink:href="#Q"/><use transform="matrix(0.0925925925925926,0,0,0.0925925925925926,59.25925925925927,0)" xlink:href="#I"/><use transform="matrix(0.0925925925925926,0,0,0.0925925925925926,66.57407407407408,0)" xlink:href="#M"/><use transform="matrix(0.0925925925925926,0,0,0.0925925925925926,73.88888888888889,0)" xlink:href="#N"/></g><path d="M233-177c-1 41-23 64-60 70L243 0h-38l-65-103H63V0H30v-248c88 3 205-21 203 71zM63-129c60-2 137 13 137-47 0-61-80-42-137-45v92" id="W"/><g id="q"><use transform="matrix(0.0925925925925926,0,0,0.0925925925925926,0,0)" xlink:href="#W"/><use transform="matrix(0.0925925925925926,0,0,0.0925925925925926,23.981481481481485,0)" xlink:href="#z"/><use transform="matrix(0.0925925925925926,0,0,0.0925925925925926,42.5,0)" xlink:href="#A"/><use transform="matrix(0.0925925925925926,0,0,0.0925925925925926,51.75925925925927,0)" xlink:href="#B"/></g><g id="r"><use transform="matrix(0.0925925925925926,0,0,0.0925925925925926,0,0)" xlink:href="#I"/><use transform="matrix(0.0925925925925926,0,0,0.0925925925925926,7.314814814814816,0)" xlink:href="#M"/><use transform="matrix(0.0925925925925926,0,0,0.0925925925925926,14.629629629629632,0)" xlink:href="#G"/><use transform="matrix(0.0925925925925926,0,0,0.0925925925925926,42.31481481481482,0)" xlink:href="#M"/><use transform="matrix(0.0925925925925926,0,0,0.0925925925925926,49.62962962962963,0)" xlink:href="#A"/><use transform="matrix(0.0925925925925926,0,0,0.0925925925925926,58.88888888888889,0)" xlink:href="#M"/><use transform="matrix(0.0925925925925926,0,0,0.0925925925925926,66.20370370370371,0)" xlink:href="#H"/><use transform="matrix(0.0925925925925926,0,0,0.0925925925925926,84.72222222222223,0)" xlink:href="#U"/></g><path d="M140-251c81 0 123 46 123 126C263-46 219 4 140 4 59 4 17-45 17-125s42-126 123-126zm0 227c63 0 89-41 89-101s-29-99-89-99c-61 0-89 39-89 99S79-25 140-24" id="X"/><g id="s"><use transform="matrix(0.24691358024691357,0,0,0.24691358024691357,0,0)" xlink:href="#X"/><use transform="matrix(0.24691358024691357,0,0,0.24691358024691357,69.1358024691358,0)" xlink:href="#A"/><use transform="matrix(0.24691358024691357,0,0,0.24691358024691357,93.82716049382715,0)" xlink:href="#L"/><use transform="matrix(0.24691358024691357,0,0,0.24691358024691357,143.20987654320987,0)" xlink:href="#B"/><use transform="matrix(0.24691358024691357,0,0,0.24691358024691357,192.59259259259258,0)" xlink:href="#J"/></g><path d="M63-220v92h138v28H63V0H30v-248h175v28H63" id="Y"/><g id="t"><use transform="matrix(0.24691358024691357,0,0,0.24691358024691357,0,0)" xlink:href="#Y"/><use transform="matrix(0.24691358024691357,0,0,0.24691358024691357,54.07407407407407,0)" xlink:href="#z"/><use transform="matrix(0.24691358024691357,0,0,0.24691358024691357,103.45679012345678,0)" xlink:href="#J"/><use transform="matrix(0.24691358024691357,0,0,0.24691358024691357,132.8395061728395,0)" xlink:href="#G"/><use transform="matrix(0.24691358024691357,0,0,0.24691358024691357,206.66666666666663,0)" xlink:href="#z"/><use transform="matrix(0.24691358024691357,0,0,0.24691358024691357,256.04938271604937,0)" xlink:href="#D"/><use transform="matrix(0.24691358024691357,0,0,0.24691358024691357,300.4938271604938,0)" xlink:href="#N"/><use transform="matrix(0.24691358024691357,0,0,0.24691358024691357,344.9382716049383,0)" xlink:href="#Y"/><use transform="matrix(0.24691358024691357,0,0,0.24691358024691357,399.01234567901236,0)" xlink:href="#F"/><use transform="matrix(0.24691358024691357,0,0,0.24691358024691357,448.3950617283951,0)" xlink:href="#F"/><use transform="matrix(0.24691358024691357,0,0,0.24691358024691357,497.7777777777778,0)" xlink:href="#P"/></g><path d="M185-189c-5-48-123-54-124 2 14 75 158 14 163 119 3 78-121 87-175 55-17-10-28-26-33-46l33-7c5 56 141 63 141-1 0-78-155-14-162-118-5-82 145-84 179-34 5 7 8 16 11 25" id="Z"/><path d="M108 0H70L1-190h34L89-25l56-165h34" id="aa"/><g id="u"><use transform="matrix(0.24691358024691357,0,0,0.24691358024691357,0,0)" xlink:href="#Z"/><use transform="matrix(0.24691358024691357,0,0,0.24691358024691357,59.25925925925925,0)" xlink:href="#B"/><use transform="matrix(0.24691358024691357,0,0,0.24691358024691357,108.64197530864197,0)" xlink:href="#J"/><use transform="matrix(0.24691358024691357,0,0,0.24691358024691357,138.02469135802468,0)" xlink:href="#aa"/><use transform="matrix(0.24691358024691357,0,0,0.24691358024691357,182.4691358024691,0)" xlink:href="#M"/><use transform="matrix(0.24691358024691357,0,0,0.24691358024691357,201.9753086419753,0)" xlink:href="#N"/><use transform="matrix(0.24691358024691357,0,0,0.24691358024691357,246.41975308641975,0)" xlink:href="#B"/><use transform="matrix(0.24691358024691357,0,0,0.24691358024691357,295.8024691358025,0)" xlink:href="#S"/></g></defs></g></svg>