<svg xmlns="http://www.w3.org/2000/svg" xmlns:xlink="http://www.w3.org/1999/xlink" xmlns:lucid="lucid" width="4240" height="2543.33"><g transform="translate(-14320 -14816.666666666666)" lucid:page-tab-id="2nhKjSC9~bUf"><path d="M14000 14500h5000v3000h-5000z" fill="#fff"/><path d="M15520 15842.43c0-3.3 2.7-6 6-6h3008c3.3 0 6 2.7 6 6V17334c0 3.3-2.7 6-6 6h-3008c-3.3 0-6-2.7-6-6z" stroke="#000" stroke-width="9" fill="#fff" fill-opacity="0"/><use xlink:href="#a" transform="matrix(1,0,0,1,15525,15841.43171727757) translate(0 71.11111111111111)"/><use xlink:href="#b" transform="matrix(1,0,0,1,15525,15841.43171727757) translate(260.7407407407407 71.11111111111111)"/><path d="M16300 16226c0-3.3 2.7-6 6-6h1108c3.3 0 6 2.7 6 6v871.3c0 3.3-2.7 6-6 6h-1108c-3.3 0-6-2.7-6-6z" stroke="#000" stroke-width="9" fill="#fff" fill-opacity="0"/><use xlink:href="#c" transform="matrix(1,0,0,1,16305,16225) translate(0 71.11111111111111)"/><use xlink:href="#d" transform="matrix(1,0,0,1,16305,16225) translate(295.55555555555554 71.11111111111111)"/><path d="M15000 14842.67c0-3.32 2.7-6 6-6h768c3.3 0 6 2.68 6 6v548c0 3.3-2.7 6-6 6h-768c-3.3 0-6-2.7-6-6z" stroke="#000" fill="#e5e5e5"/><use xlink:href="#e" transform="matrix(1,0,0,1,15012,14848.666666666666) translate(230.46913580246914 289.8888888888889)"/><path d="M14340 15875.27c0-3.32 2.7-6 6-6h728c3.3 0 6 2.68 6 6v208c0 3.3-2.7 6-6 6h-728c-3.3 0-6-2.7-6-6z" stroke="#000" stroke-width="10" fill="#fff" fill-opacity="0"/><use xlink:href="#f" transform="matrix(1,0,0,1,14345,15874.268182166255) translate(286.3333333333334 115.29820261437902)"/><path d="M15387.32 15943.5l52.44 3.24 40.4.78-.2 10-40.6-.78-52.96-3.3-14.1-1.72v-10.08zm-226.17-23.7l52.9 3.3 14.26 1.5v10.06l-15.08-1.6-52.48-3.26-70.83-1.37.2-10z" fill="#5e5e5e"/><path d="M15090.23 15918.44l-.2 10-5.03-.1v-10zM15499.32 15952.9l-14.35 4.35.18-9.27z" fill="#5e5e5e"/><path d="M15515.5 15953.2l-35.66 10.83.44-23.03z" fill="#5e5e5e"/><use xlink:href="#g" transform="matrix(1,0,0,1,15228.310012456603,15897.85529489) translate(0.0049999999999954525 26.66666666666667)"/><use xlink:href="#h" transform="matrix(1,0,0,1,15228.310012456603,15897.85529489) translate(31.254999999999995 66.66666666666669)"/><path d="M15405.54 16115.3l17.33 3.3 18.85 2.78 21.07 2.2 24.16 1.5 3.74.1-.1 4.98-3.84-.07-24.4-1.54-21.26-2.22-19.06-2.8-17.36-3.32v-5.13zm-291.8-81.9l24.4 1.52 21.26 2.23 19.06 2.8 17.54 3.35h.07v5.15l-1.1-.26-17.34-3.3-18.85-2.8-21.07-2.2-24.16-1.5-26.08-.53.1-5z" fill="#5e5e5e"/><path d="M15087.62 16032.87l-.1 5-2.52-.05v-5zM15507.4 16128l-14.35 4.35.2-9.27z" fill="#5e5e5e"/><path d="M15515.5 16128.17l-25.02 7.57.33-16.15zm-19.88.8l3.7-1.13-3.65-1.27z" fill="#5e5e5e"/><use xlink:href="#i" transform="matrix(1,0,0,1,15196.070496690527,16041.429010980848) translate(34.958703703703705 26.66666666666667)"/><use xlink:href="#j" transform="matrix(1,0,0,1,15196.070496690527,16041.429010980848) translate(0.0049999999999954525 66.66666666666669)"/><path d="M16380 16786c0-3.3 2.7-6 6-6h368c3.3 0 6 2.7 6 6v176.7c0 3.32-2.7 6-6 6h-368c-3.3 0-6-2.68-6-6z" stroke="#000" stroke-width="9" fill="#fff" fill-opacity="0"/><use xlink:href="#k" transform="matrix(1,0,0,1,16385,16784.999999999993) translate(15.179557007988592 100.01695261437902)"/><use xlink:href="#l" transform="matrix(1,0,0,1,16385,16784.999999999993) translate(166.613834422658 100.01695261437902)"/><path d="M16960 16365.65c0-3.3 2.7-6 6-6h368c3.3 0 6 2.7 6 6v108c0 3.3-2.7 6-6 6h-368c-3.3 0-6-2.7-6-6z" stroke="#000" stroke-width="9" fill="#fff" fill-opacity="0"/><use xlink:href="#m" transform="matrix(1,0,0,1,16965,16364.649143931136) translate(68.21604938271618 66.86070261437902)"/><path d="M16960 16526c0-3.3 2.7-6 6-6h368c3.3 0 6 2.7 6 6v176.35c0 3.3-2.7 6-6 6h-368c-3.3 0-6-2.7-6-6z" stroke="#000" stroke-width="9" fill="#fff" fill-opacity="0"/><use xlink:href="#n" transform="matrix(1,0,0,1,16965,16524.999999999996) translate(28.71895424836623 66.45445261437902)"/><use xlink:href="#o" transform="matrix(1,0,0,1,16965,16524.999999999996) translate(47.777596223674806 140.96425653594758)"/><path d="M16960 16734.84c0-3.3 2.7-6 6-6h368c3.3 0 6 2.7 6 6v147.02c0 3.3-2.7 6-6 6h-368c-3.3 0-6-2.7-6-6z" stroke="#000" stroke-width="9" fill="#fff" fill-opacity="0"/><use xlink:href="#p" transform="matrix(1,0,0,1,16965,16733.84105214729) translate(75.37381989832983 49.67320261437903)"/><use xlink:href="#o" transform="matrix(1,0,0,1,16965,16733.84105214729) translate(47.777596223674806 124.18300653594758)"/><path d="M16953 16419.75l-.3.02-1.35.14-1.35.2-1.35.27-1.34.3-1.34.4-1.35.43-1.36.5-1.4.6-1.4.65-1.44.76-1.47.86-1.52.96-1.56 1.1-1.64 1.24-1.7 1.4-1.78 1.62-1.9 1.84-1.98 2.13-2.13 2.46-2.27 2.9-2.47 3.4-2.7 4.07-2.97 4.9-3.32 6.04-3.75 7.58-4.32 9.73-5.12 13-6.36 18.36-8.7 29.05-51.34 199.84-6.36 18.37-5.13 13-4.33 9.73-3.75 7.56-3.3 6.03-2.98 4.9-2.7 4.07-2.47 3.4-2.28 2.9-2.14 2.46-2 2.13-1.88 1.83-1.78 1.6-1.6 1.33" stroke="#5e5e5e" stroke-width="5" fill="none"/><path d="M16955.5 16422.15l-2.5.05-.12-5 2.62-.05z" fill="#5e5e5e"/><path d="M16772.07 16821.5l11.7-9.37 3.28 8.68z" stroke="#5e5e5e" stroke-width="5" fill="#5e5e5e"/><path d="M16953 16614.24l-1.7.1-2.03.22-2 .3-1.96.37-1.93.46-1.93.53-1.93.62-1.92.72-1.94.82-1.95.9-2 1.04-2 1.17-2.07 1.32-2.12 1.47-2.17 1.65-2.26 1.87-2.36 2.13-2.46 2.42-2.6 2.78-2.78 3.2-2.98 3.77-3.22 4.43-3.53 5.33-3.94 6.52-4.52 8.2-5.35 10.8-6.84 15.46-11.2 28.54-29.8 79.6-6.83 15.46-5.35 10.8-4.5 8.2-3.95 6.53-3.53 5.32-3.22 4.43-2.98 3.76-2.77 3.22-2.6 2.78-2.48 2.42-2.37 2.13-2.26 1.87-2.18 1.66-2.13 1.47-2.06 1.3-2 1.17" stroke="#5e5e5e" stroke-width="5" fill="none"/><path d="M16955.5 16616.68l-2.5.05-.12-5 2.62-.06z" fill="#5e5e5e"/><path d="M16772.33 16877.66l12.65-8.07 2.32 8.97z" stroke="#5e5e5e" stroke-width="5" fill="#5e5e5e"/><path d="M16953 16808.4l-1.92.04-4.17.26-3.95.42-3.8.56-3.63.7-3.5.82-3.43.95-3.36 1.1-3.28 1.2-3.25 1.38-3.23 1.52-3.24 1.7-3.26 1.88-3.32 2.1-3.4 2.38-3.55 2.7-3.72 3.08-4 3.6-4.4 4.3-5.06 5.4-6.42 7.47-14.1 18-16.1 20.68-6.42 7.46-5.07 5.4-4.4 4.3-3.98 3.6-3.72 3.08-3.54 2.7-3.4 2.36-3.33 2.1-3.26 1.9-3.24 1.7-3.24 1.5-3.26 1.37-3.28 1.24-3.35 1.08-2.32.65" stroke="#5e5e5e" stroke-width="5" fill="none"/><path d="M16955.5 16810.85l-2.5.05-.12-5 2.62-.05z" fill="#5e5e5e"/><path d="M16772.52 16933.2l13.57-6.42 1.16 9.2z" stroke="#5e5e5e" stroke-width="5" fill="#5e5e5e"/><path d="M17560 16246c0-3.3 2.7-6 6-6h768c3.3 0 6 2.7 6 6v871.3c0 3.3-2.7 6-6 6h-768c-3.3 0-6-2.7-6-6z" stroke="#000" stroke-width="9" fill="#fff" fill-opacity="0"/><use xlink:href="#q" transform="matrix(1,0,0,1,17565,16244.99999999998) translate(0 71.11111111111111)"/><use xlink:href="#d" transform="matrix(1,0,0,1,17565,16244.99999999998) translate(419.5061728395062 71.11111111111111)"/><path d="M17700 16368.75c0-3.32 2.7-6 6-6h528c3.3 0 6 2.68 6 6v221.52c0 3.32-2.7 6-6 6h-528c-3.3 0-6-2.68-6-6z" stroke="#000" stroke-width="9" fill="#fff" fill-opacity="0"/><use xlink:href="#r" transform="matrix(1,0,0,1,17705,16367.745098039195) translate(124.50054466230955 49.67320261437903)"/><use xlink:href="#s" transform="matrix(1,0,0,1,17705,16367.745098039195) translate(306.63562091503263 49.67320261437903)"/><use xlink:href="#t" transform="matrix(1,0,0,1,17705,16367.745098039195) translate(117.51525054466248 124.18300653594758)"/><use xlink:href="#u" transform="matrix(1,0,0,1,17705,16367.745098039195) translate(145.1114742193175 198.69281045751612)"/><path d="M17700 16724.67c0-3.3 2.7-6 6-6h528c3.3 0 6 2.7 6 6v147.02c0 3.3-2.7 6-6 6h-528c-3.3 0-6-2.7-6-6z" stroke="#000" stroke-width="9" fill="#fff" fill-opacity="0"/><use xlink:href="#v" transform="matrix(1,0,0,1,17705,16723.669306628773) translate(22.48075526506929 49.67320261437903)"/><use xlink:href="#w" transform="matrix(1,0,0,1,17705,16723.669306628773) translate(263.7752360203341 49.67320261437903)"/><use xlink:href="#u" transform="matrix(1,0,0,1,17705,16723.669306628773) translate(145.1114742193175 124.18300653594758)"/><path d="M15499.8 15845.57l.72 1.77-.73 1.77-1.78.74-1.77-.73-.73-1.76.73-1.77 1.77-.73zm-7.05-7.1l.73 1.75-.73 1.77-1.77.72-1.77-.73-.72-1.78.73-1.76 1.78-.74zm-7.05-7.13l.74 1.77-.74 1.78-1.76.73-1.77-.72-.73-1.77.73-1.76 1.77-.73zm-7.04-7.12l.74 1.77-.74 1.76-1.76.73-1.77-.74-.73-1.77.73-1.78 1.77-.73zm-7.04-7.12l.73 1.77-.73 1.77-1.77.73-1.76-.73-.75-1.77.74-1.77 1.75-.73zm-7.04-7.1l.73 1.76-.72 1.76-1.77.74-1.75-.74-.74-1.76.75-1.77 1.76-.74zm-7.04-7.13l.73 1.77-.73 1.77-1.77.74-1.77-.73-.73-1.76.73-1.77 1.77-.73zm-7.04-7.12l.73 1.77-.73 1.77-1.77.72-1.77-.73-.73-1.78.73-1.77 1.77-.73zm-7.04-7.1l.73 1.75-.74 1.77-1.77.73-1.78-.73-.73-1.77.72-1.76 1.77-.74zm-7.04-7.13l.73 1.77-.73 1.75-1.77.74-1.77-.75-.73-1.76.73-1.78 1.77-.73zm-7.05-7.12l.74 1.77-.73 1.77-1.76.73-1.76-.73-.73-1.77.74-1.77 1.77-.73zm-7.04-7.12l.74 1.77-.74 1.77-1.76.73-1.77-.73-.73-1.77.73-1.77 1.77-.73zm-7.04-7.1l.72 1.75-.73 1.77-1.78.73-1.76-.73-.74-1.77.74-1.76 1.76-.74zm-7.05-7.13l.73 1.77-.73 1.76-1.77.74-1.76-.74-.74-1.76.74-1.77 1.76-.73zm-7.04-7.12l.74 1.77-.73 1.77-1.76.73-1.77-.73-.73-1.77.73-1.77 1.77-.73zm-7.03-7.12l.73 1.78-.73 1.77-1.77.73-1.77-.73-.73-1.77.73-1.77 1.77-.72zm-7.04-7.1l.73 1.76-.73 1.77-1.77.73-1.77-.73-.74-1.77.73-1.76 1.76-.74zm-7.04-7.12l.72 1.77-.73 1.76-1.78.75-1.77-.74-.73-1.75.73-1.77 1.77-.73zm-7.06-7.12l.74 1.77-.74 1.77-1.76.73-1.77-.73-.72-1.77.73-1.77 1.78-.73zm-7.04-7.12l.74 1.77-.74 1.78-1.76.73-1.77-.72-.73-1.77.73-1.76 1.77-.73zm-7.04-7.1l.73 1.75-.74 1.76-1.77.73-1.77-.74-.74-1.77.73-1.77 1.76-.74zm-7.04-7.13l.73 1.78-.73 1.76-1.77.74-1.76-.74-.75-1.76.74-1.77 1.75-.72zm-7.04-7.1l.73 1.76-.72 1.77-1.77.73-1.76-.73-.73-1.77.74-1.77 1.77-.74zm-7.04-7.13l.73 1.77-.73 1.77-1.77.74-1.77-.73-.73-1.76.73-1.77 1.77-.73zm-7.04-7.1l.73 1.75-.73 1.77-1.77.72-1.77-.73-.73-1.78.73-1.76 1.77-.74zm-7.04-7.13l.73 1.77-.74 1.77-1.77.74-1.78-.73-.73-1.76.72-1.76 1.77-.73zm-7.05-7.12l.75 1.77-.74 1.76-1.75.73-1.77-.74-.73-1.77.73-1.78 1.77-.73zm-7.03-7.12l.74 1.77-.73 1.77-1.76.73-1.76-.73-.73-1.77.74-1.77 1.77-.73zm-7.04-7.1l.73 1.75-.73 1.77-1.77.73-1.76-.73-.74-1.77.74-1.76 1.76-.75zm-7.04-7.13l.72 1.77-.73 1.76-1.78.74-1.76-.74-.74-1.76.74-1.77 1.76-.73zm-7.05-7.12l.73 1.77-.73 1.77-1.77.72-1.77-.73-.72-1.78.73-1.77 1.78-.73zm-7.04-7.12l.74 1.77-.73 1.77-1.76.73-1.77-.73-.73-1.77.73-1.77 1.77-.73zm-7.03-7.1l.73 1.75-.73 1.77-1.77.73-1.77-.73-.73-1.77.73-1.76 1.77-.74zm-7.04-7.13l.73 1.77-.73 1.76-1.77.74-1.77-.74-.74-1.76.73-1.77 1.76-.73zm-7.05-7.12l.74 1.77-.74 1.77-1.76.73-1.77-.73-.73-1.77.73-1.77 1.77-.73zm-7.04-7.12l.74 1.77-.74 1.77-1.76.73-1.77-.73-.72-1.77.73-1.77 1.78-.73zm-7.04-7.1l.73 1.75-.73 1.78-1.77.73-1.76-.72-.74-1.77.74-1.75 1.76-.74zm-7.04-7.13l.73 1.77-.74 1.77-1.77.73-1.77-.73-.74-1.77.73-1.77 1.76-.73zm-7.04-7.12l.73 1.78-.73 1.77-1.77.73-1.77-.73-.73-1.77.73-1.77 1.77-.72zm-7.04-7.1l.73 1.76-.72 1.77-1.77.73-1.76-.73-.73-1.77.74-1.77 1.77-.74zm-7.04-7.12l.73 1.76-.73 1.77-1.77.74-1.77-.73-.73-1.76.73-1.76 1.77-.74zm-7.04-7.12l.73 1.77-.73 1.77-1.77.73-1.77-.73-.73-1.77.73-1.77 1.77-.73zm-7.04-7.12l.73 1.77-.74 1.78-1.77.73-1.78-.72-.73-1.77.72-1.76 1.77-.73zm-7.05-7.12l.75 1.77-.74 1.76-1.75.73-1.77-.74-.73-1.77.73-1.78 1.77-.73zm-7.03-7.1l.73 1.76-.73 1.76-1.77.74-1.76-.74-.74-1.76.74-1.77 1.76-.72zm-7.04-7.13l.73 1.76-.73 1.77-1.77.73-1.76-.73-.74-1.77.74-1.77 1.76-.74zm-7.04-7.13l.72 1.77-.73 1.77-1.78.74-1.77-.73-.73-1.76.73-1.77 1.77-.73zm-7.05-7.1l.73 1.75-.73 1.77-1.77.72-1.77-.73-.72-1.78.73-1.76 1.78-.74zm-7.04-7.13l.74 1.77-.73 1.77-1.76.74-1.77-.73-.73-1.76.73-1.76 1.77-.73zm-7.03-7.12l.73 1.77-.73 1.76-1.77.73-1.77-.74-.73-1.77.73-1.78 1.77-.73zm-7.04-7.12l.73 1.77-.73 1.77-1.77.73-1.77-.73-.74-1.77.73-1.77 1.76-.73zm-7.05-7.1l.74 1.75-.74 1.77-1.76.73-1.77-.73-.73-1.77.73-1.76 1.77-.75zm-7.04-7.13l.73 1.77-.73 1.76-1.77.74-1.76-.74-.73-1.76.74-1.77 1.77-.73zm-7.04-7.12l.73 1.77-.73 1.77-1.77.72-1.76-.73-.74-1.78.74-1.77 1.76-.73zm-7.04-7.12l.73 1.77-.74 1.77-1.77.73-1.78-.73-.73-1.77.72-1.77 1.77-.73zm-7.04-7.1l.73 1.75-.73 1.77-1.77.73-1.77-.73-.73-1.77.73-1.76 1.77-.74zm-7.04-7.13l.73 1.77-.72 1.76-1.77.74-1.76-.74-.73-1.76.74-1.77 1.77-.73zm-7.04-7.12l.73 1.77-.73 1.77-1.77.73-1.77-.73-.73-1.77.73-1.77 1.77-.73zm-7.04-7.12l.73 1.77-.73 1.77-1.77.73-1.77-.73-.73-1.77.73-1.77 1.77-.73zm-7.05-7.1l.74 1.75-.75 1.78-1.76.73-1.78-.72-.73-1.77.72-1.75 1.77-.74zm-7.04-7.13l.75 1.77-.74 1.76-1.75.74-1.77-.74-.73-1.76.73-1.77 1.77-.73zm-7.03-7.12l.73 1.78-.73 1.77-1.77.73-1.76-.73-.74-1.77.74-1.77 1.76-.72zm-7.04-7.1l.73 1.76-.73 1.77-1.77.73-1.77-.73-.74-1.77.73-1.77 1.76-.74zm-7.04-7.12l.72 1.76-.73 1.77-1.78.74-1.77-.73-.73-1.76.73-1.76 1.77-.74z" fill="#5e5e5e"/><path d="M15056.24 15397.23l-3.55 3.52-3.55-3.58h7.03zM15509.8 15859.26l-13.32-6.88 6.6-6.52z" fill="#5e5e5e"/><path d="M15515.5 15865l-23.22-11.98 11.48-11.36zm-14.8-13.26l3.42 1.77-1.74-3.44zM15785.36 14866.02c0 1.38-1.12 2.5-2.5 2.5s-2.5-1.12-2.5-2.5 1.12-2.5 2.5-2.5 2.5 1.12 2.5 2.5zm9.44 3.35c0 1.38-1.12 2.5-2.5 2.5s-2.5-1.12-2.5-2.5 1.12-2.5 2.5-2.5 2.5 1.12 2.5 2.5zm9.44 3.35c0 1.38-1.12 2.5-2.5 2.5s-2.5-1.12-2.5-2.5 1.12-2.5 2.5-2.5 2.5 1.12 2.5 2.5zm9.44 3.35c0 1.38-1.12 2.5-2.5 2.5s-2.5-1.12-2.5-2.5 1.12-2.5 2.5-2.5 2.5 1.12 2.5 2.5zm9.44 3.35c0 1.38-1.12 2.5-2.5 2.5s-2.5-1.12-2.5-2.5 1.12-2.5 2.5-2.5 2.5 1.12 2.5 2.5zm9.44 3.34c0 1.4-1.12 2.5-2.5 2.5s-2.5-1.1-2.5-2.5c0-1.38 1.12-2.5 2.5-2.5s2.5 1.12 2.5 2.5zm9.44 3.35c0 1.4-1.12 2.5-2.5 2.5s-2.5-1.1-2.5-2.5c0-1.37 1.12-2.5 2.5-2.5s2.5 1.13 2.5 2.5zm9.44 3.36c0 1.38-1.1 2.5-2.5 2.5-1.38 0-2.5-1.12-2.5-2.5s1.12-2.5 2.5-2.5c1.4 0 2.5 1.12 2.5 2.5zm9.45 3.35c0 1.4-1.13 2.5-2.5 2.5-1.4 0-2.5-1.1-2.5-2.5 0-1.37 1.1-2.5 2.5-2.5 1.37 0 2.5 1.13 2.5 2.5zm9.43 3.36c0 1.38-1.12 2.5-2.5 2.5s-2.5-1.12-2.5-2.5 1.12-2.5 2.5-2.5 2.5 1.12 2.5 2.5zm9.44 3.35c0 1.4-1.12 2.5-2.5 2.5s-2.5-1.1-2.5-2.5c0-1.37 1.12-2.5 2.5-2.5s2.5 1.13 2.5 2.5zm9.44 3.35c0 1.38-1.1 2.5-2.5 2.5-1.37 0-2.5-1.12-2.5-2.5s1.13-2.5 2.5-2.5c1.4 0 2.5 1.12 2.5 2.5zm9.45 3.35c0 1.38-1.12 2.5-2.5 2.5s-2.5-1.12-2.5-2.5 1.12-2.5 2.5-2.5 2.5 1.12 2.5 2.5zm9.44 3.35c0 1.38-1.13 2.5-2.5 2.5-1.4 0-2.5-1.12-2.5-2.5s1.1-2.5 2.5-2.5c1.37 0 2.5 1.12 2.5 2.5zm9.43 3.35c0 1.38-1.12 2.5-2.5 2.5s-2.5-1.12-2.5-2.5 1.12-2.5 2.5-2.5 2.5 1.12 2.5 2.5zm9.44 3.35c0 1.38-1.12 2.5-2.5 2.5s-2.5-1.12-2.5-2.5 1.12-2.5 2.5-2.5 2.5 1.12 2.5 2.5zm9.44 3.35c0 1.38-1.1 2.5-2.5 2.5-1.37 0-2.5-1.12-2.5-2.5 0-1.4 1.13-2.5 2.5-2.5 1.4 0 2.5 1.1 2.5 2.5zm9.46 3.34c0 1.38-1.12 2.5-2.5 2.5s-2.5-1.12-2.5-2.5 1.12-2.5 2.5-2.5 2.5 1.12 2.5 2.5zm9.44 3.35c0 1.37-1.12 2.5-2.5 2.5s-2.5-1.13-2.5-2.5c0-1.4 1.12-2.5 2.5-2.5s2.5 1.1 2.5 2.5zm9.44 3.34c0 1.38-1.12 2.5-2.5 2.5s-2.5-1.12-2.5-2.5 1.12-2.5 2.5-2.5 2.5 1.12 2.5 2.5zm9.44 3.35c0 1.37-1.12 2.5-2.5 2.5s-2.5-1.13-2.5-2.5c0-1.4 1.12-2.5 2.5-2.5s2.5 1.1 2.5 2.5zm9.44 3.34c0 1.38-1.12 2.5-2.5 2.5s-2.5-1.12-2.5-2.5 1.12-2.5 2.5-2.5 2.5 1.12 2.5 2.5zm9.44 3.34c0 1.4-1.12 2.5-2.5 2.5s-2.5-1.1-2.5-2.5c0-1.38 1.12-2.5 2.5-2.5s2.5 1.12 2.5 2.5zm9.44 3.35c0 1.38-1.12 2.5-2.5 2.5s-2.5-1.12-2.5-2.5 1.12-2.5 2.5-2.5 2.5 1.12 2.5 2.5zm9.44 3.35c0 1.38-1.1 2.5-2.5 2.5-1.38 0-2.5-1.12-2.5-2.5s1.12-2.5 2.5-2.5c1.4 0 2.5 1.12 2.5 2.5zm9.45 3.35c0 1.38-1.13 2.5-2.5 2.5-1.4 0-2.5-1.12-2.5-2.5s1.1-2.5 2.5-2.5c1.37 0 2.5 1.12 2.5 2.5zm9.43 3.35c0 1.38-1.12 2.5-2.5 2.5s-2.5-1.12-2.5-2.5 1.12-2.5 2.5-2.5 2.5 1.12 2.5 2.5zm9.44 3.35c0 1.38-1.12 2.5-2.5 2.5s-2.5-1.12-2.5-2.5 1.12-2.5 2.5-2.5 2.5 1.12 2.5 2.5zm9.44 3.34c0 1.4-1.1 2.5-2.5 2.5-1.37 0-2.5-1.1-2.5-2.5 0-1.38 1.13-2.5 2.5-2.5 1.4 0 2.5 1.12 2.5 2.5zm9.45 3.35c0 1.38-1.12 2.5-2.5 2.5s-2.5-1.12-2.5-2.5 1.12-2.5 2.5-2.5 2.5 1.12 2.5 2.5zm9.44 3.35c0 1.38-1.13 2.5-2.5 2.5-1.4 0-2.5-1.12-2.5-2.5s1.1-2.5 2.5-2.5c1.37 0 2.5 1.12 2.5 2.5zm9.43 3.35c0 1.38-1.12 2.5-2.5 2.5s-2.5-1.12-2.5-2.5 1.12-2.5 2.5-2.5 2.5 1.12 2.5 2.5zm9.44 3.35c0 1.38-1.12 2.5-2.5 2.5s-2.5-1.12-2.5-2.5 1.12-2.5 2.5-2.5 2.5 1.12 2.5 2.5zm9.44 3.35c0 1.38-1.1 2.5-2.5 2.5-1.37 0-2.5-1.12-2.5-2.5 0-1.4 1.13-2.5 2.5-2.5 1.4 0 2.5 1.1 2.5 2.5zm9.46 3.34c0 1.38-1.12 2.5-2.5 2.5s-2.5-1.12-2.5-2.5 1.12-2.5 2.5-2.5 2.5 1.12 2.5 2.5zm9.44 3.35c0 1.4-1.12 2.5-2.5 2.5s-2.5-1.1-2.5-2.5c0-1.37 1.12-2.5 2.5-2.5s2.5 1.13 2.5 2.5zm9.44 3.36c0 1.38-1.12 2.5-2.5 2.5s-2.5-1.12-2.5-2.5 1.12-2.5 2.5-2.5 2.5 1.12 2.5 2.5zm9.44 3.35c0 1.4-1.12 2.5-2.5 2.5s-2.5-1.1-2.5-2.5c0-1.37 1.12-2.5 2.5-2.5s2.5 1.13 2.5 2.5zm9.44 3.36c0 1.38-1.12 2.5-2.5 2.5s-2.5-1.12-2.5-2.5 1.12-2.5 2.5-2.5 2.5 1.12 2.5 2.5zm9.44 3.35c0 1.4-1.12 2.5-2.5 2.5s-2.5-1.1-2.5-2.5c0-1.38 1.12-2.5 2.5-2.5s2.5 1.12 2.5 2.5zm9.44 3.35c0 1.38-1.12 2.5-2.5 2.5s-2.5-1.12-2.5-2.5 1.12-2.5 2.5-2.5 2.5 1.12 2.5 2.5zm9.44 3.35c0 1.38-1.12 2.5-2.5 2.5s-2.5-1.12-2.5-2.5 1.12-2.5 2.5-2.5 2.5 1.12 2.5 2.5zm9.45 3.35c0 1.38-1.13 2.5-2.5 2.5-1.4 0-2.5-1.12-2.5-2.5s1.1-2.5 2.5-2.5c1.37 0 2.5 1.12 2.5 2.5zm9.43 3.35c0 1.38-1.12 2.5-2.5 2.5s-2.5-1.12-2.5-2.5 1.12-2.5 2.5-2.5 2.5 1.12 2.5 2.5zm9.44 3.35c0 1.38-1.12 2.5-2.5 2.5s-2.5-1.12-2.5-2.5 1.12-2.5 2.5-2.5 2.5 1.12 2.5 2.5zm9.44 3.34c0 1.38-1.1 2.5-2.5 2.5-1.37 0-2.5-1.12-2.5-2.5 0-1.4 1.13-2.5 2.5-2.5 1.4 0 2.5 1.1 2.5 2.5zm9.45 3.34c0 1.38-1.12 2.5-2.5 2.5s-2.5-1.12-2.5-2.5 1.12-2.5 2.5-2.5 2.5 1.12 2.5 2.5zm9.44 3.35c0 1.37-1.13 2.5-2.5 2.5-1.4 0-2.5-1.13-2.5-2.5 0-1.4 1.1-2.5 2.5-2.5 1.37 0 2.5 1.1 2.5 2.5zm9.43 3.34c0 1.38-1.12 2.5-2.5 2.5s-2.5-1.12-2.5-2.5 1.12-2.5 2.5-2.5 2.5 1.12 2.5 2.5zm9.44 3.35c0 1.37-1.12 2.5-2.5 2.5s-2.5-1.13-2.5-2.5c0-1.4 1.12-2.5 2.5-2.5s2.5 1.1 2.5 2.5zm9.44 3.34c0 1.38-1.1 2.5-2.5 2.5-1.37 0-2.5-1.12-2.5-2.5s1.13-2.5 2.5-2.5c1.4 0 2.5 1.12 2.5 2.5zm9.46 3.34c0 1.38-1.12 2.5-2.5 2.5s-2.5-1.12-2.5-2.5 1.12-2.5 2.5-2.5 2.5 1.12 2.5 2.5zm9.44 3.35c0 1.38-1.12 2.5-2.5 2.5s-2.5-1.12-2.5-2.5 1.12-2.5 2.5-2.5 2.5 1.12 2.5 2.5zm9.44 3.35c0 1.38-1.12 2.5-2.5 2.5s-2.5-1.12-2.5-2.5 1.12-2.5 2.5-2.5 2.5 1.12 2.5 2.5zm9.44 3.35c0 1.38-1.12 2.5-2.5 2.5s-2.5-1.12-2.5-2.5 1.12-2.5 2.5-2.5 2.5 1.12 2.5 2.5zm9.44 3.35c0 1.38-1.12 2.5-2.5 2.5s-2.5-1.12-2.5-2.5 1.12-2.5 2.5-2.5 2.5 1.12 2.5 2.5zm9.44 3.35c0 1.38-1.12 2.5-2.5 2.5s-2.5-1.12-2.5-2.5c0-1.4 1.12-2.5 2.5-2.5s2.5 1.1 2.5 2.5zm9.44 3.34c0 1.38-1.12 2.5-2.5 2.5s-2.5-1.12-2.5-2.5 1.12-2.5 2.5-2.5 2.5 1.12 2.5 2.5zm9.44 3.35c0 1.38-1.12 2.5-2.5 2.5s-2.5-1.12-2.5-2.5 1.12-2.5 2.5-2.5 2.5 1.12 2.5 2.5zm9.45 3.35c0 1.38-1.13 2.5-2.5 2.5-1.4 0-2.5-1.12-2.5-2.5s1.1-2.5 2.5-2.5c1.37 0 2.5 1.12 2.5 2.5zm9.43 3.35c0 1.38-1.12 2.5-2.5 2.5s-2.5-1.12-2.5-2.5 1.12-2.5 2.5-2.5 2.5 1.12 2.5 2.5zm9.44 3.35c0 1.38-1.12 2.5-2.5 2.5s-2.5-1.12-2.5-2.5 1.12-2.5 2.5-2.5 2.5 1.12 2.5 2.5zm9.44 3.34c0 1.4-1.1 2.5-2.5 2.5-1.37 0-2.5-1.1-2.5-2.5 0-1.37 1.13-2.5 2.5-2.5 1.4 0 2.5 1.13 2.5 2.5zm9.45 3.36c0 1.38-1.12 2.5-2.5 2.5s-2.5-1.12-2.5-2.5 1.12-2.5 2.5-2.5 2.5 1.12 2.5 2.5zm9.44 3.35c0 1.4-1.13 2.5-2.5 2.5-1.4 0-2.5-1.1-2.5-2.5 0-1.37 1.1-2.5 2.5-2.5 1.37 0 2.5 1.13 2.5 2.5zm9.43 3.36c0 1.38-1.12 2.5-2.5 2.5s-2.5-1.12-2.5-2.5 1.12-2.5 2.5-2.5 2.5 1.12 2.5 2.5zm9.44 3.35c0 1.4-1.12 2.5-2.5 2.5s-2.5-1.1-2.5-2.5c0-1.37 1.12-2.5 2.5-2.5s2.5 1.13 2.5 2.5zm9.44 3.36c0 1.38-1.1 2.5-2.5 2.5-1.37 0-2.5-1.12-2.5-2.5s1.13-2.5 2.5-2.5c1.4 0 2.5 1.12 2.5 2.5zm9.46 3.34c0 1.4-1.12 2.5-2.5 2.5s-2.5-1.1-2.5-2.5c0-1.38 1.12-2.5 2.5-2.5s2.5 1.12 2.5 2.5zm9.44 3.35c0 1.38-1.12 2.5-2.5 2.5s-2.5-1.12-2.5-2.5 1.12-2.5 2.5-2.5 2.5 1.12 2.5 2.5zm9.44 3.35c0 1.38-1.12 2.5-2.5 2.5s-2.5-1.12-2.5-2.5 1.12-2.5 2.5-2.5 2.5 1.12 2.5 2.5zm9.44 3.35c0 1.38-1.12 2.5-2.5 2.5s-2.5-1.12-2.5-2.5 1.12-2.5 2.5-2.5 2.5 1.12 2.5 2.5zm9.44 3.35c0 1.38-1.12 2.5-2.5 2.5s-2.5-1.12-2.5-2.5 1.12-2.5 2.5-2.5 2.5 1.12 2.5 2.5zm9.44 3.35c0 1.38-1.12 2.5-2.5 2.5s-2.5-1.12-2.5-2.5 1.12-2.5 2.5-2.5 2.5 1.12 2.5 2.5zm9.44 3.34c0 1.37-1.12 2.5-2.5 2.5s-2.5-1.13-2.5-2.5c0-1.4 1.12-2.5 2.5-2.5s2.5 1.1 2.5 2.5zm9.44 3.34c0 1.38-1.12 2.5-2.5 2.5s-2.5-1.12-2.5-2.5 1.12-2.5 2.5-2.5 2.5 1.12 2.5 2.5zm9.45 3.35c0 1.37-1.13 2.5-2.5 2.5-1.4 0-2.5-1.13-2.5-2.5 0-1.4 1.1-2.5 2.5-2.5 1.37 0 2.5 1.1 2.5 2.5zm9.43 3.34c0 1.38-1.12 2.5-2.5 2.5s-2.5-1.12-2.5-2.5 1.12-2.5 2.5-2.5 2.5 1.12 2.5 2.5zm9.44 3.35c0 1.37-1.12 2.5-2.5 2.5s-2.5-1.13-2.5-2.5c0-1.4 1.12-2.5 2.5-2.5s2.5 1.1 2.5 2.5zm9.44 3.34c0 1.38-1.1 2.5-2.5 2.5-1.37 0-2.5-1.12-2.5-2.5 0-1.4 1.13-2.5 2.5-2.5 1.4 0 2.5 1.1 2.5 2.5zm9.45 3.34c0 1.38-1.12 2.5-2.5 2.5s-2.5-1.12-2.5-2.5 1.12-2.5 2.5-2.5 2.5 1.12 2.5 2.5zm9.44 3.35c0 1.38-1.13 2.5-2.5 2.5-1.4 0-2.5-1.12-2.5-2.5s1.1-2.5 2.5-2.5c1.37 0 2.5 1.12 2.5 2.5zm9.43 3.35c0 1.38-1.12 2.5-2.5 2.5s-2.5-1.12-2.5-2.5 1.12-2.5 2.5-2.5 2.5 1.12 2.5 2.5zm9.44 3.35c0 1.38-1.12 2.5-2.5 2.5s-2.5-1.12-2.5-2.5 1.12-2.5 2.5-2.5 2.5 1.12 2.5 2.5zm9.44 3.35c0 1.38-1.1 2.5-2.5 2.5-1.37 0-2.5-1.12-2.5-2.5s1.13-2.5 2.5-2.5c1.4 0 2.5 1.12 2.5 2.5zm9.46 3.34c0 1.4-1.12 2.5-2.5 2.5-1.4 0-2.5-1.1-2.5-2.5 0-1.38 1.1-2.5 2.5-2.5 1.38 0 2.5 1.12 2.5 2.5zm9.44 3.35c0 1.38-1.12 2.5-2.5 2.5s-2.5-1.12-2.5-2.5 1.12-2.5 2.5-2.5 2.5 1.12 2.5 2.5zm9.44 3.35c0 1.38-1.12 2.5-2.5 2.5s-2.5-1.12-2.5-2.5 1.12-2.5 2.5-2.5 2.5 1.12 2.5 2.5zm9.44 3.35c0 1.38-1.12 2.5-2.5 2.5s-2.5-1.12-2.5-2.5 1.12-2.5 2.5-2.5 2.5 1.12 2.5 2.5zm9.44 3.35c0 1.38-1.12 2.5-2.5 2.5s-2.5-1.12-2.5-2.5 1.12-2.5 2.5-2.5 2.5 1.12 2.5 2.5zm9.44 3.35c0 1.38-1.12 2.5-2.5 2.5s-2.5-1.12-2.5-2.5 1.12-2.5 2.5-2.5 2.5 1.12 2.5 2.5zm9.44 3.34c0 1.4-1.12 2.5-2.5 2.5s-2.5-1.1-2.5-2.5c0-1.37 1.12-2.5 2.5-2.5s2.5 1.13 2.5 2.5zm9.44 3.36c0 1.38-1.12 2.5-2.5 2.5s-2.5-1.12-2.5-2.5 1.12-2.5 2.5-2.5 2.5 1.12 2.5 2.5zm9.45 3.35c0 1.4-1.13 2.5-2.5 2.5-1.4 0-2.5-1.1-2.5-2.5 0-1.37 1.1-2.5 2.5-2.5 1.37 0 2.5 1.13 2.5 2.5zm9.43 3.36c0 1.38-1.12 2.5-2.5 2.5s-2.5-1.12-2.5-2.5 1.12-2.5 2.5-2.5 2.5 1.12 2.5 2.5zm9.44 3.35c0 1.4-1.12 2.5-2.5 2.5s-2.5-1.1-2.5-2.5c0-1.37 1.12-2.5 2.5-2.5s2.5 1.13 2.5 2.5zm9.44 3.36c0 1.38-1.1 2.5-2.5 2.5-1.37 0-2.5-1.12-2.5-2.5 0-1.4 1.13-2.5 2.5-2.5 1.4 0 2.5 1.1 2.5 2.5zm9.45 3.34c0 1.38-1.12 2.5-2.5 2.5s-2.5-1.12-2.5-2.5 1.12-2.5 2.5-2.5 2.5 1.12 2.5 2.5zm9.44 3.35c0 1.38-1.13 2.5-2.5 2.5-1.4 0-2.5-1.12-2.5-2.5s1.1-2.5 2.5-2.5c1.37 0 2.5 1.12 2.5 2.5zm9.43 3.35c0 1.38-1.12 2.5-2.5 2.5s-2.5-1.12-2.5-2.5 1.12-2.5 2.5-2.5 2.5 1.12 2.5 2.5zm9.44 3.35c0 1.38-1.12 2.5-2.5 2.5s-2.5-1.12-2.5-2.5 1.12-2.5 2.5-2.5 2.5 1.12 2.5 2.5zm9.44 3.35c0 1.38-1.1 2.5-2.5 2.5-1.37 0-2.5-1.12-2.5-2.5s1.13-2.5 2.5-2.5c1.4 0 2.5 1.12 2.5 2.5zm9.46 3.35c0 1.38-1.12 2.5-2.5 2.5-1.4 0-2.5-1.12-2.5-2.5 0-1.4 1.1-2.5 2.5-2.5 1.38 0 2.5 1.1 2.5 2.5zm9.44 3.34c0 1.37-1.12 2.5-2.5 2.5s-2.5-1.13-2.5-2.5c0-1.4 1.12-2.5 2.5-2.5s2.5 1.1 2.5 2.5zm9.44 3.34c0 1.38-1.12 2.5-2.5 2.5s-2.5-1.12-2.5-2.5 1.12-2.5 2.5-2.5 2.5 1.12 2.5 2.5zm9.44 3.35c0 1.37-1.12 2.5-2.5 2.5s-2.5-1.13-2.5-2.5c0-1.4 1.12-2.5 2.5-2.5s2.5 1.1 2.5 2.5zm9.44 3.34c0 1.38-1.12 2.5-2.5 2.5s-2.5-1.12-2.5-2.5 1.12-2.5 2.5-2.5 2.5 1.12 2.5 2.5zm9.44 3.35c0 1.37-1.12 2.5-2.5 2.5s-2.5-1.13-2.5-2.5c0-1.4 1.12-2.5 2.5-2.5s2.5 1.1 2.5 2.5zm9.44 3.33c0 1.4-1.12 2.5-2.5 2.5s-2.5-1.1-2.5-2.5c0-1.38 1.12-2.5 2.5-2.5s2.5 1.12 2.5 2.5zm9.44 3.35c0 1.38-1.12 2.5-2.5 2.5s-2.5-1.12-2.5-2.5 1.12-2.5 2.5-2.5 2.5 1.12 2.5 2.5zm9.44 3.35c0 1.38-1.1 2.5-2.5 2.5-1.38 0-2.5-1.12-2.5-2.5s1.12-2.5 2.5-2.5c1.4 0 2.5 1.12 2.5 2.5zm9.45 3.35c0 1.38-1.12 2.5-2.5 2.5s-2.5-1.12-2.5-2.5 1.12-2.5 2.5-2.5 2.5 1.12 2.5 2.5zm9.44 3.35c0 1.38-1.12 2.5-2.5 2.5s-2.5-1.12-2.5-2.5 1.12-2.5 2.5-2.5 2.5 1.12 2.5 2.5zm9.44 3.35c0 1.38-1.1 2.5-2.5 2.5-1.37 0-2.5-1.12-2.5-2.5s1.13-2.5 2.5-2.5c1.4 0 2.5 1.12 2.5 2.5zm9.45 3.34c0 1.38-1.12 2.5-2.5 2.5s-2.5-1.12-2.5-2.5 1.12-2.5 2.5-2.5 2.5 1.12 2.5 2.5zm9.44 3.35c0 1.38-1.13 2.5-2.5 2.5-1.4 0-2.5-1.12-2.5-2.5s1.1-2.5 2.5-2.5c1.37 0 2.5 1.12 2.5 2.5zm9.43 3.35c0 1.38-1.12 2.5-2.5 2.5s-2.5-1.12-2.5-2.5 1.12-2.5 2.5-2.5 2.5 1.12 2.5 2.5zm9.44 3.35c0 1.38-1.12 2.5-2.5 2.5s-2.5-1.12-2.5-2.5 1.12-2.5 2.5-2.5 2.5 1.12 2.5 2.5zm9.44 3.35c0 1.38-1.1 2.5-2.5 2.5-1.37 0-2.5-1.12-2.5-2.5s1.13-2.5 2.5-2.5c1.4 0 2.5 1.12 2.5 2.5zm9.46 3.35c0 1.38-1.12 2.5-2.5 2.5-1.4 0-2.5-1.12-2.5-2.5 0-1.4 1.1-2.5 2.5-2.5 1.38 0 2.5 1.1 2.5 2.5zm9.44 3.34c0 1.4-1.12 2.5-2.5 2.5s-2.5-1.1-2.5-2.5c0-1.37 1.12-2.5 2.5-2.5s2.5 1.13 2.5 2.5zm9.44 3.36c0 1.38-1.12 2.5-2.5 2.5s-2.5-1.12-2.5-2.5 1.12-2.5 2.5-2.5 2.5 1.12 2.5 2.5zm9.44 3.35c0 1.4-1.12 2.5-2.5 2.5s-2.5-1.1-2.5-2.5c0-1.37 1.12-2.5 2.5-2.5s2.5 1.13 2.5 2.5zm9.44 3.36c0 1.38-1.12 2.5-2.5 2.5s-2.5-1.12-2.5-2.5 1.12-2.5 2.5-2.5 2.5 1.12 2.5 2.5zm9.44 3.35c0 1.4-1.12 2.5-2.5 2.5s-2.5-1.1-2.5-2.5c0-1.37 1.12-2.5 2.5-2.5s2.5 1.13 2.5 2.5zm9.44 3.35c0 1.4-1.12 2.5-2.5 2.5s-2.5-1.1-2.5-2.5c0-1.38 1.12-2.5 2.5-2.5s2.5 1.12 2.5 2.5zm9.44 3.35c0 1.38-1.12 2.5-2.5 2.5s-2.5-1.12-2.5-2.5 1.12-2.5 2.5-2.5 2.5 1.12 2.5 2.5zm9.44 3.35c0 1.38-1.1 2.5-2.5 2.5-1.38 0-2.5-1.12-2.5-2.5s1.12-2.5 2.5-2.5c1.4 0 2.5 1.12 2.5 2.5zm9.45 3.35c0 1.38-1.12 2.5-2.5 2.5s-2.5-1.12-2.5-2.5 1.12-2.5 2.5-2.5 2.5 1.12 2.5 2.5zm9.44 3.35c0 1.38-1.12 2.5-2.5 2.5s-2.5-1.12-2.5-2.5 1.12-2.5 2.5-2.5 2.5 1.12 2.5 2.5zm9.44 3.35c0 1.38-1.1 2.5-2.5 2.5-1.37 0-2.5-1.12-2.5-2.5s1.13-2.5 2.5-2.5c1.4 0 2.5 1.12 2.5 2.5zm9.45 3.34c0 1.4-1.12 2.5-2.5 2.5s-2.5-1.1-2.5-2.5c0-1.38 1.12-2.5 2.5-2.5s2.5 1.12 2.5 2.5zm9.44 3.35c0 1.37-1.13 2.5-2.5 2.5-1.4 0-2.5-1.13-2.5-2.5 0-1.4 1.1-2.5 2.5-2.5 1.37 0 2.5 1.1 2.5 2.5zm9.43 3.34c0 1.38-1.12 2.5-2.5 2.5s-2.5-1.12-2.5-2.5 1.12-2.5 2.5-2.5 2.5 1.12 2.5 2.5zm9.44 3.35c0 1.37-1.12 2.5-2.5 2.5s-2.5-1.13-2.5-2.5c0-1.4 1.12-2.5 2.5-2.5s2.5 1.1 2.5 2.5zm9.44 3.34c0 1.38-1.1 2.5-2.5 2.5-1.37 0-2.5-1.12-2.5-2.5s1.13-2.5 2.5-2.5c1.4 0 2.5 1.12 2.5 2.5zm9.46 3.35c0 1.37-1.12 2.5-2.5 2.5-1.4 0-2.5-1.13-2.5-2.5 0-1.4 1.1-2.5 2.5-2.5 1.38 0 2.5 1.1 2.5 2.5zm9.44 3.33c0 1.38-1.12 2.5-2.5 2.5s-2.5-1.12-2.5-2.5 1.12-2.5 2.5-2.5 2.5 1.12 2.5 2.5zm9.44 3.35c0 1.38-1.12 2.5-2.5 2.5s-2.5-1.12-2.5-2.5 1.12-2.5 2.5-2.5 2.5 1.12 2.5 2.5zm9.44 3.35c0 1.38-1.12 2.5-2.5 2.5s-2.5-1.12-2.5-2.5 1.12-2.5 2.5-2.5 2.5 1.12 2.5 2.5zm9.44 3.35c0 1.38-1.12 2.5-2.5 2.5s-2.5-1.12-2.5-2.5 1.12-2.5 2.5-2.5 2.5 1.12 2.5 2.5zm9.44 3.35c0 1.38-1.12 2.5-2.5 2.5s-2.5-1.12-2.5-2.5 1.12-2.5 2.5-2.5 2.5 1.12 2.5 2.5zm9.44 3.35c0 1.38-1.12 2.5-2.5 2.5s-2.5-1.12-2.5-2.5c0-1.4 1.12-2.5 2.5-2.5s2.5 1.1 2.5 2.5zm9.44 3.34c0 1.38-1.12 2.5-2.5 2.5s-2.5-1.12-2.5-2.5 1.12-2.5 2.5-2.5 2.5 1.12 2.5 2.5zm9.44 3.35c0 1.38-1.1 2.5-2.5 2.5-1.38 0-2.5-1.12-2.5-2.5s1.12-2.5 2.5-2.5c1.4 0 2.5 1.12 2.5 2.5zm9.45 3.35c0 1.38-1.12 2.5-2.5 2.5s-2.5-1.12-2.5-2.5 1.12-2.5 2.5-2.5 2.5 1.12 2.5 2.5zm9.44 3.35c0 1.38-1.12 2.5-2.5 2.5s-2.5-1.12-2.5-2.5 1.12-2.5 2.5-2.5 2.5 1.12 2.5 2.5zm9.44 3.35c0 1.38-1.1 2.5-2.5 2.5-1.37 0-2.5-1.12-2.5-2.5s1.13-2.5 2.5-2.5c1.4 0 2.5 1.12 2.5 2.5zm9.45 3.34c0 1.4-1.12 2.5-2.5 2.5s-2.5-1.1-2.5-2.5c0-1.38 1.12-2.5 2.5-2.5s2.5 1.12 2.5 2.5zm9.44 3.35c0 1.4-1.13 2.5-2.5 2.5-1.4 0-2.5-1.1-2.5-2.5 0-1.37 1.1-2.5 2.5-2.5 1.37 0 2.5 1.13 2.5 2.5zm9.43 3.36c0 1.38-1.12 2.5-2.5 2.5s-2.5-1.12-2.5-2.5 1.12-2.5 2.5-2.5 2.5 1.12 2.5 2.5zm9.44 3.35c0 1.4-1.12 2.5-2.5 2.5s-2.5-1.1-2.5-2.5c0-1.37 1.12-2.5 2.5-2.5s2.5 1.13 2.5 2.5zm9.44 3.36c0 1.38-1.1 2.5-2.5 2.5-1.37 0-2.5-1.12-2.5-2.5s1.13-2.5 2.5-2.5c1.4 0 2.5 1.12 2.5 2.5zm9.46 3.35c0 1.4-1.12 2.5-2.5 2.5-1.4 0-2.5-1.1-2.5-2.5 0-1.37 1.1-2.5 2.5-2.5 1.38 0 2.5 1.13 2.5 2.5zm9.44 3.35c0 1.38-1.12 2.5-2.5 2.5s-2.5-1.12-2.5-2.5 1.12-2.5 2.5-2.5 2.5 1.12 2.5 2.5zm9.44 3.35c0 1.38-1.12 2.5-2.5 2.5s-2.5-1.12-2.5-2.5 1.12-2.5 2.5-2.5 2.5 1.12 2.5 2.5zm9.44 3.35c0 1.38-1.12 2.5-2.5 2.5s-2.5-1.12-2.5-2.5 1.12-2.5 2.5-2.5 2.5 1.12 2.5 2.5zm9.44 3.35c0 1.38-1.12 2.5-2.5 2.5s-2.5-1.12-2.5-2.5 1.12-2.5 2.5-2.5 2.5 1.12 2.5 2.5zm9.44 3.35c0 1.38-1.12 2.5-2.5 2.5s-2.5-1.12-2.5-2.5 1.12-2.5 2.5-2.5 2.5 1.12 2.5 2.5zm9.44 3.35c0 1.38-1.12 2.5-2.5 2.5s-2.5-1.12-2.5-2.5c0-1.4 1.12-2.5 2.5-2.5s2.5 1.1 2.5 2.5zm9.44 3.34c0 1.38-1.12 2.5-2.5 2.5s-2.5-1.12-2.5-2.5 1.12-2.5 2.5-2.5 2.5 1.12 2.5 2.5zm9.44 3.35c0 1.37-1.1 2.5-2.5 2.5-1.38 0-2.5-1.13-2.5-2.5 0-1.4 1.12-2.5 2.5-2.5 1.4 0 2.5 1.1 2.5 2.5zm9.45 3.34c0 1.38-1.12 2.5-2.5 2.5s-2.5-1.12-2.5-2.5 1.12-2.5 2.5-2.5 2.5 1.12 2.5 2.5zm9.44 3.35c0 1.37-1.12 2.5-2.5 2.5s-2.5-1.13-2.5-2.5c0-1.4 1.12-2.5 2.5-2.5s2.5 1.1 2.5 2.5zm9.44 3.34c0 1.38-1.1 2.5-2.5 2.5-1.37 0-2.5-1.12-2.5-2.5s1.13-2.5 2.5-2.5c1.4 0 2.5 1.12 2.5 2.5zm9.45 3.35c0 1.37-1.12 2.5-2.5 2.5s-2.5-1.13-2.5-2.5c0-1.4 1.12-2.5 2.5-2.5s2.5 1.1 2.5 2.5zm9.44 3.33c0 1.38-1.13 2.5-2.5 2.5-1.4 0-2.5-1.12-2.5-2.5s1.1-2.5 2.5-2.5c1.37 0 2.5 1.12 2.5 2.5zm9.43 3.35c0 1.38-1.12 2.5-2.5 2.5s-2.5-1.12-2.5-2.5 1.12-2.5 2.5-2.5 2.5 1.12 2.5 2.5zm9.44 3.35c0 1.38-1.12 2.5-2.5 2.5s-2.5-1.12-2.5-2.5 1.12-2.5 2.5-2.5 2.5 1.12 2.5 2.5zm9.44 3.35c0 1.38-1.1 2.5-2.5 2.5-1.37 0-2.5-1.12-2.5-2.5s1.13-2.5 2.5-2.5c1.4 0 2.5 1.12 2.5 2.5zm9.46 3.35c0 1.38-1.12 2.5-2.5 2.5-1.4 0-2.5-1.12-2.5-2.5s1.1-2.5 2.5-2.5c1.38 0 2.5 1.12 2.5 2.5zm9.44 3.34c0 1.4-1.12 2.5-2.5 2.5s-2.5-1.1-2.5-2.5c0-1.38 1.12-2.5 2.5-2.5s2.5 1.12 2.5 2.5zm9.44 3.35c0 1.38-1.12 2.5-2.5 2.5s-2.5-1.12-2.5-2.5 1.12-2.5 2.5-2.5 2.5 1.12 2.5 2.5zm9.44 3.35c0 1.38-1.12 2.5-2.5 2.5s-2.5-1.12-2.5-2.5 1.12-2.5 2.5-2.5 2.5 1.12 2.5 2.5zm9.44 3.35c0 1.38-1.12 2.5-2.5 2.5s-2.5-1.12-2.5-2.5 1.12-2.5 2.5-2.5 2.5 1.12 2.5 2.5zm9.44 3.35c0 1.38-1.12 2.5-2.5 2.5s-2.5-1.12-2.5-2.5 1.12-2.5 2.5-2.5 2.5 1.12 2.5 2.5zm9.44 3.35c0 1.38-1.12 2.5-2.5 2.5s-2.5-1.12-2.5-2.5 1.12-2.5 2.5-2.5 2.5 1.12 2.5 2.5zm9.44 3.34c0 1.38-1.12 2.5-2.5 2.5s-2.5-1.12-2.5-2.5 1.12-2.5 2.5-2.5 2.5 1.12 2.5 2.5zm9.44 3.35c0 1.4-1.1 2.5-2.5 2.5-1.38 0-2.5-1.1-2.5-2.5 0-1.37 1.12-2.5 2.5-2.5 1.4 0 2.5 1.13 2.5 2.5zm9.45 3.36c0 1.38-1.12 2.5-2.5 2.5-1.4 0-2.5-1.12-2.5-2.5s1.1-2.5 2.5-2.5c1.38 0 2.5 1.12 2.5 2.5zm9.44 3.35c0 1.4-1.12 2.5-2.5 2.5s-2.5-1.1-2.5-2.5c0-1.37 1.12-2.5 2.5-2.5s2.5 1.13 2.5 2.5zm9.44 3.36c0 1.38-1.1 2.5-2.5 2.5-1.37 0-2.5-1.12-2.5-2.5s1.13-2.5 2.5-2.5c1.4 0 2.5 1.12 2.5 2.5zm9.45 3.35c0 1.4-1.12 2.5-2.5 2.5s-2.5-1.1-2.5-2.5c0-1.38 1.12-2.5 2.5-2.5s2.5 1.12 2.5 2.5zm9.44 3.35c0 1.38-1.13 2.5-2.5 2.5-1.4 0-2.5-1.12-2.5-2.5s1.1-2.5 2.5-2.5c1.37 0 2.5 1.12 2.5 2.5zm9.43 3.35c0 1.38-1.12 2.5-2.5 2.5s-2.5-1.12-2.5-2.5 1.12-2.5 2.5-2.5 2.5 1.12 2.5 2.5zm9.44 3.35c0 1.38-1.12 2.5-2.5 2.5s-2.5-1.12-2.5-2.5 1.12-2.5 2.5-2.5 2.5 1.12 2.5 2.5zm9.44 3.35c0 1.38-1.1 2.5-2.5 2.5-1.37 0-2.5-1.12-2.5-2.5s1.13-2.5 2.5-2.5c1.4 0 2.5 1.12 2.5 2.5zm9.46 3.35c0 1.38-1.12 2.5-2.5 2.5-1.4 0-2.5-1.12-2.5-2.5s1.1-2.5 2.5-2.5c1.38 0 2.5 1.12 2.5 2.5zm9.44 3.34c0 1.38-1.12 2.5-2.5 2.5s-2.5-1.12-2.5-2.5c0-1.4 1.12-2.5 2.5-2.5s2.5 1.1 2.5 2.5zm9.44 3.34c0 1.38-1.12 2.5-2.5 2.5s-2.5-1.12-2.5-2.5 1.12-2.5 2.5-2.5 2.5 1.12 2.5 2.5zm9.44 3.35c0 1.37-1.12 2.5-2.5 2.5s-2.5-1.13-2.5-2.5c0-1.4 1.12-2.5 2.5-2.5s2.5 1.1 2.5 2.5zm9.44 3.34c0 1.38-1.12 2.5-2.5 2.5s-2.5-1.12-2.5-2.5 1.12-2.5 2.5-2.5 2.5 1.12 2.5 2.5zm9.44 3.35c0 1.37-1.12 2.5-2.5 2.5s-2.5-1.13-2.5-2.5c0-1.4 1.12-2.5 2.5-2.5s2.5 1.1 2.5 2.5zm9.44 3.34c0 1.38-1.12 2.5-2.5 2.5s-2.5-1.12-2.5-2.5 1.12-2.5 2.5-2.5 2.5 1.12 2.5 2.5zm9.44 3.34c0 1.4-1.12 2.5-2.5 2.5s-2.5-1.1-2.5-2.5c0-1.38 1.12-2.5 2.5-2.5s2.5 1.12 2.5 2.5zm9.44 3.35c0 1.38-1.1 2.5-2.5 2.5-1.38 0-2.5-1.12-2.5-2.5s1.12-2.5 2.5-2.5c1.4 0 2.5 1.12 2.5 2.5zm9.45 3.35c0 1.38-1.12 2.5-2.5 2.5-1.4 0-2.5-1.12-2.5-2.5s1.1-2.5 2.5-2.5c1.38 0 2.5 1.12 2.5 2.5zm9.44 3.35c0 1.38-1.12 2.5-2.5 2.5s-2.5-1.12-2.5-2.5 1.12-2.5 2.5-2.5 2.5 1.12 2.5 2.5zm9.44 3.35c0 1.38-1.1 2.5-2.5 2.5-1.37 0-2.5-1.12-2.5-2.5s1.13-2.5 2.5-2.5c1.4 0 2.5 1.12 2.5 2.5zm9.45 3.35c0 1.38-1.12 2.5-2.5 2.5s-2.5-1.12-2.5-2.5c0-1.4 1.12-2.5 2.5-2.5s2.5 1.1 2.5 2.5zm9.44 3.34c0 1.38-1.13 2.5-2.5 2.5-1.4 0-2.5-1.12-2.5-2.5s1.1-2.5 2.5-2.5c1.37 0 2.5 1.12 2.5 2.5zm9.43 3.35c0 1.38-1.12 2.5-2.5 2.5s-2.5-1.12-2.5-2.5 1.12-2.5 2.5-2.5 2.5 1.12 2.5 2.5zm9.44 3.35c0 1.38-1.12 2.5-2.5 2.5s-2.5-1.12-2.5-2.5 1.12-2.5 2.5-2.5 2.5 1.12 2.5 2.5zm9.44 3.35c0 1.38-1.1 2.5-2.5 2.5-1.37 0-2.5-1.12-2.5-2.5s1.13-2.5 2.5-2.5c1.4 0 2.5 1.12 2.5 2.5zm9.45 3.35c0 1.38-1.1 2.5-2.5 2.5-1.38 0-2.5-1.12-2.5-2.5s1.12-2.5 2.5-2.5c1.4 0 2.5 1.12 2.5 2.5zm9.45 3.35c0 1.38-1.12 2.5-2.5 2.5s-2.5-1.12-2.5-2.5c0-1.4 1.12-2.5 2.5-2.5s2.5 1.1 2.5 2.5zm9.44 3.34c0 1.38-1.12 2.5-2.5 2.5s-2.5-1.12-2.5-2.5 1.12-2.5 2.5-2.5 2.5 1.12 2.5 2.5zm9.44 3.35c0 1.4-1.12 2.5-2.5 2.5s-2.5-1.1-2.5-2.5c0-1.37 1.12-2.5 2.5-2.5s2.5 1.13 2.5 2.5zm9.44 3.36c0 1.38-1.12 2.5-2.5 2.5s-2.5-1.12-2.5-2.5 1.12-2.5 2.5-2.5 2.5 1.12 2.5 2.5zm9.44 3.35c0 1.4-1.12 2.5-2.5 2.5s-2.5-1.1-2.5-2.5c0-1.37 1.12-2.5 2.5-2.5s2.5 1.13 2.5 2.5zm9.44 3.36c0 1.38-1.12 2.5-2.5 2.5s-2.5-1.12-2.5-2.5 1.12-2.5 2.5-2.5 2.5 1.12 2.5 2.5zm9.44 3.34c0 1.4-1.12 2.5-2.5 2.5s-2.5-1.1-2.5-2.5c0-1.38 1.12-2.5 2.5-2.5s2.5 1.12 2.5 2.5zm9.44 3.35c0 1.38-1.1 2.5-2.5 2.5-1.38 0-2.5-1.12-2.5-2.5s1.12-2.5 2.5-2.5c1.4 0 2.5 1.12 2.5 2.5zm9.45 3.35c0 1.38-1.12 2.5-2.5 2.5-1.4 0-2.5-1.12-2.5-2.5s1.1-2.5 2.5-2.5c1.38 0 2.5 1.12 2.5 2.5zm9.44 3.35c0 1.38-1.12 2.5-2.5 2.5s-2.5-1.12-2.5-2.5 1.12-2.5 2.5-2.5 2.5 1.12 2.5 2.5zm9.44 3.35c0 1.38-1.1 2.5-2.5 2.5-1.37 0-2.5-1.12-2.5-2.5s1.13-2.5 2.5-2.5c1.4 0 2.5 1.12 2.5 2.5zm9.45 3.35c0 1.38-1.12 2.5-2.5 2.5s-2.5-1.12-2.5-2.5 1.12-2.5 2.5-2.5 2.5 1.12 2.5 2.5zm9.44 3.34c0 1.37-1.13 2.5-2.5 2.5-1.4 0-2.5-1.13-2.5-2.5 0-1.4 1.1-2.5 2.5-2.5 1.37 0 2.5 1.1 2.5 2.5zm9.43 3.34c0 1.38-1.12 2.5-2.5 2.5s-2.5-1.12-2.5-2.5 1.12-2.5 2.5-2.5 2.5 1.12 2.5 2.5zm9.44 3.35c0 1.37-1.12 2.5-2.5 2.5s-2.5-1.13-2.5-2.5c0-1.4 1.12-2.5 2.5-2.5s2.5 1.1 2.5 2.5zm9.44 3.34c0 1.38-1.1 2.5-2.5 2.5-1.37 0-2.5-1.12-2.5-2.5s1.13-2.5 2.5-2.5c1.4 0 2.5 1.12 2.5 2.5zm9.45 3.35c0 1.37-1.1 2.5-2.5 2.5-1.38 0-2.5-1.13-2.5-2.5 0-1.4 1.12-2.5 2.5-2.5 1.4 0 2.5 1.1 2.5 2.5zm9.45 3.34c0 1.38-1.12 2.5-2.5 2.5s-2.5-1.12-2.5-2.5c0-1.4 1.12-2.5 2.5-2.5s2.5 1.1 2.5 2.5zm9.44 3.34c0 1.38-1.12 2.5-2.5 2.5s-2.5-1.12-2.5-2.5 1.12-2.5 2.5-2.5 2.5 1.12 2.5 2.5zm9.44 3.35c0 1.38-1.12 2.5-2.5 2.5s-2.5-1.12-2.5-2.5 1.12-2.5 2.5-2.5 2.5 1.12 2.5 2.5zm9.44 3.35c0 1.38-1.12 2.5-2.5 2.5s-2.5-1.12-2.5-2.5 1.12-2.5 2.5-2.5 2.5 1.12 2.5 2.5zm9.44 3.35c0 1.38-1.12 2.5-2.5 2.5s-2.5-1.12-2.5-2.5 1.12-2.5 2.5-2.5 2.5 1.12 2.5 2.5zm9.44 3.35c0 1.38-1.12 2.5-2.5 2.5s-2.5-1.12-2.5-2.5 1.12-2.5 2.5-2.5 2.5 1.12 2.5 2.5zm9.44 3.34c0 1.4-1.12 2.5-2.5 2.5s-2.5-1.1-2.5-2.5c0-1.38 1.12-2.5 2.5-2.5s2.5 1.12 2.5 2.5zm9.44 3.35c0 1.38-1.12 2.5-2.5 2.5s-2.5-1.12-2.5-2.5 1.12-2.5 2.5-2.5 2.5 1.12 2.5 2.5zm9.45 3.35c0 1.38-1.12 2.5-2.5 2.5-1.4 0-2.5-1.12-2.5-2.5s1.1-2.5 2.5-2.5c1.38 0 2.5 1.12 2.5 2.5zm9.44 3.35c0 1.38-1.12 2.5-2.5 2.5s-2.5-1.12-2.5-2.5 1.12-2.5 2.5-2.5 2.5 1.12 2.5 2.5zm9.44 3.35c0 1.38-1.1 2.5-2.5 2.5-1.37 0-2.5-1.12-2.5-2.5s1.13-2.5 2.5-2.5c1.4 0 2.5 1.12 2.5 2.5zm9.45 3.35c0 1.38-1.12 2.5-2.5 2.5s-2.5-1.12-2.5-2.5 1.12-2.5 2.5-2.5 2.5 1.12 2.5 2.5zm9.44 3.34c0 1.4-1.13 2.5-2.5 2.5-1.4 0-2.5-1.1-2.5-2.5 0-1.37 1.1-2.5 2.5-2.5 1.37 0 2.5 1.13 2.5 2.5zm9.43 3.36c0 1.38-1.12 2.5-2.5 2.5s-2.5-1.12-2.5-2.5 1.12-2.5 2.5-2.5 2.5 1.12 2.5 2.5zm9.44 3.35c0 1.4-1.12 2.5-2.5 2.5s-2.5-1.1-2.5-2.5c0-1.37 1.12-2.5 2.5-2.5s2.5 1.13 2.5 2.5zm9.44 3.36c0 1.38-1.1 2.5-2.5 2.5-1.37 0-2.5-1.12-2.5-2.5s1.13-2.5 2.5-2.5c1.4 0 2.5 1.12 2.5 2.5zm9.45 3.35c0 1.4-1.1 2.5-2.5 2.5-1.38 0-2.5-1.1-2.5-2.5 0-1.37 1.12-2.5 2.5-2.5 1.4 0 2.5 1.13 2.5 2.5zm9.45 3.36c0 1.38-1.12 2.5-2.5 2.5s-2.5-1.12-2.5-2.5 1.12-2.5 2.5-2.5 2.5 1.12 2.5 2.5zm9.44 3.34c0 1.38-1.12 2.5-2.5 2.5s-2.5-1.12-2.5-2.5 1.12-2.5 2.5-2.5 2.5 1.12 2.5 2.5zm9.44 3.35c0 1.38-1.12 2.5-2.5 2.5s-2.5-1.12-2.5-2.5 1.12-2.5 2.5-2.5 2.5 1.12 2.5 2.5zm9.44 3.35c0 1.38-1.12 2.5-2.5 2.5s-2.5-1.12-2.5-2.5 1.12-2.5 2.5-2.5 2.5 1.12 2.5 2.5zm9.44 3.35c0 1.38-1.12 2.5-2.5 2.5s-2.5-1.12-2.5-2.5 1.12-2.5 2.5-2.5 2.5 1.12 2.5 2.5zm9.44 3.35c0 1.38-1.12 2.5-2.5 2.5s-2.5-1.12-2.5-2.5 1.12-2.5 2.5-2.5 2.5 1.12 2.5 2.5zm9.44 3.35c0 1.38-1.12 2.5-2.5 2.5s-2.5-1.12-2.5-2.5c0-1.4 1.12-2.5 2.5-2.5s2.5 1.1 2.5 2.5zm9.44 3.34c0 1.37-1.12 2.5-2.5 2.5s-2.5-1.13-2.5-2.5c0-1.4 1.12-2.5 2.5-2.5s2.5 1.1 2.5 2.5zm9.45 3.34c0 1.38-1.12 2.5-2.5 2.5-1.4 0-2.5-1.12-2.5-2.5s1.1-2.5 2.5-2.5c1.38 0 2.5 1.12 2.5 2.5zm9.44 3.35c0 1.37-1.12 2.5-2.5 2.5s-2.5-1.13-2.5-2.5c0-1.4 1.12-2.5 2.5-2.5s2.5 1.1 2.5 2.5zm9.44 3.34c0 1.38-1.1 2.5-2.5 2.5-1.37 0-2.5-1.12-2.5-2.5s1.13-2.5 2.5-2.5c1.4 0 2.5 1.12 2.5 2.5zm9.45 3.35c0 1.37-1.12 2.5-2.5 2.5s-2.5-1.13-2.5-2.5c0-1.4 1.12-2.5 2.5-2.5s2.5 1.1 2.5 2.5zm9.44 3.33c0 1.4-1.13 2.5-2.5 2.5-1.4 0-2.5-1.1-2.5-2.5 0-1.38 1.1-2.5 2.5-2.5 1.37 0 2.5 1.12 2.5 2.5zm9.43 3.35c0 1.38-1.12 2.5-2.5 2.5s-2.5-1.12-2.5-2.5 1.12-2.5 2.5-2.5 2.5 1.12 2.5 2.5zm9.44 3.35c0 1.38-1.12 2.5-2.5 2.5s-2.5-1.12-2.5-2.5 1.12-2.5 2.5-2.5 2.5 1.12 2.5 2.5zm9.44 3.35c0 1.38-1.1 2.5-2.5 2.5-1.37 0-2.5-1.12-2.5-2.5s1.13-2.5 2.5-2.5c1.4 0 2.5 1.12 2.5 2.5zm9.45 3.35c0 1.38-1.1 2.5-2.5 2.5-1.38 0-2.5-1.12-2.5-2.5s1.12-2.5 2.5-2.5c1.4 0 2.5 1.12 2.5 2.5zm9.45 3.35c0 1.38-1.12 2.5-2.5 2.5s-2.5-1.12-2.5-2.5 1.12-2.5 2.5-2.5 2.5 1.12 2.5 2.5zm9.44 3.34c0 1.4-1.12 2.5-2.5 2.5s-2.5-1.1-2.5-2.5c0-1.38 1.12-2.5 2.5-2.5s2.5 1.12 2.5 2.5zm9.44 3.35c0 1.38-1.12 2.5-2.5 2.5s-2.5-1.12-2.5-2.5 1.12-2.5 2.5-2.5 2.5 1.12 2.5 2.5zm9.44 3.35c0 1.38-1.12 2.5-2.5 2.5s-2.5-1.12-2.5-2.5 1.12-2.5 2.5-2.5 2.5 1.12 2.5 2.5zm9.44 3.35c0 1.38-1.12 2.5-2.5 2.5s-2.5-1.12-2.5-2.5 1.12-2.5 2.5-2.5 2.5 1.12 2.5 2.5zm9.44 3.35c0 1.38-1.12 2.5-2.5 2.5s-2.5-1.12-2.5-2.5 1.12-2.5 2.5-2.5 2.5 1.12 2.5 2.5zm9.44 3.35c0 1.38-1.12 2.5-2.5 2.5s-2.5-1.12-2.5-2.5c0-1.4 1.12-2.5 2.5-2.5s2.5 1.1 2.5 2.5zm9.44 3.34c0 1.4-1.12 2.5-2.5 2.5s-2.5-1.1-2.5-2.5c0-1.37 1.12-2.5 2.5-2.5s2.5 1.13 2.5 2.5zm9.45 3.36c0 1.38-1.12 2.5-2.5 2.5-1.4 0-2.5-1.12-2.5-2.5s1.1-2.5 2.5-2.5c1.38 0 2.5 1.12 2.5 2.5zm9.44 3.35c0 1.4-1.12 2.5-2.5 2.5s-2.5-1.1-2.5-2.5c0-1.37 1.12-2.5 2.5-2.5s2.5 1.13 2.5 2.5zm9.44 3.36c0 1.38-1.1 2.5-2.5 2.5-1.37 0-2.5-1.12-2.5-2.5s1.13-2.5 2.5-2.5c1.4 0 2.5 1.12 2.5 2.5zm9.45 3.35c0 1.4-1.12 2.5-2.5 2.5s-2.5-1.1-2.5-2.5c0-1.37 1.12-2.5 2.5-2.5s2.5 1.13 2.5 2.5zm9.44 3.36c0 1.38-1.13 2.5-2.5 2.5-1.4 0-2.5-1.12-2.5-2.5 0-1.4 1.1-2.5 2.5-2.5 1.37 0 2.5 1.1 2.5 2.5zm9.43 3.34c0 1.38-1.12 2.5-2.5 2.5s-2.5-1.12-2.5-2.5 1.12-2.5 2.5-2.5 2.5 1.12 2.5 2.5zm9.44 3.35c0 1.38-1.12 2.5-2.5 2.5s-2.5-1.12-2.5-2.5 1.12-2.5 2.5-2.5 2.5 1.12 2.5 2.5zm9.44 3.35c0 1.38-1.1 2.5-2.5 2.5-1.37 0-2.5-1.12-2.5-2.5s1.13-2.5 2.5-2.5c1.4 0 2.5 1.12 2.5 2.5zm9.45 3.35c0 1.38-1.1 2.5-2.5 2.5-1.38 0-2.5-1.12-2.5-2.5s1.12-2.5 2.5-2.5c1.4 0 2.5 1.12 2.5 2.5zm9.45 3.35c0 1.38-1.12 2.5-2.5 2.5-1.4 0-2.5-1.12-2.5-2.5s1.1-2.5 2.5-2.5c1.38 0 2.5 1.12 2.5 2.5zm9.44 3.34c0 1.4-1.12 2.5-2.5 2.5s-2.5-1.1-2.5-2.5c0-1.38 1.12-2.5 2.5-2.5s2.5 1.12 2.5 2.5zm9.44 3.35c0 1.37-1.12 2.5-2.5 2.5s-2.5-1.13-2.5-2.5c0-1.4 1.12-2.5 2.5-2.5s2.5 1.1 2.5 2.5zm9.44 3.34c0 1.38-1.12 2.5-2.5 2.5s-2.5-1.12-2.5-2.5 1.12-2.5 2.5-2.5 2.5 1.12 2.5 2.5zm9.44 3.35c0 1.37-1.12 2.5-2.5 2.5s-2.5-1.13-2.5-2.5c0-1.4 1.12-2.5 2.5-2.5s2.5 1.1 2.5 2.5zm9.44 3.34c0 1.38-1.12 2.5-2.5 2.5s-2.5-1.12-2.5-2.5 1.12-2.5 2.5-2.5 2.5 1.12 2.5 2.5zm9.44 3.35c0 1.37-1.12 2.5-2.5 2.5s-2.5-1.13-2.5-2.5c0-1.4 1.12-2.5 2.5-2.5s2.5 1.1 2.5 2.5zm9.44 3.33c0 1.38-1.12 2.5-2.5 2.5s-2.5-1.12-2.5-2.5 1.12-2.5 2.5-2.5 2.5 1.12 2.5 2.5zm9.45 3.35c0 1.38-1.12 2.5-2.5 2.5-1.4 0-2.5-1.12-2.5-2.5s1.1-2.5 2.5-2.5c1.38 0 2.5 1.12 2.5 2.5zm9.44 3.35c0 1.38-1.12 2.5-2.5 2.5s-2.5-1.12-2.5-2.5 1.12-2.5 2.5-2.5 2.5 1.12 2.5 2.5zm9.44 3.35c0 1.38-1.1 2.5-2.5 2.5-1.37 0-2.5-1.12-2.5-2.5s1.13-2.5 2.5-2.5c1.4 0 2.5 1.12 2.5 2.5zm9.45 3.35c0 1.38-1.12 2.5-2.5 2.5s-2.5-1.12-2.5-2.5 1.12-2.5 2.5-2.5 2.5 1.12 2.5 2.5zm9.44 3.35c0 1.38-1.13 2.5-2.5 2.5-1.4 0-2.5-1.12-2.5-2.5 0-1.4 1.1-2.5 2.5-2.5 1.37 0 2.5 1.1 2.5 2.5zm9.43 3.34c0 1.38-1.12 2.5-2.5 2.5s-2.5-1.12-2.5-2.5 1.12-2.5 2.5-2.5 2.5 1.12 2.5 2.5z" fill="#5e5e5e"/><path d="M15783.75 14863.7l-1.67 4.7-1.58-.56v-5.3z" fill="#5e5e5e"/><path d="M18498.83 15829.23l-15-.4 3.1-8.74z" stroke="#5e5e5e" stroke-width="5" fill="#5e5e5e"/><path d="M14340 16286c0-3.3 2.7-6 6-6h728c3.3 0 6 2.7 6 6v208c0 3.3-2.7 6-6 6h-728c-3.3 0-6-2.7-6-6z" stroke="#000" stroke-width="9" fill="#fff" fill-opacity="0"/><use xlink:href="#x" transform="matrix(1,0,0,1,14345,16285) translate(231.2271241830067 115.29820261437902)"/><path d="M15480.1 16331.98l-.08 10-75.7-.54v-10zm-284.4-2.04v10l-106.23-.76.07-10z" fill="#5e5e5e"/><path d="M15089.67 16329.18l-.07 10-5.1-.03v-10zM15499.32 16337.12l-14.3 4.53.07-9.27z" fill="#5e5e5e"/><path d="M15515.5 16337.23l-35.53 11.27.17-23.04z" fill="#5e5e5e"/><use xlink:href="#y" transform="matrix(1,0,0,1,15195.697030497948,16275.690154358032) translate(2.7364814814814906 26.66666666666667)"/><use xlink:href="#z" transform="matrix(1,0,0,1,15195.697030497948,16275.690154358032) translate(34.958703703703705 66.66666666666669)"/><use xlink:href="#A" transform="matrix(1,0,0,1,15195.697030497948,16275.690154358032) translate(0.0049999999999954525 106.66666666666669)"/><path d="M15580 15986c0-3.3 2.7-6 6-6h568c3.3 0 6 2.7 6 6v376.92c0 3.3-2.7 6-6 6h-568c-3.3 0-6-2.7-6-6z" stroke="#000" stroke-width="9" fill="#fff" fill-opacity="0"/><use xlink:href="#a" transform="matrix(1,0,0,1,15585,15985.000000000002) translate(0 71.11111111111111)"/><use xlink:href="#B" transform="matrix(1,0,0,1,15585,15985.000000000002) translate(260.7407407407407 71.11111111111111)"/><path d="M16070 16850.03c0 21.48-87.3 38.9-195 38.9s-195-17.42-195-38.9v-311.14c0-21.5 87.3-38.9 195-38.9s195 17.4 195 38.9z" stroke="#000" stroke-width="3" fill="#fff"/><path d="M16070 16538.9c0 21.47-87.3 38.88-195 38.88s-195-17.4-195-38.9" stroke="#000" stroke-width="3" fill="none"/><use xlink:href="#C" transform="matrix(1,0,0,1,15685,16582.78359732954) translate(71.97530864197532 115.44444444444446)"/><use xlink:href="#D" transform="matrix(1,0,0,1,15685,16582.78359732954) translate(0 222.11111111111111)"/><path d="M15870 16408.87v54.24" stroke="#5e5e5e" stroke-width="10" fill="none"/><path d="M15870 16389.6l4.64 14.27h-9.28zM15870 16482.37l-4.64-14.26h9.28z" stroke="#5e5e5e" stroke-width="10" fill="#5e5e5e"/><path d="M16192.98 16193.07l1.9 2.86 2.22 3.68 2.5 4.56 2.83 5.73 3.32 7.45 4.03 10.22 5.32 15.37 9.67 32.5 20.13 70.53 5.32 15.38 4.03 10.22 3.32 7.46 2.84 5.73 2.5 4.54 2.23 3.7 1.9 2.85" stroke="#5e5e5e" stroke-width="10" fill="none"/><path d="M16178.05 16183.3l14.47 3.94-5.07 7.76zM16281.96 16405.6l-14.48-3.92 5.07-7.76z" stroke="#5e5e5e" stroke-width="10" fill="#5e5e5e"/><path d="M16199.96 16072.3l28.3-.6 77.87-4.96 99.78-10.6 141.27-21.07 805.1-153.16 80.6-8.55 60.68-3.87 48.3-1.05 39.77.8 33.56 2.1 28.85 3.02 25.16 3.7 22.2 4.23 19.83 4.64 17.83 4.97 16.18 5.24 14.78 5.5 13.58 5.7 12.55 5.9 11.66 6.1 10.9 6.27 10.2 6.5 9.58 6.65 9.07 6.88 8.58 7.1 8.16 7.35 7.76 7.6 7.42 7.9 7.1 8.23 6.8 8.6 6.53 8.98 6.27 9.43 6.02 9.94 5.76 10.5 5.53 11.15 5.27 11.86 5.03 12.7 4.75 13.65 4.45 14.76 4.1 16.02 3.72 17.5 3.25 19.24 2.7 21.3 1.97 23.73.25 5.92" stroke="#5e5e5e" stroke-width="10" fill="none"/><path d="M16180.7 16072.72l14.16-4.94.2 9.27zM17949.54 16219.33l-5.04-14.13 9.26-.27z" stroke="#5e5e5e" stroke-width="10" fill="#5e5e5e"/><path d="M16260.08 16662.96l-2.48.16-14.13 1.48-12.6 1.85-12.1 2.3-13.25 3.13-57.3 15.47-12.08 2.3-12.6 1.86-14.14 1.5-16.8 1.04-16.1.32" stroke="#5e5e5e" stroke-width="10" fill="none"/><path d="M16279.33 16662.25l-14.1 5.16-.33-9.25z" stroke="#5e5e5e" stroke-width="10" fill="#5e5e5e"/><path d="M16076.63 16699.46h-5.13v-10h5.13z" fill="#5e5e5e"/><path d="M14340 16646c0-3.3 2.7-6 6-6h728c3.3 0 6 2.7 6 6v208c0 3.3-2.7 6-6 6h-728c-3.3 0-6-2.7-6-6z" stroke="#000" stroke-width="9" fill="#fff" fill-opacity="0"/><g><use xlink:href="#E" transform="matrix(1,0,0,1,14345,16645) translate(107.21659404502577 115.29820261437902)"/><use xlink:href="#F" transform="matrix(1,0,0,1,14345,16645) translate(430.78231663035575 115.29820261437902)"/></g><path d="M15510.54 16692.2l-.08 10-114.5-.82v-10zm-306.5-2.2v10l-84.13-.6.1-10zM15114.92 16699l-14.23-4.74 14.28-4.53z" fill="#5e5e5e"/><path d="M15119.87 16705.92l-35.36-11.77 35.53-11.27zM15515.54 16692.23l-.08 10-5.12-.03.07-10z" fill="#5e5e5e"/><g><use xlink:href="#G" transform="matrix(1,0,0,1,15204.03036383128,16655.69015435803) translate(41.440185185185186 26.66666666666667)"/><use xlink:href="#H" transform="matrix(1,0,0,1,15204.03036383128,16655.69015435803) translate(0.0049999999999954525 66.66666666666669)"/><use xlink:href="#I" transform="matrix(1,0,0,1,15204.03036383128,16655.69015435803) translate(9.264259259259255 66.66666666666669)"/></g><defs><path d="M160-131c35 5 61 23 61 61C221 17 115-2 30 0v-248c76 3 177-17 177 60 0 33-19 50-47 57zm-97-11c50-1 110 9 110-42 0-47-63-36-110-37v79zm0 115c55-2 124 14 124-45 0-56-70-42-124-44v89" id="J"/><path d="M24-231v-30h32v30H24zM24 0v-190h32V0H24" id="K"/><path d="M24 0v-261h32V0H24" id="L"/><path d="M117-194c89-4 53 116 60 194h-32v-121c0-31-8-49-39-48C34-167 62-67 57 0H25l-1-190h30c1 10-1 24 2 32 11-22 29-35 61-36" id="M"/><path d="M177-190C167-65 218 103 67 71c-23-6-38-20-44-43l32-5c15 47 100 32 89-28v-30C133-14 115 1 83 1 29 1 15-40 15-95c0-56 16-97 71-98 29-1 48 16 59 35 1-10 0-23 2-32h30zM94-22c36 0 50-32 50-73 0-42-14-75-50-75-39 0-46 34-46 75s6 73 46 73" id="N"/><g id="a"><use transform="matrix(0.24691358024691357,0,0,0.24691358024691357,0,0)" xlink:href="#J"/><use transform="matrix(0.24691358024691357,0,0,0.24691358024691357,59.25925925925925,0)" xlink:href="#K"/><use transform="matrix(0.24691358024691357,0,0,0.24691358024691357,78.76543209876542,0)" xlink:href="#L"/><use transform="matrix(0.24691358024691357,0,0,0.24691358024691357,98.2716049382716,0)" xlink:href="#L"/><use transform="matrix(0.24691358024691357,0,0,0.24691358024691357,117.77777777777777,0)" xlink:href="#K"/><use transform="matrix(0.24691358024691357,0,0,0.24691358024691357,137.28395061728395,0)" xlink:href="#M"/><use transform="matrix(0.24691358024691357,0,0,0.24691358024691357,186.66666666666666,0)" xlink:href="#N"/></g><path d="M30-248c118-7 216 8 213 122C240-48 200 0 122 0H30v-248zM63-27c89 8 146-16 146-99s-60-101-146-95v194" id="O"/><path d="M100-194c62-1 85 37 85 99 1 63-27 99-86 99S16-35 15-95c0-66 28-99 85-99zM99-20c44 1 53-31 53-75 0-43-8-75-51-75s-53 32-53 75 10 74 51 75" id="P"/><path d="M210-169c-67 3-38 105-44 169h-31v-121c0-29-5-50-35-48C34-165 62-65 56 0H25l-1-190h30c1 10-1 24 2 32 10-44 99-50 107 0 11-21 27-35 58-36 85-2 47 119 55 194h-31v-121c0-29-5-49-35-48" id="Q"/><path d="M141-36C126-15 110 5 73 4 37 3 15-17 15-53c-1-64 63-63 125-63 3-35-9-54-41-54-24 1-41 7-42 31l-33-3c5-37 33-52 76-52 45 0 72 20 72 64v82c-1 20 7 32 28 27v20c-31 9-61-2-59-35zM48-53c0 20 12 33 32 33 41-3 63-29 60-74-43 2-92-5-92 41" id="R"/><g id="b"><use transform="matrix(0.24691358024691357,0,0,0.24691358024691357,0,0)" xlink:href="#O"/><use transform="matrix(0.24691358024691357,0,0,0.24691358024691357,63.95061728395061,0)" xlink:href="#P"/><use transform="matrix(0.24691358024691357,0,0,0.24691358024691357,113.33333333333333,0)" xlink:href="#Q"/><use transform="matrix(0.24691358024691357,0,0,0.24691358024691357,187.16049382716048,0)" xlink:href="#R"/><use transform="matrix(0.24691358024691357,0,0,0.24691358024691357,236.5432098765432,0)" xlink:href="#K"/><use transform="matrix(0.24691358024691357,0,0,0.24691358024691357,256.04938271604937,0)" xlink:href="#M"/></g><path d="M30-248c87 1 191-15 191 75 0 78-77 80-158 76V0H30v-248zm33 125c57 0 124 11 124-50 0-59-68-47-124-48v98" id="S"/><path d="M114-163C36-179 61-72 57 0H25l-1-190h30c1 12-1 29 2 39 6-27 23-49 58-41v29" id="T"/><path d="M96-169c-40 0-48 33-48 73s9 75 48 75c24 0 41-14 43-38l32 2c-6 37-31 61-74 61-59 0-76-41-82-99-10-93 101-131 147-64 4 7 5 14 7 22l-32 3c-4-21-16-35-41-35" id="U"/><g id="c"><use transform="matrix(0.24691358024691357,0,0,0.24691358024691357,0,0)" xlink:href="#S"/><use transform="matrix(0.24691358024691357,0,0,0.24691358024691357,59.25925925925925,0)" xlink:href="#T"/><use transform="matrix(0.24691358024691357,0,0,0.24691358024691357,88.64197530864197,0)" xlink:href="#K"/><use transform="matrix(0.24691358024691357,0,0,0.24691358024691357,108.14814814814815,0)" xlink:href="#U"/><use transform="matrix(0.24691358024691357,0,0,0.24691358024691357,152.5925925925926,0)" xlink:href="#K"/><use transform="matrix(0.24691358024691357,0,0,0.24691358024691357,172.0987654320988,0)" xlink:href="#M"/><use transform="matrix(0.24691358024691357,0,0,0.24691358024691357,221.4814814814815,0)" xlink:href="#N"/></g><path d="M30 0v-248h187v28H63v79h144v27H63v87h162V0H30" id="V"/><path d="M100-194c63 0 86 42 84 106H49c0 40 14 67 53 68 26 1 43-12 49-29l28 8c-11 28-37 45-77 45C44 4 14-33 15-96c1-61 26-98 85-98zm52 81c6-60-76-77-97-28-3 7-6 17-6 28h103" id="W"/><g id="d"><use transform="matrix(0.24691358024691357,0,0,0.24691358024691357,0,0)" xlink:href="#V"/><use transform="matrix(0.24691358024691357,0,0,0.24691358024691357,59.25925925925925,0)" xlink:href="#M"/><use transform="matrix(0.24691358024691357,0,0,0.24691358024691357,108.64197530864197,0)" xlink:href="#N"/><use transform="matrix(0.24691358024691357,0,0,0.24691358024691357,158.02469135802468,0)" xlink:href="#K"/><use transform="matrix(0.24691358024691357,0,0,0.24691358024691357,177.53086419753086,0)" xlink:href="#M"/><use transform="matrix(0.24691358024691357,0,0,0.24691358024691357,226.91358024691357,0)" xlink:href="#W"/></g><g id="e"><use transform="matrix(0.30864197530864196,0,0,0.30864197530864196,0,0)" xlink:href="#J"/><use transform="matrix(0.30864197530864196,0,0,0.30864197530864196,74.07407407407408,0)" xlink:href="#K"/><use transform="matrix(0.30864197530864196,0,0,0.30864197530864196,98.45679012345678,0)" xlink:href="#L"/><use transform="matrix(0.30864197530864196,0,0,0.30864197530864196,122.8395061728395,0)" xlink:href="#L"/><use transform="matrix(0.30864197530864196,0,0,0.30864197530864196,147.2222222222222,0)" xlink:href="#K"/><use transform="matrix(0.30864197530864196,0,0,0.30864197530864196,171.60493827160488,0)" xlink:href="#M"/><use transform="matrix(0.30864197530864196,0,0,0.30864197530864196,233.33333333333331,0)" xlink:href="#N"/></g><path d="M140-251c81 0 123 46 123 126C263-46 219 4 140 4 59 4 17-45 17-125s42-126 123-126zm0 227c63 0 89-41 89-101s-29-99-89-99c-61 0-89 39-89 99S79-25 140-24" id="X"/><path d="M85-194c31 0 48 13 60 33l-1-100h32l1 261h-30c-2-10 0-23-3-31C134-8 116 4 85 4 32 4 16-35 15-94c0-66 23-100 70-100zm9 24c-40 0-46 34-46 75 0 40 6 74 45 74 42 0 51-32 51-76 0-42-9-74-50-73" id="Y"/><g id="f"><use transform="matrix(0.17247639796659384,0,0,0.17247639796659384,0,0)" xlink:href="#X"/><use transform="matrix(0.17247639796659384,0,0,0.17247639796659384,48.293391430646274,0)" xlink:href="#T"/><use transform="matrix(0.17247639796659384,0,0,0.17247639796659384,68.81808278867094,0)" xlink:href="#Y"/><use transform="matrix(0.17247639796659384,0,0,0.17247639796659384,103.3133623819897,0)" xlink:href="#W"/><use transform="matrix(0.17247639796659384,0,0,0.17247639796659384,137.8086419753085,0)" xlink:href="#T"/></g><path fill="#333" d="M67-125c0 53 21 87 73 88 37 1 54-22 65-47l45 17C233-25 199 4 140 4 58 4 20-42 15-125 8-235 124-281 211-232c18 10 29 29 36 50l-46 12c-8-25-30-41-62-41-52 0-71 34-72 86" id="Z"/><path fill="#333" d="M110-194c64 0 96 36 96 99 0 64-35 99-97 99-61 0-95-36-95-99 0-62 34-99 96-99zm-1 164c35 0 45-28 45-65 0-40-10-65-43-65-34 0-45 26-45 65 0 36 10 65 43 65" id="aa"/><path fill="#333" d="M220-157c-53 9-28 100-34 157h-49v-107c1-27-5-49-29-50C55-147 81-57 75 0H25l-1-190h47c2 12-1 28 3 38 10-53 101-56 108 0 13-22 24-43 59-42 82 1 51 116 57 194h-49v-107c-1-25-5-48-29-50" id="ab"/><path fill="#333" d="M135-194c53 0 70 44 70 98 0 56-19 98-73 100-31 1-45-17-59-34 3 33 2 69 2 105H25l-1-265h48c2 10 0 23 3 31 11-24 29-35 60-35zM114-30c33 0 39-31 40-66 0-38-9-64-40-64-56 0-55 130 0 130" id="ac"/><path fill="#333" d="M85 4C-2 5 27-109 22-190h50c7 57-23 150 33 157 60-5 35-97 40-157h50l1 190h-47c-2-12 1-28-3-38-12 25-28 42-61 42" id="ad"/><path fill="#333" d="M115-3C79 11 28 4 28-45v-112H4v-33h27l15-45h31v45h36v33H77v99c-1 23 16 31 38 25v30" id="ae"/><path fill="#333" d="M185-48c-13 30-37 53-82 52C43 2 14-33 14-96s30-98 90-98c62 0 83 45 84 108H66c0 31 8 55 39 56 18 0 30-7 34-22zm-45-69c5-46-57-63-70-21-2 6-4 13-4 21h74" id="af"/><g id="g"><use transform="matrix(0.0925925925925926,0,0,0.0925925925925926,0,0)" xlink:href="#Z"/><use transform="matrix(0.0925925925925926,0,0,0.0925925925925926,23.981481481481485,0)" xlink:href="#aa"/><use transform="matrix(0.0925925925925926,0,0,0.0925925925925926,44.25925925925927,0)" xlink:href="#ab"/><use transform="matrix(0.0925925925925926,0,0,0.0925925925925926,73.8888888888889,0)" xlink:href="#ac"/><use transform="matrix(0.0925925925925926,0,0,0.0925925925925926,94.16666666666669,0)" xlink:href="#ad"/><use transform="matrix(0.0925925925925926,0,0,0.0925925925925926,114.44444444444446,0)" xlink:href="#ae"/><use transform="matrix(0.0925925925925926,0,0,0.0925925925925926,125.46296296296298,0)" xlink:href="#af"/></g><path fill="#333" d="M24-248c93 1 206-16 204 79-1 75-69 88-152 82V0H24v-248zm52 121c47 0 100 7 100-41 0-47-54-39-100-39v80" id="ag"/><path fill="#333" d="M135-150c-39-12-60 13-60 57V0H25l-1-190h47c2 13-1 29 3 40 6-28 27-53 61-41v41" id="ah"/><path fill="#333" d="M25-224v-37h50v37H25zM25 0v-190h50V0H25" id="ai"/><path fill="#333" d="M190-63c-7 42-38 67-86 67-59 0-84-38-90-98-12-110 154-137 174-36l-49 2c-2-19-15-32-35-32-30 0-35 28-38 64-6 74 65 87 74 30" id="aj"/><g id="h"><use transform="matrix(0.0925925925925926,0,0,0.0925925925925926,0,0)" xlink:href="#ag"/><use transform="matrix(0.0925925925925926,0,0,0.0925925925925926,22.222222222222225,0)" xlink:href="#ah"/><use transform="matrix(0.0925925925925926,0,0,0.0925925925925926,35.18518518518519,0)" xlink:href="#ai"/><use transform="matrix(0.0925925925925926,0,0,0.0925925925925926,44.44444444444445,0)" xlink:href="#aj"/><use transform="matrix(0.0925925925925926,0,0,0.0925925925925926,62.96296296296297,0)" xlink:href="#af"/></g><path fill="#333" d="M133-34C117-15 103 5 69 4 32 3 11-16 11-54c-1-60 55-63 116-61 1-26-3-47-28-47-18 1-26 9-28 27l-52-2c7-38 36-58 82-57s74 22 75 68l1 82c-1 14 12 18 25 15v27c-30 8-71 5-69-32zm-48 3c29 0 43-24 42-57-32 0-66-3-65 30 0 17 8 27 23 27" id="ak"/><path fill="#333" d="M123 10C108 53 80 86 19 72V37c35 8 53-11 59-39L3-190h52l48 148c12-52 28-100 44-148h51" id="al"/><path fill="#333" d="M135-194c87-1 58 113 63 194h-50c-7-57 23-157-34-157-59 0-34 97-39 157H25l-1-190h47c2 12-1 28 3 38 12-26 28-41 61-42" id="am"/><g id="i"><use transform="matrix(0.0925925925925926,0,0,0.0925925925925926,0,0)" xlink:href="#ag"/><use transform="matrix(0.0925925925925926,0,0,0.0925925925925926,22.222222222222225,0)" xlink:href="#ak"/><use transform="matrix(0.0925925925925926,0,0,0.0925925925925926,40.74074074074075,0)" xlink:href="#al"/><use transform="matrix(0.0925925925925926,0,0,0.0925925925925926,59.25925925925927,0)" xlink:href="#ab"/><use transform="matrix(0.0925925925925926,0,0,0.0925925925925926,88.8888888888889,0)" xlink:href="#af"/><use transform="matrix(0.0925925925925926,0,0,0.0925925925925926,107.40740740740742,0)" xlink:href="#am"/><use transform="matrix(0.0925925925925926,0,0,0.0925925925925926,127.68518518518519,0)" xlink:href="#ae"/></g><path fill="#333" d="M114-157C55-157 80-60 75 0H25v-261h50l-1 109c12-26 28-41 61-42 86-1 58 113 63 194h-50c-7-57 23-157-34-157" id="an"/><path fill="#333" d="M12 0v-35l95-120H19v-35h142v35L67-36h103V0H12" id="ao"/><g id="j"><use transform="matrix(0.0925925925925926,0,0,0.0925925925925926,0,0)" xlink:href="#ak"/><use transform="matrix(0.0925925925925926,0,0,0.0925925925925926,18.51851851851852,0)" xlink:href="#ad"/><use transform="matrix(0.0925925925925926,0,0,0.0925925925925926,38.7962962962963,0)" xlink:href="#ae"/><use transform="matrix(0.0925925925925926,0,0,0.0925925925925926,49.81481481481482,0)" xlink:href="#an"/><use transform="matrix(0.0925925925925926,0,0,0.0925925925925926,70.0925925925926,0)" xlink:href="#aa"/><use transform="matrix(0.0925925925925926,0,0,0.0925925925925926,90.37037037037038,0)" xlink:href="#ah"/><use transform="matrix(0.0925925925925926,0,0,0.0925925925925926,103.33333333333334,0)" xlink:href="#ai"/><use transform="matrix(0.0925925925925926,0,0,0.0925925925925926,112.59259259259261,0)" xlink:href="#ao"/><use transform="matrix(0.0925925925925926,0,0,0.0925925925925926,129.25925925925927,0)" xlink:href="#ak"/><use transform="matrix(0.0925925925925926,0,0,0.0925925925925926,147.77777777777777,0)" xlink:href="#ae"/><use transform="matrix(0.0925925925925926,0,0,0.0925925925925926,158.7962962962963,0)" xlink:href="#ai"/><use transform="matrix(0.0925925925925926,0,0,0.0925925925925926,168.05555555555557,0)" xlink:href="#aa"/><use transform="matrix(0.0925925925925926,0,0,0.0925925925925926,188.33333333333334,0)" xlink:href="#am"/></g><path d="M212-179c-10-28-35-45-73-45-59 0-87 40-87 99 0 60 29 101 89 101 43 0 62-24 78-52l27 14C228-24 195 4 139 4 59 4 22-46 18-125c-6-104 99-153 187-111 19 9 31 26 39 46" id="ap"/><g id="k"><use transform="matrix(0.17247639796659384,0,0,0.17247639796659384,0,0)" xlink:href="#ap"/><use transform="matrix(0.17247639796659384,0,0,0.17247639796659384,44.6713870733478,0)" xlink:href="#P"/><use transform="matrix(0.17247639796659384,0,0,0.17247639796659384,79.16666666666657,0)" xlink:href="#T"/><use transform="matrix(0.17247639796659384,0,0,0.17247639796659384,99.69135802469124,0)" xlink:href="#W"/></g><g id="l"><use transform="matrix(0.17247639796659384,0,0,0.17247639796659384,0,0)" xlink:href="#S"/><use transform="matrix(0.17247639796659384,0,0,0.17247639796659384,41.39433551198252,0)" xlink:href="#T"/><use transform="matrix(0.17247639796659384,0,0,0.17247639796659384,61.91902687000719,0)" xlink:href="#K"/><use transform="matrix(0.17247639796659384,0,0,0.17247639796659384,75.5446623093681,0)" xlink:href="#U"/><use transform="matrix(0.17247639796659384,0,0,0.17247639796659384,106.59041394335502,0)" xlink:href="#K"/><use transform="matrix(0.17247639796659384,0,0,0.17247639796659384,120.21604938271591,0)" xlink:href="#M"/><use transform="matrix(0.17247639796659384,0,0,0.17247639796659384,154.71132897603468,0)" xlink:href="#N"/></g><path d="M84 4C-5 8 30-112 23-190h32v120c0 31 7 50 39 49 72-2 45-101 50-169h31l1 190h-30c-1-10 1-25-2-33-11 22-28 36-60 37" id="aq"/><path d="M115-194c55 1 70 41 70 98S169 2 115 4C84 4 66-9 55-30l1 105H24l-1-265h31l2 30c10-21 28-34 59-34zm-8 174c40 0 45-34 45-75s-6-73-45-74c-42 0-51 32-51 76 0 43 10 73 51 73" id="ar"/><path d="M135-143c-3-34-86-38-87 0 15 53 115 12 119 90S17 21 10-45l28-5c4 36 97 45 98 0-10-56-113-15-118-90-4-57 82-63 122-42 12 7 21 19 24 35" id="as"/><g id="m"><use transform="matrix(0.17247639796659384,0,0,0.17247639796659384,0,0)" xlink:href="#U"/><use transform="matrix(0.17247639796659384,0,0,0.17247639796659384,31.04575163398689,0)" xlink:href="#P"/><use transform="matrix(0.17247639796659384,0,0,0.17247639796659384,65.54103122730567,0)" xlink:href="#aq"/><use transform="matrix(0.17247639796659384,0,0,0.17247639796659384,100.03631082062445,0)" xlink:href="#ar"/><use transform="matrix(0.17247639796659384,0,0,0.17247639796659384,134.5315904139432,0)" xlink:href="#P"/><use transform="matrix(0.17247639796659384,0,0,0.17247639796659384,169.02687000726198,0)" xlink:href="#M"/><use transform="matrix(0.17247639796659384,0,0,0.17247639796659384,203.52214960058078,0)" xlink:href="#as"/></g><path d="M59-47c-2 24 18 29 38 22v24C64 9 27 4 27-40v-127H5v-23h24l9-43h21v43h35v23H59v120" id="at"/><path d="M9 0v-24l116-142H16v-24h144v24L44-24h123V0H9" id="au"/><g id="n"><use transform="matrix(0.17247639796659384,0,0,0.17247639796659384,0,0)" xlink:href="#U"/><use transform="matrix(0.17247639796659384,0,0,0.17247639796659384,31.04575163398689,0)" xlink:href="#aq"/><use transform="matrix(0.17247639796659384,0,0,0.17247639796659384,65.54103122730567,0)" xlink:href="#as"/><use transform="matrix(0.17247639796659384,0,0,0.17247639796659384,96.58678286129256,0)" xlink:href="#at"/><use transform="matrix(0.17247639796659384,0,0,0.17247639796659384,113.83442265795195,0)" xlink:href="#P"/><use transform="matrix(0.17247639796659384,0,0,0.17247639796659384,148.3297022512707,0)" xlink:href="#Q"/><use transform="matrix(0.17247639796659384,0,0,0.17247639796659384,199.90014524328225,0)" xlink:href="#K"/><use transform="matrix(0.17247639796659384,0,0,0.17247639796659384,213.52578068264316,0)" xlink:href="#au"/><use transform="matrix(0.17247639796659384,0,0,0.17247639796659384,244.57153231663005,0)" xlink:href="#W"/><use transform="matrix(0.17247639796659384,0,0,0.17247639796659384,279.0668119099488,0)" xlink:href="#Y"/></g><g id="o"><use transform="matrix(0.17247639796659384,0,0,0.17247639796659384,0,0)" xlink:href="#ar"/><use transform="matrix(0.17247639796659384,0,0,0.17247639796659384,34.49527959331877,0)" xlink:href="#T"/><use transform="matrix(0.17247639796659384,0,0,0.17247639796659384,55.01997095134343,0)" xlink:href="#P"/><use transform="matrix(0.17247639796659384,0,0,0.17247639796659384,89.5152505446622,0)" xlink:href="#Q"/><use transform="matrix(0.17247639796659384,0,0,0.17247639796659384,141.08569353667377,0)" xlink:href="#P"/><use transform="matrix(0.17247639796659384,0,0,0.17247639796659384,175.58097312999254,0)" xlink:href="#at"/><use transform="matrix(0.17247639796659384,0,0,0.17247639796659384,192.82861292665194,0)" xlink:href="#K"/><use transform="matrix(0.17247639796659384,0,0,0.17247639796659384,206.45424836601285,0)" xlink:href="#P"/><use transform="matrix(0.17247639796659384,0,0,0.17247639796659384,240.94952795933162,0)" xlink:href="#M"/></g><g id="p"><use transform="matrix(0.17247639796659384,0,0,0.17247639796659384,0,0)" xlink:href="#T"/><use transform="matrix(0.17247639796659384,0,0,0.17247639796659384,20.524691358024665,0)" xlink:href="#W"/><use transform="matrix(0.17247639796659384,0,0,0.17247639796659384,55.01997095134343,0)" xlink:href="#N"/><use transform="matrix(0.17247639796659384,0,0,0.17247639796659384,89.5152505446622,0)" xlink:href="#K"/><use transform="matrix(0.17247639796659384,0,0,0.17247639796659384,103.14088598402313,0)" xlink:href="#P"/><use transform="matrix(0.17247639796659384,0,0,0.17247639796659384,137.6361655773419,0)" xlink:href="#M"/><use transform="matrix(0.17247639796659384,0,0,0.17247639796659384,172.13144517066067,0)" xlink:href="#R"/><use transform="matrix(0.17247639796659384,0,0,0.17247639796659384,206.62672476397947,0)" xlink:href="#L"/></g><path d="M179-190L93 31C79 59 56 82 12 73V49c39 6 53-20 64-50L1-190h34L92-34l54-156h33" id="av"/><g id="q"><use transform="matrix(0.24691358024691357,0,0,0.24691358024691357,0,0)" xlink:href="#S"/><use transform="matrix(0.24691358024691357,0,0,0.24691358024691357,59.25925925925925,0)" xlink:href="#R"/><use transform="matrix(0.24691358024691357,0,0,0.24691358024691357,108.64197530864197,0)" xlink:href="#av"/><use transform="matrix(0.24691358024691357,0,0,0.24691358024691357,153.08641975308643,0)" xlink:href="#Q"/><use transform="matrix(0.24691358024691357,0,0,0.24691358024691357,226.91358024691357,0)" xlink:href="#W"/><use transform="matrix(0.24691358024691357,0,0,0.24691358024691357,276.2962962962963,0)" xlink:href="#M"/><use transform="matrix(0.24691358024691357,0,0,0.24691358024691357,325.67901234567904,0)" xlink:href="#at"/><use transform="matrix(0.24691358024691357,0,0,0.24691358024691357,350.3703703703704,0)" xlink:href="#as"/></g><g id="r"><use transform="matrix(0.17247639796659384,0,0,0.17247639796659384,0,0)" xlink:href="#J"/><use transform="matrix(0.17247639796659384,0,0,0.17247639796659384,41.39433551198252,0)" xlink:href="#K"/><use transform="matrix(0.17247639796659384,0,0,0.17247639796659384,55.01997095134343,0)" xlink:href="#L"/><use transform="matrix(0.17247639796659384,0,0,0.17247639796659384,68.64560639070434,0)" xlink:href="#L"/><use transform="matrix(0.17247639796659384,0,0,0.17247639796659384,82.27124183006526,0)" xlink:href="#K"/><use transform="matrix(0.17247639796659384,0,0,0.17247639796659384,95.89687726942617,0)" xlink:href="#M"/><use transform="matrix(0.17247639796659384,0,0,0.17247639796659384,130.39215686274494,0)" xlink:href="#N"/></g><path d="M101-234c-31-9-42 10-38 44h38v23H63V0H32v-167H5v-23h27c-7-52 17-82 69-68v24" id="aw"/><g id="s"><use transform="matrix(0.17247639796659384,0,0,0.17247639796659384,0,0)" xlink:href="#K"/><use transform="matrix(0.17247639796659384,0,0,0.17247639796659384,13.625635439360913,0)" xlink:href="#M"/><use transform="matrix(0.17247639796659384,0,0,0.17247639796659384,48.12091503267968,0)" xlink:href="#aw"/><use transform="matrix(0.17247639796659384,0,0,0.17247639796659384,65.36855482933908,0)" xlink:href="#P"/></g><path d="M108 0H70L1-190h34L89-25l56-165h34" id="ax"/><g id="t"><use transform="matrix(0.17247639796659384,0,0,0.17247639796659384,0,0)" xlink:href="#ax"/><use transform="matrix(0.17247639796659384,0,0,0.17247639796659384,31.04575163398689,0)" xlink:href="#W"/><use transform="matrix(0.17247639796659384,0,0,0.17247639796659384,65.54103122730567,0)" xlink:href="#T"/><use transform="matrix(0.17247639796659384,0,0,0.17247639796659384,86.06572258533033,0)" xlink:href="#K"/><use transform="matrix(0.17247639796659384,0,0,0.17247639796659384,99.69135802469125,0)" xlink:href="#aw"/><use transform="matrix(0.17247639796659384,0,0,0.17247639796659384,116.93899782135064,0)" xlink:href="#K"/><use transform="matrix(0.17247639796659384,0,0,0.17247639796659384,130.56463326071156,0)" xlink:href="#U"/><use transform="matrix(0.17247639796659384,0,0,0.17247639796659384,161.61038489469846,0)" xlink:href="#R"/><use transform="matrix(0.17247639796659384,0,0,0.17247639796659384,196.10566448801723,0)" xlink:href="#at"/><use transform="matrix(0.17247639796659384,0,0,0.17247639796659384,213.35330428467663,0)" xlink:href="#K"/><use transform="matrix(0.17247639796659384,0,0,0.17247639796659384,226.9789397240375,0)" xlink:href="#P"/><use transform="matrix(0.17247639796659384,0,0,0.17247639796659384,261.4742193173563,0)" xlink:href="#M"/></g><path d="M206 0h-36l-40-164L89 0H53L-1-190h32L70-26l43-164h34l41 164 42-164h31" id="ay"/><path d="M143 0L79-87 56-68V0H24v-261h32v163l83-92h37l-77 82L181 0h-38" id="az"/><g id="u"><use transform="matrix(0.17247639796659384,0,0,0.17247639796659384,0,0)" xlink:href="#ay"/><use transform="matrix(0.17247639796659384,0,0,0.17247639796659384,44.6713870733478,0)" xlink:href="#P"/><use transform="matrix(0.17247639796659384,0,0,0.17247639796659384,79.16666666666657,0)" xlink:href="#T"/><use transform="matrix(0.17247639796659384,0,0,0.17247639796659384,99.69135802469124,0)" xlink:href="#az"/><use transform="matrix(0.17247639796659384,0,0,0.17247639796659384,130.73710965867812,0)" xlink:href="#aw"/><use transform="matrix(0.17247639796659384,0,0,0.17247639796659384,147.98474945533752,0)" xlink:href="#L"/><use transform="matrix(0.17247639796659384,0,0,0.17247639796659384,161.61038489469843,0)" xlink:href="#P"/><use transform="matrix(0.17247639796659384,0,0,0.17247639796659384,196.1056644880172,0)" xlink:href="#ay"/></g><g id="v"><use transform="matrix(0.17247639796659384,0,0,0.17247639796659384,0,0)" xlink:href="#S"/><use transform="matrix(0.17247639796659384,0,0,0.17247639796659384,41.39433551198252,0)" xlink:href="#T"/><use transform="matrix(0.17247639796659384,0,0,0.17247639796659384,61.91902687000719,0)" xlink:href="#P"/><use transform="matrix(0.17247639796659384,0,0,0.17247639796659384,96.41430646332596,0)" xlink:href="#U"/><use transform="matrix(0.17247639796659384,0,0,0.17247639796659384,127.46005809731284,0)" xlink:href="#W"/><use transform="matrix(0.17247639796659384,0,0,0.17247639796659384,161.9553376906316,0)" xlink:href="#as"/><use transform="matrix(0.17247639796659384,0,0,0.17247639796659384,193.0010893246185,0)" xlink:href="#as"/></g><g id="w"><use transform="matrix(0.17247639796659384,0,0,0.17247639796659384,0,0)" xlink:href="#S"/><use transform="matrix(0.17247639796659384,0,0,0.17247639796659384,41.39433551198252,0)" xlink:href="#R"/><use transform="matrix(0.17247639796659384,0,0,0.17247639796659384,75.88961510530129,0)" xlink:href="#av"/><use transform="matrix(0.17247639796659384,0,0,0.17247639796659384,106.93536673928818,0)" xlink:href="#Q"/><use transform="matrix(0.17247639796659384,0,0,0.17247639796659384,158.50580973129973,0)" xlink:href="#W"/><use transform="matrix(0.17247639796659384,0,0,0.17247639796659384,193.0010893246185,0)" xlink:href="#M"/><use transform="matrix(0.17247639796659384,0,0,0.17247639796659384,227.49636891793728,0)" xlink:href="#at"/></g><g id="x"><use transform="matrix(0.17247639796659384,0,0,0.17247639796659384,0,0)" xlink:href="#ap"/><use transform="matrix(0.17247639796659384,0,0,0.17247639796659384,44.6713870733478,0)" xlink:href="#aq"/><use transform="matrix(0.17247639796659384,0,0,0.17247639796659384,79.16666666666657,0)" xlink:href="#as"/><use transform="matrix(0.17247639796659384,0,0,0.17247639796659384,110.21241830065347,0)" xlink:href="#at"/><use transform="matrix(0.17247639796659384,0,0,0.17247639796659384,127.46005809731284,0)" xlink:href="#P"/><use transform="matrix(0.17247639796659384,0,0,0.17247639796659384,161.9553376906316,0)" xlink:href="#Q"/><use transform="matrix(0.17247639796659384,0,0,0.17247639796659384,213.52578068264316,0)" xlink:href="#W"/><use transform="matrix(0.17247639796659384,0,0,0.17247639796659384,248.02106027596193,0)" xlink:href="#T"/></g><path fill="#333" d="M169-182c-1-43-94-46-97-3 18 66 151 10 154 114 3 95-165 93-204 36-6-8-10-19-12-30l50-8c3 46 112 56 116 5-17-69-150-10-154-114-4-87 153-88 188-35 5 8 8 18 10 28" id="aA"/><path fill="#333" d="M135-194c52 0 70 43 70 98 0 56-19 99-73 100-30 1-46-15-58-35L72 0H24l1-261h50v104c11-23 29-37 60-37zM114-30c31 0 40-27 40-66 0-37-7-63-39-63s-41 28-41 65c0 36 8 64 40 64" id="aB"/><path fill="#333" d="M137-138c1-29-70-34-71-4 15 46 118 7 119 86 1 83-164 76-172 9l43-7c4 19 20 25 44 25 33 8 57-30 24-41C81-84 22-81 20-136c-2-80 154-74 161-7" id="aC"/><g id="y"><use transform="matrix(0.0925925925925926,0,0,0.0925925925925926,0,0)" xlink:href="#aA"/><use transform="matrix(0.0925925925925926,0,0,0.0925925925925926,22.222222222222225,0)" xlink:href="#ad"/><use transform="matrix(0.0925925925925926,0,0,0.0925925925925926,42.5,0)" xlink:href="#aB"/><use transform="matrix(0.0925925925925926,0,0,0.0925925925925926,62.777777777777786,0)" xlink:href="#aC"/><use transform="matrix(0.0925925925925926,0,0,0.0925925925925926,81.2962962962963,0)" xlink:href="#aj"/><use transform="matrix(0.0925925925925926,0,0,0.0925925925925926,99.81481481481482,0)" xlink:href="#ah"/><use transform="matrix(0.0925925925925926,0,0,0.0925925925925926,112.77777777777779,0)" xlink:href="#ai"/><use transform="matrix(0.0925925925925926,0,0,0.0925925925925926,122.03703703703705,0)" xlink:href="#ac"/><use transform="matrix(0.0925925925925926,0,0,0.0925925925925926,142.3148148148148,0)" xlink:href="#ae"/><use transform="matrix(0.0925925925925926,0,0,0.0925925925925926,153.33333333333331,0)" xlink:href="#ai"/><use transform="matrix(0.0925925925925926,0,0,0.0925925925925926,162.59259259259258,0)" xlink:href="#aa"/><use transform="matrix(0.0925925925925926,0,0,0.0925925925925926,182.87037037037035,0)" xlink:href="#am"/></g><g id="z"><use transform="matrix(0.0925925925925926,0,0,0.0925925925925926,0,0)" xlink:href="#ag"/><use transform="matrix(0.0925925925925926,0,0,0.0925925925925926,22.222222222222225,0)" xlink:href="#ak"/><use transform="matrix(0.0925925925925926,0,0,0.0925925925925926,40.74074074074075,0)" xlink:href="#al"/><use transform="matrix(0.0925925925925926,0,0,0.0925925925925926,59.25925925925927,0)" xlink:href="#ab"/><use transform="matrix(0.0925925925925926,0,0,0.0925925925925926,88.8888888888889,0)" xlink:href="#af"/><use transform="matrix(0.0925925925925926,0,0,0.0925925925925926,107.40740740740742,0)" xlink:href="#am"/><use transform="matrix(0.0925925925925926,0,0,0.0925925925925926,127.68518518518519,0)" xlink:href="#ae"/></g><g id="A"><use transform="matrix(0.0925925925925926,0,0,0.0925925925925926,0,0)" xlink:href="#ak"/><use transform="matrix(0.0925925925925926,0,0,0.0925925925925926,18.51851851851852,0)" xlink:href="#ad"/><use transform="matrix(0.0925925925925926,0,0,0.0925925925925926,38.7962962962963,0)" xlink:href="#ae"/><use transform="matrix(0.0925925925925926,0,0,0.0925925925925926,49.81481481481482,0)" xlink:href="#an"/><use transform="matrix(0.0925925925925926,0,0,0.0925925925925926,70.0925925925926,0)" xlink:href="#aa"/><use transform="matrix(0.0925925925925926,0,0,0.0925925925925926,90.37037037037038,0)" xlink:href="#ah"/><use transform="matrix(0.0925925925925926,0,0,0.0925925925925926,103.33333333333334,0)" xlink:href="#ai"/><use transform="matrix(0.0925925925925926,0,0,0.0925925925925926,112.59259259259261,0)" xlink:href="#ao"/><use transform="matrix(0.0925925925925926,0,0,0.0925925925925926,129.25925925925927,0)" xlink:href="#ak"/><use transform="matrix(0.0925925925925926,0,0,0.0925925925925926,147.77777777777777,0)" xlink:href="#ae"/><use transform="matrix(0.0925925925925926,0,0,0.0925925925925926,158.7962962962963,0)" xlink:href="#ai"/><use transform="matrix(0.0925925925925926,0,0,0.0925925925925926,168.05555555555557,0)" xlink:href="#aa"/><use transform="matrix(0.0925925925925926,0,0,0.0925925925925926,188.33333333333334,0)" xlink:href="#am"/></g><path d="M185-189c-5-48-123-54-124 2 14 75 158 14 163 119 3 78-121 87-175 55-17-10-28-26-33-46l33-7c5 56 141 63 141-1 0-78-155-14-162-118-5-82 145-84 179-34 5 7 8 16 11 25" id="aD"/><g id="B"><use transform="matrix(0.24691358024691357,0,0,0.24691358024691357,0,0)" xlink:href="#aD"/><use transform="matrix(0.24691358024691357,0,0,0.24691358024691357,59.25925925925925,0)" xlink:href="#W"/><use transform="matrix(0.24691358024691357,0,0,0.24691358024691357,108.64197530864197,0)" xlink:href="#T"/><use transform="matrix(0.24691358024691357,0,0,0.24691358024691357,138.02469135802468,0)" xlink:href="#ax"/><use transform="matrix(0.24691358024691357,0,0,0.24691358024691357,182.4691358024691,0)" xlink:href="#K"/><use transform="matrix(0.24691358024691357,0,0,0.24691358024691357,201.9753086419753,0)" xlink:href="#U"/><use transform="matrix(0.24691358024691357,0,0,0.24691358024691357,246.41975308641975,0)" xlink:href="#W"/></g><g id="C"><use transform="matrix(0.24691358024691357,0,0,0.24691358024691357,0,0)" xlink:href="#J"/><use transform="matrix(0.24691358024691357,0,0,0.24691358024691357,59.25925925925925,0)" xlink:href="#K"/><use transform="matrix(0.24691358024691357,0,0,0.24691358024691357,78.76543209876542,0)" xlink:href="#L"/><use transform="matrix(0.24691358024691357,0,0,0.24691358024691357,98.2716049382716,0)" xlink:href="#L"/><use transform="matrix(0.24691358024691357,0,0,0.24691358024691357,117.77777777777777,0)" xlink:href="#K"/><use transform="matrix(0.24691358024691357,0,0,0.24691358024691357,137.28395061728395,0)" xlink:href="#M"/><use transform="matrix(0.24691358024691357,0,0,0.24691358024691357,186.66666666666666,0)" xlink:href="#N"/></g><path d="M115-194c53 0 69 39 70 98 0 66-23 100-70 100C84 3 66-7 56-30L54 0H23l1-261h32v101c10-23 28-34 59-34zm-8 174c40 0 45-34 45-75 0-40-5-75-45-74-42 0-51 32-51 76 0 43 10 73 51 73" id="aE"/><g id="D"><use transform="matrix(0.24691358024691357,0,0,0.24691358024691357,0,0)" xlink:href="#O"/><use transform="matrix(0.24691358024691357,0,0,0.24691358024691357,63.95061728395061,0)" xlink:href="#R"/><use transform="matrix(0.24691358024691357,0,0,0.24691358024691357,113.33333333333333,0)" xlink:href="#at"/><use transform="matrix(0.24691358024691357,0,0,0.24691358024691357,138.02469135802468,0)" xlink:href="#R"/><use transform="matrix(0.24691358024691357,0,0,0.24691358024691357,187.4074074074074,0)" xlink:href="#aE"/><use transform="matrix(0.24691358024691357,0,0,0.24691358024691357,236.7901234567901,0)" xlink:href="#R"/><use transform="matrix(0.24691358024691357,0,0,0.24691358024691357,286.1728395061728,0)" xlink:href="#as"/><use transform="matrix(0.24691358024691357,0,0,0.24691358024691357,330.61728395061726,0)" xlink:href="#W"/></g><path d="M190 0L58-211 59 0H30v-248h39L202-35l-2-213h31V0h-41" id="aF"/><g id="E"><use transform="matrix(0.17247639796659384,0,0,0.17247639796659384,0,0)" xlink:href="#aF"/><use transform="matrix(0.17247639796659384,0,0,0.17247639796659384,44.6713870733478,0)" xlink:href="#P"/><use transform="matrix(0.17247639796659384,0,0,0.17247639796659384,79.16666666666657,0)" xlink:href="#at"/><use transform="matrix(0.17247639796659384,0,0,0.17247639796659384,96.41430646332596,0)" xlink:href="#K"/><use transform="matrix(0.17247639796659384,0,0,0.17247639796659384,110.03994190268686,0)" xlink:href="#aw"/><use transform="matrix(0.17247639796659384,0,0,0.17247639796659384,127.28758169934628,0)" xlink:href="#K"/><use transform="matrix(0.17247639796659384,0,0,0.17247639796659384,140.91321713870718,0)" xlink:href="#U"/><use transform="matrix(0.17247639796659384,0,0,0.17247639796659384,171.95896877269408,0)" xlink:href="#R"/><use transform="matrix(0.17247639796659384,0,0,0.17247639796659384,206.45424836601285,0)" xlink:href="#at"/><use transform="matrix(0.17247639796659384,0,0,0.17247639796659384,223.70188816267222,0)" xlink:href="#K"/><use transform="matrix(0.17247639796659384,0,0,0.17247639796659384,237.32752360203312,0)" xlink:href="#P"/><use transform="matrix(0.17247639796659384,0,0,0.17247639796659384,271.82280319535187,0)" xlink:href="#M"/></g><g id="F"><use transform="matrix(0.17247639796659384,0,0,0.17247639796659384,0,0)" xlink:href="#V"/><use transform="matrix(0.17247639796659384,0,0,0.17247639796659384,41.39433551198252,0)" xlink:href="#M"/><use transform="matrix(0.17247639796659384,0,0,0.17247639796659384,75.88961510530129,0)" xlink:href="#N"/><use transform="matrix(0.17247639796659384,0,0,0.17247639796659384,110.38489469862006,0)" xlink:href="#K"/><use transform="matrix(0.17247639796659384,0,0,0.17247639796659384,124.01053013798096,0)" xlink:href="#M"/><use transform="matrix(0.17247639796659384,0,0,0.17247639796659384,158.50580973129973,0)" xlink:href="#W"/></g><path fill="#333" d="M76-208v77h127v40H76V0H24v-248h183v40H76" id="aG"/><path fill="#333" d="M25 0v-261h50V0H25" id="aH"/><g id="G"><use transform="matrix(0.0925925925925926,0,0,0.0925925925925926,0,0)" xlink:href="#aG"/><use transform="matrix(0.0925925925925926,0,0,0.0925925925925926,20.27777777777778,0)" xlink:href="#ak"/><use transform="matrix(0.0925925925925926,0,0,0.0925925925925926,38.7962962962963,0)" xlink:href="#ai"/><use transform="matrix(0.0925925925925926,0,0,0.0925925925925926,48.05555555555556,0)" xlink:href="#aH"/><use transform="matrix(0.0925925925925926,0,0,0.0925925925925926,57.314814814814824,0)" xlink:href="#ad"/><use transform="matrix(0.0925925925925926,0,0,0.0925925925925926,77.5925925925926,0)" xlink:href="#ah"/><use transform="matrix(0.0925925925925926,0,0,0.0925925925925926,90.55555555555556,0)" xlink:href="#af"/></g><path fill="#333" d="M175 0L67-191c6 58 2 128 3 191H24v-248h59L193-55c-6-58-2-129-3-193h46V0h-61" id="aI"/><path fill="#333" d="M121-226c-27-7-43 5-38 36h38v33H83V0H34v-157H6v-33h28c-9-59 32-81 87-68v32" id="aJ"/><g id="I"><use transform="matrix(0.0925925925925926,0,0,0.0925925925925926,0,0)" xlink:href="#aI"/><use transform="matrix(0.0925925925925926,0,0,0.0925925925925926,23.981481481481485,0)" xlink:href="#aa"/><use transform="matrix(0.0925925925925926,0,0,0.0925925925925926,44.25925925925927,0)" xlink:href="#ae"/><use transform="matrix(0.0925925925925926,0,0,0.0925925925925926,55.277777777777786,0)" xlink:href="#ai"/><use transform="matrix(0.0925925925925926,0,0,0.0925925925925926,64.53703703703704,0)" xlink:href="#aJ"/><use transform="matrix(0.0925925925925926,0,0,0.0925925925925926,75.55555555555556,0)" xlink:href="#ai"/><use transform="matrix(0.0925925925925926,0,0,0.0925925925925926,84.81481481481481,0)" xlink:href="#aj"/><use transform="matrix(0.0925925925925926,0,0,0.0925925925925926,103.33333333333333,0)" xlink:href="#ak"/><use transform="matrix(0.0925925925925926,0,0,0.0925925925925926,121.85185185185185,0)" xlink:href="#ae"/><use transform="matrix(0.0925925925925926,0,0,0.0925925925925926,132.87037037037038,0)" xlink:href="#ai"/><use transform="matrix(0.0925925925925926,0,0,0.0925925925925926,142.12962962962965,0)" xlink:href="#aa"/><use transform="matrix(0.0925925925925926,0,0,0.0925925925925926,162.40740740740742,0)" xlink:href="#am"/></g></defs></g></svg>