<svg xmlns="http://www.w3.org/2000/svg" xmlns:xlink="http://www.w3.org/1999/xlink" xmlns:lucid="lucid" width="1779" height="2863.33"><g transform="translate(2759 -7540)" lucid:page-tab-id="cPjKt1IiQEjN"><path d="M-3000 7500h2500v3000h-2500z" fill="#fff"/><path d="M-1540 10073.33c0 49.7-35.82 90-80 90s-80-40.3-80-90 35.82-90 80-90 80 40.3 80 90z" fill="#c1e4f7"/><path d="M-1490 10143.33c16.57 0 30 13.43 30 30v180c0 16.57-13.43 30-30 30h-260c-16.57 0-30-13.43-30-30v-180c0-16.57 13.43-30 30-30z" fill="#c1e4f7"/><path d="M-2499 9090c0 49.7-35.82 90-80 90s-80-40.3-80-90 35.82-90 80-90 80 40.3 80 90z" fill="#0c7cba"/><path d="M-2449 9160c16.57 0 30 13.43 30 30v180c0 16.57-13.43 30-30 30h-260c-16.57 0-30-13.43-30-30v-180c0-16.57 13.43-30 30-30z" fill="#0c7cba"/><path d="M-2699 9186c0-3.3 2.7-6 6-6h228c3.3 0 6 2.7 6 6v184.67c0 3.3-2.7 6-6 6h-228c-3.3 0-6-2.7-6-6z" fill="#fff" fill-opacity="0"/><use xlink:href="#a" transform="matrix(1,0,0,1,-2694,9184.999999999998) translate(51.72839506172839 44.44444444444445)"/><use xlink:href="#b" transform="matrix(1,0,0,1,-2694,9184.999999999998) translate(11.682098765432087 111.11111111111111)"/><use xlink:href="#c" transform="matrix(1,0,0,1,-2694,9184.999999999998) translate(-5.138888888888886 177.7777777777778)"/><path d="M-1740 10171c0-3.3 2.7-6 6-6h228c3.3 0 6 2.7 6 6v184.67c0 3.3-2.7 6-6 6h-228c-3.3 0-6-2.7-6-6z" fill="#fff" fill-opacity="0"/><use xlink:href="#d" transform="matrix(1,0,0,1,-1735,10170.000000000002) translate(53.425925925925924 44.44444444444445)"/><use xlink:href="#b" transform="matrix(1,0,0,1,-1735,10170.000000000002) translate(11.682098765432087 111.11111111111111)"/><use xlink:href="#e" transform="matrix(1,0,0,1,-1735,10170.000000000002) translate(2.577160493827165 177.7777777777778)"/><path d="M-1510 8623.33c0 49.7-35.82 90-80 90s-80-40.3-80-90 35.82-90 80-90 80 40.3 80 90z" fill="#83bbe5"/><path d="M-1460 8693.33c16.57 0 30 13.43 30 30v180c0 16.57-13.43 30-30 30h-260c-16.57 0-30-13.43-30-30v-180c0-16.57 13.43-30 30-30z" fill="#83bbe5"/><path d="M-1710 8714.33c0-3.3 2.7-6 6-6h228c3.3 0 6 2.7 6 6v198c0 3.32-2.7 6-6 6h-228c-3.3 0-6-2.68-6-6z" fill="#83bbe5"/><use xlink:href="#f" transform="matrix(1,0,0,1,-1705,8713.333333333336) translate(21.018518518518505 44.44444444444445)"/><use xlink:href="#g" transform="matrix(1,0,0,1,-1705,8713.333333333336) translate(11.682098765432087 111.11111111111111)"/><use xlink:href="#h" transform="matrix(1,0,0,1,-1705,8713.333333333336) translate(28.8888888888889 177.7777777777778)"/><path d="M-1970 9159.33c0-3.3 2.7-6 6-6h768c3.3 0 6 2.7 6 6v548c0 3.32-2.7 6-6 6h-768c-3.3 0-6-2.68-6-6z" stroke="#000" fill="#e5e5e5"/><use xlink:href="#i" transform="matrix(1,0,0,1,-1958,9165.333333333336) translate(262.6928104575163 164.4967320261438)"/><use xlink:href="#j" transform="matrix(1,0,0,1,-1958,9165.333333333336) translate(226.0392156862745 209.67320261437908)"/><use xlink:href="#k" transform="matrix(1,0,0,1,-1958,9165.333333333336) translate(395.24183006535947 209.67320261437908)"/><use xlink:href="#l" transform="matrix(1,0,0,1,-1958,9165.333333333336) translate(378.562091503268 254.84967320261438)"/><use xlink:href="#l" transform="matrix(1,0,0,1,-1958,9165.333333333336) translate(378.562091503268 300.0261437908497)"/><use xlink:href="#m" transform="matrix(1,0,0,1,-1958,9165.333333333336) translate(205.22875816993465 345.20261437908493)"/><use xlink:href="#n" transform="matrix(1,0,0,1,-1958,9165.333333333336) translate(380.7058823529412 345.20261437908493)"/><use xlink:href="#o" transform="matrix(1,0,0,1,-1958,9165.333333333336) translate(243.81699346405227 390.37908496732024)"/><use xlink:href="#p" transform="matrix(1,0,0,1,-1958,9165.333333333336) translate(358.640522875817 390.37908496732024)"/><path d="M-1990 7859.33c0-3.3 2.7-6 6-6h768c3.3 0 6 2.7 6 6v548c0 3.32-2.7 6-6 6h-768c-3.3 0-6-2.68-6-6z" stroke="#000" fill="#e5e5e5"/><use xlink:href="#q" transform="matrix(1,0,0,1,-1978,7865.333333333336) translate(275.29411764705884 206.49019607843138)"/><use xlink:href="#r" transform="matrix(1,0,0,1,-1978,7865.333333333336) translate(221.9607843137255 251.66666666666669)"/><use xlink:href="#s" transform="matrix(1,0,0,1,-1978,7865.333333333336) translate(405.59477124183013 251.66666666666669)"/><use xlink:href="#l" transform="matrix(1,0,0,1,-1978,7865.333333333336) translate(378.562091503268 296.84313725490193)"/><use xlink:href="#t" transform="matrix(1,0,0,1,-1978,7865.333333333336) translate(116.33986928104572 342.01960784313724)"/><use xlink:href="#u" transform="matrix(1,0,0,1,-1978,7865.333333333336) translate(341.90849673202615 342.01960784313724)"/><use xlink:href="#v" transform="matrix(1,0,0,1,-1978,7865.333333333336) translate(362.8235294117647 342.01960784313724)"/><use xlink:href="#w" transform="matrix(1,0,0,1,-1978,7865.333333333336) translate(488.31372549019613 342.01960784313724)"/><path d="M-1587.5 8530.83h-5v-5.12h5zm0-25.6h-5V8495h5zm0-61.42h-5v-5.1h5z" fill="#5e5e5e"/><path d="M-1587.5 8533.4l-2.5-.07h-1.1l-1.4.07v-2.63h5zM-1585.36 8436.2h-9.28l4.64-14.28z" fill="#5e5e5e"/><path d="M-1581.92 8438.7h-16.16l8.08-24.87zm-9.27-5h2.4l-1.2-3.7z" fill="#5e5e5e"/><use xlink:href="#x" transform="matrix(1,0,0,1,-1654.675925925926,8453.5824370923) translate(0.0049999999999954525 26.66666666666667)"/><path d="M-1577.5 9150.33h-5V9145h5zm0-26.7h-5v-10.66h5zm0-69.04h-5v-5.68h5zm0-27.03h-5v-10.67h5zm0-32.02h-5v-10.67h5zm0-32.02h-5v-5.34h5z" fill="#5e5e5e"/><path d="M-1577.5 9152.83h-5v-2.56h5zM-1575.36 8955.7h-9.28l4.64-14.28z" fill="#5e5e5e"/><path d="M-1571.92 8958.2h-16.16l8.08-24.87zm-9.27-5h2.4l-1.2-3.7z" fill="#5e5e5e"/><use xlink:href="#y" transform="matrix(1,0,0,1,-1735.1388888888891,9054.589644181144) translate(0.0049999999999954525 26.66666666666667)"/><use xlink:href="#z" transform="matrix(1,0,0,1,-1735.1388888888891,9054.589644181144) translate(138.6161111111111 26.66666666666667)"/><path d="M-1874 9127.98h-5v-4.94h5zm0-24.7h-5v-9.9h5zm0-29.66h-5v-9.9h5zm0-29.65h-5v-9.9h5zm0-29.66h-5v-9.87h5zm0-29.64h-5v-9.88h5zm0-67.47h-5v-1.72h5zm0-21.5h-5v-9.88h5zm0-29.64h-5v-9.9h5zm0-29.65h-5v-9.88h5zm0-29.65h-5v-9.88h5zm0-29.65h-5v-9.88h5zm0-29.65h-5v-9.88h5zm0-29.65h-5v-9.88h5zm0-29.65h-5v-9.9h5zm0-29.65h-5v-9.9h5zm0-29.65h-5v-9.9h5zm0-29.66h-5v-9.9h5zm0-29.66h-5v-9.88h5zm0-29.65h-5v-9.9h5zm0-29.66h-5v-9.88h5zm0-29.65h-5v-9.9h5zm0-29.66h-5v-9.9h5zm0-29.65h-5v-4.96h5z" fill="#5e5e5e"/><path d="M-1874 8416.4h-5v-2.57h5zM-1876.5 9144.74l-4.64-14.26h9.27z" fill="#5e5e5e"/><path d="M-1876.5 9152.83l-8.08-24.85h16.15zm-1.2-19.85l1.2 3.67 1.2-3.67z" fill="#5e5e5e"/><use xlink:href="#A" transform="matrix(1,0,0,1,-2012.2457063221232,8917.19098966154) translate(0.0049999999999954525 26.66666666666667)"/><use xlink:href="#B" transform="matrix(1,0,0,1,-2012.2457063221232,8917.19098966154) translate(121.85685185185184 26.66666666666667)"/><path d="M-2411.48 9230.1h-5v-5h5zm30.08 0h-10.03v-5h10.03zm30.08 0h-10.02v-5h10.02zm330.9 0h-10.03v-5h10.03zm25.06 0h-5v-5h5z" fill="#5e5e5e"/><path d="M-2416.43 9230.1h-2.57v-5h2.57zM-1978.6 9227.6l-14.26 4.64v-9.27z" fill="#5e5e5e"/><path d="M-1970.5 9227.6l-24.86 8.08v-16.15zm-19.86 1.2l3.68-1.2-3.68-1.2z" fill="#5e5e5e"/><use xlink:href="#C" transform="matrix(1,0,0,1,-2347.292932579933,9207.605847984894) translate(0.0049999999999954525 26.666666666666657)"/><use xlink:href="#D" transform="matrix(1,0,0,1,-2347.292932579933,9207.605847984894) translate(107.31981481481478 26.666666666666657)"/><use xlink:href="#E" transform="matrix(1,0,0,1,-2347.292932579933,9207.605847984894) translate(207.22722222222217 26.666666666666657)"/><path d="M-2420.77 9164.6l-2.6 4.36-4.3-2.55 2.6-4.35zm15.57-26.16l-5.2 8.72-4.3-2.55 5.2-8.7zm15.57-26.16l-5.2 8.72-4.3-2.55 5.2-8.72zm15.56-26.16l-5.2 8.72-4.28-2.55 5.2-8.73zm15.57-26.16l-5.2 8.72-4.3-2.55 5.2-8.72zm15.57-26.16l-5.2 8.72-4.3-2.55 5.2-8.72zm15.56-26.16l-5.2 8.72-4.28-2.55 5.18-8.72zm15.57-26.16l-5.2 8.72-4.3-2.56 5.2-8.72zm15.56-26.16l-5.18 8.72-4.3-2.56 5.2-8.72zm15.57-26.16l-5.2 8.72-4.28-2.56 5.18-8.72zm15.57-26.16l-5.2 8.72-4.3-2.56 5.2-8.72zm15.56-26.16l-5.18 8.72-4.3-2.56 5.2-8.72zm15.57-26.16l-5.2 8.72-4.3-2.56 4-6.68h4.63zm31.13-52.32l-5.2 8.72-4.28-2.56 5.2-8.72zm15.57-26.16l-5.2 8.72-4.3-2.56 5.2-8.72zm15.57-26.16l-5.2 8.72-4.3-2.56 5.2-8.72zm15.56-26.16l-5.2 8.72-4.28-2.56 5.2-8.72zm15.57-26.16l-5.2 8.72-4.3-2.56 5.2-8.72zm15.57-26.16l-5.2 8.72-4.3-2.56 5.2-8.72zm15.56-26.16l-5.2 8.72-4.28-2.56 5.2-8.72zm15.57-26.16l-5.2 8.72-4.3-2.56 5.2-8.72zm15.57-26.17l-5.2 8.72-4.3-2.56 5.2-8.72zm15.56-26.16l-5.2 8.73-4.28-2.55 5.18-8.72zm15.57-26.15l-5.2 8.72-4.3-2.55 5.2-8.72zm15.56-26.16l-5.2 8.7-4.3-2.54 5.2-8.72zm15.56-26.17l-5.2 8.72-4.28-2.55 5.18-8.72zm15.57-26.16l-5.2 8.72-4.3-2.56 5.2-8.72zm12.97-21.8l-2.6 4.36-4.3-2.55 2.6-4.36z" fill="#5e5e5e"/><path d="M-2423.33 9168.9l-1.82 3.07-1.64-2.14-1.86-1.74 1.03-1.75zM-1984.4 8435.42l-7.95-4.74 11.27-9.9z" fill="#5e5e5e"/><path d="M-1982.7 8439.32l-13.9-8.26 19.66-17.23zm-5.42-9.03l2.05 1.2.86-3.76z" fill="#5e5e5e"/><use xlink:href="#F" transform="matrix(1,0,0,1,-2352.260695332156,8810.158542161778) translate(0.0049999999999954525 26.66666666666667)"/><use xlink:href="#G" transform="matrix(1,0,0,1,-2352.260695332156,8810.158542161778) translate(77.78277777777777 26.66666666666667)"/><use xlink:href="#H" transform="matrix(1,0,0,1,-2352.260695332156,8810.158542161778) translate(127.59759259259258 26.66666666666667)"/><use xlink:href="#I" transform="matrix(1,0,0,1,-2352.260695332156,8810.158542161778) translate(195.93092592592592 26.66666666666667)"/><path d="M-1617.5 9958.48h-5v-5.24h5zm0-26.17h-5v-10.45h5zm0-31.4h-5v-10.45h5zm0-94.18h-5v-10.47h5zm0-31.4h-5v-10.47h5zm0-31.4h-5v-5.23h5zM-1615.36 9736.2h-9.28l4.64-14.28z" fill="#5e5e5e"/><path d="M-1611.92 9738.7h-16.16l8.08-24.87zm-9.27-5h2.4l-1.2-3.7zM-1620 9975.24l-4.64-14.26h9.28z" fill="#5e5e5e"/><path d="M-1620 9983.33l-8.08-24.85h16.16zm-1.2-19.85l1.2 3.67 1.2-3.67z" fill="#5e5e5e"/><use xlink:href="#J" transform="matrix(1,0,0,1,-1805.6944444444443,9808.583333333336) translate(0.0049999999999954525 26.666666666666657)"/><use xlink:href="#K" transform="matrix(1,0,0,1,-1805.6944444444443,9808.583333333336) translate(171.9494444444444 26.666666666666657)"/><use xlink:href="#L" transform="matrix(1,0,0,1,-1805.6944444444443,9808.583333333336) translate(36.02351851851853 66.66666666666664)"/><use xlink:href="#M" transform="matrix(1,0,0,1,-1805.6944444444443,9808.583333333336) translate(113.6161111111111 66.66666666666664)"/><use xlink:href="#N" transform="matrix(1,0,0,1,-1805.6944444444443,9808.583333333336) translate(167.13462962962961 66.66666666666664)"/><path d="M-2480 7566c0-3.3 2.7-6 6-6h1468c3.3 0 6 2.7 6 6v188c0 3.3-2.7 6-6 6h-1468c-3.3 0-6-2.7-6-6z" fill="#fff" fill-opacity="0"/><use xlink:href="#O" transform="matrix(1,0,0,1,-2475,7565) translate(241.91358024691363 112.89236111111111)"/><use xlink:href="#P" transform="matrix(1,0,0,1,-2475,7565) translate(562.6543209876543 112.89236111111111)"/><use xlink:href="#Q" transform="matrix(1,0,0,1,-2475,7565) translate(893.2716049382716 112.89236111111111)"/><path d="M-1160 10073.33c0 49.7-35.82 90-80 90s-80-40.3-80-90 35.82-90 80-90 80 40.3 80 90z" fill="#c1e4f7"/><path d="M-1110 10143.33c16.57 0 30 13.43 30 30v180c0 16.57-13.43 30-30 30h-260c-16.57 0-30-13.43-30-30v-180c0-16.57 13.43-30 30-30z" fill="#c1e4f7"/><path d="M-1360 10171c0-3.3 2.7-6 6-6h228c3.3 0 6 2.7 6 6v184.67c0 3.3-2.7 6-6 6h-228c-3.3 0-6-2.7-6-6z" fill="#fff" fill-opacity="0"/><g><use xlink:href="#R" transform="matrix(1,0,0,1,-1355,10170.000000000002) translate(54.96913580246914 44.44444444444445)"/><use xlink:href="#b" transform="matrix(1,0,0,1,-1355,10170.000000000002) translate(11.682098765432087 111.11111111111111)"/><use xlink:href="#S" transform="matrix(1,0,0,1,-1355,10170.000000000002) translate(56.43518518518519 177.7777777777778)"/></g><path d="M-1256.85 9961.16h-5v-9.27h5zm0-27.8h-5v-18.55h5zm0-37.1h-5v-18.53h5zm0-111.22h-5v-18.54h5zm0-37.08h-5v-9.27h5zM-1254.72 9736.2h-9.27l4.65-14.28z" fill="#5e5e5e"/><path d="M-1251.28 9738.7h-16.15l8.08-24.87zm-9.27-5h2.4l-1.2-3.7zM-1259.35 9977.92l-4.64-14.26h9.28z" fill="#5e5e5e"/><path d="M-1259.35 9986l-8.08-24.84h16.15zm-1.2-19.84l1.2 3.67 1.2-3.67z" fill="#5e5e5e"/><g><use xlink:href="#T" transform="matrix(1,0,0,1,-1425.510096575725,9789.377163777875) translate(0.0049999999999954525 26.66666666666667)"/><use xlink:href="#U" transform="matrix(1,0,0,1,-1425.510096575725,9789.377163777875) translate(142.13462962962961 26.66666666666667)"/><use xlink:href="#V" transform="matrix(1,0,0,1,-1425.510096575725,9789.377163777875) translate(10.143888888888853 66.66666666666669)"/><use xlink:href="#W" transform="matrix(1,0,0,1,-1425.510096575725,9789.377163777875) translate(194.7735185185185 66.66666666666669)"/></g><path d="M-1160 8620.5c0 49.7-35.82 90-80 90s-80-40.3-80-90 35.82-90 80-90 80 40.3 80 90z" fill="#83bbe5"/><path d="M-1110 8690.5c16.57 0 30 13.43 30 30v180c0 16.57-13.43 30-30 30h-260c-16.57 0-30-13.43-30-30v-180c0-16.57 13.43-30 30-30z" fill="#83bbe5"/><path d="M-1360 8711.5c0-3.3 2.7-6 6-6h228c3.3 0 6 2.7 6 6v198c0 3.3-2.7 6-6 6h-228c-3.3 0-6-2.7-6-6z" fill="#83bbe5"/><g><use xlink:href="#X" transform="matrix(1,0,0,1,-1355,8710.5) translate(16.38888888888887 44.44444444444445)"/><use xlink:href="#g" transform="matrix(1,0,0,1,-1355,8710.5) translate(11.682098765432087 111.11111111111111)"/><use xlink:href="#h" transform="matrix(1,0,0,1,-1355,8710.5) translate(28.8888888888889 177.7777777777778)"/></g><path d="M-1243.53 9116.48l.74 1.76-.73 1.77-1.76.74-1.76-.73-.73-1.76.74-1.76 1.77-.74zm.34-9.75l.75 1.77-.74 1.76-1.75.74-1.77-.74-.73-1.76.73-1.77 1.77-.73zm.35-9.75l.74 1.77-.75 1.77-1.76.73-1.78-.73-.73-1.77.72-1.77 1.77-.73zm.34-9.75l.73 1.77-.74 1.77-1.77.73-1.77-.73-.73-1.77.73-1.77 1.77-.73zm.33-9.74l.74 1.75-.74 1.77-1.76.73-1.77-.73-.73-1.77.73-1.76 1.77-.75zm.34-9.76l.74 1.77-.73 1.77-1.76.74-1.76-.73-.73-1.76.74-1.76 1.77-.73zm.34-9.75l.74 1.76-.73 1.77-1.76.73-1.76-.73-.74-1.77.74-1.77 1.76-.74zm.35-6.22l-1.77.73-1.76-.72-.38-.92h4.3zm1.36-42.53l.68 1.6h-4.87l.68-1.6 1.76-.73zm.27-9.75l.74 1.77-.73 1.77-1.76.73-1.76-.73-.73-1.77.74-1.77 1.77-.73zm.18-9.75l.73 1.77-.73 1.76-1.77.74-1.76-.74-.74-1.76.74-1.77 1.76-.73zm.18-9.75l.73 1.76-.73 1.77-1.77.73-1.76-.73-.74-1.77.74-1.76 1.76-.74zm.18-9.76l.74 1.77-.73 1.78-1.76.73-1.77-.72-.73-1.77.73-1.76 1.77-.73zm.2-9.75l.72 1.76-.73 1.77-1.78.73-1.77-.73-.73-1.77.73-1.77 1.77-.74zm.17-9.76l.73 1.77-.73 1.78-1.77.73-1.77-.72-.73-1.77.73-1.76 1.77-.73zm.17-9.75l.74 1.76-.74 1.76-1.76.74-1.77-.74-.72-1.76.73-1.77 1.78-.74zm.18-9.76l.73 1.76-.73 1.77-1.77.73-1.76-.73-.75-1.77.74-1.76 1.75-.74z" fill="#5e5e5e"/><path d="M-1237.55 8933.1l-5-.08.05-2.52h5zM-1241.1 9130.65l-5.12 14.1-4.13-14.42z" fill="#5e5e5e"/><path d="M-1237.56 9128.27l-8.94 24.56-7.2-25.12zm-8.38 8.4l1.33-3.64-2.4-.08z" fill="#5e5e5e"/><g><use xlink:href="#Y" transform="matrix(1,0,0,1,-1379.9790655897557,9010.858164381074) translate(0.0049999999999954525 26.66666666666667)"/></g><path d="M-2499 9550c0 49.7-35.82 90-80 90s-80-40.3-80-90 35.82-90 80-90 80 40.3 80 90z" fill="#0c7cba"/><path d="M-2449 9620c16.57 0 30 13.43 30 30v180c0 16.57-13.43 30-30 30h-260c-16.57 0-30-13.43-30-30v-180c0-16.57 13.43-30 30-30z" fill="#0c7cba"/><path d="M-2699 9634.33c0-3.3 2.7-6 6-6h228c3.3 0 6 2.7 6 6V9819c0 3.3-2.7 6-6 6h-228c-3.3 0-6-2.7-6-6z" fill="#fff" fill-opacity="0"/><g><use xlink:href="#Z" transform="matrix(1,0,0,1,-2694,9633.333333333332) translate(16.38888888888887 44.44444444444445)"/><use xlink:href="#b" transform="matrix(1,0,0,1,-2694,9633.333333333332) translate(11.682098765432087 111.11111111111111)"/><use xlink:href="#c" transform="matrix(1,0,0,1,-2694,9633.333333333332) translate(-5.138888888888886 177.7777777777778)"/></g><path d="M-2454.73 9654.35l.73 1.77-.73 1.77-1.77.72-1.77-.73-.73-1.78.73-1.77 1.77-.73zm10.02-.16l.72 1.75-.73 1.77-1.78.73-1.76-.73-.74-1.77.74-1.76 1.76-.75zm10.02-.18l.73 1.77-.73 1.75-1.77.74-1.77-.75-.73-1.76.73-1.78 1.77-.73zm10.02-.17l.73 1.77-.73 1.77-1.77.72-1.76-.73-.73-1.78.74-1.77 1.77-.73zm10.03-.17l.73 1.77-.73 1.77-1.77.73-1.77-.73-.73-1.77.73-1.77 1.77-.73zm10.02-.17l.72 1.78-.73 1.77-1.78.73-1.76-.73-.74-1.77.74-1.77 1.76-.72zm10.02-.15l.73 1.76-.73 1.78-1.77.73-1.77-.72-.73-1.77.73-1.75 1.77-.74zm10.02-.17l.73 1.77-.73 1.76-1.77.75-1.76-.74-.73-1.75.74-1.77 1.77-.73zm10.03-.17l.73 1.78-.73 1.77-1.77.73-1.77-.73-.73-1.77.73-1.77 1.77-.72zm10.02-.16l.72 1.77-.73 1.78-1.78.73-1.76-.72-.74-1.77.74-1.76 1.76-.73zm170.42-2.85l.73 1.76-.73 1.76-1.77.74-1.77-.74-.73-1.76.73-1.77 1.77-.74zm10.02-.18l.73 1.77-.73 1.76-1.77.73-1.76-.74-.73-1.77.74-1.78 1.77-.73zm10.03-.17l.73 1.77-.73 1.77-1.77.72-1.77-.73-.73-1.78.73-1.77 1.77-.73zm10.02-.16l.72 1.75-.73 1.77-1.78.73-1.76-.73-.74-1.77.74-1.76 1.76-.75zm10.02-.18l.73 1.77-.73 1.75-1.77.74-1.77-.75-.73-1.76.73-1.78 1.77-.73zm10.02-.17l.73 1.77-.73 1.77-1.77.72-1.76-.73-.73-1.78.74-1.77 1.77-.73zm10.03-.17l.73 1.77-.73 1.77-1.77.73-1.77-.73-.73-1.77.73-1.77 1.77-.73zm10.02-.17l.72 1.78-.73 1.77-1.78.73-1.76-.73-.74-1.77.74-1.77 1.76-.72zm10.02-.15l.73 1.76-.73 1.78-1.77.73-1.77-.72-.73-1.77.73-1.75 1.77-.74zm10.02-.17l.73 1.77-.73 1.76-1.77.75-1.76-.74-.73-1.75.74-1.77 1.77-.73zm10.03-.17l.73 1.78-.73 1.77-1.77.73-1.77-.73-.73-1.77.73-1.77 1.77-.72zm10.02-.16l.72 1.77-.73 1.78-1.78.73-1.76-.72-.74-1.77.74-1.76 1.76-.73zm10.02-.17l.73 1.77-.73 1.77-1.77.74-1.77-.73-.73-1.76.73-1.77 1.77-.73zm10.02-.16l.73 1.77-.73 1.77-1.77.73-1.76-.73-.73-1.77.74-1.76 1.77-.73zm10.03-.16l.73 1.77-.73 1.77-1.77.74-1.77-.73-.73-1.76.73-1.76 1.77-.73zm10.02-.17l.72 1.77-.73 1.77-1.78.74-1.77-.73-.73-1.76.73-1.77 1.77-.73zm10.02-.17l.73 1.77-.73 1.77-1.77.73-1.77-.73-.73-1.77.73-1.77 1.77-.73zm10.02-.17l.73 1.77-.73 1.77-1.77.73-1.77-.73-.73-1.77.73-1.77 1.77-.73zm10.03-.16l.73 1.76-.73 1.77-1.77.73-1.77-.73-.73-1.77.73-1.76 1.77-.74zm10.02-.17l.72 1.77-.73 1.76-1.78.74-1.77-.74-.73-1.76.73-1.77 1.77-.73z" fill="#5e5e5e"/><path d="M-2456.4 9658.62l-2.6.04v-5l2.52-.04zM-1978.6 9648.12l-14.18 4.87-.15-9.28z" fill="#5e5e5e"/><path d="M-1970.5 9647.98l-24.72 8.5-.27-16.16zm-19.83 1.53l3.65-1.25-3.7-1.13z" fill="#5e5e5e"/><g><use xlink:href="#aa" transform="matrix(1,0,0,1,-2363.4585603593846,9633.217008974983) translate(0.0049999999999954525 26.66666666666667)"/></g><path d="M-2456.26 9630.26l.73 1.77-.73 1.77-1.77.73-1.77-.73-.73-1.77.73-1.77 1.77-.73zm3.87-9.2l.74 1.77-.73 1.77-1.76.73-1.77-.73-.73-1.77.73-1.76 1.77-.74zm3.88-9.2l.73 1.78-.72 1.77-1.77.74-1.75-.73-.74-1.76.75-1.77 1.76-.73zm3.87-9.18l.73 1.77-.73 1.76-1.77.75-1.76-.74-.74-1.75.74-1.77 1.76-.73zm3.87-9.2l.74 1.77-.74 1.77-1.76.73-1.77-.73-.74-1.77.73-1.77 1.76-.73zm3.88-9.2l.73 1.78-.73 1.76-1.77.74-1.77-.74-.73-1.76.73-1.77 1.77-.74zm3.87-9.2l.73 1.78-.73 1.77-1.77.73-1.77-.73-.73-1.77.73-1.77 1.77-.74zm3.87-9.18l.73 1.77-.73 1.77-1.77.73-1.77-.73-.73-1.77.73-1.77 1.77-.73zm3.87-9.2l.74 1.77-.73 1.77-1.76.73-1.77-.73-.73-1.77.73-1.76 1.77-.73zm3.88-9.2l.73 1.78-.72 1.77-1.77.73-1.75-.73-.74-1.77.75-1.77 1.76-.72zm3.87-9.18l.74 1.76-.75 1.77-1.76.73-1.78-.73-.73-1.77.72-1.76 1.77-.74zm3.87-9.2l.74 1.77-.74 1.76-1.76.73-1.77-.74-.74-1.77.73-1.78 1.76-.73zm3.88-9.2l.73 1.77-.73 1.76-1.77.73-1.77-.74-.73-1.77.73-1.77 1.77-.74zm3.87-9.2l.73 1.78-.73 1.77-1.77.73-1.77-.73-.73-1.77.73-1.77 1.77-.73zm3.87-9.18l.73 1.77-.73 1.77-1.77.74-1.77-.73-.73-1.76.73-1.76 1.77-.73zm3.87-9.2l.74 1.77-.73 1.78-1.76.73-1.76-.72-.74-1.77.74-1.76 1.76-.73zm3.88-9.2l.73 1.78-.72 1.76-1.77.74-1.75-.74-.74-1.76.75-1.77 1.76-.73zm3.87-9.2l.74 1.78-.75 1.77-1.76.72-1.78-.73-.73-1.78.72-1.77 1.77-.73zm3.88-9.18l.73 1.77-.73 1.77-1.77.73-1.77-.73-.74-1.77.73-1.77 1.76-.73zm3.87-9.2l.73 1.77-.73 1.77-1.77.73-1.77-.73-.73-1.77.73-1.76 1.77-.74zm3.87-9.2l.73 1.78-.73 1.77-1.77.74-1.77-.73-.73-1.76.73-1.77 1.77-.73zm3.87-9.18l.73 1.76-.73 1.77-1.77.74-1.77-.73-.73-1.76.73-1.76 1.77-.74zm3.87-9.2l.74 1.77-.73 1.77-1.76.73-1.76-.73-.74-1.77.74-1.77 1.76-.73zm3.88-9.2l.74 1.78-.74 1.76-1.76.74-1.77-.74-.73-1.76.73-1.77 1.77-.74zm3.87-9.2l.74 1.78-.75 1.77-1.76.73-1.78-.73-.73-1.77.72-1.77 1.77-.74zm3.88-9.18l.73 1.77-.73 1.76-1.77.74-1.77-.74-.74-1.76.73-1.77 1.76-.73zm3.87-9.2l.73 1.77-.73 1.77-1.77.73-1.77-.73-.73-1.77.73-1.77 1.77-.73zm3.87-9.2l.73 1.78-.73 1.76-1.77.74-1.77-.74-.73-1.76.73-1.77 1.77-.72zm3.87-9.2l.73 1.78-.73 1.77-1.77.73-1.76-.73-.73-1.77.74-1.77 1.77-.72zm3.87-9.18l.74 1.77-.73 1.76-1.76.73-1.76-.74-.74-1.77.74-1.78 1.76-.73zm3.88-9.2l.74 1.77-.74 1.76-1.76.73-1.77-.74-.73-1.77.73-1.77 1.77-.74zm3.88-9.2l.73 1.78-.74 1.77-1.77.73-1.78-.73-.73-1.77.72-1.77 1.77-.73zm3.87-9.18l.73 1.76-.73 1.77-1.77.73-1.77-.73-.74-1.77.73-1.76 1.76-.74zm3.87-9.2l.73 1.77-.73 1.78-1.77.73-1.77-.72-.73-1.77.73-1.76 1.77-.73zm3.87-9.2l.73 1.78-.73 1.76-1.77.74-1.77-.74-.73-1.76.73-1.77 1.77-.73zm3.87-9.2l.73 1.78-.73 1.77-1.77.72-1.76-.73-.73-1.78.74-1.77 1.77-.73zm3.87-9.18l.75 1.77-.74 1.76-1.75.73-1.77-.74-.73-1.77.73-1.77 1.77-.73zm3.88-9.2l.74 1.77-.74 1.77-1.76.73-1.77-.73-.73-1.77.73-1.77 1.77-.73zm3.88-9.2l.73 1.78-.74 1.77-1.77.74-1.78-.73-.73-1.76.72-1.77 1.77-.73zm3.87-9.18l.73 1.76-.73 1.77-1.77.74-1.77-.73-.74-1.76.73-1.76 1.76-.74zm3.87-9.2l.73 1.77-.73 1.77-1.77.73-1.77-.73-.73-1.77.73-1.77 1.77-.73zm3.87-9.2l.73 1.77-.73 1.77-1.77.73-1.76-.73-.74-1.77.74-1.76 1.76-.75zm3.87-5.65l-1.77.73-1.76-.73v-.02h3.55zm15.5-40.32l.1.3h-3.77l.12-.3 1.76-.72zm3.86-9.18l.73 1.77-.73 1.75-1.77.74-1.77-.75-.73-1.76.73-1.78 1.77-.73zm3.87-9.2l.73 1.77-.73 1.76-1.77.73-1.76-.74-.74-1.77.74-1.78 1.76-.73zm3.87-9.2l.74 1.78-.74 1.77-1.76.73-1.77-.73-.72-1.77.73-1.77 1.78-.73zm3.88-9.18l.73 1.76-.73 1.77-1.77.73-1.77-.73-.73-1.77.73-1.76 1.77-.74zm3.87-9.2l.72 1.77-.73 1.78-1.78.73-1.77-.72-.73-1.77.73-1.76 1.77-.73zm3.86-9.2l.73 1.77-.74 1.78-1.77.73-1.78-.72-.73-1.77.72-1.75 1.77-.74zm3.87-9.2l.73 1.78-.73 1.77-1.77.72-1.77-.73-.74-1.78.73-1.77 1.76-.73zm3.87-9.18l.73 1.77-.73 1.76-1.77.73-1.76-.74-.74-1.77.74-1.77 1.76-.73zm3.87-9.2l.73 1.77-.73 1.77-1.77.73-1.76-.73-.74-1.77.74-1.77 1.76-.73zm3.87-9.2l.74 1.78-.74 1.76-1.76.74-1.77-.74-.72-1.76.73-1.77 1.78-.73zm3.88-9.2l.73 1.78-.73 1.77-1.77.74-1.77-.73-.73-1.76.73-1.77 1.77-.73zm3.87-9.18l.72 1.77-.73 1.76-1.78.75-1.77-.74-.73-1.75.73-1.77 1.77-.73zm3.86-9.2l.73 1.77-.74 1.77-1.77.73-1.78-.73-.73-1.77.72-1.77 1.77-.73zm3.87-9.2l.73 1.78-.73 1.77-1.77.73-1.77-.73-.74-1.77.73-1.77 1.76-.74zm3.87-9.18l.73 1.76-.73 1.77-1.77.73-1.76-.73-.74-1.77.74-1.76 1.76-.74zm3.87-9.2l.74 1.77-.73 1.77-1.76.73-1.76-.73-.73-1.77.74-1.77 1.77-.73zm3.88-9.2l.73 1.77-.73 1.77-1.77.73-1.77-.73-.72-1.77.73-1.76 1.78-.73zm3.87-5.65l-1.77.73-1.77-.73-.52-1.27h4.58zm19.35-49.5l.74 1.76-.73 1.77-1.76.74-1.76-.73-.73-1.76.74-1.76 1.77-.73zm3.88-9.2l.73 1.76-.73 1.78-1.77.73-1.77-.72-.72-1.77.73-1.76 1.78-.73zm3.87-9.2l.73 1.77-.73 1.77-1.77.72-1.77-.73-.73-1.78.73-1.77 1.77-.73zm3.87-9.2l.72 1.77-.73 1.77-1.78.72-1.77-.73-.73-1.78.73-1.76 1.77-.74zm3.86-9.2l.73 1.78-.74 1.77-1.77.73-1.78-.73-.73-1.77.72-1.77 1.77-.73zm3.87-9.18l.73 1.76-.73 1.77-1.77.73-1.76-.73-.74-1.77.74-1.76 1.76-.74zm3.87-9.2l.74 1.77-.74 1.77-1.76.74-1.77-.73-.73-1.76.73-1.77 1.77-.73zm3.88-9.2l.73 1.78-.72 1.76-1.77.75-1.76-.74-.73-1.75.74-1.77 1.77-.73zm3.87-9.2l.73 1.78-.73 1.77-1.77.73-1.77-.73-.72-1.77.73-1.77 1.78-.73zm3.87-9.18l.73 1.76-.73 1.76-1.77.74-1.77-.74-.73-1.76.73-1.77 1.77-.74zm3.87-9.2l.72 1.76-.73 1.77-1.78.73-1.77-.73-.73-1.77.73-1.77 1.77-.74zm3.86-9.2l.73 1.77-.74 1.77-1.77.73-1.77-.73-.74-1.77.73-1.77 1.76-.73zm3.87-9.2l.74 1.77-.74 1.77-1.76.73-1.77-.73-.73-1.77.73-1.76 1.77-.73zm3.87-9.2l.74 1.78-.74 1.77-1.76.73-1.77-.73-.73-1.77.73-1.77 1.77-.72zm3.88-9.18l.73 1.76-.72 1.77-1.77.73-1.76-.73-.73-1.77.74-1.76 1.77-.74zm3.87-9.2l.73 1.77-.73 1.76-1.77.73-1.77-.74-.72-1.77.73-1.78 1.78-.73zm4.6-7.43l-.73 1.76-1.77.73-1.77-.74-.73-1.77.14-.34h4.7zm18.63-47.75l.73 1.77-.72 1.77-1.77.72-1.76-.73-.73-1.78.74-1.77 1.77-.73zm3.87-9.2l.73 1.78-.73 1.77-1.77.73-1.77-.73-.72-1.77.73-1.77 1.78-.73zm3.87-9.18l.73 1.76-.73 1.77-1.77.73-1.77-.73-.73-1.77.73-1.76 1.77-.74zm3.87-9.2l.72 1.77-.73 1.77-1.78.74-1.76-.73-.74-1.76.74-1.77 1.76-.73zm3.86-9.2l.74 1.77-.74 1.77-1.76.74-1.77-.73-.73-1.76.73-1.76 1.77-.74zm3.87-9.2l.74 1.78-.74 1.77-1.76.73-1.77-.73-.73-1.77.73-1.77 1.77-.73zm3.88-9.18l.74 1.76-.73 1.76-1.76.74-1.77-.74-.73-1.76.73-1.77 1.77-.74zm3.88-9.2l.73 1.76-.72 1.77-1.77.73-1.76-.73-.73-1.77.74-1.77 1.77-.74zm3.87-9.2l.73 1.77-.73 1.76-1.77.74-1.77-.74-.72-1.76.73-1.77 1.78-.73zm3.87-9.2l.73 1.77-.73 1.77-1.77.73-1.76-.73-.75-1.77.74-1.77 1.75-.73zm3.87-9.2l.72 1.78-.73 1.76-1.78.74-1.76-.74-.74-1.76.74-1.77 1.76-.72zm3.86-9.2l.74 1.78-.74 1.77-1.76.73-1.77-.73-.73-1.77.73-1.77 1.77-.72zm3.88-9.18l.73 1.77-.73 1.76-1.77.73-1.77-.74-.73-1.77.73-1.78 1.77-.73zm3.87-9.2l.74 1.77-.73 1.76-1.76.73-1.77-.74-.73-1.77.73-1.77 1.77-.74zm3.88-9.2l.73 1.78-.72 1.77-1.77.73-1.76-.73-.73-1.77.74-1.77 1.77-.73zm3.87-9.18l.73 1.76-.73 1.77-1.77.73-1.77-.73-.72-1.77.73-1.76 1.78-.74zm3.87-9.2l.73 1.77-.73 1.78-1.77.73-1.76-.72-.75-1.77.74-1.76 1.75-.73zm3.87-9.2l.73 1.78-.74 1.76-1.77.74-1.77-.74-.73-1.76.73-1.77 1.77-.73zm3.86-9.2l.74 1.78-.74 1.77-1.76.72-1.77-.73-.73-1.78.73-1.77 1.77-.73zm3.88-9.18l.73 1.77-.73 1.76-1.77.73-1.77-.74-.73-1.77.73-1.77 1.77-.73zm3.87-9.2l.74 1.77-.73 1.77-1.76.73-1.77-.73-.73-1.77.73-1.77 1.77-.73zm3.88-9.2l.73 1.78-.72 1.77-1.77.74-1.76-.73-.73-1.76.74-1.77 1.77-.73zm3.87-9.18l.73 1.76-.73 1.77-1.77.74-1.76-.73-.74-1.76.74-1.76 1.76-.74zm3.87-9.2l.73 1.77-.73 1.77-1.77.73-1.76-.73-.75-1.77.74-1.77 1.75-.73zm3.87-9.2l.73 1.77-.74 1.77-1.77.73-1.77-.73-.73-1.77.73-1.76 1.77-.75zm3.87-9.2l.73 1.78-.73 1.77-1.77.73-1.77-.73-.73-1.77.73-1.77 1.77-.74zm3.87-9.18l.73 1.76-.73 1.77-1.77.73-1.77-.73-.73-1.77.73-1.76 1.77-.74zm3.87-9.2l.74 1.77-.73 1.77-1.76.73-1.77-.73-.73-1.77.73-1.77 1.77-.73zm3.88-9.2l.73 1.78-.72 1.76-1.77.74-1.76-.74-.73-1.76.74-1.77 1.77-.72zm3.87-9.2l.73 1.78-.73 1.77-1.77.73-1.76-.73-.74-1.77.74-1.77 1.76-.72zm3.87-9.18l.74 1.77-.74 1.75-1.76.74-1.77-.75-.74-1.76.73-1.78 1.76-.73zm3.87-9.2l.73 1.77-.74 1.76-1.77.73-1.77-.74-.73-1.77.73-1.78 1.77-.73zm3.87-9.2l.73 1.78-.73 1.77-1.77.73-1.77-.73-.73-1.77.73-1.77 1.77-.73zm3.87-9.18l.73 1.76-.73 1.77-1.77.73-1.77-.73-.73-1.77.73-1.76 1.77-.74zm3.87-9.2l.74 1.77-.73 1.78-1.76.73-1.77-.72-.73-1.77.73-1.76 1.77-.73zm3.88-9.2l.73 1.77-.72 1.78-1.77.73-1.75-.72-.74-1.77.75-1.75 1.76-.74zm3.87-9.2l.73 1.78-.73 1.77-1.77.72-1.76-.73-.74-1.78.74-1.77 1.76-.73zm3.87-9.18l.74 1.76-.74 1.77-1.76.72-1.77-.73-.74-1.78.73-1.76 1.76-.74zm3.88-9.2l.73 1.77-.73 1.77-1.77.73-1.77-.73-.73-1.77.73-1.77 1.77-.73zm3.87-9.2l.73 1.78-.73 1.76-1.77.74-1.77-.74-.73-1.76.73-1.77 1.77-.73z" fill="#5e5e5e"/><path d="M-2455.7 9632.94l-2.16 5.13-1.14-.48v-3.27l-.82-3.02-.17-.17zM-1949.5 8436.24l-8.53-3.6 9.8-11.35z" fill="#5e5e5e"/><path d="M-1947.3 8439.88l-14.87-6.27 17.1-19.77zm-6.6-8.2l2.2.92.34-3.85z" fill="#5e5e5e"/><g><use xlink:href="#F" transform="matrix(1,0,0,1,-2261.208400759909,9004.083333333334) translate(0.005000000000002558 26.66666666666667)"/><use xlink:href="#ab" transform="matrix(1,0,0,1,-2261.208400759909,9004.083333333334) translate(77.78277777777777 26.66666666666667)"/></g><defs><path d="M185-189c-5-48-123-54-124 2 14 75 158 14 163 119 3 78-121 87-175 55-17-10-28-26-33-46l33-7c5 56 141 63 141-1 0-78-155-14-162-118-5-82 145-84 179-34 5 7 8 16 11 25" id="ac"/><path d="M96-169c-40 0-48 33-48 73s9 75 48 75c24 0 41-14 43-38l32 2c-6 37-31 61-74 61-59 0-76-41-82-99-10-93 101-131 147-64 4 7 5 14 7 22l-32 3c-4-21-16-35-41-35" id="ad"/><path d="M100-194c62-1 85 37 85 99 1 63-27 99-86 99S16-35 15-95c0-66 28-99 85-99zM99-20c44 1 53-31 53-75 0-43-8-75-51-75s-53 32-53 75 10 74 51 75" id="ae"/><path d="M59-47c-2 24 18 29 38 22v24C64 9 27 4 27-40v-127H5v-23h24l9-43h21v43h35v23H59v120" id="af"/><g id="a"><use transform="matrix(0.15432098765432098,0,0,0.15432098765432098,0,0)" xlink:href="#ac"/><use transform="matrix(0.15432098765432098,0,0,0.15432098765432098,37.03703703703704,0)" xlink:href="#ad"/><use transform="matrix(0.15432098765432098,0,0,0.15432098765432098,64.81481481481481,0)" xlink:href="#ae"/><use transform="matrix(0.15432098765432098,0,0,0.15432098765432098,95.67901234567901,0)" xlink:href="#af"/><use transform="matrix(0.15432098765432098,0,0,0.15432098765432098,111.11111111111113,0)" xlink:href="#af"/></g><path d="M26 75v-336h71v23H56V52h41v23H26" id="ag"/><path d="M30-248c87 1 191-15 191 75 0 78-77 80-158 76V0H30v-248zm33 125c57 0 124 11 124-50 0-59-68-47-124-48v98" id="ah"/><path d="M100-194c63 0 86 42 84 106H49c0 40 14 67 53 68 26 1 43-12 49-29l28 8c-11 28-37 45-77 45C44 4 14-33 15-96c1-61 26-98 85-98zm52 81c6-60-76-77-97-28-3 7-6 17-6 28h103" id="ai"/><path d="M114-163C36-179 61-72 57 0H25l-1-190h30c1 12-1 29 2 39 6-27 23-49 58-41v29" id="aj"/><path d="M135-143c-3-34-86-38-87 0 15 53 115 12 119 90S17 21 10-45l28-5c4 36 97 45 98 0-10-56-113-15-118-90-4-57 82-63 122-42 12 7 21 19 24 35" id="ak"/><path d="M117-194c89-4 53 116 60 194h-32v-121c0-31-8-49-39-48C34-167 62-67 57 0H25l-1-190h30c1 10-1 24 2 32 11-22 29-35 61-36" id="al"/><path d="M3 75V52h41v-290H3v-23h71V75H3" id="am"/><g id="b"><use transform="matrix(0.15432098765432098,0,0,0.15432098765432098,0,0)" xlink:href="#ag"/><use transform="matrix(0.15432098765432098,0,0,0.15432098765432098,15.432098765432098,0)" xlink:href="#ah"/><use transform="matrix(0.15432098765432098,0,0,0.15432098765432098,52.46913580246914,0)" xlink:href="#ai"/><use transform="matrix(0.15432098765432098,0,0,0.15432098765432098,83.33333333333334,0)" xlink:href="#aj"/><use transform="matrix(0.15432098765432098,0,0,0.15432098765432098,101.69753086419755,0)" xlink:href="#ak"/><use transform="matrix(0.15432098765432098,0,0,0.15432098765432098,129.47530864197532,0)" xlink:href="#ae"/><use transform="matrix(0.15432098765432098,0,0,0.15432098765432098,160.33950617283952,0)" xlink:href="#al"/><use transform="matrix(0.15432098765432098,0,0,0.15432098765432098,191.20370370370372,0)" xlink:href="#am"/></g><path d="M212-179c-10-28-35-45-73-45-59 0-87 40-87 99 0 60 29 101 89 101 43 0 62-24 78-52l27 14C228-24 195 4 139 4 59 4 22-46 18-125c-6-104 99-153 187-111 19 9 31 26 39 46" id="an"/><path d="M84 4C-5 8 30-112 23-190h32v120c0 31 7 50 39 49 72-2 45-101 50-169h31l1 190h-30c-1-10 1-25-2-33-11 22-28 36-60 37" id="ao"/><path d="M210-169c-67 3-38 105-44 169h-31v-121c0-29-5-50-35-48C34-165 62-65 56 0H25l-1-190h30c1 10-1 24 2 32 10-44 99-50 107 0 11-21 27-35 58-36 85-2 47 119 55 194h-31v-121c0-29-5-49-35-48" id="ap"/><g id="c"><use transform="matrix(0.15432098765432098,0,0,0.15432098765432098,0,0)" xlink:href="#an"/><use transform="matrix(0.15432098765432098,0,0,0.15432098765432098,39.96913580246913,0)" xlink:href="#ao"/><use transform="matrix(0.15432098765432098,0,0,0.15432098765432098,70.83333333333333,0)" xlink:href="#ak"/><use transform="matrix(0.15432098765432098,0,0,0.15432098765432098,98.6111111111111,0)" xlink:href="#af"/><use transform="matrix(0.15432098765432098,0,0,0.15432098765432098,114.0432098765432,0)" xlink:href="#ae"/><use transform="matrix(0.15432098765432098,0,0,0.15432098765432098,144.9074074074074,0)" xlink:href="#ap"/><use transform="matrix(0.15432098765432098,0,0,0.15432098765432098,191.04938271604937,0)" xlink:href="#ai"/><use transform="matrix(0.15432098765432098,0,0,0.15432098765432098,221.91358024691357,0)" xlink:href="#aj"/></g><path d="M240 0l2-218c-23 76-54 145-80 218h-23L58-218 59 0H30v-248h44l77 211c21-75 51-140 76-211h43V0h-30" id="aq"/><path d="M141-36C126-15 110 5 73 4 37 3 15-17 15-53c-1-64 63-63 125-63 3-35-9-54-41-54-24 1-41 7-42 31l-33-3c5-37 33-52 76-52 45 0 72 20 72 64v82c-1 20 7 32 28 27v20c-31 9-61-2-59-35zM48-53c0 20 12 33 32 33 41-3 63-29 60-74-43 2-92-5-92 41" id="ar"/><path d="M143 0L79-87 56-68V0H24v-261h32v163l83-92h37l-77 82L181 0h-38" id="as"/><g id="d"><use transform="matrix(0.15432098765432098,0,0,0.15432098765432098,0,0)" xlink:href="#aq"/><use transform="matrix(0.15432098765432098,0,0,0.15432098765432098,46.141975308641975,0)" xlink:href="#ar"/><use transform="matrix(0.15432098765432098,0,0,0.15432098765432098,77.00617283950618,0)" xlink:href="#aj"/><use transform="matrix(0.15432098765432098,0,0,0.15432098765432098,95.37037037037038,0)" xlink:href="#as"/></g><path d="M24-231v-30h32v30H24zM24 0v-190h32V0H24" id="at"/><g id="e"><use transform="matrix(0.15432098765432098,0,0,0.15432098765432098,0,0)" xlink:href="#al"/><use transform="matrix(0.15432098765432098,0,0,0.15432098765432098,30.864197530864196,0)" xlink:href="#ao"/><use transform="matrix(0.15432098765432098,0,0,0.15432098765432098,61.72839506172839,0)" xlink:href="#af"/><use transform="matrix(0.15432098765432098,0,0,0.15432098765432098,77.1604938271605,0)" xlink:href="#aj"/><use transform="matrix(0.15432098765432098,0,0,0.15432098765432098,95.52469135802468,0)" xlink:href="#at"/><use transform="matrix(0.15432098765432098,0,0,0.15432098765432098,107.71604938271604,0)" xlink:href="#ae"/><use transform="matrix(0.15432098765432098,0,0,0.15432098765432098,138.58024691358023,0)" xlink:href="#al"/><use transform="matrix(0.15432098765432098,0,0,0.15432098765432098,169.44444444444443,0)" xlink:href="#at"/><use transform="matrix(0.15432098765432098,0,0,0.15432098765432098,181.6358024691358,0)" xlink:href="#ak"/><use transform="matrix(0.15432098765432098,0,0,0.15432098765432098,209.41358024691357,0)" xlink:href="#af"/></g><path d="M30 0v-248h187v28H63v79h144v27H63v87h162V0H30" id="au"/><path d="M85-194c31 0 48 13 60 33l-1-100h32l1 261h-30c-2-10 0-23-3-31C134-8 116 4 85 4 32 4 16-35 15-94c0-66 23-100 70-100zm9 24c-40 0-46 34-46 75 0 40 6 74 45 74 42 0 51-32 51-76 0-42-9-74-50-73" id="av"/><path d="M206 0h-36l-40-164L89 0H53L-1-190h32L70-26l43-164h34l41 164 42-164h31" id="aw"/><g id="f"><use transform="matrix(0.15432098765432098,0,0,0.15432098765432098,0,0)" xlink:href="#au"/><use transform="matrix(0.15432098765432098,0,0,0.15432098765432098,37.03703703703704,0)" xlink:href="#av"/><use transform="matrix(0.15432098765432098,0,0,0.15432098765432098,67.90123456790124,0)" xlink:href="#aw"/><use transform="matrix(0.15432098765432098,0,0,0.15432098765432098,107.87037037037038,0)" xlink:href="#ar"/><use transform="matrix(0.15432098765432098,0,0,0.15432098765432098,138.73456790123458,0)" xlink:href="#aj"/><use transform="matrix(0.15432098765432098,0,0,0.15432098765432098,157.0987654320988,0)" xlink:href="#av"/></g><g id="g"><use transform="matrix(0.15432098765432098,0,0,0.15432098765432098,0,0)" xlink:href="#ag"/><use transform="matrix(0.15432098765432098,0,0,0.15432098765432098,15.432098765432098,0)" xlink:href="#ah"/><use transform="matrix(0.15432098765432098,0,0,0.15432098765432098,52.46913580246914,0)" xlink:href="#ai"/><use transform="matrix(0.15432098765432098,0,0,0.15432098765432098,83.33333333333334,0)" xlink:href="#aj"/><use transform="matrix(0.15432098765432098,0,0,0.15432098765432098,101.69753086419755,0)" xlink:href="#ak"/><use transform="matrix(0.15432098765432098,0,0,0.15432098765432098,129.47530864197532,0)" xlink:href="#ae"/><use transform="matrix(0.15432098765432098,0,0,0.15432098765432098,160.33950617283952,0)" xlink:href="#al"/><use transform="matrix(0.15432098765432098,0,0,0.15432098765432098,191.20370370370372,0)" xlink:href="#am"/></g><path d="M30-248c118-7 216 8 213 122C240-48 200 0 122 0H30v-248zM63-27c89 8 146-16 146-99s-60-101-146-95v194" id="ax"/><path d="M24 0v-261h32V0H24" id="ay"/><path d="M179-190L93 31C79 59 56 82 12 73V49c39 6 53-20 64-50L1-190h34L92-34l54-156h33" id="az"/><g id="h"><use transform="matrix(0.15432098765432098,0,0,0.15432098765432098,0,0)" xlink:href="#ax"/><use transform="matrix(0.15432098765432098,0,0,0.15432098765432098,39.96913580246913,0)" xlink:href="#ai"/><use transform="matrix(0.15432098765432098,0,0,0.15432098765432098,70.83333333333333,0)" xlink:href="#ay"/><use transform="matrix(0.15432098765432098,0,0,0.15432098765432098,83.02469135802468,0)" xlink:href="#at"/><use transform="matrix(0.15432098765432098,0,0,0.15432098765432098,95.21604938271605,0)" xlink:href="#ai"/><use transform="matrix(0.15432098765432098,0,0,0.15432098765432098,126.08024691358023,0)" xlink:href="#aj"/><use transform="matrix(0.15432098765432098,0,0,0.15432098765432098,144.44444444444443,0)" xlink:href="#az"/></g><path d="M63-220v92h138v28H63V0H30v-248h175v28H63" id="aA"/><g id="i"><use transform="matrix(0.10457516339869281,0,0,0.10457516339869281,0,0)" xlink:href="#aA"/><use transform="matrix(0.10457516339869281,0,0,0.10457516339869281,22.90196078431373,0)" xlink:href="#ar"/><use transform="matrix(0.10457516339869281,0,0,0.10457516339869281,43.816993464052295,0)" xlink:href="#aj"/><use transform="matrix(0.10457516339869281,0,0,0.10457516339869281,56.26143790849673,0)" xlink:href="#ap"/><use transform="matrix(0.10457516339869281,0,0,0.10457516339869281,87.52941176470588,0)" xlink:href="#ar"/><use transform="matrix(0.10457516339869281,0,0,0.10457516339869281,108.44444444444444,0)" xlink:href="#ad"/><use transform="matrix(0.10457516339869281,0,0,0.10457516339869281,127.26797385620918,0)" xlink:href="#az"/><use transform="matrix(0.10457516339869281,0,0,0.10457516339869281,146.09150326797385,0)" xlink:href="#aA"/><use transform="matrix(0.10457516339869281,0,0,0.10457516339869281,168.99346405228758,0)" xlink:href="#ae"/><use transform="matrix(0.10457516339869281,0,0,0.10457516339869281,189.90849673202615,0)" xlink:href="#ae"/><use transform="matrix(0.10457516339869281,0,0,0.10457516339869281,210.82352941176472,0)" xlink:href="#av"/></g><path d="M101-234c-31-9-42 10-38 44h38v23H63V0H32v-167H5v-23h27c-7-52 17-82 69-68v24" id="aB"/><g id="j"><use transform="matrix(0.10457516339869281,0,0,0.10457516339869281,0,0)" xlink:href="#ag"/><use transform="matrix(0.10457516339869281,0,0,0.10457516339869281,10.457516339869281,0)" xlink:href="#ac"/><use transform="matrix(0.10457516339869281,0,0,0.10457516339869281,35.55555555555556,0)" xlink:href="#ae"/><use transform="matrix(0.10457516339869281,0,0,0.10457516339869281,56.470588235294116,0)" xlink:href="#aB"/><use transform="matrix(0.10457516339869281,0,0,0.10457516339869281,66.9281045751634,0)" xlink:href="#af"/><use transform="matrix(0.10457516339869281,0,0,0.10457516339869281,77.38562091503269,0)" xlink:href="#aw"/><use transform="matrix(0.10457516339869281,0,0,0.10457516339869281,104.47058823529413,0)" xlink:href="#ar"/><use transform="matrix(0.10457516339869281,0,0,0.10457516339869281,125.38562091503269,0)" xlink:href="#aj"/><use transform="matrix(0.10457516339869281,0,0,0.10457516339869281,137.83006535947715,0)" xlink:href="#ai"/></g><g id="k"><use transform="matrix(0.10457516339869281,0,0,0.10457516339869281,0,0)" xlink:href="#ac"/><use transform="matrix(0.10457516339869281,0,0,0.10457516339869281,25.098039215686278,0)" xlink:href="#az"/><use transform="matrix(0.10457516339869281,0,0,0.10457516339869281,43.92156862745098,0)" xlink:href="#ak"/><use transform="matrix(0.10457516339869281,0,0,0.10457516339869281,62.74509803921569,0)" xlink:href="#af"/><use transform="matrix(0.10457516339869281,0,0,0.10457516339869281,73.20261437908498,0)" xlink:href="#ai"/><use transform="matrix(0.10457516339869281,0,0,0.10457516339869281,94.11764705882354,0)" xlink:href="#ap"/><use transform="matrix(0.10457516339869281,0,0,0.10457516339869281,125.38562091503269,0)" xlink:href="#am"/></g><path d="M177-190C167-65 218 103 67 71c-23-6-38-20-44-43l32-5c15 47 100 32 89-28v-30C133-14 115 1 83 1 29 1 15-40 15-95c0-56 16-97 71-98 29-1 48 16 59 35 1-10 0-23 2-32h30zM94-22c36 0 50-32 50-73 0-42-14-75-50-75-39 0-46 34-46 75s6 73 46 73" id="aC"/><g id="m"><use transform="matrix(0.10457516339869281,0,0,0.10457516339869281,0,0)" xlink:href="#aq"/><use transform="matrix(0.10457516339869281,0,0,0.10457516339869281,31.267973856209153,0)" xlink:href="#ar"/><use transform="matrix(0.10457516339869281,0,0,0.10457516339869281,52.18300653594772,0)" xlink:href="#al"/><use transform="matrix(0.10457516339869281,0,0,0.10457516339869281,73.09803921568628,0)" xlink:href="#ar"/><use transform="matrix(0.10457516339869281,0,0,0.10457516339869281,94.01307189542484,0)" xlink:href="#aC"/><use transform="matrix(0.10457516339869281,0,0,0.10457516339869281,114.92810457516343,0)" xlink:href="#at"/><use transform="matrix(0.10457516339869281,0,0,0.10457516339869281,123.18954248366016,0)" xlink:href="#al"/><use transform="matrix(0.10457516339869281,0,0,0.10457516339869281,144.10457516339872,0)" xlink:href="#aC"/></g><path d="M68-38c1 34 0 65-14 84H32c9-13 17-26 17-46H33v-38h35" id="aD"/><g id="n"><use transform="matrix(0.10457516339869281,0,0,0.10457516339869281,0,0)" xlink:href="#an"/><use transform="matrix(0.10457516339869281,0,0,0.10457516339869281,27.084967320261438,0)" xlink:href="#ao"/><use transform="matrix(0.10457516339869281,0,0,0.10457516339869281,48.00000000000001,0)" xlink:href="#ak"/><use transform="matrix(0.10457516339869281,0,0,0.10457516339869281,66.82352941176471,0)" xlink:href="#af"/><use transform="matrix(0.10457516339869281,0,0,0.10457516339869281,77.281045751634,0)" xlink:href="#ae"/><use transform="matrix(0.10457516339869281,0,0,0.10457516339869281,98.19607843137256,0)" xlink:href="#ap"/><use transform="matrix(0.10457516339869281,0,0,0.10457516339869281,129.46405228758172,0)" xlink:href="#ai"/><use transform="matrix(0.10457516339869281,0,0,0.10457516339869281,150.3790849673203,0)" xlink:href="#aj"/><use transform="matrix(0.10457516339869281,0,0,0.10457516339869281,160.73202614379088,0)" xlink:href="#aD"/></g><path d="M140-251c81 0 123 46 123 126C263-46 219 4 140 4 59 4 17-45 17-125s42-126 123-126zm0 227c63 0 89-41 89-101s-29-99-89-99c-61 0-89 39-89 99S79-25 140-24" id="aE"/><g id="o"><use transform="matrix(0.10457516339869281,0,0,0.10457516339869281,0,0)" xlink:href="#aE"/><use transform="matrix(0.10457516339869281,0,0,0.10457516339869281,29.28104575163399,0)" xlink:href="#aj"/><use transform="matrix(0.10457516339869281,0,0,0.10457516339869281,41.72549019607843,0)" xlink:href="#av"/><use transform="matrix(0.10457516339869281,0,0,0.10457516339869281,62.640522875817,0)" xlink:href="#ai"/><use transform="matrix(0.10457516339869281,0,0,0.10457516339869281,83.55555555555557,0)" xlink:href="#aj"/><use transform="matrix(0.10457516339869281,0,0,0.10457516339869281,93.90849673202617,0)" xlink:href="#aD"/></g><path d="M33 0v-248h34V0H33" id="aF"/><path d="M108 0H70L1-190h34L89-25l56-165h34" id="aG"/><g id="p"><use transform="matrix(0.10457516339869281,0,0,0.10457516339869281,0,0)" xlink:href="#aF"/><use transform="matrix(0.10457516339869281,0,0,0.10457516339869281,10.457516339869281,0)" xlink:href="#al"/><use transform="matrix(0.10457516339869281,0,0,0.10457516339869281,31.372549019607845,0)" xlink:href="#aG"/><use transform="matrix(0.10457516339869281,0,0,0.10457516339869281,50.196078431372555,0)" xlink:href="#ai"/><use transform="matrix(0.10457516339869281,0,0,0.10457516339869281,71.11111111111111,0)" xlink:href="#al"/><use transform="matrix(0.10457516339869281,0,0,0.10457516339869281,92.02614379084967,0)" xlink:href="#af"/><use transform="matrix(0.10457516339869281,0,0,0.10457516339869281,102.48366013071896,0)" xlink:href="#ae"/><use transform="matrix(0.10457516339869281,0,0,0.10457516339869281,123.39869281045752,0)" xlink:href="#aj"/><use transform="matrix(0.10457516339869281,0,0,0.10457516339869281,135.84313725490196,0)" xlink:href="#az"/></g><g id="q"><use transform="matrix(0.10457516339869281,0,0,0.10457516339869281,0,0)" xlink:href="#ac"/><use transform="matrix(0.10457516339869281,0,0,0.10457516339869281,25.098039215686278,0)" xlink:href="#ap"/><use transform="matrix(0.10457516339869281,0,0,0.10457516339869281,56.36601307189542,0)" xlink:href="#ar"/><use transform="matrix(0.10457516339869281,0,0,0.10457516339869281,77.281045751634,0)" xlink:href="#aj"/><use transform="matrix(0.10457516339869281,0,0,0.10457516339869281,89.72549019607845,0)" xlink:href="#af"/><use transform="matrix(0.10457516339869281,0,0,0.10457516339869281,100.18300653594773,0)" xlink:href="#aA"/><use transform="matrix(0.10457516339869281,0,0,0.10457516339869281,123.08496732026147,0)" xlink:href="#aj"/><use transform="matrix(0.10457516339869281,0,0,0.10457516339869281,135.5294117647059,0)" xlink:href="#at"/><use transform="matrix(0.10457516339869281,0,0,0.10457516339869281,143.79084967320264,0)" xlink:href="#av"/><use transform="matrix(0.10457516339869281,0,0,0.10457516339869281,164.70588235294122,0)" xlink:href="#aC"/><use transform="matrix(0.10457516339869281,0,0,0.10457516339869281,185.6209150326798,0)" xlink:href="#ai"/></g><path d="M197 0v-115H63V0H30v-248h33v105h134v-105h34V0h-34" id="aH"/><g id="r"><use transform="matrix(0.10457516339869281,0,0,0.10457516339869281,0,0)" xlink:href="#ag"/><use transform="matrix(0.10457516339869281,0,0,0.10457516339869281,10.457516339869281,0)" xlink:href="#aH"/><use transform="matrix(0.10457516339869281,0,0,0.10457516339869281,37.54248366013073,0)" xlink:href="#ar"/><use transform="matrix(0.10457516339869281,0,0,0.10457516339869281,58.457516339869294,0)" xlink:href="#aj"/><use transform="matrix(0.10457516339869281,0,0,0.10457516339869281,70.90196078431374,0)" xlink:href="#av"/><use transform="matrix(0.10457516339869281,0,0,0.10457516339869281,91.8169934640523,0)" xlink:href="#aw"/><use transform="matrix(0.10457516339869281,0,0,0.10457516339869281,118.90196078431376,0)" xlink:href="#ar"/><use transform="matrix(0.10457516339869281,0,0,0.10457516339869281,139.8169934640523,0)" xlink:href="#aj"/><use transform="matrix(0.10457516339869281,0,0,0.10457516339869281,152.26143790849676,0)" xlink:href="#ai"/></g><g id="s"><use transform="matrix(0.10457516339869281,0,0,0.10457516339869281,0,0)" xlink:href="#ak"/><use transform="matrix(0.10457516339869281,0,0,0.10457516339869281,18.823529411764707,0)" xlink:href="#az"/><use transform="matrix(0.10457516339869281,0,0,0.10457516339869281,37.64705882352941,0)" xlink:href="#ak"/><use transform="matrix(0.10457516339869281,0,0,0.10457516339869281,56.470588235294116,0)" xlink:href="#af"/><use transform="matrix(0.10457516339869281,0,0,0.10457516339869281,66.9281045751634,0)" xlink:href="#ai"/><use transform="matrix(0.10457516339869281,0,0,0.10457516339869281,87.84313725490196,0)" xlink:href="#ap"/><use transform="matrix(0.10457516339869281,0,0,0.10457516339869281,119.11111111111114,0)" xlink:href="#am"/></g><path d="M106-169C34-169 62-67 57 0H25v-261h32l-1 103c12-21 28-36 61-36 89 0 53 116 60 194h-32v-121c2-32-8-49-39-48" id="aI"/><path d="M9 0v-24l116-142H16v-24h144v24L44-24h123V0H9" id="aJ"/><g id="t"><use transform="matrix(0.10457516339869281,0,0,0.10457516339869281,0,0)" xlink:href="#ar"/><use transform="matrix(0.10457516339869281,0,0,0.10457516339869281,20.915032679738562,0)" xlink:href="#ao"/><use transform="matrix(0.10457516339869281,0,0,0.10457516339869281,41.830065359477125,0)" xlink:href="#af"/><use transform="matrix(0.10457516339869281,0,0,0.10457516339869281,52.28758169934641,0)" xlink:href="#aI"/><use transform="matrix(0.10457516339869281,0,0,0.10457516339869281,73.20261437908498,0)" xlink:href="#ae"/><use transform="matrix(0.10457516339869281,0,0,0.10457516339869281,94.11764705882354,0)" xlink:href="#aj"/><use transform="matrix(0.10457516339869281,0,0,0.10457516339869281,106.56209150326798,0)" xlink:href="#at"/><use transform="matrix(0.10457516339869281,0,0,0.10457516339869281,114.82352941176474,0)" xlink:href="#aJ"/><use transform="matrix(0.10457516339869281,0,0,0.10457516339869281,133.64705882352942,0)" xlink:href="#ar"/><use transform="matrix(0.10457516339869281,0,0,0.10457516339869281,154.562091503268,0)" xlink:href="#af"/><use transform="matrix(0.10457516339869281,0,0,0.10457516339869281,165.01960784313727,0)" xlink:href="#at"/><use transform="matrix(0.10457516339869281,0,0,0.10457516339869281,173.28104575163403,0)" xlink:href="#ae"/><use transform="matrix(0.10457516339869281,0,0,0.10457516339869281,194.19607843137257,0)" xlink:href="#al"/></g><use transform="matrix(0.10457516339869281,0,0,0.10457516339869281,0,0)" xlink:href="#aD" id="u"/><path d="M115-194c55 1 70 41 70 98S169 2 115 4C84 4 66-9 55-30l1 105H24l-1-265h31l2 30c10-21 28-34 59-34zm-8 174c40 0 45-34 45-75s-6-73-45-74c-42 0-51 32-51 76 0 43 10 73 51 73" id="aK"/><g id="v"><use transform="matrix(0.10457516339869281,0,0,0.10457516339869281,0,0)" xlink:href="#ao"/><use transform="matrix(0.10457516339869281,0,0,0.10457516339869281,20.915032679738562,0)" xlink:href="#aK"/><use transform="matrix(0.10457516339869281,0,0,0.10457516339869281,41.830065359477125,0)" xlink:href="#av"/><use transform="matrix(0.10457516339869281,0,0,0.10457516339869281,62.74509803921569,0)" xlink:href="#ar"/><use transform="matrix(0.10457516339869281,0,0,0.10457516339869281,83.66013071895425,0)" xlink:href="#af"/><use transform="matrix(0.10457516339869281,0,0,0.10457516339869281,94.11764705882354,0)" xlink:href="#ai"/></g><g id="w"><use transform="matrix(0.10457516339869281,0,0,0.10457516339869281,0,0)" xlink:href="#at"/><use transform="matrix(0.10457516339869281,0,0,0.10457516339869281,8.261437908496733,0)" xlink:href="#al"/><use transform="matrix(0.10457516339869281,0,0,0.10457516339869281,29.176470588235293,0)" xlink:href="#aG"/><use transform="matrix(0.10457516339869281,0,0,0.10457516339869281,48,0)" xlink:href="#ai"/><use transform="matrix(0.10457516339869281,0,0,0.10457516339869281,68.91503267973857,0)" xlink:href="#al"/><use transform="matrix(0.10457516339869281,0,0,0.10457516339869281,89.83006535947713,0)" xlink:href="#af"/><use transform="matrix(0.10457516339869281,0,0,0.10457516339869281,100.28758169934642,0)" xlink:href="#ae"/><use transform="matrix(0.10457516339869281,0,0,0.10457516339869281,121.20261437908498,0)" xlink:href="#aj"/><use transform="matrix(0.10457516339869281,0,0,0.10457516339869281,133.64705882352942,0)" xlink:href="#az"/></g><path fill="#333" d="M240-174c0 40-23 61-54 70L253 0h-59l-57-94H76V0H24v-248c93 4 217-23 216 74zM76-134c48-2 112 12 112-38 0-48-66-32-112-35v73" id="aL"/><path fill="#333" d="M185-48c-13 30-37 53-82 52C43 2 14-33 14-96s30-98 90-98c62 0 83 45 84 108H66c0 31 8 55 39 56 18 0 30-7 34-22zm-45-69c5-46-57-63-70-21-2 6-4 13-4 21h74" id="aM"/><path fill="#333" d="M137-138c1-29-70-34-71-4 15 46 118 7 119 86 1 83-164 76-172 9l43-7c4 19 20 25 44 25 33 8 57-30 24-41C81-84 22-81 20-136c-2-80 154-74 161-7" id="aN"/><path fill="#333" d="M115-3C79 11 28 4 28-45v-112H4v-33h27l15-45h31v45h36v33H77v99c-1 23 16 31 38 25v30" id="aO"/><path fill="#333" d="M110-194c64 0 96 36 96 99 0 64-35 99-97 99-61 0-95-36-95-99 0-62 34-99 96-99zm-1 164c35 0 45-28 45-65 0-40-10-65-43-65-34 0-45 26-45 65 0 36 10 65 43 65" id="aP"/><path fill="#333" d="M190-63c-7 42-38 67-86 67-59 0-84-38-90-98-12-110 154-137 174-36l-49 2c-2-19-15-32-35-32-30 0-35 28-38 64-6 74 65 87 74 30" id="aQ"/><path fill="#333" d="M147 0L96-86 75-71V0H25v-261h50v150l67-79h53l-66 74L201 0h-54" id="aR"/><g id="x"><use transform="matrix(0.0925925925925926,0,0,0.0925925925925926,0,0)" xlink:href="#aL"/><use transform="matrix(0.0925925925925926,0,0,0.0925925925925926,23.981481481481485,0)" xlink:href="#aM"/><use transform="matrix(0.0925925925925926,0,0,0.0925925925925926,42.5,0)" xlink:href="#aN"/><use transform="matrix(0.0925925925925926,0,0,0.0925925925925926,61.018518518518526,0)" xlink:href="#aO"/><use transform="matrix(0.0925925925925926,0,0,0.0925925925925926,72.03703703703704,0)" xlink:href="#aP"/><use transform="matrix(0.0925925925925926,0,0,0.0925925925925926,92.31481481481481,0)" xlink:href="#aQ"/><use transform="matrix(0.0925925925925926,0,0,0.0925925925925926,110.83333333333333,0)" xlink:href="#aR"/></g><g id="y"><use transform="matrix(0.0925925925925926,0,0,0.0925925925925926,0,0)" xlink:href="#aL"/><use transform="matrix(0.0925925925925926,0,0,0.0925925925925926,23.981481481481485,0)" xlink:href="#aM"/><use transform="matrix(0.0925925925925926,0,0,0.0925925925925926,42.5,0)" xlink:href="#aN"/><use transform="matrix(0.0925925925925926,0,0,0.0925925925925926,61.018518518518526,0)" xlink:href="#aO"/><use transform="matrix(0.0925925925925926,0,0,0.0925925925925926,72.03703703703704,0)" xlink:href="#aP"/><use transform="matrix(0.0925925925925926,0,0,0.0925925925925926,92.31481481481481,0)" xlink:href="#aQ"/><use transform="matrix(0.0925925925925926,0,0,0.0925925925925926,110.83333333333333,0)" xlink:href="#aR"/></g><path fill="#333" d="M25-224v-37h50v37H25zM25 0v-190h50V0H25" id="aS"/><path fill="#333" d="M135-194c87-1 58 113 63 194h-50c-7-57 23-157-34-157-59 0-34 97-39 157H25l-1-190h47c2 12-1 28 3 38 12-26 28-41 61-42" id="aT"/><path fill="#333" d="M135-150c-39-12-60 13-60 57V0H25l-1-190h47c2 13-1 29 3 40 6-28 27-53 61-41v41" id="aU"/><path fill="#333" d="M85 4C-2 5 27-109 22-190h50c7 57-23 150 33 157 60-5 35-97 40-157h50l1 190h-47c-2-12 1-28-3-38-12 25-28 42-61 42" id="aV"/><g id="z"><use transform="matrix(0.0925925925925926,0,0,0.0925925925925926,0,0)" xlink:href="#aS"/><use transform="matrix(0.0925925925925926,0,0,0.0925925925925926,9.25925925925926,0)" xlink:href="#aT"/><use transform="matrix(0.0925925925925926,0,0,0.0925925925925926,29.537037037037038,0)" xlink:href="#aN"/><use transform="matrix(0.0925925925925926,0,0,0.0925925925925926,48.05555555555556,0)" xlink:href="#aO"/><use transform="matrix(0.0925925925925926,0,0,0.0925925925925926,59.074074074074076,0)" xlink:href="#aU"/><use transform="matrix(0.0925925925925926,0,0,0.0925925925925926,72.03703703703704,0)" xlink:href="#aV"/><use transform="matrix(0.0925925925925926,0,0,0.0925925925925926,92.31481481481481,0)" xlink:href="#aQ"/><use transform="matrix(0.0925925925925926,0,0,0.0925925925925926,110.83333333333333,0)" xlink:href="#aO"/><use transform="matrix(0.0925925925925926,0,0,0.0925925925925926,121.85185185185185,0)" xlink:href="#aS"/><use transform="matrix(0.0925925925925926,0,0,0.0925925925925926,131.11111111111111,0)" xlink:href="#aP"/><use transform="matrix(0.0925925925925926,0,0,0.0925925925925926,151.38888888888889,0)" xlink:href="#aT"/></g><path fill="#333" d="M238-95c0 69-44 99-111 99C63 4 22-25 22-93v-155h51v151c-1 38 19 59 55 60 90 1 49-130 58-211h52v153" id="aW"/><path fill="#333" d="M135-194c53 0 70 44 70 98 0 56-19 98-73 100-31 1-45-17-59-34 3 33 2 69 2 105H25l-1-265h48c2 10 0 23 3 31 11-24 29-35 60-35zM114-30c33 0 39-31 40-66 0-38-9-64-40-64-56 0-55 130 0 130" id="aX"/><path fill="#333" d="M88-194c31-1 46 15 58 34l-1-101h50l1 261h-48c-2-10 0-23-3-31C134-8 116 4 84 4 32 4 16-41 15-95c0-56 19-97 73-99zm17 164c33 0 40-30 41-66 1-37-9-64-41-64s-38 30-39 65c0 43 13 65 39 65" id="aY"/><path fill="#333" d="M133-34C117-15 103 5 69 4 32 3 11-16 11-54c-1-60 55-63 116-61 1-26-3-47-28-47-18 1-26 9-28 27l-52-2c7-38 36-58 82-57s74 22 75 68l1 82c-1 14 12 18 25 15v27c-30 8-71 5-69-32zm-48 3c29 0 43-24 42-57-32 0-66-3-65 30 0 17 8 27 23 27" id="aZ"/><g id="A"><use transform="matrix(0.0925925925925926,0,0,0.0925925925925926,0,0)" xlink:href="#aW"/><use transform="matrix(0.0925925925925926,0,0,0.0925925925925926,23.981481481481485,0)" xlink:href="#aX"/><use transform="matrix(0.0925925925925926,0,0,0.0925925925925926,44.25925925925927,0)" xlink:href="#aY"/><use transform="matrix(0.0925925925925926,0,0,0.0925925925925926,64.53703703703704,0)" xlink:href="#aZ"/><use transform="matrix(0.0925925925925926,0,0,0.0925925925925926,83.05555555555556,0)" xlink:href="#aO"/><use transform="matrix(0.0925925925925926,0,0,0.0925925925925926,94.07407407407408,0)" xlink:href="#aM"/></g><path fill="#333" d="M24 0v-248h52V0H24" id="ba"/><path fill="#333" d="M128 0H69L1-190h53L99-40l48-150h52" id="bb"/><path fill="#333" d="M123 10C108 53 80 86 19 72V37c35 8 53-11 59-39L3-190h52l48 148c12-52 28-100 44-148h51" id="bc"/><g id="B"><use transform="matrix(0.0925925925925926,0,0,0.0925925925925926,0,0)" xlink:href="#ba"/><use transform="matrix(0.0925925925925926,0,0,0.0925925925925926,9.25925925925926,0)" xlink:href="#aT"/><use transform="matrix(0.0925925925925926,0,0,0.0925925925925926,29.537037037037038,0)" xlink:href="#bb"/><use transform="matrix(0.0925925925925926,0,0,0.0925925925925926,48.05555555555556,0)" xlink:href="#aM"/><use transform="matrix(0.0925925925925926,0,0,0.0925925925925926,66.57407407407408,0)" xlink:href="#aT"/><use transform="matrix(0.0925925925925926,0,0,0.0925925925925926,86.85185185185185,0)" xlink:href="#aO"/><use transform="matrix(0.0925925925925926,0,0,0.0925925925925926,97.87037037037035,0)" xlink:href="#aP"/><use transform="matrix(0.0925925925925926,0,0,0.0925925925925926,118.14814814814815,0)" xlink:href="#aU"/><use transform="matrix(0.0925925925925926,0,0,0.0925925925925926,131.11111111111111,0)" xlink:href="#bc"/></g><path fill="#333" d="M169-182c-1-43-94-46-97-3 18 66 151 10 154 114 3 95-165 93-204 36-6-8-10-19-12-30l50-8c3 46 112 56 116 5-17-69-150-10-154-114-4-87 153-88 188-35 5 8 8 18 10 28" id="bd"/><path fill="#333" d="M25 0v-261h50V0H25" id="be"/><g id="C"><use transform="matrix(0.09259259259259256,0,0,0.09259259259259256,0,0)" xlink:href="#bd"/><use transform="matrix(0.09259259259259256,0,0,0.09259259259259256,22.222222222222214,0)" xlink:href="#aM"/><use transform="matrix(0.09259259259259256,0,0,0.09259259259259256,40.740740740740726,0)" xlink:href="#be"/><use transform="matrix(0.09259259259259256,0,0,0.09259259259259256,49.999999999999986,0)" xlink:href="#aM"/><use transform="matrix(0.09259259259259256,0,0,0.09259259259259256,68.5185185185185,0)" xlink:href="#aQ"/><use transform="matrix(0.09259259259259256,0,0,0.09259259259259256,87.03703703703701,0)" xlink:href="#aO"/></g><path fill="#333" d="M140-251c80 0 125 45 125 126S219 4 139 4C58 4 15-44 15-125s44-126 125-126zm-1 214c52 0 73-35 73-88 0-50-21-86-72-86-52 0-73 35-73 86s22 88 72 88" id="bf"/><g id="D"><use transform="matrix(0.09259259259259256,0,0,0.09259259259259256,0,0)" xlink:href="#bf"/><use transform="matrix(0.09259259259259256,0,0,0.09259259259259256,25.925925925925917,0)" xlink:href="#aU"/><use transform="matrix(0.09259259259259256,0,0,0.09259259259259256,38.88888888888887,0)" xlink:href="#aY"/><use transform="matrix(0.09259259259259256,0,0,0.09259259259259256,59.16666666666664,0)" xlink:href="#aM"/><use transform="matrix(0.09259259259259256,0,0,0.09259259259259256,77.68518518518516,0)" xlink:href="#aU"/></g><g id="E"><use transform="matrix(0.09259259259259256,0,0,0.09259259259259256,0,0)" xlink:href="#aP"/><use transform="matrix(0.09259259259259256,0,0,0.09259259259259256,20.27777777777777,0)" xlink:href="#aT"/><use transform="matrix(0.09259259259259256,0,0,0.09259259259259256,40.55555555555554,0)" xlink:href="#be"/><use transform="matrix(0.09259259259259256,0,0,0.09259259259259256,49.814814814814795,0)" xlink:href="#aS"/><use transform="matrix(0.09259259259259256,0,0,0.09259259259259256,59.07407407407404,0)" xlink:href="#aT"/><use transform="matrix(0.09259259259259256,0,0,0.09259259259259256,79.35185185185182,0)" xlink:href="#aM"/></g><path fill="#333" d="M24-248c93 1 206-16 204 79-1 75-69 88-152 82V0H24v-248zm52 121c47 0 100 7 100-41 0-47-54-39-100-39v80" id="bg"/><g id="F"><use transform="matrix(0.0925925925925926,0,0,0.0925925925925926,0,0)" xlink:href="#bg"/><use transform="matrix(0.0925925925925926,0,0,0.0925925925925926,22.222222222222225,0)" xlink:href="#aS"/><use transform="matrix(0.0925925925925926,0,0,0.0925925925925926,31.481481481481485,0)" xlink:href="#aQ"/><use transform="matrix(0.0925925925925926,0,0,0.0925925925925926,50.00000000000001,0)" xlink:href="#aR"/></g><g id="G"><use transform="matrix(0.0925925925925926,0,0,0.0925925925925926,0,0)" xlink:href="#aV"/><use transform="matrix(0.0925925925925926,0,0,0.0925925925925926,20.27777777777778,0)" xlink:href="#aX"/></g><g id="H"><use transform="matrix(0.0925925925925926,0,0,0.0925925925925926,0,0)" xlink:href="#aZ"/><use transform="matrix(0.0925925925925926,0,0,0.0925925925925926,18.51851851851852,0)" xlink:href="#aT"/><use transform="matrix(0.0925925925925926,0,0,0.0925925925925926,38.7962962962963,0)" xlink:href="#aY"/></g><g id="I"><use transform="matrix(0.0925925925925926,0,0,0.0925925925925926,0,0)" xlink:href="#bg"/><use transform="matrix(0.0925925925925926,0,0,0.0925925925925926,22.222222222222225,0)" xlink:href="#aZ"/><use transform="matrix(0.0925925925925926,0,0,0.0925925925925926,40.74074074074075,0)" xlink:href="#bc"/></g><path fill="#333" d="M220-157c-53 9-28 100-34 157h-49v-107c1-27-5-49-29-50C55-147 81-57 75 0H25l-1-190h47c2 12-1 28 3 38 10-53 101-56 108 0 13-22 24-43 59-42 82 1 51 116 57 194h-49v-107c-1-25-5-48-29-50" id="bh"/><path fill="#333" d="M12 0v-35l95-120H19v-35h142v35L67-36h103V0H12" id="bi"/><g id="J"><use transform="matrix(0.09259259259259256,0,0,0.09259259259259256,0,0)" xlink:href="#aQ"/><use transform="matrix(0.09259259259259256,0,0,0.09259259259259256,18.518518518518512,0)" xlink:href="#aV"/><use transform="matrix(0.09259259259259256,0,0,0.09259259259259256,38.79629629629628,0)" xlink:href="#aN"/><use transform="matrix(0.09259259259259256,0,0,0.09259259259259256,57.314814814814795,0)" xlink:href="#aO"/><use transform="matrix(0.09259259259259256,0,0,0.09259259259259256,68.33333333333331,0)" xlink:href="#aP"/><use transform="matrix(0.09259259259259256,0,0,0.09259259259259256,88.61111111111109,0)" xlink:href="#bh"/><use transform="matrix(0.09259259259259256,0,0,0.09259259259259256,118.2407407407407,0)" xlink:href="#aS"/><use transform="matrix(0.09259259259259256,0,0,0.09259259259259256,127.49999999999996,0)" xlink:href="#bi"/><use transform="matrix(0.09259259259259256,0,0,0.09259259259259256,144.16666666666663,0)" xlink:href="#aM"/></g><path fill="#333" d="M135-194c52 0 70 43 70 98 0 56-19 99-73 100-30 1-46-15-58-35L72 0H24l1-261h50v104c11-23 29-37 60-37zM114-30c31 0 40-27 40-66 0-37-7-63-39-63s-41 28-41 65c0 36 8 64 40 64" id="bj"/><g id="K"><use transform="matrix(0.09259259259259256,0,0,0.09259259259259256,0,0)" xlink:href="#aN"/><use transform="matrix(0.09259259259259256,0,0,0.09259259259259256,18.518518518518512,0)" xlink:href="#aV"/><use transform="matrix(0.09259259259259256,0,0,0.09259259259259256,38.79629629629628,0)" xlink:href="#bj"/><use transform="matrix(0.09259259259259256,0,0,0.09259259259259256,59.074074074074055,0)" xlink:href="#aN"/><use transform="matrix(0.09259259259259256,0,0,0.09259259259259256,77.59259259259257,0)" xlink:href="#aQ"/><use transform="matrix(0.09259259259259256,0,0,0.09259259259259256,96.11111111111107,0)" xlink:href="#aU"/><use transform="matrix(0.09259259259259256,0,0,0.09259259259259256,109.07407407407406,0)" xlink:href="#aS"/><use transform="matrix(0.09259259259259256,0,0,0.09259259259259256,118.33333333333329,0)" xlink:href="#aX"/><use transform="matrix(0.09259259259259256,0,0,0.09259259259259256,138.6111111111111,0)" xlink:href="#aO"/><use transform="matrix(0.09259259259259256,0,0,0.09259259259259256,149.6296296296296,0)" xlink:href="#aS"/><use transform="matrix(0.09259259259259256,0,0,0.09259259259259256,158.88888888888886,0)" xlink:href="#aP"/><use transform="matrix(0.09259259259259256,0,0,0.09259259259259256,179.16666666666663,0)" xlink:href="#aT"/></g><g id="L"><use transform="matrix(0.09259259259259256,0,0,0.09259259259259256,0,0)" xlink:href="#aX"/><use transform="matrix(0.09259259259259256,0,0,0.09259259259259256,20.27777777777777,0)" xlink:href="#be"/><use transform="matrix(0.09259259259259256,0,0,0.09259259259259256,29.537037037037027,0)" xlink:href="#aZ"/><use transform="matrix(0.09259259259259256,0,0,0.09259259259259256,48.055555555555536,0)" xlink:href="#aT"/></g><path fill="#333" d="M121-226c-27-7-43 5-38 36h38v33H83V0H34v-157H6v-33h28c-9-59 32-81 87-68v32" id="bk"/><g id="M"><use transform="matrix(0.09259259259259256,0,0,0.09259259259259256,0,0)" xlink:href="#bk"/><use transform="matrix(0.09259259259259256,0,0,0.09259259259259256,11.018518518518515,0)" xlink:href="#aP"/><use transform="matrix(0.09259259259259256,0,0,0.09259259259259256,31.296296296296283,0)" xlink:href="#aU"/></g><g id="N"><use transform="matrix(0.09259259259259256,0,0,0.09259259259259256,0,0)" xlink:href="#aQ"/><use transform="matrix(0.09259259259259256,0,0,0.09259259259259256,18.518518518518512,0)" xlink:href="#aV"/><use transform="matrix(0.09259259259259256,0,0,0.09259259259259256,38.79629629629628,0)" xlink:href="#aN"/><use transform="matrix(0.09259259259259256,0,0,0.09259259259259256,57.314814814814795,0)" xlink:href="#aO"/><use transform="matrix(0.09259259259259256,0,0,0.09259259259259256,68.33333333333331,0)" xlink:href="#aP"/><use transform="matrix(0.09259259259259256,0,0,0.09259259259259256,88.61111111111109,0)" xlink:href="#bh"/><use transform="matrix(0.09259259259259256,0,0,0.09259259259259256,118.2407407407407,0)" xlink:href="#aM"/><use transform="matrix(0.09259259259259256,0,0,0.09259259259259256,136.7592592592592,0)" xlink:href="#aU"/><use transform="matrix(0.09259259259259256,0,0,0.09259259259259256,149.72222222222217,0)" xlink:href="#aN"/></g><g id="O"><use transform="matrix(0.24691358024691357,0,0,0.24691358024691357,0,0)" xlink:href="#ac"/><use transform="matrix(0.24691358024691357,0,0,0.24691358024691357,59.25925925925925,0)" xlink:href="#az"/><use transform="matrix(0.24691358024691357,0,0,0.24691358024691357,103.7037037037037,0)" xlink:href="#ak"/><use transform="matrix(0.24691358024691357,0,0,0.24691358024691357,148.14814814814815,0)" xlink:href="#af"/><use transform="matrix(0.24691358024691357,0,0,0.24691358024691357,172.83950617283952,0)" xlink:href="#ai"/><use transform="matrix(0.24691358024691357,0,0,0.24691358024691357,222.22222222222223,0)" xlink:href="#ap"/></g><path d="M141 0L90-78 38 0H4l68-98-65-92h35l48 74 47-74h35l-64 92 68 98h-35" id="bl"/><g id="P"><use transform="matrix(0.24691358024691357,0,0,0.24691358024691357,0,0)" xlink:href="#an"/><use transform="matrix(0.24691358024691357,0,0,0.24691358024691357,63.95061728395061,0)" xlink:href="#ae"/><use transform="matrix(0.24691358024691357,0,0,0.24691358024691357,113.33333333333333,0)" xlink:href="#al"/><use transform="matrix(0.24691358024691357,0,0,0.24691358024691357,162.71604938271605,0)" xlink:href="#af"/><use transform="matrix(0.24691358024691357,0,0,0.24691358024691357,187.40740740740742,0)" xlink:href="#ai"/><use transform="matrix(0.24691358024691357,0,0,0.24691358024691357,236.79012345679013,0)" xlink:href="#bl"/><use transform="matrix(0.24691358024691357,0,0,0.24691358024691357,281.2345679012346,0)" xlink:href="#af"/></g><g id="Q"><use transform="matrix(0.24691358024691357,0,0,0.24691358024691357,0,0)" xlink:href="#ax"/><use transform="matrix(0.24691358024691357,0,0,0.24691358024691357,63.95061728395061,0)" xlink:href="#at"/><use transform="matrix(0.24691358024691357,0,0,0.24691358024691357,83.45679012345678,0)" xlink:href="#ar"/><use transform="matrix(0.24691358024691357,0,0,0.24691358024691357,132.8395061728395,0)" xlink:href="#aC"/><use transform="matrix(0.24691358024691357,0,0,0.24691358024691357,182.2222222222222,0)" xlink:href="#aj"/><use transform="matrix(0.24691358024691357,0,0,0.24691358024691357,211.6049382716049,0)" xlink:href="#ar"/><use transform="matrix(0.24691358024691357,0,0,0.24691358024691357,260.98765432098764,0)" xlink:href="#ap"/></g><path d="M205 0l-28-72H64L36 0H1l101-248h38L239 0h-34zm-38-99l-47-123c-12 45-31 82-46 123h93" id="bm"/><g id="R"><use transform="matrix(0.15432098765432098,0,0,0.15432098765432098,0,0)" xlink:href="#bm"/><use transform="matrix(0.15432098765432098,0,0,0.15432098765432098,37.03703703703704,0)" xlink:href="#ay"/><use transform="matrix(0.15432098765432098,0,0,0.15432098765432098,49.22839506172839,0)" xlink:href="#at"/><use transform="matrix(0.15432098765432098,0,0,0.15432098765432098,61.41975308641975,0)" xlink:href="#ad"/><use transform="matrix(0.15432098765432098,0,0,0.15432098765432098,89.19753086419753,0)" xlink:href="#ai"/></g><g id="S"><use transform="matrix(0.15432098765432098,0,0,0.15432098765432098,0,0)" xlink:href="#an"/><use transform="matrix(0.15432098765432098,0,0,0.15432098765432098,39.96913580246913,0)" xlink:href="#aI"/><use transform="matrix(0.15432098765432098,0,0,0.15432098765432098,70.83333333333333,0)" xlink:href="#ai"/><use transform="matrix(0.15432098765432098,0,0,0.15432098765432098,101.69753086419753,0)" xlink:href="#aB"/></g><path fill="#333" d="M67-125c0 53 21 87 73 88 37 1 54-22 65-47l45 17C233-25 199 4 140 4 58 4 20-42 15-125 8-235 124-281 211-232c18 10 29 29 36 50l-46 12c-8-25-30-41-62-41-52 0-71 34-72 86" id="bn"/><path fill="#333" d="M195-6C206 82 75 100 31 46c-4-6-6-13-8-21l49-6c3 16 16 24 34 25 40 0 42-37 40-79-11 22-30 35-61 35-53 0-70-43-70-97 0-56 18-96 73-97 30 0 46 14 59 34l2-30h47zm-90-29c32 0 41-27 41-63 0-35-9-62-40-62-32 0-39 29-40 63 0 36 9 62 39 62" id="bo"/><g id="T"><use transform="matrix(0.0925925925925926,0,0,0.0925925925925926,0,0)" xlink:href="#bn"/><use transform="matrix(0.0925925925925926,0,0,0.0925925925925926,23.981481481481485,0)" xlink:href="#aP"/><use transform="matrix(0.0925925925925926,0,0,0.0925925925925926,44.25925925925927,0)" xlink:href="#aP"/><use transform="matrix(0.0925925925925926,0,0,0.0925925925925926,64.53703703703704,0)" xlink:href="#aR"/><use transform="matrix(0.0925925925925926,0,0,0.0925925925925926,83.05555555555556,0)" xlink:href="#aS"/><use transform="matrix(0.0925925925925926,0,0,0.0925925925925926,92.31481481481481,0)" xlink:href="#aT"/><use transform="matrix(0.0925925925925926,0,0,0.0925925925925926,112.59259259259258,0)" xlink:href="#bo"/></g><g id="U"><use transform="matrix(0.0925925925925926,0,0,0.0925925925925926,0,0)" xlink:href="#aS"/><use transform="matrix(0.0925925925925926,0,0,0.0925925925925926,9.25925925925926,0)" xlink:href="#aT"/><use transform="matrix(0.0925925925925926,0,0,0.0925925925925926,29.537037037037038,0)" xlink:href="#aN"/><use transform="matrix(0.0925925925925926,0,0,0.0925925925925926,48.05555555555556,0)" xlink:href="#aO"/><use transform="matrix(0.0925925925925926,0,0,0.0925925925925926,59.074074074074076,0)" xlink:href="#aU"/><use transform="matrix(0.0925925925925926,0,0,0.0925925925925926,72.03703703703704,0)" xlink:href="#aV"/><use transform="matrix(0.0925925925925926,0,0,0.0925925925925926,92.31481481481481,0)" xlink:href="#aQ"/><use transform="matrix(0.0925925925925926,0,0,0.0925925925925926,110.83333333333333,0)" xlink:href="#aO"/><use transform="matrix(0.0925925925925926,0,0,0.0925925925925926,121.85185185185185,0)" xlink:href="#aS"/><use transform="matrix(0.0925925925925926,0,0,0.0925925925925926,131.11111111111111,0)" xlink:href="#aP"/><use transform="matrix(0.0925925925925926,0,0,0.0925925925925926,151.38888888888889,0)" xlink:href="#aT"/><use transform="matrix(0.0925925925925926,0,0,0.0925925925925926,171.66666666666666,0)" xlink:href="#aN"/></g><g id="V"><use transform="matrix(0.0925925925925926,0,0,0.0925925925925926,0,0)" xlink:href="#bg"/><use transform="matrix(0.0925925925925926,0,0,0.0925925925925926,22.222222222222225,0)" xlink:href="#aU"/><use transform="matrix(0.0925925925925926,0,0,0.0925925925925926,35.18518518518519,0)" xlink:href="#aP"/><use transform="matrix(0.0925925925925926,0,0,0.0925925925925926,55.46296296296297,0)" xlink:href="#aY"/><use transform="matrix(0.0925925925925926,0,0,0.0925925925925926,75.74074074074075,0)" xlink:href="#aV"/><use transform="matrix(0.0925925925925926,0,0,0.0925925925925926,96.01851851851853,0)" xlink:href="#aQ"/><use transform="matrix(0.0925925925925926,0,0,0.0925925925925926,114.53703703703705,0)" xlink:href="#aO"/><use transform="matrix(0.0925925925925926,0,0,0.0925925925925926,125.55555555555557,0)" xlink:href="#aS"/><use transform="matrix(0.0925925925925926,0,0,0.0925925925925926,134.81481481481484,0)" xlink:href="#aP"/><use transform="matrix(0.0925925925925926,0,0,0.0925925925925926,155.0925925925926,0)" xlink:href="#aT"/></g><g id="W"><use transform="matrix(0.0925925925925926,0,0,0.0925925925925926,0,0)" xlink:href="#aV"/><use transform="matrix(0.0925925925925926,0,0,0.0925925925925926,20.27777777777778,0)" xlink:href="#aX"/><use transform="matrix(0.0925925925925926,0,0,0.0925925925925926,40.55555555555556,0)" xlink:href="#aY"/><use transform="matrix(0.0925925925925926,0,0,0.0925925925925926,60.833333333333336,0)" xlink:href="#aZ"/><use transform="matrix(0.0925925925925926,0,0,0.0925925925925926,79.35185185185185,0)" xlink:href="#aO"/><use transform="matrix(0.0925925925925926,0,0,0.0925925925925926,90.37037037037037,0)" xlink:href="#aM"/><use transform="matrix(0.0925925925925926,0,0,0.0925925925925926,108.88888888888887,0)" xlink:href="#aN"/></g><path d="M160-131c35 5 61 23 61 61C221 17 115-2 30 0v-248c76 3 177-17 177 60 0 33-19 50-47 57zm-97-11c50-1 110 9 110-42 0-47-63-36-110-37v79zm0 115c55-2 124 14 124-45 0-56-70-42-124-44v89" id="bp"/><path d="M115-194c53 0 69 39 70 98 0 66-23 100-70 100C84 3 66-7 56-30L54 0H23l1-261h32v101c10-23 28-34 59-34zm-8 174c40 0 45-34 45-75 0-40-5-75-45-74-42 0-51 32-51 76 0 43 10 73 51 73" id="bq"/><g id="X"><use transform="matrix(0.15432098765432098,0,0,0.15432098765432098,0,0)" xlink:href="#bp"/><use transform="matrix(0.15432098765432098,0,0,0.15432098765432098,37.03703703703704,0)" xlink:href="#ar"/><use transform="matrix(0.15432098765432098,0,0,0.15432098765432098,67.90123456790124,0)" xlink:href="#aj"/><use transform="matrix(0.15432098765432098,0,0,0.15432098765432098,86.26543209876544,0)" xlink:href="#bq"/><use transform="matrix(0.15432098765432098,0,0,0.15432098765432098,117.12962962962965,0)" xlink:href="#ar"/><use transform="matrix(0.15432098765432098,0,0,0.15432098765432098,147.99382716049385,0)" xlink:href="#aj"/><use transform="matrix(0.15432098765432098,0,0,0.15432098765432098,166.35802469135805,0)" xlink:href="#ar"/></g><path fill="#333" d="M4 7l51-268h42L46 7H4" id="br"/><g id="Y"><use transform="matrix(0.0925925925925926,0,0,0.0925925925925926,0,0)" xlink:href="#bd"/><use transform="matrix(0.0925925925925926,0,0,0.0925925925925926,22.222222222222225,0)" xlink:href="#aZ"/><use transform="matrix(0.0925925925925926,0,0,0.0925925925925926,40.74074074074075,0)" xlink:href="#be"/><use transform="matrix(0.0925925925925926,0,0,0.0925925925925926,50.00000000000001,0)" xlink:href="#aM"/><use transform="matrix(0.0925925925925926,0,0,0.0925925925925926,68.51851851851853,0)" xlink:href="#aN"/><use transform="matrix(0.0925925925925926,0,0,0.0925925925925926,87.03703703703705,0)" xlink:href="#br"/><use transform="matrix(0.0925925925925926,0,0,0.0925925925925926,96.2962962962963,0)" xlink:href="#aL"/><use transform="matrix(0.0925925925925926,0,0,0.0925925925925926,120.27777777777779,0)" xlink:href="#aM"/><use transform="matrix(0.0925925925925926,0,0,0.0925925925925926,138.7962962962963,0)" xlink:href="#aN"/><use transform="matrix(0.0925925925925926,0,0,0.0925925925925926,157.31481481481484,0)" xlink:href="#aO"/><use transform="matrix(0.0925925925925926,0,0,0.0925925925925926,168.33333333333337,0)" xlink:href="#aP"/><use transform="matrix(0.0925925925925926,0,0,0.0925925925925926,188.61111111111114,0)" xlink:href="#aQ"/><use transform="matrix(0.0925925925925926,0,0,0.0925925925925926,207.1296296296297,0)" xlink:href="#aR"/><use transform="matrix(0.0925925925925926,0,0,0.0925925925925926,225.6481481481482,0)" xlink:href="#aS"/><use transform="matrix(0.0925925925925926,0,0,0.0925925925925926,234.90740740740748,0)" xlink:href="#aT"/><use transform="matrix(0.0925925925925926,0,0,0.0925925925925926,255.18518518518525,0)" xlink:href="#bo"/></g><path d="M153-248C145-148 188 4 80 4 36 3 13-21 6-62l32-5c4 25 16 42 43 43 27 0 39-20 39-49v-147H72v-28h81" id="bs"/><g id="Z"><use transform="matrix(0.15432098765432098,0,0,0.15432098765432098,0,0)" xlink:href="#bs"/><use transform="matrix(0.15432098765432098,0,0,0.15432098765432098,27.777777777777775,0)" xlink:href="#ai"/><use transform="matrix(0.15432098765432098,0,0,0.15432098765432098,58.641975308641975,0)" xlink:href="#al"/><use transform="matrix(0.15432098765432098,0,0,0.15432098765432098,89.50617283950619,0)" xlink:href="#al"/><use transform="matrix(0.15432098765432098,0,0,0.15432098765432098,120.37037037037038,0)" xlink:href="#at"/><use transform="matrix(0.15432098765432098,0,0,0.15432098765432098,132.56172839506175,0)" xlink:href="#aB"/><use transform="matrix(0.15432098765432098,0,0,0.15432098765432098,147.99382716049385,0)" xlink:href="#ai"/><use transform="matrix(0.15432098765432098,0,0,0.15432098765432098,178.85802469135805,0)" xlink:href="#aj"/></g><g id="aa"><use transform="matrix(0.0925925925925926,0,0,0.0925925925925926,0,0)" xlink:href="#bd"/><use transform="matrix(0.0925925925925926,0,0,0.0925925925925926,22.222222222222225,0)" xlink:href="#aV"/><use transform="matrix(0.0925925925925926,0,0,0.0925925925925926,42.5,0)" xlink:href="#bj"/><use transform="matrix(0.0925925925925926,0,0,0.0925925925925926,62.777777777777786,0)" xlink:href="#aN"/><use transform="matrix(0.0925925925925926,0,0,0.0925925925925926,81.2962962962963,0)" xlink:href="#aQ"/><use transform="matrix(0.0925925925925926,0,0,0.0925925925925926,99.81481481481482,0)" xlink:href="#aU"/><use transform="matrix(0.0925925925925926,0,0,0.0925925925925926,112.77777777777779,0)" xlink:href="#aS"/><use transform="matrix(0.0925925925925926,0,0,0.0925925925925926,122.03703703703705,0)" xlink:href="#bj"/><use transform="matrix(0.0925925925925926,0,0,0.0925925925925926,142.3148148148148,0)" xlink:href="#aM"/></g><g id="ab"><use transform="matrix(0.0925925925925926,0,0,0.0925925925925926,0,0)" xlink:href="#aV"/><use transform="matrix(0.0925925925925926,0,0,0.0925925925925926,20.27777777777778,0)" xlink:href="#aX"/></g></defs></g></svg>