<svg xmlns="http://www.w3.org/2000/svg" xmlns:xlink="http://www.w3.org/1999/xlink" xmlns:lucid="lucid" width="5230.07" height="3335.37"><g transform="translate(-1229.9335674320673 -13960.701712137732)" lucid:page-tab-id="6EyKp66hlyTw"><path d="M1000 13500h5500v4000H1000z" fill="#fff"/><path d="M1400 15287.4c0-3.3 2.7-6 6-6h3688c3.3 0 6 2.7 6 6v1982.67c0 3.3-2.7 6-6 6H1406c-3.3 0-6-2.7-6-6z" stroke="#000" stroke-width="9" fill="#fff" fill-opacity="0"/><use xlink:href="#a" transform="matrix(1,0,0,1,1405,15286.403424275464) translate(0 85.33333333333334)"/><use xlink:href="#b" transform="matrix(1,0,0,1,1405,15286.403424275464) translate(490.962962962963 85.33333333333334)"/><path d="M1620 16438.3c0-3.3 2.7-6 6-6h1486.94c3.3 0 6 2.7 6 6v647.13c0 3.3-2.7 6-6 6H1626c-3.3 0-6-2.7-6-6z" stroke="#000" stroke-width="9" fill="#fff" fill-opacity="0"/><use xlink:href="#c" transform="matrix(1,0,0,1,1625,16437.311085528065) translate(0 85.33333333333334)"/><path d="M3420 16474.57c0-3.3 2.7-6 6-6h1454c3.3 0 6 2.7 6 6v610.86c0 3.3-2.7 6-6 6H3426c-3.3 0-6-2.7-6-6z" stroke="#000" stroke-width="9" fill="#fff" fill-opacity="0"/><use xlink:href="#d" transform="matrix(1,0,0,1,3425.0000000000005,16473.57306133665) translate(0 85.33333333333334)"/><path d="M3420 15587.4c0-3.3 2.7-6 6-6h1428c3.3 0 6 2.7 6 6v688c0 3.32-2.7 6-6 6H3426c-3.3 0-6-2.68-6-6z" stroke="#000" stroke-width="9" fill="#fff" fill-opacity="0"/><use xlink:href="#a" transform="matrix(1,0,0,1,3425.0000000000005,15586.403424275464) translate(0 85.33333333333334)"/><use xlink:href="#e" transform="matrix(1,0,0,1,3425.0000000000005,15586.403424275464) translate(490.962962962963 85.33333333333334)"/><path d="M3790.57 15559.1" stroke="#5e5e5e" stroke-width="2" fill="none"/><path d="M3787.33 15559.1l-14.26 4.63v-9.27z" stroke="#5e5e5e" stroke-width="2" fill="#5e5e5e"/><path d="M5700 15366c0-3.3 2.7-6 6-6h728c3.3 0 6 2.7 6 6v375.7c0 3.3-2.7 6-6 6h-728c-3.3 0-6-2.7-6-6z" stroke="#000" stroke-width="9" fill="#fff" fill-opacity="0"/><use xlink:href="#f" transform="matrix(1,0,0,1,5705,15365) translate(229.49999999999997 209.36458333333334)"/><path d="M5660.16 15507.24l-6.73 1-9.6 1.82-9.34 2.2-9.15 2.55-9 2.93-8.87 3.3-8.82 3.7-8.8 4.15-8.83 4.62-8.9 5.14-9.04 5.74-9.24 6.42-9.5 7.2-9.86 8.17-10.34 9.32-10.98 10.75-11.86 12.64-13.12 15.2-15.08 19.07-18.7 25.8-29.4 44.5-79.45 124.75-18.7 25.8-15.07 19.05-13.12 15.22-11.86 12.63-10.98 10.76-10.34 9.3-9.86 8.17-9.5 7.2-9.23 6.43-9.03 5.74-8.9 5.14-8.83 4.62-8.8 4.14-8.82 3.7-8.88 3.3-9 2.93-9.13 2.56-9.33 2.2-9.6 1.82-6.74 1" stroke="#5e5e5e" stroke-width="10" fill="none"/><path d="M5679.35 15505.9l-13.9 5.62-.65-9.25zM5120.64 15981.27l13.9-5.6.65 9.24z" stroke="#5e5e5e" stroke-width="10" fill="#5e5e5e"/><path d="M2032.8 13996.85l3039.94 1270.76" stroke="#5e5e5e" stroke-width="5" fill="none"/><path d="M2033.83 13994.57l-1.93 4.6-1.4-.58v-5.43z" fill="#5e5e5e"/><path d="M5088.2 15274.07l-14.94-1.22 3.57-8.56z" stroke="#5e5e5e" stroke-width="5" fill="#5e5e5e"/><path d="M1256.18 14543.7l136.9 1402.35" stroke="#5e5e5e" stroke-width="5" fill="none"/><path d="M1255.93 14541.2h2.52l.22 2.3-4.98.5-.35-3.5z" fill="#5e5e5e"/><path d="M1394.7 15962.73l-6-13.75 9.24-.9z" stroke="#5e5e5e" stroke-width="5" fill="#5e5e5e"/><path d="M1250 13986.7c0-3.3 2.7-6 6-6h768c3.3 0 6 2.7 6 6v548c0 3.32-2.7 6-6 6h-768c-3.3 0-6-2.68-6-6z" stroke="#000" fill="#e5e5e5"/><use xlink:href="#g" transform="matrix(1,0,0,1,1262,13992.701712137732) translate(147.33333333333331 286.33333333333337)"/><path d="M2200 16008c0 28.72-111.93 52-250 52s-250-23.28-250-52v-416c0-28.72 111.93-52 250-52s250 23.28 250 52z" stroke="#000" stroke-width="9" fill="#fff"/><path d="M2200 15592c0 28.72-111.93 52-250 52s-250-23.28-250-52" stroke="#000" stroke-width="9" fill="none"/><use xlink:href="#h" transform="matrix(1,0,0,1,1705,15649) translate(89.14814814814815 161.45833333333334)"/><use xlink:href="#i" transform="matrix(1,0,0,1,1705,15649) translate(25.740740740740705 289.45833333333337)"/><path d="M2980 16008c0 28.72-111.93 52-250 52s-250-23.28-250-52v-416c0-28.72 111.93-52 250-52s250 23.28 250 52z" stroke="#000" stroke-width="9" fill="#fff"/><path d="M2980 15592c0 28.72-111.93 52-250 52s-250-23.28-250-52" stroke="#000" stroke-width="9" fill="none"/><use xlink:href="#j" transform="matrix(1,0,0,1,2485,15649) translate(14.333333333333314 161.45833333333334)"/><use xlink:href="#i" transform="matrix(1,0,0,1,2485,15649) translate(25.740740740740705 289.45833333333337)"/><path d="M5700 16046c0-3.3 2.7-6 6-6h728c3.3 0 6 2.7 6 6v375.7c0 3.3-2.7 6-6 6h-728c-3.3 0-6-2.7-6-6z" stroke="#000" stroke-width="9" fill="#fff" fill-opacity="0"/><use xlink:href="#k" transform="matrix(1,0,0,1,5705,16045) translate(102.38888888888886 144.39583333333334)"/><use xlink:href="#l" transform="matrix(1,0,0,1,5705,16045) translate(199.72222222222223 272.39583333333337)"/><path d="M5660.05 16185.5l-16.33.33-41.82 2.6-35.44 3.7-31.5 4.66-29.65 5.64-30.43 7.15-38.96 10.94-110.77 33.4-30.44 7.15-29.66 5.64-31.5 4.64-35.44 3.7-41.82 2.6-16.34.34" stroke="#5e5e5e" stroke-width="10" fill="none"/><path d="M5679.3 16185.12l-14.16 4.92-.18-9.27zM5120.68 16278.4l14.17-4.9.18 9.26z" stroke="#5e5e5e" stroke-width="10" fill="#5e5e5e"/><path d="M3410.5 15931.74l-1.33.2-1.57.3-1.57.36-1.58.44-1.6.52-1.62.6-1.65.7-1.7.8-1.72.9-1.78 1.03-1.85 1.16-1.9 1.34-2 1.5-2.1 1.75-2.2 2-2.35 2.28-2.5 2.65-2.65 3.1-2.88 3.62-3.12 4.3-3.42 5.16-3.77 6.25-4.22 7.7-4.75 9.62-5.47 12.3-6.4 16.2-7.65 22.07-9.54 31.77-12.77 50.1-21.05 100.68-65.67 347.65-12.75 50.1-9.55 31.78-7.65 22.08-6.4 16.2-5.46 12.3-4.78 9.62-4.2 7.7-3.8 6.23-3.4 5.17-3.13 4.3-2.9 3.63-2.65 3.1-2.5 2.65-2.02 1.98" stroke="#5e5e5e" stroke-width="10" fill="none"/><path d="M3415.5 15936.4l-5.03.1-.2-10 5.23-.1z" fill="#5e5e5e"/><path d="M3138.18 16755.2l11.1-10.1 3.8 8.45z" stroke="#5e5e5e" stroke-width="10" fill="#5e5e5e"/><path d="M3410.5 15800h-390.55" stroke="#5e5e5e" stroke-width="10" fill="none"/><path d="M3415.5 15805h-5.13v-10h5.13z" fill="#5e5e5e"/><path d="M3000.68 15800l14.27-4.64v9.28z" stroke="#5e5e5e" stroke-width="10" fill="#5e5e5e"/><path d="M3410.5 15715.24l-28.75-.56-23.95-1.48-17.94-1.87-14-2.06-11.26-2.14-9.3-2.17-7.84-2.2-6.73-2.18-5.87-2.18-5.2-2.17-4.63-2.2-4.2-2.18-3.83-2.2-3.54-2.25-3.3-2.3-3.08-2.34-2.93-2.42-2.8-2.53-2.7-2.64-2.66-2.8-2.62-3.04-2.62-3.3-2.68-3.7-2.8-4.24-3.1-5.1-3.7-6.74-5.92-12.03-16.17-33.9-5.52-10.03-5.14-8.5-5.15-7.74-5.33-7.33-5.62-7.1-6.02-6.97-6.55-6.97-7.2-7.03-7.95-7.17-8.93-7.38-10.1-7.65-11.52-8-13.32-8.46-15.6-9-18.46-9.63-22.2-10.44-21.08-8.95-15.1-5.76-17.92-6-21.57-6.2-26.5-6.44-33.36-6.64-43.48-6.76-59.84-6.74-91.7-6.4-334.87-7-190.2-1.32-46.98 2.13-31.2 2.75-23.14 3.03-18.14 3.16-14.72 3.2-12.27 3.2-10.4 3.2-8.98 3.17-7.82 3.15-6.9 3.1-6.14 3.1-5.5 3.06-4.97 3.04-4.5 3.03-4.13 3.04-3.78 3.02-3.48 3.04-3.22 3.05-3 3.08-2.76 3.12-2.6 3.15-2.4 3.22-2.26 3.28-2.1 3.36-1.97 3.45-1.84 3.56-1.7 3.68-1.6 3.82-1.45 4-1.33 4.15-.4 1.46" stroke="#5e5e5e" stroke-width="10" fill="none"/><path d="M3415.5 15710.34v10l-5.23-.1.2-10z" fill="#5e5e5e"/><path d="M1952.07 15519.45l-2.77-14.74 9.2 1.2z" stroke="#5e5e5e" stroke-width="10" fill="#5e5e5e"/><path d="M1952.02 16392.36v-292.43" stroke="#5e5e5e" stroke-width="10" fill="none"/><path d="M1952.02 16411.63l-4.64-14.27h9.27zM1952.02 16080.66l4.63 14.27h-9.27z" stroke="#5e5e5e" stroke-width="10" fill="#5e5e5e"/><path d="M2770.1 16422.8v-323.73" stroke="#5e5e5e" stroke-width="10" fill="none"/><path d="M2775.1 16427.8h-10v-5.12h10z" fill="#5e5e5e"/><path d="M2770.1 16079.8l4.64 14.27h-9.27z" stroke="#5e5e5e" stroke-width="10" fill="#5e5e5e"/><path d="M4140 16290.9v137.73" stroke="#5e5e5e" stroke-width="10" fill="none"/><path d="M4145 16291.03h-10v-5.13h10z" fill="#5e5e5e"/><path d="M4140 16447.9l-4.64-14.27h9.28z" stroke="#5e5e5e" stroke-width="10" fill="#5e5e5e"/><path d="M3410.5 16909.9h-251.62" stroke="#5e5e5e" stroke-width="10" fill="none"/><path d="M3415.5 16914.9h-5.13v-10h5.13z" fill="#5e5e5e"/><path d="M3139.62 16909.9l14.26-4.65v9.27z" stroke="#5e5e5e" stroke-width="10" fill="#5e5e5e"/><path d="M5540 16706.84c0-3.3 2.7-6 6-6h883.5c3.3 0 6 2.7 6 6V17094c0 3.3-2.7 6-6 6H5546c-3.3 0-6-2.7-6-6z" stroke="#000" stroke-width="9" fill="#fff" fill-opacity="0"/><use xlink:href="#m" transform="matrix(1,0,0,1,5545,16705.844457235966) translate(25.814814814814838 152.36458333333334)"/><use xlink:href="#l" transform="matrix(1,0,0,1,5545,16705.844457235966) translate(277.22222222222223 280.36458333333337)"/><path d="M5500.06 16850.74l-62.63 1.27-104.1 6.72-198 17" stroke="#5e5e5e" stroke-width="10" fill="none"/><path d="M5519.32 16850.35l-14.17 4.92-.2-9.27zM5116.12 16877.35l13.82-5.83.8 9.23z" stroke="#5e5e5e" stroke-width="10" fill="#5e5e5e"/><path d="M5695.5 14806c0-3.3 2.7-6 6-6h728c3.3 0 6 2.7 6 6v375.7c0 3.3-2.7 6-6 6h-728c-3.3 0-6-2.7-6-6z" stroke="#000" stroke-width="9" fill="#fff" fill-opacity="0"/><g><use xlink:href="#n" transform="matrix(1,0,0,1,5700.5,14805) translate(22.240740740740762 209.36458333333334)"/><use xlink:href="#o" transform="matrix(1,0,0,1,5700.5,14805) translate(158.24074074074076 209.36458333333334)"/></g><path d="M5655.58 14946.2l-2.17.13-16.94 1.78-16 2.37-15.18 2.9-14.52 3.4-14 3.9-13.54 4.4-13.2 4.92-13 5.44-12.82 6.04-12.8 6.7-12.83 7.4-13 8.26-13.33 9.27-13.8 10.5-14.55 12.03-15.63 14.08-17.3 16.97-20.13 21.47-25.92 30.1-59.1 75.57-76.22 97.72-33.37 38.74-27.96 29.8-25.54 25.04-15.8 14.24" stroke="#5e5e5e" stroke-width="10" fill="none"/><path d="M5674.82 14945.43l-14.07 5.2-.36-9.27zM5112.3 15411.87l7.8-12.8 6.04 7.04z" stroke="#5e5e5e" stroke-width="10" fill="#5e5e5e"/><defs><path d="M212-179c-10-28-35-45-73-45-59 0-87 40-87 99 0 60 29 101 89 101 43 0 62-24 78-52l27 14C228-24 195 4 139 4 59 4 22-46 18-125c-6-104 99-153 187-111 19 9 31 26 39 46" id="p"/><path d="M84 4C-5 8 30-112 23-190h32v120c0 31 7 50 39 49 72-2 45-101 50-169h31l1 190h-30c-1-10 1-25-2-33-11 22-28 36-60 37" id="q"/><path d="M135-143c-3-34-86-38-87 0 15 53 115 12 119 90S17 21 10-45l28-5c4 36 97 45 98 0-10-56-113-15-118-90-4-57 82-63 122-42 12 7 21 19 24 35" id="r"/><path d="M59-47c-2 24 18 29 38 22v24C64 9 27 4 27-40v-127H5v-23h24l9-43h21v43h35v23H59v120" id="s"/><path d="M100-194c62-1 85 37 85 99 1 63-27 99-86 99S16-35 15-95c0-66 28-99 85-99zM99-20c44 1 53-31 53-75 0-43-8-75-51-75s-53 32-53 75 10 74 51 75" id="t"/><path d="M210-169c-67 3-38 105-44 169h-31v-121c0-29-5-50-35-48C34-165 62-65 56 0H25l-1-190h30c1 10-1 24 2 32 10-44 99-50 107 0 11-21 27-35 58-36 85-2 47 119 55 194h-31v-121c0-29-5-49-35-48" id="u"/><path d="M100-194c63 0 86 42 84 106H49c0 40 14 67 53 68 26 1 43-12 49-29l28 8c-11 28-37 45-77 45C44 4 14-33 15-96c1-61 26-98 85-98zm52 81c6-60-76-77-97-28-3 7-6 17-6 28h103" id="v"/><path d="M114-163C36-179 61-72 57 0H25l-1-190h30c1 12-1 29 2 39 6-27 23-49 58-41v29" id="w"/><g id="a"><use transform="matrix(0.29629629629629634,0,0,0.29629629629629634,0,0)" xlink:href="#p"/><use transform="matrix(0.29629629629629634,0,0,0.29629629629629634,76.74074074074075,0)" xlink:href="#q"/><use transform="matrix(0.29629629629629634,0,0,0.29629629629629634,136,0)" xlink:href="#r"/><use transform="matrix(0.29629629629629634,0,0,0.29629629629629634,189.33333333333337,0)" xlink:href="#s"/><use transform="matrix(0.29629629629629634,0,0,0.29629629629629634,218.962962962963,0)" xlink:href="#t"/><use transform="matrix(0.29629629629629634,0,0,0.29629629629629634,278.2222222222223,0)" xlink:href="#u"/><use transform="matrix(0.29629629629629634,0,0,0.29629629629629634,366.81481481481484,0)" xlink:href="#v"/><use transform="matrix(0.29629629629629634,0,0,0.29629629629629634,426.07407407407413,0)" xlink:href="#w"/></g><path d="M30-248c118-7 216 8 213 122C240-48 200 0 122 0H30v-248zM63-27c89 8 146-16 146-99s-60-101-146-95v194" id="x"/><path d="M141-36C126-15 110 5 73 4 37 3 15-17 15-53c-1-64 63-63 125-63 3-35-9-54-41-54-24 1-41 7-42 31l-33-3c5-37 33-52 76-52 45 0 72 20 72 64v82c-1 20 7 32 28 27v20c-31 9-61-2-59-35zM48-53c0 20 12 33 32 33 41-3 63-29 60-74-43 2-92-5-92 41" id="y"/><path d="M24-231v-30h32v30H24zM24 0v-190h32V0H24" id="z"/><path d="M117-194c89-4 53 116 60 194h-32v-121c0-31-8-49-39-48C34-167 62-67 57 0H25l-1-190h30c1 10-1 24 2 32 11-22 29-35 61-36" id="A"/><g id="b"><use transform="matrix(0.29629629629629634,0,0,0.29629629629629634,0,0)" xlink:href="#x"/><use transform="matrix(0.29629629629629634,0,0,0.29629629629629634,76.74074074074075,0)" xlink:href="#t"/><use transform="matrix(0.29629629629629634,0,0,0.29629629629629634,136,0)" xlink:href="#u"/><use transform="matrix(0.29629629629629634,0,0,0.29629629629629634,224.5925925925926,0)" xlink:href="#y"/><use transform="matrix(0.29629629629629634,0,0,0.29629629629629634,283.85185185185185,0)" xlink:href="#z"/><use transform="matrix(0.29629629629629634,0,0,0.29629629629629634,307.25925925925924,0)" xlink:href="#A"/></g><path d="M205 0l-28-72H64L36 0H1l101-248h38L239 0h-34zm-38-99l-47-123c-12 45-31 82-46 123h93" id="B"/><path d="M179-190L93 31C79 59 56 82 12 73V49c39 6 53-20 64-50L1-190h34L92-34l54-156h33" id="C"/><path d="M9 0v-24l116-142H16v-24h144v24L44-24h123V0H9" id="D"/><path d="M0 4l72-265h28L28 4H0" id="E"/><path d="M177-190C167-65 218 103 67 71c-23-6-38-20-44-43l32-5c15 47 100 32 89-28v-30C133-14 115 1 83 1 29 1 15-40 15-95c0-56 16-97 71-98 29-1 48 16 59 35 1-10 0-23 2-32h30zM94-22c36 0 50-32 50-73 0-42-14-75-50-75-39 0-46 34-46 75s6 73 46 73" id="F"/><g id="c"><use transform="matrix(0.29629629629629634,0,0,0.29629629629629634,0,0)" xlink:href="#B"/><use transform="matrix(0.29629629629629634,0,0,0.29629629629629634,71.11111111111111,0)" xlink:href="#A"/><use transform="matrix(0.29629629629629634,0,0,0.29629629629629634,130.37037037037038,0)" xlink:href="#t"/><use transform="matrix(0.29629629629629634,0,0,0.29629629629629634,189.62962962962965,0)" xlink:href="#A"/><use transform="matrix(0.29629629629629634,0,0,0.29629629629629634,248.8888888888889,0)" xlink:href="#C"/><use transform="matrix(0.29629629629629634,0,0,0.29629629629629634,302.2222222222223,0)" xlink:href="#u"/><use transform="matrix(0.29629629629629634,0,0,0.29629629629629634,390.81481481481484,0)" xlink:href="#z"/><use transform="matrix(0.29629629629629634,0,0,0.29629629629629634,414.2222222222223,0)" xlink:href="#D"/><use transform="matrix(0.29629629629629634,0,0,0.29629629629629634,467.55555555555566,0)" xlink:href="#v"/><use transform="matrix(0.29629629629629634,0,0,0.29629629629629634,526.8148148148149,0)" xlink:href="#w"/><use transform="matrix(0.29629629629629634,0,0,0.29629629629629634,562.0740740740741,0)" xlink:href="#E"/><use transform="matrix(0.29629629629629634,0,0,0.29629629629629634,591.7037037037038,0)" xlink:href="#B"/><use transform="matrix(0.29629629629629634,0,0,0.29629629629629634,662.8148148148149,0)" xlink:href="#F"/><use transform="matrix(0.29629629629629634,0,0,0.29629629629629634,722.0740740740741,0)" xlink:href="#F"/><use transform="matrix(0.29629629629629634,0,0,0.29629629629629634,781.3333333333335,0)" xlink:href="#w"/><use transform="matrix(0.29629629629629634,0,0,0.29629629629629634,816.5925925925926,0)" xlink:href="#v"/><use transform="matrix(0.29629629629629634,0,0,0.29629629629629634,875.8518518518518,0)" xlink:href="#F"/><use transform="matrix(0.29629629629629634,0,0,0.29629629629629634,935.1111111111111,0)" xlink:href="#y"/><use transform="matrix(0.29629629629629634,0,0,0.29629629629629634,994.3703703703703,0)" xlink:href="#s"/><use transform="matrix(0.29629629629629634,0,0,0.29629629629629634,1024,0)" xlink:href="#t"/><use transform="matrix(0.29629629629629634,0,0,0.29629629629629634,1083.2592592592594,0)" xlink:href="#w"/></g><path d="M185-189c-5-48-123-54-124 2 14 75 158 14 163 119 3 78-121 87-175 55-17-10-28-26-33-46l33-7c5 56 141 63 141-1 0-78-155-14-162-118-5-82 145-84 179-34 5 7 8 16 11 25" id="G"/><path d="M108 0H70L1-190h34L89-25l56-165h34" id="H"/><g id="d"><use transform="matrix(0.29629629629629634,0,0,0.29629629629629634,0,0)" xlink:href="#G"/><use transform="matrix(0.29629629629629634,0,0,0.29629629629629634,71.11111111111111,0)" xlink:href="#q"/><use transform="matrix(0.29629629629629634,0,0,0.29629629629629634,130.37037037037038,0)" xlink:href="#w"/><use transform="matrix(0.29629629629629634,0,0,0.29629629629629634,165.62962962962965,0)" xlink:href="#H"/><use transform="matrix(0.29629629629629634,0,0,0.29629629629629634,218.962962962963,0)" xlink:href="#v"/><use transform="matrix(0.29629629629629634,0,0,0.29629629629629634,278.2222222222223,0)" xlink:href="#C"/><use transform="matrix(0.29629629629629634,0,0,0.29629629629629634,331.55555555555566,0)" xlink:href="#t"/><use transform="matrix(0.29629629629629634,0,0,0.29629629629629634,390.81481481481484,0)" xlink:href="#w"/></g><path d="M96-169c-40 0-48 33-48 73s9 75 48 75c24 0 41-14 43-38l32 2c-6 37-31 61-74 61-59 0-76-41-82-99-10-93 101-131 147-64 4 7 5 14 7 22l-32 3c-4-21-16-35-41-35" id="I"/><g id="e"><use transform="matrix(0.29629629629629634,0,0,0.29629629629629634,0,0)" xlink:href="#G"/><use transform="matrix(0.29629629629629634,0,0,0.29629629629629634,71.11111111111111,0)" xlink:href="#v"/><use transform="matrix(0.29629629629629634,0,0,0.29629629629629634,130.37037037037038,0)" xlink:href="#w"/><use transform="matrix(0.29629629629629634,0,0,0.29629629629629634,165.62962962962965,0)" xlink:href="#H"/><use transform="matrix(0.29629629629629634,0,0,0.29629629629629634,218.962962962963,0)" xlink:href="#z"/><use transform="matrix(0.29629629629629634,0,0,0.29629629629629634,242.3703703703704,0)" xlink:href="#I"/><use transform="matrix(0.29629629629629634,0,0,0.29629629629629634,295.70370370370375,0)" xlink:href="#v"/></g><path d="M140-251c81 0 123 46 123 126C263-46 219 4 140 4 59 4 17-45 17-125s42-126 123-126zm0 227c63 0 89-41 89-101s-29-99-89-99c-61 0-89 39-89 99S79-25 140-24" id="J"/><path d="M85-194c31 0 48 13 60 33l-1-100h32l1 261h-30c-2-10 0-23-3-31C134-8 116 4 85 4 32 4 16-35 15-94c0-66 23-100 70-100zm9 24c-40 0-46 34-46 75 0 40 6 74 45 74 42 0 51-32 51-76 0-42-9-74-50-73" id="K"/><g id="f"><use transform="matrix(0.29629629629629634,0,0,0.29629629629629634,0,0)" xlink:href="#J"/><use transform="matrix(0.29629629629629634,0,0,0.29629629629629634,82.96296296296298,0)" xlink:href="#w"/><use transform="matrix(0.29629629629629634,0,0,0.29629629629629634,118.22222222222224,0)" xlink:href="#K"/><use transform="matrix(0.29629629629629634,0,0,0.29629629629629634,177.48148148148155,0)" xlink:href="#v"/><use transform="matrix(0.29629629629629634,0,0,0.29629629629629634,236.74074074074082,0)" xlink:href="#w"/></g><g id="g"><use transform="matrix(0.29629629629629634,0,0,0.29629629629629634,0,0)" xlink:href="#p"/><use transform="matrix(0.29629629629629634,0,0,0.29629629629629634,76.74074074074075,0)" xlink:href="#q"/><use transform="matrix(0.29629629629629634,0,0,0.29629629629629634,136,0)" xlink:href="#r"/><use transform="matrix(0.29629629629629634,0,0,0.29629629629629634,189.33333333333337,0)" xlink:href="#s"/><use transform="matrix(0.29629629629629634,0,0,0.29629629629629634,218.962962962963,0)" xlink:href="#t"/><use transform="matrix(0.29629629629629634,0,0,0.29629629629629634,278.2222222222223,0)" xlink:href="#u"/><use transform="matrix(0.29629629629629634,0,0,0.29629629629629634,366.81481481481484,0)" xlink:href="#v"/><use transform="matrix(0.29629629629629634,0,0,0.29629629629629634,426.07407407407413,0)" xlink:href="#w"/></g><path d="M197 0v-115H63V0H30v-248h33v105h134v-105h34V0h-34" id="L"/><path d="M33 0v-248h34V0H33" id="M"/><path d="M30-248c87 1 191-15 191 75 0 78-77 80-158 76V0H30v-248zm33 125c57 0 124 11 124-50 0-59-68-47-124-48v98" id="N"/><g id="h"><use transform="matrix(0.29629629629629634,0,0,0.29629629629629634,0,0)" xlink:href="#L"/><use transform="matrix(0.29629629629629634,0,0,0.29629629629629634,76.74074074074075,0)" xlink:href="#M"/><use transform="matrix(0.29629629629629634,0,0,0.29629629629629634,106.37037037037038,0)" xlink:href="#N"/><use transform="matrix(0.29629629629629634,0,0,0.29629629629629634,169.4814814814815,0)" xlink:href="#B"/><use transform="matrix(0.29629629629629634,0,0,0.29629629629629634,240.59259259259264,0)" xlink:href="#B"/></g><path d="M115-194c53 0 69 39 70 98 0 66-23 100-70 100C84 3 66-7 56-30L54 0H23l1-261h32v101c10-23 28-34 59-34zm-8 174c40 0 45-34 45-75 0-40-5-75-45-74-42 0-51 32-51 76 0 43 10 73 51 73" id="O"/><g id="i"><use transform="matrix(0.29629629629629634,0,0,0.29629629629629634,0,0)" xlink:href="#K"/><use transform="matrix(0.29629629629629634,0,0,0.29629629629629634,59.25925925925927,0)" xlink:href="#y"/><use transform="matrix(0.29629629629629634,0,0,0.29629629629629634,118.51851851851853,0)" xlink:href="#s"/><use transform="matrix(0.29629629629629634,0,0,0.29629629629629634,148.14814814814815,0)" xlink:href="#y"/><use transform="matrix(0.29629629629629634,0,0,0.29629629629629634,207.40740740740745,0)" xlink:href="#O"/><use transform="matrix(0.29629629629629634,0,0,0.29629629629629634,266.6666666666667,0)" xlink:href="#y"/><use transform="matrix(0.29629629629629634,0,0,0.29629629629629634,325.925925925926,0)" xlink:href="#r"/><use transform="matrix(0.29629629629629634,0,0,0.29629629629629634,379.25925925925935,0)" xlink:href="#v"/></g><g id="j"><use transform="matrix(0.29629629629629634,0,0,0.29629629629629634,0,0)" xlink:href="#p"/><use transform="matrix(0.29629629629629634,0,0,0.29629629629629634,76.74074074074075,0)" xlink:href="#q"/><use transform="matrix(0.29629629629629634,0,0,0.29629629629629634,136,0)" xlink:href="#r"/><use transform="matrix(0.29629629629629634,0,0,0.29629629629629634,189.33333333333337,0)" xlink:href="#s"/><use transform="matrix(0.29629629629629634,0,0,0.29629629629629634,218.962962962963,0)" xlink:href="#t"/><use transform="matrix(0.29629629629629634,0,0,0.29629629629629634,278.2222222222223,0)" xlink:href="#u"/><use transform="matrix(0.29629629629629634,0,0,0.29629629629629634,366.81481481481484,0)" xlink:href="#v"/><use transform="matrix(0.29629629629629634,0,0,0.29629629629629634,426.07407407407413,0)" xlink:href="#w"/></g><path d="M190 0L58-211 59 0H30v-248h39L202-35l-2-213h31V0h-41" id="P"/><path d="M101-234c-31-9-42 10-38 44h38v23H63V0H32v-167H5v-23h27c-7-52 17-82 69-68v24" id="Q"/><g id="k"><use transform="matrix(0.29629629629629634,0,0,0.29629629629629634,0,0)" xlink:href="#P"/><use transform="matrix(0.29629629629629634,0,0,0.29629629629629634,76.74074074074075,0)" xlink:href="#t"/><use transform="matrix(0.29629629629629634,0,0,0.29629629629629634,136,0)" xlink:href="#s"/><use transform="matrix(0.29629629629629634,0,0,0.29629629629629634,165.62962962962962,0)" xlink:href="#z"/><use transform="matrix(0.29629629629629634,0,0,0.29629629629629634,189.03703703703704,0)" xlink:href="#Q"/><use transform="matrix(0.29629629629629634,0,0,0.29629629629629634,218.66666666666669,0)" xlink:href="#z"/><use transform="matrix(0.29629629629629634,0,0,0.29629629629629634,242.0740740740741,0)" xlink:href="#I"/><use transform="matrix(0.29629629629629634,0,0,0.29629629629629634,295.40740740740745,0)" xlink:href="#y"/><use transform="matrix(0.29629629629629634,0,0,0.29629629629629634,354.6666666666667,0)" xlink:href="#s"/><use transform="matrix(0.29629629629629634,0,0,0.29629629629629634,384.29629629629636,0)" xlink:href="#z"/><use transform="matrix(0.29629629629629634,0,0,0.29629629629629634,407.70370370370375,0)" xlink:href="#t"/><use transform="matrix(0.29629629629629634,0,0,0.29629629629629634,466.96296296296305,0)" xlink:href="#A"/></g><path d="M30 0v-248h187v28H63v79h144v27H63v87h162V0H30" id="R"/><g id="l"><use transform="matrix(0.29629629629629634,0,0,0.29629629629629634,0,0)" xlink:href="#R"/><use transform="matrix(0.29629629629629634,0,0,0.29629629629629634,71.11111111111111,0)" xlink:href="#A"/><use transform="matrix(0.29629629629629634,0,0,0.29629629629629634,130.37037037037038,0)" xlink:href="#F"/><use transform="matrix(0.29629629629629634,0,0,0.29629629629629634,189.62962962962965,0)" xlink:href="#z"/><use transform="matrix(0.29629629629629634,0,0,0.29629629629629634,213.03703703703707,0)" xlink:href="#A"/><use transform="matrix(0.29629629629629634,0,0,0.29629629629629634,272.2962962962963,0)" xlink:href="#v"/></g><path d="M233-177c-1 41-23 64-60 70L243 0h-38l-65-103H63V0H30v-248c88 3 205-21 203 71zM63-129c60-2 137 13 137-47 0-61-80-42-137-45v92" id="S"/><g id="m"><use transform="matrix(0.29629629629629634,0,0,0.29629629629629634,0,0)" xlink:href="#S"/><use transform="matrix(0.29629629629629634,0,0,0.29629629629629634,76.74074074074075,0)" xlink:href="#v"/><use transform="matrix(0.29629629629629634,0,0,0.29629629629629634,136,0)" xlink:href="#I"/><use transform="matrix(0.29629629629629634,0,0,0.29629629629629634,189.33333333333337,0)" xlink:href="#t"/><use transform="matrix(0.29629629629629634,0,0,0.29629629629629634,248.59259259259264,0)" xlink:href="#u"/><use transform="matrix(0.29629629629629634,0,0,0.29629629629629634,337.1851851851852,0)" xlink:href="#u"/><use transform="matrix(0.29629629629629634,0,0,0.29629629629629634,425.7777777777778,0)" xlink:href="#v"/><use transform="matrix(0.29629629629629634,0,0,0.29629629629629634,485.037037037037,0)" xlink:href="#A"/><use transform="matrix(0.29629629629629634,0,0,0.29629629629629634,544.2962962962963,0)" xlink:href="#K"/><use transform="matrix(0.29629629629629634,0,0,0.29629629629629634,603.5555555555555,0)" xlink:href="#y"/><use transform="matrix(0.29629629629629634,0,0,0.29629629629629634,662.8148148148148,0)" xlink:href="#s"/><use transform="matrix(0.29629629629629634,0,0,0.29629629629629634,692.4444444444445,0)" xlink:href="#z"/><use transform="matrix(0.29629629629629634,0,0,0.29629629629629634,715.8518518518518,0)" xlink:href="#t"/><use transform="matrix(0.29629629629629634,0,0,0.29629629629629634,775.1111111111111,0)" xlink:href="#A"/></g><path d="M232-93c-1 65-40 97-104 97C67 4 28-28 28-90v-158h33c8 89-33 224 67 224 102 0 64-133 71-224h33v155" id="T"/><g id="n"><use transform="matrix(0.29629629629629634,0,0,0.29629629629629634,0,0)" xlink:href="#T"/><use transform="matrix(0.29629629629629634,0,0,0.29629629629629634,76.74074074074075,0)" xlink:href="#M"/></g><path d="M115-194c55 1 70 41 70 98S169 2 115 4C84 4 66-9 55-30l1 105H24l-1-265h31l2 30c10-21 28-34 59-34zm-8 174c40 0 45-34 45-75s-6-73-45-74c-42 0-51 32-51 76 0 43 10 73 51 73" id="U"/><g id="o"><use transform="matrix(0.29629629629629634,0,0,0.29629629629629634,0,0)" xlink:href="#p"/><use transform="matrix(0.29629629629629634,0,0,0.29629629629629634,76.74074074074075,0)" xlink:href="#t"/><use transform="matrix(0.29629629629629634,0,0,0.29629629629629634,136,0)" xlink:href="#u"/><use transform="matrix(0.29629629629629634,0,0,0.29629629629629634,224.5925925925926,0)" xlink:href="#U"/><use transform="matrix(0.29629629629629634,0,0,0.29629629629629634,283.85185185185185,0)" xlink:href="#t"/><use transform="matrix(0.29629629629629634,0,0,0.29629629629629634,343.1111111111111,0)" xlink:href="#A"/><use transform="matrix(0.29629629629629634,0,0,0.29629629629629634,402.3703703703704,0)" xlink:href="#v"/><use transform="matrix(0.29629629629629634,0,0,0.29629629629629634,461.62962962962956,0)" xlink:href="#A"/><use transform="matrix(0.29629629629629634,0,0,0.29629629629629634,520.8888888888888,0)" xlink:href="#s"/></g></defs></g></svg>