<svg xmlns="http://www.w3.org/2000/svg" xmlns:xlink="http://www.w3.org/1999/xlink" xmlns:lucid="lucid" width="3448" height="2220"><g transform="translate(-18700 -15020)" lucid:page-tab-id="aVBKLU96a3Rw"><path d="M18500 15000h4000v2500h-4000z" fill="#fff"/><path d="M19660 15830.65c0-3.3 2.7-6 6-6h2428c3.3 0 6 2.7 6 6V17214c0 3.3-2.7 6-6 6h-2428c-3.3 0-6-2.7-6-6z" stroke="#000" stroke-width="4" fill="#fff"/><use xlink:href="#a" transform="matrix(1,0,0,1,19672,15836.649143931136) translate(0 71.11111111111111)"/><use xlink:href="#b" transform="matrix(1,0,0,1,19672,15836.649143931136) translate(423.7037037037037 71.11111111111111)"/><path d="M19560 15046c0-3.3 2.7-6 6-6h768c3.3 0 6 2.7 6 6v548c0 3.3-2.7 6-6 6h-768c-3.3 0-6-2.7-6-6z" stroke="#000" fill="#e5e5e5"/><use xlink:href="#c" transform="matrix(1,0,0,1,19572,15052) translate(149.75925925925927 289.8888888888889)"/><g stroke="#000" stroke-width="3"><path d="M19148.8 16037.7c-12.95 0-23.46-31.42-23.46-70.17s10.5-70.17 23.47-70.17h187.73c12.96 0 23.47 31.42 23.47 70.17s-10.5 70.16-23.47 70.16z" fill="#fff"/><path d="M19336.53 16037.7c-12.96 0-23.46-31.42-23.46-70.17s10.5-70.17 23.46-70.17" fill="none"/></g><path d="M19125.34 15913.7c0-3.32 2.7-6 6-6h188c3.3 0 6 2.68 6 6v118c0 3.3-2.7 6-6 6h-188c-3.3 0-6-2.7-6-6z" stroke="#000" stroke-opacity="0" stroke-width="3" fill="#fff" fill-opacity="0"/><use xlink:href="#d" transform="matrix(1,0,0,1,19130.339588825023,15912.688914471935) translate(27.5 26.66666666666667)"/><use xlink:href="#e" transform="matrix(1,0,0,1,19130.339588825023,15912.688914471935) translate(44.07407407407407 66.66666666666669)"/><use xlink:href="#f" transform="matrix(1,0,0,1,19130.339588825023,15912.688914471935) translate(48.7037037037037 106.66666666666669)"/><path d="M19366.5 15967.63l13.13.27 17.47 1.1 17.33 1.82 17.95 2.66 19.96 3.82 26.73 6.32 88.1 22.87 19.95 3.8 17.95 2.66 17.33 1.83h.2" stroke="#5e5e5e" stroke-width="10" fill="none"/><path d="M19366.73 15962.63l-.2 10-5.2-.1.17-4.98v-.68l-.17-4.35z" fill="#5e5e5e"/><path d="M19641.83 16015.6l-14.44 4.04.37-9.27z" stroke="#5e5e5e" stroke-width="10" fill="#5e5e5e"/><path d="M19571.7 15602.8c0 1.38-1.1 2.5-2.5 2.5-1.37 0-2.5-1.12-2.5-2.5s1.13-2.5 2.5-2.5c1.4 0 2.5 1.12 2.5 2.5zm3.98 9.43c0 1.38-1.12 2.5-2.5 2.5s-2.5-1.12-2.5-2.5 1.12-2.5 2.5-2.5 2.5 1.12 2.5 2.5zm3.97 9.42c0 1.38-1.12 2.5-2.5 2.5s-2.5-1.12-2.5-2.5 1.12-2.5 2.5-2.5 2.5 1.12 2.5 2.5zm3.97 9.42c0 1.4-1.12 2.5-2.5 2.5s-2.5-1.1-2.5-2.5c0-1.38 1.12-2.5 2.5-2.5s2.5 1.12 2.5 2.5zm3.96 9.43c0 1.38-1.1 2.5-2.5 2.5-1.38 0-2.5-1.12-2.5-2.5s1.12-2.5 2.5-2.5c1.4 0 2.5 1.12 2.5 2.5zm3.97 9.42c0 1.38-1.12 2.5-2.5 2.5s-2.5-1.12-2.5-2.5 1.12-2.5 2.5-2.5 2.5 1.12 2.5 2.5zm3.97 9.43c0 1.38-1.12 2.5-2.5 2.5s-2.5-1.12-2.5-2.5c0-1.4 1.12-2.5 2.5-2.5s2.5 1.1 2.5 2.5zm3.97 9.42c0 1.38-1.13 2.5-2.5 2.5-1.4 0-2.5-1.12-2.5-2.5s1.1-2.5 2.5-2.5c1.37 0 2.5 1.12 2.5 2.5zm3.96 9.42c0 1.37-1.12 2.5-2.5 2.5s-2.5-1.13-2.5-2.5c0-1.4 1.12-2.5 2.5-2.5s2.5 1.1 2.5 2.5zm3.97 9.42c0 1.38-1.12 2.5-2.5 2.5s-2.5-1.12-2.5-2.5 1.12-2.5 2.5-2.5 2.5 1.12 2.5 2.5zm3.96 9.42c0 1.38-1.12 2.5-2.5 2.5-1.4 0-2.5-1.12-2.5-2.5s1.1-2.5 2.5-2.5c1.38 0 2.5 1.12 2.5 2.5zm3.96 9.42c0 1.38-1.12 2.5-2.5 2.5s-2.5-1.12-2.5-2.5 1.12-2.5 2.5-2.5 2.5 1.12 2.5 2.5zm3.97 9.43c0 1.37-1.12 2.5-2.5 2.5s-2.5-1.13-2.5-2.5c0-1.4 1.12-2.5 2.5-2.5s2.5 1.1 2.5 2.5zm3.97 9.4c0 1.4-1.12 2.5-2.5 2.5s-2.5-1.1-2.5-2.5c0-1.37 1.12-2.5 2.5-2.5s2.5 1.13 2.5 2.5zm3.97 9.43c0 1.38-1.12 2.5-2.5 2.5s-2.5-1.12-2.5-2.5 1.12-2.5 2.5-2.5 2.5 1.12 2.5 2.5zm3.97 9.43c0 1.38-1.12 2.5-2.5 2.5s-2.5-1.12-2.5-2.5 1.12-2.5 2.5-2.5 2.5 1.12 2.5 2.5zm3.96 9.42c0 1.38-1.1 2.5-2.5 2.5-1.38 0-2.5-1.12-2.5-2.5s1.12-2.5 2.5-2.5c1.4 0 2.5 1.12 2.5 2.5zm3.97 9.43c0 1.4-1.12 2.5-2.5 2.5s-2.5-1.1-2.5-2.5c0-1.38 1.12-2.5 2.5-2.5s2.5 1.12 2.5 2.5zm3.97 9.43c0 1.38-1.12 2.5-2.5 2.5s-2.5-1.12-2.5-2.5 1.12-2.5 2.5-2.5 2.5 1.12 2.5 2.5zm3.97 9.42c0 1.38-1.1 2.5-2.5 2.5-1.37 0-2.5-1.12-2.5-2.5s1.13-2.5 2.5-2.5c1.4 0 2.5 1.12 2.5 2.5zm3.98 9.43c0 1.38-1.12 2.5-2.5 2.5s-2.5-1.12-2.5-2.5 1.12-2.5 2.5-2.5 2.5 1.12 2.5 2.5zm3.97 9.42c0 1.38-1.12 2.5-2.5 2.5s-2.5-1.12-2.5-2.5 1.12-2.5 2.5-2.5 2.5 1.12 2.5 2.5z" fill="#5e5e5e"/><path d="M19565.93 15600.5h5.02l.6 1.4-4.62 1.93-1.45-3.45z" fill="#5e5e5e"/><path d="M19659.05 15816.15l-9.8-11.35 8.54-3.6z" stroke="#5e5e5e" stroke-width="5" fill="#5e5e5e"/><path d="M20345.3 15084.4c0 1.38-1.12 2.5-2.5 2.5s-2.5-1.12-2.5-2.5 1.12-2.5 2.5-2.5 2.5 1.12 2.5 2.5zm9.18 3.95c0 1.38-1.12 2.5-2.5 2.5s-2.5-1.12-2.5-2.5 1.12-2.5 2.5-2.5 2.5 1.12 2.5 2.5zm9.2 3.95c0 1.38-1.13 2.5-2.5 2.5-1.4 0-2.5-1.12-2.5-2.5s1.1-2.5 2.5-2.5c1.37 0 2.5 1.12 2.5 2.5zm9.18 3.95c0 1.38-1.12 2.5-2.5 2.5s-2.5-1.12-2.5-2.5 1.12-2.5 2.5-2.5 2.5 1.12 2.5 2.5zm9.2 3.95c0 1.38-1.13 2.5-2.5 2.5-1.4 0-2.5-1.12-2.5-2.5s1.1-2.5 2.5-2.5c1.37 0 2.5 1.12 2.5 2.5zm9.17 3.95c0 1.38-1.12 2.5-2.5 2.5s-2.5-1.12-2.5-2.5 1.12-2.5 2.5-2.5 2.5 1.12 2.5 2.5zm9.2 3.94c0 1.38-1.13 2.5-2.5 2.5-1.4 0-2.5-1.12-2.5-2.5 0-1.4 1.1-2.5 2.5-2.5 1.37 0 2.5 1.1 2.5 2.5zm9.18 3.94c0 1.38-1.1 2.5-2.5 2.5-1.37 0-2.5-1.12-2.5-2.5s1.13-2.5 2.5-2.5c1.4 0 2.5 1.12 2.5 2.5zm9.2 3.95c0 1.37-1.13 2.5-2.5 2.5-1.4 0-2.5-1.13-2.5-2.5 0-1.4 1.1-2.5 2.5-2.5 1.37 0 2.5 1.1 2.5 2.5zm9.18 3.94c0 1.38-1.12 2.5-2.5 2.5s-2.5-1.12-2.5-2.5 1.12-2.5 2.5-2.5 2.5 1.12 2.5 2.5zm9.2 3.95c0 1.37-1.13 2.5-2.5 2.5-1.4 0-2.5-1.13-2.5-2.5 0-1.4 1.1-2.5 2.5-2.5 1.37 0 2.5 1.1 2.5 2.5zm9.18 3.94c0 1.38-1.12 2.5-2.5 2.5-1.4 0-2.5-1.12-2.5-2.5s1.1-2.5 2.5-2.5c1.38 0 2.5 1.12 2.5 2.5zm9.18 3.95c0 1.37-1.12 2.5-2.5 2.5s-2.5-1.13-2.5-2.5c0-1.4 1.12-2.5 2.5-2.5s2.5 1.1 2.5 2.5zm9.2 3.94c0 1.38-1.13 2.5-2.5 2.5-1.4 0-2.5-1.12-2.5-2.5s1.1-2.5 2.5-2.5c1.37 0 2.5 1.12 2.5 2.5zm9.18 3.95c0 1.37-1.12 2.5-2.5 2.5s-2.5-1.13-2.5-2.5c0-1.4 1.12-2.5 2.5-2.5s2.5 1.1 2.5 2.5zm9.18 3.94c0 1.38-1.12 2.5-2.5 2.5s-2.5-1.12-2.5-2.5 1.12-2.5 2.5-2.5 2.5 1.12 2.5 2.5zm9.2 3.95c0 1.37-1.13 2.5-2.5 2.5-1.4 0-2.5-1.13-2.5-2.5 0-1.4 1.1-2.5 2.5-2.5 1.37 0 2.5 1.1 2.5 2.5zm9.18 3.93c0 1.4-1.12 2.5-2.5 2.5s-2.5-1.1-2.5-2.5c0-1.38 1.12-2.5 2.5-2.5s2.5 1.12 2.5 2.5zm9.2 3.95c0 1.38-1.13 2.5-2.5 2.5-1.4 0-2.5-1.12-2.5-2.5s1.1-2.5 2.5-2.5c1.37 0 2.5 1.12 2.5 2.5zm9.17 3.95c0 1.38-1.12 2.5-2.5 2.5s-2.5-1.12-2.5-2.5 1.12-2.5 2.5-2.5 2.5 1.12 2.5 2.5zm9.2 3.95c0 1.38-1.13 2.5-2.5 2.5-1.4 0-2.5-1.12-2.5-2.5s1.1-2.5 2.5-2.5c1.37 0 2.5 1.12 2.5 2.5zm9.18 3.95c0 1.38-1.12 2.5-2.5 2.5s-2.5-1.12-2.5-2.5 1.12-2.5 2.5-2.5 2.5 1.12 2.5 2.5zm9.18 3.95c0 1.38-1.1 2.5-2.5 2.5-1.37 0-2.5-1.12-2.5-2.5s1.13-2.5 2.5-2.5c1.4 0 2.5 1.12 2.5 2.5zm9.2 3.95c0 1.38-1.12 2.5-2.5 2.5s-2.5-1.12-2.5-2.5 1.12-2.5 2.5-2.5 2.5 1.12 2.5 2.5zm9.2 3.95c0 1.38-1.13 2.5-2.5 2.5-1.4 0-2.5-1.12-2.5-2.5s1.1-2.5 2.5-2.5c1.37 0 2.5 1.12 2.5 2.5zm9.18 3.95c0 1.38-1.12 2.5-2.5 2.5-1.4 0-2.5-1.12-2.5-2.5s1.1-2.5 2.5-2.5c1.38 0 2.5 1.12 2.5 2.5zm9.18 3.95c0 1.38-1.12 2.5-2.5 2.5s-2.5-1.12-2.5-2.5 1.12-2.5 2.5-2.5 2.5 1.12 2.5 2.5zm9.2 3.95c0 1.38-1.13 2.5-2.5 2.5-1.4 0-2.5-1.12-2.5-2.5s1.1-2.5 2.5-2.5c1.37 0 2.5 1.12 2.5 2.5zm9.18 3.94c0 1.4-1.12 2.5-2.5 2.5s-2.5-1.1-2.5-2.5c0-1.38 1.12-2.5 2.5-2.5s2.5 1.12 2.5 2.5zm9.18 3.95c0 1.38-1.12 2.5-2.5 2.5s-2.5-1.12-2.5-2.5 1.12-2.5 2.5-2.5 2.5 1.12 2.5 2.5zm9.2 3.95c0 1.38-1.13 2.5-2.5 2.5-1.4 0-2.5-1.12-2.5-2.5s1.1-2.5 2.5-2.5c1.37 0 2.5 1.12 2.5 2.5zm9.18 3.95c0 1.38-1.12 2.5-2.5 2.5s-2.5-1.12-2.5-2.5 1.12-2.5 2.5-2.5 2.5 1.12 2.5 2.5zm9.18 3.95c0 1.38-1.1 2.5-2.5 2.5-1.38 0-2.5-1.12-2.5-2.5s1.12-2.5 2.5-2.5c1.4 0 2.5 1.12 2.5 2.5zm9.2 3.95c0 1.38-1.13 2.5-2.5 2.5-1.4 0-2.5-1.12-2.5-2.5s1.1-2.5 2.5-2.5c1.37 0 2.5 1.12 2.5 2.5zm9.18 3.95c0 1.38-1.12 2.5-2.5 2.5s-2.5-1.12-2.5-2.5 1.12-2.5 2.5-2.5 2.5 1.12 2.5 2.5zm9.2 3.95c0 1.38-1.13 2.5-2.5 2.5-1.4 0-2.5-1.12-2.5-2.5s1.1-2.5 2.5-2.5c1.37 0 2.5 1.12 2.5 2.5zm9.17 3.95c0 1.38-1.12 2.5-2.5 2.5s-2.5-1.12-2.5-2.5 1.12-2.5 2.5-2.5 2.5 1.12 2.5 2.5zm9.2 3.95c0 1.38-1.13 2.5-2.5 2.5-1.4 0-2.5-1.12-2.5-2.5s1.1-2.5 2.5-2.5c1.37 0 2.5 1.12 2.5 2.5zm9.18 3.95c0 1.38-1.1 2.5-2.5 2.5-1.37 0-2.5-1.12-2.5-2.5s1.13-2.5 2.5-2.5c1.4 0 2.5 1.12 2.5 2.5zm9.2 3.94c0 1.4-1.12 2.5-2.5 2.5-1.4 0-2.5-1.1-2.5-2.5 0-1.37 1.1-2.5 2.5-2.5 1.38 0 2.5 1.13 2.5 2.5zm9.18 3.96c0 1.38-1.12 2.5-2.5 2.5s-2.5-1.12-2.5-2.5 1.12-2.5 2.5-2.5 2.5 1.12 2.5 2.5zm9.2 3.95c0 1.4-1.13 2.5-2.5 2.5-1.4 0-2.5-1.1-2.5-2.5 0-1.37 1.1-2.5 2.5-2.5 1.37 0 2.5 1.13 2.5 2.5zm9.18 3.96c0 1.38-1.12 2.5-2.5 2.5s-2.5-1.12-2.5-2.5 1.12-2.5 2.5-2.5 2.5 1.12 2.5 2.5zm9.18 3.95c0 1.4-1.12 2.5-2.5 2.5s-2.5-1.1-2.5-2.5c0-1.37 1.12-2.5 2.5-2.5s2.5 1.13 2.5 2.5zm9.2 3.96c0 1.38-1.13 2.5-2.5 2.5-1.4 0-2.5-1.12-2.5-2.5s1.1-2.5 2.5-2.5c1.37 0 2.5 1.12 2.5 2.5zm9.18 3.95c0 1.4-1.12 2.5-2.5 2.5s-2.5-1.1-2.5-2.5c0-1.37 1.12-2.5 2.5-2.5s2.5 1.13 2.5 2.5zm9.18 3.96c0 1.38-1.1 2.5-2.5 2.5-1.38 0-2.5-1.12-2.5-2.5s1.12-2.5 2.5-2.5c1.4 0 2.5 1.12 2.5 2.5zm9.2 3.95c0 1.4-1.13 2.5-2.5 2.5-1.4 0-2.5-1.1-2.5-2.5 0-1.37 1.1-2.5 2.5-2.5 1.37 0 2.5 1.13 2.5 2.5zm9.18 3.96c0 1.38-1.12 2.5-2.5 2.5s-2.5-1.12-2.5-2.5 1.12-2.5 2.5-2.5 2.5 1.12 2.5 2.5zm9.2 3.95c0 1.4-1.13 2.5-2.5 2.5-1.4 0-2.5-1.1-2.5-2.5 0-1.37 1.1-2.5 2.5-2.5 1.37 0 2.5 1.13 2.5 2.5zm9.17 3.95c0 1.4-1.12 2.5-2.5 2.5s-2.5-1.1-2.5-2.5c0-1.38 1.12-2.5 2.5-2.5s2.5 1.12 2.5 2.5zm9.2 3.95c0 1.38-1.13 2.5-2.5 2.5-1.4 0-2.5-1.12-2.5-2.5s1.1-2.5 2.5-2.5c1.37 0 2.5 1.12 2.5 2.5zm9.18 3.95c0 1.38-1.12 2.5-2.5 2.5s-2.5-1.12-2.5-2.5 1.12-2.5 2.5-2.5 2.5 1.12 2.5 2.5zm9.18 3.95c0 1.38-1.1 2.5-2.5 2.5-1.37 0-2.5-1.12-2.5-2.5s1.13-2.5 2.5-2.5c1.4 0 2.5 1.12 2.5 2.5zm9.2 3.95c0 1.38-1.12 2.5-2.5 2.5s-2.5-1.12-2.5-2.5 1.12-2.5 2.5-2.5 2.5 1.12 2.5 2.5zm9.2 3.95c0 1.38-1.13 2.5-2.5 2.5-1.4 0-2.5-1.12-2.5-2.5s1.1-2.5 2.5-2.5c1.37 0 2.5 1.12 2.5 2.5zm9.18 3.95c0 1.38-1.12 2.5-2.5 2.5s-2.5-1.12-2.5-2.5 1.12-2.5 2.5-2.5 2.5 1.12 2.5 2.5zm9.18 3.95c0 1.38-1.12 2.5-2.5 2.5s-2.5-1.12-2.5-2.5 1.12-2.5 2.5-2.5 2.5 1.12 2.5 2.5zm9.2 3.95c0 1.38-1.13 2.5-2.5 2.5-1.4 0-2.5-1.12-2.5-2.5s1.1-2.5 2.5-2.5c1.37 0 2.5 1.12 2.5 2.5zm9.18 3.95c0 1.38-1.12 2.5-2.5 2.5s-2.5-1.12-2.5-2.5 1.12-2.5 2.5-2.5 2.5 1.12 2.5 2.5zm9.18 3.95c0 1.38-1.1 2.5-2.5 2.5-1.38 0-2.5-1.12-2.5-2.5s1.12-2.5 2.5-2.5c1.4 0 2.5 1.12 2.5 2.5zm9.2 3.94c0 1.38-1.13 2.5-2.5 2.5-1.4 0-2.5-1.12-2.5-2.5 0-1.4 1.1-2.5 2.5-2.5 1.37 0 2.5 1.1 2.5 2.5zm9.18 3.94c0 1.38-1.12 2.5-2.5 2.5s-2.5-1.12-2.5-2.5 1.12-2.5 2.5-2.5 2.5 1.12 2.5 2.5zm9.2 3.95c0 1.37-1.13 2.5-2.5 2.5-1.4 0-2.5-1.13-2.5-2.5 0-1.4 1.1-2.5 2.5-2.5 1.37 0 2.5 1.1 2.5 2.5zm9.17 3.94c0 1.38-1.12 2.5-2.5 2.5s-2.5-1.12-2.5-2.5 1.12-2.5 2.5-2.5 2.5 1.12 2.5 2.5zm9.2 3.95c0 1.37-1.13 2.5-2.5 2.5-1.4 0-2.5-1.13-2.5-2.5 0-1.4 1.1-2.5 2.5-2.5 1.37 0 2.5 1.1 2.5 2.5zm9.18 3.94c0 1.38-1.12 2.5-2.5 2.5s-2.5-1.12-2.5-2.5 1.12-2.5 2.5-2.5 2.5 1.12 2.5 2.5zm9.18 3.95c0 1.37-1.1 2.5-2.5 2.5-1.38 0-2.5-1.13-2.5-2.5 0-1.4 1.12-2.5 2.5-2.5 1.4 0 2.5 1.1 2.5 2.5zm9.2 3.94c0 1.38-1.13 2.5-2.5 2.5-1.4 0-2.5-1.12-2.5-2.5s1.1-2.5 2.5-2.5c1.37 0 2.5 1.12 2.5 2.5zm9.18 3.95c0 1.37-1.1 2.5-2.5 2.5-1.37 0-2.5-1.13-2.5-2.5 0-1.4 1.13-2.5 2.5-2.5 1.4 0 2.5 1.1 2.5 2.5zm9.2 3.94c0 1.38-1.12 2.5-2.5 2.5s-2.5-1.12-2.5-2.5 1.12-2.5 2.5-2.5 2.5 1.12 2.5 2.5zm9.18 3.95c0 1.37-1.12 2.5-2.5 2.5s-2.5-1.13-2.5-2.5c0-1.4 1.12-2.5 2.5-2.5s2.5 1.1 2.5 2.5zm9.2 3.93c0 1.4-1.13 2.5-2.5 2.5-1.4 0-2.5-1.1-2.5-2.5 0-1.38 1.1-2.5 2.5-2.5 1.37 0 2.5 1.12 2.5 2.5zm9.18 3.95c0 1.38-1.12 2.5-2.5 2.5s-2.5-1.12-2.5-2.5 1.12-2.5 2.5-2.5 2.5 1.12 2.5 2.5zm9.18 3.95c0 1.38-1.1 2.5-2.5 2.5-1.38 0-2.5-1.12-2.5-2.5s1.12-2.5 2.5-2.5c1.4 0 2.5 1.12 2.5 2.5zm9.2 3.95c0 1.38-1.13 2.5-2.5 2.5-1.4 0-2.5-1.12-2.5-2.5s1.1-2.5 2.5-2.5c1.37 0 2.5 1.12 2.5 2.5zm9.18 3.95c0 1.38-1.12 2.5-2.5 2.5s-2.5-1.12-2.5-2.5 1.12-2.5 2.5-2.5 2.5 1.12 2.5 2.5zm9.2 3.95c0 1.38-1.13 2.5-2.5 2.5-1.4 0-2.5-1.12-2.5-2.5s1.1-2.5 2.5-2.5c1.37 0 2.5 1.12 2.5 2.5zm9.17 3.95c0 1.38-1.13 2.5-2.5 2.5-1.4 0-2.5-1.12-2.5-2.5s1.1-2.5 2.5-2.5c1.37 0 2.5 1.12 2.5 2.5zm9.18 3.95c0 1.38-1.12 2.5-2.5 2.5s-2.5-1.12-2.5-2.5 1.12-2.5 2.5-2.5 2.5 1.12 2.5 2.5zm9.2 3.95c0 1.38-1.13 2.5-2.5 2.5-1.4 0-2.5-1.12-2.5-2.5s1.1-2.5 2.5-2.5c1.37 0 2.5 1.12 2.5 2.5zm9.17 3.95c0 1.38-1.1 2.5-2.5 2.5-1.38 0-2.5-1.12-2.5-2.5s1.12-2.5 2.5-2.5c1.4 0 2.5 1.12 2.5 2.5zm9.2 3.95c0 1.38-1.13 2.5-2.5 2.5-1.4 0-2.5-1.12-2.5-2.5s1.1-2.5 2.5-2.5c1.37 0 2.5 1.12 2.5 2.5zm9.18 3.94c0 1.4-1.12 2.5-2.5 2.5s-2.5-1.1-2.5-2.5c0-1.38 1.12-2.5 2.5-2.5s2.5 1.12 2.5 2.5zm9.2 3.95c0 1.38-1.13 2.5-2.5 2.5-1.4 0-2.5-1.12-2.5-2.5s1.1-2.5 2.5-2.5c1.37 0 2.5 1.12 2.5 2.5zm9.17 3.95c0 1.38-1.12 2.5-2.5 2.5s-2.5-1.12-2.5-2.5 1.12-2.5 2.5-2.5 2.5 1.12 2.5 2.5zm9.2 3.95c0 1.38-1.13 2.5-2.5 2.5-1.4 0-2.5-1.12-2.5-2.5s1.1-2.5 2.5-2.5c1.37 0 2.5 1.12 2.5 2.5zm9.18 3.95c0 1.38-1.12 2.5-2.5 2.5s-2.5-1.12-2.5-2.5 1.12-2.5 2.5-2.5 2.5 1.12 2.5 2.5zm9.18 3.95c0 1.38-1.12 2.5-2.5 2.5s-2.5-1.12-2.5-2.5 1.12-2.5 2.5-2.5 2.5 1.12 2.5 2.5zm9.2 3.95c0 1.38-1.13 2.5-2.5 2.5-1.4 0-2.5-1.12-2.5-2.5s1.1-2.5 2.5-2.5c1.37 0 2.5 1.12 2.5 2.5zm9.18 3.95c0 1.38-1.12 2.5-2.5 2.5s-2.5-1.12-2.5-2.5 1.12-2.5 2.5-2.5 2.5 1.12 2.5 2.5zm9.2 3.95c0 1.38-1.13 2.5-2.5 2.5-1.4 0-2.5-1.12-2.5-2.5s1.1-2.5 2.5-2.5c1.37 0 2.5 1.12 2.5 2.5zm9.17 3.95c0 1.38-1.1 2.5-2.5 2.5-1.37 0-2.5-1.12-2.5-2.5s1.13-2.5 2.5-2.5c1.4 0 2.5 1.12 2.5 2.5zm9.2 3.95c0 1.38-1.12 2.5-2.5 2.5s-2.5-1.12-2.5-2.5 1.12-2.5 2.5-2.5 2.5 1.12 2.5 2.5zm9.2 3.94c0 1.4-1.13 2.5-2.5 2.5-1.4 0-2.5-1.1-2.5-2.5 0-1.37 1.1-2.5 2.5-2.5 1.37 0 2.5 1.13 2.5 2.5zm9.17 3.96c0 1.38-1.12 2.5-2.5 2.5s-2.5-1.12-2.5-2.5 1.12-2.5 2.5-2.5 2.5 1.12 2.5 2.5zm9.2 3.95c0 1.4-1.13 2.5-2.5 2.5-1.4 0-2.5-1.1-2.5-2.5 0-1.37 1.1-2.5 2.5-2.5 1.37 0 2.5 1.13 2.5 2.5zm9.18 3.96c0 1.38-1.12 2.5-2.5 2.5s-2.5-1.12-2.5-2.5 1.12-2.5 2.5-2.5 2.5 1.12 2.5 2.5zm9.2 3.95c0 1.4-1.13 2.5-2.5 2.5-1.4 0-2.5-1.1-2.5-2.5 0-1.37 1.1-2.5 2.5-2.5 1.37 0 2.5 1.13 2.5 2.5zm9.17 3.96c0 1.38-1.12 2.5-2.5 2.5s-2.5-1.12-2.5-2.5 1.12-2.5 2.5-2.5 2.5 1.12 2.5 2.5zm9.2 3.95c0 1.4-1.13 2.5-2.5 2.5-1.4 0-2.5-1.1-2.5-2.5 0-1.37 1.1-2.5 2.5-2.5 1.37 0 2.5 1.13 2.5 2.5zm9.18 3.96c0 1.38-1.12 2.5-2.5 2.5s-2.5-1.12-2.5-2.5 1.12-2.5 2.5-2.5 2.5 1.12 2.5 2.5zm9.18 3.95c0 1.4-1.12 2.5-2.5 2.5s-2.5-1.1-2.5-2.5c0-1.37 1.12-2.5 2.5-2.5s2.5 1.13 2.5 2.5zm9.2 3.96c0 1.38-1.13 2.5-2.5 2.5-1.4 0-2.5-1.12-2.5-2.5s1.1-2.5 2.5-2.5c1.37 0 2.5 1.12 2.5 2.5zm9.18 3.95c0 1.4-1.12 2.5-2.5 2.5s-2.5-1.1-2.5-2.5c0-1.37 1.12-2.5 2.5-2.5s2.5 1.13 2.5 2.5zm9.2 3.95c0 1.4-1.13 2.5-2.5 2.5-1.4 0-2.5-1.1-2.5-2.5 0-1.38 1.1-2.5 2.5-2.5 1.37 0 2.5 1.12 2.5 2.5zm9.17 3.95c0 1.38-1.12 2.5-2.5 2.5s-2.5-1.12-2.5-2.5 1.12-2.5 2.5-2.5 2.5 1.12 2.5 2.5zm9.2 3.95c0 1.38-1.13 2.5-2.5 2.5-1.4 0-2.5-1.12-2.5-2.5s1.1-2.5 2.5-2.5c1.37 0 2.5 1.12 2.5 2.5zm9.18 3.95c0 1.38-1.1 2.5-2.5 2.5-1.37 0-2.5-1.12-2.5-2.5s1.13-2.5 2.5-2.5c1.4 0 2.5 1.12 2.5 2.5zm9.2 3.95c0 1.38-1.13 2.5-2.5 2.5-1.4 0-2.5-1.12-2.5-2.5s1.1-2.5 2.5-2.5c1.37 0 2.5 1.12 2.5 2.5zm9.18 3.95c0 1.38-1.12 2.5-2.5 2.5s-2.5-1.12-2.5-2.5 1.12-2.5 2.5-2.5 2.5 1.12 2.5 2.5zm9.2 3.95c0 1.38-1.13 2.5-2.5 2.5-1.4 0-2.5-1.12-2.5-2.5s1.1-2.5 2.5-2.5c1.37 0 2.5 1.12 2.5 2.5zm9.18 3.95c0 1.38-1.12 2.5-2.5 2.5-1.4 0-2.5-1.12-2.5-2.5s1.1-2.5 2.5-2.5c1.38 0 2.5 1.12 2.5 2.5zm9.18 3.95c0 1.38-1.12 2.5-2.5 2.5s-2.5-1.12-2.5-2.5 1.12-2.5 2.5-2.5 2.5 1.12 2.5 2.5zm9.2 3.95c0 1.38-1.13 2.5-2.5 2.5-1.4 0-2.5-1.12-2.5-2.5s1.1-2.5 2.5-2.5c1.37 0 2.5 1.12 2.5 2.5zm9.18 3.95c0 1.38-1.12 2.5-2.5 2.5s-2.5-1.12-2.5-2.5 1.12-2.5 2.5-2.5 2.5 1.12 2.5 2.5zm9.18 3.94c0 1.38-1.12 2.5-2.5 2.5s-2.5-1.12-2.5-2.5c0-1.4 1.12-2.5 2.5-2.5s2.5 1.1 2.5 2.5zm9.2 3.94c0 1.38-1.13 2.5-2.5 2.5-1.4 0-2.5-1.12-2.5-2.5s1.1-2.5 2.5-2.5c1.37 0 2.5 1.12 2.5 2.5zm9.18 3.95c0 1.37-1.12 2.5-2.5 2.5s-2.5-1.13-2.5-2.5c0-1.4 1.12-2.5 2.5-2.5s2.5 1.1 2.5 2.5zm9.2 3.94c0 1.38-1.13 2.5-2.5 2.5-1.4 0-2.5-1.12-2.5-2.5s1.1-2.5 2.5-2.5c1.37 0 2.5 1.12 2.5 2.5zm9.17 3.95c0 1.37-1.12 2.5-2.5 2.5s-2.5-1.13-2.5-2.5c0-1.4 1.12-2.5 2.5-2.5s2.5 1.1 2.5 2.5zm9.2 3.94c0 1.38-1.13 2.5-2.5 2.5-1.4 0-2.5-1.12-2.5-2.5s1.1-2.5 2.5-2.5c1.37 0 2.5 1.12 2.5 2.5zm9.18 3.95c0 1.37-1.12 2.5-2.5 2.5s-2.5-1.13-2.5-2.5c0-1.4 1.12-2.5 2.5-2.5s2.5 1.1 2.5 2.5zm9.18 3.94c0 1.38-1.1 2.5-2.5 2.5-1.37 0-2.5-1.12-2.5-2.5s1.13-2.5 2.5-2.5c1.4 0 2.5 1.12 2.5 2.5zm9.2 3.95c0 1.37-1.12 2.5-2.5 2.5s-2.5-1.13-2.5-2.5c0-1.4 1.12-2.5 2.5-2.5s2.5 1.1 2.5 2.5zm9.2 3.94c0 1.38-1.13 2.5-2.5 2.5-1.4 0-2.5-1.12-2.5-2.5s1.1-2.5 2.5-2.5c1.37 0 2.5 1.12 2.5 2.5zm9.18 3.95c0 1.37-1.12 2.5-2.5 2.5-1.4 0-2.5-1.13-2.5-2.5 0-1.4 1.1-2.5 2.5-2.5 1.38 0 2.5 1.1 2.5 2.5zm9.18 3.93c0 1.4-1.12 2.5-2.5 2.5s-2.5-1.1-2.5-2.5c0-1.38 1.12-2.5 2.5-2.5s2.5 1.12 2.5 2.5zm9.2 3.95c0 1.38-1.13 2.5-2.5 2.5-1.4 0-2.5-1.12-2.5-2.5s1.1-2.5 2.5-2.5c1.37 0 2.5 1.12 2.5 2.5zm9.18 3.95c0 1.38-1.12 2.5-2.5 2.5s-2.5-1.12-2.5-2.5 1.12-2.5 2.5-2.5 2.5 1.12 2.5 2.5zm9.18 3.95c0 1.38-1.12 2.5-2.5 2.5s-2.5-1.12-2.5-2.5 1.12-2.5 2.5-2.5 2.5 1.12 2.5 2.5zm9.2 3.95c0 1.38-1.13 2.5-2.5 2.5-1.4 0-2.5-1.12-2.5-2.5s1.1-2.5 2.5-2.5c1.37 0 2.5 1.12 2.5 2.5zm9.18 3.95c0 1.38-1.12 2.5-2.5 2.5s-2.5-1.12-2.5-2.5 1.12-2.5 2.5-2.5 2.5 1.12 2.5 2.5zm9.2 3.95c0 1.38-1.13 2.5-2.5 2.5-1.4 0-2.5-1.12-2.5-2.5s1.1-2.5 2.5-2.5c1.37 0 2.5 1.12 2.5 2.5zm9.17 3.95c0 1.38-1.12 2.5-2.5 2.5s-2.5-1.12-2.5-2.5 1.12-2.5 2.5-2.5 2.5 1.12 2.5 2.5zm9.2 3.95c0 1.38-1.13 2.5-2.5 2.5-1.4 0-2.5-1.12-2.5-2.5s1.1-2.5 2.5-2.5c1.37 0 2.5 1.12 2.5 2.5zm9.18 3.95c0 1.38-1.12 2.5-2.5 2.5s-2.5-1.12-2.5-2.5 1.12-2.5 2.5-2.5 2.5 1.12 2.5 2.5zm9.18 3.95c0 1.38-1.12 2.5-2.5 2.5s-2.5-1.12-2.5-2.5 1.12-2.5 2.5-2.5 2.5 1.12 2.5 2.5zm9.2 3.94c0 1.4-1.13 2.5-2.5 2.5-1.4 0-2.5-1.1-2.5-2.5 0-1.38 1.1-2.5 2.5-2.5 1.37 0 2.5 1.12 2.5 2.5zm9.18 3.95c0 1.38-1.1 2.5-2.5 2.5-1.37 0-2.5-1.12-2.5-2.5s1.13-2.5 2.5-2.5c1.4 0 2.5 1.12 2.5 2.5zm9.2 3.95c0 1.38-1.12 2.5-2.5 2.5-1.4 0-2.5-1.12-2.5-2.5s1.1-2.5 2.5-2.5c1.38 0 2.5 1.12 2.5 2.5zm9.18 3.95c0 1.38-1.12 2.5-2.5 2.5s-2.5-1.12-2.5-2.5 1.12-2.5 2.5-2.5 2.5 1.12 2.5 2.5zm9.2 3.95c0 1.38-1.13 2.5-2.5 2.5-1.4 0-2.5-1.12-2.5-2.5s1.1-2.5 2.5-2.5c1.37 0 2.5 1.12 2.5 2.5zm9.18 3.95c0 1.38-1.12 2.5-2.5 2.5s-2.5-1.12-2.5-2.5 1.12-2.5 2.5-2.5 2.5 1.12 2.5 2.5zm9.18 3.95c0 1.38-1.12 2.5-2.5 2.5s-2.5-1.12-2.5-2.5 1.12-2.5 2.5-2.5 2.5 1.12 2.5 2.5zm9.2 3.95c0 1.38-1.13 2.5-2.5 2.5-1.4 0-2.5-1.12-2.5-2.5s1.1-2.5 2.5-2.5c1.37 0 2.5 1.12 2.5 2.5zm9.18 3.95c0 1.38-1.12 2.5-2.5 2.5s-2.5-1.12-2.5-2.5 1.12-2.5 2.5-2.5 2.5 1.12 2.5 2.5zm9.18 3.95c0 1.38-1.1 2.5-2.5 2.5-1.38 0-2.5-1.12-2.5-2.5s1.12-2.5 2.5-2.5c1.4 0 2.5 1.12 2.5 2.5zm9.2 3.95c0 1.38-1.13 2.5-2.5 2.5-1.4 0-2.5-1.12-2.5-2.5s1.1-2.5 2.5-2.5c1.37 0 2.5 1.12 2.5 2.5zm9.18 3.95c0 1.38-1.12 2.5-2.5 2.5s-2.5-1.12-2.5-2.5c0-1.4 1.12-2.5 2.5-2.5s2.5 1.1 2.5 2.5zm9.2 3.94c0 1.38-1.13 2.5-2.5 2.5-1.4 0-2.5-1.12-2.5-2.5s1.1-2.5 2.5-2.5c1.37 0 2.5 1.12 2.5 2.5zm9.17 3.95c0 1.4-1.12 2.5-2.5 2.5s-2.5-1.1-2.5-2.5c0-1.37 1.12-2.5 2.5-2.5s2.5 1.13 2.5 2.5zm9.2 3.96c0 1.38-1.13 2.5-2.5 2.5-1.4 0-2.5-1.12-2.5-2.5s1.1-2.5 2.5-2.5c1.37 0 2.5 1.12 2.5 2.5zm9.18 3.95c0 1.4-1.12 2.5-2.5 2.5s-2.5-1.1-2.5-2.5c0-1.37 1.12-2.5 2.5-2.5s2.5 1.13 2.5 2.5zm9.18 3.96c0 1.38-1.1 2.5-2.5 2.5-1.37 0-2.5-1.12-2.5-2.5s1.13-2.5 2.5-2.5c1.4 0 2.5 1.12 2.5 2.5zm9.2 3.95c0 1.4-1.12 2.5-2.5 2.5s-2.5-1.1-2.5-2.5c0-1.37 1.12-2.5 2.5-2.5s2.5 1.13 2.5 2.5zm9.2 3.96c0 1.38-1.13 2.5-2.5 2.5-1.4 0-2.5-1.12-2.5-2.5s1.1-2.5 2.5-2.5c1.37 0 2.5 1.12 2.5 2.5zm9.18 3.95c0 1.4-1.12 2.5-2.5 2.5s-2.5-1.1-2.5-2.5c0-1.37 1.12-2.5 2.5-2.5s2.5 1.13 2.5 2.5zm9.18 3.96c0 1.38-1.12 2.5-2.5 2.5s-2.5-1.12-2.5-2.5 1.12-2.5 2.5-2.5 2.5 1.12 2.5 2.5zm9.2 3.95c0 1.4-1.13 2.5-2.5 2.5-1.4 0-2.5-1.1-2.5-2.5 0-1.37 1.1-2.5 2.5-2.5 1.37 0 2.5 1.13 2.5 2.5zm9.18 3.96c0 1.38-1.12 2.5-2.5 2.5s-2.5-1.12-2.5-2.5c0-1.4 1.12-2.5 2.5-2.5s2.5 1.1 2.5 2.5zm9.18 3.94c0 1.38-1.1 2.5-2.5 2.5-1.38 0-2.5-1.12-2.5-2.5s1.12-2.5 2.5-2.5c1.4 0 2.5 1.12 2.5 2.5zm9.2 3.95c0 1.38-1.13 2.5-2.5 2.5-1.4 0-2.5-1.12-2.5-2.5s1.1-2.5 2.5-2.5c1.37 0 2.5 1.12 2.5 2.5zm9.18 3.95c0 1.38-1.12 2.5-2.5 2.5s-2.5-1.12-2.5-2.5 1.12-2.5 2.5-2.5 2.5 1.12 2.5 2.5zm9.2 3.95c0 1.38-1.13 2.5-2.5 2.5-1.4 0-2.5-1.12-2.5-2.5s1.1-2.5 2.5-2.5c1.37 0 2.5 1.12 2.5 2.5zm9.17 3.95c0 1.38-1.12 2.5-2.5 2.5s-2.5-1.12-2.5-2.5 1.12-2.5 2.5-2.5 2.5 1.12 2.5 2.5zm9.2 3.95c0 1.38-1.13 2.5-2.5 2.5-1.4 0-2.5-1.12-2.5-2.5s1.1-2.5 2.5-2.5c1.37 0 2.5 1.12 2.5 2.5zm9.18 3.95c0 1.38-1.12 2.5-2.5 2.5s-2.5-1.12-2.5-2.5 1.12-2.5 2.5-2.5 2.5 1.12 2.5 2.5zm9.18 3.95c0 1.38-1.1 2.5-2.5 2.5-1.38 0-2.5-1.12-2.5-2.5s1.12-2.5 2.5-2.5c1.4 0 2.5 1.12 2.5 2.5zm9.2 3.95c0 1.38-1.13 2.5-2.5 2.5-1.4 0-2.5-1.12-2.5-2.5s1.1-2.5 2.5-2.5c1.37 0 2.5 1.12 2.5 2.5zm9.18 3.95c0 1.38-1.1 2.5-2.5 2.5-1.37 0-2.5-1.12-2.5-2.5s1.13-2.5 2.5-2.5c1.4 0 2.5 1.12 2.5 2.5zm9.2 3.95c0 1.38-1.12 2.5-2.5 2.5s-2.5-1.12-2.5-2.5c0-1.4 1.12-2.5 2.5-2.5s2.5 1.1 2.5 2.5zm9.18 3.94c0 1.38-1.12 2.5-2.5 2.5s-2.5-1.12-2.5-2.5 1.12-2.5 2.5-2.5 2.5 1.12 2.5 2.5zm9.2 3.95c0 1.37-1.13 2.5-2.5 2.5-1.4 0-2.5-1.13-2.5-2.5 0-1.4 1.1-2.5 2.5-2.5 1.37 0 2.5 1.1 2.5 2.5zm9.18 3.94c0 1.38-1.12 2.5-2.5 2.5s-2.5-1.12-2.5-2.5 1.12-2.5 2.5-2.5 2.5 1.12 2.5 2.5zm9.18 3.95c0 1.37-1.1 2.5-2.5 2.5-1.38 0-2.5-1.13-2.5-2.5 0-1.4 1.12-2.5 2.5-2.5 1.4 0 2.5 1.1 2.5 2.5zm9.2 3.94c0 1.38-1.13 2.5-2.5 2.5-1.4 0-2.5-1.12-2.5-2.5s1.1-2.5 2.5-2.5c1.37 0 2.5 1.12 2.5 2.5zm9.18 3.95c0 1.37-1.12 2.5-2.5 2.5s-2.5-1.13-2.5-2.5c0-1.4 1.12-2.5 2.5-2.5s2.5 1.1 2.5 2.5zm9.2 3.94c0 1.38-1.13 2.5-2.5 2.5-1.4 0-2.5-1.12-2.5-2.5s1.1-2.5 2.5-2.5c1.37 0 2.5 1.12 2.5 2.5zm9.17 3.95c0 1.37-1.13 2.5-2.5 2.5-1.4 0-2.5-1.13-2.5-2.5 0-1.4 1.1-2.5 2.5-2.5 1.37 0 2.5 1.1 2.5 2.5zm9.18 3.94c0 1.38-1.12 2.5-2.5 2.5s-2.5-1.12-2.5-2.5 1.12-2.5 2.5-2.5 2.5 1.12 2.5 2.5zm9.2 3.95c0 1.37-1.13 2.5-2.5 2.5-1.4 0-2.5-1.13-2.5-2.5 0-1.4 1.1-2.5 2.5-2.5 1.37 0 2.5 1.1 2.5 2.5zm9.17 3.94c0 1.38-1.1 2.5-2.5 2.5-1.38 0-2.5-1.12-2.5-2.5 0-1.4 1.12-2.5 2.5-2.5 1.4 0 2.5 1.1 2.5 2.5zm9.2 3.94c0 1.38-1.13 2.5-2.5 2.5-1.4 0-2.5-1.12-2.5-2.5s1.1-2.5 2.5-2.5c1.37 0 2.5 1.12 2.5 2.5zm9.18 3.95c0 1.38-1.12 2.5-2.5 2.5s-2.5-1.12-2.5-2.5 1.12-2.5 2.5-2.5 2.5 1.12 2.5 2.5zm9.2 3.95c0 1.38-1.13 2.5-2.5 2.5-1.4 0-2.5-1.12-2.5-2.5s1.1-2.5 2.5-2.5c1.37 0 2.5 1.12 2.5 2.5zm9.17 3.95c0 1.38-1.12 2.5-2.5 2.5s-2.5-1.12-2.5-2.5 1.12-2.5 2.5-2.5 2.5 1.12 2.5 2.5zm9.2 3.95c0 1.38-1.13 2.5-2.5 2.5-1.4 0-2.5-1.12-2.5-2.5s1.1-2.5 2.5-2.5c1.37 0 2.5 1.12 2.5 2.5zm9.18 3.95c0 1.38-1.12 2.5-2.5 2.5s-2.5-1.12-2.5-2.5 1.12-2.5 2.5-2.5 2.5 1.12 2.5 2.5zm9.18 3.95c0 1.38-1.1 2.5-2.5 2.5-1.38 0-2.5-1.12-2.5-2.5s1.12-2.5 2.5-2.5c1.4 0 2.5 1.12 2.5 2.5z" fill="#5e5e5e"/><path d="M20343.84 15082.13l-1.97 4.6-1.37-.6v-5.44z" fill="#5e5e5e"/><path d="M22094.57 15837.4l-14.94-1.38 3.66-8.5z" stroke="#5e5e5e" stroke-width="5" fill="#5e5e5e"/><path d="M19700 16026c0-3.3 2.7-6 6-6h748c3.3 0 6 2.7 6 6v328c0 3.3-2.7 6-6 6h-748c-3.3 0-6-2.7-6-6z" stroke="#000" stroke-width="9" fill="#fff" fill-opacity="0"/><use xlink:href="#g" transform="matrix(1,0,0,1,19705,16025) translate(0 71.11111111111111)"/><use xlink:href="#h" transform="matrix(1,0,0,1,19705,16025) translate(389.87654320987656 71.11111111111111)"/><path d="M20300 17010c0 27.6-107.45 50-240 50s-240-22.4-240-50v-400c0-27.6 107.45-50 240-50s240 22.4 240 50z" stroke="#000" stroke-width="9" fill="#fff"/><path d="M20300 16610c0 27.6-107.45 50-240 50s-240-22.4-240-50" stroke="#000" stroke-width="9" fill="none"/><use xlink:href="#i" transform="matrix(1,0,0,1,19825,16665) translate(52.40740740740739 156.42361111111111)"/><use xlink:href="#j" transform="matrix(1,0,0,1,19825,16665) translate(45 263.0902777777778)"/><path d="M20620 16406c0-3.3 2.7-6 6-6h548c3.3 0 6 2.7 6 6v468c0 3.3-2.7 6-6 6h-548c-3.3 0-6-2.7-6-6z" stroke="#000" stroke-width="9" fill="#fff" fill-opacity="0"/><use xlink:href="#k" transform="matrix(1,0,0,1,20625,16405) translate(0 71.11111111111111)"/><path d="M21320 16406c0-3.3 2.7-6 6-6h628c3.3 0 6 2.7 6 6v468c0 3.3-2.7 6-6 6h-628c-3.3 0-6-2.7-6-6z" stroke="#000" stroke-width="9" fill="#fff" fill-opacity="0"/><use xlink:href="#l" transform="matrix(1,0,0,1,21325,16405) translate(0 71.11111111111111)"/><path d="M18780 16666c0-3.3 2.7-6 6-6h528c3.3 0 6 2.7 6 6v288c0 3.3-2.7 6-6 6h-528c-3.3 0-6-2.7-6-6z" stroke="#000" stroke-width="3" fill="#fff"/><use xlink:href="#m" transform="matrix(1,0,0,1,18785,16665) translate(45.740740740740705 107.36111111111111)"/><use xlink:href="#n" transform="matrix(1,0,0,1,18785,16665) translate(126.85185185185185 214.0277777777778)"/><path d="M19653 16805.57h-296.05" stroke="#5e5e5e" stroke-width="10" fill="none"/><path d="M19658 16810.57h-5.13v-10h5.13z" fill="#5e5e5e"/><path d="M19337.68 16805.57l14.27-4.64v9.27z" stroke="#5e5e5e" stroke-width="10" fill="#5e5e5e"/><path d="M18780 16244.33c0-3.3 2.7-6 6-6h528c3.3 0 6 2.7 6 6v211.34c0 3.3-2.7 6-6 6h-528c-3.3 0-6-2.7-6-6z" stroke="#000" stroke-width="3" fill="#fff"/><use xlink:href="#o" transform="matrix(1,0,0,1,18785,16243.333333333334) translate(151.66666666666669 71.11111111111111)"/><use xlink:href="#p" transform="matrix(1,0,0,1,18785,16243.333333333334) translate(112.28395061728395 177.77777777777777)"/><path d="M19356.95 16350h265.6" stroke="#5e5e5e" stroke-width="10" fill="none"/><path d="M19337.7 16350l14.25-4.64v9.28zM19641.82 16350l-14.27 4.64v-9.28z" stroke="#5e5e5e" stroke-width="10" fill="#5e5e5e"/><path d="M18720 15166c0-3.3 2.7-6 6-6h588c3.3 0 6 2.7 6 6v531.33c0 3.32-2.7 6-6 6h-588c-3.3 0-6-2.68-6-6z" stroke="#000" stroke-width="3" fill="#fff"/><use xlink:href="#q" transform="matrix(1,0,0,1,18725,15165) translate(161.79012345679013 121.17361111111111)"/><use xlink:href="#r" transform="matrix(1,0,0,1,18725,15165) translate(403.5185185185185 121.17361111111111)"/><use xlink:href="#s" transform="matrix(1,0,0,1,18725,15165) translate(26.481481481481467 227.8402777777778)"/><use xlink:href="#r" transform="matrix(1,0,0,1,18725,15165) translate(538.8271604938273 227.8402777777778)"/><use xlink:href="#t" transform="matrix(1,0,0,1,18725,15165) translate(135 334.50694444444446)"/><use xlink:href="#u" transform="matrix(1,0,0,1,18725,15165) translate(129.69135802469134 441.1736111111112)"/><path d="M19020.16 15709.83l.14 2.3.35 3.33.47 3.16.57 3 .67 2.9.77 2.77.87 2.68.98 2.6 1.07 2.54 1.17 2.48 1.27 2.44 1.4 2.4 1.5 2.4 1.65 2.37 1.8 2.38 1.97 2.38 2.16 2.4 2.38 2.43 2.63 2.46 2.93 2.53 3.3 2.6 3.73 2.7 4.28 2.86 5 3 5.92 3.27 7.28 3.6 9.4 4.18 13.6 5.37 77.38 27.3 9.4 4.2 7.3 3.6 5.92 3.25 5 3.02 4.27 2.84 3.75 2.72 3.3 2.6 2.93 2.54 2.63 2.47 2.4 2.44 2.15 2.4 1.97 2.38 1.8 2.37 1.65 2.36 1.5 2.4 1.4 2.4.54 1.03" stroke="#5e5e5e" stroke-width="10" fill="none"/><path d="M19025.1 15709.86l-10 .2-.1-5.23h10z" fill="#5e5e5e"/><path d="M19239 15880.1l-7.75-12.84 9.03-2.1z" stroke="#5e5e5e" stroke-width="10" fill="#5e5e5e"/><path d="M20074.98 16399.95v120.4" stroke="#5e5e5e" stroke-width="10" fill="none"/><path d="M20074.98 16380.68l4.64 14.27h-9.28zM20074.98 16539.63l-4.64-14.27h9.28z" stroke="#5e5e5e" stroke-width="10" fill="#5e5e5e"/><path d="M20580.23 16643.03l-5.5 1.04-6.9 1.62-6.66 1.85-6.46 2.1-6.32 2.35-6.23 2.62-6.2 2.93-6.26 3.26-6.37 3.7-6.57 4.16-6.94 4.82-7.53 5.73-8.6 7.13-10.9 9.84-56.5 54.83-8.6 7.12-7.52 5.73-6.94 4.82-6.57 4.17-6.36 3.68-6.24 3.26-6.2 2.93-6.24 2.63-6.33 2.35-6.47 2.1-6.65 1.86-6.9 1.62-5.5 1.05" stroke="#5e5e5e" stroke-width="10" fill="none"/><path d="M20599.37 16641.38l-13.8 5.84-.8-9.24zM20320.62 16795.95l13.82-5.84.8 9.25z" stroke="#5e5e5e" stroke-width="10" fill="#5e5e5e"/><path d="M21638.66 16919.93l-.22 3.56-1.67 15.95-2.1 14.18-2.4 12.7-2.7 11.44-2.9 10.4-3.07 9.5-3.24 8.7-3.4 8.07-3.5 7.47-3.64 6.98-3.77 6.52-3.9 6.13-4 5.78-4.15 5.48-4.3 5.2-4.45 4.93-4.6 4.72-4.8 4.5-5 4.33-5.24 4.14-5.48 3.97-5.76 3.83-6.08 3.7-6.45 3.53-6.85 3.4-7.32 3.25-7.86 3.1-8.47 2.96-9.2 2.77-10.03 2.6-11.03 2.33-12.2 2.06-13.66 1.7-15.4 1.3-17.56.72h-20.35l-23.95-1.03-28.8-2.45-35.7-4.54-46.2-7.85-64.6-13.83-109.65-28.45-482.8-137.18-86.4-18.48-65.68-11.17-53.2-6.76-44.66-3.8-38.4-1.62-12.36-.13" stroke="#5e5e5e" stroke-width="10" fill="none"/><path d="M21639.4 16900.68l4.08 14.44-9.26-.35z" stroke="#5e5e5e" stroke-width="10" fill="#5e5e5e"/><path d="M20309.68 16879.55l-.1 10-5.08-.05v-10z" fill="#5e5e5e"/><defs><path d="M24 0v-248h52V0H24" id="v"/><path d="M135-194c87-1 58 113 63 194h-50c-7-57 23-157-34-157-59 0-34 97-39 157H25l-1-190h47c2 12-1 28 3 38 12-26 28-41 61-42" id="w"/><path d="M128 0H69L1-190h53L99-40l48-150h52" id="x"/><path d="M185-48c-13 30-37 53-82 52C43 2 14-33 14-96s30-98 90-98c62 0 83 45 84 108H66c0 31 8 55 39 56 18 0 30-7 34-22zm-45-69c5-46-57-63-70-21-2 6-4 13-4 21h74" id="y"/><path d="M115-3C79 11 28 4 28-45v-112H4v-33h27l15-45h31v45h36v33H77v99c-1 23 16 31 38 25v30" id="z"/><path d="M110-194c64 0 96 36 96 99 0 64-35 99-97 99-61 0-95-36-95-99 0-62 34-99 96-99zm-1 164c35 0 45-28 45-65 0-40-10-65-43-65-34 0-45 26-45 65 0 36 10 65 43 65" id="A"/><path d="M135-150c-39-12-60 13-60 57V0H25l-1-190h47c2 13-1 29 3 40 6-28 27-53 61-41v41" id="B"/><path d="M123 10C108 53 80 86 19 72V37c35 8 53-11 59-39L3-190h52l48 148c12-52 28-100 44-148h51" id="C"/><g id="a"><use transform="matrix(0.24691358024691357,0,0,0.24691358024691357,0,0)" xlink:href="#v"/><use transform="matrix(0.24691358024691357,0,0,0.24691358024691357,24.691358024691358,0)" xlink:href="#w"/><use transform="matrix(0.24691358024691357,0,0,0.24691358024691357,78.76543209876543,0)" xlink:href="#x"/><use transform="matrix(0.24691358024691357,0,0,0.24691358024691357,128.14814814814815,0)" xlink:href="#y"/><use transform="matrix(0.24691358024691357,0,0,0.24691358024691357,177.53086419753086,0)" xlink:href="#w"/><use transform="matrix(0.24691358024691357,0,0,0.24691358024691357,231.60493827160494,0)" xlink:href="#z"/><use transform="matrix(0.24691358024691357,0,0,0.24691358024691357,260.98765432098764,0)" xlink:href="#A"/><use transform="matrix(0.24691358024691357,0,0,0.24691358024691357,315.0617283950617,0)" xlink:href="#B"/><use transform="matrix(0.24691358024691357,0,0,0.24691358024691357,349.6296296296296,0)" xlink:href="#C"/></g><path d="M24-248c120-7 223 5 221 122C244-46 201 0 124 0H24v-248zM76-40c74 7 117-18 117-86 0-67-45-88-117-82v168" id="D"/><path d="M220-157c-53 9-28 100-34 157h-49v-107c1-27-5-49-29-50C55-147 81-57 75 0H25l-1-190h47c2 12-1 28 3 38 10-53 101-56 108 0 13-22 24-43 59-42 82 1 51 116 57 194h-49v-107c-1-25-5-48-29-50" id="E"/><path d="M133-34C117-15 103 5 69 4 32 3 11-16 11-54c-1-60 55-63 116-61 1-26-3-47-28-47-18 1-26 9-28 27l-52-2c7-38 36-58 82-57s74 22 75 68l1 82c-1 14 12 18 25 15v27c-30 8-71 5-69-32zm-48 3c29 0 43-24 42-57-32 0-66-3-65 30 0 17 8 27 23 27" id="F"/><path d="M25-224v-37h50v37H25zM25 0v-190h50V0H25" id="G"/><g id="b"><use transform="matrix(0.24691358024691357,0,0,0.24691358024691357,0,0)" xlink:href="#D"/><use transform="matrix(0.24691358024691357,0,0,0.24691358024691357,63.95061728395061,0)" xlink:href="#A"/><use transform="matrix(0.24691358024691357,0,0,0.24691358024691357,118.02469135802468,0)" xlink:href="#E"/><use transform="matrix(0.24691358024691357,0,0,0.24691358024691357,197.037037037037,0)" xlink:href="#F"/><use transform="matrix(0.24691358024691357,0,0,0.24691358024691357,246.41975308641972,0)" xlink:href="#G"/><use transform="matrix(0.24691358024691357,0,0,0.24691358024691357,271.1111111111111,0)" xlink:href="#w"/></g><path d="M33 0v-248h34V0H33" id="H"/><path d="M117-194c89-4 53 116 60 194h-32v-121c0-31-8-49-39-48C34-167 62-67 57 0H25l-1-190h30c1 10-1 24 2 32 11-22 29-35 61-36" id="I"/><path d="M108 0H70L1-190h34L89-25l56-165h34" id="J"/><path d="M100-194c63 0 86 42 84 106H49c0 40 14 67 53 68 26 1 43-12 49-29l28 8c-11 28-37 45-77 45C44 4 14-33 15-96c1-61 26-98 85-98zm52 81c6-60-76-77-97-28-3 7-6 17-6 28h103" id="K"/><path d="M59-47c-2 24 18 29 38 22v24C64 9 27 4 27-40v-127H5v-23h24l9-43h21v43h35v23H59v120" id="L"/><path d="M100-194c62-1 85 37 85 99 1 63-27 99-86 99S16-35 15-95c0-66 28-99 85-99zM99-20c44 1 53-31 53-75 0-43-8-75-51-75s-53 32-53 75 10 74 51 75" id="M"/><path d="M114-163C36-179 61-72 57 0H25l-1-190h30c1 12-1 29 2 39 6-27 23-49 58-41v29" id="N"/><path d="M179-190L93 31C79 59 56 82 12 73V49c39 6 53-20 64-50L1-190h34L92-34l54-156h33" id="O"/><g id="c"><use transform="matrix(0.30864197530864196,0,0,0.30864197530864196,0,0)" xlink:href="#H"/><use transform="matrix(0.30864197530864196,0,0,0.30864197530864196,30.864197530864196,0)" xlink:href="#I"/><use transform="matrix(0.30864197530864196,0,0,0.30864197530864196,92.59259259259258,0)" xlink:href="#J"/><use transform="matrix(0.30864197530864196,0,0,0.30864197530864196,148.14814814814812,0)" xlink:href="#K"/><use transform="matrix(0.30864197530864196,0,0,0.30864197530864196,209.8765432098765,0)" xlink:href="#I"/><use transform="matrix(0.30864197530864196,0,0,0.30864197530864196,271.6049382716049,0)" xlink:href="#L"/><use transform="matrix(0.30864197530864196,0,0,0.30864197530864196,302.4691358024691,0)" xlink:href="#M"/><use transform="matrix(0.30864197530864196,0,0,0.30864197530864196,364.1975308641975,0)" xlink:href="#N"/><use transform="matrix(0.30864197530864196,0,0,0.30864197530864196,400.9259259259259,0)" xlink:href="#O"/></g><path d="M24-231v-30h32v30H24zM24 0v-190h32V0H24" id="P"/><g id="d"><use transform="matrix(0.0925925925925926,0,0,0.0925925925925926,0,0)" xlink:href="#P"/><use transform="matrix(0.0925925925925926,0,0,0.0925925925925926,7.314814814814816,0)" xlink:href="#I"/><use transform="matrix(0.0925925925925926,0,0,0.0925925925925926,25.833333333333336,0)" xlink:href="#J"/><use transform="matrix(0.0925925925925926,0,0,0.0925925925925926,42.5,0)" xlink:href="#K"/><use transform="matrix(0.0925925925925926,0,0,0.0925925925925926,61.018518518518526,0)" xlink:href="#I"/><use transform="matrix(0.0925925925925926,0,0,0.0925925925925926,79.53703703703704,0)" xlink:href="#L"/><use transform="matrix(0.0925925925925926,0,0,0.0925925925925926,88.7962962962963,0)" xlink:href="#M"/><use transform="matrix(0.0925925925925926,0,0,0.0925925925925926,107.31481481481482,0)" xlink:href="#N"/><use transform="matrix(0.0925925925925926,0,0,0.0925925925925926,118.33333333333334,0)" xlink:href="#O"/></g><path d="M84 4C-5 8 30-112 23-190h32v120c0 31 7 50 39 49 72-2 45-101 50-169h31l1 190h-30c-1-10 1-25-2-33-11 22-28 36-60 37" id="Q"/><path d="M115-194c55 1 70 41 70 98S169 2 115 4C84 4 66-9 55-30l1 105H24l-1-265h31l2 30c10-21 28-34 59-34zm-8 174c40 0 45-34 45-75s-6-73-45-74c-42 0-51 32-51 76 0 43 10 73 51 73" id="R"/><path d="M85-194c31 0 48 13 60 33l-1-100h32l1 261h-30c-2-10 0-23-3-31C134-8 116 4 85 4 32 4 16-35 15-94c0-66 23-100 70-100zm9 24c-40 0-46 34-46 75 0 40 6 74 45 74 42 0 51-32 51-76 0-42-9-74-50-73" id="S"/><path d="M141-36C126-15 110 5 73 4 37 3 15-17 15-53c-1-64 63-63 125-63 3-35-9-54-41-54-24 1-41 7-42 31l-33-3c5-37 33-52 76-52 45 0 72 20 72 64v82c-1 20 7 32 28 27v20c-31 9-61-2-59-35zM48-53c0 20 12 33 32 33 41-3 63-29 60-74-43 2-92-5-92 41" id="T"/><g id="e"><use transform="matrix(0.0925925925925926,0,0,0.0925925925925926,0,0)" xlink:href="#Q"/><use transform="matrix(0.0925925925925926,0,0,0.0925925925925926,18.51851851851852,0)" xlink:href="#R"/><use transform="matrix(0.0925925925925926,0,0,0.0925925925925926,37.03703703703704,0)" xlink:href="#S"/><use transform="matrix(0.0925925925925926,0,0,0.0925925925925926,55.555555555555564,0)" xlink:href="#T"/><use transform="matrix(0.0925925925925926,0,0,0.0925925925925926,74.07407407407408,0)" xlink:href="#L"/><use transform="matrix(0.0925925925925926,0,0,0.0925925925925926,83.33333333333334,0)" xlink:href="#K"/></g><path d="M145-31C134-9 116 4 85 4 32 4 16-35 15-94c0-59 17-99 70-100 32-1 48 14 60 33 0-11-1-24 2-32h30l-1 268h-32zM93-21c41 0 51-33 51-76s-8-73-50-73c-40 0-46 35-46 75s5 74 45 74" id="U"/><g id="f"><use transform="matrix(0.0925925925925926,0,0,0.0925925925925926,0,0)" xlink:href="#U"/><use transform="matrix(0.0925925925925926,0,0,0.0925925925925926,18.51851851851852,0)" xlink:href="#Q"/><use transform="matrix(0.0925925925925926,0,0,0.0925925925925926,37.03703703703704,0)" xlink:href="#K"/><use transform="matrix(0.0925925925925926,0,0,0.0925925925925926,55.555555555555564,0)" xlink:href="#Q"/><use transform="matrix(0.0925925925925926,0,0,0.0925925925925926,74.07407407407408,0)" xlink:href="#K"/></g><g id="g"><use transform="matrix(0.24691358024691357,0,0,0.24691358024691357,0,0)" xlink:href="#H"/><use transform="matrix(0.24691358024691357,0,0,0.24691358024691357,24.691358024691358,0)" xlink:href="#I"/><use transform="matrix(0.24691358024691357,0,0,0.24691358024691357,74.07407407407408,0)" xlink:href="#J"/><use transform="matrix(0.24691358024691357,0,0,0.24691358024691357,118.51851851851852,0)" xlink:href="#K"/><use transform="matrix(0.24691358024691357,0,0,0.24691358024691357,167.90123456790124,0)" xlink:href="#I"/><use transform="matrix(0.24691358024691357,0,0,0.24691358024691357,217.28395061728395,0)" xlink:href="#L"/><use transform="matrix(0.24691358024691357,0,0,0.24691358024691357,241.97530864197532,0)" xlink:href="#M"/><use transform="matrix(0.24691358024691357,0,0,0.24691358024691357,291.358024691358,0)" xlink:href="#N"/><use transform="matrix(0.24691358024691357,0,0,0.24691358024691357,320.74074074074076,0)" xlink:href="#O"/></g><path d="M185-189c-5-48-123-54-124 2 14 75 158 14 163 119 3 78-121 87-175 55-17-10-28-26-33-46l33-7c5 56 141 63 141-1 0-78-155-14-162-118-5-82 145-84 179-34 5 7 8 16 11 25" id="V"/><path d="M96-169c-40 0-48 33-48 73s9 75 48 75c24 0 41-14 43-38l32 2c-6 37-31 61-74 61-59 0-76-41-82-99-10-93 101-131 147-64 4 7 5 14 7 22l-32 3c-4-21-16-35-41-35" id="W"/><g id="h"><use transform="matrix(0.24691358024691357,0,0,0.24691358024691357,0,0)" xlink:href="#V"/><use transform="matrix(0.24691358024691357,0,0,0.24691358024691357,59.25925925925925,0)" xlink:href="#K"/><use transform="matrix(0.24691358024691357,0,0,0.24691358024691357,108.64197530864197,0)" xlink:href="#N"/><use transform="matrix(0.24691358024691357,0,0,0.24691358024691357,138.02469135802468,0)" xlink:href="#J"/><use transform="matrix(0.24691358024691357,0,0,0.24691358024691357,182.4691358024691,0)" xlink:href="#P"/><use transform="matrix(0.24691358024691357,0,0,0.24691358024691357,201.9753086419753,0)" xlink:href="#W"/><use transform="matrix(0.24691358024691357,0,0,0.24691358024691357,246.41975308641975,0)" xlink:href="#K"/></g><g id="i"><use transform="matrix(0.24691358024691357,0,0,0.24691358024691357,0,0)" xlink:href="#H"/><use transform="matrix(0.24691358024691357,0,0,0.24691358024691357,24.691358024691358,0)" xlink:href="#I"/><use transform="matrix(0.24691358024691357,0,0,0.24691358024691357,74.07407407407408,0)" xlink:href="#J"/><use transform="matrix(0.24691358024691357,0,0,0.24691358024691357,118.51851851851852,0)" xlink:href="#K"/><use transform="matrix(0.24691358024691357,0,0,0.24691358024691357,167.90123456790124,0)" xlink:href="#I"/><use transform="matrix(0.24691358024691357,0,0,0.24691358024691357,217.28395061728395,0)" xlink:href="#L"/><use transform="matrix(0.24691358024691357,0,0,0.24691358024691357,241.97530864197532,0)" xlink:href="#M"/><use transform="matrix(0.24691358024691357,0,0,0.24691358024691357,291.358024691358,0)" xlink:href="#N"/><use transform="matrix(0.24691358024691357,0,0,0.24691358024691357,320.74074074074076,0)" xlink:href="#O"/></g><path d="M30-248c118-7 216 8 213 122C240-48 200 0 122 0H30v-248zM63-27c89 8 146-16 146-99s-60-101-146-95v194" id="X"/><path d="M115-194c53 0 69 39 70 98 0 66-23 100-70 100C84 3 66-7 56-30L54 0H23l1-261h32v101c10-23 28-34 59-34zm-8 174c40 0 45-34 45-75 0-40-5-75-45-74-42 0-51 32-51 76 0 43 10 73 51 73" id="Y"/><path d="M135-143c-3-34-86-38-87 0 15 53 115 12 119 90S17 21 10-45l28-5c4 36 97 45 98 0-10-56-113-15-118-90-4-57 82-63 122-42 12 7 21 19 24 35" id="Z"/><g id="j"><use transform="matrix(0.24691358024691357,0,0,0.24691358024691357,0,0)" xlink:href="#X"/><use transform="matrix(0.24691358024691357,0,0,0.24691358024691357,63.95061728395061,0)" xlink:href="#T"/><use transform="matrix(0.24691358024691357,0,0,0.24691358024691357,113.33333333333333,0)" xlink:href="#L"/><use transform="matrix(0.24691358024691357,0,0,0.24691358024691357,138.02469135802468,0)" xlink:href="#T"/><use transform="matrix(0.24691358024691357,0,0,0.24691358024691357,187.4074074074074,0)" xlink:href="#Y"/><use transform="matrix(0.24691358024691357,0,0,0.24691358024691357,236.7901234567901,0)" xlink:href="#T"/><use transform="matrix(0.24691358024691357,0,0,0.24691358024691357,286.1728395061728,0)" xlink:href="#Z"/><use transform="matrix(0.24691358024691357,0,0,0.24691358024691357,330.61728395061726,0)" xlink:href="#K"/></g><path d="M30-248c87 1 191-15 191 75 0 78-77 80-158 76V0H30v-248zm33 125c57 0 124 11 124-50 0-59-68-47-124-48v98" id="aa"/><path d="M24 0v-261h32V0H24" id="ab"/><g id="k"><use transform="matrix(0.24691358024691357,0,0,0.24691358024691357,0,0)" xlink:href="#aa"/><use transform="matrix(0.24691358024691357,0,0,0.24691358024691357,59.25925925925925,0)" xlink:href="#M"/><use transform="matrix(0.24691358024691357,0,0,0.24691358024691357,108.64197530864197,0)" xlink:href="#ab"/><use transform="matrix(0.24691358024691357,0,0,0.24691358024691357,128.14814814814815,0)" xlink:href="#ab"/><use transform="matrix(0.24691358024691357,0,0,0.24691358024691357,147.65432098765433,0)" xlink:href="#K"/><use transform="matrix(0.24691358024691357,0,0,0.24691358024691357,197.03703703703704,0)" xlink:href="#N"/></g><path d="M205 0l-28-72H64L36 0H1l101-248h38L239 0h-34zm-38-99l-47-123c-12 45-31 82-46 123h93" id="ac"/><g id="l"><use transform="matrix(0.24691358024691357,0,0,0.24691358024691357,0,0)" xlink:href="#ac"/><use transform="matrix(0.24691358024691357,0,0,0.24691358024691357,59.25925925925925,0)" xlink:href="#ab"/><use transform="matrix(0.24691358024691357,0,0,0.24691358024691357,78.76543209876542,0)" xlink:href="#K"/><use transform="matrix(0.24691358024691357,0,0,0.24691358024691357,128.14814814814812,0)" xlink:href="#N"/><use transform="matrix(0.24691358024691357,0,0,0.24691358024691357,157.53086419753083,0)" xlink:href="#L"/><use transform="matrix(0.24691358024691357,0,0,0.24691358024691357,182.2222222222222,0)" xlink:href="#K"/><use transform="matrix(0.24691358024691357,0,0,0.24691358024691357,231.6049382716049,0)" xlink:href="#N"/></g><path d="M190 0L58-211 59 0H30v-248h39L202-35l-2-213h31V0h-41" id="ad"/><path d="M101-234c-31-9-42 10-38 44h38v23H63V0H32v-167H5v-23h27c-7-52 17-82 69-68v24" id="ae"/><g id="m"><use transform="matrix(0.24691358024691357,0,0,0.24691358024691357,0,0)" xlink:href="#ad"/><use transform="matrix(0.24691358024691357,0,0,0.24691358024691357,63.95061728395061,0)" xlink:href="#M"/><use transform="matrix(0.24691358024691357,0,0,0.24691358024691357,113.33333333333333,0)" xlink:href="#L"/><use transform="matrix(0.24691358024691357,0,0,0.24691358024691357,138.02469135802468,0)" xlink:href="#P"/><use transform="matrix(0.24691358024691357,0,0,0.24691358024691357,157.53086419753086,0)" xlink:href="#ae"/><use transform="matrix(0.24691358024691357,0,0,0.24691358024691357,182.22222222222223,0)" xlink:href="#P"/><use transform="matrix(0.24691358024691357,0,0,0.24691358024691357,201.7283950617284,0)" xlink:href="#W"/><use transform="matrix(0.24691358024691357,0,0,0.24691358024691357,246.17283950617286,0)" xlink:href="#T"/><use transform="matrix(0.24691358024691357,0,0,0.24691358024691357,295.5555555555556,0)" xlink:href="#L"/><use transform="matrix(0.24691358024691357,0,0,0.24691358024691357,320.24691358024694,0)" xlink:href="#P"/><use transform="matrix(0.24691358024691357,0,0,0.24691358024691357,339.7530864197531,0)" xlink:href="#M"/><use transform="matrix(0.24691358024691357,0,0,0.24691358024691357,389.13580246913585,0)" xlink:href="#I"/></g><path d="M30 0v-248h187v28H63v79h144v27H63v87h162V0H30" id="af"/><path d="M177-190C167-65 218 103 67 71c-23-6-38-20-44-43l32-5c15 47 100 32 89-28v-30C133-14 115 1 83 1 29 1 15-40 15-95c0-56 16-97 71-98 29-1 48 16 59 35 1-10 0-23 2-32h30zM94-22c36 0 50-32 50-73 0-42-14-75-50-75-39 0-46 34-46 75s6 73 46 73" id="ag"/><g id="n"><use transform="matrix(0.24691358024691357,0,0,0.24691358024691357,0,0)" xlink:href="#af"/><use transform="matrix(0.24691358024691357,0,0,0.24691358024691357,59.25925925925925,0)" xlink:href="#I"/><use transform="matrix(0.24691358024691357,0,0,0.24691358024691357,108.64197530864197,0)" xlink:href="#ag"/><use transform="matrix(0.24691358024691357,0,0,0.24691358024691357,158.02469135802468,0)" xlink:href="#P"/><use transform="matrix(0.24691358024691357,0,0,0.24691358024691357,177.53086419753086,0)" xlink:href="#I"/><use transform="matrix(0.24691358024691357,0,0,0.24691358024691357,226.91358024691357,0)" xlink:href="#K"/></g><path d="M140-251c81 0 123 46 123 126C263-46 219 4 140 4 59 4 17-45 17-125s42-126 123-126zm0 227c63 0 89-41 89-101s-29-99-89-99c-61 0-89 39-89 99S79-25 140-24" id="ah"/><g id="o"><use transform="matrix(0.24691358024691357,0,0,0.24691358024691357,0,0)" xlink:href="#ah"/><use transform="matrix(0.24691358024691357,0,0,0.24691358024691357,69.1358024691358,0)" xlink:href="#N"/><use transform="matrix(0.24691358024691357,0,0,0.24691358024691357,98.5185185185185,0)" xlink:href="#S"/><use transform="matrix(0.24691358024691357,0,0,0.24691358024691357,147.9012345679012,0)" xlink:href="#K"/><use transform="matrix(0.24691358024691357,0,0,0.24691358024691357,197.28395061728392,0)" xlink:href="#N"/></g><path d="M210-169c-67 3-38 105-44 169h-31v-121c0-29-5-50-35-48C34-165 62-65 56 0H25l-1-190h30c1 10-1 24 2 32 10-44 99-50 107 0 11-21 27-35 58-36 85-2 47 119 55 194h-31v-121c0-29-5-49-35-48" id="ai"/><g id="p"><use transform="matrix(0.24691358024691357,0,0,0.24691358024691357,0,0)" xlink:href="#X"/><use transform="matrix(0.24691358024691357,0,0,0.24691358024691357,63.95061728395061,0)" xlink:href="#M"/><use transform="matrix(0.24691358024691357,0,0,0.24691358024691357,113.33333333333333,0)" xlink:href="#ai"/><use transform="matrix(0.24691358024691357,0,0,0.24691358024691357,187.16049382716048,0)" xlink:href="#T"/><use transform="matrix(0.24691358024691357,0,0,0.24691358024691357,236.5432098765432,0)" xlink:href="#P"/><use transform="matrix(0.24691358024691357,0,0,0.24691358024691357,256.04938271604937,0)" xlink:href="#I"/></g><path d="M194 0L95-120 63-95V0H30v-248h33v124l119-124h40L117-140 236 0h-42" id="aj"/><path d="M143 0L79-87 56-68V0H24v-261h32v163l83-92h37l-77 82L181 0h-38" id="ak"/><g id="q"><use transform="matrix(0.24691358024691357,0,0,0.24691358024691357,0,0)" xlink:href="#aj"/><use transform="matrix(0.24691358024691357,0,0,0.24691358024691357,59.25925925925925,0)" xlink:href="#P"/><use transform="matrix(0.24691358024691357,0,0,0.24691358024691357,78.76543209876542,0)" xlink:href="#M"/><use transform="matrix(0.24691358024691357,0,0,0.24691358024691357,128.14814814814812,0)" xlink:href="#Z"/><use transform="matrix(0.24691358024691357,0,0,0.24691358024691357,172.59259259259255,0)" xlink:href="#ak"/></g><path d="M0 4l72-265h28L28 4H0" id="al"/><use transform="matrix(0.24691358024691357,0,0,0.24691358024691357,0,0)" xlink:href="#al" id="r"/><path d="M63-220v92h138v28H63V0H30v-248h175v28H63" id="am"/><g id="s"><use transform="matrix(0.24691358024691357,0,0,0.24691358024691357,0,0)" xlink:href="#V"/><use transform="matrix(0.24691358024691357,0,0,0.24691358024691357,59.25925925925925,0)" xlink:href="#ai"/><use transform="matrix(0.24691358024691357,0,0,0.24691358024691357,133.0864197530864,0)" xlink:href="#T"/><use transform="matrix(0.24691358024691357,0,0,0.24691358024691357,182.4691358024691,0)" xlink:href="#N"/><use transform="matrix(0.24691358024691357,0,0,0.24691358024691357,211.85185185185182,0)" xlink:href="#L"/><use transform="matrix(0.24691358024691357,0,0,0.24691358024691357,236.5432098765432,0)" xlink:href="#am"/><use transform="matrix(0.24691358024691357,0,0,0.24691358024691357,290.61728395061726,0)" xlink:href="#N"/><use transform="matrix(0.24691358024691357,0,0,0.24691358024691357,320,0)" xlink:href="#P"/><use transform="matrix(0.24691358024691357,0,0,0.24691358024691357,339.5061728395062,0)" xlink:href="#S"/><use transform="matrix(0.24691358024691357,0,0,0.24691358024691357,388.8888888888889,0)" xlink:href="#ag"/><use transform="matrix(0.24691358024691357,0,0,0.24691358024691357,438.27160493827165,0)" xlink:href="#K"/></g><g id="t"><use transform="matrix(0.24691358024691357,0,0,0.24691358024691357,0,0)" xlink:href="#X"/><use transform="matrix(0.24691358024691357,0,0,0.24691358024691357,63.95061728395061,0)" xlink:href="#K"/><use transform="matrix(0.24691358024691357,0,0,0.24691358024691357,113.33333333333333,0)" xlink:href="#ab"/><use transform="matrix(0.24691358024691357,0,0,0.24691358024691357,132.8395061728395,0)" xlink:href="#P"/><use transform="matrix(0.24691358024691357,0,0,0.24691358024691357,152.34567901234567,0)" xlink:href="#J"/><use transform="matrix(0.24691358024691357,0,0,0.24691358024691357,196.79012345679013,0)" xlink:href="#K"/><use transform="matrix(0.24691358024691357,0,0,0.24691358024691357,246.17283950617283,0)" xlink:href="#N"/><use transform="matrix(0.24691358024691357,0,0,0.24691358024691357,275.55555555555554,0)" xlink:href="#O"/></g><path d="M232-93c-1 65-40 97-104 97C67 4 28-28 28-90v-158h33c8 89-33 224 67 224 102 0 64-133 71-224h33v155" id="an"/><g id="u"><use transform="matrix(0.24691358024691357,0,0,0.24691358024691357,0,0)" xlink:href="#an"/><use transform="matrix(0.24691358024691357,0,0,0.24691358024691357,63.95061728395061,0)" xlink:href="#R"/><use transform="matrix(0.24691358024691357,0,0,0.24691358024691357,113.33333333333333,0)" xlink:href="#S"/><use transform="matrix(0.24691358024691357,0,0,0.24691358024691357,162.71604938271605,0)" xlink:href="#T"/><use transform="matrix(0.24691358024691357,0,0,0.24691358024691357,212.09876543209876,0)" xlink:href="#L"/><use transform="matrix(0.24691358024691357,0,0,0.24691358024691357,236.79012345679013,0)" xlink:href="#K"/><use transform="matrix(0.24691358024691357,0,0,0.24691358024691357,286.17283950617286,0)" xlink:href="#Z"/></g></defs></g></svg>