<svg xmlns="http://www.w3.org/2000/svg" xmlns:xlink="http://www.w3.org/1999/xlink" xmlns:lucid="lucid" width="2694.55" height="1984.65"><g transform="translate(-19105.339588825023 -14900)" lucid:page-tab-id="GohKRMG-AbEl"><path d="M19000 14500h3000v2500h-3000z" fill="#fff"/><path d="M19660 15830.65c0-3.3 2.7-6 6-6h1608c3.3 0 6 2.7 6 6v1028c0 3.3-2.7 6-6 6h-1608c-3.3 0-6-2.7-6-6z" stroke="#000" stroke-width="4" fill="#fff"/><use xlink:href="#a" transform="matrix(1,0,0,1,19672,15836.649143931136) translate(0 71.11111111111111)"/><path d="M19500 14926c0-3.3 2.7-6 6-6h768c3.3 0 6 2.7 6 6v548c0 3.3-2.7 6-6 6h-768c-3.3 0-6-2.7-6-6z" stroke="#000" fill="#e5e5e5"/><use xlink:href="#b" transform="matrix(1,0,0,1,19512,14932) translate(149.75925925925927 289.8888888888889)"/><path d="M19940 16251.7c0-3.32 2.7-6 6-6h288c3.3 0 6 2.68 6 6v91c0 3.32-2.7 6-6 6h-288c-3.3 0-6-2.68-6-6z" stroke="#000" fill="#fff"/><use xlink:href="#c" transform="matrix(1,0,0,1,19945,16250.688914471935) translate(80.2 52.0375)"/><path d="M19740 16546c0-3.3 2.7-6 6-6h228c3.3 0 6 2.7 6 6v68c0 3.3-2.7 6-6 6h-228c-3.3 0-6-2.7-6-6z" stroke="#000" fill="#fff"/><use xlink:href="#d" transform="matrix(1,0,0,1,19745,16545) translate(30.733333333333334 40.9125)"/><use xlink:href="#e" transform="matrix(1,0,0,1,19745,16545) translate(119.44444444444444 40.9125)"/><path d="M20020 16546c0-3.3 2.7-6 6-6h228c3.3 0 6 2.7 6 6v68c0 3.3-2.7 6-6 6h-228c-3.3 0-6-2.7-6-6z" stroke="#000" fill="#fff"/><use xlink:href="#f" transform="matrix(1,0,0,1,20025,16545) translate(5 40.9125)"/><use xlink:href="#g" transform="matrix(1,0,0,1,20025,16545) translate(152.2 40.9125)"/><path d="M19825.16 16537v-.78l.2-3.15.33-3.03.42-2.93.54-2.84.66-2.8.76-2.73.88-2.7 1-2.67 1.1-2.66 1.26-2.66 1.4-2.67 1.56-2.7 1.74-2.73 1.94-2.8 2.2-2.88 2.45-2.97 2.8-3.12 3.22-3.28 3.73-3.5 4.4-3.8 5.35-4.23 6.74-4.88 9.16-6.08 15.76-9.5 46.05-26.63 9.17-6.08 6.74-4.9 5.35-4.22 4.4-3.8 3.74-3.5 3.2-3.28 2.8-3.1 2.47-2.98 2.18-2.88 1.95-2.8 1.73-2.73 1.56-2.7 1.4-2.67.28-.63" stroke="#5e5e5e" stroke-width="5" fill="none"/><path d="M19827.66 16537l-.06 2.5h-5l.06-2.62z" fill="#5e5e5e"/><path d="M19993.93 16352.65l11.24 17.74-17.8 11.52-11.18-18.04z" stroke="#5e5e5e" stroke-width="5" fill="#5e5e5e"/><path d="M20138.57 16537l-.17-8.2-.58-9.32-.87-8.25-1.1-7.47-1.3-6.88-1.53-6.5-1.74-6.24-2.02-6.2-2.4-6.43-3-7.15-4.6-9.7-15.1-30.3-3-7.16-2.4-6.43-2-6.2-1.76-6.26-1.52-6.47-1.3-6.9-.6-3.96" stroke="#5e5e5e" stroke-width="5" fill="none"/><path d="M20141.12 16539.5h-5l-.05-2.52 5-.1z" fill="#5e5e5e"/><path d="M20089.65 16352.73l15.83 13.8-13.78 16.13-15.85-14.1z" stroke="#5e5e5e" stroke-width="5" fill="#5e5e5e"/><path d="M20300 16546c0-3.3 2.7-6 6-6h228c3.3 0 6 2.7 6 6v68c0 3.3-2.7 6-6 6h-228c-3.3 0-6-2.7-6-6z" stroke="#000" fill="#fff"/><use xlink:href="#h" transform="matrix(1,0,0,1,20305,16545) translate(36.866666666666674 40.9125)"/><path d="M20359.05 16537l-.02-.9-.2-3.28-.34-3.14-.45-3.04-.57-2.94-.67-2.88-.78-2.82-.9-2.78-1.02-2.75-1.15-2.73-1.3-2.73-1.42-2.73-1.6-2.77-1.78-2.8-2-2.88-2.24-2.95-2.52-3.05-2.87-3.2-3.3-3.37-3.86-3.63-4.6-3.95-5.62-4.45-7.24-5.26-10.42-6.9-59.43-36.32-7.24-5.25-5.63-4.46-4.6-3.96-3.85-3.62-3.3-3.38-2.9-3.2-2.52-3.05-2.24-2.95-2-2.87-1.78-2.8-1.6-2.76-1.43-2.74-.75-1.6" stroke="#5e5e5e" stroke-width="5" fill="none"/><path d="M20361.6 16539.5h-5l-.05-2.5 5-.12z" fill="#5e5e5e"/><path d="M20196.96 16352.66l17.65 11.37-11.3 17.95-17.7-11.67z" stroke="#5e5e5e" stroke-width="5" fill="#5e5e5e"/><path d="M19790 16024.5c0-3.32 2.7-6 6-6h288c3.3 0 6 2.68 6 6v91c0 3.32-2.7 6-6 6h-288c-3.3 0-6-2.68-6-6z" stroke="#000" fill="#fff"/><use xlink:href="#i" transform="matrix(1,0,0,1,19795,16023.493636937443) translate(96.11111111111111 52.0375)"/><path d="M20440 16251.7c0-3.32 2.7-6 6-6h288c3.3 0 6 2.68 6 6v91c0 3.32-2.7 6-6 6h-288c-3.3 0-6-2.68-6-6z" stroke="#000" fill="#fff"/><use xlink:href="#j" transform="matrix(1,0,0,1,20445,16250.688914471935) translate(70.5111111111111 52.0375)"/><path d="M20243 16309.95l34.76-.66 25.62-1.6 29.42-3.18 43.82-5.02 25.62-1.6 12.4-.23" stroke="#5e5e5e" stroke-width="5" fill="none"/><path d="M20243.1 16312.45l-2.6.05v-5l2.52-.05z" fill="#5e5e5e"/><path d="M20431.4 16297.35l-14.16 4.9-.18-9.26z" stroke="#5e5e5e" stroke-width="5" fill="#5e5e5e"/><path d="M21316.34 15990.53l-31.82.16-.03-5 31.84-.17zm196.8-.96l-78.47.38v-5l78.44-.38z" fill="#5e5e5e"/><path d="M21284.58 15990.7h-2.58v-5h2.56zM21529.9 15987l-14.25 4.7-.05-9.28z" fill="#5e5e5e"/><path d="M21537.98 15986.95l-24.82 8.2-.08-16.16zm-19.85 1.3l3.67-1.22-3.68-1.18z" fill="#5e5e5e"/><use xlink:href="#k" transform="matrix(1,0,0,1,21316.339979459735,15967.744692895376) translate(0.005000000000002558 26.66666666666667)"/><g stroke="#000" stroke-width="3"><path d="M21568.7 16050.23c-12.96 0-23.47-32.17-23.47-71.84 0-39.68 10.5-71.84 23.47-71.84h187.72c12.96 0 23.47 32.16 23.47 71.83 0 39.66-10.52 71.83-23.48 71.83z" fill="#fff"/><path d="M21756.42 16050.23c-12.96 0-23.46-32.17-23.46-71.84 0-39.68 10.5-71.84 23.46-71.84" fill="none"/></g><path d="M21537.98 15919.95c0-3.32 2.7-6 6-6h188c3.3 0 6 2.68 6 6v118c0 3.3-2.7 6-6 6h-188c-3.3 0-6-2.7-6-6z" stroke="#000" stroke-opacity="0" stroke-width="3" fill="#fff" fill-opacity="0"/><use xlink:href="#l" transform="matrix(1,0,0,1,21542.979930200698,15918.948395969419) translate(31.157407407407412 26.66666666666667)"/><use xlink:href="#m" transform="matrix(1,0,0,1,21542.979930200698,15918.948395969419) translate(15.509259259259238 66.66666666666669)"/><use xlink:href="#n" transform="matrix(1,0,0,1,21542.979930200698,15918.948395969419) translate(48.7037037037037 106.66666666666669)"/><g stroke="#000" stroke-width="3"><path d="M19148.8 16037.7c-12.95 0-23.46-31.42-23.46-70.17s10.5-70.17 23.47-70.17h187.73c12.96 0 23.47 31.42 23.47 70.17s-10.5 70.16-23.47 70.16z" fill="#fff"/><path d="M19336.53 16037.7c-12.96 0-23.46-31.42-23.46-70.17s10.5-70.17 23.46-70.17" fill="none"/></g><path d="M19125.34 15913.7c0-3.32 2.7-6 6-6h188c3.3 0 6 2.68 6 6v118c0 3.3-2.7 6-6 6h-188c-3.3 0-6-2.7-6-6z" stroke="#000" stroke-opacity="0" stroke-width="3" fill="#fff" fill-opacity="0"/><use xlink:href="#o" transform="matrix(1,0,0,1,19130.339588825023,15912.688914471935) translate(27.5 26.66666666666667)"/><use xlink:href="#p" transform="matrix(1,0,0,1,19130.339588825023,15912.688914471935) translate(44.07407407407407 66.66666666666669)"/><use xlink:href="#n" transform="matrix(1,0,0,1,19130.339588825023,15912.688914471935) translate(48.7037037037037 106.66666666666669)"/><path d="M19364 15967.52l269.14-.34" stroke="#5e5e5e" stroke-width="5" fill="none"/><path d="M19364.07 15970.02h-2.66l.1-2.47v-.68l-.07-1.84h2.63z" fill="#5e5e5e"/><path d="M19649.9 15967.16l-14.25 4.65v-9.26z" stroke="#5e5e5e" stroke-width="5" fill="#5e5e5e"/><path d="M19511.76 15482.78c0 1.38-1.12 2.5-2.5 2.5s-2.5-1.12-2.5-2.5 1.12-2.5 2.5-2.5 2.5 1.12 2.5 2.5zm4.06 9.1c0 1.38-1.12 2.5-2.5 2.5s-2.5-1.12-2.5-2.5 1.12-2.5 2.5-2.5 2.5 1.12 2.5 2.5zm4.07 9.1c0 1.38-1.13 2.5-2.5 2.5-1.4 0-2.5-1.12-2.5-2.5s1.1-2.5 2.5-2.5c1.37 0 2.5 1.12 2.5 2.5zm4.05 9.1c0 1.38-1.12 2.5-2.5 2.5s-2.5-1.12-2.5-2.5 1.12-2.5 2.5-2.5 2.5 1.12 2.5 2.5zm4.07 9.1c0 1.38-1.12 2.5-2.5 2.5-1.4 0-2.5-1.12-2.5-2.5s1.1-2.5 2.5-2.5c1.38 0 2.5 1.12 2.5 2.5zm4.06 9.1c0 1.38-1.12 2.5-2.5 2.5s-2.5-1.12-2.5-2.5 1.12-2.5 2.5-2.5 2.5 1.12 2.5 2.5zm4.06 9.1c0 1.38-1.12 2.5-2.5 2.5s-2.5-1.12-2.5-2.5 1.12-2.5 2.5-2.5 2.5 1.12 2.5 2.5zm4.07 9.1c0 1.38-1.1 2.5-2.5 2.5-1.37 0-2.5-1.12-2.5-2.5s1.13-2.5 2.5-2.5c1.4 0 2.5 1.12 2.5 2.5zm4.07 9.1c0 1.38-1.12 2.5-2.5 2.5s-2.5-1.12-2.5-2.5 1.12-2.5 2.5-2.5 2.5 1.12 2.5 2.5zm4.06 9.1c0 1.38-1.1 2.5-2.5 2.5-1.38 0-2.5-1.12-2.5-2.5s1.12-2.5 2.5-2.5c1.4 0 2.5 1.12 2.5 2.5zm4.07 9.1c0 1.38-1.12 2.5-2.5 2.5s-2.5-1.12-2.5-2.5 1.12-2.5 2.5-2.5 2.5 1.12 2.5 2.5zm4.06 9.1c0 1.38-1.12 2.5-2.5 2.5s-2.5-1.12-2.5-2.5 1.12-2.5 2.5-2.5 2.5 1.12 2.5 2.5zm4.07 9.1c0 1.4-1.12 2.5-2.5 2.5s-2.5-1.1-2.5-2.5c0-1.38 1.12-2.5 2.5-2.5s2.5 1.12 2.5 2.5zm4.06 9.1c0 1.4-1.13 2.5-2.5 2.5-1.4 0-2.5-1.1-2.5-2.5 0-1.38 1.1-2.5 2.5-2.5 1.37 0 2.5 1.12 2.5 2.5zm4.05 9.1c0 1.4-1.12 2.5-2.5 2.5s-2.5-1.1-2.5-2.5c0-1.38 1.12-2.5 2.5-2.5s2.5 1.12 2.5 2.5zm4.07 9.1c0 1.4-1.12 2.5-2.5 2.5s-2.5-1.1-2.5-2.5c0-1.38 1.12-2.5 2.5-2.5s2.5 1.12 2.5 2.5zm4.06 9.1c0 1.4-1.12 2.5-2.5 2.5s-2.5-1.1-2.5-2.5c0-1.38 1.12-2.5 2.5-2.5s2.5 1.12 2.5 2.5zm4.06 9.1c0 1.4-1.1 2.5-2.5 2.5-1.38 0-2.5-1.1-2.5-2.5 0-1.38 1.12-2.5 2.5-2.5 1.4 0 2.5 1.12 2.5 2.5zm4.07 9.1c0 1.4-1.1 2.5-2.5 2.5-1.37 0-2.5-1.1-2.5-2.5 0-1.38 1.13-2.5 2.5-2.5 1.4 0 2.5 1.12 2.5 2.5zm4.07 9.1c0 1.4-1.12 2.5-2.5 2.5s-2.5-1.1-2.5-2.5c0-1.38 1.12-2.5 2.5-2.5s2.5 1.12 2.5 2.5zm4.07 9.1c0 1.4-1.12 2.5-2.5 2.5s-2.5-1.1-2.5-2.5c0-1.38 1.12-2.5 2.5-2.5s2.5 1.12 2.5 2.5zm4.06 9.1c0 1.4-1.12 2.5-2.5 2.5s-2.5-1.1-2.5-2.5c0-1.38 1.12-2.5 2.5-2.5s2.5 1.12 2.5 2.5zm4.06 9.1c0 1.4-1.12 2.5-2.5 2.5s-2.5-1.1-2.5-2.5c0-1.37 1.12-2.5 2.5-2.5s2.5 1.13 2.5 2.5zm4.07 9.1c0 1.4-1.12 2.5-2.5 2.5s-2.5-1.1-2.5-2.5c0-1.37 1.12-2.5 2.5-2.5s2.5 1.13 2.5 2.5zm4.06 9.1c0 1.4-1.13 2.5-2.5 2.5-1.4 0-2.5-1.1-2.5-2.5 0-1.37 1.1-2.5 2.5-2.5 1.37 0 2.5 1.13 2.5 2.5zm4.06 9.1c0 1.4-1.12 2.5-2.5 2.5-1.4 0-2.5-1.1-2.5-2.5 0-1.37 1.1-2.5 2.5-2.5 1.38 0 2.5 1.13 2.5 2.5zm4.06 9.1c0 1.4-1.12 2.5-2.5 2.5s-2.5-1.1-2.5-2.5c0-1.37 1.12-2.5 2.5-2.5s2.5 1.13 2.5 2.5zm4.06 9.1c0 1.4-1.12 2.5-2.5 2.5s-2.5-1.1-2.5-2.5c0-1.37 1.12-2.5 2.5-2.5s2.5 1.13 2.5 2.5zm4.07 9.1c0 1.4-1.12 2.5-2.5 2.5s-2.5-1.1-2.5-2.5c0-1.37 1.12-2.5 2.5-2.5s2.5 1.13 2.5 2.5zm4.06 9.1c0 1.4-1.1 2.5-2.5 2.5-1.37 0-2.5-1.1-2.5-2.5 0-1.37 1.13-2.5 2.5-2.5 1.4 0 2.5 1.13 2.5 2.5zm4.07 9.1c0 1.4-1.12 2.5-2.5 2.5s-2.5-1.1-2.5-2.5c0-1.37 1.12-2.5 2.5-2.5s2.5 1.13 2.5 2.5zm4.07 9.1c0 1.4-1.12 2.5-2.5 2.5s-2.5-1.1-2.5-2.5c0-1.37 1.12-2.5 2.5-2.5s2.5 1.13 2.5 2.5zm4.06 9.1c0 1.4-1.12 2.5-2.5 2.5s-2.5-1.1-2.5-2.5c0-1.37 1.12-2.5 2.5-2.5s2.5 1.13 2.5 2.5zm4.07 9.1c0 1.4-1.12 2.5-2.5 2.5-1.4 0-2.5-1.1-2.5-2.5 0-1.37 1.1-2.5 2.5-2.5 1.38 0 2.5 1.13 2.5 2.5zm4.06 9.1c0 1.4-1.12 2.5-2.5 2.5s-2.5-1.1-2.5-2.5c0-1.37 1.12-2.5 2.5-2.5s2.5 1.13 2.5 2.5z" fill="#5e5e5e"/><path d="M19505.93 15480.5h5.05l.6 1.32-4.58 2.04-1.56-3.5z" fill="#5e5e5e"/><path d="M19658.33 15816.6l-10.05-11.14 8.46-3.78z" stroke="#5e5e5e" stroke-width="5" fill="#5e5e5e"/><path d="M20284.88 14965.06c0 1.38-1.1 2.5-2.5 2.5-1.38 0-2.5-1.12-2.5-2.5 0-1.4 1.12-2.5 2.5-2.5 1.4 0 2.5 1.1 2.5 2.5zm7.55 6.57c0 1.38-1.12 2.5-2.5 2.5s-2.5-1.12-2.5-2.5 1.12-2.5 2.5-2.5 2.5 1.12 2.5 2.5zm7.55 6.58c0 1.4-1.12 2.5-2.5 2.5-1.4 0-2.5-1.1-2.5-2.5 0-1.38 1.1-2.5 2.5-2.5 1.38 0 2.5 1.12 2.5 2.5zm7.54 6.58c0 1.38-1.12 2.5-2.5 2.5s-2.5-1.12-2.5-2.5 1.12-2.5 2.5-2.5 2.5 1.12 2.5 2.5zm7.55 6.57c0 1.4-1.12 2.5-2.5 2.5-1.4 0-2.5-1.1-2.5-2.5 0-1.38 1.1-2.5 2.5-2.5 1.38 0 2.5 1.12 2.5 2.5zm7.54 6.58c0 1.38-1.1 2.5-2.5 2.5-1.37 0-2.5-1.12-2.5-2.5s1.13-2.5 2.5-2.5c1.4 0 2.5 1.12 2.5 2.5zm7.56 6.57c0 1.4-1.12 2.5-2.5 2.5s-2.5-1.1-2.5-2.5c0-1.38 1.12-2.5 2.5-2.5s2.5 1.12 2.5 2.5zm7.54 6.58c0 1.38-1.12 2.5-2.5 2.5s-2.5-1.12-2.5-2.5 1.12-2.5 2.5-2.5 2.5 1.12 2.5 2.5zm7.55 6.57c0 1.38-1.12 2.5-2.5 2.5s-2.5-1.12-2.5-2.5 1.12-2.5 2.5-2.5 2.5 1.12 2.5 2.5zm7.54 6.58c0 1.38-1.13 2.5-2.5 2.5-1.4 0-2.5-1.12-2.5-2.5s1.1-2.5 2.5-2.5c1.37 0 2.5 1.12 2.5 2.5zm7.54 6.57c0 1.38-1.12 2.5-2.5 2.5s-2.5-1.12-2.5-2.5 1.12-2.5 2.5-2.5 2.5 1.12 2.5 2.5zm7.54 6.58c0 1.38-1.12 2.5-2.5 2.5s-2.5-1.12-2.5-2.5 1.12-2.5 2.5-2.5 2.5 1.12 2.5 2.5zm7.55 6.57c0 1.38-1.12 2.5-2.5 2.5s-2.5-1.12-2.5-2.5 1.12-2.5 2.5-2.5 2.5 1.12 2.5 2.5zm7.54 6.58c0 1.38-1.12 2.5-2.5 2.5s-2.5-1.12-2.5-2.5 1.12-2.5 2.5-2.5 2.5 1.12 2.5 2.5zm7.55 6.57c0 1.38-1.12 2.5-2.5 2.5s-2.5-1.12-2.5-2.5 1.12-2.5 2.5-2.5 2.5 1.12 2.5 2.5zm7.54 6.58c0 1.38-1.12 2.5-2.5 2.5s-2.5-1.12-2.5-2.5 1.12-2.5 2.5-2.5 2.5 1.12 2.5 2.5zm7.55 6.57c0 1.38-1.1 2.5-2.5 2.5-1.37 0-2.5-1.12-2.5-2.5s1.13-2.5 2.5-2.5c1.4 0 2.5 1.12 2.5 2.5zm7.55 6.58c0 1.38-1.12 2.5-2.5 2.5s-2.5-1.12-2.5-2.5 1.12-2.5 2.5-2.5 2.5 1.12 2.5 2.5zm7.55 6.57c0 1.38-1.12 2.5-2.5 2.5s-2.5-1.12-2.5-2.5 1.12-2.5 2.5-2.5 2.5 1.12 2.5 2.5zm7.54 6.58c0 1.38-1.12 2.5-2.5 2.5s-2.5-1.12-2.5-2.5 1.12-2.5 2.5-2.5 2.5 1.12 2.5 2.5zm7.55 6.57c0 1.38-1.13 2.5-2.5 2.5-1.4 0-2.5-1.12-2.5-2.5s1.1-2.5 2.5-2.5c1.37 0 2.5 1.12 2.5 2.5zm7.53 6.58c0 1.38-1.12 2.5-2.5 2.5s-2.5-1.12-2.5-2.5 1.12-2.5 2.5-2.5 2.5 1.12 2.5 2.5zm7.55 6.57c0 1.38-1.12 2.5-2.5 2.5s-2.5-1.12-2.5-2.5 1.12-2.5 2.5-2.5 2.5 1.12 2.5 2.5zm7.54 6.58c0 1.38-1.1 2.5-2.5 2.5-1.38 0-2.5-1.12-2.5-2.5s1.12-2.5 2.5-2.5c1.4 0 2.5 1.12 2.5 2.5zm7.55 6.57c0 1.38-1.12 2.5-2.5 2.5s-2.5-1.12-2.5-2.5 1.12-2.5 2.5-2.5 2.5 1.12 2.5 2.5zm7.54 6.58c0 1.38-1.1 2.5-2.5 2.5-1.37 0-2.5-1.12-2.5-2.5s1.13-2.5 2.5-2.5c1.4 0 2.5 1.12 2.5 2.5zm7.56 6.57c0 1.38-1.12 2.5-2.5 2.5s-2.5-1.12-2.5-2.5 1.12-2.5 2.5-2.5 2.5 1.12 2.5 2.5zm7.55 6.58c0 1.38-1.1 2.5-2.5 2.5-1.38 0-2.5-1.12-2.5-2.5s1.12-2.5 2.5-2.5c1.4 0 2.5 1.12 2.5 2.5zm7.55 6.57c0 1.38-1.12 2.5-2.5 2.5s-2.5-1.12-2.5-2.5 1.12-2.5 2.5-2.5 2.5 1.12 2.5 2.5zm7.55 6.58c0 1.38-1.12 2.5-2.5 2.5-1.4 0-2.5-1.12-2.5-2.5 0-1.4 1.1-2.5 2.5-2.5 1.38 0 2.5 1.1 2.5 2.5zm7.54 6.57c0 1.38-1.12 2.5-2.5 2.5s-2.5-1.12-2.5-2.5 1.12-2.5 2.5-2.5 2.5 1.12 2.5 2.5zm7.55 6.58c0 1.38-1.13 2.5-2.5 2.5-1.4 0-2.5-1.12-2.5-2.5 0-1.4 1.1-2.5 2.5-2.5 1.37 0 2.5 1.1 2.5 2.5zm7.53 6.57c0 1.38-1.12 2.5-2.5 2.5s-2.5-1.12-2.5-2.5 1.12-2.5 2.5-2.5 2.5 1.12 2.5 2.5zm7.55 6.57c0 1.4-1.12 2.5-2.5 2.5s-2.5-1.1-2.5-2.5c0-1.38 1.12-2.5 2.5-2.5s2.5 1.12 2.5 2.5zm7.54 6.58c0 1.38-1.12 2.5-2.5 2.5s-2.5-1.12-2.5-2.5 1.12-2.5 2.5-2.5 2.5 1.12 2.5 2.5zm7.55 6.57c0 1.4-1.12 2.5-2.5 2.5s-2.5-1.1-2.5-2.5c0-1.38 1.12-2.5 2.5-2.5s2.5 1.12 2.5 2.5zm7.54 6.58c0 1.38-1.1 2.5-2.5 2.5-1.37 0-2.5-1.12-2.5-2.5s1.13-2.5 2.5-2.5c1.4 0 2.5 1.12 2.5 2.5zm7.56 6.57c0 1.38-1.12 2.5-2.5 2.5s-2.5-1.12-2.5-2.5 1.12-2.5 2.5-2.5 2.5 1.12 2.5 2.5zm7.54 6.58c0 1.38-1.12 2.5-2.5 2.5s-2.5-1.12-2.5-2.5 1.12-2.5 2.5-2.5 2.5 1.12 2.5 2.5zm7.55 6.57c0 1.38-1.12 2.5-2.5 2.5s-2.5-1.12-2.5-2.5 1.12-2.5 2.5-2.5 2.5 1.12 2.5 2.5zm7.54 6.58c0 1.38-1.13 2.5-2.5 2.5-1.4 0-2.5-1.12-2.5-2.5s1.1-2.5 2.5-2.5c1.37 0 2.5 1.12 2.5 2.5zm7.54 6.57c0 1.38-1.12 2.5-2.5 2.5s-2.5-1.12-2.5-2.5 1.12-2.5 2.5-2.5 2.5 1.12 2.5 2.5zm7.54 6.58c0 1.38-1.12 2.5-2.5 2.5s-2.5-1.12-2.5-2.5 1.12-2.5 2.5-2.5 2.5 1.12 2.5 2.5zm7.55 6.57c0 1.38-1.12 2.5-2.5 2.5s-2.5-1.12-2.5-2.5 1.12-2.5 2.5-2.5 2.5 1.12 2.5 2.5zm7.54 6.58c0 1.38-1.12 2.5-2.5 2.5s-2.5-1.12-2.5-2.5 1.12-2.5 2.5-2.5 2.5 1.12 2.5 2.5zm7.55 6.57c0 1.38-1.12 2.5-2.5 2.5s-2.5-1.12-2.5-2.5 1.12-2.5 2.5-2.5 2.5 1.12 2.5 2.5zm7.54 6.58c0 1.38-1.12 2.5-2.5 2.5s-2.5-1.12-2.5-2.5 1.12-2.5 2.5-2.5 2.5 1.12 2.5 2.5zm7.55 6.57c0 1.38-1.1 2.5-2.5 2.5-1.37 0-2.5-1.12-2.5-2.5s1.13-2.5 2.5-2.5c1.4 0 2.5 1.12 2.5 2.5zm7.55 6.58c0 1.38-1.12 2.5-2.5 2.5s-2.5-1.12-2.5-2.5 1.12-2.5 2.5-2.5 2.5 1.12 2.5 2.5zm7.55 6.57c0 1.38-1.12 2.5-2.5 2.5s-2.5-1.12-2.5-2.5 1.12-2.5 2.5-2.5 2.5 1.12 2.5 2.5zm7.54 6.58c0 1.38-1.1 2.5-2.5 2.5-1.38 0-2.5-1.12-2.5-2.5s1.12-2.5 2.5-2.5c1.4 0 2.5 1.12 2.5 2.5zm7.55 6.57c0 1.38-1.13 2.5-2.5 2.5-1.4 0-2.5-1.12-2.5-2.5s1.1-2.5 2.5-2.5c1.37 0 2.5 1.12 2.5 2.5zm7.54 6.58c0 1.38-1.12 2.5-2.5 2.5-1.4 0-2.5-1.12-2.5-2.5s1.1-2.5 2.5-2.5c1.38 0 2.5 1.12 2.5 2.5zm7.54 6.57c0 1.38-1.12 2.5-2.5 2.5s-2.5-1.12-2.5-2.5 1.12-2.5 2.5-2.5 2.5 1.12 2.5 2.5zm7.55 6.58c0 1.38-1.12 2.5-2.5 2.5-1.4 0-2.5-1.12-2.5-2.5s1.1-2.5 2.5-2.5c1.38 0 2.5 1.12 2.5 2.5zm7.54 6.57c0 1.38-1.12 2.5-2.5 2.5s-2.5-1.12-2.5-2.5 1.12-2.5 2.5-2.5 2.5 1.12 2.5 2.5zm7.55 6.58c0 1.38-1.12 2.5-2.5 2.5s-2.5-1.12-2.5-2.5 1.12-2.5 2.5-2.5 2.5 1.12 2.5 2.5zm7.54 6.57c0 1.38-1.12 2.5-2.5 2.5s-2.5-1.12-2.5-2.5 1.12-2.5 2.5-2.5 2.5 1.12 2.5 2.5zm7.55 6.58c0 1.38-1.1 2.5-2.5 2.5-1.37 0-2.5-1.12-2.5-2.5 0-1.4 1.13-2.5 2.5-2.5 1.4 0 2.5 1.1 2.5 2.5zm7.55 6.57c0 1.38-1.12 2.5-2.5 2.5s-2.5-1.12-2.5-2.5 1.12-2.5 2.5-2.5 2.5 1.12 2.5 2.5zm7.55 6.58c0 1.38-1.12 2.5-2.5 2.5s-2.5-1.12-2.5-2.5c0-1.4 1.12-2.5 2.5-2.5s2.5 1.1 2.5 2.5zm7.54 6.57c0 1.38-1.12 2.5-2.5 2.5s-2.5-1.12-2.5-2.5 1.12-2.5 2.5-2.5 2.5 1.12 2.5 2.5zm7.55 6.57c0 1.38-1.13 2.5-2.5 2.5-1.4 0-2.5-1.12-2.5-2.5 0-1.4 1.1-2.5 2.5-2.5 1.37 0 2.5 1.1 2.5 2.5zm7.53 6.57c0 1.38-1.12 2.5-2.5 2.5s-2.5-1.12-2.5-2.5 1.12-2.5 2.5-2.5 2.5 1.12 2.5 2.5zm7.55 6.57c0 1.4-1.12 2.5-2.5 2.5s-2.5-1.1-2.5-2.5c0-1.38 1.12-2.5 2.5-2.5s2.5 1.12 2.5 2.5zm7.54 6.58c0 1.38-1.12 2.5-2.5 2.5s-2.5-1.12-2.5-2.5 1.12-2.5 2.5-2.5 2.5 1.12 2.5 2.5zm7.55 6.57c0 1.37-1.12 2.5-2.5 2.5s-2.5-1.13-2.5-2.5c0-1.4 1.12-2.5 2.5-2.5s2.5 1.1 2.5 2.5zm7.54 6.57c0 1.38-1.1 2.5-2.5 2.5-1.37 0-2.5-1.12-2.5-2.5s1.13-2.5 2.5-2.5c1.4 0 2.5 1.12 2.5 2.5zm7.56 6.57c0 1.38-1.12 2.5-2.5 2.5s-2.5-1.12-2.5-2.5 1.12-2.5 2.5-2.5 2.5 1.12 2.5 2.5zm7.54 6.58c0 1.38-1.12 2.5-2.5 2.5s-2.5-1.12-2.5-2.5 1.12-2.5 2.5-2.5 2.5 1.12 2.5 2.5zm7.55 6.57c0 1.37-1.12 2.5-2.5 2.5s-2.5-1.13-2.5-2.5c0-1.4 1.12-2.5 2.5-2.5s2.5 1.1 2.5 2.5zm7.54 6.57c0 1.38-1.13 2.5-2.5 2.5-1.4 0-2.5-1.12-2.5-2.5s1.1-2.5 2.5-2.5c1.37 0 2.5 1.12 2.5 2.5zm7.54 6.57c0 1.38-1.12 2.5-2.5 2.5s-2.5-1.12-2.5-2.5 1.12-2.5 2.5-2.5 2.5 1.12 2.5 2.5zm7.54 6.58c0 1.38-1.12 2.5-2.5 2.5s-2.5-1.12-2.5-2.5 1.12-2.5 2.5-2.5 2.5 1.12 2.5 2.5zm7.55 6.57c0 1.37-1.12 2.5-2.5 2.5s-2.5-1.13-2.5-2.5c0-1.4 1.12-2.5 2.5-2.5s2.5 1.1 2.5 2.5zm7.54 6.57c0 1.38-1.1 2.5-2.5 2.5-1.38 0-2.5-1.12-2.5-2.5s1.12-2.5 2.5-2.5c1.4 0 2.5 1.12 2.5 2.5zm7.55 6.57c0 1.38-1.12 2.5-2.5 2.5s-2.5-1.12-2.5-2.5 1.12-2.5 2.5-2.5 2.5 1.12 2.5 2.5zm7.55 6.58c0 1.38-1.12 2.5-2.5 2.5-1.4 0-2.5-1.12-2.5-2.5s1.1-2.5 2.5-2.5c1.38 0 2.5 1.12 2.5 2.5zm7.54 6.57c0 1.37-1.1 2.5-2.5 2.5-1.37 0-2.5-1.13-2.5-2.5 0-1.4 1.13-2.5 2.5-2.5 1.4 0 2.5 1.1 2.5 2.5zm7.56 6.57c0 1.38-1.12 2.5-2.5 2.5-1.4 0-2.5-1.12-2.5-2.5s1.1-2.5 2.5-2.5c1.38 0 2.5 1.12 2.5 2.5zm7.54 6.57c0 1.38-1.12 2.5-2.5 2.5s-2.5-1.12-2.5-2.5 1.12-2.5 2.5-2.5 2.5 1.12 2.5 2.5zm7.55 6.58c0 1.38-1.12 2.5-2.5 2.5s-2.5-1.12-2.5-2.5 1.12-2.5 2.5-2.5 2.5 1.12 2.5 2.5zm7.54 6.57c0 1.37-1.13 2.5-2.5 2.5-1.4 0-2.5-1.13-2.5-2.5 0-1.4 1.1-2.5 2.5-2.5 1.37 0 2.5 1.1 2.5 2.5zm7.54 6.57c0 1.38-1.12 2.5-2.5 2.5s-2.5-1.12-2.5-2.5 1.12-2.5 2.5-2.5 2.5 1.12 2.5 2.5zm7.54 6.57c0 1.38-1.12 2.5-2.5 2.5s-2.5-1.12-2.5-2.5 1.12-2.5 2.5-2.5 2.5 1.12 2.5 2.5zm7.55 6.58c0 1.38-1.12 2.5-2.5 2.5s-2.5-1.12-2.5-2.5 1.12-2.5 2.5-2.5 2.5 1.12 2.5 2.5zm7.54 6.57c0 1.37-1.12 2.5-2.5 2.5s-2.5-1.13-2.5-2.5c0-1.4 1.12-2.5 2.5-2.5s2.5 1.1 2.5 2.5zm7.55 6.57c0 1.38-1.12 2.5-2.5 2.5s-2.5-1.12-2.5-2.5c0-1.4 1.12-2.5 2.5-2.5s2.5 1.1 2.5 2.5zm7.54 6.57c0 1.38-1.12 2.5-2.5 2.5s-2.5-1.12-2.5-2.5 1.12-2.5 2.5-2.5 2.5 1.12 2.5 2.5zm7.55 6.58c0 1.38-1.1 2.5-2.5 2.5-1.37 0-2.5-1.12-2.5-2.5 0-1.4 1.13-2.5 2.5-2.5 1.4 0 2.5 1.1 2.5 2.5zm7.55 6.57c0 1.37-1.12 2.5-2.5 2.5s-2.5-1.13-2.5-2.5c0-1.4 1.12-2.5 2.5-2.5s2.5 1.1 2.5 2.5zm7.55 6.57c0 1.38-1.12 2.5-2.5 2.5s-2.5-1.12-2.5-2.5c0-1.4 1.12-2.5 2.5-2.5s2.5 1.1 2.5 2.5zm7.54 6.57c0 1.38-1.12 2.5-2.5 2.5s-2.5-1.12-2.5-2.5 1.12-2.5 2.5-2.5 2.5 1.12 2.5 2.5zm7.55 6.57c0 1.4-1.13 2.5-2.5 2.5-1.4 0-2.5-1.1-2.5-2.5 0-1.37 1.1-2.5 2.5-2.5 1.37 0 2.5 1.13 2.5 2.5zm7.53 6.6c0 1.37-1.12 2.5-2.5 2.5s-2.5-1.13-2.5-2.5c0-1.4 1.12-2.5 2.5-2.5s2.5 1.1 2.5 2.5zm7.55 6.56c0 1.4-1.12 2.5-2.5 2.5s-2.5-1.1-2.5-2.5c0-1.38 1.12-2.5 2.5-2.5s2.5 1.12 2.5 2.5zm7.54 6.58c0 1.38-1.12 2.5-2.5 2.5s-2.5-1.12-2.5-2.5 1.12-2.5 2.5-2.5 2.5 1.12 2.5 2.5zm7.55 6.57c0 1.4-1.12 2.5-2.5 2.5s-2.5-1.1-2.5-2.5c0-1.37 1.12-2.5 2.5-2.5s2.5 1.13 2.5 2.5zm7.54 6.6c0 1.37-1.1 2.5-2.5 2.5-1.37 0-2.5-1.13-2.5-2.5 0-1.4 1.13-2.5 2.5-2.5 1.4 0 2.5 1.1 2.5 2.5zm7.56 6.56c0 1.38-1.12 2.5-2.5 2.5s-2.5-1.12-2.5-2.5 1.12-2.5 2.5-2.5 2.5 1.12 2.5 2.5zm7.54 6.58c0 1.38-1.1 2.5-2.5 2.5-1.38 0-2.5-1.12-2.5-2.5s1.12-2.5 2.5-2.5c1.4 0 2.5 1.12 2.5 2.5zm7.55 6.57c0 1.4-1.12 2.5-2.5 2.5s-2.5-1.1-2.5-2.5c0-1.37 1.12-2.5 2.5-2.5s2.5 1.13 2.5 2.5zm7.54 6.6c0 1.37-1.12 2.5-2.5 2.5-1.4 0-2.5-1.13-2.5-2.5 0-1.4 1.1-2.5 2.5-2.5 1.38 0 2.5 1.1 2.5 2.5zm7.54 6.56c0 1.38-1.12 2.5-2.5 2.5s-2.5-1.12-2.5-2.5 1.12-2.5 2.5-2.5 2.5 1.12 2.5 2.5zm7.55 6.58c0 1.38-1.13 2.5-2.5 2.5-1.4 0-2.5-1.12-2.5-2.5s1.1-2.5 2.5-2.5c1.37 0 2.5 1.12 2.5 2.5zm7.53 6.57c0 1.4-1.12 2.5-2.5 2.5s-2.5-1.1-2.5-2.5c0-1.37 1.12-2.5 2.5-2.5s2.5 1.13 2.5 2.5zm7.55 6.6c0 1.37-1.12 2.5-2.5 2.5s-2.5-1.13-2.5-2.5c0-1.4 1.12-2.5 2.5-2.5s2.5 1.1 2.5 2.5zm7.54 6.56c0 1.38-1.12 2.5-2.5 2.5s-2.5-1.12-2.5-2.5 1.12-2.5 2.5-2.5 2.5 1.12 2.5 2.5zm7.55 6.58c0 1.38-1.12 2.5-2.5 2.5s-2.5-1.12-2.5-2.5 1.12-2.5 2.5-2.5 2.5 1.12 2.5 2.5zm7.54 6.57c0 1.4-1.1 2.5-2.5 2.5-1.37 0-2.5-1.1-2.5-2.5 0-1.37 1.13-2.5 2.5-2.5 1.4 0 2.5 1.13 2.5 2.5zm7.56 6.6c0 1.37-1.12 2.5-2.5 2.5s-2.5-1.13-2.5-2.5c0-1.4 1.12-2.5 2.5-2.5s2.5 1.1 2.5 2.5zm7.54 6.56c0 1.38-1.12 2.5-2.5 2.5s-2.5-1.12-2.5-2.5 1.12-2.5 2.5-2.5 2.5 1.12 2.5 2.5zm7.55 6.58c0 1.38-1.12 2.5-2.5 2.5s-2.5-1.12-2.5-2.5 1.12-2.5 2.5-2.5 2.5 1.12 2.5 2.5zm7.54 6.57c0 1.4-1.13 2.5-2.5 2.5-1.4 0-2.5-1.1-2.5-2.5 0-1.37 1.1-2.5 2.5-2.5 1.37 0 2.5 1.13 2.5 2.5zm7.54 6.6c0 1.37-1.12 2.5-2.5 2.5s-2.5-1.13-2.5-2.5c0-1.4 1.12-2.5 2.5-2.5s2.5 1.1 2.5 2.5zm7.54 6.56c0 1.38-1.12 2.5-2.5 2.5s-2.5-1.12-2.5-2.5 1.12-2.5 2.5-2.5 2.5 1.12 2.5 2.5zm7.55 6.58c0 1.38-1.12 2.5-2.5 2.5s-2.5-1.12-2.5-2.5 1.12-2.5 2.5-2.5 2.5 1.12 2.5 2.5zm7.54 6.57c0 1.4-1.12 2.5-2.5 2.5s-2.5-1.1-2.5-2.5c0-1.37 1.12-2.5 2.5-2.5s2.5 1.13 2.5 2.5zm7.55 6.6c0 1.37-1.12 2.5-2.5 2.5s-2.5-1.13-2.5-2.5c0-1.4 1.12-2.5 2.5-2.5s2.5 1.1 2.5 2.5zm7.54 6.56c0 1.38-1.12 2.5-2.5 2.5s-2.5-1.12-2.5-2.5 1.12-2.5 2.5-2.5 2.5 1.12 2.5 2.5zm7.55 6.58c0 1.38-1.1 2.5-2.5 2.5-1.37 0-2.5-1.12-2.5-2.5 0-1.4 1.13-2.5 2.5-2.5 1.4 0 2.5 1.1 2.5 2.5zm7.55 6.57c0 1.4-1.12 2.5-2.5 2.5s-2.5-1.1-2.5-2.5c0-1.37 1.12-2.5 2.5-2.5s2.5 1.13 2.5 2.5zm7.55 6.58c0 1.4-1.12 2.5-2.5 2.5s-2.5-1.1-2.5-2.5c0-1.38 1.12-2.5 2.5-2.5s2.5 1.12 2.5 2.5zm7.54 6.58c0 1.38-1.12 2.5-2.5 2.5s-2.5-1.12-2.5-2.5 1.12-2.5 2.5-2.5 2.5 1.12 2.5 2.5zm7.55 6.57c0 1.4-1.13 2.5-2.5 2.5-1.4 0-2.5-1.1-2.5-2.5 0-1.38 1.1-2.5 2.5-2.5 1.37 0 2.5 1.12 2.5 2.5zm7.53 6.58c0 1.4-1.1 2.5-2.5 2.5-1.38 0-2.5-1.1-2.5-2.5 0-1.37 1.12-2.5 2.5-2.5 1.4 0 2.5 1.13 2.5 2.5zm7.55 6.58c0 1.38-1.12 2.5-2.5 2.5s-2.5-1.12-2.5-2.5 1.12-2.5 2.5-2.5 2.5 1.12 2.5 2.5zm7.54 6.58c0 1.38-1.1 2.5-2.5 2.5-1.38 0-2.5-1.12-2.5-2.5s1.12-2.5 2.5-2.5c1.4 0 2.5 1.12 2.5 2.5zm7.55 6.57c0 1.38-1.12 2.5-2.5 2.5s-2.5-1.12-2.5-2.5 1.12-2.5 2.5-2.5 2.5 1.12 2.5 2.5zm7.55 6.58c0 1.4-1.12 2.5-2.5 2.5-1.4 0-2.5-1.1-2.5-2.5 0-1.37 1.1-2.5 2.5-2.5 1.38 0 2.5 1.13 2.5 2.5zm7.54 6.58c0 1.38-1.12 2.5-2.5 2.5s-2.5-1.12-2.5-2.5 1.12-2.5 2.5-2.5 2.5 1.12 2.5 2.5z" fill="#5e5e5e"/><path d="M20284.08 14963.2l-3.3 3.78-.28-.25v-6.63z" fill="#5e5e5e"/><path d="M21275.9 15830.8l-13.8-5.88 6.1-7z" stroke="#5e5e5e" stroke-width="5" fill="#5e5e5e"/><path d="M19863.03 16124.5l.67 47.4 1.25 20.33 1.5 14.5 1.67 11.3 1.75 9.18 1.8 7.66 1.8 6.5 1.82 5.63 1.82 4.9 1.8 4.32 1.82 3.85 1.8 3.45 1.8 3.1 1.8 2.84 1.78 2.57 1.8 2.36 1.78 2.16 1.8 2 1.8 1.85 1.84 1.72 1.85 1.6 1.87 1.5 1.9 1.37 1.95 1.3 2 1.2 2.04 1.12 2.1 1.04 2.17.97 2.25.9h.03" stroke="#5e5e5e" stroke-width="5" fill="none"/><path d="M19865.53 16124.54l-5 .07-.04-2.6h5z" fill="#5e5e5e"/><path d="M19931.52 16295.86l-14.83 2.23 1.5-9.15z" stroke="#5e5e5e" stroke-width="5" fill="#5e5e5e"/><path d="M20820 16086c0-3.3 2.7-6 6-6h288c3.3 0 6 2.7 6 6v91c0 3.33-2.7 6-6 6h-288c-3.3 0-6-2.67-6-6z" stroke="#000" fill="#fff"/><use xlink:href="#q" transform="matrix(1,0,0,1,20825,16085) translate(93.4888888888889 52.0375)"/><path d="M20820 16406c0-3.3 2.7-6 6-6h288c3.3 0 6 2.7 6 6v91c0 3.33-2.7 6-6 6h-288c-3.3 0-6-2.67-6-6z" stroke="#000" fill="#fff"/><use xlink:href="#r" transform="matrix(1,0,0,1,20825,16405) translate(70.42222222222222 52.0375)"/><path d="M20743 16297.14l2.97-.06 5.37-.36 5.25-.58 5.15-.8 5.04-1 4.93-1.23 4.84-1.4 4.73-1.63 4.6-1.8 4.52-2 4.38-2.2 4.27-2.36 4.15-2.53 4.02-2.7 3.88-2.9 3.75-3.03 3.6-3.2 3.47-3.36 3.32-3.5 3.15-3.65 3-3.8 2.84-3.92 2.66-4.04 2.5-4.18 2.3-4.3 2.14-4.43 1.95-4.53 1.74-4.65 1.56-4.76 1.37-4.86 1.16-4.97.03-.17" stroke="#5e5e5e" stroke-width="5" fill="none"/><path d="M20743.12 16299.64l-2.62.06v-5l2.5-.06z" fill="#5e5e5e"/><path d="M20853.36 16191.56l3.16 14.66-9.22-.94z" stroke="#5e5e5e" stroke-width="5" fill="#5e5e5e"/><path d="M20743 16297.26l2.97.07 5.34.4 5.24.63 5.1.9 5 1.1 4.88 1.34 4.76 1.57 4.63 1.78 4.52 2 4.4 2.18 4.23 2.4 4.1 2.58 3.98 2.8 3.82 2.95 3.66 3.15 3.52 3.3 3.33 3.5 3.17 3.63 3 3.8 2.8 3.94 2.6 4.1 2.43 4.22 2.22 4.36 2.02 4.5 1.8 4.6 1.6 4.75 1.36 4.87.5 2.2" stroke="#5e5e5e" stroke-width="5" fill="none"/><path d="M20743.13 16294.76l-.13 5-2.5-.06v-5z" fill="#5e5e5e"/><path d="M20841.88 16391.46l-6.23-13.64 9.2-1.06z" stroke="#5e5e5e" stroke-width="5" fill="#5e5e5e"/><defs><path d="M24 0v-248h52V0H24" id="s"/><path d="M135-194c87-1 58 113 63 194h-50c-7-57 23-157-34-157-59 0-34 97-39 157H25l-1-190h47c2 12-1 28 3 38 12-26 28-41 61-42" id="t"/><path d="M128 0H69L1-190h53L99-40l48-150h52" id="u"/><path d="M185-48c-13 30-37 53-82 52C43 2 14-33 14-96s30-98 90-98c62 0 83 45 84 108H66c0 31 8 55 39 56 18 0 30-7 34-22zm-45-69c5-46-57-63-70-21-2 6-4 13-4 21h74" id="v"/><path d="M115-3C79 11 28 4 28-45v-112H4v-33h27l15-45h31v45h36v33H77v99c-1 23 16 31 38 25v30" id="w"/><path d="M110-194c64 0 96 36 96 99 0 64-35 99-97 99-61 0-95-36-95-99 0-62 34-99 96-99zm-1 164c35 0 45-28 45-65 0-40-10-65-43-65-34 0-45 26-45 65 0 36 10 65 43 65" id="x"/><path d="M135-150c-39-12-60 13-60 57V0H25l-1-190h47c2 13-1 29 3 40 6-28 27-53 61-41v41" id="y"/><path d="M123 10C108 53 80 86 19 72V37c35 8 53-11 59-39L3-190h52l48 148c12-52 28-100 44-148h51" id="z"/><g id="a"><use transform="matrix(0.24691358024691357,0,0,0.24691358024691357,0,0)" xlink:href="#s"/><use transform="matrix(0.24691358024691357,0,0,0.24691358024691357,24.691358024691358,0)" xlink:href="#t"/><use transform="matrix(0.24691358024691357,0,0,0.24691358024691357,78.76543209876543,0)" xlink:href="#u"/><use transform="matrix(0.24691358024691357,0,0,0.24691358024691357,128.14814814814815,0)" xlink:href="#v"/><use transform="matrix(0.24691358024691357,0,0,0.24691358024691357,177.53086419753086,0)" xlink:href="#t"/><use transform="matrix(0.24691358024691357,0,0,0.24691358024691357,231.60493827160494,0)" xlink:href="#w"/><use transform="matrix(0.24691358024691357,0,0,0.24691358024691357,260.98765432098764,0)" xlink:href="#x"/><use transform="matrix(0.24691358024691357,0,0,0.24691358024691357,315.0617283950617,0)" xlink:href="#y"/><use transform="matrix(0.24691358024691357,0,0,0.24691358024691357,349.6296296296296,0)" xlink:href="#z"/></g><path d="M33 0v-248h34V0H33" id="A"/><path d="M117-194c89-4 53 116 60 194h-32v-121c0-31-8-49-39-48C34-167 62-67 57 0H25l-1-190h30c1 10-1 24 2 32 11-22 29-35 61-36" id="B"/><path d="M108 0H70L1-190h34L89-25l56-165h34" id="C"/><path d="M100-194c63 0 86 42 84 106H49c0 40 14 67 53 68 26 1 43-12 49-29l28 8c-11 28-37 45-77 45C44 4 14-33 15-96c1-61 26-98 85-98zm52 81c6-60-76-77-97-28-3 7-6 17-6 28h103" id="D"/><path d="M59-47c-2 24 18 29 38 22v24C64 9 27 4 27-40v-127H5v-23h24l9-43h21v43h35v23H59v120" id="E"/><path d="M100-194c62-1 85 37 85 99 1 63-27 99-86 99S16-35 15-95c0-66 28-99 85-99zM99-20c44 1 53-31 53-75 0-43-8-75-51-75s-53 32-53 75 10 74 51 75" id="F"/><path d="M114-163C36-179 61-72 57 0H25l-1-190h30c1 12-1 29 2 39 6-27 23-49 58-41v29" id="G"/><path d="M179-190L93 31C79 59 56 82 12 73V49c39 6 53-20 64-50L1-190h34L92-34l54-156h33" id="H"/><g id="b"><use transform="matrix(0.30864197530864196,0,0,0.30864197530864196,0,0)" xlink:href="#A"/><use transform="matrix(0.30864197530864196,0,0,0.30864197530864196,30.864197530864196,0)" xlink:href="#B"/><use transform="matrix(0.30864197530864196,0,0,0.30864197530864196,92.59259259259258,0)" xlink:href="#C"/><use transform="matrix(0.30864197530864196,0,0,0.30864197530864196,148.14814814814812,0)" xlink:href="#D"/><use transform="matrix(0.30864197530864196,0,0,0.30864197530864196,209.8765432098765,0)" xlink:href="#B"/><use transform="matrix(0.30864197530864196,0,0,0.30864197530864196,271.6049382716049,0)" xlink:href="#E"/><use transform="matrix(0.30864197530864196,0,0,0.30864197530864196,302.4691358024691,0)" xlink:href="#F"/><use transform="matrix(0.30864197530864196,0,0,0.30864197530864196,364.1975308641975,0)" xlink:href="#G"/><use transform="matrix(0.30864197530864196,0,0,0.30864197530864196,400.9259259259259,0)" xlink:href="#H"/></g><path d="M24-231v-30h32v30H24zM24 0v-190h32V0H24" id="I"/><g id="c"><use transform="matrix(0.08888888888888889,0,0,0.08888888888888889,0,0)" xlink:href="#I"/><use transform="matrix(0.08888888888888889,0,0,0.08888888888888889,7.022222222222222,0)" xlink:href="#B"/><use transform="matrix(0.08888888888888889,0,0,0.08888888888888889,24.8,0)" xlink:href="#C"/><use transform="matrix(0.08888888888888889,0,0,0.08888888888888889,40.8,0)" xlink:href="#D"/><use transform="matrix(0.08888888888888889,0,0,0.08888888888888889,58.57777777777778,0)" xlink:href="#B"/><use transform="matrix(0.08888888888888889,0,0,0.08888888888888889,76.35555555555555,0)" xlink:href="#E"/><use transform="matrix(0.08888888888888889,0,0,0.08888888888888889,85.24444444444444,0)" xlink:href="#F"/><use transform="matrix(0.08888888888888889,0,0,0.08888888888888889,103.02222222222221,0)" xlink:href="#G"/><use transform="matrix(0.08888888888888889,0,0,0.08888888888888889,113.60000000000001,0)" xlink:href="#H"/></g><path d="M135-143c-3-34-86-38-87 0 15 53 115 12 119 90S17 21 10-45l28-5c4 36 97 45 98 0-10-56-113-15-118-90-4-57 82-63 122-42 12 7 21 19 24 35" id="J"/><path d="M210-169c-67 3-38 105-44 169h-31v-121c0-29-5-50-35-48C34-165 62-65 56 0H25l-1-190h30c1 10-1 24 2 32 10-44 99-50 107 0 11-21 27-35 58-36 85-2 47 119 55 194h-31v-121c0-29-5-49-35-48" id="K"/><path d="M141-36C126-15 110 5 73 4 37 3 15-17 15-53c-1-64 63-63 125-63 3-35-9-54-41-54-24 1-41 7-42 31l-33-3c5-37 33-52 76-52 45 0 72 20 72 64v82c-1 20 7 32 28 27v20c-31 9-61-2-59-35zM48-53c0 20 12 33 32 33 41-3 63-29 60-74-43 2-92-5-92 41" id="L"/><g id="d"><use transform="matrix(0.08888888888888889,0,0,0.08888888888888889,0,0)" xlink:href="#J"/><use transform="matrix(0.08888888888888889,0,0,0.08888888888888889,16,0)" xlink:href="#K"/><use transform="matrix(0.08888888888888889,0,0,0.08888888888888889,42.57777777777778,0)" xlink:href="#L"/><use transform="matrix(0.08888888888888889,0,0,0.08888888888888889,60.35555555555556,0)" xlink:href="#G"/><use transform="matrix(0.08888888888888889,0,0,0.08888888888888889,70.93333333333334,0)" xlink:href="#E"/></g><path d="M101-234c-31-9-42 10-38 44h38v23H63V0H32v-167H5v-23h27c-7-52 17-82 69-68v24" id="M"/><path d="M85-194c31 0 48 13 60 33l-1-100h32l1 261h-30c-2-10 0-23-3-31C134-8 116 4 85 4 32 4 16-35 15-94c0-66 23-100 70-100zm9 24c-40 0-46 34-46 75 0 40 6 74 45 74 42 0 51-32 51-76 0-42-9-74-50-73" id="N"/><path d="M177-190C167-65 218 103 67 71c-23-6-38-20-44-43l32-5c15 47 100 32 89-28v-30C133-14 115 1 83 1 29 1 15-40 15-95c0-56 16-97 71-98 29-1 48 16 59 35 1-10 0-23 2-32h30zM94-22c36 0 50-32 50-73 0-42-14-75-50-75-39 0-46 34-46 75s6 73 46 73" id="O"/><g id="e"><use transform="matrix(0.08888888888888889,0,0,0.08888888888888889,0,0)" xlink:href="#M"/><use transform="matrix(0.08888888888888889,0,0,0.08888888888888889,8.88888888888889,0)" xlink:href="#G"/><use transform="matrix(0.08888888888888889,0,0,0.08888888888888889,19.46666666666667,0)" xlink:href="#I"/><use transform="matrix(0.08888888888888889,0,0,0.08888888888888889,26.48888888888889,0)" xlink:href="#N"/><use transform="matrix(0.08888888888888889,0,0,0.08888888888888889,44.266666666666666,0)" xlink:href="#O"/><use transform="matrix(0.08888888888888889,0,0,0.08888888888888889,62.044444444444444,0)" xlink:href="#D"/></g><path d="M24 0v-261h32V0H24" id="P"/><g id="f"><use transform="matrix(0.08888888888888889,0,0,0.08888888888888889,0,0)" xlink:href="#E"/><use transform="matrix(0.08888888888888889,0,0,0.08888888888888889,8.88888888888889,0)" xlink:href="#G"/><use transform="matrix(0.08888888888888889,0,0,0.08888888888888889,19.46666666666667,0)" xlink:href="#L"/><use transform="matrix(0.08888888888888889,0,0,0.08888888888888889,37.24444444444445,0)" xlink:href="#N"/><use transform="matrix(0.08888888888888889,0,0,0.08888888888888889,55.022222222222226,0)" xlink:href="#I"/><use transform="matrix(0.08888888888888889,0,0,0.08888888888888889,62.044444444444444,0)" xlink:href="#E"/><use transform="matrix(0.08888888888888889,0,0,0.08888888888888889,70.93333333333334,0)" xlink:href="#I"/><use transform="matrix(0.08888888888888889,0,0,0.08888888888888889,77.95555555555556,0)" xlink:href="#F"/><use transform="matrix(0.08888888888888889,0,0,0.08888888888888889,95.73333333333336,0)" xlink:href="#B"/><use transform="matrix(0.08888888888888889,0,0,0.08888888888888889,113.51111111111112,0)" xlink:href="#L"/><use transform="matrix(0.08888888888888889,0,0,0.08888888888888889,131.2888888888889,0)" xlink:href="#P"/></g><path d="M143 0L79-87 56-68V0H24v-261h32v163l83-92h37l-77 82L181 0h-38" id="Q"/><g id="g"><use transform="matrix(0.08888888888888889,0,0,0.08888888888888889,0,0)" xlink:href="#Q"/><use transform="matrix(0.08888888888888889,0,0,0.08888888888888889,16,0)" xlink:href="#I"/><use transform="matrix(0.08888888888888889,0,0,0.08888888888888889,23.022222222222222,0)" xlink:href="#F"/><use transform="matrix(0.08888888888888889,0,0,0.08888888888888889,40.8,0)" xlink:href="#J"/><use transform="matrix(0.08888888888888889,0,0,0.08888888888888889,56.800000000000004,0)" xlink:href="#Q"/></g><path d="M206 0h-36l-40-164L89 0H53L-1-190h32L70-26l43-164h34l41 164 42-164h31" id="R"/><path d="M106-169C34-169 62-67 57 0H25v-261h32l-1 103c12-21 28-36 61-36 89 0 53 116 60 194h-32v-121c2-32-8-49-39-48" id="S"/><path d="M84 4C-5 8 30-112 23-190h32v120c0 31 7 50 39 49 72-2 45-101 50-169h31l1 190h-30c-1-10 1-25-2-33-11 22-28 36-60 37" id="T"/><g id="h"><use transform="matrix(0.08888888888888889,0,0,0.08888888888888889,0,0)" xlink:href="#R"/><use transform="matrix(0.08888888888888889,0,0,0.08888888888888889,23.022222222222222,0)" xlink:href="#L"/><use transform="matrix(0.08888888888888889,0,0,0.08888888888888889,40.8,0)" xlink:href="#G"/><use transform="matrix(0.08888888888888889,0,0,0.08888888888888889,51.37777777777777,0)" xlink:href="#D"/><use transform="matrix(0.08888888888888889,0,0,0.08888888888888889,69.15555555555555,0)" xlink:href="#S"/><use transform="matrix(0.08888888888888889,0,0,0.08888888888888889,86.93333333333334,0)" xlink:href="#F"/><use transform="matrix(0.08888888888888889,0,0,0.08888888888888889,104.71111111111111,0)" xlink:href="#T"/><use transform="matrix(0.08888888888888889,0,0,0.08888888888888889,122.48888888888888,0)" xlink:href="#J"/><use transform="matrix(0.08888888888888889,0,0,0.08888888888888889,138.48888888888888,0)" xlink:href="#D"/></g><path d="M115-194c55 1 70 41 70 98S169 2 115 4C84 4 66-9 55-30l1 105H24l-1-265h31l2 30c10-21 28-34 59-34zm-8 174c40 0 45-34 45-75s-6-73-45-74c-42 0-51 32-51 76 0 43 10 73 51 73" id="U"/><g id="i"><use transform="matrix(0.08888888888888889,0,0,0.08888888888888889,0,0)" xlink:href="#T"/><use transform="matrix(0.08888888888888889,0,0,0.08888888888888889,17.77777777777778,0)" xlink:href="#U"/><use transform="matrix(0.08888888888888889,0,0,0.08888888888888889,35.55555555555556,0)" xlink:href="#N"/><use transform="matrix(0.08888888888888889,0,0,0.08888888888888889,53.333333333333336,0)" xlink:href="#L"/><use transform="matrix(0.08888888888888889,0,0,0.08888888888888889,71.11111111111111,0)" xlink:href="#E"/><use transform="matrix(0.08888888888888889,0,0,0.08888888888888889,80,0)" xlink:href="#D"/></g><g id="j"><use transform="matrix(0.08888888888888889,0,0,0.08888888888888889,0,0)" xlink:href="#K"/><use transform="matrix(0.08888888888888889,0,0,0.08888888888888889,26.57777777777778,0)" xlink:href="#F"/><use transform="matrix(0.08888888888888889,0,0,0.08888888888888889,44.355555555555554,0)" xlink:href="#B"/><use transform="matrix(0.08888888888888889,0,0,0.08888888888888889,62.13333333333333,0)" xlink:href="#I"/><use transform="matrix(0.08888888888888889,0,0,0.08888888888888889,69.15555555555555,0)" xlink:href="#E"/><use transform="matrix(0.08888888888888889,0,0,0.08888888888888889,78.04444444444444,0)" xlink:href="#F"/><use transform="matrix(0.08888888888888889,0,0,0.08888888888888889,95.82222222222222,0)" xlink:href="#G"/><use transform="matrix(0.08888888888888889,0,0,0.08888888888888889,106.4,0)" xlink:href="#I"/><use transform="matrix(0.08888888888888889,0,0,0.08888888888888889,113.42222222222223,0)" xlink:href="#B"/><use transform="matrix(0.08888888888888889,0,0,0.08888888888888889,131.20000000000002,0)" xlink:href="#O"/></g><path fill="#333" d="M135-150c-39-12-60 13-60 57V0H25l-1-190h47c2 13-1 29 3 40 6-28 27-53 61-41v41" id="V"/><path fill="#333" d="M185-48c-13 30-37 53-82 52C43 2 14-33 14-96s30-98 90-98c62 0 83 45 84 108H66c0 31 8 55 39 56 18 0 30-7 34-22zm-45-69c5-46-57-63-70-21-2 6-4 13-4 21h74" id="W"/><path fill="#333" d="M137-138c1-29-70-34-71-4 15 46 118 7 119 86 1 83-164 76-172 9l43-7c4 19 20 25 44 25 33 8 57-30 24-41C81-84 22-81 20-136c-2-80 154-74 161-7" id="X"/><path fill="#333" d="M115-3C79 11 28 4 28-45v-112H4v-33h27l15-45h31v45h36v33H77v99c-1 23 16 31 38 25v30" id="Y"/><path fill="#333" d="M110-194c64 0 96 36 96 99 0 64-35 99-97 99-61 0-95-36-95-99 0-62 34-99 96-99zm-1 164c35 0 45-28 45-65 0-40-10-65-43-65-34 0-45 26-45 65 0 36 10 65 43 65" id="Z"/><path fill="#333" d="M190-63c-7 42-38 67-86 67-59 0-84-38-90-98-12-110 154-137 174-36l-49 2c-2-19-15-32-35-32-30 0-35 28-38 64-6 74 65 87 74 30" id="aa"/><path fill="#333" d="M147 0L96-86 75-71V0H25v-261h50v150l67-79h53l-66 74L201 0h-54" id="ab"/><g id="k"><use transform="matrix(0.0925925925925926,0,0,0.0925925925925926,0,0)" xlink:href="#V"/><use transform="matrix(0.0925925925925926,0,0,0.0925925925925926,12.962962962962964,0)" xlink:href="#W"/><use transform="matrix(0.0925925925925926,0,0,0.0925925925925926,31.48148148148148,0)" xlink:href="#X"/><use transform="matrix(0.0925925925925926,0,0,0.0925925925925926,50.00000000000001,0)" xlink:href="#Y"/><use transform="matrix(0.0925925925925926,0,0,0.0925925925925926,61.018518518518526,0)" xlink:href="#Z"/><use transform="matrix(0.0925925925925926,0,0,0.0925925925925926,81.2962962962963,0)" xlink:href="#aa"/><use transform="matrix(0.0925925925925926,0,0,0.0925925925925926,99.81481481481482,0)" xlink:href="#ab"/></g><g id="l"><use transform="matrix(0.0925925925925926,0,0,0.0925925925925926,0,0)" xlink:href="#F"/><use transform="matrix(0.0925925925925926,0,0,0.0925925925925926,18.51851851851852,0)" xlink:href="#T"/><use transform="matrix(0.0925925925925926,0,0,0.0925925925925926,37.03703703703704,0)" xlink:href="#E"/><use transform="matrix(0.0925925925925926,0,0,0.0925925925925926,46.2962962962963,0)" xlink:href="#O"/><use transform="matrix(0.0925925925925926,0,0,0.0925925925925926,64.81481481481481,0)" xlink:href="#F"/><use transform="matrix(0.0925925925925926,0,0,0.0925925925925926,83.33333333333333,0)" xlink:href="#I"/><use transform="matrix(0.0925925925925926,0,0,0.0925925925925926,90.64814814814814,0)" xlink:href="#B"/><use transform="matrix(0.0925925925925926,0,0,0.0925925925925926,109.16666666666666,0)" xlink:href="#O"/></g><path d="M96-169c-40 0-48 33-48 73s9 75 48 75c24 0 41-14 43-38l32 2c-6 37-31 61-74 61-59 0-76-41-82-99-10-93 101-131 147-64 4 7 5 14 7 22l-32 3c-4-21-16-35-41-35" id="ac"/><g id="m"><use transform="matrix(0.0925925925925926,0,0,0.0925925925925926,0,0)" xlink:href="#B"/><use transform="matrix(0.0925925925925926,0,0,0.0925925925925926,18.51851851851852,0)" xlink:href="#F"/><use transform="matrix(0.0925925925925926,0,0,0.0925925925925926,37.03703703703704,0)" xlink:href="#E"/><use transform="matrix(0.0925925925925926,0,0,0.0925925925925926,46.2962962962963,0)" xlink:href="#I"/><use transform="matrix(0.0925925925925926,0,0,0.0925925925925926,53.611111111111114,0)" xlink:href="#M"/><use transform="matrix(0.0925925925925926,0,0,0.0925925925925926,62.870370370370374,0)" xlink:href="#I"/><use transform="matrix(0.0925925925925926,0,0,0.0925925925925926,70.18518518518519,0)" xlink:href="#ac"/><use transform="matrix(0.0925925925925926,0,0,0.0925925925925926,86.85185185185186,0)" xlink:href="#L"/><use transform="matrix(0.0925925925925926,0,0,0.0925925925925926,105.37037037037038,0)" xlink:href="#E"/><use transform="matrix(0.0925925925925926,0,0,0.0925925925925926,114.62962962962965,0)" xlink:href="#I"/><use transform="matrix(0.0925925925925926,0,0,0.0925925925925926,121.94444444444446,0)" xlink:href="#F"/><use transform="matrix(0.0925925925925926,0,0,0.0925925925925926,140.462962962963,0)" xlink:href="#B"/></g><path d="M145-31C134-9 116 4 85 4 32 4 16-35 15-94c0-59 17-99 70-100 32-1 48 14 60 33 0-11-1-24 2-32h30l-1 268h-32zM93-21c41 0 51-33 51-76s-8-73-50-73c-40 0-46 35-46 75s5 74 45 74" id="ad"/><g id="n"><use transform="matrix(0.0925925925925926,0,0,0.0925925925925926,0,0)" xlink:href="#ad"/><use transform="matrix(0.0925925925925926,0,0,0.0925925925925926,18.51851851851852,0)" xlink:href="#T"/><use transform="matrix(0.0925925925925926,0,0,0.0925925925925926,37.03703703703704,0)" xlink:href="#D"/><use transform="matrix(0.0925925925925926,0,0,0.0925925925925926,55.555555555555564,0)" xlink:href="#T"/><use transform="matrix(0.0925925925925926,0,0,0.0925925925925926,74.07407407407408,0)" xlink:href="#D"/></g><g id="o"><use transform="matrix(0.0925925925925926,0,0,0.0925925925925926,0,0)" xlink:href="#I"/><use transform="matrix(0.0925925925925926,0,0,0.0925925925925926,7.314814814814816,0)" xlink:href="#B"/><use transform="matrix(0.0925925925925926,0,0,0.0925925925925926,25.833333333333336,0)" xlink:href="#C"/><use transform="matrix(0.0925925925925926,0,0,0.0925925925925926,42.5,0)" xlink:href="#D"/><use transform="matrix(0.0925925925925926,0,0,0.0925925925925926,61.018518518518526,0)" xlink:href="#B"/><use transform="matrix(0.0925925925925926,0,0,0.0925925925925926,79.53703703703704,0)" xlink:href="#E"/><use transform="matrix(0.0925925925925926,0,0,0.0925925925925926,88.7962962962963,0)" xlink:href="#F"/><use transform="matrix(0.0925925925925926,0,0,0.0925925925925926,107.31481481481482,0)" xlink:href="#G"/><use transform="matrix(0.0925925925925926,0,0,0.0925925925925926,118.33333333333334,0)" xlink:href="#H"/></g><g id="p"><use transform="matrix(0.0925925925925926,0,0,0.0925925925925926,0,0)" xlink:href="#T"/><use transform="matrix(0.0925925925925926,0,0,0.0925925925925926,18.51851851851852,0)" xlink:href="#U"/><use transform="matrix(0.0925925925925926,0,0,0.0925925925925926,37.03703703703704,0)" xlink:href="#N"/><use transform="matrix(0.0925925925925926,0,0,0.0925925925925926,55.555555555555564,0)" xlink:href="#L"/><use transform="matrix(0.0925925925925926,0,0,0.0925925925925926,74.07407407407408,0)" xlink:href="#E"/><use transform="matrix(0.0925925925925926,0,0,0.0925925925925926,83.33333333333334,0)" xlink:href="#D"/></g><g id="q"><use transform="matrix(0.08888888888888889,0,0,0.08888888888888889,0,0)" xlink:href="#G"/><use transform="matrix(0.08888888888888889,0,0,0.08888888888888889,10.577777777777778,0)" xlink:href="#D"/><use transform="matrix(0.08888888888888889,0,0,0.08888888888888889,28.355555555555558,0)" xlink:href="#J"/><use transform="matrix(0.08888888888888889,0,0,0.08888888888888889,44.355555555555554,0)" xlink:href="#E"/><use transform="matrix(0.08888888888888889,0,0,0.08888888888888889,53.24444444444443,0)" xlink:href="#F"/><use transform="matrix(0.08888888888888889,0,0,0.08888888888888889,71.02222222222221,0)" xlink:href="#ac"/><use transform="matrix(0.08888888888888889,0,0,0.08888888888888889,87.02222222222221,0)" xlink:href="#Q"/></g><g id="r"><use transform="matrix(0.08888888888888889,0,0,0.08888888888888889,0,0)" xlink:href="#U"/><use transform="matrix(0.08888888888888889,0,0,0.08888888888888889,17.77777777777778,0)" xlink:href="#G"/><use transform="matrix(0.08888888888888889,0,0,0.08888888888888889,28.355555555555558,0)" xlink:href="#F"/><use transform="matrix(0.08888888888888889,0,0,0.08888888888888889,46.13333333333333,0)" xlink:href="#N"/><use transform="matrix(0.08888888888888889,0,0,0.08888888888888889,63.91111111111111,0)" xlink:href="#T"/><use transform="matrix(0.08888888888888889,0,0,0.08888888888888889,81.6888888888889,0)" xlink:href="#ac"/><use transform="matrix(0.08888888888888889,0,0,0.08888888888888889,97.6888888888889,0)" xlink:href="#E"/><use transform="matrix(0.08888888888888889,0,0,0.08888888888888889,106.57777777777778,0)" xlink:href="#I"/><use transform="matrix(0.08888888888888889,0,0,0.08888888888888889,113.60000000000001,0)" xlink:href="#F"/><use transform="matrix(0.08888888888888889,0,0,0.08888888888888889,131.3777777777778,0)" xlink:href="#B"/></g></defs></g></svg>