<svg xmlns="http://www.w3.org/2000/svg" xmlns:xlink="http://www.w3.org/1999/xlink" xmlns:lucid="lucid" width="4420" height="2080"><g transform="translate(-10320 -10880)" lucid:page-tab-id="SdqKk5shKpB1"><path d="M10000 10500h5000v2500h-5000z" fill="#fff"/><path d="M11480 11606c0-3.3 2.7-6 6-6h2564.6c3.33 0 6 2.7 6 6v1328c0 3.3-2.67 6-6 6H11486c-3.3 0-6-2.7-6-6z" stroke="#000" stroke-width="9" fill="#fff" fill-opacity="0"/><use xlink:href="#a" transform="matrix(1,0,0,1,11485,11605) translate(0 71.11111111111111)"/><a xlink:href="https://github.com/selfdriventeam/kata/blob/main/doc/arc/components/notification_engine.md" target="_blank"><path d="M11180 10906c0-3.3 2.7-6 6-6h717c3.3 0 6 2.7 6 6v145.33c0 3.32-2.7 6-6 6h-717c-3.3 0-6-2.68-6-6z" fill="#e5e5e5"/><path d="M11181.35 10902.44l1.1-1.1m2.8-1.14l.75-.2h1m3.98 0h2m3.97 0h2m3.98 0h2m3.97 0h2m3.98 0h2m3.97 0h2m3.98 0h2m3.97 0h2m3.98 0h2m3.97 0h2m3.98 0h2m3.97 0h2m3.98 0h2m3.97 0h2m3.98 0h2m3.97 0h2m3.98 0h2m3.97 0h2m3.98 0h2m3.97 0h2m3.98 0h2m3.97 0h2m3.98 0h2m3.97 0h2m3.98 0h2m3.97 0h2m3.98 0h2m3.97 0h2m3.98 0h2m3.97 0h2m3.98 0h2m3.97 0h2m3.98 0h2m3.97 0h2m3.98 0h2m3.97 0h2m3.98 0h2m3.97 0h2m3.98 0h2m3.97 0h2m3.98 0h2m3.97 0h2m3.98 0h2m3.97 0h2m3.98 0h2m3.97 0h2m3.98 0h2m3.97 0h2m3.98 0h2m3.97 0h2m3.98 0h2m3.97 0h2m3.98 0h2m3.97 0h2m3.98 0h2m3.97 0h2m3.98 0h2m3.97 0h2m3.98 0h2m3.97 0h2m3.98 0h2m3.97 0h2m3.98 0h2m3.97 0h2m3.98 0h2m3.97 0h2m3.98 0h2m3.97 0h2m3.98 0h2m3.97 0h2m3.98 0h2m3.97 0h2m3.98 0h2m3.97 0h2m3.98 0h2m3.97 0h2m3.98 0h2m3.97 0h2m3.98 0h2m3.97 0h2m3.98 0h2m3.97 0h2m3.98 0h2m3.97 0h2m3.98 0h2m3.97 0h2m3.98 0h2m3.97 0h2m3.98 0h2m3.97 0h2m3.98 0h2m3.97 0h2m3.98 0h2m3.97 0h2m3.98 0h2m3.97 0h2m3.98 0h2m3.97 0h2m3.98 0h2m3.97 0h2m3.98 0h2m3.97 0h2m3.98 0h2m3.97 0h2m3.98 0h2m3.97 0h2m3.98 0h2m3.97 0h2m3.98 0h2m3.97 0h2m3.98 0h2m3.97 0h2m3.98 0h2m3.97 0h2m3.98 0h2m3.97 0h2m3.98 0h2m3.97 0h2m3.98 0h2m3.97 0h1l.75.2m2.8 1.15l1.1 1.1m1.15 2.8l.2.75v1m0 4.05v2m0 4.05v2.02m0 4.04v2.02m0 4.03v2.03m0 4.04v2.02m0 4.02v2.02m0 4.04v2.02m0 4.04v2m0 4.05v2m0 4.05v2m0 4.05v2.02m0 4.04v2.02m0 4.03v2.03m0 4.04v2.02m0 4.02v2.02m0 4.04v2.02m0 4.04v2m0 4.05v2m0 4.05v2m0 4.05v2.02m0 4.04v2.02m0 4.03v2.03m0 4.04v2.02m0 4.02v1l-.2.76m-1.15 2.8l-1.1 1.1m-2.8 1.15l-.75.2h-1m-3.98 0h-2m-3.97 0h-2m-3.98 0h-2m-3.97 0h-2m-3.98 0h-2m-3.97 0h-2m-3.98 0h-2m-3.97 0h-2m-3.98 0h-2m-3.97 0h-2m-3.98 0h-2m-3.97 0h-2m-3.98 0h-2m-3.97 0h-2m-3.98 0h-2m-3.97 0h-2m-3.98 0h-2m-3.97 0h-2m-3.98 0h-2m-3.97 0h-2m-3.98 0h-2m-3.97 0h-2m-3.98 0h-2m-3.97 0h-2m-3.98 0h-2m-3.97 0h-2m-3.98 0h-2m-3.97 0h-2m-3.98 0h-2m-3.97 0h-2m-3.98 0h-2m-3.97 0h-2m-3.98 0h-2m-3.97 0h-2m-3.98 0h-2m-3.97 0h-2m-3.98 0h-2m-3.97 0h-2m-3.98 0h-2m-3.97 0h-2m-3.98 0h-2m-3.97 0h-2m-3.98 0h-2m-3.97 0h-2m-3.98 0h-2m-3.97 0h-2m-3.98 0h-2m-3.97 0h-2m-3.98 0h-2m-3.97 0h-2m-3.98 0h-2m-3.97 0h-2m-3.98 0h-2m-3.97 0h-2m-3.98 0h-2m-3.97 0h-2m-3.98 0h-2m-3.97 0h-2m-3.98 0h-2m-3.97 0h-2m-3.98 0h-2m-3.97 0h-2m-3.98 0h-2m-3.97 0h-2m-3.98 0h-2m-3.97 0h-2m-3.98 0h-2m-3.97 0h-2m-3.98 0h-2m-3.97 0h-2m-3.98 0h-2m-3.97 0h-2m-3.98 0h-2m-3.97 0h-2m-3.98 0h-2m-3.97 0h-2m-3.98 0h-2m-3.97 0h-2m-3.98 0h-2m-3.97 0h-2m-3.98 0h-2m-3.97 0h-2m-3.98 0h-2m-3.97 0h-2m-3.98 0h-2m-3.97 0h-2m-3.98 0h-2m-3.97 0h-2m-3.98 0h-2m-3.97 0h-2m-3.98 0h-2m-3.97 0h-2m-3.98 0h-2m-3.97 0h-2m-3.98 0h-2m-3.97 0h-2m-3.98 0h-2m-3.97 0h-2m-3.98 0h-2m-3.97 0h-2m-3.98 0h-2m-3.97 0h-2m-3.98 0h-2m-3.97 0h-2m-3.98 0h-2m-3.97 0h-2m-3.98 0h-2m-3.97 0h-2m-3.98 0h-2m-3.97 0h-2m-3.98 0h-2m-3.97 0h-2m-3.98 0h-2m-3.97 0h-2m-3.98 0h-2m-3.97 0h-2m-3.98 0h-2m-3.97 0h-2m-3.98 0h-2m-3.97 0h-1l-.75-.2m-2.8-1.14l-1.1-1.1m-1.15-2.82l-.2-.75v-1m0-4.04v-2.03m0-4.04v-2.02m0-4.02v-2.02m0-4.04v-2.02m0-4.04v-2m0-4.05v-2m0-4.05v-2m0-4.05v-2.02m0-4.04v-2.02m0-4.03v-2.03m0-4.04v-2.02m0-4.02v-2.02m0-4.04v-2.02m0-4.04v-2m0-4.05v-2m0-4.05v-2m0-4.05v-2.02m0-4.04v-2.02m0-4.03v-2.03m0-4.04v-2.02m0-4.02v-2.02m0-4.04v-2.02m0-4.04v-2m0-4.05v-1l.2-.75" stroke="#000" fill="none"/><use xlink:href="#b" transform="matrix(1,0,0,1,11192,10912) translate(78.42592592592592 88.8888888888889)"/><path class="lucid-link lucid-hotspot lucid-overlay-hotspot" d="M11180 10906c0-3.3 2.7-6 6-6h717c3.3 0 6 2.7 6 6v145.33c0 3.32-2.7 6-6 6h-717c-3.3 0-6-2.68-6-6z" fill="none"/><path class="lucid-link lucid-hotspot lucid-overlay-hotspot" d="M11181.35 10902.44l1.1-1.1m2.8-1.14l.75-.2h1m3.98 0h2m3.97 0h2m3.98 0h2m3.97 0h2m3.98 0h2m3.97 0h2m3.98 0h2m3.97 0h2m3.98 0h2m3.97 0h2m3.98 0h2m3.97 0h2m3.98 0h2m3.97 0h2m3.98 0h2m3.97 0h2m3.98 0h2m3.97 0h2m3.98 0h2m3.97 0h2m3.98 0h2m3.97 0h2m3.98 0h2m3.97 0h2m3.98 0h2m3.97 0h2m3.98 0h2m3.97 0h2m3.98 0h2m3.97 0h2m3.98 0h2m3.97 0h2m3.98 0h2m3.97 0h2m3.98 0h2m3.97 0h2m3.98 0h2m3.97 0h2m3.98 0h2m3.97 0h2m3.98 0h2m3.97 0h2m3.98 0h2m3.97 0h2m3.98 0h2m3.97 0h2m3.98 0h2m3.97 0h2m3.98 0h2m3.97 0h2m3.98 0h2m3.97 0h2m3.98 0h2m3.97 0h2m3.98 0h2m3.97 0h2m3.98 0h2m3.97 0h2m3.98 0h2m3.97 0h2m3.98 0h2m3.97 0h2m3.98 0h2m3.97 0h2m3.98 0h2m3.97 0h2m3.98 0h2m3.97 0h2m3.98 0h2m3.97 0h2m3.98 0h2m3.97 0h2m3.98 0h2m3.97 0h2m3.98 0h2m3.97 0h2m3.98 0h2m3.97 0h2m3.98 0h2m3.97 0h2m3.98 0h2m3.97 0h2m3.98 0h2m3.97 0h2m3.98 0h2m3.97 0h2m3.98 0h2m3.97 0h2m3.98 0h2m3.97 0h2m3.98 0h2m3.97 0h2m3.98 0h2m3.97 0h2m3.98 0h2m3.97 0h2m3.98 0h2m3.97 0h2m3.98 0h2m3.97 0h2m3.98 0h2m3.97 0h2m3.98 0h2m3.97 0h2m3.98 0h2m3.97 0h2m3.98 0h2m3.97 0h2m3.98 0h2m3.97 0h2m3.98 0h2m3.97 0h2m3.98 0h2m3.97 0h2m3.98 0h2m3.97 0h2m3.98 0h2m3.97 0h2m3.98 0h2m3.97 0h1l.75.2m2.8 1.15l1.1 1.1m1.15 2.8l.2.75v1m0 4.05v2m0 4.05v2.02m0 4.04v2.02m0 4.03v2.03m0 4.04v2.02m0 4.02v2.02m0 4.04v2.02m0 4.04v2m0 4.05v2m0 4.05v2m0 4.05v2.02m0 4.04v2.02m0 4.03v2.03m0 4.04v2.02m0 4.02v2.02m0 4.04v2.02m0 4.04v2m0 4.05v2m0 4.05v2m0 4.05v2.02m0 4.04v2.02m0 4.03v2.03m0 4.04v2.02m0 4.02v1l-.2.76m-1.15 2.8l-1.1 1.1m-2.8 1.15l-.75.2h-1m-3.98 0h-2m-3.97 0h-2m-3.98 0h-2m-3.97 0h-2m-3.98 0h-2m-3.97 0h-2m-3.98 0h-2m-3.97 0h-2m-3.98 0h-2m-3.97 0h-2m-3.98 0h-2m-3.97 0h-2m-3.98 0h-2m-3.97 0h-2m-3.98 0h-2m-3.97 0h-2m-3.98 0h-2m-3.97 0h-2m-3.98 0h-2m-3.97 0h-2m-3.98 0h-2m-3.97 0h-2m-3.98 0h-2m-3.97 0h-2m-3.98 0h-2m-3.97 0h-2m-3.98 0h-2m-3.97 0h-2m-3.98 0h-2m-3.97 0h-2m-3.98 0h-2m-3.97 0h-2m-3.98 0h-2m-3.97 0h-2m-3.98 0h-2m-3.97 0h-2m-3.98 0h-2m-3.97 0h-2m-3.98 0h-2m-3.97 0h-2m-3.98 0h-2m-3.97 0h-2m-3.98 0h-2m-3.97 0h-2m-3.98 0h-2m-3.97 0h-2m-3.98 0h-2m-3.97 0h-2m-3.98 0h-2m-3.97 0h-2m-3.98 0h-2m-3.97 0h-2m-3.98 0h-2m-3.97 0h-2m-3.98 0h-2m-3.97 0h-2m-3.98 0h-2m-3.97 0h-2m-3.98 0h-2m-3.97 0h-2m-3.98 0h-2m-3.97 0h-2m-3.98 0h-2m-3.97 0h-2m-3.98 0h-2m-3.97 0h-2m-3.98 0h-2m-3.97 0h-2m-3.98 0h-2m-3.97 0h-2m-3.98 0h-2m-3.97 0h-2m-3.98 0h-2m-3.97 0h-2m-3.98 0h-2m-3.97 0h-2m-3.98 0h-2m-3.97 0h-2m-3.98 0h-2m-3.97 0h-2m-3.98 0h-2m-3.97 0h-2m-3.98 0h-2m-3.97 0h-2m-3.98 0h-2m-3.97 0h-2m-3.98 0h-2m-3.97 0h-2m-3.98 0h-2m-3.97 0h-2m-3.98 0h-2m-3.97 0h-2m-3.98 0h-2m-3.97 0h-2m-3.98 0h-2m-3.97 0h-2m-3.98 0h-2m-3.97 0h-2m-3.98 0h-2m-3.97 0h-2m-3.98 0h-2m-3.97 0h-2m-3.98 0h-2m-3.97 0h-2m-3.98 0h-2m-3.97 0h-2m-3.98 0h-2m-3.97 0h-2m-3.98 0h-2m-3.97 0h-2m-3.98 0h-2m-3.97 0h-2m-3.98 0h-2m-3.97 0h-2m-3.98 0h-2m-3.97 0h-2m-3.98 0h-2m-3.97 0h-2m-3.98 0h-2m-3.97 0h-1l-.75-.2m-2.8-1.14l-1.1-1.1m-1.15-2.82l-.2-.75v-1m0-4.04v-2.03m0-4.04v-2.02m0-4.02v-2.02m0-4.04v-2.02m0-4.04v-2m0-4.05v-2m0-4.05v-2m0-4.05v-2.02m0-4.04v-2.02m0-4.03v-2.03m0-4.04v-2.02m0-4.02v-2.02m0-4.04v-2.02m0-4.04v-2m0-4.05v-2m0-4.05v-2m0-4.05v-2.02m0-4.04v-2.02m0-4.03v-2.03m0-4.04v-2.02m0-4.02v-2.02m0-4.04v-2.02m0-4.04v-2m0-4.05v-1l.2-.75" fill="none"/></a><path d="M11325.9 12111.78h.44l2.57-.17 2.3-.23 2.05-.3 1.86-.35 1.7-.4 1.55-.43 1.44-.48 1.32-.5 1.24-.5 1.17-.56 1.1-.58 1.05-.6 1-.63.94-.66.92-.7.88-.74.85-.76.82-.8.8-.87.78-.9.77-.98.76-1.04.76-1.12.74-1.22.74-1.34.73-1.48.73-1.65.74-1.88.75-2.14.75-2.52.77-3.04.82-3.88.92-5.44 1.37-11.22 2.7-23.87 1.22-7.23 1.18-5.58 1.2-4.68 1.22-4.06 1.26-3.63 1.3-3.3 1.36-3 1.4-2.82 1.44-2.62 1.5-2.48 1.56-2.35 1.63-2.24 1.7-2.14 1.78-2.07 1.88-2 1.98-1.95 2.1-1.9 2.22-1.83 2.37-1.8 2.53-1.75 2.72-1.73 2.93-1.7 3.2-1.65 3.46-1.64 3.8-1.6 4.2-1.56 4.64-1.5 5.2-1.46 5.86-1.37 6.67-1.27 7.66-1.13.8-.08" stroke="#5e5e5e" stroke-width="5" fill="none"/><path d="M11326.03 12114.28l-2.7.06.08-2.5-.04-2.5 2.57-.06z" fill="#5e5e5e"/><path d="M11467.43 11960.55l-13.92 5.6-.62-9.26z" stroke="#5e5e5e" stroke-width="5" fill="#5e5e5e"/><g stroke="#000" stroke-width="3"><path d="M11110.72 12183.67c-12.96 0-23.47-32.16-23.47-71.83 0-39.68 10.5-71.84 23.47-71.84h187.72c12.96 0 23.47 32.16 23.47 71.84 0 39.67-10.5 71.83-23.46 71.83z" fill="#fff"/><path d="M11298.44 12183.67c-12.96 0-23.46-32.16-23.46-71.83 0-39.68 10.5-71.84 23.46-71.84" fill="none"/></g><path d="M11080 12053.4c0-3.32 2.7-6 6-6h188c3.3 0 6 2.68 6 6v118c0 3.3-2.7 6-6 6h-188c-3.3 0-6-2.7-6-6z" stroke="#000" stroke-opacity="0" stroke-width="3" fill="#fff" fill-opacity="0"/><use xlink:href="#c" transform="matrix(1,0,0,1,11085,12052.393221660777) translate(31.157407407407412 26.66666666666667)"/><use xlink:href="#d" transform="matrix(1,0,0,1,11085,12052.393221660777) translate(15.509259259259238 66.66666666666669)"/><use xlink:href="#e" transform="matrix(1,0,0,1,11085,12052.393221660777) translate(48.7037037037037 106.66666666666669)"/><path d="M11199.8 11060.06l3.45 6.77m4.62 9.02l6.93 13.53m4.6 9.03l6.94 13.54m4.62 9.03l6.93 13.53m4.6 9.02l6.94 13.54m4.6 9.02l6.94 13.54m4.62 9.02l6.93 13.54m4.62 9.02l6.93 13.54m4.6 9.02l6.94 13.53m4.62 9.02l6.93 13.53m4.62 9.03l6.92 13.53m4.6 9.03l6.94 13.54m4.62 9.02l6.93 13.53m4.63 9.02l6.93 13.54m4.6 9l6.94 13.54m4.62 9.03l6.93 13.53m4.62 9.03l6.93 13.53m4.6 9.02l6.94 13.54m4.62 9.02l6.93 13.54m4.6 9.02l6.94 13.54m4.6 9.02l6.94 13.53m4.62 9.02l6.93 13.53m4.62 9.03l6.93 13.53m4.6 9.03l3.48 6.77" stroke="#5e5e5e" stroke-width="5" fill="none"/><path d="M11202.04 11058.98l-4.45 2.27-1.76-3.42h5.6z" fill="#5e5e5e"/><path d="M11473 11593.83l-10.63-10.6 8.25-4.2z" stroke="#5e5e5e" stroke-width="5" fill="#5e5e5e"/><path d="M11911.9 10979.36l7.24 2.1m9.66 2.8l14.48 4.18m9.66 2.8l14.48 4.2m9.65 2.78l14.5 4.2m9.64 2.8l14.5 4.18m9.65 2.8l14.48 4.2m9.66 2.78l14.47 4.2m9.66 2.8l14.48 4.18m9.66 2.8l14.5 4.18m9.64 2.8l14.5 4.2m9.64 2.78l14.48 4.2m9.66 2.8l14.48 4.18m9.66 2.8l14.48 4.2m9.66 2.78l14.48 4.2m9.65 2.8l14.48 4.18m9.65 2.8l14.48 4.18m9.67 2.8l14.48 4.2m9.66 2.78l14.5 4.2m9.65 2.8l14.48 4.18m9.65 2.8l14.5 4.2m9.64 2.78l14.48 4.2m9.66 2.8l14.48 4.18m9.66 2.8l14.48 4.2m9.66 2.78l14.48 4.2m9.65 2.8l14.5 4.18m9.64 2.8l14.5 4.18m9.65 2.8l14.48 4.2m9.66 2.78l14.47 4.2m9.66 2.8l14.48 4.18m9.66 2.8l14.5 4.2m9.64 2.78l14.5 4.2m9.64 2.8l14.48 4.18m9.66 2.8l14.48 4.18m9.66 2.8l14.48 4.2m9.65 2.78l14.5 4.2m9.64 2.8l14.48 4.18m9.65 2.8l14.48 4.2m9.67 2.78l14.48 4.2m9.66 2.8l14.5 4.18m9.65 2.8l14.48 4.18m9.65 2.8l14.5 4.2m9.64 2.78l14.48 4.2m9.66 2.8l14.48 4.18m9.66 2.8l14.48 4.2m9.66 2.78l14.48 4.2m9.65 2.8l14.5 4.18m9.64 2.8l14.5 4.18m9.65 2.8l14.48 4.2m9.66 2.8l14.47 4.18m9.66 2.8l14.48 4.18m9.66 2.8l14.5 4.2m9.64 2.78l14.48 4.2m9.66 2.8l14.48 4.18m9.66 2.8l14.48 4.2m9.66 2.78l14.48 4.2m9.65 2.8l14.5 4.18m9.64 2.8l14.48 4.18m9.65 2.8l14.48 4.2m9.67 2.78l14.48 4.2m9.66 2.8l14.5 4.18m9.64 2.8l14.5 4.2m9.64 2.78l14.5 4.2m9.64 2.8l14.48 4.18m9.66 2.8l14.48 4.18m9.66 2.8l14.48 4.2m9.66 2.78l14.48 4.2m9.65 2.8l14.5 4.18m9.64 2.8l14.5 4.2m9.65 2.78l14.48 4.2m9.66 2.8l14.47 4.18m9.66 2.8l14.48 4.18m9.66 2.8l14.5 4.2m9.64 2.78l14.48 4.2m9.66 2.8l14.48 4.18m9.66 2.8l14.48 4.2m9.66 2.78l14.48 4.2m9.65 2.8l14.5 4.18m9.64 2.8l14.48 4.2m9.65 2.78l14.48 4.2m9.67 2.8l14.48 4.18m9.66 2.8l14.5 4.18m9.64 2.8l14.5 4.2m9.64 2.78l14.5 4.2m9.64 2.8l14.48 4.18m9.66 2.8l14.48 4.2m9.66 2.78l14.48 4.2m9.65 2.8l14.5 4.18m9.64 2.8l14.5 4.18m9.64 2.8l7.25 2.1" stroke="#5e5e5e" stroke-width="5" fill="none"/><path d="M11912.66 10976.98l-1.4 4.8-1.76-.5v-5.22z" fill="#5e5e5e"/><path d="M14052.16 11598.77l-15 .5 2.58-8.9z" stroke="#5e5e5e" stroke-width="5" fill="#5e5e5e"/><path d="M13410 11854.33c0-3.3 2.7-6 6-6h488c3.3 0 6 2.7 6 6v211.34c0 3.3-2.7 6-6 6h-488c-3.3 0-6-2.7-6-6z" stroke="#000" stroke-width="3" fill="#fff"/><use xlink:href="#f" transform="matrix(1,0,0,1,13415,11853.333333333336) translate(101.91358024691357 124.61111111111111)"/><path d="M12790 11854.33c0-3.3 2.7-6 6-6h488c3.3 0 6 2.7 6 6v211.34c0 3.3-2.7 6-6 6h-488c-3.3 0-6-2.7-6-6z" stroke="#000" stroke-width="3" fill="#fff"/><use xlink:href="#g" transform="matrix(1,0,0,1,12795,11853.333333333336) translate(139.07407407407408 71.11111111111111)"/><use xlink:href="#h" transform="matrix(1,0,0,1,12795,11853.333333333336) translate(18.209876543209873 177.77777777777777)"/><path d="M13230.42 12219.94l70.63-1.25v5l-70.63 1.24-708.75-12.34-72.4 4.37-50.38 5.2-37.34 5.42-28.8 5.42-22.87 5.33-18.58 5.15-15.36 4.96-12.88 4.77-10.95 4.58-9.4 4.42-8.16 4.24-7.13 4.1-6.27 3.97-5.56 3.85-4.94 3.75-4.43 3.66-4 3.57-3.6 3.52-3.26 3.46-2.96 3.42-2.7 3.4-2.45 3.37-2.25 3.37-2.04 3.38-.68 1.22-4.38-2.42.73-1.3 2.15-3.56 2.37-3.54 2.58-3.55 2.83-3.56 3.1-3.6 3.4-3.6 3.76-3.68 4.14-3.72 4.6-3.8 5.12-3.87 5.73-3.97 6.46-4.08 7.3-4.2 8.35-4.35 9.6-4.5 11.14-4.66 13.08-4.84 15.56-5.02 18.78-5.2 23.08-5.37 29-5.47 37.53-5.47 50.58-5.2 72.72-4.4zm432.78-121.77l-.04.53-.47 3.68-.62 3.56-.73 3.45-.87 3.35-1 3.28-1.12 3.22-1.26 3.16-1.4 3.14-1.53 3.1-1.7 3.06-1.85 3.05-2.03 3.06-2.24 3.07-2.45 3.07-2.67 3.1-2.95 3.14-3.26 3.18-3.6 3.23-4 3.3-4.47 3.38-5 3.46-5.65 3.58-6.4 3.7-7.35 3.8-8.46 3.97-9.86 4.12-11.62 4.3-13.85 4.47-16.8 4.65-20.75 4.82-23.86 4.5v-5.08l22.83-4.32 20.53-4.78 16.6-4.6 13.66-4.4 11.4-4.24 9.67-4.04 8.27-3.88 7.14-3.72 6.23-3.58 5.5-3.46 4.82-3.35 4.3-3.26 3.84-3.17 3.45-3.1 3.1-3.02 2.82-3 2.55-2.93 2.3-2.9 2.1-2.9 1.93-2.88 1.75-2.88 1.6-2.9 1.44-2.9 1.3-2.93 1.18-2.97 1.05-3.02.93-3.08.82-3.16.7-3.24.56-3.35.44-3.47.04-.43zM13665.27 12095.4l-9.26.26 4.23-14.4z" fill="#5e5e5e"/><path d="M13668.8 12097.8l-16.16.45 7.36-25.07zm-9.42-4.74l2.38-.07-1.3-3.65zM12182.3 12314.46l-.6 1.1-2.8-.06-2.9.03 1.94-3.48z" fill="#5e5e5e"/><use xlink:href="#i" transform="matrix(1,0,0,1,13301.04515097113,12177.166079272609) translate(0.0049999999999954525 26.66666666666667)"/><use xlink:href="#j" transform="matrix(1,0,0,1,13301.04515097113,12177.166079272609) translate(65.74574074074071 66.66666666666669)"/><path d="M13294 11960h89.64" stroke="#5e5e5e" stroke-width="5" fill="none"/><path d="M13294.07 11962.5h-2.57v-5h2.57z" fill="#5e5e5e"/><path d="M13400.4 11960l-14.26 4.64v-9.28z" stroke="#5e5e5e" stroke-width="5" fill="#5e5e5e"/><path d="M13042.5 12290.64h-5v-100.22h5zm0-180.22h-5v-34.75h5z" fill="#5e5e5e"/><path d="M13042.5 12075.73h-5v-2.56h5zM13040 12307.4l-4.64-14.26h9.28z" fill="#5e5e5e"/><path d="M13040 12315.5l-8.08-24.86h16.16zm-1.2-19.86l1.2 3.68 1.2-3.68z" fill="#5e5e5e"/><use xlink:href="#k" transform="matrix(1,0,0,1,12914.351851851852,12110.415317399274) translate(0.0049999999999954525 26.66666666666667)"/><use xlink:href="#l" transform="matrix(1,0,0,1,12914.351851851852,12110.415317399274) translate(29.542037037037034 26.66666666666667)"/><use xlink:href="#m" transform="matrix(1,0,0,1,12914.351851851852,12110.415317399274) translate(112.78277777777777 26.66666666666667)"/><use xlink:href="#n" transform="matrix(1,0,0,1,12914.351851851852,12110.415317399274) translate(82.22722222222222 66.66666666666669)"/><path d="M11928.9 11854.33c0-3.3 2.67-6 6-6h488c3.3 0 6 2.7 6 6v211.34c0 3.3-2.7 6-6 6h-488c-3.33 0-6-2.7-6-6z" stroke="#000" stroke-width="3" fill="#fff"/><use xlink:href="#o" transform="matrix(1,0,0,1,11933.88621947505,11853.333333333334) translate(64.8765432098765 71.11111111111111)"/><use xlink:href="#p" transform="matrix(1,0,0,1,11933.88621947505,11853.333333333334) translate(65.24691358024691 177.77777777777777)"/><path d="M12181.4 12313h-5v-144.28h5zm0-184.28h-5v-30.7h5zM12183.52 12095.52h-9.27l4.64-14.26z" fill="#5e5e5e"/><path d="M12186.96 12098.02h-16.15l8.1-24.85zm-9.27-5h2.38l-1.2-3.67zM12181.4 12315.55l-2.5-.05-2.5.03v-2.6h5z" fill="#5e5e5e"/><use xlink:href="#q" transform="matrix(1,0,0,1,12126.571404660235,12128.71803735787) translate(0.005000000000002558 26.66666666666667)"/><path d="M12432.9 11960h330.74" stroke="#5e5e5e" stroke-width="5" fill="none"/><path d="M12432.96 11962.5h-2.57v-5h2.56z" fill="#5e5e5e"/><path d="M12780.4 11960l-14.26 4.64v-9.28z" stroke="#5e5e5e" stroke-width="5" fill="#5e5e5e"/><path d="M11902.53 11960H11478" stroke="#5e5e5e" stroke-width="5" fill="none"/><path d="M11919.3 11960l-14.27 4.64v-9.28z" stroke="#5e5e5e" stroke-width="5" fill="#5e5e5e"/><path d="M11475.5 11962.5h-3v-5h3z" fill="#5e5e5e"/><path d="M11541.87 12066c0-3.3 2.7-6 6-6h248c3.32 0 6 2.7 6 6v708c0 3.3-2.68 6-6 6h-248c-3.3 0-6-2.7-6-6z" stroke="#000" stroke-width="3" fill="#fff"/><use xlink:href="#r" transform="matrix(1,0,0,1,11546.874999999996,12065) translate(4.259259259259267 315.1736111111111)"/><use xlink:href="#s" transform="matrix(1,0,0,1,11546.874999999996,12065) translate(53.39506172839506 421.8402777777778)"/><path d="M14240 11486c0-3.3 2.7-6 6-6h468c3.3 0 6 2.7 6 6v211.33c0 3.32-2.7 6-6 6h-468c-3.3 0-6-2.68-6-6z" stroke="#000" stroke-width="3" fill="#fff"/><use xlink:href="#t" transform="matrix(1,0,0,1,14245,11485) translate(144.62962962962962 71.11111111111111)"/><use xlink:href="#u" transform="matrix(1,0,0,1,14245,11485) translate(18.086419753086403 177.77777777777777)"/><path d="M14240 11866c0-3.3 2.7-6 6-6h468c3.3 0 6 2.7 6 6v211.33c0 3.32-2.7 6-6 6h-468c-3.3 0-6-2.68-6-6z" stroke="#000" stroke-width="3" fill="#fff"/><use xlink:href="#v" transform="matrix(1,0,0,1,14245,11865) translate(104.50617283950618 71.11111111111111)"/><use xlink:href="#w" transform="matrix(1,0,0,1,14245,11865) translate(54.8765432098765 177.77777777777777)"/><path d="M13914 11900.7l2.82-.05 5.12-.32 4.94-.52 4.8-.7 4.66-.9 4.57-1.06 4.5-1.26 4.45-1.44 4.4-1.64 4.4-1.84 4.4-2.07 4.4-2.32 4.48-2.58 4.54-2.88 4.63-3.23 4.76-3.62 4.93-4.08 5.13-4.63 5.4-5.3 5.75-6.12 6.2-7.2 6.8-8.6 7.72-10.62 9.14-13.8 12.05-19.96 64.06-115.48 9.14-13.8 7.7-10.62 6.82-8.6 6.2-7.2 5.75-6.12 5.4-5.3 5.14-4.63 4.94-4.08 4.76-3.6 4.63-3.24 4.54-2.87 4.47-2.58 4.42-2.3 4.4-2.08 4.38-1.84 4.4-1.64 4.45-1.46 4.5-1.25 4.56-1.08.16-.03" stroke="#5e5e5e" stroke-width="5" fill="none"/><path d="M13914.12 11903.2l-2.62.06v-5l2.52-.05z" fill="#5e5e5e"/><path d="M14230.45 11592.5l-13.72 6.05-.94-9.22z" stroke="#5e5e5e" stroke-width="5" fill="#5e5e5e"/><path d="M13914 11960.05l93.07 1.7 206.6 8.85" stroke="#5e5e5e" stroke-width="5" fill="none"/><path d="M13914.1 11957.55l-.08 5-2.52-.05v-5z" fill="#5e5e5e"/><path d="M14230.42 11971.32l-14.45 4.02.4-9.26z" stroke="#5e5e5e" stroke-width="5" fill="#5e5e5e"/><path d="M12438.9 12691.25c0 22.78-116.42 41.25-260 41.25-143.6 0-260-18.47-260-41.25v-330c0-22.78 116.4-41.25 260-41.25 143.58 0 260 18.47 260 41.25z" stroke="#000" stroke-width="9" fill="#fff"/><path d="M12438.9 12361.25c0 22.78-116.42 41.25-260 41.25-143.6 0-260-18.47-260-41.25" stroke="#000" stroke-width="9" fill="none"/><use xlink:href="#x" transform="matrix(1,0,0,1,11923.88621947505,12407.5) translate(87.3456790123457 71.11111111111111)"/><use xlink:href="#y" transform="matrix(1,0,0,1,11923.88621947505,12407.5) translate(363.39506172839504 71.11111111111111)"/><use xlink:href="#z" transform="matrix(1,0,0,1,11923.88621947505,12407.5) translate(20.802469135802426 177.77777777777777)"/><use xlink:href="#A" transform="matrix(1,0,0,1,11923.88621947505,12407.5) translate(65 284.44444444444446)"/><path d="M13300 12691.25c0 22.78-116.4 41.25-260 41.25s-260-18.47-260-41.25v-330c0-22.78 116.4-41.25 260-41.25s260 18.47 260 41.25z" stroke="#000" stroke-width="9" fill="#fff"/><path d="M13300 12361.25c0 22.78-116.4 41.25-260 41.25s-260-18.47-260-41.25" stroke="#000" stroke-width="9" fill="none"/><use xlink:href="#B" transform="matrix(1,0,0,1,12785,12407.5) translate(38.20987654320987 71.11111111111111)"/><use xlink:href="#C" transform="matrix(1,0,0,1,12785,12407.5) translate(275 71.11111111111111)"/><use xlink:href="#D" transform="matrix(1,0,0,1,12785,12407.5) translate(74.8765432098765 177.77777777777777)"/><use xlink:href="#A" transform="matrix(1,0,0,1,12785,12407.5) translate(65 284.44444444444446)"/><path d="M11672.32 12783.97l.17.95.74 3.37.88 3.3 1.03 3.3 1.17 3.27 1.33 3.26 1.48 3.24 1.66 3.26 1.82 3.26 2.03 3.27 2.25 3.3 2.47 3.35 2.74 3.38 3.03 3.44 3.34 3.48 3.7 3.55 4.1 3.62 4.54 3.68 5.07 3.76 5.64 3.84 6.3 3.9 7.05 3.98 7.9 4.03 8.86 4.06 9.96 4.06 11.16 4.03 12.5 3.92 13.92 3.75 15.46 3.46 16.98 3.07 18.46 2.54 19.75 1.87 20.77 1.1 21.4.25 21.56-.66 21.27-1.54 20.55-2.35 19.48-3.06 18.2-3.64 16.75-4.1 15.32-4.42 13.9-4.66 12.53-4.8 11.3-4.86 10.14-4.9 9.13-4.88 8.2-4.84 7.4-4.8 6.67-4.7 6-4.66 5.45-4.6 4.93-4.5 4.46-4.46 4.07-4.4 3.68-4.35 3.34-4.3 3.04-4.27 2.76-4.24 2.5-4.23 2.27-4.23 2.05-4.22 1.83-4.23 1.64-4.26 1.44-4.3 1.27-4.33 1.1-4.4v-.07" stroke="#5e5e5e" stroke-width="5" fill="none"/><path d="M11674.8 12783.6l-4.93.87-.53-2.97h5.07z" fill="#5e5e5e"/><path d="M12178 12745.04l3.08 14.7-9.22-1.02z" stroke="#5e5e5e" stroke-width="5" fill="#5e5e5e"/><use xlink:href="#E" transform="matrix(1,0,0,1,11784.260852752739,12850.564750363385) translate(0.0049999999999954525 26.66666666666667)"/><use xlink:href="#F" transform="matrix(1,0,0,1,11784.260852752739,12850.564750363385) translate(112.7827777777778 26.66666666666667)"/><use xlink:href="#G" transform="matrix(1,0,0,1,11784.260852752739,12850.564750363385) translate(282.8753703703704 26.66666666666667)"/><path d="M10340 12037.84c0-3.32 2.7-6 6-6h468c3.3 0 6 2.68 6 6v148c0 3.3-2.7 6-6 6h-468c-3.3 0-6-2.7-6-6z" stroke="#000" stroke-width="3" fill="#fff"/><use xlink:href="#H" transform="matrix(1,0,0,1,10345,12036.835452301024) translate(116.97530864197532 94.54861111111111)"/><path d="M10340 12317.84c0-3.32 2.7-6 6-6h468c3.3 0 6 2.68 6 6v148c0 3.3-2.7 6-6 6h-468c-3.3 0-6-2.7-6-6z" stroke="#000" stroke-width="3" fill="#fff"/><g><use xlink:href="#I" transform="matrix(1,0,0,1,10345,12316.835452301024) translate(52.40740740740739 94.54861111111111)"/></g><path d="M10340 11737.84c0-3.32 2.7-6 6-6h468c3.3 0 6 2.68 6 6v148c0 3.3-2.7 6-6 6h-468c-3.3 0-6-2.7-6-6z" stroke="#000" stroke-width="3" fill="#fff"/><g><use xlink:href="#J" transform="matrix(1,0,0,1,10345,11736.835452301024) translate(42.77777777777777 94.54861111111111)"/></g><path d="M10824 11811.9l2.98.05 5.15.32 4.86.5 4.6.7 4.4.83 4.23 1 4.07 1.13 3.94 1.28 3.83 1.43 3.74 1.58 3.68 1.73 3.62 1.9 3.58 2.06 3.56 2.25 3.56 2.48 3.57 2.7 3.6 3 3.67 3.3 3.75 3.66 3.84 4.1 4 4.63 4.18 5.3 4.46 6.13 4.82 7.26 5.36 8.86 6.25 11.4 8.13 16.43 42.07 93.27 6.5 11.86 5.62 9.3 5.1 7.65 4.7 6.5 4.47 5.65 4.27 4.96 4.14 4.4 4.05 3.95 3.96 3.57 3.93 3.24 3.9 2.96 3.88 2.7 3.92 2.48 3.93 2.28 4 2.08 4.05 1.9 4.15 1.76 4.26 1.58 2.78.9" stroke="#5e5e5e" stroke-width="5" fill="none"/><path d="M10824.12 11809.4l-.1 5-2.52-.06v-5z" fill="#5e5e5e"/><path d="M11079.46 12084.26l-14.9 1.68 1.86-9.1z" stroke="#5e5e5e" stroke-width="5" fill="#5e5e5e"/><path d="M10824 12111.84h236.9" stroke="#5e5e5e" stroke-width="5" fill="none"/><path d="M10824.07 12114.34h-2.57v-5h2.57z" fill="#5e5e5e"/><path d="M11077.66 12111.84l-14.27 4.63v-9.27z" stroke="#5e5e5e" stroke-width="5" fill="#5e5e5e"/><path d="M10824 12391.78l3.9-.08 5.97-.37 5.65-.6 5.35-.78 5.1-.98 4.9-1.15 4.74-1.32 4.6-1.5 4.46-1.65 4.38-1.84 4.3-2.02 4.3-2.24 4.25-2.46 4.26-2.7 4.3-3 4.4-3.33 4.48-3.72 4.66-4.2 4.88-4.77 5.2-5.54 5.65-6.56 6.38-8.06 7.66-10.56 10.76-16.27 43.5-69.5 8.55-11.8 7.3-9.25 6.64-7.68 6.2-6.6 5.9-5.78 5.72-5.15 5.6-4.62 5.52-4.2 5.5-3.83 5.52-3.5 5.57-3.2 5.65-2.97 2.36-1.1" stroke="#5e5e5e" stroke-width="5" fill="none"/><path d="M10824.12 12394.28l-2.62.06v-5l2.52-.06z" fill="#5e5e5e"/><path d="M11083.68 12160.9l-11.68 9.42-3.3-8.66z" stroke="#5e5e5e" stroke-width="5" fill="#5e5e5e"/><path d="M14240 12249.33c0-3.3 2.7-6 6-6h468c3.3 0 6 2.7 6 6v148c0 3.32-2.7 6-6 6h-468c-3.3 0-6-2.68-6-6z" stroke="#000" stroke-width="3" fill="#fff"/><g><use xlink:href="#K" transform="matrix(1,0,0,1,14245,12248.333333333332) translate(124.25925925925927 94.54861111111111)"/></g><path d="M13914 12028.1l3.07.07 5.34.34 5.15.55 5 .74 4.84.9 4.73 1.12 4.65 1.3 4.6 1.5 4.55 1.7 4.53 1.9 4.53 2.13 4.54 2.38 4.6 2.65 4.67 2.96 4.77 3.32 4.9 3.72 5.08 4.2 5.3 4.77 5.57 5.47 5.95 6.34 6.46 7.5 7.15 9.03 8.22 11.32 10.1 15.22 14.87 24.7 50.54 88.2 10.1 15.23 8.22 11.33 7.15 9.04 6.46 7.5 5.95 6.33 5.58 5.47 5.3 4.77 5.07 4.2 4.9 3.73 4.76 3.32 4.66 2.96 4.6 2.67 4.55 2.38 4.54 2.13 4.53 1.9 4.55 1.7 4.6 1.5 4.65 1.3 4.74 1.1 1.2.23" stroke="#5e5e5e" stroke-width="5" fill="none"/><path d="M13914.12 12025.6l-.1 5-2.52-.04v-5z" fill="#5e5e5e"/><path d="M14230.45 12322.54l-14.65 3.22.9-9.23z" stroke="#5e5e5e" stroke-width="5" fill="#5e5e5e"/><defs><path d="M190 0L58-211 59 0H30v-248h39L202-35l-2-213h31V0h-41" id="L"/><path d="M100-194c62-1 85 37 85 99 1 63-27 99-86 99S16-35 15-95c0-66 28-99 85-99zM99-20c44 1 53-31 53-75 0-43-8-75-51-75s-53 32-53 75 10 74 51 75" id="M"/><path d="M59-47c-2 24 18 29 38 22v24C64 9 27 4 27-40v-127H5v-23h24l9-43h21v43h35v23H59v120" id="N"/><path d="M24-231v-30h32v30H24zM24 0v-190h32V0H24" id="O"/><path d="M101-234c-31-9-42 10-38 44h38v23H63V0H32v-167H5v-23h27c-7-52 17-82 69-68v24" id="P"/><path d="M96-169c-40 0-48 33-48 73s9 75 48 75c24 0 41-14 43-38l32 2c-6 37-31 61-74 61-59 0-76-41-82-99-10-93 101-131 147-64 4 7 5 14 7 22l-32 3c-4-21-16-35-41-35" id="Q"/><path d="M141-36C126-15 110 5 73 4 37 3 15-17 15-53c-1-64 63-63 125-63 3-35-9-54-41-54-24 1-41 7-42 31l-33-3c5-37 33-52 76-52 45 0 72 20 72 64v82c-1 20 7 32 28 27v20c-31 9-61-2-59-35zM48-53c0 20 12 33 32 33 41-3 63-29 60-74-43 2-92-5-92 41" id="R"/><path d="M117-194c89-4 53 116 60 194h-32v-121c0-31-8-49-39-48C34-167 62-67 57 0H25l-1-190h30c1 10-1 24 2 32 11-22 29-35 61-36" id="S"/><g id="a"><use transform="matrix(0.24691358024691357,0,0,0.24691358024691357,0,0)" xlink:href="#L"/><use transform="matrix(0.24691358024691357,0,0,0.24691358024691357,63.95061728395061,0)" xlink:href="#M"/><use transform="matrix(0.24691358024691357,0,0,0.24691358024691357,113.33333333333333,0)" xlink:href="#N"/><use transform="matrix(0.24691358024691357,0,0,0.24691358024691357,138.02469135802468,0)" xlink:href="#O"/><use transform="matrix(0.24691358024691357,0,0,0.24691358024691357,157.53086419753086,0)" xlink:href="#P"/><use transform="matrix(0.24691358024691357,0,0,0.24691358024691357,182.22222222222223,0)" xlink:href="#O"/><use transform="matrix(0.24691358024691357,0,0,0.24691358024691357,201.7283950617284,0)" xlink:href="#Q"/><use transform="matrix(0.24691358024691357,0,0,0.24691358024691357,246.17283950617286,0)" xlink:href="#R"/><use transform="matrix(0.24691358024691357,0,0,0.24691358024691357,295.5555555555556,0)" xlink:href="#N"/><use transform="matrix(0.24691358024691357,0,0,0.24691358024691357,320.24691358024694,0)" xlink:href="#O"/><use transform="matrix(0.24691358024691357,0,0,0.24691358024691357,339.7530864197531,0)" xlink:href="#M"/><use transform="matrix(0.24691358024691357,0,0,0.24691358024691357,389.13580246913585,0)" xlink:href="#S"/></g><g id="b"><use transform="matrix(0.30864197530864196,0,0,0.30864197530864196,0,0)" xlink:href="#L"/><use transform="matrix(0.30864197530864196,0,0,0.30864197530864196,79.93827160493827,0)" xlink:href="#M"/><use transform="matrix(0.30864197530864196,0,0,0.30864197530864196,141.66666666666666,0)" xlink:href="#N"/><use transform="matrix(0.30864197530864196,0,0,0.30864197530864196,172.53086419753086,0)" xlink:href="#O"/><use transform="matrix(0.30864197530864196,0,0,0.30864197530864196,196.91358024691357,0)" xlink:href="#P"/><use transform="matrix(0.30864197530864196,0,0,0.30864197530864196,227.77777777777777,0)" xlink:href="#O"/><use transform="matrix(0.30864197530864196,0,0,0.30864197530864196,252.16049382716048,0)" xlink:href="#Q"/><use transform="matrix(0.30864197530864196,0,0,0.30864197530864196,307.71604938271605,0)" xlink:href="#R"/><use transform="matrix(0.30864197530864196,0,0,0.30864197530864196,369.4444444444444,0)" xlink:href="#N"/><use transform="matrix(0.30864197530864196,0,0,0.30864197530864196,400.3086419753087,0)" xlink:href="#O"/><use transform="matrix(0.30864197530864196,0,0,0.30864197530864196,424.6913580246914,0)" xlink:href="#M"/><use transform="matrix(0.30864197530864196,0,0,0.30864197530864196,486.4197530864198,0)" xlink:href="#S"/></g><path d="M84 4C-5 8 30-112 23-190h32v120c0 31 7 50 39 49 72-2 45-101 50-169h31l1 190h-30c-1-10 1-25-2-33-11 22-28 36-60 37" id="T"/><path d="M177-190C167-65 218 103 67 71c-23-6-38-20-44-43l32-5c15 47 100 32 89-28v-30C133-14 115 1 83 1 29 1 15-40 15-95c0-56 16-97 71-98 29-1 48 16 59 35 1-10 0-23 2-32h30zM94-22c36 0 50-32 50-73 0-42-14-75-50-75-39 0-46 34-46 75s6 73 46 73" id="U"/><g id="c"><use transform="matrix(0.0925925925925926,0,0,0.0925925925925926,0,0)" xlink:href="#M"/><use transform="matrix(0.0925925925925926,0,0,0.0925925925925926,18.51851851851852,0)" xlink:href="#T"/><use transform="matrix(0.0925925925925926,0,0,0.0925925925925926,37.03703703703704,0)" xlink:href="#N"/><use transform="matrix(0.0925925925925926,0,0,0.0925925925925926,46.2962962962963,0)" xlink:href="#U"/><use transform="matrix(0.0925925925925926,0,0,0.0925925925925926,64.81481481481481,0)" xlink:href="#M"/><use transform="matrix(0.0925925925925926,0,0,0.0925925925925926,83.33333333333333,0)" xlink:href="#O"/><use transform="matrix(0.0925925925925926,0,0,0.0925925925925926,90.64814814814814,0)" xlink:href="#S"/><use transform="matrix(0.0925925925925926,0,0,0.0925925925925926,109.16666666666666,0)" xlink:href="#U"/></g><g id="d"><use transform="matrix(0.0925925925925926,0,0,0.0925925925925926,0,0)" xlink:href="#S"/><use transform="matrix(0.0925925925925926,0,0,0.0925925925925926,18.51851851851852,0)" xlink:href="#M"/><use transform="matrix(0.0925925925925926,0,0,0.0925925925925926,37.03703703703704,0)" xlink:href="#N"/><use transform="matrix(0.0925925925925926,0,0,0.0925925925925926,46.2962962962963,0)" xlink:href="#O"/><use transform="matrix(0.0925925925925926,0,0,0.0925925925925926,53.611111111111114,0)" xlink:href="#P"/><use transform="matrix(0.0925925925925926,0,0,0.0925925925925926,62.870370370370374,0)" xlink:href="#O"/><use transform="matrix(0.0925925925925926,0,0,0.0925925925925926,70.18518518518519,0)" xlink:href="#Q"/><use transform="matrix(0.0925925925925926,0,0,0.0925925925925926,86.85185185185186,0)" xlink:href="#R"/><use transform="matrix(0.0925925925925926,0,0,0.0925925925925926,105.37037037037038,0)" xlink:href="#N"/><use transform="matrix(0.0925925925925926,0,0,0.0925925925925926,114.62962962962965,0)" xlink:href="#O"/><use transform="matrix(0.0925925925925926,0,0,0.0925925925925926,121.94444444444446,0)" xlink:href="#M"/><use transform="matrix(0.0925925925925926,0,0,0.0925925925925926,140.462962962963,0)" xlink:href="#S"/></g><path d="M145-31C134-9 116 4 85 4 32 4 16-35 15-94c0-59 17-99 70-100 32-1 48 14 60 33 0-11-1-24 2-32h30l-1 268h-32zM93-21c41 0 51-33 51-76s-8-73-50-73c-40 0-46 35-46 75s5 74 45 74" id="V"/><path d="M100-194c63 0 86 42 84 106H49c0 40 14 67 53 68 26 1 43-12 49-29l28 8c-11 28-37 45-77 45C44 4 14-33 15-96c1-61 26-98 85-98zm52 81c6-60-76-77-97-28-3 7-6 17-6 28h103" id="W"/><g id="e"><use transform="matrix(0.0925925925925926,0,0,0.0925925925925926,0,0)" xlink:href="#V"/><use transform="matrix(0.0925925925925926,0,0,0.0925925925925926,18.51851851851852,0)" xlink:href="#T"/><use transform="matrix(0.0925925925925926,0,0,0.0925925925925926,37.03703703703704,0)" xlink:href="#W"/><use transform="matrix(0.0925925925925926,0,0,0.0925925925925926,55.555555555555564,0)" xlink:href="#T"/><use transform="matrix(0.0925925925925926,0,0,0.0925925925925926,74.07407407407408,0)" xlink:href="#W"/></g><path d="M185-189c-5-48-123-54-124 2 14 75 158 14 163 119 3 78-121 87-175 55-17-10-28-26-33-46l33-7c5 56 141 63 141-1 0-78-155-14-162-118-5-82 145-84 179-34 5 7 8 16 11 25" id="X"/><path d="M85-194c31 0 48 13 60 33l-1-100h32l1 261h-30c-2-10 0-23-3-31C134-8 116 4 85 4 32 4 16-35 15-94c0-66 23-100 70-100zm9 24c-40 0-46 34-46 75 0 40 6 74 45 74 42 0 51-32 51-76 0-42-9-74-50-73" id="Y"/><path d="M114-163C36-179 61-72 57 0H25l-1-190h30c1 12-1 29 2 39 6-27 23-49 58-41v29" id="Z"/><g id="f"><use transform="matrix(0.24691358024691357,0,0,0.24691358024691357,0,0)" xlink:href="#X"/><use transform="matrix(0.24691358024691357,0,0,0.24691358024691357,59.25925925925925,0)" xlink:href="#W"/><use transform="matrix(0.24691358024691357,0,0,0.24691358024691357,108.64197530864197,0)" xlink:href="#S"/><use transform="matrix(0.24691358024691357,0,0,0.24691358024691357,158.02469135802468,0)" xlink:href="#Y"/><use transform="matrix(0.24691358024691357,0,0,0.24691358024691357,207.4074074074074,0)" xlink:href="#W"/><use transform="matrix(0.24691358024691357,0,0,0.24691358024691357,256.7901234567901,0)" xlink:href="#Z"/></g><path d="M233-177c-1 41-23 64-60 70L243 0h-38l-65-103H63V0H30v-248c88 3 205-21 203 71zM63-129c60-2 137 13 137-47 0-61-80-42-137-45v92" id="aa"/><path d="M179-190L93 31C79 59 56 82 12 73V49c39 6 53-20 64-50L1-190h34L92-34l54-156h33" id="ab"/><g id="g"><use transform="matrix(0.24691358024691357,0,0,0.24691358024691357,0,0)" xlink:href="#aa"/><use transform="matrix(0.24691358024691357,0,0,0.24691358024691357,63.95061728395061,0)" xlink:href="#W"/><use transform="matrix(0.24691358024691357,0,0,0.24691358024691357,113.33333333333333,0)" xlink:href="#N"/><use transform="matrix(0.24691358024691357,0,0,0.24691358024691357,138.02469135802468,0)" xlink:href="#Z"/><use transform="matrix(0.24691358024691357,0,0,0.24691358024691357,167.4074074074074,0)" xlink:href="#ab"/></g><path d="M240 0l2-218c-23 76-54 145-80 218h-23L58-218 59 0H30v-248h44l77 211c21-75 51-140 76-211h43V0h-30" id="ac"/><path d="M106-169C34-169 62-67 57 0H25v-261h32l-1 103c12-21 28-36 61-36 89 0 53 116 60 194h-32v-121c2-32-8-49-39-48" id="ad"/><path d="M135-143c-3-34-86-38-87 0 15 53 115 12 119 90S17 21 10-45l28-5c4 36 97 45 98 0-10-56-113-15-118-90-4-57 82-63 122-42 12 7 21 19 24 35" id="ae"/><path d="M210-169c-67 3-38 105-44 169h-31v-121c0-29-5-50-35-48C34-165 62-65 56 0H25l-1-190h30c1 10-1 24 2 32 10-44 99-50 107 0 11-21 27-35 58-36 85-2 47 119 55 194h-31v-121c0-29-5-49-35-48" id="af"/><g id="h"><use transform="matrix(0.24691358024691357,0,0,0.24691358024691357,0,0)" xlink:href="#ac"/><use transform="matrix(0.24691358024691357,0,0,0.24691358024691357,73.82716049382715,0)" xlink:href="#W"/><use transform="matrix(0.24691358024691357,0,0,0.24691358024691357,123.20987654320987,0)" xlink:href="#Q"/><use transform="matrix(0.24691358024691357,0,0,0.24691358024691357,167.65432098765433,0)" xlink:href="#ad"/><use transform="matrix(0.24691358024691357,0,0,0.24691358024691357,217.03703703703704,0)" xlink:href="#R"/><use transform="matrix(0.24691358024691357,0,0,0.24691358024691357,266.41975308641975,0)" xlink:href="#S"/><use transform="matrix(0.24691358024691357,0,0,0.24691358024691357,315.8024691358025,0)" xlink:href="#O"/><use transform="matrix(0.24691358024691357,0,0,0.24691358024691357,335.30864197530866,0)" xlink:href="#ae"/><use transform="matrix(0.24691358024691357,0,0,0.24691358024691357,379.7530864197531,0)" xlink:href="#af"/></g><path fill="#333" d="M169-182c-1-43-94-46-97-3 18 66 151 10 154 114 3 95-165 93-204 36-6-8-10-19-12-30l50-8c3 46 112 56 116 5-17-69-150-10-154-114-4-87 153-88 188-35 5 8 8 18 10 28" id="ag"/><path fill="#333" d="M85 4C-2 5 27-109 22-190h50c7 57-23 150 33 157 60-5 35-97 40-157h50l1 190h-47c-2-12 1-28-3-38-12 25-28 42-61 42" id="ah"/><path fill="#333" d="M135-194c52 0 70 43 70 98 0 56-19 99-73 100-30 1-46-15-58-35L72 0H24l1-261h50v104c11-23 29-37 60-37zM114-30c31 0 40-27 40-66 0-37-7-63-39-63s-41 28-41 65c0 36 8 64 40 64" id="ai"/><path fill="#333" d="M137-138c1-29-70-34-71-4 15 46 118 7 119 86 1 83-164 76-172 9l43-7c4 19 20 25 44 25 33 8 57-30 24-41C81-84 22-81 20-136c-2-80 154-74 161-7" id="aj"/><path fill="#333" d="M190-63c-7 42-38 67-86 67-59 0-84-38-90-98-12-110 154-137 174-36l-49 2c-2-19-15-32-35-32-30 0-35 28-38 64-6 74 65 87 74 30" id="ak"/><path fill="#333" d="M135-150c-39-12-60 13-60 57V0H25l-1-190h47c2 13-1 29 3 40 6-28 27-53 61-41v41" id="al"/><path fill="#333" d="M25-224v-37h50v37H25zM25 0v-190h50V0H25" id="am"/><path fill="#333" d="M185-48c-13 30-37 53-82 52C43 2 14-33 14-96s30-98 90-98c62 0 83 45 84 108H66c0 31 8 55 39 56 18 0 30-7 34-22zm-45-69c5-46-57-63-70-21-2 6-4 13-4 21h74" id="an"/><g id="i"><use transform="matrix(0.0925925925925926,0,0,0.0925925925925926,0,0)" xlink:href="#ag"/><use transform="matrix(0.0925925925925926,0,0,0.0925925925925926,22.222222222222225,0)" xlink:href="#ah"/><use transform="matrix(0.0925925925925926,0,0,0.0925925925925926,42.5,0)" xlink:href="#ai"/><use transform="matrix(0.0925925925925926,0,0,0.0925925925925926,62.777777777777786,0)" xlink:href="#aj"/><use transform="matrix(0.0925925925925926,0,0,0.0925925925925926,81.2962962962963,0)" xlink:href="#ak"/><use transform="matrix(0.0925925925925926,0,0,0.0925925925925926,99.81481481481482,0)" xlink:href="#al"/><use transform="matrix(0.0925925925925926,0,0,0.0925925925925926,112.77777777777779,0)" xlink:href="#am"/><use transform="matrix(0.0925925925925926,0,0,0.0925925925925926,122.03703703703705,0)" xlink:href="#ai"/><use transform="matrix(0.0925925925925926,0,0,0.0925925925925926,142.3148148148148,0)" xlink:href="#an"/><use transform="matrix(0.0925925925925926,0,0,0.0925925925925926,160.83333333333331,0)" xlink:href="#al"/><use transform="matrix(0.0925925925925926,0,0,0.0925925925925926,173.79629629629628,0)" xlink:href="#aj"/></g><path fill="#333" d="M135-194c87-1 58 113 63 194h-50c-7-57 23-157-34-157-59 0-34 97-39 157H25l-1-190h47c2 12-1 28 3 38 12-26 28-41 61-42" id="ao"/><path fill="#333" d="M121-226c-27-7-43 5-38 36h38v33H83V0H34v-157H6v-33h28c-9-59 32-81 87-68v32" id="ap"/><path fill="#333" d="M110-194c64 0 96 36 96 99 0 64-35 99-97 99-61 0-95-36-95-99 0-62 34-99 96-99zm-1 164c35 0 45-28 45-65 0-40-10-65-43-65-34 0-45 26-45 65 0 36 10 65 43 65" id="aq"/><g id="j"><use transform="matrix(0.0925925925925926,0,0,0.0925925925925926,0,0)" xlink:href="#am"/><use transform="matrix(0.0925925925925926,0,0,0.0925925925925926,9.25925925925926,0)" xlink:href="#ao"/><use transform="matrix(0.0925925925925926,0,0,0.0925925925925926,29.537037037037038,0)" xlink:href="#ap"/><use transform="matrix(0.0925925925925926,0,0,0.0925925925925926,40.55555555555556,0)" xlink:href="#aq"/></g><path fill="#333" d="M24 0v-248h52V0H24" id="ar"/><g id="k"><use transform="matrix(0.0925925925925926,0,0,0.0925925925925926,0,0)" xlink:href="#ar"/><use transform="matrix(0.0925925925925926,0,0,0.0925925925925926,9.25925925925926,0)" xlink:href="#ap"/></g><path fill="#333" d="M115-3C79 11 28 4 28-45v-112H4v-33h27l15-45h31v45h36v33H77v99c-1 23 16 31 38 25v30" id="as"/><path fill="#333" d="M123 10C108 53 80 86 19 72V37c35 8 53-11 59-39L3-190h52l48 148c12-52 28-100 44-148h51" id="at"/><g id="l"><use transform="matrix(0.0925925925925926,0,0,0.0925925925925926,0,0)" xlink:href="#al"/><use transform="matrix(0.0925925925925926,0,0,0.0925925925925926,12.962962962962964,0)" xlink:href="#an"/><use transform="matrix(0.0925925925925926,0,0,0.0925925925925926,31.48148148148148,0)" xlink:href="#as"/><use transform="matrix(0.0925925925925926,0,0,0.0925925925925926,42.5,0)" xlink:href="#al"/><use transform="matrix(0.0925925925925926,0,0,0.0925925925925926,55.462962962962955,0)" xlink:href="#at"/></g><path fill="#333" d="M133-34C117-15 103 5 69 4 32 3 11-16 11-54c-1-60 55-63 116-61 1-26-3-47-28-47-18 1-26 9-28 27l-52-2c7-38 36-58 82-57s74 22 75 68l1 82c-1 14 12 18 25 15v27c-30 8-71 5-69-32zm-48 3c29 0 43-24 42-57-32 0-66-3-65 30 0 17 8 27 23 27" id="au"/><path fill="#333" d="M220-157c-53 9-28 100-34 157h-49v-107c1-27-5-49-29-50C55-147 81-57 75 0H25l-1-190h47c2 12-1 28 3 38 10-53 101-56 108 0 13-22 24-43 59-42 82 1 51 116 57 194h-49v-107c-1-25-5-48-29-50" id="av"/><path fill="#333" d="M135-194c53 0 70 44 70 98 0 56-19 98-73 100-31 1-45-17-59-34 3 33 2 69 2 105H25l-1-265h48c2 10 0 23 3 31 11-24 29-35 60-35zM114-30c33 0 39-31 40-66 0-38-9-64-40-64-56 0-55 130 0 130" id="aw"/><g id="m"><use transform="matrix(0.0925925925925926,0,0,0.0925925925925926,0,0)" xlink:href="#au"/><use transform="matrix(0.0925925925925926,0,0,0.0925925925925926,18.51851851851852,0)" xlink:href="#as"/><use transform="matrix(0.0925925925925926,0,0,0.0925925925925926,29.537037037037038,0)" xlink:href="#as"/><use transform="matrix(0.0925925925925926,0,0,0.0925925925925926,40.55555555555556,0)" xlink:href="#an"/><use transform="matrix(0.0925925925925926,0,0,0.0925925925925926,59.074074074074076,0)" xlink:href="#av"/><use transform="matrix(0.0925925925925926,0,0,0.0925925925925926,88.70370370370371,0)" xlink:href="#aw"/><use transform="matrix(0.0925925925925926,0,0,0.0925925925925926,108.9814814814815,0)" xlink:href="#as"/><use transform="matrix(0.0925925925925926,0,0,0.0925925925925926,120.00000000000001,0)" xlink:href="#aj"/></g><path fill="#333" d="M25 0v-261h50V0H25" id="ax"/><path fill="#333" d="M88-194c31-1 46 15 58 34l-1-101h50l1 261h-48c-2-10 0-23-3-31C134-8 116 4 84 4 32 4 16-41 15-95c0-56 19-97 73-99zm17 164c33 0 40-30 41-66 1-37-9-64-41-64s-38 30-39 65c0 43 13 65 39 65" id="ay"/><g id="n"><use transform="matrix(0.0925925925925926,0,0,0.0925925925925926,0,0)" xlink:href="#ap"/><use transform="matrix(0.0925925925925926,0,0,0.0925925925925926,11.018518518518519,0)" xlink:href="#au"/><use transform="matrix(0.0925925925925926,0,0,0.0925925925925926,29.537037037037038,0)" xlink:href="#am"/><use transform="matrix(0.0925925925925926,0,0,0.0925925925925926,38.7962962962963,0)" xlink:href="#ax"/><use transform="matrix(0.0925925925925926,0,0,0.0925925925925926,48.05555555555556,0)" xlink:href="#an"/><use transform="matrix(0.0925925925925926,0,0,0.0925925925925926,66.57407407407408,0)" xlink:href="#ay"/></g><g id="o"><use transform="matrix(0.24691358024691357,0,0,0.24691358024691357,0,0)" xlink:href="#ac"/><use transform="matrix(0.24691358024691357,0,0,0.24691358024691357,73.82716049382715,0)" xlink:href="#W"/><use transform="matrix(0.24691358024691357,0,0,0.24691358024691357,123.20987654320987,0)" xlink:href="#ae"/><use transform="matrix(0.24691358024691357,0,0,0.24691358024691357,167.65432098765433,0)" xlink:href="#ae"/><use transform="matrix(0.24691358024691357,0,0,0.24691358024691357,212.0987654320988,0)" xlink:href="#R"/><use transform="matrix(0.24691358024691357,0,0,0.24691358024691357,261.4814814814815,0)" xlink:href="#U"/><use transform="matrix(0.24691358024691357,0,0,0.24691358024691357,310.86419753086426,0)" xlink:href="#W"/></g><path d="M108 0H70L1-190h34L89-25l56-165h34" id="az"/><g id="p"><use transform="matrix(0.24691358024691357,0,0,0.24691358024691357,0,0)" xlink:href="#aa"/><use transform="matrix(0.24691358024691357,0,0,0.24691358024691357,63.95061728395061,0)" xlink:href="#W"/><use transform="matrix(0.24691358024691357,0,0,0.24691358024691357,113.33333333333333,0)" xlink:href="#N"/><use transform="matrix(0.24691358024691357,0,0,0.24691358024691357,138.02469135802468,0)" xlink:href="#Z"/><use transform="matrix(0.24691358024691357,0,0,0.24691358024691357,167.4074074074074,0)" xlink:href="#O"/><use transform="matrix(0.24691358024691357,0,0,0.24691358024691357,186.91358024691357,0)" xlink:href="#W"/><use transform="matrix(0.24691358024691357,0,0,0.24691358024691357,236.29629629629628,0)" xlink:href="#az"/><use transform="matrix(0.24691358024691357,0,0,0.24691358024691357,280.7407407407407,0)" xlink:href="#W"/><use transform="matrix(0.24691358024691357,0,0,0.24691358024691357,330.12345679012344,0)" xlink:href="#Z"/></g><path fill="#333" d="M136-208V0H84v-208H4v-40h212v40h-80" id="aA"/><g id="q"><use transform="matrix(0.0925925925925926,0,0,0.0925925925925926,0,0)" xlink:href="#aA"/><use transform="matrix(0.0925925925925926,0,0,0.0925925925925926,17.77777777777778,0)" xlink:href="#aq"/><use transform="matrix(0.0925925925925926,0,0,0.0925925925925926,38.05555555555556,0)" xlink:href="#aw"/><use transform="matrix(0.0925925925925926,0,0,0.0925925925925926,58.333333333333336,0)" xlink:href="#am"/><use transform="matrix(0.0925925925925926,0,0,0.0925925925925926,67.5925925925926,0)" xlink:href="#ak"/><use transform="matrix(0.0925925925925926,0,0,0.0925925925925926,86.11111111111111,0)" xlink:href="#aj"/></g><path d="M30-248c87 1 191-15 191 75 0 78-77 80-158 76V0H30v-248zm33 125c57 0 124 11 124-50 0-59-68-47-124-48v98" id="aB"/><path d="M115-194c53 0 69 39 70 98 0 66-23 100-70 100C84 3 66-7 56-30L54 0H23l1-261h32v101c10-23 28-34 59-34zm-8 174c40 0 45-34 45-75 0-40-5-75-45-74-42 0-51 32-51 76 0 43 10 73 51 73" id="aC"/><path d="M24 0v-261h32V0H24" id="aD"/><g id="r"><use transform="matrix(0.24691358024691357,0,0,0.24691358024691357,0,0)" xlink:href="#aB"/><use transform="matrix(0.24691358024691357,0,0,0.24691358024691357,59.25925925925925,0)" xlink:href="#T"/><use transform="matrix(0.24691358024691357,0,0,0.24691358024691357,108.64197530864197,0)" xlink:href="#aC"/><use transform="matrix(0.24691358024691357,0,0,0.24691358024691357,158.02469135802468,0)" xlink:href="#aD"/><use transform="matrix(0.24691358024691357,0,0,0.24691358024691357,177.53086419753086,0)" xlink:href="#O"/><use transform="matrix(0.24691358024691357,0,0,0.24691358024691357,197.03703703703704,0)" xlink:href="#Q"/></g><path d="M205 0l-28-72H64L36 0H1l101-248h38L239 0h-34zm-38-99l-47-123c-12 45-31 82-46 123h93" id="aE"/><path d="M33 0v-248h34V0H33" id="aF"/><g id="s"><use transform="matrix(0.24691358024691357,0,0,0.24691358024691357,0,0)" xlink:href="#aE"/><use transform="matrix(0.24691358024691357,0,0,0.24691358024691357,59.25925925925925,0)" xlink:href="#aB"/><use transform="matrix(0.24691358024691357,0,0,0.24691358024691357,118.5185185185185,0)" xlink:href="#aF"/></g><path d="M266 0h-40l-56-210L115 0H75L2-248h35L96-30l15-64 43-154h32l59 218 59-218h35" id="aG"/><g id="t"><use transform="matrix(0.24691358024691357,0,0,0.24691358024691357,0,0)" xlink:href="#aG"/><use transform="matrix(0.24691358024691357,0,0,0.24691358024691357,81.9753086419753,0)" xlink:href="#W"/><use transform="matrix(0.24691358024691357,0,0,0.24691358024691357,131.35802469135803,0)" xlink:href="#aC"/></g><path d="M115-194c55 1 70 41 70 98S169 2 115 4C84 4 66-9 55-30l1 105H24l-1-265h31l2 30c10-21 28-34 59-34zm-8 174c40 0 45-34 45-75s-6-73-45-74c-42 0-51 32-51 76 0 43 10 73 51 73" id="aH"/><g id="u"><use transform="matrix(0.24691358024691357,0,0,0.24691358024691357,0,0)" xlink:href="#aE"/><use transform="matrix(0.24691358024691357,0,0,0.24691358024691357,59.25925925925925,0)" xlink:href="#aH"/><use transform="matrix(0.24691358024691357,0,0,0.24691358024691357,108.64197530864197,0)" xlink:href="#aH"/><use transform="matrix(0.24691358024691357,0,0,0.24691358024691357,158.02469135802468,0)" xlink:href="#aD"/><use transform="matrix(0.24691358024691357,0,0,0.24691358024691357,177.53086419753086,0)" xlink:href="#O"/><use transform="matrix(0.24691358024691357,0,0,0.24691358024691357,197.03703703703704,0)" xlink:href="#Q"/><use transform="matrix(0.24691358024691357,0,0,0.24691358024691357,241.48148148148147,0)" xlink:href="#R"/><use transform="matrix(0.24691358024691357,0,0,0.24691358024691357,290.8641975308642,0)" xlink:href="#N"/><use transform="matrix(0.24691358024691357,0,0,0.24691358024691357,315.55555555555554,0)" xlink:href="#O"/><use transform="matrix(0.24691358024691357,0,0,0.24691358024691357,335.0617283950617,0)" xlink:href="#M"/><use transform="matrix(0.24691358024691357,0,0,0.24691358024691357,384.44444444444446,0)" xlink:href="#S"/></g><g id="v"><use transform="matrix(0.24691358024691357,0,0,0.24691358024691357,0,0)" xlink:href="#ac"/><use transform="matrix(0.24691358024691357,0,0,0.24691358024691357,73.82716049382715,0)" xlink:href="#M"/><use transform="matrix(0.24691358024691357,0,0,0.24691358024691357,123.20987654320987,0)" xlink:href="#aC"/><use transform="matrix(0.24691358024691357,0,0,0.24691358024691357,172.59259259259258,0)" xlink:href="#O"/><use transform="matrix(0.24691358024691357,0,0,0.24691358024691357,192.09876543209876,0)" xlink:href="#aD"/><use transform="matrix(0.24691358024691357,0,0,0.24691358024691357,211.60493827160494,0)" xlink:href="#W"/></g><g id="w"><use transform="matrix(0.24691358024691357,0,0,0.24691358024691357,0,0)" xlink:href="#ac"/><use transform="matrix(0.24691358024691357,0,0,0.24691358024691357,73.82716049382715,0)" xlink:href="#W"/><use transform="matrix(0.24691358024691357,0,0,0.24691358024691357,123.20987654320987,0)" xlink:href="#ae"/><use transform="matrix(0.24691358024691357,0,0,0.24691358024691357,167.65432098765433,0)" xlink:href="#ae"/><use transform="matrix(0.24691358024691357,0,0,0.24691358024691357,212.0987654320988,0)" xlink:href="#R"/><use transform="matrix(0.24691358024691357,0,0,0.24691358024691357,261.4814814814815,0)" xlink:href="#U"/><use transform="matrix(0.24691358024691357,0,0,0.24691358024691357,310.86419753086426,0)" xlink:href="#W"/></g><path d="M127-220V0H93v-220H8v-28h204v28h-85" id="aI"/><g id="x"><use transform="matrix(0.24691358024691357,0,0,0.24691358024691357,0,0)" xlink:href="#aI"/><use transform="matrix(0.24691358024691357,0,0,0.24691358024691357,44.197530864197525,0)" xlink:href="#M"/><use transform="matrix(0.24691358024691357,0,0,0.24691358024691357,93.58024691358024,0)" xlink:href="#aH"/><use transform="matrix(0.24691358024691357,0,0,0.24691358024691357,142.96296296296296,0)" xlink:href="#O"/><use transform="matrix(0.24691358024691357,0,0,0.24691358024691357,162.46913580246914,0)" xlink:href="#Q"/><use transform="matrix(0.24691358024691357,0,0,0.24691358024691357,206.91358024691357,0)" xlink:href="#ae"/></g><path d="M234-2c-28 10-62 0-77-18C117 19 8 12 13-65c3-43 29-61 60-76-25-40-17-114 47-108 35 3 59 15 59 50 0 44-40 53-71 69 14 26 32 50 51 72 14-21 24-43 30-72l26 8c-9 33-21 57-38 82 13 13 33 22 57 15v23zM97-151c25-10 52-18 56-48-1-18-13-29-33-29-42 0-39 50-23 77zM42-66c-3 51 71 58 98 28-20-24-41-51-56-80-23 10-40 24-42 52" id="aJ"/><use transform="matrix(0.24691358024691357,0,0,0.24691358024691357,0,0)" xlink:href="#aJ" id="y"/><g id="z"><use transform="matrix(0.24691358024691357,0,0,0.24691358024691357,0,0)" xlink:href="#X"/><use transform="matrix(0.24691358024691357,0,0,0.24691358024691357,59.25925925925925,0)" xlink:href="#T"/><use transform="matrix(0.24691358024691357,0,0,0.24691358024691357,108.64197530864197,0)" xlink:href="#aC"/><use transform="matrix(0.24691358024691357,0,0,0.24691358024691357,158.02469135802468,0)" xlink:href="#ae"/><use transform="matrix(0.24691358024691357,0,0,0.24691358024691357,202.4691358024691,0)" xlink:href="#Q"/><use transform="matrix(0.24691358024691357,0,0,0.24691358024691357,246.91358024691357,0)" xlink:href="#Z"/><use transform="matrix(0.24691358024691357,0,0,0.24691358024691357,276.2962962962963,0)" xlink:href="#O"/><use transform="matrix(0.24691358024691357,0,0,0.24691358024691357,295.8024691358025,0)" xlink:href="#aC"/><use transform="matrix(0.24691358024691357,0,0,0.24691358024691357,345.1851851851852,0)" xlink:href="#W"/><use transform="matrix(0.24691358024691357,0,0,0.24691358024691357,394.56790123456796,0)" xlink:href="#Z"/><use transform="matrix(0.24691358024691357,0,0,0.24691358024691357,423.9506172839507,0)" xlink:href="#ae"/></g><path d="M30-248c118-7 216 8 213 122C240-48 200 0 122 0H30v-248zM63-27c89 8 146-16 146-99s-60-101-146-95v194" id="aK"/><g id="A"><use transform="matrix(0.24691358024691357,0,0,0.24691358024691357,0,0)" xlink:href="#aK"/><use transform="matrix(0.24691358024691357,0,0,0.24691358024691357,63.95061728395061,0)" xlink:href="#R"/><use transform="matrix(0.24691358024691357,0,0,0.24691358024691357,113.33333333333333,0)" xlink:href="#N"/><use transform="matrix(0.24691358024691357,0,0,0.24691358024691357,138.02469135802468,0)" xlink:href="#R"/><use transform="matrix(0.24691358024691357,0,0,0.24691358024691357,187.4074074074074,0)" xlink:href="#aC"/><use transform="matrix(0.24691358024691357,0,0,0.24691358024691357,236.7901234567901,0)" xlink:href="#R"/><use transform="matrix(0.24691358024691357,0,0,0.24691358024691357,286.1728395061728,0)" xlink:href="#ae"/><use transform="matrix(0.24691358024691357,0,0,0.24691358024691357,330.61728395061726,0)" xlink:href="#W"/></g><g id="B"><use transform="matrix(0.24691358024691357,0,0,0.24691358024691357,0,0)" xlink:href="#X"/><use transform="matrix(0.24691358024691357,0,0,0.24691358024691357,59.25925925925925,0)" xlink:href="#ad"/><use transform="matrix(0.24691358024691357,0,0,0.24691358024691357,108.64197530864197,0)" xlink:href="#M"/><use transform="matrix(0.24691358024691357,0,0,0.24691358024691357,158.02469135802468,0)" xlink:href="#Z"/><use transform="matrix(0.24691358024691357,0,0,0.24691358024691357,187.4074074074074,0)" xlink:href="#N"/></g><g id="C"><use transform="matrix(0.24691358024691357,0,0,0.24691358024691357,0,0)" xlink:href="#aI"/><use transform="matrix(0.24691358024691357,0,0,0.24691358024691357,44.197530864197525,0)" xlink:href="#W"/><use transform="matrix(0.24691358024691357,0,0,0.24691358024691357,93.58024691358024,0)" xlink:href="#Z"/><use transform="matrix(0.24691358024691357,0,0,0.24691358024691357,122.96296296296296,0)" xlink:href="#af"/></g><g id="D"><use transform="matrix(0.24691358024691357,0,0,0.24691358024691357,0,0)" xlink:href="#ac"/><use transform="matrix(0.24691358024691357,0,0,0.24691358024691357,73.82716049382715,0)" xlink:href="#W"/><use transform="matrix(0.24691358024691357,0,0,0.24691358024691357,123.20987654320987,0)" xlink:href="#ae"/><use transform="matrix(0.24691358024691357,0,0,0.24691358024691357,167.65432098765433,0)" xlink:href="#ae"/><use transform="matrix(0.24691358024691357,0,0,0.24691358024691357,212.0987654320988,0)" xlink:href="#R"/><use transform="matrix(0.24691358024691357,0,0,0.24691358024691357,261.4814814814815,0)" xlink:href="#U"/><use transform="matrix(0.24691358024691357,0,0,0.24691358024691357,310.86419753086426,0)" xlink:href="#W"/></g><path fill="#333" d="M67-125c0 53 21 87 73 88 37 1 54-22 65-47l45 17C233-25 199 4 140 4 58 4 20-42 15-125 8-235 124-281 211-232c18 10 29 29 36 50l-46 12c-8-25-30-41-62-41-52 0-71 34-72 86" id="aL"/><g id="E"><use transform="matrix(0.0925925925925926,0,0,0.0925925925925926,0,0)" xlink:href="#aL"/><use transform="matrix(0.0925925925925926,0,0,0.0925925925925926,23.981481481481485,0)" xlink:href="#al"/><use transform="matrix(0.0925925925925926,0,0,0.0925925925925926,36.94444444444445,0)" xlink:href="#an"/><use transform="matrix(0.0925925925925926,0,0,0.0925925925925926,55.46296296296297,0)" xlink:href="#au"/><use transform="matrix(0.0925925925925926,0,0,0.0925925925925926,73.9814814814815,0)" xlink:href="#as"/><use transform="matrix(0.0925925925925926,0,0,0.0925925925925926,85.00000000000001,0)" xlink:href="#an"/></g><g id="F"><use transform="matrix(0.0925925925925926,0,0,0.0925925925925926,0,0)" xlink:href="#ag"/><use transform="matrix(0.0925925925925926,0,0,0.0925925925925926,22.222222222222225,0)" xlink:href="#ah"/><use transform="matrix(0.0925925925925926,0,0,0.0925925925925926,42.5,0)" xlink:href="#ai"/><use transform="matrix(0.0925925925925926,0,0,0.0925925925925926,62.777777777777786,0)" xlink:href="#aj"/><use transform="matrix(0.0925925925925926,0,0,0.0925925925925926,81.2962962962963,0)" xlink:href="#ak"/><use transform="matrix(0.0925925925925926,0,0,0.0925925925925926,99.81481481481482,0)" xlink:href="#al"/><use transform="matrix(0.0925925925925926,0,0,0.0925925925925926,112.77777777777779,0)" xlink:href="#am"/><use transform="matrix(0.0925925925925926,0,0,0.0925925925925926,122.03703703703705,0)" xlink:href="#ai"/><use transform="matrix(0.0925925925925926,0,0,0.0925925925925926,142.3148148148148,0)" xlink:href="#an"/></g><path fill="#333" d="M24-248c93 1 206-16 204 79-1 75-69 88-152 82V0H24v-248zm52 121c47 0 100 7 100-41 0-47-54-39-100-39v80" id="aM"/><path fill="#333" d="M114-157C55-157 80-60 75 0H25v-261h50l-1 109c12-26 28-41 61-42 86-1 58 113 63 194h-50c-7-57 23-157-34-157" id="aN"/><g id="G"><use transform="matrix(0.0925925925925926,0,0,0.0925925925925926,0,0)" xlink:href="#aM"/><use transform="matrix(0.0925925925925926,0,0,0.0925925925925926,22.222222222222225,0)" xlink:href="#ah"/><use transform="matrix(0.0925925925925926,0,0,0.0925925925925926,42.5,0)" xlink:href="#ai"/><use transform="matrix(0.0925925925925926,0,0,0.0925925925925926,62.777777777777786,0)" xlink:href="#ax"/><use transform="matrix(0.0925925925925926,0,0,0.0925925925925926,72.03703703703704,0)" xlink:href="#am"/><use transform="matrix(0.0925925925925926,0,0,0.0925925925925926,81.2962962962963,0)" xlink:href="#aj"/><use transform="matrix(0.0925925925925926,0,0,0.0925925925925926,99.81481481481482,0)" xlink:href="#aN"/></g><path d="M160-131c35 5 61 23 61 61C221 17 115-2 30 0v-248c76 3 177-17 177 60 0 33-19 50-47 57zm-97-11c50-1 110 9 110-42 0-47-63-36-110-37v79zm0 115c55-2 124 14 124-45 0-56-70-42-124-44v89" id="aO"/><g id="H"><use transform="matrix(0.24691358024691357,0,0,0.24691358024691357,0,0)" xlink:href="#aO"/><use transform="matrix(0.24691358024691357,0,0,0.24691358024691357,59.25925925925925,0)" xlink:href="#O"/><use transform="matrix(0.24691358024691357,0,0,0.24691358024691357,78.76543209876542,0)" xlink:href="#aD"/><use transform="matrix(0.24691358024691357,0,0,0.24691358024691357,98.2716049382716,0)" xlink:href="#aD"/><use transform="matrix(0.24691358024691357,0,0,0.24691358024691357,117.77777777777777,0)" xlink:href="#O"/><use transform="matrix(0.24691358024691357,0,0,0.24691358024691357,137.28395061728395,0)" xlink:href="#S"/><use transform="matrix(0.24691358024691357,0,0,0.24691358024691357,186.66666666666666,0)" xlink:href="#U"/></g><g id="I"><use transform="matrix(0.24691358024691357,0,0,0.24691358024691357,0,0)" xlink:href="#aF"/><use transform="matrix(0.24691358024691357,0,0,0.24691358024691357,24.691358024691358,0)" xlink:href="#S"/><use transform="matrix(0.24691358024691357,0,0,0.24691358024691357,74.07407407407408,0)" xlink:href="#az"/><use transform="matrix(0.24691358024691357,0,0,0.24691358024691357,118.51851851851852,0)" xlink:href="#W"/><use transform="matrix(0.24691358024691357,0,0,0.24691358024691357,167.90123456790124,0)" xlink:href="#S"/><use transform="matrix(0.24691358024691357,0,0,0.24691358024691357,217.28395061728395,0)" xlink:href="#N"/><use transform="matrix(0.24691358024691357,0,0,0.24691358024691357,241.97530864197532,0)" xlink:href="#M"/><use transform="matrix(0.24691358024691357,0,0,0.24691358024691357,291.358024691358,0)" xlink:href="#Z"/><use transform="matrix(0.24691358024691357,0,0,0.24691358024691357,320.74074074074076,0)" xlink:href="#ab"/></g><path d="M212-179c-10-28-35-45-73-45-59 0-87 40-87 99 0 60 29 101 89 101 43 0 62-24 78-52l27 14C228-24 195 4 139 4 59 4 22-46 18-125c-6-104 99-153 187-111 19 9 31 26 39 46" id="aP"/><g id="J"><use transform="matrix(0.24691358024691357,0,0,0.24691358024691357,0,0)" xlink:href="#aP"/><use transform="matrix(0.24691358024691357,0,0,0.24691358024691357,63.95061728395061,0)" xlink:href="#T"/><use transform="matrix(0.24691358024691357,0,0,0.24691358024691357,113.33333333333333,0)" xlink:href="#ae"/><use transform="matrix(0.24691358024691357,0,0,0.24691358024691357,157.77777777777777,0)" xlink:href="#N"/><use transform="matrix(0.24691358024691357,0,0,0.24691358024691357,182.46913580246914,0)" xlink:href="#M"/><use transform="matrix(0.24691358024691357,0,0,0.24691358024691357,231.85185185185185,0)" xlink:href="#af"/><use transform="matrix(0.24691358024691357,0,0,0.24691358024691357,305.679012345679,0)" xlink:href="#W"/><use transform="matrix(0.24691358024691357,0,0,0.24691358024691357,355.0617283950617,0)" xlink:href="#Z"/></g><path d="M30 0v-248h187v28H63v79h144v27H63v87h162V0H30" id="aQ"/><g id="K"><use transform="matrix(0.24691358024691357,0,0,0.24691358024691357,0,0)" xlink:href="#aQ"/><use transform="matrix(0.24691358024691357,0,0,0.24691358024691357,59.25925925925925,0)" xlink:href="#af"/><use transform="matrix(0.24691358024691357,0,0,0.24691358024691357,133.0864197530864,0)" xlink:href="#R"/><use transform="matrix(0.24691358024691357,0,0,0.24691358024691357,182.4691358024691,0)" xlink:href="#O"/><use transform="matrix(0.24691358024691357,0,0,0.24691358024691357,201.9753086419753,0)" xlink:href="#aD"/></g></defs></g></svg>