<svg xmlns="http://www.w3.org/2000/svg" xmlns:xlink="http://www.w3.org/1999/xlink" xmlns:lucid="lucid" width="2905.7" height="1695"><g transform="translate(-11200 -11180)" lucid:page-tab-id="SdqKk5shKpB1"><path d="M11000 11000h3500v2000h-3500z" fill="#fff"/><path d="M11740 11686c0-3.3 2.7-6 6-6h2304.6c3.33 0 6 2.7 6 6v708c0 3.3-2.67 6-6 6H11746c-3.3 0-6-2.7-6-6z" stroke="#000" stroke-width="9" fill="#fff" fill-opacity="0"/><use xlink:href="#a" transform="matrix(1,0,0,1,11745,11685) translate(0 71.11111111111111)"/><a xlink:href="https://github.com/selfdriventeam/kata/blob/main/doc/arc/components/notification_engine.md" target="_blank"><path d="M11541.87 11206c0-3.3 2.7-6 6-6h717c3.32 0 6 2.7 6 6v145.33c0 3.32-2.68 6-6 6h-717c-3.3 0-6-2.68-6-6z" fill="#e5e5e5"/><path d="M11543.22 11202.44l1.1-1.1m2.8-1.14l.75-.2h1m3.98 0h2m3.98 0h2m3.97 0h2m3.98 0h2m3.97 0h2m3.98 0h2m3.97 0h2m3.98 0h2m3.97 0h2m3.98 0h2m3.97 0h2m3.98 0h2m3.97 0h2m3.98 0h2m3.97 0h2m3.98 0h2m3.97 0h2m3.98 0h2m3.97 0h2m3.98 0h2m3.97 0h2m3.98 0h2m3.97 0h2m3.98 0h2m3.97 0h2m3.98 0h2m3.97 0h2m3.98 0h2m3.97 0h2m3.98 0h2m3.97 0h2m3.98 0h2m3.97 0h2m3.98 0h2m3.97 0h2m3.98 0h2m3.97 0h2m3.98 0h2m3.97 0h2m3.98 0h2m3.97 0h2m3.98 0h2m3.97 0h2m3.98 0h2m3.97 0h2m3.98 0h2m3.97 0h2m3.98 0h2m3.97 0h2m3.98 0h2m3.97 0h2m3.98 0h2m3.97 0h2m3.98 0h2m3.97 0h2m3.98 0h2m3.97 0h2m3.98 0h2m3.97 0h2m3.98 0h2m3.97 0h2m3.98 0h2m3.97 0h2m3.98 0h2m3.97 0h2m3.98 0h2m3.97 0h2m3.98 0h2m3.97 0h2m3.98 0h2m3.97 0h2m3.98 0h2m3.97 0h2m3.98 0h2m3.97 0h2m3.98 0h2m3.97 0h2m3.98 0h2m3.97 0h2m3.98 0h2m3.97 0h2m3.98 0h2m3.97 0h2m3.98 0h2m3.97 0h2m3.98 0h2m3.97 0h2m3.98 0h2m3.97 0h2m3.98 0h2m3.97 0h2m3.98 0h2m3.97 0h2m3.98 0h2m3.97 0h2m3.98 0h2m3.97 0h2m3.98 0h2m3.97 0h2m3.98 0h2m3.97 0h2m3.98 0h2m3.97 0h2m3.98 0h2m3.97 0h2m3.98 0h2m3.97 0h2m3.98 0h2m3.97 0h2m3.98 0h2m3.97 0h2m3.98 0h2m3.97 0h2m3.98 0h2m3.97 0h2m3.98 0h2m3.97 0h2m3.98 0h2m3.97 0h2m3.98 0h1l.74.2m2.8 1.15l1.1 1.1m1.15 2.8l.2.75v1m0 4.05v2m0 4.05v2.02m0 4.04v2.02m0 4.03v2.03m0 4.04v2.02m0 4.02v2.02m0 4.04v2.02m0 4.04v2m0 4.05v2m0 4.05v2m0 4.05v2.02m0 4.04v2.02m0 4.03v2.03m0 4.04v2.02m0 4.02v2.02m0 4.04v2.02m0 4.04v2m0 4.05v2m0 4.05v2m0 4.05v2.02m0 4.04v2.02m0 4.03v2.03m0 4.04v2.02m0 4.02v1l-.2.76m-1.14 2.8l-1.1 1.1m-2.8 1.15l-.76.2h-1m-3.97 0h-2m-3.98 0h-2m-3.97 0h-2m-3.98 0h-2m-3.97 0h-2m-3.98 0h-2m-3.97 0h-2m-3.98 0h-2m-3.97 0h-2m-3.98 0h-2m-3.97 0h-2m-3.98 0h-2m-3.97 0h-2m-3.98 0h-2m-3.97 0h-2m-3.98 0h-2m-3.97 0h-2m-3.98 0h-2m-3.97 0h-2m-3.98 0h-2m-3.97 0h-2m-3.98 0h-2m-3.97 0h-2m-3.98 0h-2m-3.97 0h-2m-3.98 0h-2m-3.97 0h-2m-3.98 0h-2m-3.97 0h-2m-3.98 0h-2m-3.97 0h-2m-3.98 0h-2m-3.97 0h-2m-3.98 0h-2m-3.97 0h-2m-3.98 0h-2m-3.97 0h-2m-3.98 0h-2m-3.97 0h-2m-3.98 0h-2m-3.97 0h-2m-3.98 0h-2m-3.97 0h-2m-3.98 0h-2m-3.97 0h-2m-3.98 0h-2m-3.97 0h-2m-3.98 0h-2m-3.97 0h-2m-3.98 0h-2m-3.97 0h-2m-3.98 0h-2m-3.97 0h-2m-3.98 0h-2m-3.97 0h-2m-3.98 0h-2m-3.97 0h-2m-3.98 0h-2m-3.97 0h-2m-3.98 0h-2m-3.97 0h-2m-3.98 0h-2m-3.97 0h-2m-3.98 0h-2m-3.97 0h-2m-3.98 0h-2m-3.97 0h-2m-3.98 0h-2m-3.97 0h-2m-3.98 0h-2m-3.97 0h-2m-3.98 0h-2m-3.97 0h-2m-3.98 0h-2m-3.97 0h-2m-3.98 0h-2m-3.97 0h-2m-3.98 0h-2m-3.97 0h-2m-3.98 0h-2m-3.97 0h-2m-3.98 0h-2m-3.97 0h-2m-3.98 0h-2m-3.97 0h-2m-3.98 0h-2m-3.97 0h-2m-3.98 0h-2m-3.97 0h-2m-3.98 0h-2m-3.97 0h-2m-3.98 0h-2m-3.97 0h-2m-3.98 0h-2m-3.97 0h-2m-3.98 0h-2m-3.97 0h-2m-3.98 0h-2m-3.97 0h-2m-3.98 0h-2m-3.97 0h-2m-3.98 0h-2m-3.97 0h-2m-3.98 0h-2m-3.97 0h-2m-3.98 0h-2m-3.97 0h-2m-3.98 0h-2m-3.97 0h-2m-3.98 0h-2m-3.97 0h-2m-3.98 0h-2m-3.97 0h-2m-3.98 0h-2m-3.97 0h-2m-3.98 0h-2m-3.97 0h-2m-3.98 0h-2m-3.97 0h-2m-3.98 0h-1l-.74-.2m-2.8-1.14l-1.1-1.1m-1.15-2.82l-.2-.75v-1m0-4.04v-2.03m0-4.04v-2.02m0-4.02v-2.02m0-4.04v-2.02m0-4.04v-2m0-4.05v-2m0-4.05v-2m0-4.05v-2.02m0-4.04v-2.02m0-4.03v-2.03m0-4.04v-2.02m0-4.02v-2.02m0-4.04v-2.02m0-4.04v-2m0-4.05v-2m0-4.05v-2m0-4.05v-2.02m0-4.04v-2.02m0-4.03v-2.03m0-4.04v-2.02m0-4.02v-2.02m0-4.04v-2.02m0-4.04v-2m0-4.05v-1l.2-.75" stroke="#000" fill="none"/><use xlink:href="#b" transform="matrix(1,0,0,1,11553.874999999996,11212) translate(78.42592592592592 88.8888888888889)"/><path class="lucid-link lucid-hotspot lucid-overlay-hotspot" d="M11541.87 11206c0-3.3 2.7-6 6-6h717c3.32 0 6 2.7 6 6v145.33c0 3.32-2.68 6-6 6h-717c-3.3 0-6-2.68-6-6z" fill="none"/><path class="lucid-link lucid-hotspot lucid-overlay-hotspot" d="M11543.22 11202.44l1.1-1.1m2.8-1.14l.75-.2h1m3.98 0h2m3.98 0h2m3.97 0h2m3.98 0h2m3.97 0h2m3.98 0h2m3.97 0h2m3.98 0h2m3.97 0h2m3.98 0h2m3.97 0h2m3.98 0h2m3.97 0h2m3.98 0h2m3.97 0h2m3.98 0h2m3.97 0h2m3.98 0h2m3.97 0h2m3.98 0h2m3.97 0h2m3.98 0h2m3.97 0h2m3.98 0h2m3.97 0h2m3.98 0h2m3.97 0h2m3.98 0h2m3.97 0h2m3.98 0h2m3.97 0h2m3.98 0h2m3.97 0h2m3.98 0h2m3.97 0h2m3.98 0h2m3.97 0h2m3.98 0h2m3.97 0h2m3.98 0h2m3.97 0h2m3.98 0h2m3.97 0h2m3.98 0h2m3.97 0h2m3.98 0h2m3.97 0h2m3.98 0h2m3.97 0h2m3.98 0h2m3.97 0h2m3.98 0h2m3.97 0h2m3.98 0h2m3.97 0h2m3.98 0h2m3.97 0h2m3.98 0h2m3.97 0h2m3.98 0h2m3.97 0h2m3.98 0h2m3.97 0h2m3.98 0h2m3.97 0h2m3.98 0h2m3.97 0h2m3.98 0h2m3.97 0h2m3.98 0h2m3.97 0h2m3.98 0h2m3.97 0h2m3.98 0h2m3.97 0h2m3.98 0h2m3.97 0h2m3.98 0h2m3.97 0h2m3.98 0h2m3.97 0h2m3.98 0h2m3.97 0h2m3.98 0h2m3.97 0h2m3.98 0h2m3.97 0h2m3.98 0h2m3.97 0h2m3.98 0h2m3.97 0h2m3.98 0h2m3.97 0h2m3.98 0h2m3.97 0h2m3.98 0h2m3.97 0h2m3.98 0h2m3.97 0h2m3.98 0h2m3.97 0h2m3.98 0h2m3.97 0h2m3.98 0h2m3.97 0h2m3.98 0h2m3.97 0h2m3.98 0h2m3.97 0h2m3.98 0h2m3.97 0h2m3.98 0h2m3.97 0h2m3.98 0h2m3.97 0h2m3.98 0h2m3.97 0h2m3.98 0h2m3.97 0h2m3.98 0h1l.74.2m2.8 1.15l1.1 1.1m1.15 2.8l.2.75v1m0 4.05v2m0 4.05v2.02m0 4.04v2.02m0 4.03v2.03m0 4.04v2.02m0 4.02v2.02m0 4.04v2.02m0 4.04v2m0 4.05v2m0 4.05v2m0 4.05v2.02m0 4.04v2.02m0 4.03v2.03m0 4.04v2.02m0 4.02v2.02m0 4.04v2.02m0 4.04v2m0 4.05v2m0 4.05v2m0 4.05v2.02m0 4.04v2.02m0 4.03v2.03m0 4.04v2.02m0 4.02v1l-.2.76m-1.14 2.8l-1.1 1.1m-2.8 1.15l-.76.2h-1m-3.97 0h-2m-3.98 0h-2m-3.97 0h-2m-3.98 0h-2m-3.97 0h-2m-3.98 0h-2m-3.97 0h-2m-3.98 0h-2m-3.97 0h-2m-3.98 0h-2m-3.97 0h-2m-3.98 0h-2m-3.97 0h-2m-3.98 0h-2m-3.97 0h-2m-3.98 0h-2m-3.97 0h-2m-3.98 0h-2m-3.97 0h-2m-3.98 0h-2m-3.97 0h-2m-3.98 0h-2m-3.97 0h-2m-3.98 0h-2m-3.97 0h-2m-3.98 0h-2m-3.97 0h-2m-3.98 0h-2m-3.97 0h-2m-3.98 0h-2m-3.97 0h-2m-3.98 0h-2m-3.97 0h-2m-3.98 0h-2m-3.97 0h-2m-3.98 0h-2m-3.97 0h-2m-3.98 0h-2m-3.97 0h-2m-3.98 0h-2m-3.97 0h-2m-3.98 0h-2m-3.97 0h-2m-3.98 0h-2m-3.97 0h-2m-3.98 0h-2m-3.97 0h-2m-3.98 0h-2m-3.97 0h-2m-3.98 0h-2m-3.97 0h-2m-3.98 0h-2m-3.97 0h-2m-3.98 0h-2m-3.97 0h-2m-3.98 0h-2m-3.97 0h-2m-3.98 0h-2m-3.97 0h-2m-3.98 0h-2m-3.97 0h-2m-3.98 0h-2m-3.97 0h-2m-3.98 0h-2m-3.97 0h-2m-3.98 0h-2m-3.97 0h-2m-3.98 0h-2m-3.97 0h-2m-3.98 0h-2m-3.97 0h-2m-3.98 0h-2m-3.97 0h-2m-3.98 0h-2m-3.97 0h-2m-3.98 0h-2m-3.97 0h-2m-3.98 0h-2m-3.97 0h-2m-3.98 0h-2m-3.97 0h-2m-3.98 0h-2m-3.97 0h-2m-3.98 0h-2m-3.97 0h-2m-3.98 0h-2m-3.97 0h-2m-3.98 0h-2m-3.97 0h-2m-3.98 0h-2m-3.97 0h-2m-3.98 0h-2m-3.97 0h-2m-3.98 0h-2m-3.97 0h-2m-3.98 0h-2m-3.97 0h-2m-3.98 0h-2m-3.97 0h-2m-3.98 0h-2m-3.97 0h-2m-3.98 0h-2m-3.97 0h-2m-3.98 0h-2m-3.97 0h-2m-3.98 0h-2m-3.97 0h-2m-3.98 0h-2m-3.97 0h-2m-3.98 0h-2m-3.97 0h-2m-3.98 0h-2m-3.97 0h-2m-3.98 0h-2m-3.97 0h-2m-3.98 0h-2m-3.97 0h-2m-3.98 0h-2m-3.97 0h-2m-3.98 0h-1l-.74-.2m-2.8-1.14l-1.1-1.1m-1.15-2.82l-.2-.75v-1m0-4.04v-2.03m0-4.04v-2.02m0-4.02v-2.02m0-4.04v-2.02m0-4.04v-2m0-4.05v-2m0-4.05v-2m0-4.05v-2.02m0-4.04v-2.02m0-4.03v-2.03m0-4.04v-2.02m0-4.02v-2.02m0-4.04v-2.02m0-4.04v-2m0-4.05v-2m0-4.05v-2m0-4.05v-2.02m0-4.04v-2.02m0-4.03v-2.03m0-4.04v-2.02m0-4.02v-2.02m0-4.04v-2.02m0-4.04v-2m0-4.05v-1l.2-.75" fill="none"/></a><path d="M11465.9 12011.78l3.5-.07 5.75-.35 5.5-.58 5.34-.78 5.16-1 5.07-1.2 4.98-1.38 4.93-1.6 4.9-1.82 4.9-2.07 4.96-2.33 5.02-2.63 5.16-2.98 5.35-3.4 5.6-3.9 6-4.57 6.56-5.42 7.42-6.7 9.02-8.84 13.24-14.16 43.6-48.66 9-8.84 7.44-6.7 6.55-5.43 6-4.55 5.6-3.9 5.36-3.4 5.16-3 5.02-2.62 4.95-2.33 4.9-2.06 4.9-1.82 4.94-1.6 4.98-1.4 5.07-1.17 3.03-.57" stroke="#5e5e5e" stroke-width="5" fill="none"/><path d="M11466.03 12014.28l-2.7.06.08-2.5-.04-2.5 2.57-.06z" fill="#5e5e5e"/><path d="M11727.44 11846.4l-13.78 5.92-.85-9.23z" stroke="#5e5e5e" stroke-width="5" fill="#5e5e5e"/><g stroke="#000" stroke-width="3"><path d="M11250.72 12083.67c-12.96 0-23.47-32.16-23.47-71.83 0-39.68 10.5-71.84 23.47-71.84h187.72c12.96 0 23.47 32.16 23.47 71.84 0 39.67-10.5 71.83-23.46 71.83z" fill="#fff"/><path d="M11438.44 12083.67c-12.96 0-23.46-32.16-23.46-71.83 0-39.68 10.5-71.84 23.46-71.84" fill="none"/></g><path d="M11220 11953.4c0-3.32 2.7-6 6-6h188c3.3 0 6 2.68 6 6v118c0 3.3-2.7 6-6 6h-188c-3.3 0-6-2.7-6-6z" stroke="#000" stroke-opacity="0" stroke-width="3" fill="#fff" fill-opacity="0"/><use xlink:href="#c" transform="matrix(1,0,0,1,11225,11952.393221660775) translate(31.157407407407412 26.66666666666667)"/><use xlink:href="#d" transform="matrix(1,0,0,1,11225,11952.393221660775) translate(15.509259259259238 66.66666666666669)"/><use xlink:href="#e" transform="matrix(1,0,0,1,11225,11952.393221660775) translate(48.7037037037037 106.66666666666669)"/><path d="M12190.18 12573.84c4.32 0 8.82.2 13.5.4 4.68.4 9.36.77 14.04 1.36 4.86.58 9.54 1.36 14.04 2.34 4.68.97 9 2.14 13.14 3.7 1.26.4 2.88.98 5.04 1.95 2.16.77 4.32 1.94 6.3 3.1 1.98 1.18 3.78 2.35 5.22 3.9 1.44 1.38 2.16 2.74 2.16 4.3 0 .6-.18.98-.36 1.57-.18.58-.54.97-1.08 1.56-1.8 2.33-4.5 4.28-7.74 6.04-3.24 1.75-7.02 3.3-11.34 4.48-4.14 1.37-8.64 2.54-13.5 3.32-4.68.97-9.54 1.75-14.22 2.34-4.86.4-9.36.8-13.68 1.18-4.5.2-8.28.4-11.7.4s-7.2-.2-11.7-.4c-4.32-.4-8.82-.78-13.68-1.17-4.68-.58-9.54-1.36-14.22-2.33-4.86-.78-9.36-1.95-13.5-3.32-4.32-1.17-8.1-2.73-11.34-4.48-3.42-1.76-5.94-3.7-7.74-6.05-.54-.58-.9-.97-1.08-1.56-.18-.58-.36-.97-.36-1.56 0-1.56.72-2.92 2.16-4.28 1.44-1.57 3.24-2.74 5.22-3.9 1.98-1.17 4.14-2.34 6.3-3.13 2.16-.98 3.78-1.57 5.04-1.95 4.14-1.57 8.46-2.74 13.14-3.7 4.5-1 9.18-1.77 14.04-2.35 4.68-.6 9.36-.98 14.04-1.36 4.68-.2 9.18-.4 13.5-.4h.36zm73.44 41.73v21.06c0 1.37-.72 2.93-2.16 4.3-1.44 1.36-3.24 2.72-5.22 3.9-1.98 1.16-4.14 2.14-6.3 3.1-2.16.8-3.78 1.57-5.04 1.96-4.14 1.36-8.46 2.72-13.14 3.5-4.5.98-9.18 1.76-14.04 2.34-4.68.78-9.36 1.17-14.04 1.37-4.68.2-9.18.4-13.68.4s-9-.2-13.68-.4-9.36-.58-14.04-1.36c-4.86-.58-9.54-1.36-14.04-2.34-4.68-.78-9-2.14-13.14-3.5-1.26-.4-2.88-1.18-5.04-1.96-2.16-.97-4.32-1.95-6.3-3.12-1.98-1.17-3.78-2.53-5.22-3.9-1.44-1.36-2.16-2.92-2.16-4.3v-21.05c4.86 2.54 10.26 4.88 16.38 6.63 6.12 1.95 12.42 3.32 19.08 4.5 6.66.96 13.14 1.74 19.8 2.33 6.48.4 12.6.58 18.36.58s11.88-.18 18.36-.57c6.66-.6 13.14-1.37 19.8-2.34 6.66-1.18 12.96-2.55 19.08-4.5 6.12-1.75 11.52-4.1 16.38-6.63zm0 41.73v21.06c0 1.56-.72 2.93-2.16 4.3-1.44 1.55-3.24 2.72-5.22 3.9-1.98 1.16-4.14 2.14-6.3 3.1-2.16 1-3.78 1.57-5.04 1.96-4.14 1.56-8.28 2.73-12.96 3.7-4.68.8-9.36 1.57-14.04 2.35-4.86.58-9.54.97-14.22 1.17-4.86.4-9.36.4-13.68.4s-8.82 0-13.68-.4c-4.68-.2-9.36-.6-14.22-1.17l-14.04-2.34c-4.68-.98-8.82-2.15-12.96-3.7-1.26-.4-2.88-.98-5.04-1.96-2.16-.97-4.32-1.95-6.3-3.12-1.98-1.17-3.78-2.34-5.22-3.9-1.44-1.36-2.16-2.73-2.16-4.3v-21.05c4.86 2.73 10.26 5.07 16.56 6.83 6.12 1.75 12.42 3.3 18.9 4.3 6.66 1.16 13.14 1.94 19.8 2.33 6.48.4 12.6.58 18.36.58s11.88-.2 18.36-.58c6.66-.4 13.14-1.17 19.8-2.34 6.48-.98 12.78-2.54 18.9-4.3 6.3-1.75 11.7-4.1 16.56-6.82zm0 41.73v21.06c0 1.55-.72 3.1-2.16 4.48-1.44 1.36-3.24 2.53-5.22 3.7-1.98 1.17-4.14 2.34-6.3 3.12-2.16.98-3.78 1.56-5.04 2.15-4.14 1.36-8.28 2.53-12.96 3.5-4.68.98-9.36 1.76-14.04 2.35-4.86.58-9.54.97-14.22 1.36-4.86.2-9.36.4-13.68.4s-8.82-.2-13.68-.4c-4.68-.4-9.36-.78-14.22-1.36-4.68-.6-9.36-1.37-14.04-2.34-4.68-.98-8.82-2.15-12.96-3.5-1.26-.6-2.88-1.18-5.04-2.16-2.16-.78-4.32-1.95-6.3-3.12-1.98-1.17-3.78-2.34-5.22-3.7-1.44-1.37-2.16-2.93-2.16-4.5v-21.05c4.86 2.73 10.26 5.07 16.56 6.83 6.12 1.95 12.42 3.3 18.9 4.48 6.66.98 13.14 1.76 19.8 2.15 6.48.57 12.6.77 18.36.77s11.88-.2 18.36-.78c6.66-.4 13.14-1.18 19.8-2.16 6.48-1.17 12.78-2.53 18.9-4.48 6.3-1.76 11.7-4.1 16.56-6.83zM12190 12560c-5.94 0-12.78.2-20.16.78-7.56.58-15.12 1.75-22.68 3.12-7.38 1.56-14.58 3.32-21.42 5.85-6.84 2.34-12.42 5.46-16.74 9.16-2.7 2.16-4.86 4.5-6.48 7.23-1.62 2.53-2.52 5.46-2.52 8.77v125.2c0 3.3.9 6.23 2.52 8.77 1.62 2.73 3.78 5.07 6.48 7.2 4.32 3.72 9.9 6.84 16.74 9.18 6.84 2.53 14.04 4.3 21.42 5.85 7.56 1.36 15.12 2.53 22.68 3.12 7.38.58 14.22.78 20.16.78 5.94 0 12.78-.2 20.16-.78 7.56-.6 15.12-1.76 22.68-3.12 7.38-1.56 14.58-3.32 21.42-5.85 6.84-2.34 12.42-5.46 16.74-9.17 2.7-2.14 4.86-4.48 6.48-7.2 1.62-2.55 2.52-5.47 2.52-8.8v-125.18c0-3.3-.9-6.24-2.52-8.77-1.62-2.73-3.78-5.07-6.48-7.22-4.32-3.7-9.9-6.8-16.74-9.15-6.84-2.53-14.04-4.3-21.42-5.85-7.56-1.36-15.12-2.53-22.68-3.12-7.38-.6-14.22-.78-20.16-.78z"/><path d="M11561.72 11360.03l3.5 6.4m4.66 8.53l7 12.8m4.67 8.54l7 12.8m4.66 8.53l7 12.8m4.67 8.53l7 12.8m4.66 8.54l7 12.8m4.66 8.53l7 12.8m4.65 8.54l7 12.8m4.67 8.53l7 12.8m4.66 8.54l7 12.8m4.66 8.53l7 12.8m4.66 8.53l7 12.8m4.66 8.54l7 12.8m4.67 8.53l7 12.8m4.66 8.54l3.5 6.4" stroke="#5e5e5e" stroke-width="5" fill="none"/><path d="M11563.94 11358.88l-4.38 2.4-1.9-3.45h5.7z" fill="#5e5e5e"/><path d="M11733.03 11673.42l-10.9-10.3 8.12-4.44z" stroke="#5e5e5e" stroke-width="5" fill="#5e5e5e"/><path d="M12273.8 11279.2l7.35 1.66m9.8 2.2l14.67 3.3m9.8 2.2l14.67 3.3m9.78 2.2l14.68 3.3m9.78 2.2l14.68 3.3m9.8 2.2l14.67 3.3m9.78 2.2l14.68 3.3m9.78 2.2l14.68 3.3m9.8 2.2l14.67 3.3m9.78 2.2l14.68 3.3m9.8 2.18l14.67 3.3m9.78 2.2l14.7 3.3m9.78 2.2l14.68 3.3m9.8 2.2l14.67 3.3m9.78 2.2l14.7 3.3m9.78 2.2l14.68 3.3m9.8 2.2l14.67 3.3m9.8 2.2l14.67 3.3m9.78 2.2l14.68 3.3m9.8 2.2l14.67 3.3m9.8 2.18l14.67 3.3m9.78 2.2l14.7 3.3m9.77 2.2l14.68 3.3m9.8 2.2l14.67 3.3m9.8 2.2l14.67 3.3m9.78 2.2l14.68 3.3m9.8 2.2l14.67 3.3m9.8 2.2l14.67 3.3m9.8 2.2l14.67 3.3m9.78 2.2l14.68 3.28m9.8 2.2l14.67 3.3m9.8 2.2l14.67 3.3m9.78 2.2l14.68 3.3m9.8 2.2l14.67 3.3m9.8 2.2l14.67 3.3m9.8 2.2l14.67 3.3m9.8 2.2l14.67 3.3m9.8 2.2l14.67 3.3m9.8 2.2l14.67 3.3m9.8 2.2l14.67 3.28m9.8 2.2l14.67 3.3m9.8 2.2l14.67 3.3m9.8 2.2l14.68 3.3m9.78 2.2l14.68 3.3m9.8 2.2l14.67 3.3m9.8 2.2l14.68 3.3m9.78 2.2l14.68 3.3m9.8 2.2l14.67 3.3m9.8 2.2l14.68 3.3m9.8 2.18l14.67 3.3m9.78 2.2l14.68 3.3m9.8 2.2l14.68 3.3m9.8 2.2l14.67 3.3m9.78 2.2l14.68 3.3m9.8 2.2l14.68 3.3m9.8 2.2l14.67 3.3m9.8 2.2l14.67 3.3m9.78 2.2l14.68 3.3m9.8 2.2l14.67 3.3m9.8 2.18l14.67 3.3m9.78 2.2l14.7 3.3m9.77 2.2l14.68 3.3m9.8 2.2l14.67 3.3m9.8 2.2l14.67 3.3m9.77 2.2l14.68 3.3m9.8 2.2l14.67 3.3m9.8 2.2l14.67 3.3m9.78 2.2l14.68 3.3m9.78 2.2l14.68 3.28m9.8 2.2l14.67 3.3m9.78 2.2l14.68 3.3m9.78 2.2l14.68 3.3m9.8 2.2l7.33 1.65" stroke="#5e5e5e" stroke-width="5" fill="none"/><path d="M12274.42 11276.8l-1.1 4.87-1.94-.44v-5.13z" fill="#5e5e5e"/><path d="M14051.8 11678.74l-14.93 1.4 2.04-9.05z" stroke="#5e5e5e" stroke-width="5" fill="#5e5e5e"/><path d="M12080 12786c0-3.3 2.7-6 6-6h228c3.3 0 6 2.7 6 6v48c0 3.3-2.7 6-6 6h-228c-3.3 0-6-2.7-6-6z" stroke="#000" stroke-opacity="0" stroke-width="3" fill="#fff" fill-opacity="0"/><use xlink:href="#f" transform="matrix(1,0,0,1,12085,12785) translate(67.87037037037037 32.91666666666667)"/><path d="M12610.18 12573.84c4.32 0 8.82.2 13.5.4 4.68.4 9.36.77 14.04 1.36 4.86.58 9.54 1.36 14.04 2.34 4.68.97 9 2.14 13.14 3.7 1.26.4 2.88.98 5.04 1.95 2.16.77 4.32 1.94 6.3 3.1 1.98 1.18 3.78 2.35 5.22 3.9 1.44 1.38 2.16 2.74 2.16 4.3 0 .6-.18.98-.36 1.57-.18.58-.54.97-1.08 1.56-1.8 2.33-4.5 4.28-7.74 6.04-3.24 1.75-7.02 3.3-11.34 4.48-4.14 1.37-8.64 2.54-13.5 3.32-4.68.97-9.54 1.75-14.22 2.34-4.86.4-9.36.8-13.68 1.18-4.5.2-8.28.4-11.7.4s-7.2-.2-11.7-.4c-4.32-.4-8.82-.78-13.68-1.17-4.68-.58-9.54-1.36-14.22-2.33-4.86-.78-9.36-1.95-13.5-3.32-4.32-1.17-8.1-2.73-11.34-4.48-3.42-1.76-5.94-3.7-7.74-6.05-.54-.58-.9-.97-1.08-1.56-.18-.58-.36-.97-.36-1.56 0-1.56.72-2.92 2.16-4.28 1.44-1.57 3.24-2.74 5.22-3.9 1.98-1.17 4.14-2.34 6.3-3.13 2.16-.98 3.78-1.57 5.04-1.95 4.14-1.57 8.46-2.74 13.14-3.7 4.5-1 9.18-1.77 14.04-2.35 4.68-.6 9.36-.98 14.04-1.36 4.68-.2 9.18-.4 13.5-.4h.36zm73.44 41.73v21.06c0 1.37-.72 2.93-2.16 4.3-1.44 1.36-3.24 2.72-5.22 3.9-1.98 1.16-4.14 2.14-6.3 3.1-2.16.8-3.78 1.57-5.04 1.96-4.14 1.36-8.46 2.72-13.14 3.5-4.5.98-9.18 1.76-14.04 2.34-4.68.78-9.36 1.17-14.04 1.37-4.68.2-9.18.4-13.68.4s-9-.2-13.68-.4-9.36-.58-14.04-1.36c-4.86-.58-9.54-1.36-14.04-2.34-4.68-.78-9-2.14-13.14-3.5-1.26-.4-2.88-1.18-5.04-1.96-2.16-.97-4.32-1.95-6.3-3.12-1.98-1.17-3.78-2.53-5.22-3.9-1.44-1.36-2.16-2.92-2.16-4.3v-21.05c4.86 2.54 10.26 4.88 16.38 6.63 6.12 1.95 12.42 3.32 19.08 4.5 6.66.96 13.14 1.74 19.8 2.33 6.48.4 12.6.58 18.36.58s11.88-.18 18.36-.57c6.66-.6 13.14-1.37 19.8-2.34 6.66-1.18 12.96-2.55 19.08-4.5 6.12-1.75 11.52-4.1 16.38-6.63zm0 41.73v21.06c0 1.56-.72 2.93-2.16 4.3-1.44 1.55-3.24 2.72-5.22 3.9-1.98 1.16-4.14 2.14-6.3 3.1-2.16 1-3.78 1.57-5.04 1.96-4.14 1.56-8.28 2.73-12.96 3.7-4.68.8-9.36 1.57-14.04 2.35-4.86.58-9.54.97-14.22 1.17-4.86.4-9.36.4-13.68.4s-8.82 0-13.68-.4c-4.68-.2-9.36-.6-14.22-1.17l-14.04-2.34c-4.68-.98-8.82-2.15-12.96-3.7-1.26-.4-2.88-.98-5.04-1.96-2.16-.97-4.32-1.95-6.3-3.12-1.98-1.17-3.78-2.34-5.22-3.9-1.44-1.36-2.16-2.73-2.16-4.3v-21.05c4.86 2.73 10.26 5.07 16.56 6.83 6.12 1.75 12.42 3.3 18.9 4.3 6.66 1.16 13.14 1.94 19.8 2.33 6.48.4 12.6.58 18.36.58s11.88-.2 18.36-.58c6.66-.4 13.14-1.17 19.8-2.34 6.48-.98 12.78-2.54 18.9-4.3 6.3-1.75 11.7-4.1 16.56-6.82zm0 41.73v21.06c0 1.55-.72 3.1-2.16 4.48-1.44 1.36-3.24 2.53-5.22 3.7-1.98 1.17-4.14 2.34-6.3 3.12-2.16.98-3.78 1.56-5.04 2.15-4.14 1.36-8.28 2.53-12.96 3.5-4.68.98-9.36 1.76-14.04 2.35-4.86.58-9.54.97-14.22 1.36-4.86.2-9.36.4-13.68.4s-8.82-.2-13.68-.4c-4.68-.4-9.36-.78-14.22-1.36-4.68-.6-9.36-1.37-14.04-2.34-4.68-.98-8.82-2.15-12.96-3.5-1.26-.6-2.88-1.18-5.04-2.16-2.16-.78-4.32-1.95-6.3-3.12-1.98-1.17-3.78-2.34-5.22-3.7-1.44-1.37-2.16-2.93-2.16-4.5v-21.05c4.86 2.73 10.26 5.07 16.56 6.83 6.12 1.95 12.42 3.3 18.9 4.48 6.66.98 13.14 1.76 19.8 2.15 6.48.57 12.6.77 18.36.77s11.88-.2 18.36-.78c6.66-.4 13.14-1.18 19.8-2.16 6.48-1.17 12.78-2.53 18.9-4.48 6.3-1.76 11.7-4.1 16.56-6.83zM12610 12560c-5.94 0-12.78.2-20.16.78-7.56.58-15.12 1.75-22.68 3.12-7.38 1.56-14.58 3.32-21.42 5.85-6.84 2.34-12.42 5.46-16.74 9.16-2.7 2.16-4.86 4.5-6.48 7.23-1.62 2.53-2.52 5.46-2.52 8.77v125.2c0 3.3.9 6.23 2.52 8.77 1.62 2.73 3.78 5.07 6.48 7.2 4.32 3.72 9.9 6.84 16.74 9.18 6.84 2.53 14.04 4.3 21.42 5.85 7.56 1.36 15.12 2.53 22.68 3.12 7.38.58 14.22.78 20.16.78 5.94 0 12.78-.2 20.16-.78 7.56-.6 15.12-1.76 22.68-3.12 7.38-1.56 14.58-3.32 21.42-5.85 6.84-2.34 12.42-5.46 16.74-9.17 2.7-2.14 4.86-4.48 6.48-7.2 1.62-2.55 2.52-5.47 2.52-8.8v-125.18c0-3.3-.9-6.24-2.52-8.77-1.62-2.73-3.78-5.07-6.48-7.22-4.32-3.7-9.9-6.8-16.74-9.15-6.84-2.53-14.04-4.3-21.42-5.85-7.56-1.36-15.12-2.53-22.68-3.12-7.38-.6-14.22-.78-20.16-.78z"/><path d="M12500 12786c0-3.3 2.7-6 6-6h228c3.3 0 6 2.7 6 6v48c0 3.3-2.7 6-6 6h-228c-3.3 0-6-2.7-6-6z" stroke="#000" stroke-opacity="0" stroke-width="3" fill="#fff" fill-opacity="0"/><use xlink:href="#g" transform="matrix(1,0,0,1,12505,12785) translate(27.17592592592591 32.91666666666667)"/><path d="M13050.18 12573.84c4.32 0 8.82.2 13.5.4 4.68.4 9.36.77 14.04 1.36 4.86.58 9.54 1.36 14.04 2.34 4.68.97 9 2.14 13.14 3.7 1.26.4 2.88.98 5.04 1.95 2.16.77 4.32 1.94 6.3 3.1 1.98 1.18 3.78 2.35 5.22 3.9 1.44 1.38 2.16 2.74 2.16 4.3 0 .6-.18.98-.36 1.57-.18.58-.54.97-1.08 1.56-1.8 2.33-4.5 4.28-7.74 6.04-3.24 1.75-7.02 3.3-11.34 4.48-4.14 1.37-8.64 2.54-13.5 3.32-4.68.97-9.54 1.75-14.22 2.34-4.86.4-9.36.8-13.68 1.18-4.5.2-8.28.4-11.7.4s-7.2-.2-11.7-.4c-4.32-.4-8.82-.78-13.68-1.17-4.68-.58-9.54-1.36-14.22-2.33-4.86-.78-9.36-1.95-13.5-3.32-4.32-1.17-8.1-2.73-11.34-4.48-3.42-1.76-5.94-3.7-7.74-6.05-.54-.58-.9-.97-1.08-1.56-.18-.58-.36-.97-.36-1.56 0-1.56.72-2.92 2.16-4.28 1.44-1.57 3.24-2.74 5.22-3.9 1.98-1.17 4.14-2.34 6.3-3.13 2.16-.98 3.78-1.57 5.04-1.95 4.14-1.57 8.46-2.74 13.14-3.7 4.5-1 9.18-1.77 14.04-2.35 4.68-.6 9.36-.98 14.04-1.36 4.68-.2 9.18-.4 13.5-.4h.36zm73.44 41.73v21.06c0 1.37-.72 2.93-2.16 4.3-1.44 1.36-3.24 2.72-5.22 3.9-1.98 1.16-4.14 2.14-6.3 3.1-2.16.8-3.78 1.57-5.04 1.96-4.14 1.36-8.46 2.72-13.14 3.5-4.5.98-9.18 1.76-14.04 2.34-4.68.78-9.36 1.17-14.04 1.37-4.68.2-9.18.4-13.68.4s-9-.2-13.68-.4-9.36-.58-14.04-1.36c-4.86-.58-9.54-1.36-14.04-2.34-4.68-.78-9-2.14-13.14-3.5-1.26-.4-2.88-1.18-5.04-1.96-2.16-.97-4.32-1.95-6.3-3.12-1.98-1.17-3.78-2.53-5.22-3.9-1.44-1.36-2.16-2.92-2.16-4.3v-21.05c4.86 2.54 10.26 4.88 16.38 6.63 6.12 1.95 12.42 3.32 19.08 4.5 6.66.96 13.14 1.74 19.8 2.33 6.48.4 12.6.58 18.36.58s11.88-.18 18.36-.57c6.66-.6 13.14-1.37 19.8-2.34 6.66-1.18 12.96-2.55 19.08-4.5 6.12-1.75 11.52-4.1 16.38-6.63zm0 41.73v21.06c0 1.56-.72 2.93-2.16 4.3-1.44 1.55-3.24 2.72-5.22 3.9-1.98 1.16-4.14 2.14-6.3 3.1-2.16 1-3.78 1.57-5.04 1.96-4.14 1.56-8.28 2.73-12.96 3.7-4.68.8-9.36 1.57-14.04 2.35-4.86.58-9.54.97-14.22 1.17-4.86.4-9.36.4-13.68.4s-8.82 0-13.68-.4c-4.68-.2-9.36-.6-14.22-1.17l-14.04-2.34c-4.68-.98-8.82-2.15-12.96-3.7-1.26-.4-2.88-.98-5.04-1.96-2.16-.97-4.32-1.95-6.3-3.12-1.98-1.17-3.78-2.34-5.22-3.9-1.44-1.36-2.16-2.73-2.16-4.3v-21.05c4.86 2.73 10.26 5.07 16.56 6.83 6.12 1.75 12.42 3.3 18.9 4.3 6.66 1.16 13.14 1.94 19.8 2.33 6.48.4 12.6.58 18.36.58s11.88-.2 18.36-.58c6.66-.4 13.14-1.17 19.8-2.34 6.48-.98 12.78-2.54 18.9-4.3 6.3-1.75 11.7-4.1 16.56-6.82zm0 41.73v21.06c0 1.55-.72 3.1-2.16 4.48-1.44 1.36-3.24 2.53-5.22 3.7-1.98 1.17-4.14 2.34-6.3 3.12-2.16.98-3.78 1.56-5.04 2.15-4.14 1.36-8.28 2.53-12.96 3.5-4.68.98-9.36 1.76-14.04 2.35-4.86.58-9.54.97-14.22 1.36-4.86.2-9.36.4-13.68.4s-8.82-.2-13.68-.4c-4.68-.4-9.36-.78-14.22-1.36-4.68-.6-9.36-1.37-14.04-2.34-4.68-.98-8.82-2.15-12.96-3.5-1.26-.6-2.88-1.18-5.04-2.16-2.16-.78-4.32-1.95-6.3-3.12-1.98-1.17-3.78-2.34-5.22-3.7-1.44-1.37-2.16-2.93-2.16-4.5v-21.05c4.86 2.73 10.26 5.07 16.56 6.83 6.12 1.95 12.42 3.3 18.9 4.48 6.66.98 13.14 1.76 19.8 2.15 6.48.57 12.6.77 18.36.77s11.88-.2 18.36-.78c6.66-.4 13.14-1.18 19.8-2.16 6.48-1.17 12.78-2.53 18.9-4.48 6.3-1.76 11.7-4.1 16.56-6.83zM13050 12560c-5.94 0-12.78.2-20.16.78-7.56.58-15.12 1.75-22.68 3.12-7.38 1.56-14.58 3.32-21.42 5.85-6.84 2.34-12.42 5.46-16.74 9.16-2.7 2.16-4.86 4.5-6.48 7.23-1.62 2.53-2.52 5.46-2.52 8.77v125.2c0 3.3.9 6.23 2.52 8.77 1.62 2.73 3.78 5.07 6.48 7.2 4.32 3.72 9.9 6.84 16.74 9.18 6.84 2.53 14.04 4.3 21.42 5.85 7.56 1.36 15.12 2.53 22.68 3.12 7.38.58 14.22.78 20.16.78 5.94 0 12.78-.2 20.16-.78 7.56-.6 15.12-1.76 22.68-3.12 7.38-1.56 14.58-3.32 21.42-5.85 6.84-2.34 12.42-5.46 16.74-9.17 2.7-2.14 4.86-4.48 6.48-7.2 1.62-2.55 2.52-5.47 2.52-8.8v-125.18c0-3.3-.9-6.24-2.52-8.77-1.62-2.73-3.78-5.07-6.48-7.22-4.32-3.7-9.9-6.8-16.74-9.15-6.84-2.53-14.04-4.3-21.42-5.85-7.56-1.36-15.12-2.53-22.68-3.12-7.38-.6-14.22-.78-20.16-.78z"/><path d="M12940 12771c0-3.3 2.7-6 6-6h228c3.3 0 6 2.7 6 6v78c0 3.3-2.7 6-6 6h-228c-3.3 0-6-2.7-6-6z" stroke="#000" stroke-opacity="0" stroke-width="3" fill="#fff" fill-opacity="0"/><use xlink:href="#h" transform="matrix(1,0,0,1,12945,12770) translate(40.138888888888886 26.66666666666667)"/><use xlink:href="#i" transform="matrix(1,0,0,1,12945,12770) translate(123.37962962962965 26.66666666666667)"/><use xlink:href="#j" transform="matrix(1,0,0,1,12945,12770) translate(59.49074074074074 66.66666666666669)"/><path d="M12184.4 12429.28l1.67 117.35M12174.4 12429.43l1.67 117.34" stroke="#5e5e5e" stroke-width="5" fill="none"/><path d="M12179.16 12412.6l4.84 14.2-9.27.12z" stroke="#5e5e5e" stroke-width="5" fill="#5e5e5e"/><path d="M12170.77 12538.36l10.43 17.07 9.93-17.36M12606.98 12429.33l.7 117.28M12596.98 12429.4l.7 117.27" stroke="#5e5e5e" stroke-width="5" fill="none"/><path d="M12601.88 12412.6l4.72 14.23-9.27.05z" stroke="#5e5e5e" stroke-width="5" fill="#5e5e5e"/><path d="M12592.44 12538.2l10.28 17.17 10.08-17.28M13052.12 12429.37l-.34 117.13M13042.12 12429.34l-.34 117.14" stroke="#5e5e5e" stroke-width="5" fill="none"/><path d="M13047.17 12412.6l4.6 14.27-9.28-.03z" stroke="#5e5e5e" stroke-width="5" fill="#5e5e5e"/><path d="M13036.62 12537.97l10.13 17.25 10.23-17.2" stroke="#5e5e5e" stroke-width="5" fill="none"/><path d="M13517.2 12006c0-3.3 2.68-6 6-6h308c3.3 0 6 2.7 6 6v108c0 3.3-2.7 6-6 6h-308c-3.32 0-6-2.7-6-6z" stroke="#000" stroke-width="3" fill="#fff"/><use xlink:href="#k" transform="matrix(1,0,0,1,13522.19582384966,12005) translate(101.34259259259258 61.04166666666667)"/><path d="M12880 12026c0-3.3 2.7-6 6-6h308c3.3 0 6 2.7 6 6v108c0 3.3-2.7 6-6 6h-308c-3.3 0-6-2.7-6-6z" stroke="#000" stroke-width="3" fill="#fff"/><use xlink:href="#l" transform="matrix(1,0,0,1,12885,12025) translate(77.40740740740739 40.41666666666667)"/><use xlink:href="#m" transform="matrix(1,0,0,1,12885,12025) translate(112.49999999999999 40.41666666666667)"/><use xlink:href="#n" transform="matrix(1,0,0,1,12885,12025) translate(99.49074074074073 80.41666666666669)"/><path d="M13050.46 12321.4l119.35 4.47 76.3-.38 45.7-2.17v5l-45.56 2.15-76.5.4-119.55-4.5-576.35-40.85-58.02.3-40.28 1.88-29.94 2.7-23.23 3.06-18.58 3.25-15.22 3.33-12.66 3.33-10.7 3.3-9.18 3.26-7.94 3.2-6.93 3.13-6.1 3.08-5.42 3.02-4.84 2.97-4.33 2.92-3.93 2.9-3.55 2.84-3.25 2.83-2.96 2.83-2.72 2.8-2.5 2.8-2.3 2.82-2.1 2.83-1.97 2.85-1.8 2.88-1.66 2.94-1.54 3-1.4 3.04-1.3 3.13-1.17 3.23-1.06 3.33-.94 3.45-.82 3.6-.68 3.76-.56 3.95-.4 4.17-.26 4.4-.05 3.47-5-.07.05-3.56.26-4.6.43-4.38.58-4.16.73-3.96.88-3.8 1-3.66 1.1-3.53 1.26-3.4 1.37-3.33 1.5-3.24 1.64-3.17 1.77-3.1 1.93-3.07 2.07-3.04 2.25-3 2.43-2.97 2.63-2.97 2.87-2.95 3.1-2.96 3.4-2.97 3.73-3 4.1-3 4.5-3.04 5.02-3.07 5.6-3.12 6.3-3.16 7.12-3.22 8.13-3.28 9.37-3.32 10.9-3.37 12.87-3.38 15.42-3.37 18.8-3.28 23.44-3.1 30.15-2.7 40.5-1.9 58.3-.3zm567.3-174.8l-.2 1.37-1.44 7.83-1.7 7.44-1.93 7.1-2.17 6.8-2.4 6.55-2.6 6.32-2.84 6.12-3.07 5.95-3.3 5.8-3.55 5.66-3.8 5.57-4.1 5.47-4.42 5.4-4.74 5.33-5.12 5.3-5.53 5.25-6 5.23-6.5 5.24-7.1 5.22-7.78 5.24-8.57 5.26-9.46 5.27-10.53 5.3-11.8 5.34-13.28 5.36-15.1 5.36-3.17.96v-5.23l1.57-.5 14.92-5.28 13.1-5.28 11.58-5.24 10.34-5.2 9.3-5.2 8.37-5.14 7.6-5.12 6.92-5.1 6.35-5.1 5.83-5.1 5.38-5.1 4.97-5.15 4.6-5.18 4.28-5.23 3.97-5.3 3.7-5.4 3.44-5.5 3.2-5.6 2.96-5.78 2.75-5.93 2.53-6.12 2.3-6.35 2.1-6.6 1.9-6.9 1.64-7.24 1.4-7.63.18-1.27zM13620.12 12144.2l-9.23-.87 5.95-13.76z" fill="#5e5e5e"/><path d="M13623.3 12147.02l-16.07-1.52 10.38-24zm-8.74-5.85l2.37.22-.84-3.78zM12181.55 12404.47l-5 .06-.03-2.56 5-.06z" fill="#5e5e5e"/><use xlink:href="#o" transform="matrix(1,0,0,1,13291.792772248185,12277.020287534102) translate(0.0049999999999954525 26.66666666666667)"/><use xlink:href="#p" transform="matrix(1,0,0,1,13291.792772248185,12277.020287534102) translate(56.48648148148146 66.66666666666669)"/><path d="M13204 12079.95l56.82-1.1 40.77-2.52 49.68-5.4 64.33-7.26 40.77-2.53 34.47-.66" stroke="#5e5e5e" stroke-width="5" fill="none"/><path d="M13204.12 12082.45l-2.62.05v-5l2.52-.05z" fill="#5e5e5e"/><path d="M13507.6 12060.15l-14.17 4.9-.17-9.26z" stroke="#5e5e5e" stroke-width="5" fill="#5e5e5e"/><path d="M13040.07 12144l6.45 235.66" stroke="#5e5e5e" stroke-width="5" fill="none"/><path d="M13042.57 12144l-5 .13-.07-2.63h5z" fill="#5e5e5e"/><path d="M13046.97 12396.4l-5.02-14.12 9.27-.25z" stroke="#5e5e5e" stroke-width="5" fill="#5e5e5e"/><path d="M12018.9 12026c0-3.3 2.67-6 6-6h308c3.3 0 6 2.7 6 6v108c0 3.3-2.7 6-6 6h-308c-3.33 0-6-2.7-6-6z" stroke="#000" stroke-width="3" fill="#fff"/><use xlink:href="#l" transform="matrix(1,0,0,1,12023.88621947505,12025) translate(77.40740740740739 40.41666666666667)"/><use xlink:href="#m" transform="matrix(1,0,0,1,12023.88621947505,12025) translate(112.49999999999999 40.41666666666667)"/><use xlink:href="#n" transform="matrix(1,0,0,1,12023.88621947505,12025) translate(99.49074074074073 80.41666666666669)"/><path d="M12181.96 12390.4h-5l-.35-150.52h5zm-.44-190.52h-5l-.08-33.52h5zM12183.57 12163.85l-9.27.02 4.6-14.28z" fill="#5e5e5e"/><path d="M12187.02 12166.34l-16.15.03 8.02-24.87zm-9.28-4.98h2.4l-1.22-3.68zM12181.96 12392.9h-5v-2.56h5z" fill="#5e5e5e"/><use xlink:href="#q" transform="matrix(1,0,0,1,12126.751322164551,12199.878331446585) translate(0.005000000000002558 26.66666666666667)"/><path d="M12342.9 12080h510.74" stroke="#5e5e5e" stroke-width="5" fill="none"/><path d="M12342.96 12082.5h-2.57v-5h2.56z" fill="#5e5e5e"/><path d="M12870.4 12080l-14.26 4.64v-9.28z" stroke="#5e5e5e" stroke-width="5" fill="#5e5e5e"/><path d="M11992.75 12077.18l-.3-.07-3.13-.86-2.95-.96-2.78-1.04-2.66-1.1-2.54-1.2-2.43-1.27-2.35-1.36-2.27-1.43-2.22-1.54-2.16-1.65-2.13-1.76-2.1-1.9-2.1-2.04-2.08-2.22-2.1-2.42-2.1-2.67-2.15-2.96-2.2-3.3-2.28-3.8-2.4-4.37-2.6-5.23-2.9-6.5-3.44-8.74-5.12-14.84-16.1-49.5-4.3-10.86-3.78-8.5-3.54-7.16-3.42-6.22-3.36-5.55-3.33-5.02-3.34-4.58-3.37-4.25-3.42-3.97-3.48-3.7-3.58-3.5-3.68-3.33-3.8-3.15-3.97-3-4.14-2.88-4.34-2.75-4.56-2.64-4.83-2.53-5.13-2.4-5.48-2.32-5.9-2.18-6.37-2.06-6.92-1.94-7.57-1.77-8.35-1.6-9.26-1.36-10.38-1.1-11.72-.73-13.38-.27-15.45.33-3 .15" stroke="#5e5e5e" stroke-width="5" fill="none"/><path d="M12009.34 12079.08l-14.7 2.98 1.06-9.2z" stroke="#5e5e5e" stroke-width="5" fill="#5e5e5e"/><path d="M11735.5 11854.2l-2.87.14-.25-5 3.12-.14z" fill="#5e5e5e"/><path d="M12018.9 11841c0-3.3 2.67-6 6-6h489.1c3.3 0 6 2.7 6 6v108c0 3.3-2.7 6-6 6h-489.1c-3.33 0-6-2.7-6-6z" stroke="#000" stroke-width="3" fill="#fff"/><g><use xlink:href="#r" transform="matrix(1,0,0,1,12023.88621947505,11840) translate(219.14814814814815 40.54166666666667)"/><use xlink:href="#s" transform="matrix(1,0,0,1,12023.88621947505,11840) translate(18.49999999999997 80.54166666666669)"/><use xlink:href="#t" transform="matrix(1,0,0,1,12023.88621947505,11840) translate(386.55555555555554 80.54166666666669)"/></g><defs><path d="M190 0L58-211 59 0H30v-248h39L202-35l-2-213h31V0h-41" id="u"/><path d="M100-194c62-1 85 37 85 99 1 63-27 99-86 99S16-35 15-95c0-66 28-99 85-99zM99-20c44 1 53-31 53-75 0-43-8-75-51-75s-53 32-53 75 10 74 51 75" id="v"/><path d="M59-47c-2 24 18 29 38 22v24C64 9 27 4 27-40v-127H5v-23h24l9-43h21v43h35v23H59v120" id="w"/><path d="M24-231v-30h32v30H24zM24 0v-190h32V0H24" id="x"/><path d="M101-234c-31-9-42 10-38 44h38v23H63V0H32v-167H5v-23h27c-7-52 17-82 69-68v24" id="y"/><path d="M96-169c-40 0-48 33-48 73s9 75 48 75c24 0 41-14 43-38l32 2c-6 37-31 61-74 61-59 0-76-41-82-99-10-93 101-131 147-64 4 7 5 14 7 22l-32 3c-4-21-16-35-41-35" id="z"/><path d="M141-36C126-15 110 5 73 4 37 3 15-17 15-53c-1-64 63-63 125-63 3-35-9-54-41-54-24 1-41 7-42 31l-33-3c5-37 33-52 76-52 45 0 72 20 72 64v82c-1 20 7 32 28 27v20c-31 9-61-2-59-35zM48-53c0 20 12 33 32 33 41-3 63-29 60-74-43 2-92-5-92 41" id="A"/><path d="M117-194c89-4 53 116 60 194h-32v-121c0-31-8-49-39-48C34-167 62-67 57 0H25l-1-190h30c1 10-1 24 2 32 11-22 29-35 61-36" id="B"/><g id="a"><use transform="matrix(0.24691358024691357,0,0,0.24691358024691357,0,0)" xlink:href="#u"/><use transform="matrix(0.24691358024691357,0,0,0.24691358024691357,63.95061728395061,0)" xlink:href="#v"/><use transform="matrix(0.24691358024691357,0,0,0.24691358024691357,113.33333333333333,0)" xlink:href="#w"/><use transform="matrix(0.24691358024691357,0,0,0.24691358024691357,138.02469135802468,0)" xlink:href="#x"/><use transform="matrix(0.24691358024691357,0,0,0.24691358024691357,157.53086419753086,0)" xlink:href="#y"/><use transform="matrix(0.24691358024691357,0,0,0.24691358024691357,182.22222222222223,0)" xlink:href="#x"/><use transform="matrix(0.24691358024691357,0,0,0.24691358024691357,201.7283950617284,0)" xlink:href="#z"/><use transform="matrix(0.24691358024691357,0,0,0.24691358024691357,246.17283950617286,0)" xlink:href="#A"/><use transform="matrix(0.24691358024691357,0,0,0.24691358024691357,295.5555555555556,0)" xlink:href="#w"/><use transform="matrix(0.24691358024691357,0,0,0.24691358024691357,320.24691358024694,0)" xlink:href="#x"/><use transform="matrix(0.24691358024691357,0,0,0.24691358024691357,339.7530864197531,0)" xlink:href="#v"/><use transform="matrix(0.24691358024691357,0,0,0.24691358024691357,389.13580246913585,0)" xlink:href="#B"/></g><g id="b"><use transform="matrix(0.30864197530864196,0,0,0.30864197530864196,0,0)" xlink:href="#u"/><use transform="matrix(0.30864197530864196,0,0,0.30864197530864196,79.93827160493827,0)" xlink:href="#v"/><use transform="matrix(0.30864197530864196,0,0,0.30864197530864196,141.66666666666666,0)" xlink:href="#w"/><use transform="matrix(0.30864197530864196,0,0,0.30864197530864196,172.53086419753086,0)" xlink:href="#x"/><use transform="matrix(0.30864197530864196,0,0,0.30864197530864196,196.91358024691357,0)" xlink:href="#y"/><use transform="matrix(0.30864197530864196,0,0,0.30864197530864196,227.77777777777777,0)" xlink:href="#x"/><use transform="matrix(0.30864197530864196,0,0,0.30864197530864196,252.16049382716048,0)" xlink:href="#z"/><use transform="matrix(0.30864197530864196,0,0,0.30864197530864196,307.71604938271605,0)" xlink:href="#A"/><use transform="matrix(0.30864197530864196,0,0,0.30864197530864196,369.4444444444444,0)" xlink:href="#w"/><use transform="matrix(0.30864197530864196,0,0,0.30864197530864196,400.3086419753087,0)" xlink:href="#x"/><use transform="matrix(0.30864197530864196,0,0,0.30864197530864196,424.6913580246914,0)" xlink:href="#v"/><use transform="matrix(0.30864197530864196,0,0,0.30864197530864196,486.4197530864198,0)" xlink:href="#B"/></g><path d="M84 4C-5 8 30-112 23-190h32v120c0 31 7 50 39 49 72-2 45-101 50-169h31l1 190h-30c-1-10 1-25-2-33-11 22-28 36-60 37" id="C"/><path d="M177-190C167-65 218 103 67 71c-23-6-38-20-44-43l32-5c15 47 100 32 89-28v-30C133-14 115 1 83 1 29 1 15-40 15-95c0-56 16-97 71-98 29-1 48 16 59 35 1-10 0-23 2-32h30zM94-22c36 0 50-32 50-73 0-42-14-75-50-75-39 0-46 34-46 75s6 73 46 73" id="D"/><g id="c"><use transform="matrix(0.0925925925925926,0,0,0.0925925925925926,0,0)" xlink:href="#v"/><use transform="matrix(0.0925925925925926,0,0,0.0925925925925926,18.51851851851852,0)" xlink:href="#C"/><use transform="matrix(0.0925925925925926,0,0,0.0925925925925926,37.03703703703704,0)" xlink:href="#w"/><use transform="matrix(0.0925925925925926,0,0,0.0925925925925926,46.2962962962963,0)" xlink:href="#D"/><use transform="matrix(0.0925925925925926,0,0,0.0925925925925926,64.81481481481481,0)" xlink:href="#v"/><use transform="matrix(0.0925925925925926,0,0,0.0925925925925926,83.33333333333333,0)" xlink:href="#x"/><use transform="matrix(0.0925925925925926,0,0,0.0925925925925926,90.64814814814814,0)" xlink:href="#B"/><use transform="matrix(0.0925925925925926,0,0,0.0925925925925926,109.16666666666666,0)" xlink:href="#D"/></g><g id="d"><use transform="matrix(0.0925925925925926,0,0,0.0925925925925926,0,0)" xlink:href="#B"/><use transform="matrix(0.0925925925925926,0,0,0.0925925925925926,18.51851851851852,0)" xlink:href="#v"/><use transform="matrix(0.0925925925925926,0,0,0.0925925925925926,37.03703703703704,0)" xlink:href="#w"/><use transform="matrix(0.0925925925925926,0,0,0.0925925925925926,46.2962962962963,0)" xlink:href="#x"/><use transform="matrix(0.0925925925925926,0,0,0.0925925925925926,53.611111111111114,0)" xlink:href="#y"/><use transform="matrix(0.0925925925925926,0,0,0.0925925925925926,62.870370370370374,0)" xlink:href="#x"/><use transform="matrix(0.0925925925925926,0,0,0.0925925925925926,70.18518518518519,0)" xlink:href="#z"/><use transform="matrix(0.0925925925925926,0,0,0.0925925925925926,86.85185185185186,0)" xlink:href="#A"/><use transform="matrix(0.0925925925925926,0,0,0.0925925925925926,105.37037037037038,0)" xlink:href="#w"/><use transform="matrix(0.0925925925925926,0,0,0.0925925925925926,114.62962962962965,0)" xlink:href="#x"/><use transform="matrix(0.0925925925925926,0,0,0.0925925925925926,121.94444444444446,0)" xlink:href="#v"/><use transform="matrix(0.0925925925925926,0,0,0.0925925925925926,140.462962962963,0)" xlink:href="#B"/></g><path d="M145-31C134-9 116 4 85 4 32 4 16-35 15-94c0-59 17-99 70-100 32-1 48 14 60 33 0-11-1-24 2-32h30l-1 268h-32zM93-21c41 0 51-33 51-76s-8-73-50-73c-40 0-46 35-46 75s5 74 45 74" id="E"/><path d="M100-194c63 0 86 42 84 106H49c0 40 14 67 53 68 26 1 43-12 49-29l28 8c-11 28-37 45-77 45C44 4 14-33 15-96c1-61 26-98 85-98zm52 81c6-60-76-77-97-28-3 7-6 17-6 28h103" id="F"/><g id="e"><use transform="matrix(0.0925925925925926,0,0,0.0925925925925926,0,0)" xlink:href="#E"/><use transform="matrix(0.0925925925925926,0,0,0.0925925925925926,18.51851851851852,0)" xlink:href="#C"/><use transform="matrix(0.0925925925925926,0,0,0.0925925925925926,37.03703703703704,0)" xlink:href="#F"/><use transform="matrix(0.0925925925925926,0,0,0.0925925925925926,55.555555555555564,0)" xlink:href="#C"/><use transform="matrix(0.0925925925925926,0,0,0.0925925925925926,74.07407407407408,0)" xlink:href="#F"/></g><path d="M127-220V0H93v-220H8v-28h204v28h-85" id="G"/><path d="M115-194c55 1 70 41 70 98S169 2 115 4C84 4 66-9 55-30l1 105H24l-1-265h31l2 30c10-21 28-34 59-34zm-8 174c40 0 45-34 45-75s-6-73-45-74c-42 0-51 32-51 76 0 43 10 73 51 73" id="H"/><path d="M135-143c-3-34-86-38-87 0 15 53 115 12 119 90S17 21 10-45l28-5c4 36 97 45 98 0-10-56-113-15-118-90-4-57 82-63 122-42 12 7 21 19 24 35" id="I"/><g id="f"><use transform="matrix(0.0925925925925926,0,0,0.0925925925925926,0,0)" xlink:href="#G"/><use transform="matrix(0.0925925925925926,0,0,0.0925925925925926,16.574074074074076,0)" xlink:href="#v"/><use transform="matrix(0.0925925925925926,0,0,0.0925925925925926,35.092592592592595,0)" xlink:href="#H"/><use transform="matrix(0.0925925925925926,0,0,0.0925925925925926,53.611111111111114,0)" xlink:href="#x"/><use transform="matrix(0.0925925925925926,0,0,0.0925925925925926,60.92592592592593,0)" xlink:href="#z"/><use transform="matrix(0.0925925925925926,0,0,0.0925925925925926,77.5925925925926,0)" xlink:href="#I"/></g><path d="M185-189c-5-48-123-54-124 2 14 75 158 14 163 119 3 78-121 87-175 55-17-10-28-26-33-46l33-7c5 56 141 63 141-1 0-78-155-14-162-118-5-82 145-84 179-34 5 7 8 16 11 25" id="J"/><path d="M115-194c53 0 69 39 70 98 0 66-23 100-70 100C84 3 66-7 56-30L54 0H23l1-261h32v101c10-23 28-34 59-34zm-8 174c40 0 45-34 45-75 0-40-5-75-45-74-42 0-51 32-51 76 0 43 10 73 51 73" id="K"/><path d="M114-163C36-179 61-72 57 0H25l-1-190h30c1 12-1 29 2 39 6-27 23-49 58-41v29" id="L"/><g id="g"><use transform="matrix(0.0925925925925926,0,0,0.0925925925925926,0,0)" xlink:href="#J"/><use transform="matrix(0.0925925925925926,0,0,0.0925925925925926,22.222222222222225,0)" xlink:href="#C"/><use transform="matrix(0.0925925925925926,0,0,0.0925925925925926,40.74074074074075,0)" xlink:href="#K"/><use transform="matrix(0.0925925925925926,0,0,0.0925925925925926,59.25925925925927,0)" xlink:href="#I"/><use transform="matrix(0.0925925925925926,0,0,0.0925925925925926,75.92592592592594,0)" xlink:href="#z"/><use transform="matrix(0.0925925925925926,0,0,0.0925925925925926,92.59259259259261,0)" xlink:href="#L"/><use transform="matrix(0.0925925925925926,0,0,0.0925925925925926,103.61111111111111,0)" xlink:href="#x"/><use transform="matrix(0.0925925925925926,0,0,0.0925925925925926,110.92592592592594,0)" xlink:href="#K"/><use transform="matrix(0.0925925925925926,0,0,0.0925925925925926,129.44444444444446,0)" xlink:href="#F"/><use transform="matrix(0.0925925925925926,0,0,0.0925925925925926,147.962962962963,0)" xlink:href="#L"/><use transform="matrix(0.0925925925925926,0,0,0.0925925925925926,158.98148148148152,0)" xlink:href="#I"/></g><path d="M106-169C34-169 62-67 57 0H25v-261h32l-1 103c12-21 28-36 61-36 89 0 53 116 60 194h-32v-121c2-32-8-49-39-48" id="M"/><g id="h"><use transform="matrix(0.0925925925925926,0,0,0.0925925925925926,0,0)" xlink:href="#I"/><use transform="matrix(0.0925925925925926,0,0,0.0925925925925926,16.666666666666668,0)" xlink:href="#M"/><use transform="matrix(0.0925925925925926,0,0,0.0925925925925926,35.18518518518519,0)" xlink:href="#v"/><use transform="matrix(0.0925925925925926,0,0,0.0925925925925926,53.70370370370371,0)" xlink:href="#L"/><use transform="matrix(0.0925925925925926,0,0,0.0925925925925926,64.72222222222223,0)" xlink:href="#w"/></g><path d="M210-169c-67 3-38 105-44 169h-31v-121c0-29-5-50-35-48C34-165 62-65 56 0H25l-1-190h30c1 10-1 24 2 32 10-44 99-50 107 0 11-21 27-35 58-36 85-2 47 119 55 194h-31v-121c0-29-5-49-35-48" id="N"/><g id="i"><use transform="matrix(0.0925925925925926,0,0,0.0925925925925926,0,0)" xlink:href="#w"/><use transform="matrix(0.0925925925925926,0,0,0.0925925925925926,9.25925925925926,0)" xlink:href="#F"/><use transform="matrix(0.0925925925925926,0,0,0.0925925925925926,27.777777777777782,0)" xlink:href="#L"/><use transform="matrix(0.0925925925925926,0,0,0.0925925925925926,38.7962962962963,0)" xlink:href="#N"/></g><g id="j"><use transform="matrix(0.0925925925925926,0,0,0.0925925925925926,0,0)" xlink:href="#I"/><use transform="matrix(0.0925925925925926,0,0,0.0925925925925926,16.666666666666668,0)" xlink:href="#w"/><use transform="matrix(0.0925925925925926,0,0,0.0925925925925926,25.925925925925927,0)" xlink:href="#v"/><use transform="matrix(0.0925925925925926,0,0,0.0925925925925926,44.44444444444444,0)" xlink:href="#L"/><use transform="matrix(0.0925925925925926,0,0,0.0925925925925926,55.462962962962955,0)" xlink:href="#A"/><use transform="matrix(0.0925925925925926,0,0,0.0925925925925926,73.98148148148148,0)" xlink:href="#D"/><use transform="matrix(0.0925925925925926,0,0,0.0925925925925926,92.5,0)" xlink:href="#F"/></g><path d="M85-194c31 0 48 13 60 33l-1-100h32l1 261h-30c-2-10 0-23-3-31C134-8 116 4 85 4 32 4 16-35 15-94c0-66 23-100 70-100zm9 24c-40 0-46 34-46 75 0 40 6 74 45 74 42 0 51-32 51-76 0-42-9-74-50-73" id="O"/><g id="k"><use transform="matrix(0.0925925925925926,0,0,0.0925925925925926,0,0)" xlink:href="#J"/><use transform="matrix(0.0925925925925926,0,0,0.0925925925925926,22.222222222222225,0)" xlink:href="#F"/><use transform="matrix(0.0925925925925926,0,0,0.0925925925925926,40.74074074074075,0)" xlink:href="#B"/><use transform="matrix(0.0925925925925926,0,0,0.0925925925925926,59.25925925925927,0)" xlink:href="#O"/><use transform="matrix(0.0925925925925926,0,0,0.0925925925925926,77.77777777777779,0)" xlink:href="#F"/><use transform="matrix(0.0925925925925926,0,0,0.0925925925925926,96.2962962962963,0)" xlink:href="#L"/></g><g id="l"><use transform="matrix(0.0925925925925926,0,0,0.0925925925925926,0,0)" xlink:href="#x"/><use transform="matrix(0.0925925925925926,0,0,0.0925925925925926,7.314814814814816,0)" xlink:href="#B"/></g><path d="M179-190L93 31C79 59 56 82 12 73V49c39 6 53-20 64-50L1-190h34L92-34l54-156h33" id="P"/><g id="m"><use transform="matrix(0.0925925925925926,0,0,0.0925925925925926,0,0)" xlink:href="#N"/><use transform="matrix(0.0925925925925926,0,0,0.0925925925925926,27.685185185185187,0)" xlink:href="#F"/><use transform="matrix(0.0925925925925926,0,0,0.0925925925925926,46.20370370370371,0)" xlink:href="#N"/><use transform="matrix(0.0925925925925926,0,0,0.0925925925925926,73.8888888888889,0)" xlink:href="#v"/><use transform="matrix(0.0925925925925926,0,0,0.0925925925925926,92.40740740740742,0)" xlink:href="#L"/><use transform="matrix(0.0925925925925926,0,0,0.0925925925925926,103.42592592592594,0)" xlink:href="#P"/></g><g id="n"><use transform="matrix(0.0925925925925926,0,0,0.0925925925925926,0,0)" xlink:href="#I"/><use transform="matrix(0.0925925925925926,0,0,0.0925925925925926,16.666666666666668,0)" xlink:href="#w"/><use transform="matrix(0.0925925925925926,0,0,0.0925925925925926,25.925925925925927,0)" xlink:href="#v"/><use transform="matrix(0.0925925925925926,0,0,0.0925925925925926,44.44444444444444,0)" xlink:href="#L"/><use transform="matrix(0.0925925925925926,0,0,0.0925925925925926,55.462962962962955,0)" xlink:href="#A"/><use transform="matrix(0.0925925925925926,0,0,0.0925925925925926,73.98148148148148,0)" xlink:href="#D"/><use transform="matrix(0.0925925925925926,0,0,0.0925925925925926,92.5,0)" xlink:href="#F"/></g><path fill="#333" d="M169-182c-1-43-94-46-97-3 18 66 151 10 154 114 3 95-165 93-204 36-6-8-10-19-12-30l50-8c3 46 112 56 116 5-17-69-150-10-154-114-4-87 153-88 188-35 5 8 8 18 10 28" id="Q"/><path fill="#333" d="M85 4C-2 5 27-109 22-190h50c7 57-23 150 33 157 60-5 35-97 40-157h50l1 190h-47c-2-12 1-28-3-38-12 25-28 42-61 42" id="R"/><path fill="#333" d="M135-194c52 0 70 43 70 98 0 56-19 99-73 100-30 1-46-15-58-35L72 0H24l1-261h50v104c11-23 29-37 60-37zM114-30c31 0 40-27 40-66 0-37-7-63-39-63s-41 28-41 65c0 36 8 64 40 64" id="S"/><path fill="#333" d="M137-138c1-29-70-34-71-4 15 46 118 7 119 86 1 83-164 76-172 9l43-7c4 19 20 25 44 25 33 8 57-30 24-41C81-84 22-81 20-136c-2-80 154-74 161-7" id="T"/><path fill="#333" d="M190-63c-7 42-38 67-86 67-59 0-84-38-90-98-12-110 154-137 174-36l-49 2c-2-19-15-32-35-32-30 0-35 28-38 64-6 74 65 87 74 30" id="U"/><path fill="#333" d="M135-150c-39-12-60 13-60 57V0H25l-1-190h47c2 13-1 29 3 40 6-28 27-53 61-41v41" id="V"/><path fill="#333" d="M25-224v-37h50v37H25zM25 0v-190h50V0H25" id="W"/><path fill="#333" d="M185-48c-13 30-37 53-82 52C43 2 14-33 14-96s30-98 90-98c62 0 83 45 84 108H66c0 31 8 55 39 56 18 0 30-7 34-22zm-45-69c5-46-57-63-70-21-2 6-4 13-4 21h74" id="X"/><g id="o"><use transform="matrix(0.0925925925925926,0,0,0.0925925925925926,0,0)" xlink:href="#Q"/><use transform="matrix(0.0925925925925926,0,0,0.0925925925925926,22.222222222222225,0)" xlink:href="#R"/><use transform="matrix(0.0925925925925926,0,0,0.0925925925925926,42.5,0)" xlink:href="#S"/><use transform="matrix(0.0925925925925926,0,0,0.0925925925925926,62.777777777777786,0)" xlink:href="#T"/><use transform="matrix(0.0925925925925926,0,0,0.0925925925925926,81.2962962962963,0)" xlink:href="#U"/><use transform="matrix(0.0925925925925926,0,0,0.0925925925925926,99.81481481481482,0)" xlink:href="#V"/><use transform="matrix(0.0925925925925926,0,0,0.0925925925925926,112.77777777777779,0)" xlink:href="#W"/><use transform="matrix(0.0925925925925926,0,0,0.0925925925925926,122.03703703703705,0)" xlink:href="#S"/><use transform="matrix(0.0925925925925926,0,0,0.0925925925925926,142.3148148148148,0)" xlink:href="#X"/><use transform="matrix(0.0925925925925926,0,0,0.0925925925925926,160.83333333333331,0)" xlink:href="#V"/></g><path fill="#333" d="M135-194c87-1 58 113 63 194h-50c-7-57 23-157-34-157-59 0-34 97-39 157H25l-1-190h47c2 12-1 28 3 38 12-26 28-41 61-42" id="Y"/><path fill="#333" d="M121-226c-27-7-43 5-38 36h38v33H83V0H34v-157H6v-33h28c-9-59 32-81 87-68v32" id="Z"/><path fill="#333" d="M110-194c64 0 96 36 96 99 0 64-35 99-97 99-61 0-95-36-95-99 0-62 34-99 96-99zm-1 164c35 0 45-28 45-65 0-40-10-65-43-65-34 0-45 26-45 65 0 36 10 65 43 65" id="aa"/><g id="p"><use transform="matrix(0.0925925925925926,0,0,0.0925925925925926,0,0)" xlink:href="#W"/><use transform="matrix(0.0925925925925926,0,0,0.0925925925925926,9.25925925925926,0)" xlink:href="#Y"/><use transform="matrix(0.0925925925925926,0,0,0.0925925925925926,29.537037037037038,0)" xlink:href="#Z"/><use transform="matrix(0.0925925925925926,0,0,0.0925925925925926,40.55555555555556,0)" xlink:href="#aa"/></g><path fill="#333" d="M136-208V0H84v-208H4v-40h212v40h-80" id="ab"/><path fill="#333" d="M135-194c53 0 70 44 70 98 0 56-19 98-73 100-31 1-45-17-59-34 3 33 2 69 2 105H25l-1-265h48c2 10 0 23 3 31 11-24 29-35 60-35zM114-30c33 0 39-31 40-66 0-38-9-64-40-64-56 0-55 130 0 130" id="ac"/><g id="q"><use transform="matrix(0.0925925925925926,0,0,0.0925925925925926,0,0)" xlink:href="#ab"/><use transform="matrix(0.0925925925925926,0,0,0.0925925925925926,17.77777777777778,0)" xlink:href="#aa"/><use transform="matrix(0.0925925925925926,0,0,0.0925925925925926,38.05555555555556,0)" xlink:href="#ac"/><use transform="matrix(0.0925925925925926,0,0,0.0925925925925926,58.333333333333336,0)" xlink:href="#W"/><use transform="matrix(0.0925925925925926,0,0,0.0925925925925926,67.5925925925926,0)" xlink:href="#U"/><use transform="matrix(0.0925925925925926,0,0,0.0925925925925926,86.11111111111111,0)" xlink:href="#T"/></g><path d="M205 0l-28-72H64L36 0H1l101-248h38L239 0h-34zm-38-99l-47-123c-12 45-31 82-46 123h93" id="ad"/><path d="M30-248c87 1 191-15 191 75 0 78-77 80-158 76V0H30v-248zm33 125c57 0 124 11 124-50 0-59-68-47-124-48v98" id="ae"/><path d="M33 0v-248h34V0H33" id="af"/><g id="r"><use transform="matrix(0.0925925925925926,0,0,0.0925925925925926,0,0)" xlink:href="#ad"/><use transform="matrix(0.0925925925925926,0,0,0.0925925925925926,22.222222222222225,0)" xlink:href="#ae"/><use transform="matrix(0.0925925925925926,0,0,0.0925925925925926,44.44444444444445,0)" xlink:href="#af"/></g><path d="M0 4l72-265h28L28 4H0" id="ag"/><path d="M24 0v-261h32V0H24" id="ah"/><g id="s"><use transform="matrix(0.0925925925925926,0,0,0.0925925925925926,0,0)" xlink:href="#I"/><use transform="matrix(0.0925925925925926,0,0,0.0925925925925926,16.666666666666668,0)" xlink:href="#C"/><use transform="matrix(0.0925925925925926,0,0,0.0925925925925926,35.18518518518519,0)" xlink:href="#K"/><use transform="matrix(0.0925925925925926,0,0,0.0925925925925926,53.70370370370371,0)" xlink:href="#I"/><use transform="matrix(0.0925925925925926,0,0,0.0925925925925926,70.37037037037038,0)" xlink:href="#z"/><use transform="matrix(0.0925925925925926,0,0,0.0925925925925926,87.03703703703705,0)" xlink:href="#L"/><use transform="matrix(0.0925925925925926,0,0,0.0925925925925926,98.05555555555557,0)" xlink:href="#x"/><use transform="matrix(0.0925925925925926,0,0,0.0925925925925926,105.37037037037038,0)" xlink:href="#K"/><use transform="matrix(0.0925925925925926,0,0,0.0925925925925926,123.8888888888889,0)" xlink:href="#F"/><use transform="matrix(0.0925925925925926,0,0,0.0925925925925926,142.40740740740742,0)" xlink:href="#ag"/><use transform="matrix(0.0925925925925926,0,0,0.0925925925925926,151.66666666666669,0)" xlink:href="#H"/><use transform="matrix(0.0925925925925926,0,0,0.0925925925925926,170.18518518518522,0)" xlink:href="#C"/><use transform="matrix(0.0925925925925926,0,0,0.0925925925925926,188.70370370370375,0)" xlink:href="#K"/><use transform="matrix(0.0925925925925926,0,0,0.0925925925925926,207.22222222222229,0)" xlink:href="#ah"/><use transform="matrix(0.0925925925925926,0,0,0.0925925925925926,214.5370370370371,0)" xlink:href="#x"/><use transform="matrix(0.0925925925925926,0,0,0.0925925925925926,221.8518518518519,0)" xlink:href="#I"/><use transform="matrix(0.0925925925925926,0,0,0.0925925925925926,238.51851851851853,0)" xlink:href="#M"/><use transform="matrix(0.0925925925925926,0,0,0.0925925925925926,257.03703703703707,0)" xlink:href="#ag"/><use transform="matrix(0.0925925925925926,0,0,0.0925925925925926,266.2962962962963,0)" xlink:href="#z"/><use transform="matrix(0.0925925925925926,0,0,0.0925925925925926,282.962962962963,0)" xlink:href="#L"/><use transform="matrix(0.0925925925925926,0,0,0.0925925925925926,293.9814814814815,0)" xlink:href="#F"/><use transform="matrix(0.0925925925925926,0,0,0.0925925925925926,312.50000000000006,0)" xlink:href="#A"/><use transform="matrix(0.0925925925925926,0,0,0.0925925925925926,331.0185185185186,0)" xlink:href="#w"/><use transform="matrix(0.0925925925925926,0,0,0.0925925925925926,340.2777777777778,0)" xlink:href="#F"/></g><g id="t"><use transform="matrix(0.0925925925925926,0,0,0.0925925925925926,0,0)" xlink:href="#w"/><use transform="matrix(0.0925925925925926,0,0,0.0925925925925926,9.25925925925926,0)" xlink:href="#v"/><use transform="matrix(0.0925925925925926,0,0,0.0925925925925926,27.777777777777782,0)" xlink:href="#H"/><use transform="matrix(0.0925925925925926,0,0,0.0925925925925926,46.2962962962963,0)" xlink:href="#x"/><use transform="matrix(0.0925925925925926,0,0,0.0925925925925926,53.611111111111114,0)" xlink:href="#z"/><use transform="matrix(0.0925925925925926,0,0,0.0925925925925926,70.27777777777779,0)" xlink:href="#I"/></g></defs></g></svg>