<svg xmlns="http://www.w3.org/2000/svg" xmlns:xlink="http://www.w3.org/1999/xlink" xmlns:lucid="lucid" width="3476.05" height="2518"><g transform="translate(-14320 -14816.666666666666)" lucid:page-tab-id="2nhKjSC9~bUf"><path d="M14000 14500h4000v3000h-4000z" fill="#fff"/><path d="M15000 14842.67c0-3.32 2.7-6 6-6h768c3.3 0 6 2.68 6 6v548c0 3.3-2.7 6-6 6h-768c-3.3 0-6-2.7-6-6z" stroke="#000" fill="#e5e5e5"/><use xlink:href="#a" transform="matrix(1,0,0,1,15012,14848.666666666666) translate(45.74691358024688 289.8888888888889)"/><path d="M15520 15846c0-3.3 2.7-6 6-6h2240.5c3.3 0 6 2.7 6 6v1068c0 3.3-2.7 6-6 6H15526c-3.3 0-6-2.7-6-6z" stroke="#000" stroke-width="9" fill="#fff" fill-opacity="0"/><use xlink:href="#b" transform="matrix(1,0,0,1,15525,15845) translate(0 71.11111111111111)"/><path d="M14340 15875.27c0-3.32 2.7-6 6-6h728c3.3 0 6 2.68 6 6v208c0 3.3-2.7 6-6 6h-728c-3.3 0-6-2.7-6-6z" stroke="#000" stroke-width="9" fill="#fff" fill-opacity="0"/><use xlink:href="#c" transform="matrix(1,0,0,1,14345,15874.268182166255) translate(286.3333333333334 115.29820261437902)"/><path d="M15228 15925.9h-141v-5h141zm262.64 0H15372v-5h118.64z" fill="#5e5e5e"/><path d="M15087.07 15925.9h-2.57v-5h2.57zM15507.4 15923.4l-14.26 4.65v-9.27z" fill="#5e5e5e"/><path d="M15515.5 15923.4l-24.86 8.1v-16.16zm-19.86 1.2l3.68-1.2-3.68-1.18z" fill="#5e5e5e"/><use xlink:href="#d" transform="matrix(1,0,0,1,15228.012491726935,15883.4136394963) translate(0.0049999999999954525 26.66666666666667)"/><use xlink:href="#e" transform="matrix(1,0,0,1,15228.012491726935,15883.4136394963) translate(31.254999999999995 66.66666666666669)"/><path d="M15490.76 16045.76l-.2 5-86.2-3.36v-5zm-295.02-10.98v5l-108.78-2 .1-5z" fill="#5e5e5e"/><path d="M15087.12 16032.8l-.1 5-2.52-.06v-5zM15507.42 16048.9l-14.44 4.08.36-9.26z" fill="#5e5e5e"/><path d="M15515.5 16049.22l-25.15 7.1.63-16.14zm-19.9.42l3.73-1.05-3.62-1.35z" fill="#5e5e5e"/><use xlink:href="#f" transform="matrix(1,0,0,1,15195.737379844431,16000.841403315097) translate(34.958703703703705 26.66666666666667)"/><use xlink:href="#g" transform="matrix(1,0,0,1,15195.737379844431,16000.841403315097) translate(0.0049999999999954525 66.66666666666669)"/><path d="M15760 16367c0-3.32 2.7-6 6-6h368c3.3 0 6 2.68 6 6v176.7c0 3.3-2.7 6-6 6h-368c-3.3 0-6-2.7-6-6z" stroke="#000" stroke-width="9" fill="#fff" fill-opacity="0"/><use xlink:href="#h" transform="matrix(1,0,0,1,15765,16365.992419899669) translate(15.179557007988592 100.01695261437902)"/><use xlink:href="#i" transform="matrix(1,0,0,1,15765,16365.992419899669) translate(166.613834422658 100.01695261437902)"/><path d="M16360 16085.3c0-3.32 2.7-6 6-6h368c3.3 0 6 2.68 6 6v148.7c0 3.3-2.7 6-6 6h-368c-3.3 0-6-2.7-6-6z" stroke="#000" stroke-width="9" fill="#fff" fill-opacity="0"/><use xlink:href="#j" transform="matrix(1,0,0,1,16365,16084.298287862268) translate(82.1866376180103 49.67320261437903)"/><use xlink:href="#k" transform="matrix(1,0,0,1,16365,16084.298287862268) translate(47.777596223674806 124.18300653594758)"/><path d="M16360 16372.5c0-3.3 2.7-6 6-6h368c3.3 0 6 2.7 6 6v176.36c0 3.32-2.7 6-6 6h-368c-3.3 0-6-2.68-6-6z" stroke="#000" stroke-width="9" fill="#fff" fill-opacity="0"/><use xlink:href="#l" transform="matrix(1,0,0,1,16365,16371.511123902634) translate(28.71895424836623 66.45445261437902)"/><use xlink:href="#k" transform="matrix(1,0,0,1,16365,16371.511123902634) translate(47.777596223674806 140.96425653594758)"/><path d="M16360 16649.3c0-3.32 2.7-6 6-6h368c3.3 0 6 2.68 6 6v164.7c0 3.3-2.7 6-6 6h-368c-3.3 0-6-2.7-6-6z" stroke="#000" stroke-width="9" fill="#fff" fill-opacity="0"/><use xlink:href="#l" transform="matrix(1,0,0,1,16365,16648.29828786227) translate(28.71895424836623 60.11070261437903)"/><use xlink:href="#k" transform="matrix(1,0,0,1,16365,16648.29828786227) translate(47.777596223674806 134.62050653594758)"/><path d="M16353 16159.7h-.3l-2.7.18-2.65.28-2.58.38-2.53.48-2.5.58-2.45.7-2.46.8-2.44.9-2.44 1.02-2.46 1.16-2.48 1.3-2.52 1.45-2.56 1.63-2.63 1.82-2.7 2.05-2.78 2.3-2.9 2.63-3.05 3-3.22 3.42-3.43 3.98-3.7 4.67-4.04 5.56-4.5 6.78-5.17 8.54-6.22 11.37-8.4 17-42.76 94.6-6.23 11.38-5.18 8.54-4.5 6.8-4.04 5.56-3.7 4.66-3.43 3.98-3.22 3.43-3.04 3-2.92 2.6-2.8 2.32-2.7 2.05-2.62 1.82-2.56 1.63-2.52 1.45-2.48 1.3-2.46 1.16-1.32.56" stroke="#5e5e5e" stroke-width="5" fill="none"/><path d="M16355.5 16162.15l-2.5.05-.12-5 2.62-.05z" fill="#5e5e5e"/><path d="M16152.43 16403.77l13.1-7.32 1.8 9.1z" stroke="#5e5e5e" stroke-width="5" fill="#5e5e5e"/><path d="M16353 16460.7h-183.64" stroke="#5e5e5e" stroke-width="5" fill="none"/><path d="M16355.5 16463.2h-2.57v-5h2.57z" fill="#5e5e5e"/><path d="M16152.6 16460.7l14.26-4.65v9.27z" stroke="#5e5e5e" stroke-width="5" fill="#5e5e5e"/><path d="M16353 16731.6l-.67-.02-3.06-.2-2.96-.3-2.87-.43-2.82-.53-2.75-.65-2.72-.76-2.7-.87-2.68-1-2.68-1.12-2.68-1.25-2.7-1.42-2.75-1.58-2.78-1.76-2.84-2-2.92-2.2-3-2.5-3.16-2.84-3.3-3.24-3.5-3.73-3.75-4.36-4.1-5.15-4.5-6.24-5.2-7.82-6.27-10.38-8.67-15.84-38.6-75.8-6.26-10.4-5.2-7.8-4.5-6.25-4.1-5.15-3.74-4.35-3.5-3.72-3.3-3.24-3.15-2.83-3-2.5-2.93-2.22-2.84-1.97-2.78-1.77-2.74-1.57-2.7-1.4-2.67-1.27-2.68-1.13-1.4-.52" stroke="#5e5e5e" stroke-width="5" fill="none"/><path d="M16355.5 16729.15v5l-2.62-.05.1-5z" fill="#5e5e5e"/><path d="M16152.47 16516.62l14.85-2.1-1.6 9.14z" stroke="#5e5e5e" stroke-width="5" fill="#5e5e5e"/><path d="M15600 15986c0-3.3 2.7-6 6-6h1208c3.3 0 6 2.7 6 6v871.3c0 3.3-2.7 6-6 6h-1208c-3.3 0-6-2.7-6-6z" stroke="#000" stroke-width="9" fill="#fff" fill-opacity="0"/><use xlink:href="#m" transform="matrix(1,0,0,1,15605,15985.000000000002) translate(0 71.11111111111111)"/><path d="M16900 15986c0-3.3 2.7-6 6-6h768c3.3 0 6 2.7 6 6v871.3c0 3.3-2.7 6-6 6h-768c-3.3 0-6-2.7-6-6z" stroke="#000" stroke-width="9" fill="#fff" fill-opacity="0"/><use xlink:href="#n" transform="matrix(1,0,0,1,16905,15985.000000000002) translate(0 71.11111111111111)"/><path d="M17040 16108.75c0-3.32 2.7-6 6-6h528c3.3 0 6 2.68 6 6v221.52c0 3.32-2.7 6-6 6h-528c-3.3 0-6-2.68-6-6z" stroke="#000" stroke-width="9" fill="#fff" fill-opacity="0"/><use xlink:href="#o" transform="matrix(1,0,0,1,17045,16107.745098039215) translate(124.50054466230955 49.67320261437903)"/><use xlink:href="#p" transform="matrix(1,0,0,1,17045,16107.745098039215) translate(306.63562091503263 49.67320261437903)"/><use xlink:href="#q" transform="matrix(1,0,0,1,17045,16107.745098039215) translate(117.51525054466248 124.18300653594758)"/><use xlink:href="#r" transform="matrix(1,0,0,1,17045,16107.745098039215) translate(145.1114742193175 198.69281045751612)"/><path d="M17040 16464.67c0-3.3 2.7-6 6-6h528c3.3 0 6 2.7 6 6v147.02c0 3.3-2.7 6-6 6h-528c-3.3 0-6-2.7-6-6z" stroke="#000" stroke-width="9" fill="#fff" fill-opacity="0"/><use xlink:href="#s" transform="matrix(1,0,0,1,17045,16463.669306628795) translate(22.48075526506929 49.67320261437903)"/><use xlink:href="#t" transform="matrix(1,0,0,1,17045,16463.669306628795) translate(263.7752360203341 49.67320261437903)"/><use xlink:href="#r" transform="matrix(1,0,0,1,17045,16463.669306628795) translate(145.1114742193175 124.18300653594758)"/><path d="M15540 17044c0-3.3 2.7-6 6-6h1128c3.3 0 6 2.7 6 6v264.67c0 3.3-2.7 6-6 6h-1128c-3.3 0-6-2.7-6-6z" stroke="#000" stroke-opacity="0" stroke-width="3" fill="#fff" fill-opacity="0"/><g><use xlink:href="#u" transform="matrix(1,0,0,1,15545,17043.000000000004) translate(207.8395061728395 96.14236111111111)"/><use xlink:href="#v" transform="matrix(1,0,0,1,15545,17043.000000000004) translate(690.5555555555557 96.14236111111111)"/><use xlink:href="#w" transform="matrix(1,0,0,1,15545,17043.000000000004) translate(897.4691358024692 96.14236111111111)"/><use xlink:href="#x" transform="matrix(1,0,0,1,15545,17043.000000000004) translate(148.08641975308637 202.8090277777778)"/><use xlink:href="#y" transform="matrix(1,0,0,1,15545,17043.000000000004) translate(656.7283950617284 202.8090277777778)"/></g><path d="M15499.7 15840.66l.72 1.77-.73 1.77-1.78.73-1.76-.73-.74-1.77.74-1.77 1.76-.73zm-7.05-7.04l.73 1.77-.73 1.76-1.77.73-1.76-.74-.74-1.77.74-1.78 1.76-.73zm-7.04-7.04l.74 1.77-.73 1.77-1.76.73-1.76-.73-.74-1.77.74-1.77 1.76-.73zm-7.03-7.04l.74 1.77-.73 1.78-1.76.73-1.76-.72-.73-1.77.74-1.76 1.77-.73zm-7.04-7.04l.74 1.77-.74 1.77-1.76.73-1.77-.73-.73-1.77.73-1.77 1.77-.73zm-7.04-7.04l.73 1.77-.74 1.77-1.77.73-1.77-.73-.73-1.77.73-1.77 1.77-.73zm-7.05-7.04l.74 1.77-.75 1.76-1.76.73-1.78-.74-.73-1.77.72-1.78 1.77-.73zm-7.04-7.04l.75 1.77-.74 1.77-1.75.73-1.77-.73-.73-1.77.73-1.77 1.77-.73zm-7.02-7.04l.73 1.77-.72 1.78-1.77.73-1.76-.72-.73-1.77.74-1.76 1.77-.73zm-7.04-7.04l.73 1.77-.73 1.77-1.77.73-1.77-.73-.73-1.77.73-1.77 1.77-.73zm-7.04-7.04l.73 1.77-.73 1.77-1.77.73-1.77-.73-.73-1.77.73-1.77 1.77-.73zm-7.04-7.04l.73 1.77-.74 1.76-1.77.73-1.78-.74-.73-1.77.72-1.78 1.77-.73zm-7.04-7.04l.73 1.77-.73 1.77-1.77.73-1.77-.73-.73-1.77.73-1.77 1.77-.73zm-7.04-7.03l.73 1.76-.72 1.78-1.77.73-1.76-.72-.73-1.77.74-1.75 1.77-.74zm-7.04-7.04l.73 1.77-.73 1.77-1.77.73-1.77-.73-.73-1.77.73-1.76 1.77-.73zm-7.04-7.03l.73 1.76-.73 1.77-1.77.73-1.77-.73-.73-1.77.73-1.76 1.77-.74zm-7.04-7.04l.73 1.76-.74 1.76-1.77.73-1.78-.74-.73-1.77.72-1.77 1.77-.74zm-7.04-7.04l.73 1.75-.73 1.77-1.77.73-1.77-.73-.73-1.77.73-1.76 1.77-.75zm-7.04-7.05l.73 1.77-.72 1.76-1.77.74-1.76-.74-.73-1.76.74-1.77 1.77-.73zm-7.04-7.04l.73 1.78-.73 1.76-1.77.74-1.77-.74-.73-1.76.73-1.77 1.77-.72zm-7.04-7.03l.73 1.77-.73 1.76-1.77.74-1.77-.74-.73-1.76.73-1.77 1.77-.73zm-7.04-7.04l.73 1.77-.74 1.76-1.77.74-1.77-.74-.74-1.76.73-1.77 1.76-.73zm-7.04-7.04l.73 1.76-.73 1.76-1.77.74-1.76-.74-.75-1.76.74-1.77 1.75-.74zm-7.04-7.05l.73 1.77-.72 1.77-1.77.72-1.75-.73-.74-1.78.75-1.77 1.76-.73zm-7.04-7.04l.73 1.78-.73 1.77-1.77.73-1.76-.73-.73-1.77.74-1.77 1.77-.72zm-7.04-7.03l.73 1.77-.73 1.77-1.77.74-1.76-.73-.74-1.76.74-1.77 1.76-.73zm-7.04-7.04l.74 1.77-.74 1.77-1.76.73-1.77-.73-.73-1.77.73-1.77 1.77-.73zm-7.04-7.04l.74 1.76-.74 1.77-1.76.73-1.77-.73-.74-1.77.73-1.77 1.76-.74zm-7.04-7.05l.74 1.77-.74 1.77-1.76.72-1.77-.73-.73-1.78.73-1.77 1.77-.73zm-7.04-7.04l.74 1.78-.74 1.77-1.76.73-1.77-.73-.72-1.77.73-1.77 1.78-.72zm-7.04-7.03l.74 1.77-.74 1.77-1.76.74-1.77-.73-.73-1.76.73-1.77 1.77-.73zm-7.03-7.04l.73 1.77-.73 1.77-1.77.73-1.77-.73-.73-1.77.73-1.77 1.77-.73zm-7.04-7.04l.73 1.76-.73 1.77-1.77.73-1.77-.73-.74-1.77.73-1.77 1.76-.74zm-7.04-7.05l.72 1.77-.73 1.77-1.78.72-1.77-.73-.73-1.78.73-1.77 1.77-.73zm-7.05-7.04l.73 1.78-.73 1.77-1.77.73-1.77-.73-.72-1.77.73-1.77 1.78-.72zm-7.04-7.03l.74 1.77-.73 1.77-1.76.74-1.77-.73-.73-1.76.73-1.77 1.77-.73zm-7.03-7.03l.73 1.76-.73 1.77-1.77.73-1.77-.73-.73-1.77.73-1.76 1.77-.74zm-7.04-7.04l.73 1.76-.73 1.77-1.77.73-1.77-.73-.74-1.77.73-1.76 1.76-.74zm-7.04-7.04l.72 1.76-.73 1.77-1.78.72-1.77-.73-.73-1.78.73-1.76 1.77-.74zm-7.05-7.04l.73 1.76-.73 1.77-1.77.73-1.77-.73-.72-1.77.73-1.76 1.78-.74zm-7.04-7.04l.74 1.76-.73 1.77-1.76.74-1.77-.73-.73-1.76.73-1.76 1.77-.74zm-7.03-7.04l.73 1.77-.73 1.77-1.77.74-1.77-.73-.73-1.76.73-1.76 1.77-.73zm-7.04-7.04l.73 1.77-.73 1.76-1.77.74-1.77-.74-.74-1.76.73-1.77 1.76-.73zm-7.04-7.04l.72 1.77-.73 1.76-1.78.73-1.77-.74-.73-1.77.73-1.77 1.77-.73zm-7.05-7.04l.73 1.77-.73 1.75-1.77.74-1.76-.75-.74-1.76.74-1.78 1.76-.73zm-7.04-7.04l.74 1.77-.73 1.76-1.76.75-1.76-.74-.74-1.75.74-1.77 1.76-.73zm-7.03-7.04l.73 1.77-.73 1.77-1.77.74-1.76-.73-.74-1.76.74-1.76 1.76-.73zm-7.04-7.04l.73 1.77-.73 1.77-1.77.73-1.76-.73-.74-1.77.74-1.77 1.76-.73zm-7.04-7.04l.72 1.77-.73 1.77-1.78.73-1.76-.73-.74-1.77.74-1.77 1.76-.73zm-7.05-7.04l.74 1.77-.75 1.76-1.76.73-1.78-.74-.73-1.77.72-1.78 1.77-.73zm-7.04-7.04l.75 1.77-.74 1.77-1.75.73-1.77-.73-.73-1.77.73-1.77 1.77-.73zm-7.03-7.04l.74 1.77-.73 1.78-1.76.73-1.76-.72-.73-1.77.74-1.76 1.77-.73zm-7.04-7.04l.74 1.77-.74 1.77-1.76.73-1.77-.73-.73-1.77.73-1.77 1.77-.73zm-7.04-7.04l.73 1.77-.74 1.77-1.77.73-1.77-.73-.73-1.77.73-1.77 1.77-.73zm-7.05-7.04l.74 1.77-.75 1.76-1.76.73-1.78-.74-.73-1.77.72-1.78 1.77-.73zm-7.03-7.04l.73 1.77-.73 1.77-1.77.73-1.77-.73-.73-1.77.73-1.77 1.77-.73zm-7.04-7.04l.73 1.77-.72 1.78-1.77.73-1.76-.72-.73-1.77.74-1.76 1.77-.73zm-7.04-7.04l.73 1.77-.73 1.77-1.77.73-1.77-.73-.73-1.77.73-1.77 1.77-.73zm-7.04-7.04l.73 1.77-.73 1.77-1.77.73-1.77-.73-.73-1.77.73-1.77 1.77-.73zm-7.04-7.04l.73 1.77-.74 1.76-1.77.73-1.78-.74-.73-1.77.72-1.78 1.77-.73zm-7.04-7.03l.73 1.75-.73 1.77-1.77.73-1.77-.73-.73-1.77.73-1.76 1.77-.75zm-7.04-7.05l.73 1.76-.72 1.78-1.77.73-1.76-.72-.73-1.77.74-1.75 1.77-.74zm-7.04-7.04l.73 1.77-.73 1.77-1.77.73-1.77-.73-.73-1.77.73-1.76 1.77-.73zm-7.04-7.03l.73 1.76-.73 1.77-1.77.73-1.77-.73-.73-1.77.73-1.76 1.77-.74z" fill="#5e5e5e"/><path d="M15056.24 15397.2l-3.53 3.55-3.57-3.58h7.07zM15509.78 15854.28l-13.37-6.8 6.57-6.56z" fill="#5e5e5e"/><path d="M15515.5 15860l-23.3-11.86 11.43-11.42zm-14.88-13.2l3.44 1.76-1.76-3.44zM15785.24 14866.3c0 1.37-1.12 2.5-2.5 2.5s-2.5-1.13-2.5-2.5c0-1.4 1.12-2.5 2.5-2.5s2.5 1.1 2.5 2.5zm8.97 4.4c0 1.4-1.1 2.5-2.5 2.5-1.37 0-2.5-1.1-2.5-2.5 0-1.37 1.13-2.5 2.5-2.5 1.4 0 2.5 1.13 2.5 2.5zm8.97 4.42c0 1.38-1.12 2.5-2.5 2.5s-2.5-1.12-2.5-2.5 1.12-2.5 2.5-2.5 2.5 1.12 2.5 2.5zm8.96 4.42c0 1.38-1.12 2.5-2.5 2.5s-2.5-1.12-2.5-2.5 1.12-2.5 2.5-2.5 2.5 1.12 2.5 2.5zm8.97 4.42c0 1.38-1.12 2.5-2.5 2.5-1.4 0-2.5-1.12-2.5-2.5 0-1.4 1.1-2.5 2.5-2.5 1.38 0 2.5 1.1 2.5 2.5zm8.96 4.4c0 1.4-1.12 2.5-2.5 2.5s-2.5-1.1-2.5-2.5c0-1.37 1.12-2.5 2.5-2.5s2.5 1.13 2.5 2.5zm8.96 4.43c0 1.37-1.12 2.5-2.5 2.5s-2.5-1.13-2.5-2.5c0-1.4 1.12-2.5 2.5-2.5s2.5 1.1 2.5 2.5zm8.96 4.4c0 1.38-1.1 2.5-2.5 2.5-1.38 0-2.5-1.12-2.5-2.5s1.12-2.5 2.5-2.5c1.4 0 2.5 1.12 2.5 2.5zm8.97 4.42c0 1.38-1.12 2.5-2.5 2.5s-2.5-1.12-2.5-2.5 1.12-2.5 2.5-2.5 2.5 1.12 2.5 2.5zm8.96 4.4c0 1.4-1.1 2.5-2.5 2.5-1.37 0-2.5-1.1-2.5-2.5 0-1.37 1.13-2.5 2.5-2.5 1.4 0 2.5 1.13 2.5 2.5zm8.97 4.43c0 1.38-1.1 2.5-2.5 2.5-1.38 0-2.5-1.12-2.5-2.5s1.12-2.5 2.5-2.5c1.4 0 2.5 1.12 2.5 2.5zm8.97 4.42c0 1.38-1.12 2.5-2.5 2.5s-2.5-1.12-2.5-2.5 1.12-2.5 2.5-2.5 2.5 1.12 2.5 2.5zm8.96 4.4c0 1.4-1.12 2.5-2.5 2.5s-2.5-1.1-2.5-2.5c0-1.37 1.12-2.5 2.5-2.5s2.5 1.13 2.5 2.5zm8.96 4.43c0 1.38-1.12 2.5-2.5 2.5s-2.5-1.12-2.5-2.5 1.12-2.5 2.5-2.5 2.5 1.12 2.5 2.5zm8.97 4.4c0 1.4-1.12 2.5-2.5 2.5s-2.5-1.1-2.5-2.5c0-1.37 1.12-2.5 2.5-2.5s2.5 1.13 2.5 2.5zm8.96 4.43c0 1.38-1.13 2.5-2.5 2.5-1.4 0-2.5-1.12-2.5-2.5s1.1-2.5 2.5-2.5c1.37 0 2.5 1.12 2.5 2.5zm8.95 4.4c0 1.4-1.12 2.5-2.5 2.5s-2.5-1.1-2.5-2.5c0-1.37 1.12-2.5 2.5-2.5s2.5 1.13 2.5 2.5zm8.97 4.43c0 1.38-1.12 2.5-2.5 2.5s-2.5-1.12-2.5-2.5 1.12-2.5 2.5-2.5 2.5 1.12 2.5 2.5zm8.96 4.42c0 1.38-1.12 2.5-2.5 2.5s-2.5-1.12-2.5-2.5 1.12-2.5 2.5-2.5 2.5 1.12 2.5 2.5zm8.96 4.4c0 1.4-1.12 2.5-2.5 2.5s-2.5-1.1-2.5-2.5c0-1.37 1.12-2.5 2.5-2.5s2.5 1.13 2.5 2.5zm8.97 4.43c0 1.4-1.1 2.5-2.5 2.5-1.37 0-2.5-1.1-2.5-2.5 0-1.37 1.13-2.5 2.5-2.5 1.4 0 2.5 1.13 2.5 2.5zm8.97 4.42c0 1.38-1.12 2.5-2.5 2.5s-2.5-1.12-2.5-2.5 1.12-2.5 2.5-2.5 2.5 1.12 2.5 2.5zm8.96 4.42c0 1.38-1.12 2.5-2.5 2.5s-2.5-1.12-2.5-2.5 1.12-2.5 2.5-2.5 2.5 1.12 2.5 2.5zm8.97 4.42c0 1.38-1.12 2.5-2.5 2.5s-2.5-1.12-2.5-2.5c0-1.4 1.12-2.5 2.5-2.5s2.5 1.1 2.5 2.5zm8.96 4.4c0 1.4-1.12 2.5-2.5 2.5s-2.5-1.1-2.5-2.5c0-1.37 1.12-2.5 2.5-2.5s2.5 1.13 2.5 2.5zm8.96 4.43c0 1.37-1.12 2.5-2.5 2.5s-2.5-1.13-2.5-2.5c0-1.4 1.12-2.5 2.5-2.5s2.5 1.1 2.5 2.5zm8.97 4.4c0 1.38-1.13 2.5-2.5 2.5-1.4 0-2.5-1.12-2.5-2.5s1.1-2.5 2.5-2.5c1.37 0 2.5 1.12 2.5 2.5zm8.95 4.42c0 1.38-1.12 2.5-2.5 2.5s-2.5-1.12-2.5-2.5 1.12-2.5 2.5-2.5 2.5 1.12 2.5 2.5zm8.96 4.4c0 1.4-1.1 2.5-2.5 2.5-1.37 0-2.5-1.1-2.5-2.5 0-1.37 1.13-2.5 2.5-2.5 1.4 0 2.5 1.13 2.5 2.5zm8.98 4.43c0 1.38-1.12 2.5-2.5 2.5-1.4 0-2.5-1.12-2.5-2.5s1.1-2.5 2.5-2.5c1.38 0 2.5 1.12 2.5 2.5zm8.96 4.42c0 1.38-1.12 2.5-2.5 2.5s-2.5-1.12-2.5-2.5c0-1.4 1.12-2.5 2.5-2.5s2.5 1.1 2.5 2.5zm8.96 4.4c0 1.4-1.12 2.5-2.5 2.5s-2.5-1.1-2.5-2.5c0-1.37 1.12-2.5 2.5-2.5s2.5 1.13 2.5 2.5zm8.96 4.43c0 1.38-1.1 2.5-2.5 2.5-1.38 0-2.5-1.12-2.5-2.5s1.12-2.5 2.5-2.5c1.4 0 2.5 1.12 2.5 2.5zm8.97 4.4c0 1.4-1.12 2.5-2.5 2.5s-2.5-1.1-2.5-2.5c0-1.37 1.12-2.5 2.5-2.5s2.5 1.13 2.5 2.5zm8.96 4.43c0 1.38-1.13 2.5-2.5 2.5-1.4 0-2.5-1.12-2.5-2.5s1.1-2.5 2.5-2.5c1.37 0 2.5 1.12 2.5 2.5zm8.95 4.4c0 1.4-1.12 2.5-2.5 2.5s-2.5-1.1-2.5-2.5c0-1.37 1.12-2.5 2.5-2.5s2.5 1.13 2.5 2.5zm8.97 4.43c0 1.38-1.12 2.5-2.5 2.5s-2.5-1.12-2.5-2.5 1.12-2.5 2.5-2.5 2.5 1.12 2.5 2.5zm8.96 4.42c0 1.38-1.12 2.5-2.5 2.5s-2.5-1.12-2.5-2.5 1.12-2.5 2.5-2.5 2.5 1.12 2.5 2.5zm8.96 4.4c0 1.4-1.12 2.5-2.5 2.5s-2.5-1.1-2.5-2.5c0-1.37 1.12-2.5 2.5-2.5s2.5 1.13 2.5 2.5zm8.97 4.43c0 1.4-1.1 2.5-2.5 2.5-1.37 0-2.5-1.1-2.5-2.5 0-1.37 1.13-2.5 2.5-2.5 1.4 0 2.5 1.13 2.5 2.5zm8.97 4.42c0 1.38-1.12 2.5-2.5 2.5s-2.5-1.12-2.5-2.5 1.12-2.5 2.5-2.5 2.5 1.12 2.5 2.5zm8.96 4.42c0 1.38-1.12 2.5-2.5 2.5s-2.5-1.12-2.5-2.5 1.12-2.5 2.5-2.5 2.5 1.12 2.5 2.5zm8.97 4.4c0 1.4-1.12 2.5-2.5 2.5s-2.5-1.1-2.5-2.5c0-1.37 1.12-2.5 2.5-2.5s2.5 1.13 2.5 2.5zm8.96 4.43c0 1.38-1.12 2.5-2.5 2.5s-2.5-1.12-2.5-2.5 1.12-2.5 2.5-2.5 2.5 1.12 2.5 2.5zm8.96 4.42c0 1.37-1.12 2.5-2.5 2.5s-2.5-1.13-2.5-2.5c0-1.4 1.12-2.5 2.5-2.5s2.5 1.1 2.5 2.5zm8.97 4.4c0 1.38-1.13 2.5-2.5 2.5-1.4 0-2.5-1.12-2.5-2.5s1.1-2.5 2.5-2.5c1.37 0 2.5 1.12 2.5 2.5zm8.95 4.42c0 1.38-1.12 2.5-2.5 2.5s-2.5-1.12-2.5-2.5 1.12-2.5 2.5-2.5 2.5 1.12 2.5 2.5zm8.96 4.4c0 1.4-1.1 2.5-2.5 2.5-1.37 0-2.5-1.1-2.5-2.5 0-1.37 1.13-2.5 2.5-2.5 1.4 0 2.5 1.13 2.5 2.5zm8.98 4.43c0 1.38-1.12 2.5-2.5 2.5-1.4 0-2.5-1.12-2.5-2.5s1.1-2.5 2.5-2.5c1.38 0 2.5 1.12 2.5 2.5zm8.96 4.42c0 1.38-1.12 2.5-2.5 2.5s-2.5-1.12-2.5-2.5c0-1.4 1.12-2.5 2.5-2.5s2.5 1.1 2.5 2.5zm8.96 4.4c0 1.4-1.12 2.5-2.5 2.5s-2.5-1.1-2.5-2.5c0-1.37 1.12-2.5 2.5-2.5s2.5 1.13 2.5 2.5zm8.97 4.43c0 1.38-1.12 2.5-2.5 2.5-1.4 0-2.5-1.12-2.5-2.5s1.1-2.5 2.5-2.5c1.38 0 2.5 1.12 2.5 2.5zm8.96 4.4c0 1.4-1.12 2.5-2.5 2.5s-2.5-1.1-2.5-2.5c0-1.37 1.12-2.5 2.5-2.5s2.5 1.13 2.5 2.5zm8.96 4.43c0 1.38-1.13 2.5-2.5 2.5-1.4 0-2.5-1.12-2.5-2.5s1.1-2.5 2.5-2.5c1.37 0 2.5 1.12 2.5 2.5zm8.95 4.4c0 1.4-1.1 2.5-2.5 2.5-1.38 0-2.5-1.1-2.5-2.5 0-1.37 1.12-2.5 2.5-2.5 1.4 0 2.5 1.13 2.5 2.5zm8.97 4.43c0 1.38-1.12 2.5-2.5 2.5s-2.5-1.12-2.5-2.5 1.12-2.5 2.5-2.5 2.5 1.12 2.5 2.5zm8.96 4.42c0 1.38-1.12 2.5-2.5 2.5s-2.5-1.12-2.5-2.5 1.12-2.5 2.5-2.5 2.5 1.12 2.5 2.5zm8.96 4.4c0 1.4-1.1 2.5-2.5 2.5-1.38 0-2.5-1.1-2.5-2.5 0-1.37 1.12-2.5 2.5-2.5 1.4 0 2.5 1.13 2.5 2.5zm8.97 4.43c0 1.4-1.1 2.5-2.5 2.5-1.37 0-2.5-1.1-2.5-2.5 0-1.37 1.13-2.5 2.5-2.5 1.4 0 2.5 1.13 2.5 2.5zm8.97 4.42c0 1.38-1.12 2.5-2.5 2.5s-2.5-1.12-2.5-2.5 1.12-2.5 2.5-2.5 2.5 1.12 2.5 2.5zm8.96 4.42c0 1.38-1.12 2.5-2.5 2.5s-2.5-1.12-2.5-2.5 1.12-2.5 2.5-2.5 2.5 1.12 2.5 2.5zm8.97 4.4c0 1.4-1.12 2.5-2.5 2.5s-2.5-1.1-2.5-2.5c0-1.37 1.12-2.5 2.5-2.5s2.5 1.13 2.5 2.5zm8.96 4.43c0 1.38-1.12 2.5-2.5 2.5s-2.5-1.12-2.5-2.5 1.12-2.5 2.5-2.5 2.5 1.12 2.5 2.5zm8.96 4.42c0 1.37-1.12 2.5-2.5 2.5s-2.5-1.13-2.5-2.5c0-1.4 1.12-2.5 2.5-2.5s2.5 1.1 2.5 2.5zm8.97 4.4c0 1.38-1.13 2.5-2.5 2.5-1.4 0-2.5-1.12-2.5-2.5s1.1-2.5 2.5-2.5c1.37 0 2.5 1.12 2.5 2.5zm8.95 4.42c0 1.38-1.12 2.5-2.5 2.5s-2.5-1.12-2.5-2.5 1.12-2.5 2.5-2.5 2.5 1.12 2.5 2.5zm8.96 4.4c0 1.4-1.1 2.5-2.5 2.5-1.37 0-2.5-1.1-2.5-2.5 0-1.37 1.13-2.5 2.5-2.5 1.4 0 2.5 1.13 2.5 2.5zm8.98 4.43c0 1.38-1.12 2.5-2.5 2.5s-2.5-1.12-2.5-2.5 1.12-2.5 2.5-2.5 2.5 1.12 2.5 2.5zm8.96 4.42c0 1.38-1.12 2.5-2.5 2.5s-2.5-1.12-2.5-2.5c0-1.4 1.12-2.5 2.5-2.5s2.5 1.1 2.5 2.5zm8.96 4.4c0 1.4-1.12 2.5-2.5 2.5s-2.5-1.1-2.5-2.5c0-1.37 1.12-2.5 2.5-2.5s2.5 1.13 2.5 2.5zm8.97 4.43c0 1.38-1.12 2.5-2.5 2.5s-2.5-1.12-2.5-2.5 1.12-2.5 2.5-2.5 2.5 1.12 2.5 2.5zm8.96 4.4c0 1.4-1.12 2.5-2.5 2.5s-2.5-1.1-2.5-2.5c0-1.37 1.12-2.5 2.5-2.5s2.5 1.13 2.5 2.5zm8.96 4.43c0 1.38-1.13 2.5-2.5 2.5-1.4 0-2.5-1.12-2.5-2.5s1.1-2.5 2.5-2.5c1.37 0 2.5 1.12 2.5 2.5zm8.96 4.4c0 1.4-1.12 2.5-2.5 2.5-1.4 0-2.5-1.1-2.5-2.5 0-1.37 1.1-2.5 2.5-2.5 1.38 0 2.5 1.13 2.5 2.5zm8.96 4.43c0 1.38-1.12 2.5-2.5 2.5s-2.5-1.12-2.5-2.5 1.12-2.5 2.5-2.5 2.5 1.12 2.5 2.5zm8.96 4.42c0 1.38-1.12 2.5-2.5 2.5s-2.5-1.12-2.5-2.5c0-1.4 1.12-2.5 2.5-2.5s2.5 1.1 2.5 2.5zm8.96 4.4c0 1.4-1.1 2.5-2.5 2.5-1.38 0-2.5-1.1-2.5-2.5 0-1.37 1.12-2.5 2.5-2.5 1.4 0 2.5 1.13 2.5 2.5zm8.97 4.43c0 1.4-1.1 2.5-2.5 2.5-1.37 0-2.5-1.1-2.5-2.5 0-1.37 1.13-2.5 2.5-2.5 1.4 0 2.5 1.13 2.5 2.5zm8.97 4.42c0 1.38-1.12 2.5-2.5 2.5s-2.5-1.12-2.5-2.5 1.12-2.5 2.5-2.5 2.5 1.12 2.5 2.5zm8.96 4.42c0 1.38-1.1 2.5-2.5 2.5-1.38 0-2.5-1.12-2.5-2.5s1.12-2.5 2.5-2.5c1.4 0 2.5 1.12 2.5 2.5zm8.97 4.4c0 1.4-1.12 2.5-2.5 2.5s-2.5-1.1-2.5-2.5c0-1.37 1.12-2.5 2.5-2.5s2.5 1.13 2.5 2.5zm8.96 4.43c0 1.38-1.12 2.5-2.5 2.5s-2.5-1.12-2.5-2.5 1.12-2.5 2.5-2.5 2.5 1.12 2.5 2.5zm8.96 4.42c0 1.37-1.12 2.5-2.5 2.5s-2.5-1.13-2.5-2.5c0-1.4 1.12-2.5 2.5-2.5s2.5 1.1 2.5 2.5zm8.97 4.4c0 1.38-1.13 2.5-2.5 2.5-1.4 0-2.5-1.12-2.5-2.5s1.1-2.5 2.5-2.5c1.37 0 2.5 1.12 2.5 2.5zm8.95 4.42c0 1.38-1.12 2.5-2.5 2.5s-2.5-1.12-2.5-2.5 1.12-2.5 2.5-2.5 2.5 1.12 2.5 2.5zm8.96 4.4c0 1.4-1.1 2.5-2.5 2.5-1.37 0-2.5-1.1-2.5-2.5 0-1.37 1.13-2.5 2.5-2.5 1.4 0 2.5 1.13 2.5 2.5zm8.98 4.43c0 1.38-1.12 2.5-2.5 2.5s-2.5-1.12-2.5-2.5 1.12-2.5 2.5-2.5 2.5 1.12 2.5 2.5zm8.96 4.4c0 1.4-1.12 2.5-2.5 2.5s-2.5-1.1-2.5-2.5c0-1.37 1.12-2.5 2.5-2.5s2.5 1.13 2.5 2.5zm8.96 4.43c0 1.38-1.12 2.5-2.5 2.5s-2.5-1.12-2.5-2.5 1.12-2.5 2.5-2.5 2.5 1.12 2.5 2.5zm8.97 4.42c0 1.38-1.12 2.5-2.5 2.5s-2.5-1.12-2.5-2.5 1.12-2.5 2.5-2.5 2.5 1.12 2.5 2.5zm8.96 4.4c0 1.4-1.12 2.5-2.5 2.5s-2.5-1.1-2.5-2.5c0-1.37 1.12-2.5 2.5-2.5s2.5 1.13 2.5 2.5zm8.96 4.43c0 1.38-1.13 2.5-2.5 2.5-1.4 0-2.5-1.12-2.5-2.5s1.1-2.5 2.5-2.5c1.37 0 2.5 1.12 2.5 2.5zm8.96 4.4c0 1.4-1.12 2.5-2.5 2.5s-2.5-1.1-2.5-2.5c0-1.37 1.12-2.5 2.5-2.5s2.5 1.13 2.5 2.5zm8.96 4.43c0 1.38-1.12 2.5-2.5 2.5s-2.5-1.12-2.5-2.5 1.12-2.5 2.5-2.5 2.5 1.12 2.5 2.5zm8.96 4.42c0 1.38-1.12 2.5-2.5 2.5s-2.5-1.12-2.5-2.5c0-1.4 1.12-2.5 2.5-2.5s2.5 1.1 2.5 2.5zm8.97 4.4c0 1.4-1.12 2.5-2.5 2.5-1.4 0-2.5-1.1-2.5-2.5 0-1.37 1.1-2.5 2.5-2.5 1.38 0 2.5 1.13 2.5 2.5zm8.96 4.43c0 1.4-1.1 2.5-2.5 2.5-1.37 0-2.5-1.1-2.5-2.5 0-1.37 1.13-2.5 2.5-2.5 1.4 0 2.5 1.13 2.5 2.5zm8.97 4.42c0 1.38-1.12 2.5-2.5 2.5s-2.5-1.12-2.5-2.5 1.12-2.5 2.5-2.5 2.5 1.12 2.5 2.5zm8.97 4.42c0 1.38-1.12 2.5-2.5 2.5-1.4 0-2.5-1.12-2.5-2.5s1.1-2.5 2.5-2.5c1.38 0 2.5 1.12 2.5 2.5zm8.96 4.4c0 1.4-1.12 2.5-2.5 2.5s-2.5-1.1-2.5-2.5c0-1.37 1.12-2.5 2.5-2.5s2.5 1.13 2.5 2.5zm8.96 4.43c0 1.38-1.12 2.5-2.5 2.5s-2.5-1.12-2.5-2.5 1.12-2.5 2.5-2.5 2.5 1.12 2.5 2.5zm8.96 4.42c0 1.37-1.1 2.5-2.5 2.5-1.38 0-2.5-1.13-2.5-2.5 0-1.4 1.12-2.5 2.5-2.5 1.4 0 2.5 1.1 2.5 2.5zm8.97 4.4c0 1.38-1.13 2.5-2.5 2.5-1.4 0-2.5-1.12-2.5-2.5s1.1-2.5 2.5-2.5c1.37 0 2.5 1.12 2.5 2.5zm8.95 4.42c0 1.38-1.12 2.5-2.5 2.5s-2.5-1.12-2.5-2.5 1.12-2.5 2.5-2.5 2.5 1.12 2.5 2.5zm8.96 4.4c0 1.4-1.1 2.5-2.5 2.5-1.37 0-2.5-1.1-2.5-2.5 0-1.37 1.13-2.5 2.5-2.5 1.4 0 2.5 1.13 2.5 2.5zm8.98 4.43c0 1.38-1.12 2.5-2.5 2.5s-2.5-1.12-2.5-2.5 1.12-2.5 2.5-2.5 2.5 1.12 2.5 2.5zm8.96 4.4c0 1.4-1.12 2.5-2.5 2.5s-2.5-1.1-2.5-2.5c0-1.37 1.12-2.5 2.5-2.5s2.5 1.13 2.5 2.5zm8.96 4.43c0 1.38-1.12 2.5-2.5 2.5s-2.5-1.12-2.5-2.5 1.12-2.5 2.5-2.5 2.5 1.12 2.5 2.5zm8.97 4.42c0 1.38-1.12 2.5-2.5 2.5s-2.5-1.12-2.5-2.5 1.12-2.5 2.5-2.5 2.5 1.12 2.5 2.5zm8.96 4.4c0 1.4-1.12 2.5-2.5 2.5s-2.5-1.1-2.5-2.5c0-1.37 1.12-2.5 2.5-2.5s2.5 1.13 2.5 2.5zm8.96 4.43c0 1.38-1.13 2.5-2.5 2.5-1.4 0-2.5-1.12-2.5-2.5s1.1-2.5 2.5-2.5c1.37 0 2.5 1.12 2.5 2.5zm8.96 4.4c0 1.4-1.12 2.5-2.5 2.5s-2.5-1.1-2.5-2.5c0-1.37 1.12-2.5 2.5-2.5s2.5 1.13 2.5 2.5zm8.96 4.43c0 1.38-1.12 2.5-2.5 2.5s-2.5-1.12-2.5-2.5 1.12-2.5 2.5-2.5 2.5 1.12 2.5 2.5zm8.96 4.4c0 1.4-1.12 2.5-2.5 2.5s-2.5-1.1-2.5-2.5c0-1.37 1.12-2.5 2.5-2.5s2.5 1.13 2.5 2.5zm8.97 4.43c0 1.37-1.12 2.5-2.5 2.5s-2.5-1.13-2.5-2.5c0-1.4 1.12-2.5 2.5-2.5s2.5 1.1 2.5 2.5zm8.96 4.4c0 1.4-1.1 2.5-2.5 2.5-1.37 0-2.5-1.1-2.5-2.5 0-1.37 1.13-2.5 2.5-2.5 1.4 0 2.5 1.13 2.5 2.5zm8.97 4.42c0 1.38-1.12 2.5-2.5 2.5s-2.5-1.12-2.5-2.5 1.12-2.5 2.5-2.5 2.5 1.12 2.5 2.5zm8.97 4.42c0 1.38-1.12 2.5-2.5 2.5s-2.5-1.12-2.5-2.5 1.12-2.5 2.5-2.5 2.5 1.12 2.5 2.5zm8.96 4.4c0 1.4-1.12 2.5-2.5 2.5s-2.5-1.1-2.5-2.5c0-1.37 1.12-2.5 2.5-2.5s2.5 1.13 2.5 2.5zm8.96 4.43c0 1.38-1.12 2.5-2.5 2.5s-2.5-1.12-2.5-2.5 1.12-2.5 2.5-2.5 2.5 1.12 2.5 2.5zm8.97 4.42c0 1.37-1.12 2.5-2.5 2.5-1.4 0-2.5-1.13-2.5-2.5 0-1.4 1.1-2.5 2.5-2.5 1.38 0 2.5 1.1 2.5 2.5zm8.96 4.4c0 1.38-1.13 2.5-2.5 2.5-1.4 0-2.5-1.12-2.5-2.5s1.1-2.5 2.5-2.5c1.37 0 2.5 1.12 2.5 2.5zm8.95 4.42c0 1.38-1.12 2.5-2.5 2.5s-2.5-1.12-2.5-2.5 1.12-2.5 2.5-2.5 2.5 1.12 2.5 2.5zm8.96 4.4c0 1.4-1.1 2.5-2.5 2.5-1.37 0-2.5-1.1-2.5-2.5 0-1.37 1.13-2.5 2.5-2.5 1.4 0 2.5 1.13 2.5 2.5zm8.98 4.43c0 1.38-1.12 2.5-2.5 2.5s-2.5-1.12-2.5-2.5 1.12-2.5 2.5-2.5 2.5 1.12 2.5 2.5zm8.96 4.4c0 1.4-1.12 2.5-2.5 2.5s-2.5-1.1-2.5-2.5c0-1.37 1.12-2.5 2.5-2.5s2.5 1.13 2.5 2.5zm8.96 4.43c0 1.38-1.1 2.5-2.5 2.5-1.38 0-2.5-1.12-2.5-2.5s1.12-2.5 2.5-2.5c1.4 0 2.5 1.12 2.5 2.5zm8.97 4.42c0 1.38-1.12 2.5-2.5 2.5s-2.5-1.12-2.5-2.5c0-1.4 1.12-2.5 2.5-2.5s2.5 1.1 2.5 2.5zm8.96 4.4c0 1.4-1.12 2.5-2.5 2.5s-2.5-1.1-2.5-2.5c0-1.37 1.12-2.5 2.5-2.5s2.5 1.13 2.5 2.5zm8.96 4.43c0 1.38-1.13 2.5-2.5 2.5-1.4 0-2.5-1.12-2.5-2.5s1.1-2.5 2.5-2.5c1.37 0 2.5 1.12 2.5 2.5zm8.96 4.4c0 1.4-1.12 2.5-2.5 2.5s-2.5-1.1-2.5-2.5c0-1.37 1.12-2.5 2.5-2.5s2.5 1.13 2.5 2.5zm8.96 4.43c0 1.38-1.12 2.5-2.5 2.5s-2.5-1.12-2.5-2.5 1.12-2.5 2.5-2.5 2.5 1.12 2.5 2.5zm8.96 4.4c0 1.4-1.12 2.5-2.5 2.5s-2.5-1.1-2.5-2.5c0-1.37 1.12-2.5 2.5-2.5s2.5 1.13 2.5 2.5zm8.97 4.43c0 1.37-1.12 2.5-2.5 2.5s-2.5-1.13-2.5-2.5c0-1.4 1.12-2.5 2.5-2.5s2.5 1.1 2.5 2.5zm8.96 4.4c0 1.4-1.1 2.5-2.5 2.5-1.37 0-2.5-1.1-2.5-2.5 0-1.37 1.13-2.5 2.5-2.5 1.4 0 2.5 1.13 2.5 2.5zm8.97 4.42c0 1.38-1.12 2.5-2.5 2.5s-2.5-1.12-2.5-2.5 1.12-2.5 2.5-2.5 2.5 1.12 2.5 2.5zm8.97 4.42c0 1.38-1.12 2.5-2.5 2.5s-2.5-1.12-2.5-2.5 1.12-2.5 2.5-2.5 2.5 1.12 2.5 2.5zm8.96 4.4c0 1.4-1.12 2.5-2.5 2.5s-2.5-1.1-2.5-2.5c0-1.37 1.12-2.5 2.5-2.5s2.5 1.13 2.5 2.5zm8.96 4.43c0 1.38-1.12 2.5-2.5 2.5s-2.5-1.12-2.5-2.5 1.12-2.5 2.5-2.5 2.5 1.12 2.5 2.5zm8.97 4.4c0 1.4-1.12 2.5-2.5 2.5s-2.5-1.1-2.5-2.5c0-1.37 1.12-2.5 2.5-2.5s2.5 1.13 2.5 2.5zm8.96 4.43c0 1.38-1.13 2.5-2.5 2.5-1.4 0-2.5-1.12-2.5-2.5s1.1-2.5 2.5-2.5c1.37 0 2.5 1.12 2.5 2.5zm8.95 4.42c0 1.38-1.12 2.5-2.5 2.5s-2.5-1.12-2.5-2.5 1.12-2.5 2.5-2.5 2.5 1.12 2.5 2.5zm8.97 4.4c0 1.4-1.12 2.5-2.5 2.5-1.4 0-2.5-1.1-2.5-2.5 0-1.37 1.1-2.5 2.5-2.5 1.38 0 2.5 1.13 2.5 2.5zm8.96 4.43c0 1.38-1.12 2.5-2.5 2.5s-2.5-1.12-2.5-2.5 1.12-2.5 2.5-2.5 2.5 1.12 2.5 2.5zm8.96 4.4c0 1.4-1.12 2.5-2.5 2.5s-2.5-1.1-2.5-2.5c0-1.37 1.12-2.5 2.5-2.5s2.5 1.13 2.5 2.5zm8.97 4.43c0 1.38-1.1 2.5-2.5 2.5-1.38 0-2.5-1.12-2.5-2.5s1.12-2.5 2.5-2.5c1.4 0 2.5 1.12 2.5 2.5zm8.97 4.42c0 1.38-1.12 2.5-2.5 2.5s-2.5-1.12-2.5-2.5c0-1.4 1.12-2.5 2.5-2.5s2.5 1.1 2.5 2.5zm8.96 4.4c0 1.4-1.12 2.5-2.5 2.5s-2.5-1.1-2.5-2.5c0-1.37 1.12-2.5 2.5-2.5s2.5 1.13 2.5 2.5zm8.96 4.43c0 1.38-1.12 2.5-2.5 2.5-1.4 0-2.5-1.12-2.5-2.5s1.1-2.5 2.5-2.5c1.38 0 2.5 1.12 2.5 2.5zm8.96 4.4c0 1.4-1.12 2.5-2.5 2.5s-2.5-1.1-2.5-2.5c0-1.37 1.12-2.5 2.5-2.5s2.5 1.13 2.5 2.5zm8.96 4.43c0 1.38-1.12 2.5-2.5 2.5s-2.5-1.12-2.5-2.5 1.12-2.5 2.5-2.5 2.5 1.12 2.5 2.5zm8.96 4.4c0 1.4-1.12 2.5-2.5 2.5s-2.5-1.1-2.5-2.5c0-1.37 1.12-2.5 2.5-2.5s2.5 1.13 2.5 2.5zm8.97 4.43c0 1.37-1.12 2.5-2.5 2.5s-2.5-1.13-2.5-2.5c0-1.4 1.12-2.5 2.5-2.5s2.5 1.1 2.5 2.5zm8.96 4.4c0 1.4-1.1 2.5-2.5 2.5-1.37 0-2.5-1.1-2.5-2.5 0-1.37 1.13-2.5 2.5-2.5 1.4 0 2.5 1.13 2.5 2.5zm8.97 4.42c0 1.38-1.12 2.5-2.5 2.5s-2.5-1.12-2.5-2.5 1.12-2.5 2.5-2.5 2.5 1.12 2.5 2.5zm8.97 4.42c0 1.38-1.12 2.5-2.5 2.5s-2.5-1.12-2.5-2.5 1.12-2.5 2.5-2.5 2.5 1.12 2.5 2.5zm8.96 4.4c0 1.4-1.12 2.5-2.5 2.5s-2.5-1.1-2.5-2.5c0-1.37 1.12-2.5 2.5-2.5s2.5 1.13 2.5 2.5zm8.96 4.43c0 1.38-1.12 2.5-2.5 2.5s-2.5-1.12-2.5-2.5 1.12-2.5 2.5-2.5 2.5 1.12 2.5 2.5zm8.97 4.4c0 1.4-1.12 2.5-2.5 2.5s-2.5-1.1-2.5-2.5c0-1.37 1.12-2.5 2.5-2.5s2.5 1.13 2.5 2.5zm8.96 4.43c0 1.38-1.13 2.5-2.5 2.5-1.4 0-2.5-1.12-2.5-2.5s1.1-2.5 2.5-2.5c1.37 0 2.5 1.12 2.5 2.5zm8.95 4.42c0 1.38-1.12 2.5-2.5 2.5s-2.5-1.12-2.5-2.5 1.12-2.5 2.5-2.5 2.5 1.12 2.5 2.5zm8.97 4.4c0 1.4-1.12 2.5-2.5 2.5s-2.5-1.1-2.5-2.5c0-1.37 1.12-2.5 2.5-2.5s2.5 1.13 2.5 2.5zm8.96 4.43c0 1.38-1.12 2.5-2.5 2.5s-2.5-1.12-2.5-2.5 1.12-2.5 2.5-2.5 2.5 1.12 2.5 2.5zm8.96 4.4c0 1.4-1.12 2.5-2.5 2.5s-2.5-1.1-2.5-2.5c0-1.37 1.12-2.5 2.5-2.5s2.5 1.13 2.5 2.5zm8.97 4.43c0 1.38-1.1 2.5-2.5 2.5-1.38 0-2.5-1.12-2.5-2.5s1.12-2.5 2.5-2.5c1.4 0 2.5 1.12 2.5 2.5zm8.97 4.42c0 1.38-1.12 2.5-2.5 2.5s-2.5-1.12-2.5-2.5c0-1.4 1.12-2.5 2.5-2.5s2.5 1.1 2.5 2.5zm8.96 4.4c0 1.4-1.12 2.5-2.5 2.5s-2.5-1.1-2.5-2.5c0-1.37 1.12-2.5 2.5-2.5s2.5 1.13 2.5 2.5zm8.97 4.43c0 1.38-1.12 2.5-2.5 2.5-1.4 0-2.5-1.12-2.5-2.5s1.1-2.5 2.5-2.5c1.38 0 2.5 1.12 2.5 2.5zm8.96 4.4c0 1.4-1.12 2.5-2.5 2.5s-2.5-1.1-2.5-2.5c0-1.37 1.12-2.5 2.5-2.5s2.5 1.13 2.5 2.5zm8.96 4.43c0 1.38-1.12 2.5-2.5 2.5s-2.5-1.12-2.5-2.5 1.12-2.5 2.5-2.5 2.5 1.12 2.5 2.5zm8.96 4.4c0 1.4-1.1 2.5-2.5 2.5-1.38 0-2.5-1.1-2.5-2.5 0-1.37 1.12-2.5 2.5-2.5 1.4 0 2.5 1.13 2.5 2.5zm8.97 4.43c0 1.37-1.12 2.5-2.5 2.5s-2.5-1.13-2.5-2.5c0-1.4 1.12-2.5 2.5-2.5s2.5 1.1 2.5 2.5zm8.96 4.4c0 1.4-1.1 2.5-2.5 2.5-1.37 0-2.5-1.1-2.5-2.5 0-1.38 1.13-2.5 2.5-2.5 1.4 0 2.5 1.12 2.5 2.5zm8.97 4.42c0 1.38-1.1 2.5-2.5 2.5-1.38 0-2.5-1.12-2.5-2.5s1.12-2.5 2.5-2.5c1.4 0 2.5 1.12 2.5 2.5zm8.97 4.42c0 1.38-1.12 2.5-2.5 2.5s-2.5-1.12-2.5-2.5 1.12-2.5 2.5-2.5 2.5 1.12 2.5 2.5zm8.96 4.4c0 1.4-1.12 2.5-2.5 2.5s-2.5-1.1-2.5-2.5c0-1.37 1.12-2.5 2.5-2.5s2.5 1.13 2.5 2.5zm8.96 4.43c0 1.38-1.12 2.5-2.5 2.5s-2.5-1.12-2.5-2.5 1.12-2.5 2.5-2.5 2.5 1.12 2.5 2.5zm8.97 4.4c0 1.4-1.12 2.5-2.5 2.5s-2.5-1.1-2.5-2.5c0-1.37 1.12-2.5 2.5-2.5s2.5 1.13 2.5 2.5zm8.96 4.43c0 1.38-1.13 2.5-2.5 2.5-1.4 0-2.5-1.12-2.5-2.5s1.1-2.5 2.5-2.5c1.37 0 2.5 1.12 2.5 2.5zm8.95 4.42c0 1.38-1.12 2.5-2.5 2.5s-2.5-1.12-2.5-2.5 1.12-2.5 2.5-2.5 2.5 1.12 2.5 2.5zm8.97 4.4c0 1.4-1.12 2.5-2.5 2.5s-2.5-1.1-2.5-2.5c0-1.37 1.12-2.5 2.5-2.5s2.5 1.13 2.5 2.5zm8.96 4.43c0 1.38-1.12 2.5-2.5 2.5s-2.5-1.12-2.5-2.5 1.12-2.5 2.5-2.5 2.5 1.12 2.5 2.5zm8.96 4.4c0 1.4-1.12 2.5-2.5 2.5s-2.5-1.1-2.5-2.5c0-1.37 1.12-2.5 2.5-2.5s2.5 1.13 2.5 2.5zm8.97 4.43c0 1.38-1.1 2.5-2.5 2.5-1.37 0-2.5-1.12-2.5-2.5s1.13-2.5 2.5-2.5c1.4 0 2.5 1.12 2.5 2.5zm8.97 4.4c0 1.4-1.12 2.5-2.5 2.5s-2.5-1.1-2.5-2.5c0-1.37 1.12-2.5 2.5-2.5s2.5 1.13 2.5 2.5zm8.96 4.43c0 1.4-1.12 2.5-2.5 2.5s-2.5-1.1-2.5-2.5c0-1.37 1.12-2.5 2.5-2.5s2.5 1.13 2.5 2.5zm8.97 4.43c0 1.38-1.12 2.5-2.5 2.5s-2.5-1.12-2.5-2.5 1.12-2.5 2.5-2.5 2.5 1.12 2.5 2.5zm8.96 4.4c0 1.4-1.12 2.5-2.5 2.5s-2.5-1.1-2.5-2.5c0-1.37 1.12-2.5 2.5-2.5s2.5 1.13 2.5 2.5zm8.96 4.43c0 1.38-1.12 2.5-2.5 2.5s-2.5-1.12-2.5-2.5 1.12-2.5 2.5-2.5 2.5 1.12 2.5 2.5zm8.97 4.4c0 1.4-1.13 2.5-2.5 2.5-1.4 0-2.5-1.1-2.5-2.5 0-1.37 1.1-2.5 2.5-2.5 1.37 0 2.5 1.13 2.5 2.5zm8.95 4.43c0 1.37-1.12 2.5-2.5 2.5s-2.5-1.13-2.5-2.5c0-1.4 1.12-2.5 2.5-2.5s2.5 1.1 2.5 2.5zm8.96 4.4c0 1.4-1.1 2.5-2.5 2.5-1.37 0-2.5-1.1-2.5-2.5 0-1.38 1.13-2.5 2.5-2.5 1.4 0 2.5 1.12 2.5 2.5zm8.97 4.42c0 1.38-1.1 2.5-2.5 2.5-1.38 0-2.5-1.12-2.5-2.5s1.12-2.5 2.5-2.5c1.4 0 2.5 1.12 2.5 2.5zm8.97 4.42c0 1.38-1.12 2.5-2.5 2.5s-2.5-1.12-2.5-2.5 1.12-2.5 2.5-2.5 2.5 1.12 2.5 2.5zm8.96 4.4c0 1.4-1.12 2.5-2.5 2.5s-2.5-1.1-2.5-2.5c0-1.37 1.12-2.5 2.5-2.5s2.5 1.13 2.5 2.5zm8.96 4.43c0 1.38-1.1 2.5-2.5 2.5-1.38 0-2.5-1.12-2.5-2.5s1.12-2.5 2.5-2.5c1.4 0 2.5 1.12 2.5 2.5zm8.97 4.4c0 1.4-1.12 2.5-2.5 2.5s-2.5-1.1-2.5-2.5c0-1.37 1.12-2.5 2.5-2.5s2.5 1.13 2.5 2.5zm8.96 4.43c0 1.38-1.13 2.5-2.5 2.5-1.4 0-2.5-1.12-2.5-2.5s1.1-2.5 2.5-2.5c1.37 0 2.5 1.12 2.5 2.5zm8.95 4.42c0 1.38-1.12 2.5-2.5 2.5s-2.5-1.12-2.5-2.5c0-1.4 1.12-2.5 2.5-2.5s2.5 1.1 2.5 2.5zm8.97 4.4c0 1.4-1.12 2.5-2.5 2.5s-2.5-1.1-2.5-2.5c0-1.37 1.12-2.5 2.5-2.5s2.5 1.13 2.5 2.5zm8.96 4.43c0 1.38-1.12 2.5-2.5 2.5s-2.5-1.12-2.5-2.5 1.12-2.5 2.5-2.5 2.5 1.12 2.5 2.5zm8.96 4.4c0 1.4-1.12 2.5-2.5 2.5s-2.5-1.1-2.5-2.5c0-1.37 1.12-2.5 2.5-2.5s2.5 1.13 2.5 2.5zm8.97 4.43c0 1.38-1.1 2.5-2.5 2.5-1.37 0-2.5-1.12-2.5-2.5s1.13-2.5 2.5-2.5c1.4 0 2.5 1.12 2.5 2.5zm8.97 4.4c0 1.4-1.12 2.5-2.5 2.5s-2.5-1.1-2.5-2.5c0-1.37 1.12-2.5 2.5-2.5s2.5 1.13 2.5 2.5zm8.96 4.43c0 1.4-1.12 2.5-2.5 2.5s-2.5-1.1-2.5-2.5c0-1.37 1.12-2.5 2.5-2.5s2.5 1.13 2.5 2.5zm8.97 4.43c0 1.38-1.12 2.5-2.5 2.5s-2.5-1.12-2.5-2.5 1.12-2.5 2.5-2.5 2.5 1.12 2.5 2.5zm8.96 4.4c0 1.4-1.12 2.5-2.5 2.5s-2.5-1.1-2.5-2.5c0-1.37 1.12-2.5 2.5-2.5s2.5 1.13 2.5 2.5zm8.96 4.43c0 1.38-1.12 2.5-2.5 2.5s-2.5-1.12-2.5-2.5 1.12-2.5 2.5-2.5 2.5 1.12 2.5 2.5zm8.97 4.4c0 1.4-1.13 2.5-2.5 2.5-1.4 0-2.5-1.1-2.5-2.5 0-1.37 1.1-2.5 2.5-2.5 1.37 0 2.5 1.13 2.5 2.5zm8.95 4.43c0 1.37-1.12 2.5-2.5 2.5s-2.5-1.13-2.5-2.5c0-1.4 1.12-2.5 2.5-2.5s2.5 1.1 2.5 2.5zm8.96 4.4c0 1.4-1.1 2.5-2.5 2.5-1.37 0-2.5-1.1-2.5-2.5 0-1.38 1.13-2.5 2.5-2.5 1.4 0 2.5 1.12 2.5 2.5zm8.98 4.42c0 1.38-1.12 2.5-2.5 2.5-1.4 0-2.5-1.12-2.5-2.5s1.1-2.5 2.5-2.5c1.38 0 2.5 1.12 2.5 2.5zm8.96 4.42c0 1.38-1.12 2.5-2.5 2.5s-2.5-1.12-2.5-2.5 1.12-2.5 2.5-2.5 2.5 1.12 2.5 2.5zm8.96 4.4c0 1.4-1.12 2.5-2.5 2.5s-2.5-1.1-2.5-2.5c0-1.37 1.12-2.5 2.5-2.5s2.5 1.13 2.5 2.5zm8.97 4.43c0 1.38-1.12 2.5-2.5 2.5-1.4 0-2.5-1.12-2.5-2.5s1.1-2.5 2.5-2.5c1.38 0 2.5 1.12 2.5 2.5zm8.96 4.4c0 1.4-1.12 2.5-2.5 2.5s-2.5-1.1-2.5-2.5c0-1.37 1.12-2.5 2.5-2.5s2.5 1.13 2.5 2.5zm8.96 4.43c0 1.38-1.13 2.5-2.5 2.5-1.4 0-2.5-1.12-2.5-2.5s1.1-2.5 2.5-2.5c1.37 0 2.5 1.12 2.5 2.5zm8.95 4.42c0 1.38-1.1 2.5-2.5 2.5-1.38 0-2.5-1.12-2.5-2.5 0-1.4 1.12-2.5 2.5-2.5 1.4 0 2.5 1.1 2.5 2.5z" fill="#5e5e5e"/><path d="M15783.9 14864.08l-2.2 4.48-1.2-.6v-5.56z" fill="#5e5e5e"/><path d="M17742.8 15831.92l-14.85-2.14 4.1-8.32z" stroke="#5e5e5e" stroke-width="5" fill="#5e5e5e"/><defs><path d="M160-131c35 5 61 23 61 61C221 17 115-2 30 0v-248c76 3 177-17 177 60 0 33-19 50-47 57zm-97-11c50-1 110 9 110-42 0-47-63-36-110-37v79zm0 115c55-2 124 14 124-45 0-56-70-42-124-44v89" id="z"/><path d="M24-231v-30h32v30H24zM24 0v-190h32V0H24" id="A"/><path d="M24 0v-261h32V0H24" id="B"/><path d="M117-194c89-4 53 116 60 194h-32v-121c0-31-8-49-39-48C34-167 62-67 57 0H25l-1-190h30c1 10-1 24 2 32 11-22 29-35 61-36" id="C"/><path d="M177-190C167-65 218 103 67 71c-23-6-38-20-44-43l32-5c15 47 100 32 89-28v-30C133-14 115 1 83 1 29 1 15-40 15-95c0-56 16-97 71-98 29-1 48 16 59 35 1-10 0-23 2-32h30zM94-22c36 0 50-32 50-73 0-42-14-75-50-75-39 0-46 34-46 75s6 73 46 73" id="D"/><path d="M0 4l72-265h28L28 4H0" id="E"/><path d="M30-248c87 1 191-15 191 75 0 78-77 80-158 76V0H30v-248zm33 125c57 0 124 11 124-50 0-59-68-47-124-48v98" id="F"/><path d="M114-163C36-179 61-72 57 0H25l-1-190h30c1 12-1 29 2 39 6-27 23-49 58-41v29" id="G"/><path d="M96-169c-40 0-48 33-48 73s9 75 48 75c24 0 41-14 43-38l32 2c-6 37-31 61-74 61-59 0-76-41-82-99-10-93 101-131 147-64 4 7 5 14 7 22l-32 3c-4-21-16-35-41-35" id="H"/><g id="a"><use transform="matrix(0.30864197530864196,0,0,0.30864197530864196,0,0)" xlink:href="#z"/><use transform="matrix(0.30864197530864196,0,0,0.30864197530864196,74.07407407407408,0)" xlink:href="#A"/><use transform="matrix(0.30864197530864196,0,0,0.30864197530864196,98.45679012345678,0)" xlink:href="#B"/><use transform="matrix(0.30864197530864196,0,0,0.30864197530864196,122.8395061728395,0)" xlink:href="#B"/><use transform="matrix(0.30864197530864196,0,0,0.30864197530864196,147.2222222222222,0)" xlink:href="#A"/><use transform="matrix(0.30864197530864196,0,0,0.30864197530864196,171.60493827160488,0)" xlink:href="#C"/><use transform="matrix(0.30864197530864196,0,0,0.30864197530864196,233.33333333333331,0)" xlink:href="#D"/><use transform="matrix(0.30864197530864196,0,0,0.30864197530864196,295.0617283950617,0)" xlink:href="#E"/><use transform="matrix(0.30864197530864196,0,0,0.30864197530864196,325.9259259259259,0)" xlink:href="#F"/><use transform="matrix(0.30864197530864196,0,0,0.30864197530864196,400,0)" xlink:href="#G"/><use transform="matrix(0.30864197530864196,0,0,0.30864197530864196,436.72839506172846,0)" xlink:href="#A"/><use transform="matrix(0.30864197530864196,0,0,0.30864197530864196,461.11111111111114,0)" xlink:href="#H"/><use transform="matrix(0.30864197530864196,0,0,0.30864197530864196,516.6666666666667,0)" xlink:href="#A"/><use transform="matrix(0.30864197530864196,0,0,0.30864197530864196,541.0493827160494,0)" xlink:href="#C"/><use transform="matrix(0.30864197530864196,0,0,0.30864197530864196,602.7777777777778,0)" xlink:href="#D"/></g><g id="b"><use transform="matrix(0.24691358024691357,0,0,0.24691358024691357,0,0)" xlink:href="#z"/><use transform="matrix(0.24691358024691357,0,0,0.24691358024691357,59.25925925925925,0)" xlink:href="#A"/><use transform="matrix(0.24691358024691357,0,0,0.24691358024691357,78.76543209876542,0)" xlink:href="#B"/><use transform="matrix(0.24691358024691357,0,0,0.24691358024691357,98.2716049382716,0)" xlink:href="#B"/><use transform="matrix(0.24691358024691357,0,0,0.24691358024691357,117.77777777777777,0)" xlink:href="#A"/><use transform="matrix(0.24691358024691357,0,0,0.24691358024691357,137.28395061728395,0)" xlink:href="#C"/><use transform="matrix(0.24691358024691357,0,0,0.24691358024691357,186.66666666666666,0)" xlink:href="#D"/><use transform="matrix(0.24691358024691357,0,0,0.24691358024691357,236.04938271604937,0)" xlink:href="#E"/><use transform="matrix(0.24691358024691357,0,0,0.24691358024691357,260.7407407407407,0)" xlink:href="#F"/><use transform="matrix(0.24691358024691357,0,0,0.24691358024691357,319.99999999999994,0)" xlink:href="#G"/><use transform="matrix(0.24691358024691357,0,0,0.24691358024691357,349.3827160493827,0)" xlink:href="#A"/><use transform="matrix(0.24691358024691357,0,0,0.24691358024691357,368.88888888888886,0)" xlink:href="#H"/><use transform="matrix(0.24691358024691357,0,0,0.24691358024691357,413.3333333333333,0)" xlink:href="#A"/><use transform="matrix(0.24691358024691357,0,0,0.24691358024691357,432.8395061728395,0)" xlink:href="#C"/><use transform="matrix(0.24691358024691357,0,0,0.24691358024691357,482.22222222222223,0)" xlink:href="#D"/></g><path d="M140-251c81 0 123 46 123 126C263-46 219 4 140 4 59 4 17-45 17-125s42-126 123-126zm0 227c63 0 89-41 89-101s-29-99-89-99c-61 0-89 39-89 99S79-25 140-24" id="I"/><path d="M85-194c31 0 48 13 60 33l-1-100h32l1 261h-30c-2-10 0-23-3-31C134-8 116 4 85 4 32 4 16-35 15-94c0-66 23-100 70-100zm9 24c-40 0-46 34-46 75 0 40 6 74 45 74 42 0 51-32 51-76 0-42-9-74-50-73" id="J"/><path d="M100-194c63 0 86 42 84 106H49c0 40 14 67 53 68 26 1 43-12 49-29l28 8c-11 28-37 45-77 45C44 4 14-33 15-96c1-61 26-98 85-98zm52 81c6-60-76-77-97-28-3 7-6 17-6 28h103" id="K"/><g id="c"><use transform="matrix(0.17247639796659384,0,0,0.17247639796659384,0,0)" xlink:href="#I"/><use transform="matrix(0.17247639796659384,0,0,0.17247639796659384,48.293391430646274,0)" xlink:href="#G"/><use transform="matrix(0.17247639796659384,0,0,0.17247639796659384,68.81808278867094,0)" xlink:href="#J"/><use transform="matrix(0.17247639796659384,0,0,0.17247639796659384,103.3133623819897,0)" xlink:href="#K"/><use transform="matrix(0.17247639796659384,0,0,0.17247639796659384,137.8086419753085,0)" xlink:href="#G"/></g><path fill="#333" d="M67-125c0 53 21 87 73 88 37 1 54-22 65-47l45 17C233-25 199 4 140 4 58 4 20-42 15-125 8-235 124-281 211-232c18 10 29 29 36 50l-46 12c-8-25-30-41-62-41-52 0-71 34-72 86" id="L"/><path fill="#333" d="M110-194c64 0 96 36 96 99 0 64-35 99-97 99-61 0-95-36-95-99 0-62 34-99 96-99zm-1 164c35 0 45-28 45-65 0-40-10-65-43-65-34 0-45 26-45 65 0 36 10 65 43 65" id="M"/><path fill="#333" d="M220-157c-53 9-28 100-34 157h-49v-107c1-27-5-49-29-50C55-147 81-57 75 0H25l-1-190h47c2 12-1 28 3 38 10-53 101-56 108 0 13-22 24-43 59-42 82 1 51 116 57 194h-49v-107c-1-25-5-48-29-50" id="N"/><path fill="#333" d="M135-194c53 0 70 44 70 98 0 56-19 98-73 100-31 1-45-17-59-34 3 33 2 69 2 105H25l-1-265h48c2 10 0 23 3 31 11-24 29-35 60-35zM114-30c33 0 39-31 40-66 0-38-9-64-40-64-56 0-55 130 0 130" id="O"/><path fill="#333" d="M85 4C-2 5 27-109 22-190h50c7 57-23 150 33 157 60-5 35-97 40-157h50l1 190h-47c-2-12 1-28-3-38-12 25-28 42-61 42" id="P"/><path fill="#333" d="M115-3C79 11 28 4 28-45v-112H4v-33h27l15-45h31v45h36v33H77v99c-1 23 16 31 38 25v30" id="Q"/><path fill="#333" d="M185-48c-13 30-37 53-82 52C43 2 14-33 14-96s30-98 90-98c62 0 83 45 84 108H66c0 31 8 55 39 56 18 0 30-7 34-22zm-45-69c5-46-57-63-70-21-2 6-4 13-4 21h74" id="R"/><g id="d"><use transform="matrix(0.0925925925925926,0,0,0.0925925925925926,0,0)" xlink:href="#L"/><use transform="matrix(0.0925925925925926,0,0,0.0925925925925926,23.981481481481485,0)" xlink:href="#M"/><use transform="matrix(0.0925925925925926,0,0,0.0925925925925926,44.25925925925927,0)" xlink:href="#N"/><use transform="matrix(0.0925925925925926,0,0,0.0925925925925926,73.8888888888889,0)" xlink:href="#O"/><use transform="matrix(0.0925925925925926,0,0,0.0925925925925926,94.16666666666669,0)" xlink:href="#P"/><use transform="matrix(0.0925925925925926,0,0,0.0925925925925926,114.44444444444446,0)" xlink:href="#Q"/><use transform="matrix(0.0925925925925926,0,0,0.0925925925925926,125.46296296296298,0)" xlink:href="#R"/></g><path fill="#333" d="M24-248c93 1 206-16 204 79-1 75-69 88-152 82V0H24v-248zm52 121c47 0 100 7 100-41 0-47-54-39-100-39v80" id="S"/><path fill="#333" d="M135-150c-39-12-60 13-60 57V0H25l-1-190h47c2 13-1 29 3 40 6-28 27-53 61-41v41" id="T"/><path fill="#333" d="M25-224v-37h50v37H25zM25 0v-190h50V0H25" id="U"/><path fill="#333" d="M190-63c-7 42-38 67-86 67-59 0-84-38-90-98-12-110 154-137 174-36l-49 2c-2-19-15-32-35-32-30 0-35 28-38 64-6 74 65 87 74 30" id="V"/><g id="e"><use transform="matrix(0.0925925925925926,0,0,0.0925925925925926,0,0)" xlink:href="#S"/><use transform="matrix(0.0925925925925926,0,0,0.0925925925925926,22.222222222222225,0)" xlink:href="#T"/><use transform="matrix(0.0925925925925926,0,0,0.0925925925925926,35.18518518518519,0)" xlink:href="#U"/><use transform="matrix(0.0925925925925926,0,0,0.0925925925925926,44.44444444444445,0)" xlink:href="#V"/><use transform="matrix(0.0925925925925926,0,0,0.0925925925925926,62.96296296296297,0)" xlink:href="#R"/></g><path fill="#333" d="M133-34C117-15 103 5 69 4 32 3 11-16 11-54c-1-60 55-63 116-61 1-26-3-47-28-47-18 1-26 9-28 27l-52-2c7-38 36-58 82-57s74 22 75 68l1 82c-1 14 12 18 25 15v27c-30 8-71 5-69-32zm-48 3c29 0 43-24 42-57-32 0-66-3-65 30 0 17 8 27 23 27" id="W"/><path fill="#333" d="M123 10C108 53 80 86 19 72V37c35 8 53-11 59-39L3-190h52l48 148c12-52 28-100 44-148h51" id="X"/><path fill="#333" d="M135-194c87-1 58 113 63 194h-50c-7-57 23-157-34-157-59 0-34 97-39 157H25l-1-190h47c2 12-1 28 3 38 12-26 28-41 61-42" id="Y"/><g id="f"><use transform="matrix(0.0925925925925926,0,0,0.0925925925925926,0,0)" xlink:href="#S"/><use transform="matrix(0.0925925925925926,0,0,0.0925925925925926,22.222222222222225,0)" xlink:href="#W"/><use transform="matrix(0.0925925925925926,0,0,0.0925925925925926,40.74074074074075,0)" xlink:href="#X"/><use transform="matrix(0.0925925925925926,0,0,0.0925925925925926,59.25925925925927,0)" xlink:href="#N"/><use transform="matrix(0.0925925925925926,0,0,0.0925925925925926,88.8888888888889,0)" xlink:href="#R"/><use transform="matrix(0.0925925925925926,0,0,0.0925925925925926,107.40740740740742,0)" xlink:href="#Y"/><use transform="matrix(0.0925925925925926,0,0,0.0925925925925926,127.68518518518519,0)" xlink:href="#Q"/></g><path fill="#333" d="M114-157C55-157 80-60 75 0H25v-261h50l-1 109c12-26 28-41 61-42 86-1 58 113 63 194h-50c-7-57 23-157-34-157" id="Z"/><path fill="#333" d="M12 0v-35l95-120H19v-35h142v35L67-36h103V0H12" id="aa"/><g id="g"><use transform="matrix(0.0925925925925926,0,0,0.0925925925925926,0,0)" xlink:href="#W"/><use transform="matrix(0.0925925925925926,0,0,0.0925925925925926,18.51851851851852,0)" xlink:href="#P"/><use transform="matrix(0.0925925925925926,0,0,0.0925925925925926,38.7962962962963,0)" xlink:href="#Q"/><use transform="matrix(0.0925925925925926,0,0,0.0925925925925926,49.81481481481482,0)" xlink:href="#Z"/><use transform="matrix(0.0925925925925926,0,0,0.0925925925925926,70.0925925925926,0)" xlink:href="#M"/><use transform="matrix(0.0925925925925926,0,0,0.0925925925925926,90.37037037037038,0)" xlink:href="#T"/><use transform="matrix(0.0925925925925926,0,0,0.0925925925925926,103.33333333333334,0)" xlink:href="#U"/><use transform="matrix(0.0925925925925926,0,0,0.0925925925925926,112.59259259259261,0)" xlink:href="#aa"/><use transform="matrix(0.0925925925925926,0,0,0.0925925925925926,129.25925925925927,0)" xlink:href="#W"/><use transform="matrix(0.0925925925925926,0,0,0.0925925925925926,147.77777777777777,0)" xlink:href="#Q"/><use transform="matrix(0.0925925925925926,0,0,0.0925925925925926,158.7962962962963,0)" xlink:href="#U"/><use transform="matrix(0.0925925925925926,0,0,0.0925925925925926,168.05555555555557,0)" xlink:href="#M"/><use transform="matrix(0.0925925925925926,0,0,0.0925925925925926,188.33333333333334,0)" xlink:href="#Y"/></g><path d="M212-179c-10-28-35-45-73-45-59 0-87 40-87 99 0 60 29 101 89 101 43 0 62-24 78-52l27 14C228-24 195 4 139 4 59 4 22-46 18-125c-6-104 99-153 187-111 19 9 31 26 39 46" id="ab"/><path d="M100-194c62-1 85 37 85 99 1 63-27 99-86 99S16-35 15-95c0-66 28-99 85-99zM99-20c44 1 53-31 53-75 0-43-8-75-51-75s-53 32-53 75 10 74 51 75" id="ac"/><g id="h"><use transform="matrix(0.17247639796659384,0,0,0.17247639796659384,0,0)" xlink:href="#ab"/><use transform="matrix(0.17247639796659384,0,0,0.17247639796659384,44.6713870733478,0)" xlink:href="#ac"/><use transform="matrix(0.17247639796659384,0,0,0.17247639796659384,79.16666666666657,0)" xlink:href="#G"/><use transform="matrix(0.17247639796659384,0,0,0.17247639796659384,99.69135802469124,0)" xlink:href="#K"/></g><g id="i"><use transform="matrix(0.17247639796659384,0,0,0.17247639796659384,0,0)" xlink:href="#F"/><use transform="matrix(0.17247639796659384,0,0,0.17247639796659384,41.39433551198252,0)" xlink:href="#G"/><use transform="matrix(0.17247639796659384,0,0,0.17247639796659384,61.91902687000719,0)" xlink:href="#A"/><use transform="matrix(0.17247639796659384,0,0,0.17247639796659384,75.5446623093681,0)" xlink:href="#H"/><use transform="matrix(0.17247639796659384,0,0,0.17247639796659384,106.59041394335502,0)" xlink:href="#A"/><use transform="matrix(0.17247639796659384,0,0,0.17247639796659384,120.21604938271591,0)" xlink:href="#C"/><use transform="matrix(0.17247639796659384,0,0,0.17247639796659384,154.71132897603468,0)" xlink:href="#D"/></g><path d="M141-36C126-15 110 5 73 4 37 3 15-17 15-53c-1-64 63-63 125-63 3-35-9-54-41-54-24 1-41 7-42 31l-33-3c5-37 33-52 76-52 45 0 72 20 72 64v82c-1 20 7 32 28 27v20c-31 9-61-2-59-35zM48-53c0 20 12 33 32 33 41-3 63-29 60-74-43 2-92-5-92 41" id="ad"/><g id="j"><use transform="matrix(0.17247639796659384,0,0,0.17247639796659384,0,0)" xlink:href="#D"/><use transform="matrix(0.17247639796659384,0,0,0.17247639796659384,34.49527959331877,0)" xlink:href="#K"/><use transform="matrix(0.17247639796659384,0,0,0.17247639796659384,68.99055918663754,0)" xlink:href="#C"/><use transform="matrix(0.17247639796659384,0,0,0.17247639796659384,103.4858387799563,0)" xlink:href="#K"/><use transform="matrix(0.17247639796659384,0,0,0.17247639796659384,137.98111837327508,0)" xlink:href="#G"/><use transform="matrix(0.17247639796659384,0,0,0.17247639796659384,158.50580973129973,0)" xlink:href="#ad"/><use transform="matrix(0.17247639796659384,0,0,0.17247639796659384,193.0010893246185,0)" xlink:href="#B"/></g><path d="M115-194c55 1 70 41 70 98S169 2 115 4C84 4 66-9 55-30l1 105H24l-1-265h31l2 30c10-21 28-34 59-34zm-8 174c40 0 45-34 45-75s-6-73-45-74c-42 0-51 32-51 76 0 43 10 73 51 73" id="ae"/><path d="M210-169c-67 3-38 105-44 169h-31v-121c0-29-5-50-35-48C34-165 62-65 56 0H25l-1-190h30c1 10-1 24 2 32 10-44 99-50 107 0 11-21 27-35 58-36 85-2 47 119 55 194h-31v-121c0-29-5-49-35-48" id="af"/><path d="M59-47c-2 24 18 29 38 22v24C64 9 27 4 27-40v-127H5v-23h24l9-43h21v43h35v23H59v120" id="ag"/><g id="k"><use transform="matrix(0.17247639796659384,0,0,0.17247639796659384,0,0)" xlink:href="#ae"/><use transform="matrix(0.17247639796659384,0,0,0.17247639796659384,34.49527959331877,0)" xlink:href="#G"/><use transform="matrix(0.17247639796659384,0,0,0.17247639796659384,55.01997095134343,0)" xlink:href="#ac"/><use transform="matrix(0.17247639796659384,0,0,0.17247639796659384,89.5152505446622,0)" xlink:href="#af"/><use transform="matrix(0.17247639796659384,0,0,0.17247639796659384,141.08569353667377,0)" xlink:href="#ac"/><use transform="matrix(0.17247639796659384,0,0,0.17247639796659384,175.58097312999254,0)" xlink:href="#ag"/><use transform="matrix(0.17247639796659384,0,0,0.17247639796659384,192.82861292665194,0)" xlink:href="#A"/><use transform="matrix(0.17247639796659384,0,0,0.17247639796659384,206.45424836601285,0)" xlink:href="#ac"/><use transform="matrix(0.17247639796659384,0,0,0.17247639796659384,240.94952795933162,0)" xlink:href="#C"/></g><path d="M84 4C-5 8 30-112 23-190h32v120c0 31 7 50 39 49 72-2 45-101 50-169h31l1 190h-30c-1-10 1-25-2-33-11 22-28 36-60 37" id="ah"/><path d="M135-143c-3-34-86-38-87 0 15 53 115 12 119 90S17 21 10-45l28-5c4 36 97 45 98 0-10-56-113-15-118-90-4-57 82-63 122-42 12 7 21 19 24 35" id="ai"/><path d="M9 0v-24l116-142H16v-24h144v24L44-24h123V0H9" id="aj"/><g id="l"><use transform="matrix(0.17247639796659384,0,0,0.17247639796659384,0,0)" xlink:href="#H"/><use transform="matrix(0.17247639796659384,0,0,0.17247639796659384,31.04575163398689,0)" xlink:href="#ah"/><use transform="matrix(0.17247639796659384,0,0,0.17247639796659384,65.54103122730567,0)" xlink:href="#ai"/><use transform="matrix(0.17247639796659384,0,0,0.17247639796659384,96.58678286129256,0)" xlink:href="#ag"/><use transform="matrix(0.17247639796659384,0,0,0.17247639796659384,113.83442265795195,0)" xlink:href="#ac"/><use transform="matrix(0.17247639796659384,0,0,0.17247639796659384,148.3297022512707,0)" xlink:href="#af"/><use transform="matrix(0.17247639796659384,0,0,0.17247639796659384,199.90014524328225,0)" xlink:href="#A"/><use transform="matrix(0.17247639796659384,0,0,0.17247639796659384,213.52578068264316,0)" xlink:href="#aj"/><use transform="matrix(0.17247639796659384,0,0,0.17247639796659384,244.57153231663005,0)" xlink:href="#K"/><use transform="matrix(0.17247639796659384,0,0,0.17247639796659384,279.0668119099488,0)" xlink:href="#J"/></g><g id="m"><use transform="matrix(0.24691358024691357,0,0,0.24691358024691357,0,0)" xlink:href="#F"/><use transform="matrix(0.24691358024691357,0,0,0.24691358024691357,59.25925925925925,0)" xlink:href="#G"/><use transform="matrix(0.24691358024691357,0,0,0.24691358024691357,88.64197530864197,0)" xlink:href="#A"/><use transform="matrix(0.24691358024691357,0,0,0.24691358024691357,108.14814814814815,0)" xlink:href="#H"/><use transform="matrix(0.24691358024691357,0,0,0.24691358024691357,152.5925925925926,0)" xlink:href="#A"/><use transform="matrix(0.24691358024691357,0,0,0.24691358024691357,172.0987654320988,0)" xlink:href="#C"/><use transform="matrix(0.24691358024691357,0,0,0.24691358024691357,221.4814814814815,0)" xlink:href="#D"/></g><g id="n"><use transform="matrix(0.24691358024691357,0,0,0.24691358024691357,0,0)" xlink:href="#z"/><use transform="matrix(0.24691358024691357,0,0,0.24691358024691357,59.25925925925925,0)" xlink:href="#A"/><use transform="matrix(0.24691358024691357,0,0,0.24691358024691357,78.76543209876542,0)" xlink:href="#B"/><use transform="matrix(0.24691358024691357,0,0,0.24691358024691357,98.2716049382716,0)" xlink:href="#B"/><use transform="matrix(0.24691358024691357,0,0,0.24691358024691357,117.77777777777777,0)" xlink:href="#A"/><use transform="matrix(0.24691358024691357,0,0,0.24691358024691357,137.28395061728395,0)" xlink:href="#C"/><use transform="matrix(0.24691358024691357,0,0,0.24691358024691357,186.66666666666666,0)" xlink:href="#D"/></g><g id="o"><use transform="matrix(0.17247639796659384,0,0,0.17247639796659384,0,0)" xlink:href="#z"/><use transform="matrix(0.17247639796659384,0,0,0.17247639796659384,41.39433551198252,0)" xlink:href="#A"/><use transform="matrix(0.17247639796659384,0,0,0.17247639796659384,55.01997095134343,0)" xlink:href="#B"/><use transform="matrix(0.17247639796659384,0,0,0.17247639796659384,68.64560639070434,0)" xlink:href="#B"/><use transform="matrix(0.17247639796659384,0,0,0.17247639796659384,82.27124183006526,0)" xlink:href="#A"/><use transform="matrix(0.17247639796659384,0,0,0.17247639796659384,95.89687726942617,0)" xlink:href="#C"/><use transform="matrix(0.17247639796659384,0,0,0.17247639796659384,130.39215686274494,0)" xlink:href="#D"/></g><path d="M101-234c-31-9-42 10-38 44h38v23H63V0H32v-167H5v-23h27c-7-52 17-82 69-68v24" id="ak"/><g id="p"><use transform="matrix(0.17247639796659384,0,0,0.17247639796659384,0,0)" xlink:href="#A"/><use transform="matrix(0.17247639796659384,0,0,0.17247639796659384,13.625635439360913,0)" xlink:href="#C"/><use transform="matrix(0.17247639796659384,0,0,0.17247639796659384,48.12091503267968,0)" xlink:href="#ak"/><use transform="matrix(0.17247639796659384,0,0,0.17247639796659384,65.36855482933908,0)" xlink:href="#ac"/></g><path d="M108 0H70L1-190h34L89-25l56-165h34" id="al"/><g id="q"><use transform="matrix(0.17247639796659384,0,0,0.17247639796659384,0,0)" xlink:href="#al"/><use transform="matrix(0.17247639796659384,0,0,0.17247639796659384,31.04575163398689,0)" xlink:href="#K"/><use transform="matrix(0.17247639796659384,0,0,0.17247639796659384,65.54103122730567,0)" xlink:href="#G"/><use transform="matrix(0.17247639796659384,0,0,0.17247639796659384,86.06572258533033,0)" xlink:href="#A"/><use transform="matrix(0.17247639796659384,0,0,0.17247639796659384,99.69135802469125,0)" xlink:href="#ak"/><use transform="matrix(0.17247639796659384,0,0,0.17247639796659384,116.93899782135064,0)" xlink:href="#A"/><use transform="matrix(0.17247639796659384,0,0,0.17247639796659384,130.56463326071156,0)" xlink:href="#H"/><use transform="matrix(0.17247639796659384,0,0,0.17247639796659384,161.61038489469846,0)" xlink:href="#ad"/><use transform="matrix(0.17247639796659384,0,0,0.17247639796659384,196.10566448801723,0)" xlink:href="#ag"/><use transform="matrix(0.17247639796659384,0,0,0.17247639796659384,213.35330428467663,0)" xlink:href="#A"/><use transform="matrix(0.17247639796659384,0,0,0.17247639796659384,226.9789397240375,0)" xlink:href="#ac"/><use transform="matrix(0.17247639796659384,0,0,0.17247639796659384,261.4742193173563,0)" xlink:href="#C"/></g><path d="M206 0h-36l-40-164L89 0H53L-1-190h32L70-26l43-164h34l41 164 42-164h31" id="am"/><path d="M143 0L79-87 56-68V0H24v-261h32v163l83-92h37l-77 82L181 0h-38" id="an"/><g id="r"><use transform="matrix(0.17247639796659384,0,0,0.17247639796659384,0,0)" xlink:href="#am"/><use transform="matrix(0.17247639796659384,0,0,0.17247639796659384,44.6713870733478,0)" xlink:href="#ac"/><use transform="matrix(0.17247639796659384,0,0,0.17247639796659384,79.16666666666657,0)" xlink:href="#G"/><use transform="matrix(0.17247639796659384,0,0,0.17247639796659384,99.69135802469124,0)" xlink:href="#an"/><use transform="matrix(0.17247639796659384,0,0,0.17247639796659384,130.73710965867812,0)" xlink:href="#ak"/><use transform="matrix(0.17247639796659384,0,0,0.17247639796659384,147.98474945533752,0)" xlink:href="#B"/><use transform="matrix(0.17247639796659384,0,0,0.17247639796659384,161.61038489469843,0)" xlink:href="#ac"/><use transform="matrix(0.17247639796659384,0,0,0.17247639796659384,196.1056644880172,0)" xlink:href="#am"/></g><g id="s"><use transform="matrix(0.17247639796659384,0,0,0.17247639796659384,0,0)" xlink:href="#F"/><use transform="matrix(0.17247639796659384,0,0,0.17247639796659384,41.39433551198252,0)" xlink:href="#G"/><use transform="matrix(0.17247639796659384,0,0,0.17247639796659384,61.91902687000719,0)" xlink:href="#ac"/><use transform="matrix(0.17247639796659384,0,0,0.17247639796659384,96.41430646332596,0)" xlink:href="#H"/><use transform="matrix(0.17247639796659384,0,0,0.17247639796659384,127.46005809731284,0)" xlink:href="#K"/><use transform="matrix(0.17247639796659384,0,0,0.17247639796659384,161.9553376906316,0)" xlink:href="#ai"/><use transform="matrix(0.17247639796659384,0,0,0.17247639796659384,193.0010893246185,0)" xlink:href="#ai"/></g><path d="M179-190L93 31C79 59 56 82 12 73V49c39 6 53-20 64-50L1-190h34L92-34l54-156h33" id="ao"/><g id="t"><use transform="matrix(0.17247639796659384,0,0,0.17247639796659384,0,0)" xlink:href="#F"/><use transform="matrix(0.17247639796659384,0,0,0.17247639796659384,41.39433551198252,0)" xlink:href="#ad"/><use transform="matrix(0.17247639796659384,0,0,0.17247639796659384,75.88961510530129,0)" xlink:href="#ao"/><use transform="matrix(0.17247639796659384,0,0,0.17247639796659384,106.93536673928818,0)" xlink:href="#af"/><use transform="matrix(0.17247639796659384,0,0,0.17247639796659384,158.50580973129973,0)" xlink:href="#K"/><use transform="matrix(0.17247639796659384,0,0,0.17247639796659384,193.0010893246185,0)" xlink:href="#C"/><use transform="matrix(0.17247639796659384,0,0,0.17247639796659384,227.49636891793728,0)" xlink:href="#ag"/></g><g id="u"><use transform="matrix(0.24691358024691357,0,0,0.24691358024691357,0,0)" xlink:href="#af"/><use transform="matrix(0.24691358024691357,0,0,0.24691358024691357,73.82716049382715,0)" xlink:href="#A"/><use transform="matrix(0.24691358024691357,0,0,0.24691358024691357,93.33333333333331,0)" xlink:href="#H"/><use transform="matrix(0.24691358024691357,0,0,0.24691358024691357,137.77777777777777,0)" xlink:href="#G"/><use transform="matrix(0.24691358024691357,0,0,0.24691358024691357,167.16049382716048,0)" xlink:href="#ac"/><use transform="matrix(0.24691358024691357,0,0,0.24691358024691357,216.5432098765432,0)" xlink:href="#an"/><use transform="matrix(0.24691358024691357,0,0,0.24691358024691357,260.98765432098764,0)" xlink:href="#K"/><use transform="matrix(0.24691358024691357,0,0,0.24691358024691357,310.3703703703704,0)" xlink:href="#G"/><use transform="matrix(0.24691358024691357,0,0,0.24691358024691357,339.7530864197531,0)" xlink:href="#C"/><use transform="matrix(0.24691358024691357,0,0,0.24691358024691357,389.13580246913585,0)" xlink:href="#K"/><use transform="matrix(0.24691358024691357,0,0,0.24691358024691357,438.5185185185186,0)" xlink:href="#B"/></g><g id="v"><use transform="matrix(0.24691358024691357,0,0,0.24691358024691357,0,0)" xlink:href="#ad"/><use transform="matrix(0.24691358024691357,0,0,0.24691358024691357,49.382716049382715,0)" xlink:href="#B"/><use transform="matrix(0.24691358024691357,0,0,0.24691358024691357,68.88888888888889,0)" xlink:href="#A"/><use transform="matrix(0.24691358024691357,0,0,0.24691358024691357,88.39506172839506,0)" xlink:href="#an"/><use transform="matrix(0.24691358024691357,0,0,0.24691358024691357,132.8395061728395,0)" xlink:href="#K"/></g><use transform="matrix(0.24691358024691357,0,0,0.24691358024691357,0,0)" xlink:href="#E" id="w"/><g id="x"><use transform="matrix(0.24691358024691357,0,0,0.24691358024691357,0,0)" xlink:href="#J"/><use transform="matrix(0.24691358024691357,0,0,0.24691358024691357,49.382716049382715,0)" xlink:href="#K"/><use transform="matrix(0.24691358024691357,0,0,0.24691358024691357,98.76543209876543,0)" xlink:href="#ae"/><use transform="matrix(0.24691358024691357,0,0,0.24691358024691357,148.14814814814815,0)" xlink:href="#K"/><use transform="matrix(0.24691358024691357,0,0,0.24691358024691357,197.53086419753086,0)" xlink:href="#C"/><use transform="matrix(0.24691358024691357,0,0,0.24691358024691357,246.91358024691357,0)" xlink:href="#J"/><use transform="matrix(0.24691358024691357,0,0,0.24691358024691357,296.2962962962963,0)" xlink:href="#K"/><use transform="matrix(0.24691358024691357,0,0,0.24691358024691357,345.67901234567904,0)" xlink:href="#C"/><use transform="matrix(0.24691358024691357,0,0,0.24691358024691357,395.0617283950618,0)" xlink:href="#H"/><use transform="matrix(0.24691358024691357,0,0,0.24691358024691357,439.50617283950623,0)" xlink:href="#ao"/></g><path d="M24-231v-30h32v30H24zM-9 49c24 4 33-6 33-30v-209h32V24c2 40-23 58-65 49V49" id="ap"/><g id="y"><use transform="matrix(0.24691358024691357,0,0,0.24691358024691357,0,0)" xlink:href="#A"/><use transform="matrix(0.24691358024691357,0,0,0.24691358024691357,19.50617283950617,0)" xlink:href="#C"/><use transform="matrix(0.24691358024691357,0,0,0.24691358024691357,68.88888888888889,0)" xlink:href="#ap"/><use transform="matrix(0.24691358024691357,0,0,0.24691358024691357,88.39506172839506,0)" xlink:href="#K"/><use transform="matrix(0.24691358024691357,0,0,0.24691358024691357,137.77777777777777,0)" xlink:href="#H"/><use transform="matrix(0.24691358024691357,0,0,0.24691358024691357,182.22222222222223,0)" xlink:href="#ag"/><use transform="matrix(0.24691358024691357,0,0,0.24691358024691357,206.9135802469136,0)" xlink:href="#A"/><use transform="matrix(0.24691358024691357,0,0,0.24691358024691357,226.41975308641977,0)" xlink:href="#ac"/><use transform="matrix(0.24691358024691357,0,0,0.24691358024691357,275.8024691358025,0)" xlink:href="#C"/></g></defs></g></svg>