<svg xmlns="http://www.w3.org/2000/svg" xmlns:xlink="http://www.w3.org/1999/xlink" xmlns:lucid="lucid" width="3520" height="2315"><g transform="translate(-25620 -15000)" lucid:page-tab-id="4DoKV64_rf~x"><path d="M25500 15000h4000v2500h-4000z" fill="#fff"/><path d="M25640 15026c0-3.3 2.7-6 6-6h900c3.3 0 6 2.7 6 6v318c0 3.3-2.7 6-6 6h-900c-3.3 0-6-2.7-6-6z" stroke="#000" fill="#e5e5e5"/><use xlink:href="#a" transform="matrix(1,0,0,1,25652,15032) translate(9.432098765432102 174.9513888888889)"/><path d="M25795.9 15766c0-3.3 2.67-6 6-6h2304.6c3.3 0 6 2.7 6 6v948c0 3.3-2.7 6-6 6h-2304.6c-3.33 0-6-2.7-6-6z" stroke="#000" stroke-width="9" fill="#fff" fill-opacity="0"/><use xlink:href="#b" transform="matrix(1,0,0,1,25800.88690902384,15765) translate(0 71.11111111111111)"/><path d="M25665.97 15352.9c0 1.38-1.12 2.5-2.5 2.5s-2.5-1.12-2.5-2.5 1.12-2.5 2.5-2.5 2.5 1.12 2.5 2.5zm2.87 9.64c0 1.38-1.12 2.5-2.5 2.5s-2.5-1.12-2.5-2.5 1.12-2.5 2.5-2.5 2.5 1.12 2.5 2.5zm2.88 9.65c0 1.37-1.12 2.5-2.5 2.5s-2.5-1.13-2.5-2.5c0-1.4 1.12-2.5 2.5-2.5s2.5 1.1 2.5 2.5zm2.88 9.63c0 1.38-1.12 2.5-2.5 2.5s-2.5-1.12-2.5-2.5 1.12-2.5 2.5-2.5 2.5 1.12 2.5 2.5zm2.87 9.65c0 1.38-1.12 2.5-2.5 2.5s-2.5-1.12-2.5-2.5 1.12-2.5 2.5-2.5 2.5 1.12 2.5 2.5zm2.88 9.65c0 1.38-1.12 2.5-2.5 2.5s-2.5-1.12-2.5-2.5 1.12-2.5 2.5-2.5 2.5 1.12 2.5 2.5zm2.88 9.64c0 1.38-1.12 2.5-2.5 2.5s-2.5-1.12-2.5-2.5 1.12-2.5 2.5-2.5 2.5 1.12 2.5 2.5zm2.87 9.65c0 1.38-1.12 2.5-2.5 2.5s-2.5-1.12-2.5-2.5 1.12-2.5 2.5-2.5 2.5 1.12 2.5 2.5zm2.88 9.64c0 1.4-1.12 2.5-2.5 2.5s-2.5-1.1-2.5-2.5c0-1.38 1.12-2.5 2.5-2.5s2.5 1.12 2.5 2.5zm2.88 9.65c0 1.4-1.12 2.5-2.5 2.5s-2.5-1.1-2.5-2.5c0-1.37 1.12-2.5 2.5-2.5s2.5 1.13 2.5 2.5zm2.87 9.66c0 1.38-1.12 2.5-2.5 2.5s-2.5-1.12-2.5-2.5 1.12-2.5 2.5-2.5 2.5 1.12 2.5 2.5zm2.88 9.64c0 1.38-1.1 2.5-2.5 2.5-1.37 0-2.5-1.12-2.5-2.5s1.13-2.5 2.5-2.5c1.4 0 2.5 1.12 2.5 2.5zm2.9 9.65c0 1.38-1.13 2.5-2.5 2.5-1.4 0-2.5-1.12-2.5-2.5s1.1-2.5 2.5-2.5c1.37 0 2.5 1.12 2.5 2.5zm2.86 9.65c0 1.38-1.12 2.5-2.5 2.5s-2.5-1.12-2.5-2.5c0-1.4 1.12-2.5 2.5-2.5s2.5 1.1 2.5 2.5zm2.88 9.64c0 1.38-1.12 2.5-2.5 2.5s-2.5-1.12-2.5-2.5 1.12-2.5 2.5-2.5 2.5 1.12 2.5 2.5zm2.88 9.65c0 1.37-1.12 2.5-2.5 2.5-1.4 0-2.5-1.13-2.5-2.5 0-1.4 1.1-2.5 2.5-2.5 1.38 0 2.5 1.1 2.5 2.5zm2.87 9.63c0 1.38-1.13 2.5-2.5 2.5-1.4 0-2.5-1.12-2.5-2.5s1.1-2.5 2.5-2.5c1.37 0 2.5 1.12 2.5 2.5zm2.87 9.65c0 1.38-1.12 2.5-2.5 2.5s-2.5-1.12-2.5-2.5 1.12-2.5 2.5-2.5 2.5 1.12 2.5 2.5zm2.88 9.65c0 1.38-1.12 2.5-2.5 2.5-1.4 0-2.5-1.12-2.5-2.5s1.1-2.5 2.5-2.5c1.38 0 2.5 1.12 2.5 2.5zm2.87 9.64c0 1.38-1.12 2.5-2.5 2.5s-2.5-1.12-2.5-2.5 1.12-2.5 2.5-2.5 2.5 1.12 2.5 2.5zm2.88 9.65c0 1.38-1.12 2.5-2.5 2.5s-2.5-1.12-2.5-2.5 1.12-2.5 2.5-2.5 2.5 1.12 2.5 2.5zm2.88 9.64c0 1.4-1.12 2.5-2.5 2.5-1.4 0-2.5-1.1-2.5-2.5 0-1.38 1.1-2.5 2.5-2.5 1.38 0 2.5 1.12 2.5 2.5zm2.87 9.65c0 1.4-1.12 2.5-2.5 2.5s-2.5-1.1-2.5-2.5c0-1.37 1.12-2.5 2.5-2.5s2.5 1.13 2.5 2.5zm2.88 9.66c0 1.38-1.12 2.5-2.5 2.5s-2.5-1.12-2.5-2.5 1.12-2.5 2.5-2.5 2.5 1.12 2.5 2.5zm2.87 9.64c0 1.38-1.1 2.5-2.5 2.5-1.38 0-2.5-1.12-2.5-2.5s1.12-2.5 2.5-2.5c1.4 0 2.5 1.12 2.5 2.5zm2.88 9.65c0 1.38-1.12 2.5-2.5 2.5s-2.5-1.12-2.5-2.5 1.12-2.5 2.5-2.5 2.5 1.12 2.5 2.5zm2.88 9.65c0 1.38-1.12 2.5-2.5 2.5s-2.5-1.12-2.5-2.5c0-1.4 1.12-2.5 2.5-2.5s2.5 1.1 2.5 2.5zm2.87 9.64c0 1.38-1.1 2.5-2.5 2.5-1.38 0-2.5-1.12-2.5-2.5s1.12-2.5 2.5-2.5c1.4 0 2.5 1.12 2.5 2.5zm2.88 9.65c0 1.37-1.1 2.5-2.5 2.5-1.37 0-2.5-1.13-2.5-2.5 0-1.4 1.13-2.5 2.5-2.5 1.4 0 2.5 1.1 2.5 2.5zm2.9 9.63c0 1.38-1.13 2.5-2.5 2.5-1.4 0-2.5-1.12-2.5-2.5s1.1-2.5 2.5-2.5c1.37 0 2.5 1.12 2.5 2.5zm2.86 9.65c0 1.38-1.1 2.5-2.5 2.5-1.38 0-2.5-1.12-2.5-2.5s1.12-2.5 2.5-2.5c1.4 0 2.5 1.12 2.5 2.5zm2.88 9.65c0 1.38-1.12 2.5-2.5 2.5s-2.5-1.12-2.5-2.5 1.12-2.5 2.5-2.5 2.5 1.12 2.5 2.5zm2.88 9.64c0 1.38-1.12 2.5-2.5 2.5s-2.5-1.12-2.5-2.5 1.12-2.5 2.5-2.5 2.5 1.12 2.5 2.5zm2.87 9.65c0 1.38-1.12 2.5-2.5 2.5-1.4 0-2.5-1.12-2.5-2.5s1.1-2.5 2.5-2.5c1.38 0 2.5 1.12 2.5 2.5zm2.87 9.64c0 1.4-1.12 2.5-2.5 2.5s-2.5-1.1-2.5-2.5c0-1.38 1.12-2.5 2.5-2.5s2.5 1.12 2.5 2.5zm2.88 9.65c0 1.4-1.12 2.5-2.5 2.5s-2.5-1.1-2.5-2.5c0-1.37 1.12-2.5 2.5-2.5s2.5 1.13 2.5 2.5zm2.87 9.66c0 1.38-1.12 2.5-2.5 2.5s-2.5-1.12-2.5-2.5 1.12-2.5 2.5-2.5 2.5 1.12 2.5 2.5zm2.88 9.64c0 1.38-1.12 2.5-2.5 2.5s-2.5-1.12-2.5-2.5 1.12-2.5 2.5-2.5 2.5 1.12 2.5 2.5zm2.88 9.65c0 1.38-1.12 2.5-2.5 2.5s-2.5-1.12-2.5-2.5 1.12-2.5 2.5-2.5 2.5 1.12 2.5 2.5zm2.87 9.65c0 1.38-1.12 2.5-2.5 2.5s-2.5-1.12-2.5-2.5c0-1.4 1.12-2.5 2.5-2.5s2.5 1.1 2.5 2.5zm2.88 9.64c0 1.38-1.12 2.5-2.5 2.5s-2.5-1.12-2.5-2.5 1.12-2.5 2.5-2.5 2.5 1.12 2.5 2.5zm2.88 9.65c0 1.37-1.1 2.5-2.5 2.5-1.37 0-2.5-1.13-2.5-2.5 0-1.4 1.13-2.5 2.5-2.5 1.4 0 2.5 1.1 2.5 2.5z" fill="#5e5e5e"/><path d="M25665.88 15352.24l-4.8 1.43-.94-3.17h5.22z" fill="#5e5e5e"/><path d="M25789.07 15774.1l-8.5-12.35 8.87-2.64z" stroke="#5e5e5e" stroke-width="5" fill="#5e5e5e"/><path d="M28071.74 15739.34l.73 1.77-.73 1.78-1.77.73-1.77-.72-.73-1.77.73-1.76 1.77-.73zm-9.13-4.13l.74 1.77-.73 1.77-1.76.73-1.77-.73-.73-1.77.73-1.76 1.77-.73zm-9.12-4.13l.73 1.77-.72 1.77-1.77.74-1.75-.73-.74-1.76.75-1.77 1.76-.73zm-9.13-4.13l.74 1.76-.75 1.77-1.76.73-1.78-.73-.73-1.77.72-1.76 1.77-.74zm-9.12-4.14l.73 1.77-.73 1.77-1.77.73-1.77-.73-.74-1.77.73-1.77 1.76-.73zm-9.13-4.13l.73 1.77-.73 1.76-1.77.74-1.77-.74-.73-1.76.73-1.77 1.77-.73zm-9.13-4.14l.73 1.77-.73 1.77-1.77.73-1.76-.73-.74-1.77.74-1.77 1.76-.73zm-9.13-4.13l.74 1.77-.74 1.76-1.76.74-1.77-.74-.72-1.76.73-1.77 1.78-.73zm-9.12-4.14l.73 1.77-.73 1.77-1.77.73-1.77-.73-.73-1.77.73-1.77 1.77-.73zm-9.13-4.13l.72 1.77-.73 1.76-1.78.74-1.77-.74-.73-1.76.73-1.77 1.77-.73zm-9.14-4.14l.73 1.76-.74 1.77-1.77.73-1.77-.73-.74-1.77.73-1.77 1.76-.74zm-9.13-4.14l.74 1.77-.74 1.76-1.76.73-1.77-.74-.73-1.77.73-1.77 1.77-.73zm-9.12-4.14l.74 1.77-.73 1.76-1.76.73-1.77-.74-.73-1.77.73-1.78 1.77-.73zm-9.12-4.13l.73 1.76-.72 1.77-1.77.73-1.76-.73-.73-1.77.74-1.77 1.77-.74zm-9.13-4.14l.73 1.76-.73 1.77-1.77.72-1.76-.73-.74-1.78.74-1.76 1.76-.74zm-9.13-4.14l.74 1.77-.74 1.76-1.76.73-1.77-.74-.74-1.77.73-1.78 1.76-.73zm-9.12-4.13l.73 1.75-.73 1.77-1.77.73-1.77-.73-.73-1.77.73-1.76 1.77-.75zm-9.13-4.15l.73 1.77-.73 1.77-1.77.72-1.77-.73-.73-1.78.73-1.77 1.77-.73zm-9.13-4.13l.73 1.76-.73 1.77-1.77.73-1.77-.73-.73-1.77.73-1.76 1.77-.74zm-9.13-4.14l.74 1.77-.73 1.77-1.76.73-1.76-.73-.74-1.77.74-1.77 1.76-.73zm-9.12-4.13l.74 1.76-.74 1.78-1.76.73-1.77-.72-.73-1.77.73-1.75 1.77-.74zm-9.12-4.14l.73 1.78-.74 1.77-1.77.73-1.78-.73-.73-1.77.72-1.77 1.77-.72zm-9.13-4.12l.73 1.77-.73 1.76-1.77.75-1.77-.74-.74-1.75.73-1.77 1.76-.73zm-9.13-4.14l.73 1.77-.73 1.78-1.77.73-1.76-.72-.74-1.77.74-1.76 1.76-.73zm-9.13-4.13l.74 1.78-.73 1.76-1.76.74-1.76-.74-.73-1.76.74-1.77 1.77-.72zm-9.12-4.13l.73 1.77-.73 1.77-1.77.74-1.77-.73-.72-1.76.73-1.77 1.78-.73zm-9.13-4.13l.73 1.77-.73 1.77-1.77.74-1.77-.73-.73-1.76.73-1.76 1.77-.73zm-9.13-4.14l.72 1.77-.73 1.77-1.78.73-1.76-.73-.74-1.77.74-1.77 1.76-.73zm-9.14-4.13l.74 1.77-.74 1.76-1.76.74-1.77-.74-.73-1.76.73-1.77 1.77-.73zm-9.12-4.14l.73 1.77-.73 1.77-1.77.73-1.77-.73-.73-1.77.73-1.77 1.77-.73zm-9.13-4.13l.74 1.77-.73 1.76-1.76.74-1.77-.74-.73-1.76.73-1.77 1.77-.73zm-9.12-4.14l.73 1.77-.72 1.77-1.77.73-1.76-.73-.73-1.77.74-1.77 1.77-.73zm-9.13-4.13l.73 1.77-.73 1.77-1.77.73-1.76-.73-.74-1.77.74-1.77 1.76-.73zm-9.13-4.13l.74 1.76-.74 1.77-1.76.73-1.77-.73-.74-1.77.73-1.76 1.76-.74zm-9.12-4.14l.73 1.77-.73 1.77-1.77.73-1.77-.73-.73-1.77.73-1.77 1.77-.73zm-9.13-4.13l.73 1.76-.73 1.76-1.77.73-1.77-.74-.73-1.77.73-1.77 1.77-.74zm-9.13-4.14l.73 1.76-.73 1.77-1.77.73-1.76-.73-.73-1.77.74-1.77 1.77-.74zm-9.13-4.14l.75 1.76-.74 1.77-1.75.72-1.77-.73-.73-1.78.73-1.76 1.77-.74zm-9.1-4.14l.72 1.77-.73 1.76-1.78.73-1.77-.74-.73-1.77.73-1.78 1.77-.73zm-9.14-4.13l.73 1.75-.74 1.77-1.77.73-1.78-.73-.73-1.77.72-1.76 1.77-.75zm-9.13-4.15l.73 1.77-.73 1.77-1.77.72-1.76-.73-.74-1.78.74-1.77 1.76-.73zm-9.13-4.13l.74 1.77-.74 1.75-1.76.74-1.77-.75-.73-1.76.73-1.78 1.77-.73zm-9.12-4.14l.73 1.77-.72 1.77-1.77.73-1.76-.73-.73-1.77.74-1.77 1.77-.73zm-9.13-4.13l.73 1.77-.73 1.76-1.77.74-1.77-.74-.72-1.76.73-1.77 1.78-.73zm-9.13-4.14l.73 1.78-.73 1.77-1.77.73-1.76-.73-.75-1.77.74-1.77 1.75-.72zm-9.13-4.12l.73 1.77-.74 1.76-1.77.75-1.77-.74-.73-1.75.73-1.77 1.77-.73zm-9.13-4.14l.73 1.77-.73 1.78-1.77.73-1.77-.72-.73-1.77.73-1.76 1.77-.73zm-9.13-4.13l.73 1.78-.73 1.76-1.77.74-1.77-.74-.73-1.76.73-1.77 1.77-.72zm-9.13-4.13l.74 1.77-.73 1.77-1.76.74-1.77-.73-.73-1.76.73-1.77 1.77-.73zm-9.12-4.13l.73 1.77-.72 1.78-1.77.73-1.75-.72-.74-1.77.75-1.76 1.76-.73zm-9.13-4.14l.74 1.77-.75 1.77-1.76.73-1.78-.73-.73-1.77.72-1.77 1.77-.73zm-9.12-4.13l.73 1.77-.73 1.77-1.77.74-1.77-.73-.74-1.76.73-1.77 1.76-.73zm-9.13-4.13l.73 1.76-.73 1.77-1.77.73-1.77-.73-.73-1.77.73-1.76 1.77-.74zm-9.13-4.14l.73 1.77-.73 1.77-1.77.73-1.76-.73-.74-1.77.74-1.77 1.76-.73zm-9.13-4.13l.74 1.76-.74 1.77-1.76.73-1.77-.73-.72-1.77.73-1.76 1.78-.74zm-9.12-4.14l.73 1.77-.73 1.77-1.77.73-1.77-.73-.73-1.77.73-1.77 1.77-.73zm-9.13-4.13l.72 1.76-.73 1.77-1.78.73-1.77-.73-.73-1.77.73-1.76 1.77-.74zm-9.14-4.14l.73 1.77-.74 1.77-1.77.73-1.77-.73-.74-1.77.73-1.77 1.76-.73zm-9.13-4.13l.74 1.76-.74 1.76-1.76.73-1.77-.74-.73-1.77.73-1.77 1.77-.74zm-9.12-4.14l.74 1.76-.73 1.77-1.76.73-1.77-.73-.73-1.77.73-1.77 1.77-.74zm-9.12-4.14l.73 1.77-.72 1.76-1.77.73-1.76-.74-.73-1.77.74-1.77 1.77-.73zm-9.13-4.14l.73 1.77-.73 1.76-1.77.73-1.77-.74-.72-1.77.73-1.78 1.78-.73zm-9.13-4.13l.73 1.76-.73 1.76-1.77.74-1.76-.74-.75-1.76.74-1.77 1.75-.74zm-9.13-4.15l.73 1.77-.74 1.77-1.77.72-1.77-.73-.73-1.78.73-1.77 1.77-.73zm-9.13-4.13l.73 1.77-.73 1.75-1.77.74-1.77-.75-.73-1.76.73-1.78 1.77-.73zm-9.13-4.14l.73 1.77-.73 1.77-1.77.73-1.77-.73-.73-1.77.73-1.77 1.77-.73zm-9.13-4.13l.74 1.77-.73 1.76-1.76.74-1.76-.74-.74-1.76.74-1.77 1.76-.73zm-9.12-4.14l.74 1.78-.74 1.77-1.76.73-1.77-.73-.73-1.77.73-1.77 1.77-.72zm-9.12-4.12l.73 1.77-.74 1.77-1.77.73-1.78-.73-.73-1.77.72-1.77 1.77-.73zm-9.13-4.13l.73 1.76-.73 1.78-1.77.73-1.77-.72-.74-1.77.73-1.75 1.76-.74zm-9.13-4.14l.73 1.78-.73 1.77-1.77.73-1.76-.73-.74-1.77.74-1.77 1.76-.72zm-9.13-4.12l.74 1.76-.73 1.77-1.76.74-1.76-.73-.73-1.76.74-1.76 1.77-.74zm-9.12-4.14l.73 1.77-.73 1.78-1.77.73-1.77-.72-.72-1.77.73-1.76 1.78-.73zm-9.13-4.13l.73 1.77-.73 1.77-1.77.73-1.77-.73-.73-1.77.73-1.76 1.77-.73zm-9.13-4.13l.72 1.77-.73 1.77-1.78.74-1.77-.73-.73-1.76.73-1.77 1.77-.73zm-9.14-4.13l.74 1.76-.74 1.77-1.76.73-1.77-.73-.73-1.77.73-1.76 1.77-.74zm-9.12-4.14l.73 1.77-.73 1.77-1.77.73-1.77-.73-.73-1.77.73-1.77 1.77-.73zm-9.13-4.13l.74 1.77-.73 1.76-1.76.74-1.77-.74-.73-1.76.73-1.77 1.77-.73zm-9.12-4.14l.73 1.77-.72 1.77-1.77.73-1.76-.73-.73-1.77.74-1.77 1.77-.73zm-9.13-4.13l.73 1.77-.73 1.76-1.77.74-1.76-.74-.74-1.76.74-1.77 1.76-.73zm-9.13-4.14l.74 1.77-.74 1.77-1.76.73-1.77-.73-.74-1.77.73-1.77 1.76-.73zm-9.12-4.13l.73 1.77-.73 1.76-1.77.74-1.77-.74-.73-1.76.73-1.77 1.77-.73zm-9.13-4.14l.73 1.76-.73 1.77-1.77.73-1.77-.73-.73-1.77.73-1.77 1.77-.74zm-9.13-4.14l.73 1.77-.73 1.76-1.77.73-1.76-.74-.73-1.77.74-1.77 1.77-.73zm-9.13-4.14l.75 1.77-.74 1.76-1.75.73-1.77-.74-.73-1.77.73-1.78 1.77-.73zm-9.1-4.13l.72 1.76-.73 1.76-1.78.74-1.77-.74-.73-1.76.73-1.77 1.77-.74zm-9.14-4.15l.73 1.77-.74 1.77-1.77.72-1.78-.73-.73-1.78.72-1.77 1.77-.73zm-9.13-4.13l.73 1.77-.73 1.76-1.77.73-1.76-.74-.74-1.77.74-1.78 1.76-.73zm-9.13-4.13l.74 1.75-.74 1.77-1.76.73-1.77-.73-.73-1.77.73-1.76 1.77-.75zm-9.12-4.15l.73 1.77-.72 1.77-1.77.72-1.76-.73-.73-1.78.74-1.77 1.77-.73zm-9.13-4.13l.73 1.76-.73 1.77-1.77.73-1.77-.73-.72-1.77.73-1.76 1.78-.74zm-9.13-4.14l.73 1.77-.73 1.77-1.77.73-1.77-.73-.73-1.77.73-1.77 1.77-.73zm-9.13-4.13l.72 1.76-.73 1.78-1.78.73-1.76-.72-.74-1.77.74-1.75 1.76-.74zm-9.14-4.14l.74 1.78-.74 1.77-1.76.73-1.77-.73-.73-1.77.73-1.77 1.77-.72zm-9.12-4.12l.73 1.76-.73 1.77-1.77.74-1.77-.73-.73-1.76.73-1.76 1.77-.74zm-9.13-4.14l.74 1.77-.73 1.78-1.76.73-1.77-.72-.73-1.77.73-1.76 1.77-.73zm-9.12-4.13l.73 1.78-.72 1.76-1.77.74-1.75-.74-.74-1.76.75-1.77 1.76-.72zm-9.13-4.13l.74 1.77-.75 1.77-1.76.74-1.78-.73-.73-1.76.72-1.77 1.77-.73zm-9.12-4.13l.73 1.77-.73 1.77-1.77.74-1.77-.73-.74-1.76.73-1.76 1.76-.73zm-9.13-4.14l.73 1.77-.73 1.77-1.77.73-1.77-.73-.73-1.77.73-1.77 1.77-.73zm-9.13-4.13l.73 1.77-.73 1.76-1.77.74-1.76-.74-.74-1.76.74-1.77 1.76-.73zm-9.13-4.14l.74 1.77-.74 1.77-1.76.73-1.77-.73-.72-1.77.73-1.77 1.78-.73zm-9.12-4.13l.73 1.77-.73 1.76-1.77.74-1.77-.74-.73-1.76.73-1.77 1.77-.73zm-9.13-4.14l.72 1.77-.73 1.77-1.78.73-1.77-.73-.73-1.77.73-1.77 1.77-.73zm-9.14-4.13l.73 1.77-.74 1.77-1.77.73-1.78-.73-.73-1.77.72-1.77 1.77-.73zm-9.13-4.14l.74 1.76-.74 1.77-1.76.73-1.77-.73-.73-1.77.73-1.77 1.77-.74zm-9.12-4.14l.74 1.77-.73 1.77-1.76.73-1.77-.73-.73-1.77.73-1.77 1.77-.73zm-9.12-4.13l.73 1.76-.72 1.76-1.77.73-1.76-.74-.73-1.77.74-1.77 1.77-.74zm-9.13-4.14l.73 1.76-.73 1.77-1.77.73-1.77-.73-.72-1.77.73-1.77 1.78-.74zm-9.13-4.14l.73 1.76-.73 1.77-1.77.72-1.76-.73-.75-1.78.74-1.76 1.75-.74zm-9.13-4.14l.73 1.77-.74 1.76-1.77.73-1.77-.74-.73-1.77.73-1.78 1.77-.73zm-9.13-4.13l.73 1.75-.73 1.77-1.77.73-1.77-.73-.73-1.77.73-1.76 1.77-.75zm-9.13-4.15l.73 1.77-.73 1.77-1.77.72-1.77-.73-.73-1.78.73-1.77 1.77-.73zm-9.13-4.13l.74 1.76-.73 1.77-1.76.73-1.76-.73-.74-1.77.74-1.76 1.76-.74zm-9.12-4.14l.74 1.77-.74 1.77-1.76.73-1.77-.73-.73-1.77.73-1.77 1.77-.73zm-9.12-4.13l.73 1.77-.74 1.76-1.77.74-1.78-.74-.73-1.76.72-1.77 1.77-.73zm-9.13-4.14l.73 1.78-.73 1.77-1.77.73-1.77-.73-.74-1.77.73-1.77 1.76-.72zm-9.13-4.12l.73 1.77-.73 1.76-1.77.75-1.76-.74-.74-1.75.74-1.77 1.76-.73zm-9.13-4.14l.74 1.77-.73 1.78-1.76.73-1.76-.72-.73-1.77.74-1.76 1.77-.73zm-9.12-4.13l.73 1.78-.73 1.76-1.77.74-1.77-.74-.72-1.76.73-1.77 1.78-.72zm-9.13-4.13l.73 1.77-.73 1.77-1.77.74-1.77-.73-.73-1.76.73-1.77 1.77-.73zm-9.13-4.13l.72 1.77-.73 1.77-1.78.74-1.77-.73-.73-1.76.73-1.76 1.77-.73zm-9.14-4.14l.73 1.77-.74 1.77-1.77.73-1.77-.73-.74-1.77.73-1.77 1.76-.73zm-9.13-4.13l.74 1.77-.74 1.77-1.76.74-1.77-.73-.73-1.76.73-1.77 1.77-.73zm-9.12-4.13l.74 1.76-.73 1.77-1.76.73-1.77-.73-.73-1.77.73-1.76 1.77-.74zm-9.12-4.14l.73 1.77-.72 1.77-1.77.73-1.76-.73-.73-1.77.74-1.77 1.77-.73zm-9.13-4.13l.73 1.76-.73 1.77-1.77.73-1.76-.73-.74-1.77.74-1.76 1.76-.74zm-9.13-4.14l.74 1.77-.74 1.77-1.76.73-1.77-.73-.74-1.77.73-1.77 1.76-.73zm-9.12-4.13l.73 1.76-.73 1.77-1.77.73-1.77-.73-.73-1.77.73-1.76 1.77-.74zm-9.13-4.14l.73 1.77-.73 1.77-1.77.73-1.77-.73-.73-1.77.73-1.77 1.77-.73zm-9.13-4.13l.73 1.76-.73 1.76-1.77.73-1.76-.74-.73-1.77.74-1.77 1.77-.74zm-9.13-4.14l.75 1.76-.74 1.77-1.75.73-1.77-.73-.73-1.77.73-1.77 1.77-.74zm-9.1-4.14l.72 1.77-.73 1.76-1.78.73-1.77-.74-.73-1.77.73-1.77 1.77-.73zm-9.14-4.14l.73 1.77-.74 1.76-1.77.73-1.78-.74-.73-1.77.72-1.78 1.77-.73zm-9.13-4.13l.73 1.76-.73 1.76-1.77.74-1.77-.74-.74-1.76.73-1.77 1.76-.74zm-9.13-4.15l.73 1.77-.73 1.77-1.77.72-1.76-.73-.74-1.78.74-1.77 1.76-.73zm-9.12-4.13l.73 1.77-.72 1.75-1.77.74-1.76-.75-.73-1.76.74-1.78 1.77-.73zm-9.13-4.14l.73 1.77-.73 1.77-1.77.73-1.77-.73-.72-1.77.73-1.77 1.78-.73zm-9.13-4.13l.73 1.77-.73 1.76-1.77.74-1.77-.74-.73-1.76.73-1.77 1.77-.73zm-9.13-4.14l.72 1.78-.73 1.77-1.78.73-1.76-.73-.74-1.77.74-1.77 1.76-.72zm-9.14-4.12l.74 1.77-.74 1.76-1.76.75-1.77-.74-.73-1.75.73-1.77 1.77-.73zm-9.12-4.14l.73 1.77-.73 1.78-1.77.73-1.77-.72-.73-1.77.73-1.76 1.77-.73zm-9.13-4.13l.74 1.78-.73 1.77-1.76.73-1.77-.73-.73-1.77.73-1.77 1.77-.72zm-9.12-4.12l.73 1.76-.72 1.77-1.77.74-1.75-.73-.74-1.76.75-1.76 1.76-.74zm-9.13-4.14l.74 1.77-.75 1.78-1.76.73-1.78-.72-.73-1.77.72-1.76 1.77-.73zm-9.12-4.13l.73 1.77-.73 1.77-1.77.73-1.77-.73-.74-1.77.73-1.76 1.76-.73zm-9.13-4.13l.73 1.77-.73 1.77-1.77.74-1.77-.73-.73-1.76.73-1.77 1.77-.73zm-9.13-4.13l.73 1.76-.73 1.77-1.77.73-1.76-.73-.74-1.77.74-1.76 1.76-.74zm-9.13-4.14l.74 1.77-.74 1.77-1.76.73-1.77-.73-.72-1.77.73-1.77 1.78-.73zm-9.12-4.13l.73 1.76-.73 1.77-1.77.73-1.77-.73-.73-1.77.73-1.76 1.77-.74zm-9.13-4.14l.72 1.77-.73 1.77-1.78.73-1.77-.73-.73-1.77.73-1.77 1.77-.73zm-9.14-4.13l.73 1.77-.74 1.76-1.77.74-1.78-.74-.73-1.76.72-1.77 1.77-.73zm-9.13-4.14l.73 1.77-.73 1.77-1.77.73-1.76-.73-.74-1.77.74-1.77 1.76-.73zm-9.13-4.13l.74 1.77-.74 1.76-1.76.74-1.77-.74-.73-1.76.73-1.77 1.77-.73zm-9.12-4.14l.73 1.76-.72 1.77-1.77.73-1.76-.73-.73-1.77.74-1.77 1.77-.74zm-9.13-4.14l.73 1.77-.73 1.76-1.77.73-1.77-.74-.72-1.77.73-1.77 1.78-.73zm-9.13-4.14l.73 1.77-.73 1.76-1.77.73-1.76-.74-.75-1.77.74-1.78 1.75-.73zm-9.13-4.13l.73 1.76-.74 1.76-1.77.74-1.77-.74-.73-1.76.73-1.77 1.77-.74zm-9.13-4.15l.73 1.77-.73 1.77-1.77.72-1.77-.73-.73-1.78.73-1.77 1.77-.73zm-9.13-4.13l.73 1.77-.73 1.76-1.77.73-1.77-.74-.73-1.77.73-1.78 1.77-.73zm-9.13-4.14l.74 1.77-.73 1.77-1.76.73-1.76-.73-.74-1.77.74-1.77 1.76-.73zm-9.12-4.13l.74 1.77-.74 1.77-1.76.72-1.77-.73-.73-1.78.73-1.77 1.77-.73zm-9.12-4.13l.73 1.76-.74 1.77-1.77.73-1.78-.73-.73-1.77.72-1.76 1.77-.74zm-9.13-4.14l.73 1.77-.73 1.77-1.77.73-1.77-.73-.74-1.77.73-1.77 1.76-.73zm-9.13-4.13l.73 1.76-.73 1.78-1.77.73-1.77-.72-.73-1.77.73-1.75 1.77-.74zm-9.13-4.14l.73 1.78-.73 1.77-1.77.73-1.76-.73-.74-1.77.74-1.77 1.76-.72zm-9.12-4.12l.73 1.76-.73 1.77-1.77.74-1.77-.73-.72-1.76.73-1.76 1.78-.74z" fill="#5e5e5e"/><path d="M26555.87 15052.5l-2.07 4.55-1.3-.6v-5.48zM28094.37 15752.16l-14.9-1.66 3.82-8.45z" fill="#5e5e5e"/><path d="M28101.74 15755.5l-25.97-2.9 6.66-14.7zm-18.58-7.1l3.84.42-2.85-2.6z" fill="#5e5e5e"/><path d="M27427.25 16112.33c0-3.3 2.7-6 6-6h608c3.3 0 6 2.7 6 6v225.34c0 3.3-2.7 6-6 6h-608c-3.3 0-6-2.7-6-6z" stroke="#000" fill="#e5e5e5"/><use xlink:href="#c" transform="matrix(1,0,0,1,27439.25,16118.333333333334) translate(98.37037037037038 71.11111111111111)"/><use xlink:href="#d" transform="matrix(1,0,0,1,27439.25,16118.333333333334) translate(377.6296296296296 71.11111111111111)"/><use xlink:href="#e" transform="matrix(1,0,0,1,27439.25,16118.333333333334) translate(6.518518518518533 177.77777777777777)"/><use xlink:href="#f" transform="matrix(1,0,0,1,27439.25,16118.333333333334) translate(272.69135802469134 177.77777777777777)"/><path d="M26865.87 17113.85c4.32 0 8.82.2 13.5.4 4.68.38 9.36.76 14.04 1.35 4.87.6 9.55 1.37 14.05 2.34 4.68.98 9 2.15 13.14 3.7 1.25.4 2.87.98 5.03 1.96 2.16.78 4.32 1.94 6.3 3.12 1.98 1.16 3.78 2.33 5.22 3.9 1.44 1.36 2.16 2.73 2.16 4.28 0 .6-.17.98-.35 1.56-.18.6-.54.98-1.08 1.56-1.8 2.34-4.5 4.3-7.74 6.05-3.24 1.76-7.02 3.3-11.34 4.5-4.15 1.35-8.65 2.52-13.5 3.3-4.7.97-9.55 1.76-14.23 2.34-4.86.4-9.36.8-13.68 1.18-4.5.2-8.3.4-11.7.4-3.43 0-7.2-.2-11.7-.4-4.33-.4-8.83-.78-13.7-1.17-4.67-.58-9.53-1.36-14.2-2.33-4.87-.78-9.37-1.95-13.5-3.3-4.33-1.2-8.1-2.74-11.35-4.5-3.42-1.76-5.94-3.7-7.74-6.05-.53-.58-.9-.97-1.07-1.56-.18-.58-.36-.97-.36-1.56 0-1.56.72-2.92 2.16-4.3 1.44-1.54 3.24-2.72 5.22-3.88 1.98-1.18 4.14-2.35 6.3-3.13 2.16-.98 3.78-1.56 5.04-1.95 4.13-1.57 8.45-2.74 13.13-3.7 4.5-1 9.18-1.76 14.04-2.35 4.68-.58 9.36-.97 14.04-1.36 4.7-.2 9.2-.4 13.5-.4h.37zm73.44 41.73v21.05c0 1.37-.7 2.93-2.15 4.3-1.44 1.36-3.24 2.72-5.22 3.9-1.98 1.16-4.14 2.14-6.3 3.1-2.16.8-3.78 1.57-5.04 1.96-4.15 1.36-8.47 2.72-13.15 3.5-4.5.98-9.18 1.76-14.04 2.34-4.67.78-9.35 1.17-14.03 1.37-4.68.2-9.18.4-13.68.4s-9-.2-13.7-.4c-4.67-.2-9.35-.58-14.03-1.35-4.86-.6-9.54-1.37-14.04-2.35-4.68-.78-9-2.14-13.14-3.5-1.27-.4-2.9-1.18-5.05-1.96-2.16-.97-4.32-1.94-6.3-3.12-1.98-1.17-3.78-2.53-5.22-3.9-1.44-1.36-2.16-2.92-2.16-4.28v-21.06c4.86 2.53 10.26 4.87 16.38 6.62 6.12 1.95 12.42 3.32 19.08 4.5 6.66.96 13.14 1.74 19.8 2.33 6.48.4 12.6.58 18.36.58 5.75 0 11.87-.18 18.35-.57 6.66-.58 13.14-1.37 19.8-2.34 6.66-1.18 12.96-2.55 19.08-4.5 6.12-1.75 11.52-4.1 16.38-6.63zm0 41.72v21.06c0 1.56-.7 2.93-2.15 4.3-1.44 1.55-3.24 2.72-5.22 3.9-1.98 1.16-4.14 2.14-6.3 3.1-2.16 1-3.78 1.57-5.04 1.96-4.15 1.56-8.3 2.74-12.97 3.7-4.68.8-9.36 1.57-14.04 2.35-4.87.58-9.55.97-14.23 1.17-4.86.4-9.36.4-13.68.4-4.33 0-8.83 0-13.7-.4-4.67-.2-9.35-.6-14.2-1.17l-14.05-2.34c-4.68-.98-8.82-2.15-12.96-3.7-1.27-.4-2.9-.98-5.05-1.96-2.16-.97-4.32-1.94-6.3-3.12-1.98-1.17-3.78-2.34-5.22-3.9-1.44-1.36-2.16-2.73-2.16-4.3v-21.05c4.86 2.74 10.26 5.08 16.56 6.83 6.12 1.75 12.42 3.3 18.9 4.3 6.66 1.16 13.14 1.94 19.8 2.33 6.48.4 12.6.58 18.36.58 5.75 0 11.87-.2 18.35-.58 6.66-.4 13.14-1.17 19.8-2.34 6.48-.97 12.78-2.53 18.9-4.3 6.3-1.74 11.7-4.08 16.56-6.82zm0 41.73v21.06c0 1.56-.7 3.1-2.15 4.48-1.44 1.36-3.24 2.53-5.22 3.7-1.98 1.17-4.14 2.34-6.3 3.13-2.16.98-3.78 1.56-5.04 2.15-4.15 1.36-8.3 2.53-12.97 3.5-4.68.98-9.36 1.76-14.04 2.35-4.87.58-9.55.97-14.23 1.36-4.86.2-9.36.4-13.68.4-4.33 0-8.83-.2-13.7-.4-4.67-.4-9.35-.78-14.2-1.36-4.7-.6-9.37-1.37-14.05-2.34-4.68-.98-8.82-2.15-12.96-3.5-1.27-.6-2.9-1.18-5.05-2.16-2.16-.78-4.32-1.95-6.3-3.12-1.98-1.17-3.78-2.34-5.22-3.7-1.44-1.37-2.16-2.93-2.16-4.5v-21.05c4.86 2.74 10.26 5.07 16.56 6.83 6.12 1.95 12.42 3.3 18.9 4.48 6.66.98 13.14 1.76 19.8 2.15 6.48.57 12.6.77 18.36.77 5.75 0 11.87-.2 18.35-.78 6.66-.4 13.14-1.18 19.8-2.16 6.48-1.17 12.78-2.53 18.9-4.48 6.3-1.76 11.7-4.1 16.56-6.83zm-73.6-139.03c-5.95 0-12.8.2-20.17.78-7.56.6-15.12 1.76-22.68 3.12-7.38 1.56-14.58 3.3-21.42 5.85-6.84 2.34-12.42 5.46-16.74 9.17-2.7 2.14-4.87 4.48-6.5 7.2-1.6 2.55-2.5 5.47-2.5 8.78v125.2c0 3.3.9 6.23 2.5 8.77 1.63 2.73 3.8 5.07 6.5 7.2 4.3 3.72 9.9 6.84 16.73 9.18 6.84 2.53 14.04 4.3 21.42 5.85 7.56 1.36 15.12 2.53 22.68 3.12 7.38.58 14.22.78 20.16.78 5.93 0 12.77-.2 20.15-.78 7.56-.6 15.12-1.76 22.68-3.12 7.38-1.56 14.58-3.32 21.42-5.85 6.84-2.34 12.42-5.46 16.74-9.17 2.7-2.14 4.85-4.48 6.47-7.2 1.62-2.55 2.52-5.47 2.52-8.8v-125.18c0-3.3-.9-6.24-2.53-8.77-1.62-2.73-3.78-5.07-6.48-7.22-4.33-3.7-9.9-6.8-16.75-9.15-6.84-2.53-14.04-4.3-21.42-5.85-7.56-1.37-15.12-2.53-22.68-3.12-7.38-.58-14.22-.78-20.16-.78z" fill="#0c7cba"/><path d="M26862.86 16738.14v348.53M26852.86 16738.14v348.53M26868.04 16746.63l-10.18-17.2-10.18 17.2M26847.68 17078.18l10.18 17.2 10.18-17.2" stroke="#5e5e5e" stroke-width="5" fill="none"/><path d="M28540 15746c0-3.3 2.7-6 6-6h568c3.3 0 6 2.7 6 6v148c0 3.3-2.7 6-6 6h-568c-3.3 0-6-2.7-6-6z" stroke="#000" fill="#e5e5e5"/><use xlink:href="#g" transform="matrix(1,0,0,1,28552,15752) translate(37.72222222222223 88.8888888888889)"/><path d="M28540 16151c0-3.3 2.7-6 6-6h568c3.3 0 6 2.7 6 6v148c0 3.3-2.7 6-6 6h-568c-3.3 0-6-2.7-6-6z" stroke="#000" fill="#e5e5e5"/><use xlink:href="#h" transform="matrix(1,0,0,1,28552,16157) translate(136.33333333333334 88.8888888888889)"/><path d="M25972 17106c0-3.3 2.7-6 6-6h568c3.3 0 6 2.7 6 6v148c0 3.3-2.7 6-6 6h-568c-3.3 0-6-2.7-6-6z" stroke="#000" fill="#e5e5e5"/><use xlink:href="#i" transform="matrix(1,0,0,1,25984,17112) translate(49.75925925925927 88.8888888888889)"/><path d="M28287.6 15979.17l-12.24 11.05-10.48 8.68-9.52 7.23-8.94 6.2-8.56 5.45-8.35 4.82-8.22 4.3-8.2 3.87-8.25 3.46-8.36 3.1-8.54 2.8-8.77 2.44-9.1 2.13-9.46 1.8-9.94 1.47-8.58.9-.52-4.97 8.47-.9 9.73-1.43 9.27-1.76 8.88-2.08 8.6-2.4 8.33-2.7 8.16-3.04 8.04-3.38 8.02-3.77 8.04-4.2 8.17-4.73 8.4-5.32 8.75-6.1 9.35-7.1 10.32-8.55 12.03-10.85 1.96-2.05h6.93zm249.45-156.62l-9.32.2-10.97.68-10.3 1.08-9.72 1.45-9.27 1.76-8.88 2.1-8.6 2.4-8.33 2.7-8.16 3.04-8.04 3.38-8.02 3.77-8.04 4.2-8.17 4.72-8.4 5.32-8.75 6.1-9.35 7.1-10.32 8.55-12.05 10.87-1.6 1.56h-7.13l5.3-5.2 12.22-11.03 10.48-8.68 9.52-7.23 8.94-6.22 8.56-5.44 8.35-4.82 8.22-4.3 8.2-3.87 8.25-3.46 8.36-3.12 8.54-2.78 8.77-2.45 9.1-2.13 9.46-1.8 9.94-1.47 10.5-1.1 11.18-.7 9.42-.2z" fill="#5e5e5e"/><path d="M28539.5 15822.5l-2.52.05-.1-5 2.62-.05zM28139.54 16051.13l-14.46-3.98 14.04-5.28z" fill="#5e5e5e"/><path d="M28142.2 16054.45l-25.2-6.93 24.46-9.2zm-9.04-7.67l3.73 1.03-.12-2.38z" fill="#5e5e5e"/><use xlink:href="#j" transform="matrix(1,0,0,1,28136.766403125082,15893.533975420498) translate(0.0049999999999954525 26.66666666666667)"/><use xlink:href="#k" transform="matrix(1,0,0,1,28136.766403125082,15893.533975420498) translate(260.65314814814815 26.66666666666667)"/><use xlink:href="#l" transform="matrix(1,0,0,1,28136.766403125082,15893.533975420498) translate(338.24574074074076 26.66666666666667)"/><use xlink:href="#m" transform="matrix(1,0,0,1,28136.766403125082,15893.533975420498) translate(130.32907407407407 66.66666666666669)"/><path d="M28217.37 16227.5h-75.5v-5h75.5zm319.62 0h-97.87v-5h97.86z" fill="#5e5e5e"/><path d="M28539.5 16227.5h-2.57v-5h2.57zM28139.36 16229.64l-14.27-4.64 14.26-4.63z" fill="#5e5e5e"/><path d="M28141.86 16233.08l-24.86-8.08 24.86-8.07zm-8.68-8.08l3.68 1.2v-2.4z" fill="#5e5e5e"/><use xlink:href="#n" transform="matrix(1,0,0,1,28217.36720166398,16185.00082603854) translate(0.0049999999999954525 26.66666666666667)"/><use xlink:href="#k" transform="matrix(1,0,0,1,28217.36720166398,16185.00082603854) translate(99.91240740740741 26.66666666666667)"/><use xlink:href="#l" transform="matrix(1,0,0,1,28217.36720166398,16185.00082603854) translate(177.50500000000002 26.66666666666667)"/><use xlink:href="#m" transform="matrix(1,0,0,1,28217.36720166398,16185.00082603854) translate(49.95870370370372 66.66666666666669)"/><path d="M27075.12 16375.23h.38l-8.5 5.9-21.97 16.67-20.35 16.83-18.74 16.87-17.2 16.84-15.72 16.74-14.34 16.6-13.04 16.45-11.83 16.28-10.7 16.1-9.65 15.95-8.68 15.8-7.78 15.67-6.94 15.56-6.13 15.47-5.37 15.43-4.65 15.4-3.95 15.42-3.3 15.45-2.6 15.54-1.76 13.84-4.97-.62 1.76-13.96 2.65-15.74 3.33-15.66 4-15.62 4.72-15.6 5.44-15.63 6.2-15.66 7.02-15.75 7.87-15.87 8.8-15.98 9.76-16.12 10.8-16.28 11.96-16.44 13.17-16.6 14.47-16.77 15.87-16.9 17.35-16.97 18.9-17.02 20.5-16.96 22.14-16.8 11.06-7.68zm349.18-124.24l-12.8.26-17 1.08-18.9 2-20.87 3.08-22.78 4.35-24.6 5.78-26.12 7.3-27.34 8.9-28.1 10.44-28.33 11.9-4.1 1.94v-5.53l2.07-.97 28.53-12 28.28-10.5 27.53-8.97 26.34-7.36 24.8-5.82 22.97-4.4 21.06-3.1 19.1-2.03 17.23-1.1 12.9-.26z" fill="#5e5e5e"/><path d="M27426.75 16250.93l-2.52.06-.1-5 2.62-.07zM26864.23 16702.58l-5.74 13.86-3.5-14.6z" fill="#5e5e5e"/><path d="M26867.86 16700.36l-10 24.14-6.1-25.4zm-8.73 8l1.48-3.56-2.38-.18z" fill="#5e5e5e"/><use xlink:href="#o" transform="matrix(1,0,0,1,27075.118218605054,16295.226914607714) translate(0.005000000000002558 26.66666666666667)"/><use xlink:href="#p" transform="matrix(1,0,0,1,27075.118218605054,16295.226914607714) translate(11.116111111111131 66.66666666666669)"/><path d="M26132 15966c0-3.3 2.7-6 6-6h316c3.3 0 6 2.7 6 6v108c0 3.3-2.7 6-6 6h-316c-3.3 0-6-2.7-6-6z" stroke="#000" fill="#fff"/><use xlink:href="#q" transform="matrix(1,0,0,1,26144,15972) translate(21.62962962962959 53.66666666666667)"/><path d="M25960 16194c0-3.3 2.7-6 6-6h288c3.3 0 6 2.7 6 6v100c0 3.3-2.7 6-6 6h-288c-3.3 0-6-2.7-6-6z" stroke="#000" fill="#fff"/><use xlink:href="#r" transform="matrix(1,0,0,1,25972,16200) translate(67.81481481481481 26.66666666666667)"/><use xlink:href="#s" transform="matrix(1,0,0,1,25972,16200) translate(7.629629629629591 66.66666666666669)"/><path d="M26155.22 16185v-.2l.15-1.3.2-1.25.22-1.25.28-1.22.34-1.2.4-1.22.44-1.2.5-1.2.58-1.22.64-1.23.72-1.24.8-1.26.9-1.3 1.02-1.34 1.15-1.38 1.3-1.45 1.48-1.5 1.7-1.6 1.96-1.7 2.32-1.82 2.74-1.98 3.33-2.2 4.15-2.52 5.42-2.98 7.76-3.84 15.47-6.8 32.62-13.96 7.75-3.84 5.43-2.98 4.16-2.5 3.33-2.22 2.73-2 2.3-1.8.58-.5" stroke="#5e5e5e" stroke-width="5" fill="none"/><path d="M26157.67 16185l-.05 2.5h-5l.06-2.62z" fill="#5e5e5e"/><path d="M26282.78 16083.63l6.25 20.05-20.2 6.5-6.1-20.3z" stroke="#5e5e5e" stroke-width="5" fill="#5e5e5e"/><path d="M26360 16198c0-3.3 2.7-6 6-6h288c3.3 0 6 2.7 6 6v100c0 3.3-2.7 6-6 6h-288c-3.3 0-6-2.7-6-6z" stroke="#000" fill="#fff"/><use xlink:href="#t" transform="matrix(1,0,0,1,26372,16204) translate(75.12962962962962 26.66666666666667)"/><use xlink:href="#u" transform="matrix(1,0,0,1,26372,16204) translate(7.629629629629591 66.66666666666669)"/><path d="M26454.65 16189l-.1-1.52-.2-1.9-.3-1.82-.37-1.77-.44-1.75-.5-1.7-.6-1.7-.68-1.66-.76-1.68-.85-1.67-.97-1.7-1.08-1.7-1.22-1.76-1.4-1.82-1.57-1.88-1.8-1.98-2.12-2.1-2.5-2.26-3-2.5-3.8-2.86-5.06-3.47-8-4.96-32.04-18.7-5.06-3.47-3.78-2.86-3.02-2.5-2.5-2.26-2.1-2.1-1.45-1.56" stroke="#5e5e5e" stroke-width="5" fill="none"/><path d="M26457.23 16191.5h-5l-.06-2.5 5-.12z" fill="#5e5e5e"/><path d="M26357.18 16083.8l19.3 8.3-8.2 19.56-19.4-8.6z" stroke="#5e5e5e" stroke-width="5" fill="#5e5e5e"/><path d="M26160 16386c0-3.3 2.7-6 6-6h648c3.3 0 6 2.7 6 6v225.33c0 3.32-2.7 6-6 6h-648c-3.3 0-6-2.68-6-6z" stroke="#000" fill="#e5e5e5"/><use xlink:href="#v" transform="matrix(1,0,0,1,26172,16392) translate(7.259259259259295 71.11111111111111)"/><use xlink:href="#w" transform="matrix(1,0,0,1,26172,16392) translate(170.09876543209876 177.77777777777777)"/><path d="M26760.35 16377l-.12-5.6-.5-8-.83-7.85-1.12-7.64-1.4-7.35-1.66-7.05-1.87-6.7-2.06-6.35-2.23-5.97-2.35-5.6-2.47-5.24-2.55-4.9-2.63-4.55-2.7-4.24-2.73-3.94-2.77-3.66-2.8-3.4-2.85-3.15-2.87-2.92-2.9-2.7-2.9-2.53-2.95-2.33-2.97-2.16-3-2-3.03-1.83-3.08-1.7-3.1-1.54-3.18-1.42-3.23-1.28-3.28-1.14-3.16-.96" stroke="#5e5e5e" stroke-width="5" fill="none"/><path d="M26762.9 16379.5h-5l-.05-2.5 5-.12z" fill="#5e5e5e"/><path d="M26668.52 16249.08l14.75-2.7-1.23 9.2z" stroke="#5e5e5e" stroke-width="5" fill="#5e5e5e"/><path d="M26262.05 17097l.27-12.83.88-14.15 1.4-13.18 1.8-12.37 2.25-11.72 2.62-11.2 3-10.75 3.4-10.43 3.78-10.2 4.24-10.07 4.72-10.05 5.3-10.13 6-10.4 6.88-10.83 8.1-11.64 9.9-13.04 13.24-15.96 25.3-27.9 47.02-50.9 13.23-15.94 9.9-13.04 8.1-11.64 6.88-10.84 6-10.38 5.3-10.14 4.73-10.05 4.25-10.07 3.8-10.2 3.38-10.43 3-10.76 2.62-11.18 2.24-11.73 1.8-12.38 1.4-13.2.3-4.63" stroke="#5e5e5e" stroke-width="5" fill="none"/><path d="M26264.55 17096.98l-.05 2.52h-5l.05-2.62z" fill="#5e5e5e"/><path d="M26489.7 16625.92l4.1 14.42-9.25-.34z" stroke="#5e5e5e" stroke-width="5" fill="#5e5e5e"/><g><use xlink:href="#x" transform="matrix(1,0,0,1,25789.128584019403,16838.20327902178) translate(0.0049999999999954525 26.66666666666667)"/><use xlink:href="#y" transform="matrix(1,0,0,1,25789.128584019403,16838.20327902178) translate(371.30129629629624 26.66666666666667)"/><use xlink:href="#z" transform="matrix(1,0,0,1,25789.128584019403,16838.20327902178) translate(467.4124074074074 26.66666666666667)"/><use xlink:href="#A" transform="matrix(1,0,0,1,25789.128584019403,16838.20327902178) translate(507.96796296296293 26.66666666666667)"/></g><path d="M26638.23 16964.98l3.94 48.35 3.53 28.27 3.45 20.5 3.4 16.07 3.35 13.1 3.3 10.97 3.27 9.38 3.22 8.14 3.17 7.15 3.15 6.36 3.12 5.68 3.1 5.12 3.08 4.65 3.08 4.25 3.08 3.9 3.1 3.57 3.1 3.3 3.14 3.1 3.18 2.85 3.22 2.67 3.28 2.5 3.36 2.32 3.44 2.18 3.54 2.05 3.65 1.9 3.78 1.78 3.94 1.66 4.1 1.53 4.33 1.4 4.54 1.27 4.8 1.12 5.12.98 5.46.8 5.87.62 6.34.4 4.43.1-.1 5-4.55-.1-6.55-.42-6.08-.63-5.67-.83-5.32-1-5-1.2-4.76-1.32-4.5-1.46-4.32-1.6-4.14-1.75-3.97-1.87-3.84-2-3.72-2.16-3.6-2.3-3.54-2.44-3.45-2.62-3.37-2.8-3.33-3-3.3-3.23-3.24-3.46-3.23-3.74-3.2-4.06-3.22-4.4-3.2-4.83-3.2-5.3-3.22-5.86-3.24-6.54-3.26-7.34-3.3-8.34-3.33-9.58-3.37-11.18-3.4-13.3-3.45-16.25-3.48-20.72-3.56-28.5-3.95-48.5-2.25-36.45h5zm-120.05-345.58l5.16 1.22 4.9 1.36 4.64 1.5 4.44 1.66 4.25 1.8 4.1 1.9 3.94 2.07 3.83 2.22 3.7 2.36 3.63 2.5 3.54 2.7 3.47 2.87 3.4 3.08 3.38 3.3 3.33 3.54 3.3 3.83 3.3 4.15 3.26 4.5 3.27 4.93 3.3 5.4 3.28 6 3.3 6.66 3.33 7.48 3.36 8.5 3.4 9.73 3.4 11.35 3.47 13.5 3.5 16.47 3.5 20.97 3.6 28.78 5.12 83.16h-5l-5.1-82.7-3.56-28.52-3.5-20.75-3.44-16.26-3.4-13.3-3.37-11.15-3.33-9.55-3.27-8.3-3.25-7.28-3.2-6.48-3.2-5.8-3.16-5.24-3.16-4.75-3.15-4.33-3.17-3.98-3.16-3.68-3.2-3.4-3.2-3.15-3.27-2.93-3.3-2.74-3.38-2.56-3.45-2.4-3.53-2.24-3.64-2.1-3.76-1.97-3.9-1.83-4.06-1.7-4.24-1.6-4.45-1.43-4.7-1.3-4.96-1.17-2.93-.56.95-4.9z" fill="#5e5e5e"/><path d="M26775.7 17195v5l-2.64-.05.1-5zM26511.76 16625.65l-13.73-6.04 14.66-3.18z" fill="#5e5e5e"/><path d="M26513.9 16629.32l-23.92-10.52 25.54-5.55zm-7.82-8.9l3.54 1.55.24-2.37z" fill="#5e5e5e"/><g><use xlink:href="#B" transform="matrix(1,0,0,1,26584.269612073265,16888.88114751606) translate(0.005000000000002558 26.66666666666667)"/></g><path d="M27656.95 15205.3l-65.02 10.98-60.77 12.9-56.2 14.43-51.56 15.56-47.02 16.36-42.7 16.9-38.67 17.2-34.96 17.35-31.6 17.37-28.6 17.3-25.84 17.17-23.4 17-21.2 16.8-19.26 16.62-17.48 16.4-15.9 16.23-14.46 16.06-13.16 15.93-12 15.8-10.9 15.7-9.93 15.62-9 15.6-8.16 15.6-7.36 15.65-6.6 15.7-5.9 15.84-5.18 15.98-4.5 16.17-3.86 16.4-3.2 16.72-2.5 17.05-1.84 17.46-.73 11.7-5-.33.75-11.78 1.85-17.67 2.55-17.26 3.23-16.93 3.9-16.62 4.57-16.38 5.25-16.18 5.96-16.03 6.7-15.9 7.43-15.83 8.26-15.8 9.1-15.78 10.05-15.8 11.03-15.88 12.12-15.96 13.3-16.07 14.6-16.22 16.04-16.38 17.64-16.55 19.4-16.74 21.38-16.94 23.57-17.12 26.02-17.28 28.76-17.4 31.8-17.48 35.15-17.44 38.86-17.3 42.9-16.96 47.2-16.43 51.77-15.6 56.42-14.48 60.97-12.95 37.34-6.3h30.48zm560.48 5.36l58.8 12.48 54.2 13.9 49.58 14.95 45.16 15.7 40.97 16.2 37.1 16.5 33.58 16.66 30.4 16.7 27.5 16.63 24.92 16.54 22.6 16.4 20.53 16.27 18.67 16.12 17 15.94 15.47 15.8 14.1 15.7 12.9 15.56 11.76 15.48 10.73 15.43 9.76 15.4 8.9 15.4 8.07 15.44 7.3 15.5 6.56 15.62 5.85 15.74 5.18 15.94 4.5 16.16 3.87 16.44 3.2 16.76 2.53 17.13 1.84 17.58.74 11.73-4.98.3-.73-11.6-1.83-17.38-2.5-16.93-3.16-16.55-3.8-16.24-4.46-15.96-5.1-15.73-5.8-15.57-6.48-15.42-7.2-15.3-7.98-15.25-8.8-15.22-9.66-15.23-10.6-15.26-11.64-15.32-12.75-15.4-13.98-15.53-15.34-15.66-16.83-15.8-18.5-15.97-20.37-16.13-22.43-16.3-24.75-16.42-27.32-16.54-30.2-16.6-33.4-16.55-36.9-16.42-40.78-16.12-44.95-15.64-49.38-14.9-54-13.83-58.6-12.43-62.24-10.5h7.58v-3.8zM28829.75 15731.4l-5.1-14.12 9.28-.3z" fill="#5e5e5e"/><path d="M28830 15739.48l-8.86-24.6 16.15-.5zm-1.82-19.8l1.3 3.63 1.1-3.7zM26959.53 15733.3l-5.08 14.1-4.2-14.4z" fill="#5e5e5e"/><path d="M26963.05 15730.9l-8.86 24.6-7.3-25.1zm-8.35 8.43l1.3-3.64-2.38-.08z" fill="#5e5e5e"/><g><use xlink:href="#C" transform="matrix(1,0,0,1,27616.563461728023,15165.059863656401) translate(0.0049999999999954525 26.66666666666667)"/><use xlink:href="#D" transform="matrix(1,0,0,1,27616.563461728023,15165.059863656401) translate(64.72722222222222 26.66666666666667)"/><use xlink:href="#E" transform="matrix(1,0,0,1,27616.563461728023,15165.059863656401) translate(277.3198148148148 26.66666666666667)"/></g><defs><path d="M233-177c-1 41-23 64-60 70L243 0h-38l-65-103H63V0H30v-248c88 3 205-21 203 71zM63-129c60-2 137 13 137-47 0-61-80-42-137-45v92" id="F"/><path d="M100-194c63 0 86 42 84 106H49c0 40 14 67 53 68 26 1 43-12 49-29l28 8c-11 28-37 45-77 45C44 4 14-33 15-96c1-61 26-98 85-98zm52 81c6-60-76-77-97-28-3 7-6 17-6 28h103" id="G"/><path d="M96-169c-40 0-48 33-48 73s9 75 48 75c24 0 41-14 43-38l32 2c-6 37-31 61-74 61-59 0-76-41-82-99-10-93 101-131 147-64 4 7 5 14 7 22l-32 3c-4-21-16-35-41-35" id="H"/><path d="M100-194c62-1 85 37 85 99 1 63-27 99-86 99S16-35 15-95c0-66 28-99 85-99zM99-20c44 1 53-31 53-75 0-43-8-75-51-75s-53 32-53 75 10 74 51 75" id="I"/><path d="M210-169c-67 3-38 105-44 169h-31v-121c0-29-5-50-35-48C34-165 62-65 56 0H25l-1-190h30c1 10-1 24 2 32 10-44 99-50 107 0 11-21 27-35 58-36 85-2 47 119 55 194h-31v-121c0-29-5-49-35-48" id="J"/><path d="M117-194c89-4 53 116 60 194h-32v-121c0-31-8-49-39-48C34-167 62-67 57 0H25l-1-190h30c1 10-1 24 2 32 11-22 29-35 61-36" id="K"/><path d="M85-194c31 0 48 13 60 33l-1-100h32l1 261h-30c-2-10 0-23-3-31C134-8 116 4 85 4 32 4 16-35 15-94c0-66 23-100 70-100zm9 24c-40 0-46 34-46 75 0 40 6 74 45 74 42 0 51-32 51-76 0-42-9-74-50-73" id="L"/><path d="M141-36C126-15 110 5 73 4 37 3 15-17 15-53c-1-64 63-63 125-63 3-35-9-54-41-54-24 1-41 7-42 31l-33-3c5-37 33-52 76-52 45 0 72 20 72 64v82c-1 20 7 32 28 27v20c-31 9-61-2-59-35zM48-53c0 20 12 33 32 33 41-3 63-29 60-74-43 2-92-5-92 41" id="M"/><path d="M59-47c-2 24 18 29 38 22v24C64 9 27 4 27-40v-127H5v-23h24l9-43h21v43h35v23H59v120" id="N"/><path d="M24-231v-30h32v30H24zM24 0v-190h32V0H24" id="O"/><g id="a"><use transform="matrix(0.30864197530864196,0,0,0.30864197530864196,0,0)" xlink:href="#F"/><use transform="matrix(0.30864197530864196,0,0,0.30864197530864196,79.93827160493827,0)" xlink:href="#G"/><use transform="matrix(0.30864197530864196,0,0,0.30864197530864196,141.66666666666666,0)" xlink:href="#H"/><use transform="matrix(0.30864197530864196,0,0,0.30864197530864196,197.2222222222222,0)" xlink:href="#I"/><use transform="matrix(0.30864197530864196,0,0,0.30864197530864196,258.9506172839506,0)" xlink:href="#J"/><use transform="matrix(0.30864197530864196,0,0,0.30864197530864196,351.2345679012345,0)" xlink:href="#J"/><use transform="matrix(0.30864197530864196,0,0,0.30864197530864196,443.5185185185185,0)" xlink:href="#G"/><use transform="matrix(0.30864197530864196,0,0,0.30864197530864196,505.2469135802469,0)" xlink:href="#K"/><use transform="matrix(0.30864197530864196,0,0,0.30864197530864196,566.9753086419753,0)" xlink:href="#L"/><use transform="matrix(0.30864197530864196,0,0,0.30864197530864196,628.7037037037037,0)" xlink:href="#M"/><use transform="matrix(0.30864197530864196,0,0,0.30864197530864196,690.4320987654321,0)" xlink:href="#N"/><use transform="matrix(0.30864197530864196,0,0,0.30864197530864196,721.2962962962963,0)" xlink:href="#O"/><use transform="matrix(0.30864197530864196,0,0,0.30864197530864196,745.679012345679,0)" xlink:href="#I"/><use transform="matrix(0.30864197530864196,0,0,0.30864197530864196,807.4074074074074,0)" xlink:href="#K"/></g><g id="b"><use transform="matrix(0.24691358024691357,0,0,0.24691358024691357,0,0)" xlink:href="#F"/><use transform="matrix(0.24691358024691357,0,0,0.24691358024691357,63.95061728395061,0)" xlink:href="#G"/><use transform="matrix(0.24691358024691357,0,0,0.24691358024691357,113.33333333333333,0)" xlink:href="#H"/><use transform="matrix(0.24691358024691357,0,0,0.24691358024691357,157.77777777777777,0)" xlink:href="#I"/><use transform="matrix(0.24691358024691357,0,0,0.24691358024691357,207.16049382716048,0)" xlink:href="#J"/><use transform="matrix(0.24691358024691357,0,0,0.24691358024691357,280.98765432098764,0)" xlink:href="#J"/><use transform="matrix(0.24691358024691357,0,0,0.24691358024691357,354.8148148148148,0)" xlink:href="#G"/><use transform="matrix(0.24691358024691357,0,0,0.24691358024691357,404.1975308641975,0)" xlink:href="#K"/><use transform="matrix(0.24691358024691357,0,0,0.24691358024691357,453.58024691358025,0)" xlink:href="#L"/><use transform="matrix(0.24691358024691357,0,0,0.24691358024691357,502.962962962963,0)" xlink:href="#M"/><use transform="matrix(0.24691358024691357,0,0,0.24691358024691357,552.3456790123457,0)" xlink:href="#N"/><use transform="matrix(0.24691358024691357,0,0,0.24691358024691357,577.0370370370371,0)" xlink:href="#O"/><use transform="matrix(0.24691358024691357,0,0,0.24691358024691357,596.5432098765432,0)" xlink:href="#I"/><use transform="matrix(0.24691358024691357,0,0,0.24691358024691357,645.9259259259259,0)" xlink:href="#K"/></g><path d="M140-251c81 0 123 46 123 126C263-46 219 4 140 4 59 4 17-45 17-125s42-126 123-126zm0 227c63 0 89-41 89-101s-29-99-89-99c-61 0-89 39-89 99S79-25 140-24" id="P"/><path d="M101-234c-31-9-42 10-38 44h38v23H63V0H32v-167H5v-23h27c-7-52 17-82 69-68v24" id="Q"/><path d="M24 0v-261h32V0H24" id="R"/><g id="c"><use transform="matrix(0.24691358024691357,0,0,0.24691358024691357,0,0)" xlink:href="#P"/><use transform="matrix(0.24691358024691357,0,0,0.24691358024691357,69.1358024691358,0)" xlink:href="#Q"/><use transform="matrix(0.24691358024691357,0,0,0.24691358024691357,92.09876543209876,0)" xlink:href="#Q"/><use transform="matrix(0.24691358024691357,0,0,0.24691358024691357,116.79012345679011,0)" xlink:href="#R"/><use transform="matrix(0.24691358024691357,0,0,0.24691358024691357,136.29629629629628,0)" xlink:href="#O"/><use transform="matrix(0.24691358024691357,0,0,0.24691358024691357,155.80246913580245,0)" xlink:href="#K"/><use transform="matrix(0.24691358024691357,0,0,0.24691358024691357,205.18518518518516,0)" xlink:href="#G"/></g><path d="M240 0l2-218c-23 76-54 145-80 218h-23L58-218 59 0H30v-248h44l77 211c21-75 51-140 76-211h43V0h-30" id="S"/><path d="M30 0v-248h33v221h125V0H30" id="T"/><g id="d"><use transform="matrix(0.24691358024691357,0,0,0.24691358024691357,0,0)" xlink:href="#S"/><use transform="matrix(0.24691358024691357,0,0,0.24691358024691357,73.82716049382715,0)" xlink:href="#T"/></g><g id="e"><use transform="matrix(0.24691358024691357,0,0,0.24691358024691357,0,0)" xlink:href="#S"/><use transform="matrix(0.24691358024691357,0,0,0.24691358024691357,73.82716049382715,0)" xlink:href="#I"/><use transform="matrix(0.24691358024691357,0,0,0.24691358024691357,123.20987654320987,0)" xlink:href="#L"/><use transform="matrix(0.24691358024691357,0,0,0.24691358024691357,172.59259259259258,0)" xlink:href="#G"/><use transform="matrix(0.24691358024691357,0,0,0.24691358024691357,221.9753086419753,0)" xlink:href="#R"/></g><path d="M127-220V0H93v-220H8v-28h204v28h-85" id="U"/><path d="M114-163C36-179 61-72 57 0H25l-1-190h30c1 12-1 29 2 39 6-27 23-49 58-41v29" id="V"/><path d="M177-190C167-65 218 103 67 71c-23-6-38-20-44-43l32-5c15 47 100 32 89-28v-30C133-14 115 1 83 1 29 1 15-40 15-95c0-56 16-97 71-98 29-1 48 16 59 35 1-10 0-23 2-32h30zM94-22c36 0 50-32 50-73 0-42-14-75-50-75-39 0-46 34-46 75s6 73 46 73" id="W"/><g id="f"><use transform="matrix(0.24691358024691357,0,0,0.24691358024691357,0,0)" xlink:href="#U"/><use transform="matrix(0.24691358024691357,0,0,0.24691358024691357,50.86419753086419,0)" xlink:href="#V"/><use transform="matrix(0.24691358024691357,0,0,0.24691358024691357,80.24691358024691,0)" xlink:href="#M"/><use transform="matrix(0.24691358024691357,0,0,0.24691358024691357,129.62962962962962,0)" xlink:href="#O"/><use transform="matrix(0.24691358024691357,0,0,0.24691358024691357,149.1358024691358,0)" xlink:href="#K"/><use transform="matrix(0.24691358024691357,0,0,0.24691358024691357,198.5185185185185,0)" xlink:href="#O"/><use transform="matrix(0.24691358024691357,0,0,0.24691358024691357,218.02469135802468,0)" xlink:href="#K"/><use transform="matrix(0.24691358024691357,0,0,0.24691358024691357,267.4074074074074,0)" xlink:href="#W"/></g><path d="M212-179c-10-28-35-45-73-45-59 0-87 40-87 99 0 60 29 101 89 101 43 0 62-24 78-52l27 14C228-24 195 4 139 4 59 4 22-46 18-125c-6-104 99-153 187-111 19 9 31 26 39 46" id="X"/><path d="M84 4C-5 8 30-112 23-190h32v120c0 31 7 50 39 49 72-2 45-101 50-169h31l1 190h-30c-1-10 1-25-2-33-11 22-28 36-60 37" id="Y"/><path d="M135-143c-3-34-86-38-87 0 15 53 115 12 119 90S17 21 10-45l28-5c4 36 97 45 98 0-10-56-113-15-118-90-4-57 82-63 122-42 12 7 21 19 24 35" id="Z"/><g id="g"><use transform="matrix(0.30864197530864196,0,0,0.30864197530864196,0,0)" xlink:href="#X"/><use transform="matrix(0.30864197530864196,0,0,0.30864197530864196,79.93827160493827,0)" xlink:href="#Y"/><use transform="matrix(0.30864197530864196,0,0,0.30864197530864196,141.66666666666666,0)" xlink:href="#Z"/><use transform="matrix(0.30864197530864196,0,0,0.30864197530864196,197.2222222222222,0)" xlink:href="#N"/><use transform="matrix(0.30864197530864196,0,0,0.30864197530864196,228.0864197530864,0)" xlink:href="#I"/><use transform="matrix(0.30864197530864196,0,0,0.30864197530864196,289.8148148148148,0)" xlink:href="#J"/><use transform="matrix(0.30864197530864196,0,0,0.30864197530864196,382.09876543209873,0)" xlink:href="#G"/><use transform="matrix(0.30864197530864196,0,0,0.30864197530864196,443.82716049382714,0)" xlink:href="#V"/></g><g id="h"><use transform="matrix(0.30864197530864196,0,0,0.30864197530864196,0,0)" xlink:href="#P"/><use transform="matrix(0.30864197530864196,0,0,0.30864197530864196,86.41975308641975,0)" xlink:href="#V"/><use transform="matrix(0.30864197530864196,0,0,0.30864197530864196,123.14814814814814,0)" xlink:href="#L"/><use transform="matrix(0.30864197530864196,0,0,0.30864197530864196,184.87654320987653,0)" xlink:href="#G"/><use transform="matrix(0.30864197530864196,0,0,0.30864197530864196,246.60493827160494,0)" xlink:href="#V"/></g><path d="M33 0v-248h34V0H33" id="aa"/><path d="M108 0H70L1-190h34L89-25l56-165h34" id="ab"/><path d="M179-190L93 31C79 59 56 82 12 73V49c39 6 53-20 64-50L1-190h34L92-34l54-156h33" id="ac"/><g id="i"><use transform="matrix(0.30864197530864196,0,0,0.30864197530864196,0,0)" xlink:href="#aa"/><use transform="matrix(0.30864197530864196,0,0,0.30864197530864196,30.864197530864196,0)" xlink:href="#K"/><use transform="matrix(0.30864197530864196,0,0,0.30864197530864196,92.59259259259258,0)" xlink:href="#ab"/><use transform="matrix(0.30864197530864196,0,0,0.30864197530864196,148.14814814814812,0)" xlink:href="#G"/><use transform="matrix(0.30864197530864196,0,0,0.30864197530864196,209.8765432098765,0)" xlink:href="#K"/><use transform="matrix(0.30864197530864196,0,0,0.30864197530864196,271.6049382716049,0)" xlink:href="#N"/><use transform="matrix(0.30864197530864196,0,0,0.30864197530864196,302.4691358024691,0)" xlink:href="#I"/><use transform="matrix(0.30864197530864196,0,0,0.30864197530864196,364.1975308641975,0)" xlink:href="#V"/><use transform="matrix(0.30864197530864196,0,0,0.30864197530864196,400.9259259259259,0)" xlink:href="#ac"/></g><path fill="#333" d="M24-248c93 1 206-16 204 79-1 75-69 88-152 82V0H24v-248zm52 121c47 0 100 7 100-41 0-47-54-39-100-39v80" id="ad"/><path fill="#333" d="M185-48c-13 30-37 53-82 52C43 2 14-33 14-96s30-98 90-98c62 0 83 45 84 108H66c0 31 8 55 39 56 18 0 30-7 34-22zm-45-69c5-46-57-63-70-21-2 6-4 13-4 21h74" id="ae"/><path fill="#333" d="M135-150c-39-12-60 13-60 57V0H25l-1-190h47c2 13-1 29 3 40 6-28 27-53 61-41v41" id="af"/><path fill="#333" d="M137-138c1-29-70-34-71-4 15 46 118 7 119 86 1 83-164 76-172 9l43-7c4 19 20 25 44 25 33 8 57-30 24-41C81-84 22-81 20-136c-2-80 154-74 161-7" id="ag"/><path fill="#333" d="M110-194c64 0 96 36 96 99 0 64-35 99-97 99-61 0-95-36-95-99 0-62 34-99 96-99zm-1 164c35 0 45-28 45-65 0-40-10-65-43-65-34 0-45 26-45 65 0 36 10 65 43 65" id="ah"/><path fill="#333" d="M135-194c87-1 58 113 63 194h-50c-7-57 23-157-34-157-59 0-34 97-39 157H25l-1-190h47c2 12-1 28 3 38 12-26 28-41 61-42" id="ai"/><path fill="#333" d="M133-34C117-15 103 5 69 4 32 3 11-16 11-54c-1-60 55-63 116-61 1-26-3-47-28-47-18 1-26 9-28 27l-52-2c7-38 36-58 82-57s74 22 75 68l1 82c-1 14 12 18 25 15v27c-30 8-71 5-69-32zm-48 3c29 0 43-24 42-57-32 0-66-3-65 30 0 17 8 27 23 27" id="aj"/><path fill="#333" d="M25 0v-261h50V0H25" id="ak"/><path fill="#333" d="M4 7l51-268h42L46 7H4" id="al"/><path fill="#333" d="M186 0v-106H76V0H24v-248h52v99h110v-99h50V0h-50" id="am"/><path fill="#333" d="M115-3C79 11 28 4 28-45v-112H4v-33h27l15-45h31v45h36v33H77v99c-1 23 16 31 38 25v30" id="an"/><path fill="#333" d="M114-157C55-157 80-60 75 0H25v-261h50l-1 109c12-26 28-41 61-42 86-1 58 113 63 194h-50c-7-57 23-157-34-157" id="ao"/><g id="j"><use transform="matrix(0.0925925925925926,0,0,0.0925925925925926,0,0)" xlink:href="#ad"/><use transform="matrix(0.0925925925925926,0,0,0.0925925925925926,22.222222222222225,0)" xlink:href="#ae"/><use transform="matrix(0.0925925925925926,0,0,0.0925925925925926,40.74074074074075,0)" xlink:href="#af"/><use transform="matrix(0.0925925925925926,0,0,0.0925925925925926,53.70370370370371,0)" xlink:href="#ag"/><use transform="matrix(0.0925925925925926,0,0,0.0925925925925926,72.22222222222223,0)" xlink:href="#ah"/><use transform="matrix(0.0925925925925926,0,0,0.0925925925925926,92.5,0)" xlink:href="#ai"/><use transform="matrix(0.0925925925925926,0,0,0.0925925925925926,112.77777777777777,0)" xlink:href="#aj"/><use transform="matrix(0.0925925925925926,0,0,0.0925925925925926,131.2962962962963,0)" xlink:href="#ak"/><use transform="matrix(0.0925925925925926,0,0,0.0925925925925926,140.55555555555557,0)" xlink:href="#al"/><use transform="matrix(0.0925925925925926,0,0,0.0925925925925926,149.81481481481484,0)" xlink:href="#am"/><use transform="matrix(0.0925925925925926,0,0,0.0925925925925926,173.79629629629633,0)" xlink:href="#ae"/><use transform="matrix(0.0925925925925926,0,0,0.0925925925925926,192.31481481481484,0)" xlink:href="#aj"/><use transform="matrix(0.0925925925925926,0,0,0.0925925925925926,210.83333333333334,0)" xlink:href="#ak"/><use transform="matrix(0.0925925925925926,0,0,0.0925925925925926,220.09259259259267,0)" xlink:href="#an"/><use transform="matrix(0.0925925925925926,0,0,0.0925925925925926,231.11111111111114,0)" xlink:href="#ao"/></g><path fill="#333" d="M88-194c31-1 46 15 58 34l-1-101h50l1 261h-48c-2-10 0-23-3-31C134-8 116 4 84 4 32 4 16-41 15-95c0-56 19-97 73-99zm17 164c33 0 40-30 41-66 1-37-9-64-41-64s-38 30-39 65c0 43 13 65 39 65" id="ap"/><g id="k"><use transform="matrix(0.0925925925925926,0,0,0.0925925925925926,0,0)" xlink:href="#ap"/><use transform="matrix(0.0925925925925926,0,0,0.0925925925925926,20.27777777777778,0)" xlink:href="#aj"/><use transform="matrix(0.0925925925925926,0,0,0.0925925925925926,38.7962962962963,0)" xlink:href="#an"/><use transform="matrix(0.0925925925925926,0,0,0.0925925925925926,49.81481481481482,0)" xlink:href="#aj"/></g><path fill="#333" d="M121-226c-27-7-43 5-38 36h38v33H83V0H34v-157H6v-33h28c-9-59 32-81 87-68v32" id="aq"/><g id="l"><use transform="matrix(0.0925925925925926,0,0,0.0925925925925926,0,0)" xlink:href="#aq"/><use transform="matrix(0.0925925925925926,0,0,0.0925925925925926,11.018518518518519,0)" xlink:href="#ah"/><use transform="matrix(0.0925925925925926,0,0,0.0925925925925926,31.296296296296298,0)" xlink:href="#af"/></g><path fill="#333" d="M25-224v-37h50v37H25zM25 0v-190h50V0H25" id="ar"/><path fill="#333" d="M195-6C206 82 75 100 31 46c-4-6-6-13-8-21l49-6c3 16 16 24 34 25 40 0 42-37 40-79-11 22-30 35-61 35-53 0-70-43-70-97 0-56 18-96 73-97 30 0 46 14 59 34l2-30h47zm-90-29c32 0 41-27 41-63 0-35-9-62-40-62-32 0-39 29-40 63 0 36 9 62 39 62" id="as"/><g id="m"><use transform="matrix(0.0925925925925926,0,0,0.0925925925925926,0,0)" xlink:href="#an"/><use transform="matrix(0.0925925925925926,0,0,0.0925925925925926,11.018518518518519,0)" xlink:href="#af"/><use transform="matrix(0.0925925925925926,0,0,0.0925925925925926,23.981481481481477,0)" xlink:href="#aj"/><use transform="matrix(0.0925925925925926,0,0,0.0925925925925926,42.5,0)" xlink:href="#ar"/><use transform="matrix(0.0925925925925926,0,0,0.0925925925925926,51.75925925925927,0)" xlink:href="#ai"/><use transform="matrix(0.0925925925925926,0,0,0.0925925925925926,72.03703703703704,0)" xlink:href="#ar"/><use transform="matrix(0.0925925925925926,0,0,0.0925925925925926,81.2962962962963,0)" xlink:href="#ai"/><use transform="matrix(0.0925925925925926,0,0,0.0925925925925926,101.57407407407409,0)" xlink:href="#as"/></g><path fill="#333" d="M140-251c80 0 125 45 125 126S219 4 139 4C58 4 15-44 15-125s44-126 125-126zm-1 214c52 0 73-35 73-88 0-50-21-86-72-86-52 0-73 35-73 86s22 88 72 88" id="at"/><g id="n"><use transform="matrix(0.0925925925925926,0,0,0.0925925925925926,0,0)" xlink:href="#at"/><use transform="matrix(0.0925925925925926,0,0,0.0925925925925926,25.925925925925927,0)" xlink:href="#af"/><use transform="matrix(0.0925925925925926,0,0,0.0925925925925926,38.88888888888889,0)" xlink:href="#ap"/><use transform="matrix(0.0925925925925926,0,0,0.0925925925925926,59.16666666666667,0)" xlink:href="#ae"/><use transform="matrix(0.0925925925925926,0,0,0.0925925925925926,77.68518518518519,0)" xlink:href="#af"/></g><path fill="#333" d="M136-208V0H84v-208H4v-40h212v40h-80" id="au"/><g id="o"><use transform="matrix(0.0925925925925926,0,0,0.0925925925925926,0,0)" xlink:href="#au"/><use transform="matrix(0.0925925925925926,0,0,0.0925925925925926,18.425925925925927,0)" xlink:href="#af"/><use transform="matrix(0.0925925925925926,0,0,0.0925925925925926,31.388888888888893,0)" xlink:href="#aj"/><use transform="matrix(0.0925925925925926,0,0,0.0925925925925926,49.90740740740741,0)" xlink:href="#ar"/><use transform="matrix(0.0925925925925926,0,0,0.0925925925925926,59.16666666666667,0)" xlink:href="#ai"/><use transform="matrix(0.0925925925925926,0,0,0.0925925925925926,79.44444444444446,0)" xlink:href="#ae"/><use transform="matrix(0.0925925925925926,0,0,0.0925925925925926,97.96296296296298,0)" xlink:href="#ap"/></g><path fill="#333" d="M230 0l2-204L168 0h-37L68-204 70 0H24v-248h70l56 185 57-185h69V0h-46" id="av"/><g id="p"><use transform="matrix(0.0925925925925926,0,0,0.0925925925925926,0,0)" xlink:href="#av"/><use transform="matrix(0.0925925925925926,0,0,0.0925925925925926,27.685185185185187,0)" xlink:href="#ah"/><use transform="matrix(0.0925925925925926,0,0,0.0925925925925926,47.962962962962955,0)" xlink:href="#ap"/><use transform="matrix(0.0925925925925926,0,0,0.0925925925925926,68.24074074074073,0)" xlink:href="#ae"/><use transform="matrix(0.0925925925925926,0,0,0.0925925925925926,86.75925925925925,0)" xlink:href="#ak"/></g><g id="q"><use transform="matrix(0.0925925925925926,0,0,0.0925925925925926,0,0)" xlink:href="#F"/><use transform="matrix(0.0925925925925926,0,0,0.0925925925925926,23.981481481481485,0)" xlink:href="#G"/><use transform="matrix(0.0925925925925926,0,0,0.0925925925925926,42.5,0)" xlink:href="#H"/><use transform="matrix(0.0925925925925926,0,0,0.0925925925925926,59.16666666666667,0)" xlink:href="#I"/><use transform="matrix(0.0925925925925926,0,0,0.0925925925925926,77.68518518518519,0)" xlink:href="#J"/><use transform="matrix(0.0925925925925926,0,0,0.0925925925925926,105.37037037037038,0)" xlink:href="#J"/><use transform="matrix(0.0925925925925926,0,0,0.0925925925925926,133.05555555555557,0)" xlink:href="#G"/><use transform="matrix(0.0925925925925926,0,0,0.0925925925925926,151.57407407407408,0)" xlink:href="#K"/><use transform="matrix(0.0925925925925926,0,0,0.0925925925925926,170.0925925925926,0)" xlink:href="#L"/><use transform="matrix(0.0925925925925926,0,0,0.0925925925925926,188.61111111111114,0)" xlink:href="#M"/><use transform="matrix(0.0925925925925926,0,0,0.0925925925925926,207.1296296296297,0)" xlink:href="#N"/><use transform="matrix(0.0925925925925926,0,0,0.0925925925925926,216.38888888888894,0)" xlink:href="#O"/><use transform="matrix(0.0925925925925926,0,0,0.0925925925925926,223.70370370370378,0)" xlink:href="#I"/><use transform="matrix(0.0925925925925926,0,0,0.0925925925925926,242.22222222222229,0)" xlink:href="#K"/></g><path d="M190 0L58-211 59 0H30v-248h39L202-35l-2-213h31V0h-41" id="aw"/><g id="r"><use transform="matrix(0.0925925925925926,0,0,0.0925925925925926,0,0)" xlink:href="#aw"/><use transform="matrix(0.0925925925925926,0,0,0.0925925925925926,23.981481481481485,0)" xlink:href="#Y"/><use transform="matrix(0.0925925925925926,0,0,0.0925925925925926,42.5,0)" xlink:href="#N"/><use transform="matrix(0.0925925925925926,0,0,0.0925925925925926,51.75925925925927,0)" xlink:href="#V"/><use transform="matrix(0.0925925925925926,0,0,0.0925925925925926,62.777777777777786,0)" xlink:href="#O"/><use transform="matrix(0.0925925925925926,0,0,0.0925925925925926,70.0925925925926,0)" xlink:href="#I"/><use transform="matrix(0.0925925925925926,0,0,0.0925925925925926,88.61111111111111,0)" xlink:href="#K"/><use transform="matrix(0.0925925925925926,0,0,0.0925925925925926,107.12962962962963,0)" xlink:href="#O"/><use transform="matrix(0.0925925925925926,0,0,0.0925925925925926,114.44444444444443,0)" xlink:href="#Z"/><use transform="matrix(0.0925925925925926,0,0,0.0925925925925926,131.11111111111111,0)" xlink:href="#N"/></g><g id="s"><use transform="matrix(0.0925925925925926,0,0,0.0925925925925926,0,0)" xlink:href="#F"/><use transform="matrix(0.0925925925925926,0,0,0.0925925925925926,23.981481481481485,0)" xlink:href="#G"/><use transform="matrix(0.0925925925925926,0,0,0.0925925925925926,42.5,0)" xlink:href="#H"/><use transform="matrix(0.0925925925925926,0,0,0.0925925925925926,59.16666666666667,0)" xlink:href="#I"/><use transform="matrix(0.0925925925925926,0,0,0.0925925925925926,77.68518518518519,0)" xlink:href="#J"/><use transform="matrix(0.0925925925925926,0,0,0.0925925925925926,105.37037037037038,0)" xlink:href="#J"/><use transform="matrix(0.0925925925925926,0,0,0.0925925925925926,133.05555555555557,0)" xlink:href="#G"/><use transform="matrix(0.0925925925925926,0,0,0.0925925925925926,151.57407407407408,0)" xlink:href="#K"/><use transform="matrix(0.0925925925925926,0,0,0.0925925925925926,170.0925925925926,0)" xlink:href="#L"/><use transform="matrix(0.0925925925925926,0,0,0.0925925925925926,188.61111111111114,0)" xlink:href="#M"/><use transform="matrix(0.0925925925925926,0,0,0.0925925925925926,207.1296296296297,0)" xlink:href="#N"/><use transform="matrix(0.0925925925925926,0,0,0.0925925925925926,216.38888888888894,0)" xlink:href="#O"/><use transform="matrix(0.0925925925925926,0,0,0.0925925925925926,223.70370370370378,0)" xlink:href="#I"/><use transform="matrix(0.0925925925925926,0,0,0.0925925925925926,242.22222222222229,0)" xlink:href="#K"/></g><path d="M106-169C34-169 62-67 57 0H25v-261h32l-1 103c12-21 28-36 61-36 89 0 53 116 60 194h-32v-121c2-32-8-49-39-48" id="ax"/><g id="t"><use transform="matrix(0.0925925925925926,0,0,0.0925925925925926,0,0)" xlink:href="#S"/><use transform="matrix(0.0925925925925926,0,0,0.0925925925925926,27.685185185185187,0)" xlink:href="#M"/><use transform="matrix(0.0925925925925926,0,0,0.0925925925925926,46.20370370370371,0)" xlink:href="#H"/><use transform="matrix(0.0925925925925926,0,0,0.0925925925925926,62.870370370370374,0)" xlink:href="#ax"/><use transform="matrix(0.0925925925925926,0,0,0.0925925925925926,81.3888888888889,0)" xlink:href="#O"/><use transform="matrix(0.0925925925925926,0,0,0.0925925925925926,88.70370370370371,0)" xlink:href="#K"/><use transform="matrix(0.0925925925925926,0,0,0.0925925925925926,107.22222222222223,0)" xlink:href="#G"/></g><g id="u"><use transform="matrix(0.0925925925925926,0,0,0.0925925925925926,0,0)" xlink:href="#F"/><use transform="matrix(0.0925925925925926,0,0,0.0925925925925926,23.981481481481485,0)" xlink:href="#G"/><use transform="matrix(0.0925925925925926,0,0,0.0925925925925926,42.5,0)" xlink:href="#H"/><use transform="matrix(0.0925925925925926,0,0,0.0925925925925926,59.16666666666667,0)" xlink:href="#I"/><use transform="matrix(0.0925925925925926,0,0,0.0925925925925926,77.68518518518519,0)" xlink:href="#J"/><use transform="matrix(0.0925925925925926,0,0,0.0925925925925926,105.37037037037038,0)" xlink:href="#J"/><use transform="matrix(0.0925925925925926,0,0,0.0925925925925926,133.05555555555557,0)" xlink:href="#G"/><use transform="matrix(0.0925925925925926,0,0,0.0925925925925926,151.57407407407408,0)" xlink:href="#K"/><use transform="matrix(0.0925925925925926,0,0,0.0925925925925926,170.0925925925926,0)" xlink:href="#L"/><use transform="matrix(0.0925925925925926,0,0,0.0925925925925926,188.61111111111114,0)" xlink:href="#M"/><use transform="matrix(0.0925925925925926,0,0,0.0925925925925926,207.1296296296297,0)" xlink:href="#N"/><use transform="matrix(0.0925925925925926,0,0,0.0925925925925926,216.38888888888894,0)" xlink:href="#O"/><use transform="matrix(0.0925925925925926,0,0,0.0925925925925926,223.70370370370378,0)" xlink:href="#I"/><use transform="matrix(0.0925925925925926,0,0,0.0925925925925926,242.22222222222229,0)" xlink:href="#K"/></g><g id="v"><use transform="matrix(0.24691358024691357,0,0,0.24691358024691357,0,0)" xlink:href="#F"/><use transform="matrix(0.24691358024691357,0,0,0.24691358024691357,63.95061728395061,0)" xlink:href="#G"/><use transform="matrix(0.24691358024691357,0,0,0.24691358024691357,113.33333333333333,0)" xlink:href="#H"/><use transform="matrix(0.24691358024691357,0,0,0.24691358024691357,157.77777777777777,0)" xlink:href="#I"/><use transform="matrix(0.24691358024691357,0,0,0.24691358024691357,207.16049382716048,0)" xlink:href="#J"/><use transform="matrix(0.24691358024691357,0,0,0.24691358024691357,280.98765432098764,0)" xlink:href="#G"/><use transform="matrix(0.24691358024691357,0,0,0.24691358024691357,330.3703703703704,0)" xlink:href="#K"/><use transform="matrix(0.24691358024691357,0,0,0.24691358024691357,379.7530864197531,0)" xlink:href="#L"/><use transform="matrix(0.24691358024691357,0,0,0.24691358024691357,429.13580246913585,0)" xlink:href="#M"/><use transform="matrix(0.24691358024691357,0,0,0.24691358024691357,478.5185185185186,0)" xlink:href="#N"/><use transform="matrix(0.24691358024691357,0,0,0.24691358024691357,503.20987654320993,0)" xlink:href="#O"/><use transform="matrix(0.24691358024691357,0,0,0.24691358024691357,522.716049382716,0)" xlink:href="#I"/><use transform="matrix(0.24691358024691357,0,0,0.24691358024691357,572.0987654320987,0)" xlink:href="#K"/></g><path d="M185-189c-5-48-123-54-124 2 14 75 158 14 163 119 3 78-121 87-175 55-17-10-28-26-33-46l33-7c5 56 141 63 141-1 0-78-155-14-162-118-5-82 145-84 179-34 5 7 8 16 11 25" id="ay"/><g id="w"><use transform="matrix(0.24691358024691357,0,0,0.24691358024691357,0,0)" xlink:href="#ay"/><use transform="matrix(0.24691358024691357,0,0,0.24691358024691357,59.25925925925925,0)" xlink:href="#G"/><use transform="matrix(0.24691358024691357,0,0,0.24691358024691357,108.64197530864197,0)" xlink:href="#V"/><use transform="matrix(0.24691358024691357,0,0,0.24691358024691357,138.02469135802468,0)" xlink:href="#ab"/><use transform="matrix(0.24691358024691357,0,0,0.24691358024691357,182.4691358024691,0)" xlink:href="#O"/><use transform="matrix(0.24691358024691357,0,0,0.24691358024691357,201.9753086419753,0)" xlink:href="#H"/><use transform="matrix(0.24691358024691357,0,0,0.24691358024691357,246.41975308641975,0)" xlink:href="#G"/></g><path fill="#333" d="M24 0v-248h52V0H24" id="az"/><path fill="#333" d="M128 0H69L1-190h53L99-40l48-150h52" id="aA"/><path fill="#333" d="M123 10C108 53 80 86 19 72V37c35 8 53-11 59-39L3-190h52l48 148c12-52 28-100 44-148h51" id="aB"/><path fill="#333" d="M169-182c-1-43-94-46-97-3 18 66 151 10 154 114 3 95-165 93-204 36-6-8-10-19-12-30l50-8c3 46 112 56 116 5-17-69-150-10-154-114-4-87 153-88 188-35 5 8 8 18 10 28" id="aC"/><path fill="#333" d="M85 4C-2 5 27-109 22-190h50c7 57-23 150 33 157 60-5 35-97 40-157h50l1 190h-47c-2-12 1-28-3-38-12 25-28 42-61 42" id="aD"/><path fill="#333" d="M135-194c52 0 70 43 70 98 0 56-19 99-73 100-30 1-46-15-58-35L72 0H24l1-261h50v104c11-23 29-37 60-37zM114-30c31 0 40-27 40-66 0-37-7-63-39-63s-41 28-41 65c0 36 8 64 40 64" id="aE"/><path fill="#333" d="M190-63c-7 42-38 67-86 67-59 0-84-38-90-98-12-110 154-137 174-36l-49 2c-2-19-15-32-35-32-30 0-35 28-38 64-6 74 65 87 74 30" id="aF"/><path fill="#333" d="M135-194c53 0 70 44 70 98 0 56-19 98-73 100-31 1-45-17-59-34 3 33 2 69 2 105H25l-1-265h48c2 10 0 23 3 31 11-24 29-35 60-35zM114-30c33 0 39-31 40-66 0-38-9-64-40-64-56 0-55 130 0 130" id="aG"/><g id="x"><use transform="matrix(0.0925925925925926,0,0,0.0925925925925926,0,0)" xlink:href="#az"/><use transform="matrix(0.0925925925925926,0,0,0.0925925925925926,9.25925925925926,0)" xlink:href="#ai"/><use transform="matrix(0.0925925925925926,0,0,0.0925925925925926,29.537037037037038,0)" xlink:href="#aA"/><use transform="matrix(0.0925925925925926,0,0,0.0925925925925926,48.05555555555556,0)" xlink:href="#ae"/><use transform="matrix(0.0925925925925926,0,0,0.0925925925925926,66.57407407407408,0)" xlink:href="#ai"/><use transform="matrix(0.0925925925925926,0,0,0.0925925925925926,86.85185185185185,0)" xlink:href="#an"/><use transform="matrix(0.0925925925925926,0,0,0.0925925925925926,97.87037037037035,0)" xlink:href="#ah"/><use transform="matrix(0.0925925925925926,0,0,0.0925925925925926,118.14814814814815,0)" xlink:href="#af"/><use transform="matrix(0.0925925925925926,0,0,0.0925925925925926,131.11111111111111,0)" xlink:href="#aB"/><use transform="matrix(0.0925925925925926,0,0,0.0925925925925926,149.62962962962962,0)" xlink:href="#al"/><use transform="matrix(0.0925925925925926,0,0,0.0925925925925926,158.88888888888889,0)" xlink:href="#aC"/><use transform="matrix(0.0925925925925926,0,0,0.0925925925925926,181.11111111111111,0)" xlink:href="#aD"/><use transform="matrix(0.0925925925925926,0,0,0.0925925925925926,201.38888888888886,0)" xlink:href="#aE"/><use transform="matrix(0.0925925925925926,0,0,0.0925925925925926,221.66666666666666,0)" xlink:href="#ag"/><use transform="matrix(0.0925925925925926,0,0,0.0925925925925926,240.18518518518516,0)" xlink:href="#aF"/><use transform="matrix(0.0925925925925926,0,0,0.0925925925925926,258.7037037037037,0)" xlink:href="#af"/><use transform="matrix(0.0925925925925926,0,0,0.0925925925925926,271.6666666666667,0)" xlink:href="#ar"/><use transform="matrix(0.0925925925925926,0,0,0.0925925925925926,280.9259259259259,0)" xlink:href="#aG"/><use transform="matrix(0.0925925925925926,0,0,0.0925925925925926,301.2037037037037,0)" xlink:href="#an"/><use transform="matrix(0.0925925925925926,0,0,0.0925925925925926,312.22222222222223,0)" xlink:href="#ar"/><use transform="matrix(0.0925925925925926,0,0,0.0925925925925926,321.48148148148147,0)" xlink:href="#ah"/><use transform="matrix(0.0925925925925926,0,0,0.0925925925925926,341.75925925925924,0)" xlink:href="#ai"/></g><g id="y"><use transform="matrix(0.0925925925925926,0,0,0.0925925925925926,0,0)" xlink:href="#aG"/><use transform="matrix(0.0925925925925926,0,0,0.0925925925925926,20.27777777777778,0)" xlink:href="#ak"/><use transform="matrix(0.0925925925925926,0,0,0.0925925925925926,29.537037037037038,0)" xlink:href="#aj"/><use transform="matrix(0.0925925925925926,0,0,0.0925925925925926,48.05555555555556,0)" xlink:href="#ai"/><use transform="matrix(0.0925925925925926,0,0,0.0925925925925926,68.33333333333334,0)" xlink:href="#ag"/></g><g id="z"><use transform="matrix(0.0925925925925926,0,0,0.0925925925925926,0,0)" xlink:href="#an"/><use transform="matrix(0.0925925925925926,0,0,0.0925925925925926,11.018518518518519,0)" xlink:href="#ah"/></g><path fill="#333" d="M147 0L96-86 75-71V0H25v-261h50v150l67-79h53l-66 74L201 0h-54" id="aH"/><g id="A"><use transform="matrix(0.0925925925925926,0,0,0.0925925925925926,0,0)" xlink:href="#af"/><use transform="matrix(0.0925925925925926,0,0,0.0925925925925926,12.962962962962964,0)" xlink:href="#aj"/><use transform="matrix(0.0925925925925926,0,0,0.0925925925925926,31.48148148148148,0)" xlink:href="#ai"/><use transform="matrix(0.0925925925925926,0,0,0.0925925925925926,51.75925925925927,0)" xlink:href="#aH"/></g><g id="B"><use transform="matrix(0.0925925925925926,0,0,0.0925925925925926,0,0)" xlink:href="#av"/><use transform="matrix(0.0925925925925926,0,0,0.0925925925925926,27.685185185185187,0)" xlink:href="#ah"/><use transform="matrix(0.0925925925925926,0,0,0.0925925925925926,47.962962962962955,0)" xlink:href="#ap"/><use transform="matrix(0.0925925925925926,0,0,0.0925925925925926,68.24074074074073,0)" xlink:href="#ae"/><use transform="matrix(0.0925925925925926,0,0,0.0925925925925926,86.75925925925925,0)" xlink:href="#ak"/></g><path fill="#333" d="M67-125c0 54 23 88 75 88 28 0 53-7 68-21v-34h-60v-39h108v91C232-14 192 4 140 4 58 4 20-42 15-125 8-236 126-280 215-234c19 10 29 26 37 47l-47 15c-11-23-29-39-63-39-53 1-75 33-75 86" id="aI"/><g id="C"><use transform="matrix(0.0925925925925926,0,0,0.0925925925925926,0,0)" xlink:href="#aI"/><use transform="matrix(0.0925925925925926,0,0,0.0925925925925926,25.925925925925927,0)" xlink:href="#ae"/><use transform="matrix(0.0925925925925926,0,0,0.0925925925925926,44.44444444444444,0)" xlink:href="#an"/></g><path fill="#333" d="M12 0v-35l95-120H19v-35h142v35L67-36h103V0H12" id="aJ"/><g id="D"><use transform="matrix(0.0925925925925926,0,0,0.0925925925925926,0,0)" xlink:href="#aG"/><use transform="matrix(0.0925925925925926,0,0,0.0925925925925926,20.27777777777778,0)" xlink:href="#ae"/><use transform="matrix(0.0925925925925926,0,0,0.0925925925925926,38.7962962962963,0)" xlink:href="#af"/><use transform="matrix(0.0925925925925926,0,0,0.0925925925925926,51.75925925925927,0)" xlink:href="#ag"/><use transform="matrix(0.0925925925925926,0,0,0.0925925925925926,70.27777777777777,0)" xlink:href="#ah"/><use transform="matrix(0.0925925925925926,0,0,0.0925925925925926,90.55555555555554,0)" xlink:href="#ai"/><use transform="matrix(0.0925925925925926,0,0,0.0925925925925926,110.83333333333333,0)" xlink:href="#aj"/><use transform="matrix(0.0925925925925926,0,0,0.0925925925925926,129.35185185185185,0)" xlink:href="#ak"/><use transform="matrix(0.0925925925925926,0,0,0.0925925925925926,138.61111111111111,0)" xlink:href="#ar"/><use transform="matrix(0.0925925925925926,0,0,0.0925925925925926,147.87037037037038,0)" xlink:href="#aJ"/><use transform="matrix(0.0925925925925926,0,0,0.0925925925925926,164.53703703703704,0)" xlink:href="#ae"/><use transform="matrix(0.0925925925925926,0,0,0.0925925925925926,183.05555555555554,0)" xlink:href="#ap"/></g><path fill="#333" d="M220-157c-53 9-28 100-34 157h-49v-107c1-27-5-49-29-50C55-147 81-57 75 0H25l-1-190h47c2 12-1 28 3 38 10-53 101-56 108 0 13-22 24-43 59-42 82 1 51 116 57 194h-49v-107c-1-25-5-48-29-50" id="aK"/><g id="E"><use transform="matrix(0.0925925925925926,0,0,0.0925925925925926,0,0)" xlink:href="#af"/><use transform="matrix(0.0925925925925926,0,0,0.0925925925925926,12.962962962962964,0)" xlink:href="#ae"/><use transform="matrix(0.0925925925925926,0,0,0.0925925925925926,31.48148148148148,0)" xlink:href="#aF"/><use transform="matrix(0.0925925925925926,0,0,0.0925925925925926,50.00000000000001,0)" xlink:href="#ah"/><use transform="matrix(0.0925925925925926,0,0,0.0925925925925926,70.27777777777777,0)" xlink:href="#aK"/><use transform="matrix(0.0925925925925926,0,0,0.0925925925925926,99.90740740740739,0)" xlink:href="#aK"/><use transform="matrix(0.0925925925925926,0,0,0.0925925925925926,129.53703703703704,0)" xlink:href="#ae"/><use transform="matrix(0.0925925925925926,0,0,0.0925925925925926,148.05555555555554,0)" xlink:href="#ai"/><use transform="matrix(0.0925925925925926,0,0,0.0925925925925926,168.33333333333331,0)" xlink:href="#ap"/><use transform="matrix(0.0925925925925926,0,0,0.0925925925925926,188.6111111111111,0)" xlink:href="#aj"/><use transform="matrix(0.0925925925925926,0,0,0.0925925925925926,207.12962962962962,0)" xlink:href="#an"/><use transform="matrix(0.0925925925925926,0,0,0.0925925925925926,218.14814814814818,0)" xlink:href="#ar"/><use transform="matrix(0.0925925925925926,0,0,0.0925925925925926,227.40740740740742,0)" xlink:href="#ah"/><use transform="matrix(0.0925925925925926,0,0,0.0925925925925926,247.68518518518522,0)" xlink:href="#ai"/></g></defs></g></svg>