<svg xmlns="http://www.w3.org/2000/svg" xmlns:xlink="http://www.w3.org/1999/xlink" xmlns:lucid="lucid" width="3520" height="2095"><g transform="translate(-25620 -15000)" lucid:page-tab-id="4DoKV64_rf~x"><path d="M25500 15000h4000v2500h-4000z" fill="#fff"/><path d="M25640 15026c0-3.3 2.7-6 6-6h900c3.3 0 6 2.7 6 6v318c0 3.3-2.7 6-6 6h-900c-3.3 0-6-2.7-6-6z" stroke="#000" fill="#e5e5e5"/><use xlink:href="#a" transform="matrix(1,0,0,1,25652,15032) translate(9.432098765432102 174.9513888888889)"/><path d="M25795.9 15766c0-3.3 2.67-6 6-6h2304.6c3.3 0 6 2.7 6 6v948c0 3.3-2.7 6-6 6h-2304.6c-3.33 0-6-2.7-6-6z" stroke="#000" stroke-width="9" fill="#fff" fill-opacity="0"/><use xlink:href="#b" transform="matrix(1,0,0,1,25800.88690902384,15765) translate(0 71.11111111111111)"/><path d="M25665.97 15352.9c0 1.38-1.12 2.5-2.5 2.5s-2.5-1.12-2.5-2.5 1.12-2.5 2.5-2.5 2.5 1.12 2.5 2.5zm2.87 9.64c0 1.38-1.12 2.5-2.5 2.5s-2.5-1.12-2.5-2.5 1.12-2.5 2.5-2.5 2.5 1.12 2.5 2.5zm2.88 9.65c0 1.37-1.12 2.5-2.5 2.5s-2.5-1.13-2.5-2.5c0-1.4 1.12-2.5 2.5-2.5s2.5 1.1 2.5 2.5zm2.88 9.63c0 1.38-1.12 2.5-2.5 2.5s-2.5-1.12-2.5-2.5 1.12-2.5 2.5-2.5 2.5 1.12 2.5 2.5zm2.87 9.65c0 1.38-1.12 2.5-2.5 2.5s-2.5-1.12-2.5-2.5 1.12-2.5 2.5-2.5 2.5 1.12 2.5 2.5zm2.88 9.65c0 1.38-1.12 2.5-2.5 2.5s-2.5-1.12-2.5-2.5 1.12-2.5 2.5-2.5 2.5 1.12 2.5 2.5zm2.88 9.64c0 1.38-1.12 2.5-2.5 2.5s-2.5-1.12-2.5-2.5 1.12-2.5 2.5-2.5 2.5 1.12 2.5 2.5zm2.87 9.65c0 1.38-1.12 2.5-2.5 2.5s-2.5-1.12-2.5-2.5 1.12-2.5 2.5-2.5 2.5 1.12 2.5 2.5zm2.88 9.64c0 1.4-1.12 2.5-2.5 2.5s-2.5-1.1-2.5-2.5c0-1.38 1.12-2.5 2.5-2.5s2.5 1.12 2.5 2.5zm2.88 9.65c0 1.4-1.12 2.5-2.5 2.5s-2.5-1.1-2.5-2.5c0-1.37 1.12-2.5 2.5-2.5s2.5 1.13 2.5 2.5zm2.87 9.66c0 1.38-1.12 2.5-2.5 2.5s-2.5-1.12-2.5-2.5 1.12-2.5 2.5-2.5 2.5 1.12 2.5 2.5zm2.88 9.64c0 1.38-1.1 2.5-2.5 2.5-1.37 0-2.5-1.12-2.5-2.5s1.13-2.5 2.5-2.5c1.4 0 2.5 1.12 2.5 2.5zm2.9 9.65c0 1.38-1.13 2.5-2.5 2.5-1.4 0-2.5-1.12-2.5-2.5s1.1-2.5 2.5-2.5c1.37 0 2.5 1.12 2.5 2.5zm2.86 9.65c0 1.38-1.12 2.5-2.5 2.5s-2.5-1.12-2.5-2.5c0-1.4 1.12-2.5 2.5-2.5s2.5 1.1 2.5 2.5zm2.88 9.64c0 1.38-1.12 2.5-2.5 2.5s-2.5-1.12-2.5-2.5 1.12-2.5 2.5-2.5 2.5 1.12 2.5 2.5zm2.88 9.65c0 1.37-1.12 2.5-2.5 2.5-1.4 0-2.5-1.13-2.5-2.5 0-1.4 1.1-2.5 2.5-2.5 1.38 0 2.5 1.1 2.5 2.5zm2.87 9.63c0 1.38-1.13 2.5-2.5 2.5-1.4 0-2.5-1.12-2.5-2.5s1.1-2.5 2.5-2.5c1.37 0 2.5 1.12 2.5 2.5zm2.87 9.65c0 1.38-1.12 2.5-2.5 2.5s-2.5-1.12-2.5-2.5 1.12-2.5 2.5-2.5 2.5 1.12 2.5 2.5zm2.88 9.65c0 1.38-1.12 2.5-2.5 2.5-1.4 0-2.5-1.12-2.5-2.5s1.1-2.5 2.5-2.5c1.38 0 2.5 1.12 2.5 2.5zm2.87 9.64c0 1.38-1.12 2.5-2.5 2.5s-2.5-1.12-2.5-2.5 1.12-2.5 2.5-2.5 2.5 1.12 2.5 2.5zm2.88 9.65c0 1.38-1.12 2.5-2.5 2.5s-2.5-1.12-2.5-2.5 1.12-2.5 2.5-2.5 2.5 1.12 2.5 2.5zm2.88 9.64c0 1.4-1.12 2.5-2.5 2.5-1.4 0-2.5-1.1-2.5-2.5 0-1.38 1.1-2.5 2.5-2.5 1.38 0 2.5 1.12 2.5 2.5zm2.87 9.65c0 1.4-1.12 2.5-2.5 2.5s-2.5-1.1-2.5-2.5c0-1.37 1.12-2.5 2.5-2.5s2.5 1.13 2.5 2.5zm2.88 9.66c0 1.38-1.12 2.5-2.5 2.5s-2.5-1.12-2.5-2.5 1.12-2.5 2.5-2.5 2.5 1.12 2.5 2.5zm2.87 9.64c0 1.38-1.1 2.5-2.5 2.5-1.38 0-2.5-1.12-2.5-2.5s1.12-2.5 2.5-2.5c1.4 0 2.5 1.12 2.5 2.5zm2.88 9.65c0 1.38-1.12 2.5-2.5 2.5s-2.5-1.12-2.5-2.5 1.12-2.5 2.5-2.5 2.5 1.12 2.5 2.5zm2.88 9.65c0 1.38-1.12 2.5-2.5 2.5s-2.5-1.12-2.5-2.5c0-1.4 1.12-2.5 2.5-2.5s2.5 1.1 2.5 2.5zm2.87 9.64c0 1.38-1.1 2.5-2.5 2.5-1.38 0-2.5-1.12-2.5-2.5s1.12-2.5 2.5-2.5c1.4 0 2.5 1.12 2.5 2.5zm2.88 9.65c0 1.37-1.1 2.5-2.5 2.5-1.37 0-2.5-1.13-2.5-2.5 0-1.4 1.13-2.5 2.5-2.5 1.4 0 2.5 1.1 2.5 2.5zm2.9 9.63c0 1.38-1.13 2.5-2.5 2.5-1.4 0-2.5-1.12-2.5-2.5s1.1-2.5 2.5-2.5c1.37 0 2.5 1.12 2.5 2.5zm2.86 9.65c0 1.38-1.1 2.5-2.5 2.5-1.38 0-2.5-1.12-2.5-2.5s1.12-2.5 2.5-2.5c1.4 0 2.5 1.12 2.5 2.5zm2.88 9.65c0 1.38-1.12 2.5-2.5 2.5s-2.5-1.12-2.5-2.5 1.12-2.5 2.5-2.5 2.5 1.12 2.5 2.5zm2.88 9.64c0 1.38-1.12 2.5-2.5 2.5s-2.5-1.12-2.5-2.5 1.12-2.5 2.5-2.5 2.5 1.12 2.5 2.5zm2.87 9.65c0 1.38-1.12 2.5-2.5 2.5-1.4 0-2.5-1.12-2.5-2.5s1.1-2.5 2.5-2.5c1.38 0 2.5 1.12 2.5 2.5zm2.87 9.64c0 1.4-1.12 2.5-2.5 2.5s-2.5-1.1-2.5-2.5c0-1.38 1.12-2.5 2.5-2.5s2.5 1.12 2.5 2.5zm2.88 9.65c0 1.4-1.12 2.5-2.5 2.5s-2.5-1.1-2.5-2.5c0-1.37 1.12-2.5 2.5-2.5s2.5 1.13 2.5 2.5zm2.87 9.66c0 1.38-1.12 2.5-2.5 2.5s-2.5-1.12-2.5-2.5 1.12-2.5 2.5-2.5 2.5 1.12 2.5 2.5zm2.88 9.64c0 1.38-1.12 2.5-2.5 2.5s-2.5-1.12-2.5-2.5 1.12-2.5 2.5-2.5 2.5 1.12 2.5 2.5zm2.88 9.65c0 1.38-1.12 2.5-2.5 2.5s-2.5-1.12-2.5-2.5 1.12-2.5 2.5-2.5 2.5 1.12 2.5 2.5zm2.87 9.65c0 1.38-1.12 2.5-2.5 2.5s-2.5-1.12-2.5-2.5c0-1.4 1.12-2.5 2.5-2.5s2.5 1.1 2.5 2.5zm2.88 9.64c0 1.38-1.12 2.5-2.5 2.5s-2.5-1.12-2.5-2.5 1.12-2.5 2.5-2.5 2.5 1.12 2.5 2.5zm2.88 9.65c0 1.37-1.1 2.5-2.5 2.5-1.37 0-2.5-1.13-2.5-2.5 0-1.4 1.13-2.5 2.5-2.5 1.4 0 2.5 1.1 2.5 2.5z" fill="#5e5e5e"/><path d="M25665.88 15352.24l-4.8 1.43-.94-3.17h5.22z" fill="#5e5e5e"/><path d="M25789.07 15774.1l-8.5-12.35 8.87-2.64z" stroke="#5e5e5e" stroke-width="5" fill="#5e5e5e"/><path d="M26557.28 15054.74c0 1.4-1.12 2.5-2.5 2.5s-2.5-1.1-2.5-2.5c0-1.38 1.12-2.5 2.5-2.5s2.5 1.12 2.5 2.5zm9.12 4.14c0 1.38-1.1 2.5-2.5 2.5-1.38 0-2.5-1.12-2.5-2.5s1.12-2.5 2.5-2.5c1.4 0 2.5 1.12 2.5 2.5zm9.13 4.13c0 1.4-1.12 2.5-2.5 2.5s-2.5-1.1-2.5-2.5c0-1.37 1.12-2.5 2.5-2.5s2.5 1.13 2.5 2.5zm9.13 4.15c0 1.38-1.12 2.5-2.5 2.5s-2.5-1.12-2.5-2.5 1.12-2.5 2.5-2.5 2.5 1.12 2.5 2.5zm9.13 4.13c0 1.38-1.13 2.5-2.5 2.5-1.4 0-2.5-1.12-2.5-2.5s1.1-2.5 2.5-2.5c1.37 0 2.5 1.12 2.5 2.5zm9.12 4.14c0 1.38-1.12 2.5-2.5 2.5-1.4 0-2.5-1.12-2.5-2.5s1.1-2.5 2.5-2.5c1.38 0 2.5 1.12 2.5 2.5zm9.12 4.13c0 1.38-1.12 2.5-2.5 2.5s-2.5-1.12-2.5-2.5 1.12-2.5 2.5-2.5 2.5 1.12 2.5 2.5zm9.13 4.14c0 1.37-1.12 2.5-2.5 2.5s-2.5-1.13-2.5-2.5c0-1.4 1.12-2.5 2.5-2.5s2.5 1.1 2.5 2.5zm9.13 4.12c0 1.38-1.12 2.5-2.5 2.5s-2.5-1.12-2.5-2.5 1.12-2.5 2.5-2.5 2.5 1.12 2.5 2.5zm9.13 4.14c0 1.38-1.12 2.5-2.5 2.5s-2.5-1.12-2.5-2.5 1.12-2.5 2.5-2.5 2.5 1.12 2.5 2.5zm9.12 4.13c0 1.37-1.12 2.5-2.5 2.5s-2.5-1.13-2.5-2.5c0-1.4 1.12-2.5 2.5-2.5s2.5 1.1 2.5 2.5zm9.13 4.13c0 1.38-1.12 2.5-2.5 2.5s-2.5-1.12-2.5-2.5 1.12-2.5 2.5-2.5 2.5 1.12 2.5 2.5zm9.13 4.13c0 1.38-1.1 2.5-2.5 2.5-1.37 0-2.5-1.12-2.5-2.5s1.13-2.5 2.5-2.5c1.4 0 2.5 1.12 2.5 2.5zm9.14 4.14c0 1.38-1.12 2.5-2.5 2.5s-2.5-1.12-2.5-2.5 1.12-2.5 2.5-2.5 2.5 1.12 2.5 2.5zm9.12 4.13c0 1.38-1.1 2.5-2.5 2.5-1.38 0-2.5-1.12-2.5-2.5s1.12-2.5 2.5-2.5c1.4 0 2.5 1.12 2.5 2.5zm9.13 4.14c0 1.38-1.13 2.5-2.5 2.5-1.4 0-2.5-1.12-2.5-2.5 0-1.4 1.1-2.5 2.5-2.5 1.37 0 2.5 1.1 2.5 2.5zm9.12 4.13c0 1.38-1.12 2.5-2.5 2.5s-2.5-1.12-2.5-2.5 1.12-2.5 2.5-2.5 2.5 1.12 2.5 2.5zm9.13 4.13c0 1.4-1.12 2.5-2.5 2.5s-2.5-1.1-2.5-2.5c0-1.38 1.12-2.5 2.5-2.5s2.5 1.12 2.5 2.5zm9.13 4.14c0 1.38-1.12 2.5-2.5 2.5-1.4 0-2.5-1.12-2.5-2.5s1.1-2.5 2.5-2.5c1.38 0 2.5 1.12 2.5 2.5zm9.12 4.13c0 1.38-1.12 2.5-2.5 2.5s-2.5-1.12-2.5-2.5 1.12-2.5 2.5-2.5 2.5 1.12 2.5 2.5zm9.13 4.14c0 1.38-1.12 2.5-2.5 2.5s-2.5-1.12-2.5-2.5 1.12-2.5 2.5-2.5 2.5 1.12 2.5 2.5zm9.13 4.13c0 1.38-1.12 2.5-2.5 2.5s-2.5-1.12-2.5-2.5 1.12-2.5 2.5-2.5 2.5 1.12 2.5 2.5zm9.13 4.14c0 1.4-1.13 2.5-2.5 2.5-1.4 0-2.5-1.1-2.5-2.5 0-1.37 1.1-2.5 2.5-2.5 1.37 0 2.5 1.13 2.5 2.5zm9.1 4.14c0 1.38-1.1 2.5-2.5 2.5-1.37 0-2.5-1.12-2.5-2.5s1.13-2.5 2.5-2.5c1.4 0 2.5 1.12 2.5 2.5zm9.14 4.14c0 1.38-1.12 2.5-2.5 2.5s-2.5-1.12-2.5-2.5 1.12-2.5 2.5-2.5 2.5 1.12 2.5 2.5zm9.13 4.13c0 1.4-1.12 2.5-2.5 2.5s-2.5-1.1-2.5-2.5c0-1.37 1.12-2.5 2.5-2.5s2.5 1.13 2.5 2.5zm9.13 4.15c0 1.38-1.12 2.5-2.5 2.5s-2.5-1.12-2.5-2.5 1.12-2.5 2.5-2.5 2.5 1.12 2.5 2.5zm9.12 4.13c0 1.38-1.1 2.5-2.5 2.5-1.38 0-2.5-1.12-2.5-2.5s1.12-2.5 2.5-2.5c1.4 0 2.5 1.12 2.5 2.5zm9.13 4.14c0 1.38-1.12 2.5-2.5 2.5s-2.5-1.12-2.5-2.5 1.12-2.5 2.5-2.5 2.5 1.12 2.5 2.5zm9.13 4.13c0 1.38-1.12 2.5-2.5 2.5s-2.5-1.12-2.5-2.5 1.12-2.5 2.5-2.5 2.5 1.12 2.5 2.5zm9.13 4.14c0 1.37-1.1 2.5-2.5 2.5-1.37 0-2.5-1.13-2.5-2.5 0-1.4 1.13-2.5 2.5-2.5 1.4 0 2.5 1.1 2.5 2.5zm9.13 4.12c0 1.38-1.1 2.5-2.5 2.5-1.38 0-2.5-1.12-2.5-2.5s1.12-2.5 2.5-2.5c1.4 0 2.5 1.12 2.5 2.5zm9.13 4.14c0 1.38-1.12 2.5-2.5 2.5s-2.5-1.12-2.5-2.5c0-1.4 1.12-2.5 2.5-2.5s2.5 1.1 2.5 2.5zm9.13 4.13c0 1.37-1.13 2.5-2.5 2.5-1.4 0-2.5-1.13-2.5-2.5 0-1.4 1.1-2.5 2.5-2.5 1.37 0 2.5 1.1 2.5 2.5zm9.12 4.13c0 1.38-1.12 2.5-2.5 2.5s-2.5-1.12-2.5-2.5c0-1.4 1.12-2.5 2.5-2.5s2.5 1.1 2.5 2.5zm9.13 4.13c0 1.38-1.12 2.5-2.5 2.5-1.4 0-2.5-1.12-2.5-2.5s1.1-2.5 2.5-2.5c1.38 0 2.5 1.12 2.5 2.5zm9.12 4.13c0 1.38-1.12 2.5-2.5 2.5s-2.5-1.12-2.5-2.5c0-1.4 1.12-2.5 2.5-2.5s2.5 1.1 2.5 2.5zm9.13 4.13c0 1.38-1.12 2.5-2.5 2.5s-2.5-1.12-2.5-2.5 1.12-2.5 2.5-2.5 2.5 1.12 2.5 2.5zm9.13 4.13c0 1.38-1.12 2.5-2.5 2.5s-2.5-1.12-2.5-2.5 1.12-2.5 2.5-2.5 2.5 1.12 2.5 2.5zm9.13 4.14c0 1.38-1.12 2.5-2.5 2.5s-2.5-1.12-2.5-2.5 1.12-2.5 2.5-2.5 2.5 1.12 2.5 2.5zm9.12 4.13c0 1.38-1.12 2.5-2.5 2.5s-2.5-1.12-2.5-2.5 1.12-2.5 2.5-2.5 2.5 1.12 2.5 2.5zm9.13 4.14c0 1.38-1.1 2.5-2.5 2.5-1.37 0-2.5-1.12-2.5-2.5s1.13-2.5 2.5-2.5c1.4 0 2.5 1.12 2.5 2.5zm9.14 4.13c0 1.38-1.12 2.5-2.5 2.5s-2.5-1.12-2.5-2.5 1.12-2.5 2.5-2.5 2.5 1.12 2.5 2.5zm9.13 4.14c0 1.38-1.12 2.5-2.5 2.5s-2.5-1.12-2.5-2.5 1.12-2.5 2.5-2.5 2.5 1.12 2.5 2.5zm9.12 4.13c0 1.38-1.12 2.5-2.5 2.5-1.4 0-2.5-1.12-2.5-2.5s1.1-2.5 2.5-2.5c1.38 0 2.5 1.12 2.5 2.5zm9.12 4.14c0 1.4-1.12 2.5-2.5 2.5s-2.5-1.1-2.5-2.5c0-1.37 1.12-2.5 2.5-2.5s2.5 1.13 2.5 2.5zm9.13 4.14c0 1.38-1.12 2.5-2.5 2.5s-2.5-1.12-2.5-2.5 1.12-2.5 2.5-2.5 2.5 1.12 2.5 2.5zm9.13 4.14c0 1.38-1.12 2.5-2.5 2.5s-2.5-1.12-2.5-2.5 1.12-2.5 2.5-2.5 2.5 1.12 2.5 2.5zm9.13 4.13c0 1.4-1.1 2.5-2.5 2.5-1.38 0-2.5-1.1-2.5-2.5 0-1.37 1.12-2.5 2.5-2.5 1.4 0 2.5 1.13 2.5 2.5zm9.13 4.15c0 1.38-1.12 2.5-2.5 2.5s-2.5-1.12-2.5-2.5 1.12-2.5 2.5-2.5 2.5 1.12 2.5 2.5zm9.13 4.13c0 1.38-1.12 2.5-2.5 2.5s-2.5-1.12-2.5-2.5 1.12-2.5 2.5-2.5 2.5 1.12 2.5 2.5zm9.13 4.14c0 1.38-1.13 2.5-2.5 2.5-1.4 0-2.5-1.12-2.5-2.5 0-1.4 1.1-2.5 2.5-2.5 1.37 0 2.5 1.1 2.5 2.5zm9.12 4.13c0 1.38-1.12 2.5-2.5 2.5s-2.5-1.12-2.5-2.5 1.12-2.5 2.5-2.5 2.5 1.12 2.5 2.5zm9.12 4.13c0 1.4-1.12 2.5-2.5 2.5s-2.5-1.1-2.5-2.5c0-1.38 1.12-2.5 2.5-2.5s2.5 1.12 2.5 2.5zm9.13 4.14c0 1.38-1.12 2.5-2.5 2.5s-2.5-1.12-2.5-2.5 1.12-2.5 2.5-2.5 2.5 1.12 2.5 2.5zm9.13 4.13c0 1.4-1.12 2.5-2.5 2.5s-2.5-1.1-2.5-2.5c0-1.38 1.12-2.5 2.5-2.5s2.5 1.12 2.5 2.5zm9.13 4.14c0 1.37-1.12 2.5-2.5 2.5s-2.5-1.13-2.5-2.5c0-1.4 1.12-2.5 2.5-2.5s2.5 1.1 2.5 2.5zm9.12 4.12c0 1.38-1.1 2.5-2.5 2.5-1.38 0-2.5-1.12-2.5-2.5s1.12-2.5 2.5-2.5c1.4 0 2.5 1.12 2.5 2.5zm9.13 4.14c0 1.38-1.12 2.5-2.5 2.5s-2.5-1.12-2.5-2.5 1.12-2.5 2.5-2.5 2.5 1.12 2.5 2.5zm9.13 4.13c0 1.37-1.1 2.5-2.5 2.5-1.37 0-2.5-1.13-2.5-2.5 0-1.4 1.13-2.5 2.5-2.5 1.4 0 2.5 1.1 2.5 2.5zm9.14 4.13c0 1.38-1.12 2.5-2.5 2.5s-2.5-1.12-2.5-2.5 1.12-2.5 2.5-2.5 2.5 1.12 2.5 2.5zm9.13 4.13c0 1.38-1.12 2.5-2.5 2.5-1.4 0-2.5-1.12-2.5-2.5s1.1-2.5 2.5-2.5c1.38 0 2.5 1.12 2.5 2.5zm9.12 4.14c0 1.38-1.13 2.5-2.5 2.5-1.4 0-2.5-1.12-2.5-2.5s1.1-2.5 2.5-2.5c1.37 0 2.5 1.12 2.5 2.5zm9.12 4.13c0 1.38-1.12 2.5-2.5 2.5s-2.5-1.12-2.5-2.5 1.12-2.5 2.5-2.5 2.5 1.12 2.5 2.5zm9.13 4.14c0 1.38-1.12 2.5-2.5 2.5s-2.5-1.12-2.5-2.5 1.12-2.5 2.5-2.5 2.5 1.12 2.5 2.5zm9.13 4.13c0 1.38-1.12 2.5-2.5 2.5-1.4 0-2.5-1.12-2.5-2.5s1.1-2.5 2.5-2.5c1.38 0 2.5 1.12 2.5 2.5zm9.12 4.14c0 1.38-1.12 2.5-2.5 2.5s-2.5-1.12-2.5-2.5 1.12-2.5 2.5-2.5 2.5 1.12 2.5 2.5zm9.13 4.13c0 1.38-1.12 2.5-2.5 2.5s-2.5-1.12-2.5-2.5 1.12-2.5 2.5-2.5 2.5 1.12 2.5 2.5zm9.13 4.14c0 1.4-1.12 2.5-2.5 2.5s-2.5-1.1-2.5-2.5c0-1.37 1.12-2.5 2.5-2.5s2.5 1.13 2.5 2.5zm9.13 4.14c0 1.38-1.13 2.5-2.5 2.5-1.4 0-2.5-1.12-2.5-2.5s1.1-2.5 2.5-2.5c1.37 0 2.5 1.12 2.5 2.5zm9.1 4.14c0 1.38-1.1 2.5-2.5 2.5-1.37 0-2.5-1.12-2.5-2.5 0-1.4 1.13-2.5 2.5-2.5 1.4 0 2.5 1.1 2.5 2.5zm9.14 4.13c0 1.4-1.12 2.5-2.5 2.5s-2.5-1.1-2.5-2.5c0-1.37 1.12-2.5 2.5-2.5s2.5 1.13 2.5 2.5zm9.13 4.14c0 1.4-1.12 2.5-2.5 2.5s-2.5-1.1-2.5-2.5c0-1.38 1.12-2.5 2.5-2.5s2.5 1.12 2.5 2.5zm9.13 4.14c0 1.38-1.12 2.5-2.5 2.5s-2.5-1.12-2.5-2.5 1.12-2.5 2.5-2.5 2.5 1.12 2.5 2.5zm9.12 4.13c0 1.4-1.1 2.5-2.5 2.5-1.38 0-2.5-1.1-2.5-2.5 0-1.37 1.12-2.5 2.5-2.5 1.4 0 2.5 1.13 2.5 2.5zm9.13 4.15c0 1.38-1.12 2.5-2.5 2.5s-2.5-1.12-2.5-2.5 1.12-2.5 2.5-2.5 2.5 1.12 2.5 2.5zm9.13 4.13c0 1.38-1.12 2.5-2.5 2.5s-2.5-1.12-2.5-2.5 1.12-2.5 2.5-2.5 2.5 1.12 2.5 2.5zm9.13 4.14c0 1.38-1.1 2.5-2.5 2.5-1.37 0-2.5-1.12-2.5-2.5s1.13-2.5 2.5-2.5c1.4 0 2.5 1.12 2.5 2.5zm9.14 4.13c0 1.38-1.12 2.5-2.5 2.5-1.4 0-2.5-1.12-2.5-2.5s1.1-2.5 2.5-2.5c1.38 0 2.5 1.12 2.5 2.5zm9.12 4.14c0 1.37-1.12 2.5-2.5 2.5s-2.5-1.13-2.5-2.5c0-1.4 1.12-2.5 2.5-2.5s2.5 1.1 2.5 2.5zm9.13 4.12c0 1.38-1.13 2.5-2.5 2.5-1.4 0-2.5-1.12-2.5-2.5s1.1-2.5 2.5-2.5c1.37 0 2.5 1.12 2.5 2.5zm9.12 4.14c0 1.38-1.12 2.5-2.5 2.5s-2.5-1.12-2.5-2.5 1.12-2.5 2.5-2.5 2.5 1.12 2.5 2.5zm9.13 4.13c0 1.37-1.12 2.5-2.5 2.5s-2.5-1.13-2.5-2.5c0-1.4 1.12-2.5 2.5-2.5s2.5 1.1 2.5 2.5zm9.12 4.13c0 1.38-1.12 2.5-2.5 2.5s-2.5-1.12-2.5-2.5 1.12-2.5 2.5-2.5 2.5 1.12 2.5 2.5zm9.13 4.13c0 1.38-1.12 2.5-2.5 2.5s-2.5-1.12-2.5-2.5 1.12-2.5 2.5-2.5 2.5 1.12 2.5 2.5zm9.13 4.14c0 1.38-1.12 2.5-2.5 2.5s-2.5-1.12-2.5-2.5 1.12-2.5 2.5-2.5 2.5 1.12 2.5 2.5zm9.13 4.13c0 1.38-1.12 2.5-2.5 2.5s-2.5-1.12-2.5-2.5 1.12-2.5 2.5-2.5 2.5 1.12 2.5 2.5zm9.12 4.14c0 1.38-1.1 2.5-2.5 2.5-1.38 0-2.5-1.12-2.5-2.5 0-1.4 1.12-2.5 2.5-2.5 1.4 0 2.5 1.1 2.5 2.5zm9.13 4.13c0 1.38-1.1 2.5-2.5 2.5-1.37 0-2.5-1.12-2.5-2.5s1.13-2.5 2.5-2.5c1.4 0 2.5 1.12 2.5 2.5zm9.14 4.14c0 1.38-1.12 2.5-2.5 2.5s-2.5-1.12-2.5-2.5c0-1.4 1.12-2.5 2.5-2.5s2.5 1.1 2.5 2.5zm9.13 4.13c0 1.38-1.12 2.5-2.5 2.5s-2.5-1.12-2.5-2.5 1.12-2.5 2.5-2.5 2.5 1.12 2.5 2.5zm9.13 4.13c0 1.4-1.12 2.5-2.5 2.5-1.4 0-2.5-1.1-2.5-2.5 0-1.38 1.1-2.5 2.5-2.5 1.38 0 2.5 1.12 2.5 2.5zm9.12 4.14c0 1.38-1.12 2.5-2.5 2.5s-2.5-1.12-2.5-2.5 1.12-2.5 2.5-2.5 2.5 1.12 2.5 2.5zm9.13 4.13c0 1.38-1.12 2.5-2.5 2.5s-2.5-1.12-2.5-2.5 1.12-2.5 2.5-2.5 2.5 1.12 2.5 2.5zm9.13 4.14c0 1.4-1.12 2.5-2.5 2.5s-2.5-1.1-2.5-2.5c0-1.37 1.12-2.5 2.5-2.5s2.5 1.13 2.5 2.5zm9.13 4.14c0 1.38-1.1 2.5-2.5 2.5-1.37 0-2.5-1.12-2.5-2.5s1.13-2.5 2.5-2.5c1.4 0 2.5 1.12 2.5 2.5zm9.13 4.14c0 1.38-1.12 2.5-2.5 2.5s-2.5-1.12-2.5-2.5 1.12-2.5 2.5-2.5 2.5 1.12 2.5 2.5zm9.13 4.13c0 1.4-1.12 2.5-2.5 2.5s-2.5-1.1-2.5-2.5c0-1.37 1.12-2.5 2.5-2.5s2.5 1.13 2.5 2.5zm9.13 4.15c0 1.38-1.13 2.5-2.5 2.5-1.4 0-2.5-1.12-2.5-2.5s1.1-2.5 2.5-2.5c1.37 0 2.5 1.12 2.5 2.5zm9.12 4.13c0 1.38-1.12 2.5-2.5 2.5s-2.5-1.12-2.5-2.5 1.12-2.5 2.5-2.5 2.5 1.12 2.5 2.5zm9.12 4.14c0 1.38-1.12 2.5-2.5 2.5s-2.5-1.12-2.5-2.5 1.12-2.5 2.5-2.5 2.5 1.12 2.5 2.5zm9.13 4.13c0 1.38-1.12 2.5-2.5 2.5s-2.5-1.12-2.5-2.5 1.12-2.5 2.5-2.5 2.5 1.12 2.5 2.5zm9.13 4.14c0 1.37-1.12 2.5-2.5 2.5s-2.5-1.13-2.5-2.5c0-1.4 1.12-2.5 2.5-2.5s2.5 1.1 2.5 2.5zm9.13 4.12c0 1.38-1.12 2.5-2.5 2.5s-2.5-1.12-2.5-2.5 1.12-2.5 2.5-2.5 2.5 1.12 2.5 2.5zm9.12 4.14c0 1.38-1.1 2.5-2.5 2.5-1.38 0-2.5-1.12-2.5-2.5s1.12-2.5 2.5-2.5c1.4 0 2.5 1.12 2.5 2.5zm9.13 4.13c0 1.37-1.12 2.5-2.5 2.5s-2.5-1.13-2.5-2.5c0-1.4 1.12-2.5 2.5-2.5s2.5 1.1 2.5 2.5zm9.13 4.13c0 1.38-1.1 2.5-2.5 2.5-1.37 0-2.5-1.12-2.5-2.5 0-1.4 1.13-2.5 2.5-2.5 1.4 0 2.5 1.1 2.5 2.5zm9.14 4.13c0 1.38-1.12 2.5-2.5 2.5s-2.5-1.12-2.5-2.5 1.12-2.5 2.5-2.5 2.5 1.12 2.5 2.5zm9.13 4.13c0 1.38-1.12 2.5-2.5 2.5-1.4 0-2.5-1.12-2.5-2.5 0-1.4 1.1-2.5 2.5-2.5 1.38 0 2.5 1.1 2.5 2.5zm9.12 4.13c0 1.38-1.13 2.5-2.5 2.5-1.4 0-2.5-1.12-2.5-2.5s1.1-2.5 2.5-2.5c1.37 0 2.5 1.12 2.5 2.5zm9.12 4.13c0 1.4-1.12 2.5-2.5 2.5s-2.5-1.1-2.5-2.5c0-1.38 1.12-2.5 2.5-2.5s2.5 1.12 2.5 2.5zm9.13 4.14c0 1.38-1.12 2.5-2.5 2.5s-2.5-1.12-2.5-2.5 1.12-2.5 2.5-2.5 2.5 1.12 2.5 2.5zm9.13 4.13c0 1.38-1.12 2.5-2.5 2.5s-2.5-1.12-2.5-2.5 1.12-2.5 2.5-2.5 2.5 1.12 2.5 2.5zm9.12 4.14c0 1.38-1.12 2.5-2.5 2.5s-2.5-1.12-2.5-2.5 1.12-2.5 2.5-2.5 2.5 1.12 2.5 2.5zm9.13 4.13c0 1.38-1.12 2.5-2.5 2.5s-2.5-1.12-2.5-2.5 1.12-2.5 2.5-2.5 2.5 1.12 2.5 2.5zm9.13 4.14c0 1.38-1.12 2.5-2.5 2.5s-2.5-1.12-2.5-2.5 1.12-2.5 2.5-2.5 2.5 1.12 2.5 2.5zm9.13 4.13c0 1.38-1.13 2.5-2.5 2.5-1.4 0-2.5-1.12-2.5-2.5s1.1-2.5 2.5-2.5c1.37 0 2.5 1.12 2.5 2.5zm9.1 4.14c0 1.4-1.1 2.5-2.5 2.5-1.37 0-2.5-1.1-2.5-2.5 0-1.37 1.13-2.5 2.5-2.5 1.4 0 2.5 1.13 2.5 2.5zm9.14 4.14c0 1.38-1.12 2.5-2.5 2.5s-2.5-1.12-2.5-2.5 1.12-2.5 2.5-2.5 2.5 1.12 2.5 2.5zm9.13 4.14c0 1.38-1.12 2.5-2.5 2.5s-2.5-1.12-2.5-2.5 1.12-2.5 2.5-2.5 2.5 1.12 2.5 2.5zm9.13 4.13c0 1.4-1.12 2.5-2.5 2.5s-2.5-1.1-2.5-2.5c0-1.37 1.12-2.5 2.5-2.5s2.5 1.13 2.5 2.5zm9.13 4.15c0 1.38-1.12 2.5-2.5 2.5-1.4 0-2.5-1.12-2.5-2.5s1.1-2.5 2.5-2.5c1.38 0 2.5 1.12 2.5 2.5zm9.12 4.13c0 1.38-1.12 2.5-2.5 2.5s-2.5-1.12-2.5-2.5 1.12-2.5 2.5-2.5 2.5 1.12 2.5 2.5zm9.13 4.14c0 1.38-1.12 2.5-2.5 2.5s-2.5-1.12-2.5-2.5 1.12-2.5 2.5-2.5 2.5 1.12 2.5 2.5zm9.13 4.13c0 1.38-1.1 2.5-2.5 2.5-1.37 0-2.5-1.12-2.5-2.5s1.13-2.5 2.5-2.5c1.4 0 2.5 1.12 2.5 2.5zm9.14 4.14c0 1.37-1.12 2.5-2.5 2.5s-2.5-1.13-2.5-2.5c0-1.4 1.12-2.5 2.5-2.5s2.5 1.1 2.5 2.5zm9.12 4.12c0 1.38-1.12 2.5-2.5 2.5s-2.5-1.12-2.5-2.5 1.12-2.5 2.5-2.5 2.5 1.12 2.5 2.5zm9.13 4.13c0 1.4-1.13 2.5-2.5 2.5-1.4 0-2.5-1.1-2.5-2.5 0-1.38 1.1-2.5 2.5-2.5 1.37 0 2.5 1.12 2.5 2.5zm9.12 4.14c0 1.37-1.12 2.5-2.5 2.5s-2.5-1.13-2.5-2.5c0-1.4 1.12-2.5 2.5-2.5s2.5 1.1 2.5 2.5zm9.13 4.12c0 1.38-1.12 2.5-2.5 2.5s-2.5-1.12-2.5-2.5 1.12-2.5 2.5-2.5 2.5 1.12 2.5 2.5zm9.12 4.14c0 1.38-1.12 2.5-2.5 2.5s-2.5-1.12-2.5-2.5 1.12-2.5 2.5-2.5 2.5 1.12 2.5 2.5zm9.13 4.13c0 1.37-1.12 2.5-2.5 2.5s-2.5-1.13-2.5-2.5c0-1.4 1.12-2.5 2.5-2.5s2.5 1.1 2.5 2.5zm9.13 4.13c0 1.38-1.12 2.5-2.5 2.5s-2.5-1.12-2.5-2.5 1.12-2.5 2.5-2.5 2.5 1.12 2.5 2.5zm9.13 4.13c0 1.38-1.12 2.5-2.5 2.5s-2.5-1.12-2.5-2.5 1.12-2.5 2.5-2.5 2.5 1.12 2.5 2.5zm9.12 4.14c0 1.38-1.1 2.5-2.5 2.5-1.38 0-2.5-1.12-2.5-2.5s1.12-2.5 2.5-2.5c1.4 0 2.5 1.12 2.5 2.5zm9.13 4.13c0 1.38-1.1 2.5-2.5 2.5-1.37 0-2.5-1.12-2.5-2.5s1.13-2.5 2.5-2.5c1.4 0 2.5 1.12 2.5 2.5zm9.14 4.14c0 1.38-1.12 2.5-2.5 2.5s-2.5-1.12-2.5-2.5 1.12-2.5 2.5-2.5 2.5 1.12 2.5 2.5zm9.13 4.13c0 1.38-1.12 2.5-2.5 2.5s-2.5-1.12-2.5-2.5 1.12-2.5 2.5-2.5 2.5 1.12 2.5 2.5zm9.13 4.14c0 1.38-1.12 2.5-2.5 2.5-1.4 0-2.5-1.12-2.5-2.5s1.1-2.5 2.5-2.5c1.38 0 2.5 1.12 2.5 2.5zm9.12 4.13c0 1.38-1.12 2.5-2.5 2.5s-2.5-1.12-2.5-2.5 1.12-2.5 2.5-2.5 2.5 1.12 2.5 2.5zm9.13 4.14c0 1.4-1.12 2.5-2.5 2.5s-2.5-1.1-2.5-2.5c0-1.37 1.12-2.5 2.5-2.5s2.5 1.13 2.5 2.5zm9.13 4.14c0 1.38-1.12 2.5-2.5 2.5s-2.5-1.12-2.5-2.5 1.12-2.5 2.5-2.5 2.5 1.12 2.5 2.5zm9.13 4.14c0 1.38-1.1 2.5-2.5 2.5-1.37 0-2.5-1.12-2.5-2.5 0-1.4 1.13-2.5 2.5-2.5 1.4 0 2.5 1.1 2.5 2.5zm9.13 4.13c0 1.4-1.12 2.5-2.5 2.5s-2.5-1.1-2.5-2.5c0-1.37 1.12-2.5 2.5-2.5s2.5 1.13 2.5 2.5zm9.13 4.15c0 1.38-1.12 2.5-2.5 2.5s-2.5-1.12-2.5-2.5c0-1.4 1.12-2.5 2.5-2.5s2.5 1.1 2.5 2.5zm9.13 4.13c0 1.38-1.13 2.5-2.5 2.5-1.4 0-2.5-1.12-2.5-2.5s1.1-2.5 2.5-2.5c1.37 0 2.5 1.12 2.5 2.5zm9.12 4.13c0 1.4-1.12 2.5-2.5 2.5s-2.5-1.1-2.5-2.5c0-1.37 1.12-2.5 2.5-2.5s2.5 1.13 2.5 2.5zm9.12 4.15c0 1.38-1.1 2.5-2.5 2.5-1.38 0-2.5-1.12-2.5-2.5s1.12-2.5 2.5-2.5c1.4 0 2.5 1.12 2.5 2.5zm9.13 4.13c0 1.38-1.12 2.5-2.5 2.5s-2.5-1.12-2.5-2.5 1.12-2.5 2.5-2.5 2.5 1.12 2.5 2.5zm9.13 4.14c0 1.38-1.12 2.5-2.5 2.5s-2.5-1.12-2.5-2.5 1.12-2.5 2.5-2.5 2.5 1.12 2.5 2.5zm9.13 4.13c0 1.38-1.12 2.5-2.5 2.5s-2.5-1.12-2.5-2.5 1.12-2.5 2.5-2.5 2.5 1.12 2.5 2.5zm9.13 4.14c0 1.37-1.12 2.5-2.5 2.5-1.4 0-2.5-1.13-2.5-2.5 0-1.4 1.1-2.5 2.5-2.5 1.38 0 2.5 1.1 2.5 2.5zm9.12 4.12c0 1.38-1.12 2.5-2.5 2.5s-2.5-1.12-2.5-2.5 1.12-2.5 2.5-2.5 2.5 1.12 2.5 2.5zm9.13 4.14c0 1.38-1.1 2.5-2.5 2.5-1.37 0-2.5-1.12-2.5-2.5s1.13-2.5 2.5-2.5c1.4 0 2.5 1.12 2.5 2.5zm9.14 4.13c0 1.37-1.12 2.5-2.5 2.5s-2.5-1.13-2.5-2.5c0-1.4 1.12-2.5 2.5-2.5s2.5 1.1 2.5 2.5zm9.13 4.13c0 1.38-1.12 2.5-2.5 2.5s-2.5-1.12-2.5-2.5 1.12-2.5 2.5-2.5 2.5 1.12 2.5 2.5zm9.12 4.13c0 1.38-1.13 2.5-2.5 2.5-1.4 0-2.5-1.12-2.5-2.5s1.1-2.5 2.5-2.5c1.37 0 2.5 1.12 2.5 2.5zm9.12 4.14c0 1.38-1.12 2.5-2.5 2.5s-2.5-1.12-2.5-2.5 1.12-2.5 2.5-2.5 2.5 1.12 2.5 2.5zm9.13 4.13c0 1.38-1.12 2.5-2.5 2.5s-2.5-1.12-2.5-2.5 1.12-2.5 2.5-2.5 2.5 1.12 2.5 2.5zm9.13 4.14c0 1.38-1.12 2.5-2.5 2.5s-2.5-1.12-2.5-2.5 1.12-2.5 2.5-2.5 2.5 1.12 2.5 2.5zm9.12 4.13c0 1.38-1.12 2.5-2.5 2.5s-2.5-1.12-2.5-2.5 1.12-2.5 2.5-2.5 2.5 1.12 2.5 2.5zm9.13 4.14c0 1.38-1.12 2.5-2.5 2.5s-2.5-1.12-2.5-2.5c0-1.4 1.12-2.5 2.5-2.5s2.5 1.1 2.5 2.5zm9.13 4.13c0 1.38-1.12 2.5-2.5 2.5s-2.5-1.12-2.5-2.5 1.12-2.5 2.5-2.5 2.5 1.12 2.5 2.5zm9.13 4.13c0 1.4-1.13 2.5-2.5 2.5-1.4 0-2.5-1.1-2.5-2.5 0-1.38 1.1-2.5 2.5-2.5 1.37 0 2.5 1.12 2.5 2.5zm9.1 4.14c0 1.38-1.1 2.5-2.5 2.5-1.37 0-2.5-1.12-2.5-2.5s1.13-2.5 2.5-2.5c1.4 0 2.5 1.12 2.5 2.5zm9.14 4.13c0 1.38-1.12 2.5-2.5 2.5s-2.5-1.12-2.5-2.5 1.12-2.5 2.5-2.5 2.5 1.12 2.5 2.5zm9.13 4.14c0 1.4-1.12 2.5-2.5 2.5s-2.5-1.1-2.5-2.5c0-1.37 1.12-2.5 2.5-2.5s2.5 1.13 2.5 2.5z" fill="#5e5e5e"/><path d="M26555.87 15052.5l-2.07 4.55-1.3-.6v-5.48z" fill="#5e5e5e"/><path d="M28094.37 15752.16l-14.9-1.66 3.82-8.45z" stroke="#5e5e5e" stroke-width="5" fill="#5e5e5e"/><path d="M27427.25 16112.33c0-3.3 2.7-6 6-6h608c3.3 0 6 2.7 6 6v225.34c0 3.3-2.7 6-6 6h-608c-3.3 0-6-2.7-6-6z" stroke="#000" fill="#e5e5e5"/><use xlink:href="#c" transform="matrix(1,0,0,1,27439.25,16118.333333333334) translate(98.37037037037038 71.11111111111111)"/><use xlink:href="#d" transform="matrix(1,0,0,1,27439.25,16118.333333333334) translate(377.6296296296296 71.11111111111111)"/><use xlink:href="#e" transform="matrix(1,0,0,1,27439.25,16118.333333333334) translate(6.518518518518533 177.77777777777777)"/><use xlink:href="#f" transform="matrix(1,0,0,1,27439.25,16118.333333333334) translate(272.69135802469134 177.77777777777777)"/><path d="M26865.87 16893.85c4.32 0 8.82.2 13.5.4 4.68.38 9.36.76 14.04 1.35 4.87.6 9.55 1.37 14.05 2.34 4.68.98 9 2.15 13.14 3.7 1.25.4 2.87.98 5.03 1.96 2.16.78 4.32 1.94 6.3 3.12 1.98 1.16 3.78 2.33 5.22 3.9 1.44 1.36 2.16 2.73 2.16 4.28 0 .6-.17.98-.35 1.56-.18.6-.54.98-1.08 1.56-1.8 2.34-4.5 4.3-7.74 6.05-3.24 1.76-7.02 3.3-11.34 4.5-4.15 1.35-8.65 2.52-13.5 3.3-4.7.97-9.55 1.76-14.23 2.34-4.86.4-9.36.8-13.68 1.18-4.5.2-8.3.4-11.7.4-3.43 0-7.2-.2-11.7-.4-4.33-.4-8.83-.78-13.7-1.17-4.67-.58-9.53-1.36-14.2-2.33-4.87-.78-9.37-1.95-13.5-3.3-4.33-1.2-8.1-2.74-11.35-4.5-3.42-1.76-5.94-3.7-7.74-6.05-.53-.58-.9-.97-1.07-1.56-.18-.58-.36-.97-.36-1.56 0-1.56.72-2.92 2.16-4.3 1.44-1.54 3.24-2.72 5.22-3.88 1.98-1.18 4.14-2.35 6.3-3.13 2.16-.98 3.78-1.56 5.04-1.95 4.13-1.57 8.45-2.74 13.13-3.7 4.5-1 9.18-1.76 14.04-2.35 4.68-.58 9.36-.97 14.04-1.36 4.7-.2 9.2-.4 13.5-.4h.37zm73.44 41.73v21.05c0 1.37-.7 2.93-2.15 4.3-1.44 1.36-3.24 2.72-5.22 3.9-1.98 1.16-4.14 2.14-6.3 3.1-2.16.8-3.78 1.57-5.04 1.96-4.15 1.36-8.47 2.72-13.15 3.5-4.5.98-9.18 1.76-14.04 2.34-4.67.78-9.35 1.17-14.03 1.37-4.68.2-9.18.4-13.68.4s-9-.2-13.7-.4c-4.67-.2-9.35-.58-14.03-1.35-4.86-.6-9.54-1.37-14.04-2.35-4.68-.78-9-2.14-13.14-3.5-1.27-.4-2.9-1.18-5.05-1.96-2.16-.97-4.32-1.94-6.3-3.12-1.98-1.17-3.78-2.53-5.22-3.9-1.44-1.36-2.16-2.92-2.16-4.28v-21.06c4.86 2.53 10.26 4.87 16.38 6.62 6.12 1.95 12.42 3.32 19.08 4.5 6.66.96 13.14 1.74 19.8 2.33 6.48.4 12.6.58 18.36.58 5.75 0 11.87-.18 18.35-.57 6.66-.58 13.14-1.37 19.8-2.34 6.66-1.18 12.96-2.55 19.08-4.5 6.12-1.75 11.52-4.1 16.38-6.63zm0 41.72v21.06c0 1.56-.7 2.93-2.15 4.3-1.44 1.55-3.24 2.72-5.22 3.9-1.98 1.16-4.14 2.14-6.3 3.1-2.16 1-3.78 1.57-5.04 1.96-4.15 1.56-8.3 2.74-12.97 3.7-4.68.8-9.36 1.57-14.04 2.35-4.87.58-9.55.97-14.23 1.17-4.86.4-9.36.4-13.68.4-4.33 0-8.83 0-13.7-.4-4.67-.2-9.35-.6-14.2-1.17l-14.05-2.34c-4.68-.98-8.82-2.15-12.96-3.7-1.27-.4-2.9-.98-5.05-1.96-2.16-.97-4.32-1.94-6.3-3.12-1.98-1.17-3.78-2.34-5.22-3.9-1.44-1.36-2.16-2.73-2.16-4.3v-21.05c4.86 2.74 10.26 5.08 16.56 6.83 6.12 1.75 12.42 3.3 18.9 4.3 6.66 1.16 13.14 1.94 19.8 2.33 6.48.4 12.6.58 18.36.58 5.75 0 11.87-.2 18.35-.58 6.66-.4 13.14-1.17 19.8-2.34 6.48-.97 12.78-2.53 18.9-4.3 6.3-1.74 11.7-4.08 16.56-6.82zm0 41.73v21.06c0 1.56-.7 3.1-2.15 4.48-1.44 1.36-3.24 2.53-5.22 3.7-1.98 1.17-4.14 2.34-6.3 3.13-2.16.98-3.78 1.56-5.04 2.15-4.15 1.36-8.3 2.53-12.97 3.5-4.68.98-9.36 1.76-14.04 2.35-4.87.58-9.55.97-14.23 1.36-4.86.2-9.36.4-13.68.4-4.33 0-8.83-.2-13.7-.4-4.67-.4-9.35-.78-14.2-1.36-4.7-.6-9.37-1.37-14.05-2.34-4.68-.98-8.82-2.15-12.96-3.5-1.27-.6-2.9-1.18-5.05-2.16-2.16-.78-4.32-1.95-6.3-3.12-1.98-1.17-3.78-2.34-5.22-3.7-1.44-1.37-2.16-2.93-2.16-4.5v-21.05c4.86 2.74 10.26 5.07 16.56 6.83 6.12 1.95 12.42 3.3 18.9 4.48 6.66.98 13.14 1.76 19.8 2.15 6.48.57 12.6.77 18.36.77 5.75 0 11.87-.2 18.35-.78 6.66-.4 13.14-1.18 19.8-2.16 6.48-1.17 12.78-2.53 18.9-4.48 6.3-1.76 11.7-4.1 16.56-6.83zm-73.6-139.03c-5.95 0-12.8.2-20.17.78-7.56.6-15.12 1.76-22.68 3.12-7.38 1.56-14.58 3.3-21.42 5.85-6.84 2.34-12.42 5.46-16.74 9.17-2.7 2.14-4.87 4.48-6.5 7.2-1.6 2.55-2.5 5.47-2.5 8.78v125.2c0 3.3.9 6.23 2.5 8.77 1.63 2.73 3.8 5.07 6.5 7.2 4.3 3.72 9.9 6.84 16.73 9.18 6.84 2.53 14.04 4.3 21.42 5.85 7.56 1.36 15.12 2.53 22.68 3.12 7.38.58 14.22.78 20.16.78 5.93 0 12.77-.2 20.15-.78 7.56-.6 15.12-1.76 22.68-3.12 7.38-1.56 14.58-3.32 21.42-5.85 6.84-2.34 12.42-5.46 16.74-9.17 2.7-2.14 4.85-4.48 6.47-7.2 1.62-2.55 2.52-5.47 2.52-8.8v-125.18c0-3.3-.9-6.24-2.53-8.77-1.62-2.73-3.78-5.07-6.48-7.22-4.33-3.7-9.9-6.8-16.75-9.15-6.84-2.53-14.04-4.3-21.42-5.85-7.56-1.37-15.12-2.53-22.68-3.12-7.38-.58-14.22-.78-20.16-.78z" fill="#0c7cba"/><path d="M26862.86 16738.14v128.53M26852.86 16738.14v128.53M26868.04 16746.63l-10.18-17.22-10.18 17.23M26847.68 16858.18l10.18 17.2 10.18-17.2" stroke="#5e5e5e" stroke-width="5" fill="none"/><path d="M28540 15606c0-3.3 2.7-6 6-6h568c3.3 0 6 2.7 6 6v148c0 3.3-2.7 6-6 6h-568c-3.3 0-6-2.7-6-6z" stroke="#000" fill="#e5e5e5"/><use xlink:href="#g" transform="matrix(1,0,0,1,28552,15612) translate(37.72222222222223 88.8888888888889)"/><path d="M28540 16151c0-3.3 2.7-6 6-6h568c3.3 0 6 2.7 6 6v148c0 3.3-2.7 6-6 6h-568c-3.3 0-6-2.7-6-6z" stroke="#000" fill="#e5e5e5"/><use xlink:href="#h" transform="matrix(1,0,0,1,28552,16157) translate(136.33333333333334 88.8888888888889)"/><path d="M28540 16691c0-3.3 2.7-6 6-6h568c3.3 0 6 2.7 6 6v148c0 3.3-2.7 6-6 6h-568c-3.3 0-6-2.7-6-6z" stroke="#000" fill="#e5e5e5"/><use xlink:href="#i" transform="matrix(1,0,0,1,28552,16697) translate(49.75925925925927 88.8888888888889)"/><path d="M28294.57 15925.36l-14.54 21.95-11.37 15.7-9.74 12.3-8.72 10.1-8 8.53-7.48 7.33-7.1 6.4-6.8 5.6-6.55 5-6.4 4.44-6.25 3.98-6.17 3.56-6.12 3.2-6.1 2.87-6.1 2.57-6.13 2.28-6.2 2.02-6.28 1.75-6.4 1.5-6.58 1.26-3.4.5-.74-4.94 3.3-.5 6.37-1.2 6.2-1.46 6.1-1.7 6-1.95 5.93-2.2 5.9-2.5 5.9-2.77 5.94-3.1 6-3.46 6.07-3.86 6.23-4.33 6.4-4.84 6.63-5.5 6.93-6.24 7.33-7.2 7.86-8.37 8.56-9.94 9.6-12.13 11.26-15.5 14.4-21.77 11.25-19.02h5.8zm242.48-242.8l-4.9.1-7.04.44-6.76.7-6.55.97-6.37 1.22-6.2 1.44-6.1 1.7-6 1.95-5.93 2.2-5.9 2.48-5.9 2.78-5.94 3.1-6 3.46-6.07 3.86-6.23 4.33-6.4 4.87-6.63 5.5-6.93 6.24-7.33 7.2-7.86 8.37-8.56 9.95-9.6 12.13-11.26 15.5-14.4 21.77-11.3 18.86h-5.83l12.9-21.52 14.52-21.95 11.37-15.67 9.74-12.3 8.72-10.1 8-8.53 7.48-7.34 7.1-6.4 6.8-5.6 6.55-5 6.4-4.44 6.25-3.98 6.17-3.56 6.12-3.2 6.1-2.87 6.1-2.55 6.13-2.28 6.2-2.02 6.28-1.75 6.4-1.5 6.58-1.26 6.75-1 7-.73 7.23-.44 5-.1z" fill="#5e5e5e"/><path d="M28539.5 15682.5l-2.52.05-.1-5 2.62-.05zM28139.63 16050.5l-14.56-3.57 13.9-5.66z" fill="#5e5e5e"/><path d="M28142.38 16053.76l-25.38-6.24 24.2-9.87zm-9.24-7.42l3.75.92-.18-2.38z" fill="#5e5e5e"/><use xlink:href="#j" transform="matrix(1,0,0,1,28265.326239984435,15823.677439611425) translate(0.005000000000002558 26.66666666666667)"/><use xlink:href="#k" transform="matrix(1,0,0,1,28265.326239984435,15823.677439611425) translate(81.3012962962963 26.66666666666667)"/><use xlink:href="#l" transform="matrix(1,0,0,1,28265.326239984435,15823.677439611425) translate(1.8568518518518644 66.66666666666669)"/><path d="M28265.47 16227.5h-123.6v-5h123.6zm271.52 0H28391v-5H28537z" fill="#5e5e5e"/><path d="M28539.5 16227.5h-2.57v-5h2.57zM28139.36 16229.64l-14.27-4.64 14.26-4.63z" fill="#5e5e5e"/><path d="M28141.86 16233.08l-24.86-8.08 24.86-8.07zm-8.68-8.08l3.68 1.2v-2.4z" fill="#5e5e5e"/><use xlink:href="#j" transform="matrix(1,0,0,1,28265.469053515833,16185.00082603854) translate(0.005000000000002558 26.66666666666667)"/><use xlink:href="#k" transform="matrix(1,0,0,1,28265.469053515833,16185.00082603854) translate(81.3012962962963 26.66666666666667)"/><use xlink:href="#l" transform="matrix(1,0,0,1,28265.469053515833,16185.00082603854) translate(1.8568518518518644 66.66666666666669)"/><path d="M28368.1 16641.9l13.94 21.06 11.03 15.22 9.5 11.98 8.47 9.84 7.8 8.3 7.27 7.13 6.9 6.2 6.58 5.46 6.35 4.82 6.18 4.3 6.05 3.83 5.95 3.44 5.9 3.07 5.86 2.76 5.86 2.46 5.9 2.18 5.94 1.94 6.04 1.68 6.16 1.45 6.3 1.2 6.5.96 6.7.7 6.96.45 4.83.1-.1 5-4.94-.1-7.16-.46-6.92-.73-6.7-1-6.5-1.23-6.36-1.5-6.24-1.74-6.15-2-6.1-2.26-6.05-2.55-6.05-2.85-6.08-3.18-6.14-3.54-6.22-3.95-6.35-4.42-6.53-4.95-6.75-5.58-7.04-6.34-7.42-7.28-7.94-8.45-8.62-10-9.6-12.15-11.17-15.4-14.07-21.22-15.1-25.15h5.82zm-222.83-248.5l6.5 1.25 6.37 1.5 6.24 1.73 6.15 2 6.1 2.27 6.05 2.54 6.05 2.84 6.08 3.18 6.14 3.54 6.22 3.95 6.35 4.42 6.53 4.96 6.75 5.58 7.04 6.35 7.42 7.28 7.94 8.46 8.62 10 9.6 12.14 11.17 15.4 14.08 21.24 14.86 25.4h-5.78l-13.32-22.76-13.94-21.04-11.03-15.22-9.5-11.97-8.47-9.85-7.8-8.3-7.27-7.13-6.9-6.2-6.58-5.46-6.35-4.83-6.18-4.3-6.05-3.83-5.95-3.44-5.9-3.08-5.86-2.76-5.86-2.46-5.9-2.2-5.94-1.93-6.04-1.7-6.16-1.43-6.3-1.2-3.04-.45.73-4.96z" fill="#5e5e5e"/><path d="M28539.5 16762.5v5l-2.62-.05.1-5zM28138.95 16399.86l-13.88-5.68 14.57-3.57z" fill="#5e5e5e"/><path d="M28141.2 16403.47l-24.2-9.88 25.38-6.24zm-8.06-8.7l3.57 1.47.2-2.38z" fill="#5e5e5e"/><use xlink:href="#j" transform="matrix(1,0,0,1,28265.233826995744,16539.430457850824) translate(0.005000000000002558 26.66666666666667)"/><use xlink:href="#k" transform="matrix(1,0,0,1,28265.233826995744,16539.430457850824) translate(81.3012962962963 26.66666666666667)"/><use xlink:href="#l" transform="matrix(1,0,0,1,28265.233826995744,16539.430457850824) translate(1.8568518518518644 66.66666666666669)"/><path d="M27075.12 16375.23h.38l-8.5 5.9-21.97 16.67-20.35 16.83-18.74 16.87-17.2 16.84-15.73 16.74-14.32 16.6-13.04 16.45-11.83 16.27-10.7 16.1-9.65 15.95-8.68 15.8-7.78 15.66-6.94 15.57-6.13 15.48-5.37 15.43-4.65 15.4-3.95 15.4-3.3 15.47-2.6 15.54-1.76 13.84-4.97-.63 1.76-13.94 2.65-15.75 3.33-15.65 4-15.6 4.72-15.62 5.44-15.62 6.2-15.67 7.02-15.75 7.87-15.85 8.8-15.98 9.76-16.12 10.8-16.28 11.96-16.44 13.16-16.6 14.48-16.77 15.87-16.9 17.34-16.97 18.92-17.02 20.5-16.96 22.13-16.8 11.07-7.68zm349.18-124.24l-12.8.26-17 1.08-18.92 2-20.85 3.08-22.78 4.35-24.6 5.78-26.13 7.3-27.33 8.9-28.1 10.44-28.33 11.9-4.1 1.94v-5.53l2.07-.97 28.52-12 28.28-10.5 27.54-8.96 26.34-7.37 24.8-5.82 22.97-4.4 21.06-3.1 19.1-2.03 17.23-1.1 12.9-.26z" fill="#5e5e5e"/><path d="M27426.75 16250.93l-2.52.06-.1-5 2.62-.07zM26864.23 16702.58l-5.74 13.86-3.5-14.6z" fill="#5e5e5e"/><path d="M26867.86 16700.35l-10 24.15-6.1-25.4zm-8.73 8.02l1.48-3.57-2.38-.2z" fill="#5e5e5e"/><use xlink:href="#m" transform="matrix(1,0,0,1,27075.118426016437,16295.22578608739) translate(0.005000000000002558 26.66666666666667)"/><use xlink:href="#n" transform="matrix(1,0,0,1,27075.118426016437,16295.22578608739) translate(11.116111111111131 66.66666666666669)"/><path d="M26132 15966c0-3.3 2.7-6 6-6h316c3.3 0 6 2.7 6 6v108c0 3.3-2.7 6-6 6h-316c-3.3 0-6-2.7-6-6z" stroke="#000" fill="#fff"/><use xlink:href="#o" transform="matrix(1,0,0,1,26144,15972) translate(21.62962962962959 53.66666666666667)"/><path d="M25960 16194c0-3.3 2.7-6 6-6h288c3.3 0 6 2.7 6 6v100c0 3.3-2.7 6-6 6h-288c-3.3 0-6-2.7-6-6z" stroke="#000" fill="#fff"/><use xlink:href="#p" transform="matrix(1,0,0,1,25972,16200) translate(67.81481481481481 26.66666666666667)"/><use xlink:href="#q" transform="matrix(1,0,0,1,25972,16200) translate(7.629629629629591 66.66666666666669)"/><path d="M26155.22 16185v-.2l.15-1.3.2-1.25.22-1.25.28-1.22.34-1.2.4-1.22.44-1.2.5-1.2.58-1.22.64-1.23.72-1.24.8-1.26.9-1.3 1.02-1.34 1.15-1.38 1.3-1.45 1.48-1.5 1.7-1.6 1.96-1.7 2.32-1.82 2.74-1.98 3.33-2.2 4.15-2.52 5.42-2.98 7.76-3.84 15.47-6.8 32.62-13.96 7.75-3.84 5.43-2.98 4.16-2.5 3.33-2.22 2.73-2 2.3-1.8.58-.5" stroke="#5e5e5e" stroke-width="5" fill="none"/><path d="M26157.67 16185l-.05 2.5h-5l.06-2.62z" fill="#5e5e5e"/><path d="M26282.78 16083.63l6.25 20.05-20.2 6.5-6.1-20.3z" stroke="#5e5e5e" stroke-width="5" fill="#5e5e5e"/><path d="M26360 16198c0-3.3 2.7-6 6-6h288c3.3 0 6 2.7 6 6v100c0 3.3-2.7 6-6 6h-288c-3.3 0-6-2.7-6-6z" stroke="#000" fill="#fff"/><g><use xlink:href="#r" transform="matrix(1,0,0,1,26372,16204) translate(75.12962962962962 26.66666666666667)"/><use xlink:href="#s" transform="matrix(1,0,0,1,26372,16204) translate(7.629629629629591 66.66666666666669)"/></g><path d="M26454.65 16189l-.1-1.52-.2-1.9-.3-1.82-.37-1.77-.44-1.75-.5-1.7-.6-1.7-.68-1.66-.76-1.68-.85-1.67-.97-1.7-1.08-1.7-1.22-1.76-1.4-1.82-1.57-1.88-1.8-1.98-2.12-2.1-2.5-2.26-3-2.5-3.8-2.86-5.06-3.47-8-4.96-32.04-18.7-5.06-3.47-3.78-2.86-3.02-2.5-2.5-2.26-2.1-2.1-1.45-1.56" stroke="#5e5e5e" stroke-width="5" fill="none"/><path d="M26457.23 16191.5h-5l-.06-2.5 5-.12z" fill="#5e5e5e"/><path d="M26357.18 16083.8l19.3 8.3-8.2 19.56-19.4-8.6z" stroke="#5e5e5e" stroke-width="5" fill="#5e5e5e"/><path d="M26160 16386c0-3.3 2.7-6 6-6h648c3.3 0 6 2.7 6 6v225.33c0 3.32-2.7 6-6 6h-648c-3.3 0-6-2.68-6-6z" stroke="#000" fill="#e5e5e5"/><g><use xlink:href="#t" transform="matrix(1,0,0,1,26172,16392) translate(7.259259259259295 71.11111111111111)"/><use xlink:href="#u" transform="matrix(1,0,0,1,26172,16392) translate(170.09876543209876 177.77777777777777)"/></g><path d="M26760.35 16377l-.12-5.6-.5-8-.83-7.85-1.12-7.64-1.4-7.35-1.66-7.05-1.87-6.7-2.06-6.35-2.23-5.97-2.35-5.6-2.47-5.24-2.55-4.9-2.63-4.55-2.7-4.24-2.73-3.94-2.77-3.66-2.8-3.4-2.85-3.15-2.87-2.92-2.9-2.7-2.9-2.53-2.95-2.33-2.97-2.16-3-2-3.03-1.83-3.08-1.7-3.1-1.54-3.18-1.42-3.23-1.28-3.28-1.14-3.16-.96" stroke="#5e5e5e" stroke-width="5" fill="none"/><path d="M26762.9 16379.5h-5l-.05-2.5 5-.12z" fill="#5e5e5e"/><path d="M26668.52 16249.08l14.75-2.7-1.23 9.2z" stroke="#5e5e5e" stroke-width="5" fill="#5e5e5e"/><defs><path d="M233-177c-1 41-23 64-60 70L243 0h-38l-65-103H63V0H30v-248c88 3 205-21 203 71zM63-129c60-2 137 13 137-47 0-61-80-42-137-45v92" id="v"/><path d="M100-194c63 0 86 42 84 106H49c0 40 14 67 53 68 26 1 43-12 49-29l28 8c-11 28-37 45-77 45C44 4 14-33 15-96c1-61 26-98 85-98zm52 81c6-60-76-77-97-28-3 7-6 17-6 28h103" id="w"/><path d="M96-169c-40 0-48 33-48 73s9 75 48 75c24 0 41-14 43-38l32 2c-6 37-31 61-74 61-59 0-76-41-82-99-10-93 101-131 147-64 4 7 5 14 7 22l-32 3c-4-21-16-35-41-35" id="x"/><path d="M100-194c62-1 85 37 85 99 1 63-27 99-86 99S16-35 15-95c0-66 28-99 85-99zM99-20c44 1 53-31 53-75 0-43-8-75-51-75s-53 32-53 75 10 74 51 75" id="y"/><path d="M210-169c-67 3-38 105-44 169h-31v-121c0-29-5-50-35-48C34-165 62-65 56 0H25l-1-190h30c1 10-1 24 2 32 10-44 99-50 107 0 11-21 27-35 58-36 85-2 47 119 55 194h-31v-121c0-29-5-49-35-48" id="z"/><path d="M117-194c89-4 53 116 60 194h-32v-121c0-31-8-49-39-48C34-167 62-67 57 0H25l-1-190h30c1 10-1 24 2 32 11-22 29-35 61-36" id="A"/><path d="M85-194c31 0 48 13 60 33l-1-100h32l1 261h-30c-2-10 0-23-3-31C134-8 116 4 85 4 32 4 16-35 15-94c0-66 23-100 70-100zm9 24c-40 0-46 34-46 75 0 40 6 74 45 74 42 0 51-32 51-76 0-42-9-74-50-73" id="B"/><path d="M141-36C126-15 110 5 73 4 37 3 15-17 15-53c-1-64 63-63 125-63 3-35-9-54-41-54-24 1-41 7-42 31l-33-3c5-37 33-52 76-52 45 0 72 20 72 64v82c-1 20 7 32 28 27v20c-31 9-61-2-59-35zM48-53c0 20 12 33 32 33 41-3 63-29 60-74-43 2-92-5-92 41" id="C"/><path d="M59-47c-2 24 18 29 38 22v24C64 9 27 4 27-40v-127H5v-23h24l9-43h21v43h35v23H59v120" id="D"/><path d="M24-231v-30h32v30H24zM24 0v-190h32V0H24" id="E"/><g id="a"><use transform="matrix(0.30864197530864196,0,0,0.30864197530864196,0,0)" xlink:href="#v"/><use transform="matrix(0.30864197530864196,0,0,0.30864197530864196,79.93827160493827,0)" xlink:href="#w"/><use transform="matrix(0.30864197530864196,0,0,0.30864197530864196,141.66666666666666,0)" xlink:href="#x"/><use transform="matrix(0.30864197530864196,0,0,0.30864197530864196,197.2222222222222,0)" xlink:href="#y"/><use transform="matrix(0.30864197530864196,0,0,0.30864197530864196,258.9506172839506,0)" xlink:href="#z"/><use transform="matrix(0.30864197530864196,0,0,0.30864197530864196,351.2345679012345,0)" xlink:href="#z"/><use transform="matrix(0.30864197530864196,0,0,0.30864197530864196,443.5185185185185,0)" xlink:href="#w"/><use transform="matrix(0.30864197530864196,0,0,0.30864197530864196,505.2469135802469,0)" xlink:href="#A"/><use transform="matrix(0.30864197530864196,0,0,0.30864197530864196,566.9753086419753,0)" xlink:href="#B"/><use transform="matrix(0.30864197530864196,0,0,0.30864197530864196,628.7037037037037,0)" xlink:href="#C"/><use transform="matrix(0.30864197530864196,0,0,0.30864197530864196,690.4320987654321,0)" xlink:href="#D"/><use transform="matrix(0.30864197530864196,0,0,0.30864197530864196,721.2962962962963,0)" xlink:href="#E"/><use transform="matrix(0.30864197530864196,0,0,0.30864197530864196,745.679012345679,0)" xlink:href="#y"/><use transform="matrix(0.30864197530864196,0,0,0.30864197530864196,807.4074074074074,0)" xlink:href="#A"/></g><g id="b"><use transform="matrix(0.24691358024691357,0,0,0.24691358024691357,0,0)" xlink:href="#v"/><use transform="matrix(0.24691358024691357,0,0,0.24691358024691357,63.95061728395061,0)" xlink:href="#w"/><use transform="matrix(0.24691358024691357,0,0,0.24691358024691357,113.33333333333333,0)" xlink:href="#x"/><use transform="matrix(0.24691358024691357,0,0,0.24691358024691357,157.77777777777777,0)" xlink:href="#y"/><use transform="matrix(0.24691358024691357,0,0,0.24691358024691357,207.16049382716048,0)" xlink:href="#z"/><use transform="matrix(0.24691358024691357,0,0,0.24691358024691357,280.98765432098764,0)" xlink:href="#z"/><use transform="matrix(0.24691358024691357,0,0,0.24691358024691357,354.8148148148148,0)" xlink:href="#w"/><use transform="matrix(0.24691358024691357,0,0,0.24691358024691357,404.1975308641975,0)" xlink:href="#A"/><use transform="matrix(0.24691358024691357,0,0,0.24691358024691357,453.58024691358025,0)" xlink:href="#B"/><use transform="matrix(0.24691358024691357,0,0,0.24691358024691357,502.962962962963,0)" xlink:href="#C"/><use transform="matrix(0.24691358024691357,0,0,0.24691358024691357,552.3456790123457,0)" xlink:href="#D"/><use transform="matrix(0.24691358024691357,0,0,0.24691358024691357,577.0370370370371,0)" xlink:href="#E"/><use transform="matrix(0.24691358024691357,0,0,0.24691358024691357,596.5432098765432,0)" xlink:href="#y"/><use transform="matrix(0.24691358024691357,0,0,0.24691358024691357,645.9259259259259,0)" xlink:href="#A"/></g><path d="M140-251c81 0 123 46 123 126C263-46 219 4 140 4 59 4 17-45 17-125s42-126 123-126zm0 227c63 0 89-41 89-101s-29-99-89-99c-61 0-89 39-89 99S79-25 140-24" id="F"/><path d="M101-234c-31-9-42 10-38 44h38v23H63V0H32v-167H5v-23h27c-7-52 17-82 69-68v24" id="G"/><path d="M24 0v-261h32V0H24" id="H"/><g id="c"><use transform="matrix(0.24691358024691357,0,0,0.24691358024691357,0,0)" xlink:href="#F"/><use transform="matrix(0.24691358024691357,0,0,0.24691358024691357,69.1358024691358,0)" xlink:href="#G"/><use transform="matrix(0.24691358024691357,0,0,0.24691358024691357,92.09876543209876,0)" xlink:href="#G"/><use transform="matrix(0.24691358024691357,0,0,0.24691358024691357,116.79012345679011,0)" xlink:href="#H"/><use transform="matrix(0.24691358024691357,0,0,0.24691358024691357,136.29629629629628,0)" xlink:href="#E"/><use transform="matrix(0.24691358024691357,0,0,0.24691358024691357,155.80246913580245,0)" xlink:href="#A"/><use transform="matrix(0.24691358024691357,0,0,0.24691358024691357,205.18518518518516,0)" xlink:href="#w"/></g><path d="M240 0l2-218c-23 76-54 145-80 218h-23L58-218 59 0H30v-248h44l77 211c21-75 51-140 76-211h43V0h-30" id="I"/><path d="M30 0v-248h33v221h125V0H30" id="J"/><g id="d"><use transform="matrix(0.24691358024691357,0,0,0.24691358024691357,0,0)" xlink:href="#I"/><use transform="matrix(0.24691358024691357,0,0,0.24691358024691357,73.82716049382715,0)" xlink:href="#J"/></g><g id="e"><use transform="matrix(0.24691358024691357,0,0,0.24691358024691357,0,0)" xlink:href="#I"/><use transform="matrix(0.24691358024691357,0,0,0.24691358024691357,73.82716049382715,0)" xlink:href="#y"/><use transform="matrix(0.24691358024691357,0,0,0.24691358024691357,123.20987654320987,0)" xlink:href="#B"/><use transform="matrix(0.24691358024691357,0,0,0.24691358024691357,172.59259259259258,0)" xlink:href="#w"/><use transform="matrix(0.24691358024691357,0,0,0.24691358024691357,221.9753086419753,0)" xlink:href="#H"/></g><path d="M127-220V0H93v-220H8v-28h204v28h-85" id="K"/><path d="M114-163C36-179 61-72 57 0H25l-1-190h30c1 12-1 29 2 39 6-27 23-49 58-41v29" id="L"/><path d="M177-190C167-65 218 103 67 71c-23-6-38-20-44-43l32-5c15 47 100 32 89-28v-30C133-14 115 1 83 1 29 1 15-40 15-95c0-56 16-97 71-98 29-1 48 16 59 35 1-10 0-23 2-32h30zM94-22c36 0 50-32 50-73 0-42-14-75-50-75-39 0-46 34-46 75s6 73 46 73" id="M"/><g id="f"><use transform="matrix(0.24691358024691357,0,0,0.24691358024691357,0,0)" xlink:href="#K"/><use transform="matrix(0.24691358024691357,0,0,0.24691358024691357,50.86419753086419,0)" xlink:href="#L"/><use transform="matrix(0.24691358024691357,0,0,0.24691358024691357,80.24691358024691,0)" xlink:href="#C"/><use transform="matrix(0.24691358024691357,0,0,0.24691358024691357,129.62962962962962,0)" xlink:href="#E"/><use transform="matrix(0.24691358024691357,0,0,0.24691358024691357,149.1358024691358,0)" xlink:href="#A"/><use transform="matrix(0.24691358024691357,0,0,0.24691358024691357,198.5185185185185,0)" xlink:href="#E"/><use transform="matrix(0.24691358024691357,0,0,0.24691358024691357,218.02469135802468,0)" xlink:href="#A"/><use transform="matrix(0.24691358024691357,0,0,0.24691358024691357,267.4074074074074,0)" xlink:href="#M"/></g><path d="M212-179c-10-28-35-45-73-45-59 0-87 40-87 99 0 60 29 101 89 101 43 0 62-24 78-52l27 14C228-24 195 4 139 4 59 4 22-46 18-125c-6-104 99-153 187-111 19 9 31 26 39 46" id="N"/><path d="M84 4C-5 8 30-112 23-190h32v120c0 31 7 50 39 49 72-2 45-101 50-169h31l1 190h-30c-1-10 1-25-2-33-11 22-28 36-60 37" id="O"/><path d="M135-143c-3-34-86-38-87 0 15 53 115 12 119 90S17 21 10-45l28-5c4 36 97 45 98 0-10-56-113-15-118-90-4-57 82-63 122-42 12 7 21 19 24 35" id="P"/><g id="g"><use transform="matrix(0.30864197530864196,0,0,0.30864197530864196,0,0)" xlink:href="#N"/><use transform="matrix(0.30864197530864196,0,0,0.30864197530864196,79.93827160493827,0)" xlink:href="#O"/><use transform="matrix(0.30864197530864196,0,0,0.30864197530864196,141.66666666666666,0)" xlink:href="#P"/><use transform="matrix(0.30864197530864196,0,0,0.30864197530864196,197.2222222222222,0)" xlink:href="#D"/><use transform="matrix(0.30864197530864196,0,0,0.30864197530864196,228.0864197530864,0)" xlink:href="#y"/><use transform="matrix(0.30864197530864196,0,0,0.30864197530864196,289.8148148148148,0)" xlink:href="#z"/><use transform="matrix(0.30864197530864196,0,0,0.30864197530864196,382.09876543209873,0)" xlink:href="#w"/><use transform="matrix(0.30864197530864196,0,0,0.30864197530864196,443.82716049382714,0)" xlink:href="#L"/></g><g id="h"><use transform="matrix(0.30864197530864196,0,0,0.30864197530864196,0,0)" xlink:href="#F"/><use transform="matrix(0.30864197530864196,0,0,0.30864197530864196,86.41975308641975,0)" xlink:href="#L"/><use transform="matrix(0.30864197530864196,0,0,0.30864197530864196,123.14814814814814,0)" xlink:href="#B"/><use transform="matrix(0.30864197530864196,0,0,0.30864197530864196,184.87654320987653,0)" xlink:href="#w"/><use transform="matrix(0.30864197530864196,0,0,0.30864197530864196,246.60493827160494,0)" xlink:href="#L"/></g><path d="M33 0v-248h34V0H33" id="Q"/><path d="M108 0H70L1-190h34L89-25l56-165h34" id="R"/><path d="M179-190L93 31C79 59 56 82 12 73V49c39 6 53-20 64-50L1-190h34L92-34l54-156h33" id="S"/><g id="i"><use transform="matrix(0.30864197530864196,0,0,0.30864197530864196,0,0)" xlink:href="#Q"/><use transform="matrix(0.30864197530864196,0,0,0.30864197530864196,30.864197530864196,0)" xlink:href="#A"/><use transform="matrix(0.30864197530864196,0,0,0.30864197530864196,92.59259259259258,0)" xlink:href="#R"/><use transform="matrix(0.30864197530864196,0,0,0.30864197530864196,148.14814814814812,0)" xlink:href="#w"/><use transform="matrix(0.30864197530864196,0,0,0.30864197530864196,209.8765432098765,0)" xlink:href="#A"/><use transform="matrix(0.30864197530864196,0,0,0.30864197530864196,271.6049382716049,0)" xlink:href="#D"/><use transform="matrix(0.30864197530864196,0,0,0.30864197530864196,302.4691358024691,0)" xlink:href="#y"/><use transform="matrix(0.30864197530864196,0,0,0.30864197530864196,364.1975308641975,0)" xlink:href="#L"/><use transform="matrix(0.30864197530864196,0,0,0.30864197530864196,400.9259259259259,0)" xlink:href="#S"/></g><path fill="#333" d="M24-248c120-7 223 5 221 122C244-46 201 0 124 0H24v-248zM76-40c74 7 117-18 117-86 0-67-45-88-117-82v168" id="T"/><path fill="#333" d="M133-34C117-15 103 5 69 4 32 3 11-16 11-54c-1-60 55-63 116-61 1-26-3-47-28-47-18 1-26 9-28 27l-52-2c7-38 36-58 82-57s74 22 75 68l1 82c-1 14 12 18 25 15v27c-30 8-71 5-69-32zm-48 3c29 0 43-24 42-57-32 0-66-3-65 30 0 17 8 27 23 27" id="U"/><path fill="#333" d="M115-3C79 11 28 4 28-45v-112H4v-33h27l15-45h31v45h36v33H77v99c-1 23 16 31 38 25v30" id="V"/><g id="j"><use transform="matrix(0.0925925925925926,0,0,0.0925925925925926,0,0)" xlink:href="#T"/><use transform="matrix(0.0925925925925926,0,0,0.0925925925925926,23.981481481481485,0)" xlink:href="#U"/><use transform="matrix(0.0925925925925926,0,0,0.0925925925925926,42.5,0)" xlink:href="#V"/><use transform="matrix(0.0925925925925926,0,0,0.0925925925925926,53.518518518518526,0)" xlink:href="#U"/></g><path fill="#333" d="M121-226c-27-7-43 5-38 36h38v33H83V0H34v-157H6v-33h28c-9-59 32-81 87-68v32" id="W"/><path fill="#333" d="M110-194c64 0 96 36 96 99 0 64-35 99-97 99-61 0-95-36-95-99 0-62 34-99 96-99zm-1 164c35 0 45-28 45-65 0-40-10-65-43-65-34 0-45 26-45 65 0 36 10 65 43 65" id="X"/><path fill="#333" d="M135-150c-39-12-60 13-60 57V0H25l-1-190h47c2 13-1 29 3 40 6-28 27-53 61-41v41" id="Y"/><g id="k"><use transform="matrix(0.0925925925925926,0,0,0.0925925925925926,0,0)" xlink:href="#W"/><use transform="matrix(0.0925925925925926,0,0,0.0925925925925926,11.018518518518519,0)" xlink:href="#X"/><use transform="matrix(0.0925925925925926,0,0,0.0925925925925926,31.296296296296298,0)" xlink:href="#Y"/></g><path fill="#333" d="M25-224v-37h50v37H25zM25 0v-190h50V0H25" id="Z"/><path fill="#333" d="M135-194c87-1 58 113 63 194h-50c-7-57 23-157-34-157-59 0-34 97-39 157H25l-1-190h47c2 12-1 28 3 38 12-26 28-41 61-42" id="aa"/><path fill="#333" d="M195-6C206 82 75 100 31 46c-4-6-6-13-8-21l49-6c3 16 16 24 34 25 40 0 42-37 40-79-11 22-30 35-61 35-53 0-70-43-70-97 0-56 18-96 73-97 30 0 46 14 59 34l2-30h47zm-90-29c32 0 41-27 41-63 0-35-9-62-40-62-32 0-39 29-40 63 0 36 9 62 39 62" id="ab"/><g id="l"><use transform="matrix(0.0925925925925926,0,0,0.0925925925925926,0,0)" xlink:href="#V"/><use transform="matrix(0.0925925925925926,0,0,0.0925925925925926,11.018518518518519,0)" xlink:href="#Y"/><use transform="matrix(0.0925925925925926,0,0,0.0925925925925926,23.981481481481477,0)" xlink:href="#U"/><use transform="matrix(0.0925925925925926,0,0,0.0925925925925926,42.5,0)" xlink:href="#Z"/><use transform="matrix(0.0925925925925926,0,0,0.0925925925925926,51.75925925925927,0)" xlink:href="#aa"/><use transform="matrix(0.0925925925925926,0,0,0.0925925925925926,72.03703703703704,0)" xlink:href="#Z"/><use transform="matrix(0.0925925925925926,0,0,0.0925925925925926,81.2962962962963,0)" xlink:href="#aa"/><use transform="matrix(0.0925925925925926,0,0,0.0925925925925926,101.57407407407409,0)" xlink:href="#ab"/></g><path fill="#333" d="M136-208V0H84v-208H4v-40h212v40h-80" id="ac"/><path fill="#333" d="M185-48c-13 30-37 53-82 52C43 2 14-33 14-96s30-98 90-98c62 0 83 45 84 108H66c0 31 8 55 39 56 18 0 30-7 34-22zm-45-69c5-46-57-63-70-21-2 6-4 13-4 21h74" id="ad"/><path fill="#333" d="M88-194c31-1 46 15 58 34l-1-101h50l1 261h-48c-2-10 0-23-3-31C134-8 116 4 84 4 32 4 16-41 15-95c0-56 19-97 73-99zm17 164c33 0 40-30 41-66 1-37-9-64-41-64s-38 30-39 65c0 43 13 65 39 65" id="ae"/><g id="m"><use transform="matrix(0.0925925925925926,0,0,0.0925925925925926,0,0)" xlink:href="#ac"/><use transform="matrix(0.0925925925925926,0,0,0.0925925925925926,18.425925925925927,0)" xlink:href="#Y"/><use transform="matrix(0.0925925925925926,0,0,0.0925925925925926,31.388888888888893,0)" xlink:href="#U"/><use transform="matrix(0.0925925925925926,0,0,0.0925925925925926,49.90740740740741,0)" xlink:href="#Z"/><use transform="matrix(0.0925925925925926,0,0,0.0925925925925926,59.16666666666667,0)" xlink:href="#aa"/><use transform="matrix(0.0925925925925926,0,0,0.0925925925925926,79.44444444444446,0)" xlink:href="#ad"/><use transform="matrix(0.0925925925925926,0,0,0.0925925925925926,97.96296296296298,0)" xlink:href="#ae"/></g><path fill="#333" d="M230 0l2-204L168 0h-37L68-204 70 0H24v-248h70l56 185 57-185h69V0h-46" id="af"/><path fill="#333" d="M25 0v-261h50V0H25" id="ag"/><g id="n"><use transform="matrix(0.0925925925925926,0,0,0.0925925925925926,0,0)" xlink:href="#af"/><use transform="matrix(0.0925925925925926,0,0,0.0925925925925926,27.685185185185187,0)" xlink:href="#X"/><use transform="matrix(0.0925925925925926,0,0,0.0925925925925926,47.962962962962955,0)" xlink:href="#ae"/><use transform="matrix(0.0925925925925926,0,0,0.0925925925925926,68.24074074074073,0)" xlink:href="#ad"/><use transform="matrix(0.0925925925925926,0,0,0.0925925925925926,86.75925925925925,0)" xlink:href="#ag"/></g><g id="o"><use transform="matrix(0.0925925925925926,0,0,0.0925925925925926,0,0)" xlink:href="#v"/><use transform="matrix(0.0925925925925926,0,0,0.0925925925925926,23.981481481481485,0)" xlink:href="#w"/><use transform="matrix(0.0925925925925926,0,0,0.0925925925925926,42.5,0)" xlink:href="#x"/><use transform="matrix(0.0925925925925926,0,0,0.0925925925925926,59.16666666666667,0)" xlink:href="#y"/><use transform="matrix(0.0925925925925926,0,0,0.0925925925925926,77.68518518518519,0)" xlink:href="#z"/><use transform="matrix(0.0925925925925926,0,0,0.0925925925925926,105.37037037037038,0)" xlink:href="#z"/><use transform="matrix(0.0925925925925926,0,0,0.0925925925925926,133.05555555555557,0)" xlink:href="#w"/><use transform="matrix(0.0925925925925926,0,0,0.0925925925925926,151.57407407407408,0)" xlink:href="#A"/><use transform="matrix(0.0925925925925926,0,0,0.0925925925925926,170.0925925925926,0)" xlink:href="#B"/><use transform="matrix(0.0925925925925926,0,0,0.0925925925925926,188.61111111111114,0)" xlink:href="#C"/><use transform="matrix(0.0925925925925926,0,0,0.0925925925925926,207.1296296296297,0)" xlink:href="#D"/><use transform="matrix(0.0925925925925926,0,0,0.0925925925925926,216.38888888888894,0)" xlink:href="#E"/><use transform="matrix(0.0925925925925926,0,0,0.0925925925925926,223.70370370370378,0)" xlink:href="#y"/><use transform="matrix(0.0925925925925926,0,0,0.0925925925925926,242.22222222222229,0)" xlink:href="#A"/></g><path d="M190 0L58-211 59 0H30v-248h39L202-35l-2-213h31V0h-41" id="ah"/><g id="p"><use transform="matrix(0.0925925925925926,0,0,0.0925925925925926,0,0)" xlink:href="#ah"/><use transform="matrix(0.0925925925925926,0,0,0.0925925925925926,23.981481481481485,0)" xlink:href="#O"/><use transform="matrix(0.0925925925925926,0,0,0.0925925925925926,42.5,0)" xlink:href="#D"/><use transform="matrix(0.0925925925925926,0,0,0.0925925925925926,51.75925925925927,0)" xlink:href="#L"/><use transform="matrix(0.0925925925925926,0,0,0.0925925925925926,62.777777777777786,0)" xlink:href="#E"/><use transform="matrix(0.0925925925925926,0,0,0.0925925925925926,70.0925925925926,0)" xlink:href="#y"/><use transform="matrix(0.0925925925925926,0,0,0.0925925925925926,88.61111111111111,0)" xlink:href="#A"/><use transform="matrix(0.0925925925925926,0,0,0.0925925925925926,107.12962962962963,0)" xlink:href="#E"/><use transform="matrix(0.0925925925925926,0,0,0.0925925925925926,114.44444444444443,0)" xlink:href="#P"/><use transform="matrix(0.0925925925925926,0,0,0.0925925925925926,131.11111111111111,0)" xlink:href="#D"/></g><g id="q"><use transform="matrix(0.0925925925925926,0,0,0.0925925925925926,0,0)" xlink:href="#v"/><use transform="matrix(0.0925925925925926,0,0,0.0925925925925926,23.981481481481485,0)" xlink:href="#w"/><use transform="matrix(0.0925925925925926,0,0,0.0925925925925926,42.5,0)" xlink:href="#x"/><use transform="matrix(0.0925925925925926,0,0,0.0925925925925926,59.16666666666667,0)" xlink:href="#y"/><use transform="matrix(0.0925925925925926,0,0,0.0925925925925926,77.68518518518519,0)" xlink:href="#z"/><use transform="matrix(0.0925925925925926,0,0,0.0925925925925926,105.37037037037038,0)" xlink:href="#z"/><use transform="matrix(0.0925925925925926,0,0,0.0925925925925926,133.05555555555557,0)" xlink:href="#w"/><use transform="matrix(0.0925925925925926,0,0,0.0925925925925926,151.57407407407408,0)" xlink:href="#A"/><use transform="matrix(0.0925925925925926,0,0,0.0925925925925926,170.0925925925926,0)" xlink:href="#B"/><use transform="matrix(0.0925925925925926,0,0,0.0925925925925926,188.61111111111114,0)" xlink:href="#C"/><use transform="matrix(0.0925925925925926,0,0,0.0925925925925926,207.1296296296297,0)" xlink:href="#D"/><use transform="matrix(0.0925925925925926,0,0,0.0925925925925926,216.38888888888894,0)" xlink:href="#E"/><use transform="matrix(0.0925925925925926,0,0,0.0925925925925926,223.70370370370378,0)" xlink:href="#y"/><use transform="matrix(0.0925925925925926,0,0,0.0925925925925926,242.22222222222229,0)" xlink:href="#A"/></g><path d="M106-169C34-169 62-67 57 0H25v-261h32l-1 103c12-21 28-36 61-36 89 0 53 116 60 194h-32v-121c2-32-8-49-39-48" id="ai"/><g id="r"><use transform="matrix(0.0925925925925926,0,0,0.0925925925925926,0,0)" xlink:href="#I"/><use transform="matrix(0.0925925925925926,0,0,0.0925925925925926,27.685185185185187,0)" xlink:href="#C"/><use transform="matrix(0.0925925925925926,0,0,0.0925925925925926,46.20370370370371,0)" xlink:href="#x"/><use transform="matrix(0.0925925925925926,0,0,0.0925925925925926,62.870370370370374,0)" xlink:href="#ai"/><use transform="matrix(0.0925925925925926,0,0,0.0925925925925926,81.3888888888889,0)" xlink:href="#E"/><use transform="matrix(0.0925925925925926,0,0,0.0925925925925926,88.70370370370371,0)" xlink:href="#A"/><use transform="matrix(0.0925925925925926,0,0,0.0925925925925926,107.22222222222223,0)" xlink:href="#w"/></g><g id="s"><use transform="matrix(0.0925925925925926,0,0,0.0925925925925926,0,0)" xlink:href="#v"/><use transform="matrix(0.0925925925925926,0,0,0.0925925925925926,23.981481481481485,0)" xlink:href="#w"/><use transform="matrix(0.0925925925925926,0,0,0.0925925925925926,42.5,0)" xlink:href="#x"/><use transform="matrix(0.0925925925925926,0,0,0.0925925925925926,59.16666666666667,0)" xlink:href="#y"/><use transform="matrix(0.0925925925925926,0,0,0.0925925925925926,77.68518518518519,0)" xlink:href="#z"/><use transform="matrix(0.0925925925925926,0,0,0.0925925925925926,105.37037037037038,0)" xlink:href="#z"/><use transform="matrix(0.0925925925925926,0,0,0.0925925925925926,133.05555555555557,0)" xlink:href="#w"/><use transform="matrix(0.0925925925925926,0,0,0.0925925925925926,151.57407407407408,0)" xlink:href="#A"/><use transform="matrix(0.0925925925925926,0,0,0.0925925925925926,170.0925925925926,0)" xlink:href="#B"/><use transform="matrix(0.0925925925925926,0,0,0.0925925925925926,188.61111111111114,0)" xlink:href="#C"/><use transform="matrix(0.0925925925925926,0,0,0.0925925925925926,207.1296296296297,0)" xlink:href="#D"/><use transform="matrix(0.0925925925925926,0,0,0.0925925925925926,216.38888888888894,0)" xlink:href="#E"/><use transform="matrix(0.0925925925925926,0,0,0.0925925925925926,223.70370370370378,0)" xlink:href="#y"/><use transform="matrix(0.0925925925925926,0,0,0.0925925925925926,242.22222222222229,0)" xlink:href="#A"/></g><g id="t"><use transform="matrix(0.24691358024691357,0,0,0.24691358024691357,0,0)" xlink:href="#v"/><use transform="matrix(0.24691358024691357,0,0,0.24691358024691357,63.95061728395061,0)" xlink:href="#w"/><use transform="matrix(0.24691358024691357,0,0,0.24691358024691357,113.33333333333333,0)" xlink:href="#x"/><use transform="matrix(0.24691358024691357,0,0,0.24691358024691357,157.77777777777777,0)" xlink:href="#y"/><use transform="matrix(0.24691358024691357,0,0,0.24691358024691357,207.16049382716048,0)" xlink:href="#z"/><use transform="matrix(0.24691358024691357,0,0,0.24691358024691357,280.98765432098764,0)" xlink:href="#w"/><use transform="matrix(0.24691358024691357,0,0,0.24691358024691357,330.3703703703704,0)" xlink:href="#A"/><use transform="matrix(0.24691358024691357,0,0,0.24691358024691357,379.7530864197531,0)" xlink:href="#B"/><use transform="matrix(0.24691358024691357,0,0,0.24691358024691357,429.13580246913585,0)" xlink:href="#C"/><use transform="matrix(0.24691358024691357,0,0,0.24691358024691357,478.5185185185186,0)" xlink:href="#D"/><use transform="matrix(0.24691358024691357,0,0,0.24691358024691357,503.20987654320993,0)" xlink:href="#E"/><use transform="matrix(0.24691358024691357,0,0,0.24691358024691357,522.716049382716,0)" xlink:href="#y"/><use transform="matrix(0.24691358024691357,0,0,0.24691358024691357,572.0987654320987,0)" xlink:href="#A"/></g><path d="M185-189c-5-48-123-54-124 2 14 75 158 14 163 119 3 78-121 87-175 55-17-10-28-26-33-46l33-7c5 56 141 63 141-1 0-78-155-14-162-118-5-82 145-84 179-34 5 7 8 16 11 25" id="aj"/><g id="u"><use transform="matrix(0.24691358024691357,0,0,0.24691358024691357,0,0)" xlink:href="#aj"/><use transform="matrix(0.24691358024691357,0,0,0.24691358024691357,59.25925925925925,0)" xlink:href="#w"/><use transform="matrix(0.24691358024691357,0,0,0.24691358024691357,108.64197530864197,0)" xlink:href="#L"/><use transform="matrix(0.24691358024691357,0,0,0.24691358024691357,138.02469135802468,0)" xlink:href="#R"/><use transform="matrix(0.24691358024691357,0,0,0.24691358024691357,182.4691358024691,0)" xlink:href="#E"/><use transform="matrix(0.24691358024691357,0,0,0.24691358024691357,201.9753086419753,0)" xlink:href="#x"/><use transform="matrix(0.24691358024691357,0,0,0.24691358024691357,246.41975308641975,0)" xlink:href="#w"/></g></defs></g></svg>