<svg xmlns="http://www.w3.org/2000/svg" xmlns:xlink="http://www.w3.org/1999/xlink" xmlns:lucid="lucid" width="3806.92" height="1820"><g transform="translate(-24340 -15000)" lucid:page-tab-id="WvEKCLo4aHby"><path d="M24000 15000h4500v2000h-4500z" fill="#fff"/><path d="M25640 15026c0-3.3 2.7-6 6-6h900c3.3 0 6 2.7 6 6v318c0 3.3-2.7 6-6 6h-900c-3.3 0-6-2.7-6-6z" stroke="#000" fill="#e5e5e5"/><use xlink:href="#a" transform="matrix(1,0,0,1,25652,15032) translate(9.432098765432102 174.9513888888889)"/><path d="M25795.9 15766c0-3.3 2.67-6 6-6h2304.6c3.3 0 6 2.7 6 6v1028c0 3.3-2.7 6-6 6h-2304.6c-3.33 0-6-2.7-6-6z" stroke="#000" stroke-width="9" fill="#fff" fill-opacity="0"/><use xlink:href="#b" transform="matrix(1,0,0,1,25800.88690902384,15765) translate(0 71.11111111111111)"/><use xlink:href="#c" transform="matrix(1,0,0,1,25800.88690902384,15765) translate(719.9999999999999 71.11111111111111)"/><path d="M25665.96 15352.9c0 1.38-1.12 2.5-2.5 2.5s-2.5-1.12-2.5-2.5 1.12-2.5 2.5-2.5 2.5 1.12 2.5 2.5zm2.88 9.7c0 1.37-1.12 2.5-2.5 2.5s-2.5-1.13-2.5-2.5c0-1.4 1.12-2.5 2.5-2.5s2.5 1.1 2.5 2.5zm2.88 9.68c0 1.38-1.12 2.5-2.5 2.5s-2.5-1.12-2.5-2.5c0-1.4 1.12-2.5 2.5-2.5s2.5 1.1 2.5 2.5zm2.88 9.68c0 1.4-1.12 2.5-2.5 2.5s-2.5-1.1-2.5-2.5c0-1.38 1.12-2.5 2.5-2.5s2.5 1.12 2.5 2.5zm2.87 9.7c0 1.37-1.12 2.5-2.5 2.5s-2.5-1.13-2.5-2.5c0-1.4 1.12-2.5 2.5-2.5s2.5 1.1 2.5 2.5zm2.88 9.68c0 1.38-1.12 2.5-2.5 2.5s-2.5-1.12-2.5-2.5 1.12-2.5 2.5-2.5 2.5 1.12 2.5 2.5zm2.88 9.7c0 1.37-1.12 2.5-2.5 2.5s-2.5-1.13-2.5-2.5c0-1.4 1.12-2.5 2.5-2.5s2.5 1.1 2.5 2.5zm2.88 9.68c0 1.38-1.1 2.5-2.5 2.5-1.38 0-2.5-1.12-2.5-2.5s1.12-2.5 2.5-2.5c1.4 0 2.5 1.12 2.5 2.5zm2.88 9.7c0 1.37-1.12 2.5-2.5 2.5s-2.5-1.13-2.5-2.5c0-1.4 1.12-2.5 2.5-2.5s2.5 1.1 2.5 2.5zm2.88 9.68c0 1.38-1.12 2.5-2.5 2.5s-2.5-1.12-2.5-2.5 1.12-2.5 2.5-2.5 2.5 1.12 2.5 2.5zm2.88 9.7c0 1.37-1.12 2.5-2.5 2.5s-2.5-1.13-2.5-2.5c0-1.4 1.12-2.5 2.5-2.5s2.5 1.1 2.5 2.5zm2.87 9.68c0 1.38-1.1 2.5-2.5 2.5-1.37 0-2.5-1.12-2.5-2.5s1.13-2.5 2.5-2.5c1.4 0 2.5 1.12 2.5 2.5zm2.9 9.7c0 1.37-1.13 2.5-2.5 2.5-1.4 0-2.5-1.13-2.5-2.5 0-1.4 1.1-2.5 2.5-2.5 1.37 0 2.5 1.1 2.5 2.5zm2.87 9.68c0 1.38-1.12 2.5-2.5 2.5s-2.5-1.12-2.5-2.5 1.12-2.5 2.5-2.5 2.5 1.12 2.5 2.5zm2.88 9.7c0 1.37-1.12 2.5-2.5 2.5s-2.5-1.13-2.5-2.5c0-1.4 1.12-2.5 2.5-2.5s2.5 1.1 2.5 2.5zm2.87 9.68c0 1.38-1.12 2.5-2.5 2.5s-2.5-1.12-2.5-2.5 1.12-2.5 2.5-2.5 2.5 1.12 2.5 2.5zm2.88 9.7c0 1.37-1.12 2.5-2.5 2.5s-2.5-1.13-2.5-2.5c0-1.4 1.12-2.5 2.5-2.5s2.5 1.1 2.5 2.5zm2.88 9.67c0 1.4-1.12 2.5-2.5 2.5s-2.5-1.1-2.5-2.5c0-1.37 1.12-2.5 2.5-2.5s2.5 1.13 2.5 2.5zm2.88 9.7c0 1.38-1.12 2.5-2.5 2.5-1.4 0-2.5-1.12-2.5-2.5s1.1-2.5 2.5-2.5c1.38 0 2.5 1.12 2.5 2.5zm2.87 9.7c0 1.37-1.12 2.5-2.5 2.5s-2.5-1.13-2.5-2.5c0-1.4 1.12-2.5 2.5-2.5s2.5 1.1 2.5 2.5zm2.88 9.68c0 1.38-1.1 2.5-2.5 2.5-1.37 0-2.5-1.12-2.5-2.5s1.13-2.5 2.5-2.5c1.4 0 2.5 1.12 2.5 2.5zm2.9 9.7c0 1.37-1.13 2.5-2.5 2.5-1.4 0-2.5-1.13-2.5-2.5 0-1.4 1.1-2.5 2.5-2.5 1.37 0 2.5 1.1 2.5 2.5zm2.86 9.68c0 1.38-1.1 2.5-2.5 2.5-1.38 0-2.5-1.12-2.5-2.5s1.12-2.5 2.5-2.5c1.4 0 2.5 1.12 2.5 2.5zm2.88 9.7c0 1.37-1.12 2.5-2.5 2.5s-2.5-1.13-2.5-2.5c0-1.4 1.12-2.5 2.5-2.5s2.5 1.1 2.5 2.5zm2.88 9.68c0 1.38-1.12 2.5-2.5 2.5s-2.5-1.12-2.5-2.5 1.12-2.5 2.5-2.5 2.5 1.12 2.5 2.5zm2.88 9.7c0 1.37-1.12 2.5-2.5 2.5s-2.5-1.13-2.5-2.5c0-1.4 1.12-2.5 2.5-2.5s2.5 1.1 2.5 2.5zm2.87 9.68c0 1.38-1.12 2.5-2.5 2.5s-2.5-1.12-2.5-2.5 1.12-2.5 2.5-2.5 2.5 1.12 2.5 2.5zm2.88 9.7c0 1.37-1.12 2.5-2.5 2.5s-2.5-1.13-2.5-2.5c0-1.4 1.12-2.5 2.5-2.5s2.5 1.1 2.5 2.5zm2.88 9.68c0 1.38-1.12 2.5-2.5 2.5s-2.5-1.12-2.5-2.5 1.12-2.5 2.5-2.5 2.5 1.12 2.5 2.5zm2.88 9.7c0 1.37-1.1 2.5-2.5 2.5-1.37 0-2.5-1.13-2.5-2.5 0-1.4 1.13-2.5 2.5-2.5 1.4 0 2.5 1.1 2.5 2.5zm2.88 9.68c0 1.38-1.12 2.5-2.5 2.5s-2.5-1.12-2.5-2.5c0-1.4 1.12-2.5 2.5-2.5s2.5 1.1 2.5 2.5zm2.88 9.68c0 1.4-1.12 2.5-2.5 2.5s-2.5-1.1-2.5-2.5c0-1.38 1.12-2.5 2.5-2.5s2.5 1.12 2.5 2.5zm2.88 9.7c0 1.37-1.12 2.5-2.5 2.5s-2.5-1.13-2.5-2.5c0-1.4 1.12-2.5 2.5-2.5s2.5 1.1 2.5 2.5zm2.88 9.68c0 1.38-1.12 2.5-2.5 2.5-1.4 0-2.5-1.12-2.5-2.5s1.1-2.5 2.5-2.5c1.38 0 2.5 1.12 2.5 2.5zm2.87 9.7c0 1.37-1.13 2.5-2.5 2.5-1.4 0-2.5-1.13-2.5-2.5 0-1.4 1.1-2.5 2.5-2.5 1.37 0 2.5 1.1 2.5 2.5zm2.87 9.68c0 1.38-1.12 2.5-2.5 2.5s-2.5-1.12-2.5-2.5 1.12-2.5 2.5-2.5 2.5 1.12 2.5 2.5zm2.88 9.7c0 1.37-1.12 2.5-2.5 2.5s-2.5-1.13-2.5-2.5c0-1.4 1.12-2.5 2.5-2.5s2.5 1.1 2.5 2.5zm2.87 9.68c0 1.38-1.1 2.5-2.5 2.5-1.38 0-2.5-1.12-2.5-2.5s1.12-2.5 2.5-2.5c1.4 0 2.5 1.12 2.5 2.5zm2.88 9.7c0 1.37-1.12 2.5-2.5 2.5s-2.5-1.13-2.5-2.5c0-1.4 1.12-2.5 2.5-2.5s2.5 1.1 2.5 2.5zm2.88 9.68c0 1.38-1.12 2.5-2.5 2.5s-2.5-1.12-2.5-2.5 1.12-2.5 2.5-2.5 2.5 1.12 2.5 2.5zm2.88 9.7c0 1.37-1.12 2.5-2.5 2.5s-2.5-1.13-2.5-2.5c0-1.4 1.12-2.5 2.5-2.5s2.5 1.1 2.5 2.5zm2.87 9.68c0 1.38-1.12 2.5-2.5 2.5s-2.5-1.12-2.5-2.5 1.12-2.5 2.5-2.5 2.5 1.12 2.5 2.5z" fill="#5e5e5e"/><path d="M25665.88 15352.25l-4.8 1.42-.94-3.17h5.22z" fill="#5e5e5e"/><path d="M25789.08 15775.92l-8.5-12.36 8.9-2.64z" stroke="#5e5e5e" stroke-width="5" fill="#5e5e5e"/><path d="M26557.28 15054.74c0 1.4-1.12 2.5-2.5 2.5s-2.5-1.1-2.5-2.5c0-1.38 1.12-2.5 2.5-2.5s2.5 1.12 2.5 2.5zm9.12 4.14c0 1.38-1.12 2.5-2.5 2.5s-2.5-1.12-2.5-2.5 1.12-2.5 2.5-2.5 2.5 1.12 2.5 2.5zm9.12 4.13c0 1.4-1.12 2.5-2.5 2.5s-2.5-1.1-2.5-2.5c0-1.37 1.12-2.5 2.5-2.5s2.5 1.13 2.5 2.5zm9.13 4.15c0 1.38-1.12 2.5-2.5 2.5-1.4 0-2.5-1.12-2.5-2.5s1.1-2.5 2.5-2.5c1.38 0 2.5 1.12 2.5 2.5zm9.12 4.13c0 1.38-1.12 2.5-2.5 2.5s-2.5-1.12-2.5-2.5 1.12-2.5 2.5-2.5 2.5 1.12 2.5 2.5zm9.12 4.14c0 1.38-1.13 2.5-2.5 2.5-1.4 0-2.5-1.12-2.5-2.5s1.1-2.5 2.5-2.5c1.37 0 2.5 1.12 2.5 2.5zm9.1 4.13c0 1.38-1.1 2.5-2.5 2.5-1.37 0-2.5-1.12-2.5-2.5s1.13-2.5 2.5-2.5c1.4 0 2.5 1.12 2.5 2.5zm9.14 4.14c0 1.37-1.12 2.5-2.5 2.5s-2.5-1.13-2.5-2.5c0-1.4 1.12-2.5 2.5-2.5s2.5 1.1 2.5 2.5zm9.12 4.12c0 1.38-1.12 2.5-2.5 2.5s-2.5-1.12-2.5-2.5 1.12-2.5 2.5-2.5 2.5 1.12 2.5 2.5zm9.12 4.14c0 1.38-1.12 2.5-2.5 2.5s-2.5-1.12-2.5-2.5 1.12-2.5 2.5-2.5 2.5 1.12 2.5 2.5zm9.12 4.13c0 1.37-1.1 2.5-2.5 2.5-1.38 0-2.5-1.13-2.5-2.5 0-1.4 1.12-2.5 2.5-2.5 1.4 0 2.5 1.1 2.5 2.5zm9.13 4.13c0 1.38-1.12 2.5-2.5 2.5s-2.5-1.12-2.5-2.5 1.12-2.5 2.5-2.5 2.5 1.12 2.5 2.5zm9.12 4.13c0 1.38-1.12 2.5-2.5 2.5s-2.5-1.12-2.5-2.5 1.12-2.5 2.5-2.5 2.5 1.12 2.5 2.5zm9.12 4.14c0 1.38-1.12 2.5-2.5 2.5s-2.5-1.12-2.5-2.5 1.12-2.5 2.5-2.5 2.5 1.12 2.5 2.5zm9.13 4.13c0 1.38-1.12 2.5-2.5 2.5s-2.5-1.12-2.5-2.5 1.12-2.5 2.5-2.5 2.5 1.12 2.5 2.5zm9.12 4.14c0 1.38-1.12 2.5-2.5 2.5s-2.5-1.12-2.5-2.5c0-1.4 1.12-2.5 2.5-2.5s2.5 1.1 2.5 2.5zm9.12 4.13c0 1.38-1.12 2.5-2.5 2.5s-2.5-1.12-2.5-2.5 1.12-2.5 2.5-2.5 2.5 1.12 2.5 2.5zm9.12 4.13c0 1.4-1.12 2.5-2.5 2.5s-2.5-1.1-2.5-2.5c0-1.38 1.12-2.5 2.5-2.5s2.5 1.12 2.5 2.5zm9.13 4.14c0 1.38-1.13 2.5-2.5 2.5-1.4 0-2.5-1.12-2.5-2.5s1.1-2.5 2.5-2.5c1.37 0 2.5 1.12 2.5 2.5zm9.1 4.13c0 1.38-1.1 2.5-2.5 2.5-1.37 0-2.5-1.12-2.5-2.5s1.13-2.5 2.5-2.5c1.4 0 2.5 1.12 2.5 2.5zm9.13 4.14c0 1.38-1.12 2.5-2.5 2.5s-2.5-1.12-2.5-2.5 1.12-2.5 2.5-2.5 2.5 1.12 2.5 2.5zm9.13 4.13c0 1.38-1.12 2.5-2.5 2.5-1.4 0-2.5-1.12-2.5-2.5s1.1-2.5 2.5-2.5c1.38 0 2.5 1.12 2.5 2.5zm9.12 4.14c0 1.4-1.12 2.5-2.5 2.5s-2.5-1.1-2.5-2.5c0-1.37 1.12-2.5 2.5-2.5s2.5 1.13 2.5 2.5zm9.12 4.14c0 1.38-1.12 2.5-2.5 2.5s-2.5-1.12-2.5-2.5 1.12-2.5 2.5-2.5 2.5 1.12 2.5 2.5zm9.12 4.14c0 1.38-1.12 2.5-2.5 2.5s-2.5-1.12-2.5-2.5 1.12-2.5 2.5-2.5 2.5 1.12 2.5 2.5zm9.13 4.13c0 1.4-1.12 2.5-2.5 2.5s-2.5-1.1-2.5-2.5c0-1.37 1.12-2.5 2.5-2.5s2.5 1.13 2.5 2.5zm9.12 4.15c0 1.38-1.12 2.5-2.5 2.5s-2.5-1.12-2.5-2.5 1.12-2.5 2.5-2.5 2.5 1.12 2.5 2.5zm9.12 4.13c0 1.38-1.13 2.5-2.5 2.5-1.4 0-2.5-1.12-2.5-2.5s1.1-2.5 2.5-2.5c1.37 0 2.5 1.12 2.5 2.5zm9.1 4.14c0 1.38-1.1 2.5-2.5 2.5-1.37 0-2.5-1.12-2.5-2.5s1.13-2.5 2.5-2.5c1.4 0 2.5 1.12 2.5 2.5zm9.14 4.13c0 1.38-1.12 2.5-2.5 2.5s-2.5-1.12-2.5-2.5 1.12-2.5 2.5-2.5 2.5 1.12 2.5 2.5zm9.12 4.14c0 1.37-1.12 2.5-2.5 2.5s-2.5-1.13-2.5-2.5c0-1.4 1.12-2.5 2.5-2.5s2.5 1.1 2.5 2.5zm9.12 4.12c0 1.38-1.12 2.5-2.5 2.5s-2.5-1.12-2.5-2.5 1.12-2.5 2.5-2.5 2.5 1.12 2.5 2.5zm9.13 4.14c0 1.38-1.1 2.5-2.5 2.5-1.37 0-2.5-1.12-2.5-2.5 0-1.4 1.13-2.5 2.5-2.5 1.4 0 2.5 1.1 2.5 2.5zm9.13 4.13c0 1.37-1.12 2.5-2.5 2.5s-2.5-1.13-2.5-2.5c0-1.4 1.12-2.5 2.5-2.5s2.5 1.1 2.5 2.5zm9.12 4.12c0 1.4-1.12 2.5-2.5 2.5s-2.5-1.1-2.5-2.5c0-1.38 1.12-2.5 2.5-2.5s2.5 1.12 2.5 2.5zm9.12 4.14c0 1.38-1.12 2.5-2.5 2.5s-2.5-1.12-2.5-2.5 1.12-2.5 2.5-2.5 2.5 1.12 2.5 2.5zm9.13 4.13c0 1.37-1.12 2.5-2.5 2.5s-2.5-1.13-2.5-2.5c0-1.4 1.12-2.5 2.5-2.5s2.5 1.1 2.5 2.5zm9.12 4.13c0 1.38-1.12 2.5-2.5 2.5s-2.5-1.12-2.5-2.5 1.12-2.5 2.5-2.5 2.5 1.12 2.5 2.5zm9.12 4.13c0 1.38-1.12 2.5-2.5 2.5s-2.5-1.12-2.5-2.5 1.12-2.5 2.5-2.5 2.5 1.12 2.5 2.5zm9.13 4.14c0 1.38-1.12 2.5-2.5 2.5-1.4 0-2.5-1.12-2.5-2.5s1.1-2.5 2.5-2.5c1.38 0 2.5 1.12 2.5 2.5zm9.12 4.13c0 1.38-1.13 2.5-2.5 2.5-1.4 0-2.5-1.12-2.5-2.5s1.1-2.5 2.5-2.5c1.37 0 2.5 1.12 2.5 2.5zm9.1 4.14c0 1.38-1.1 2.5-2.5 2.5-1.37 0-2.5-1.12-2.5-2.5s1.13-2.5 2.5-2.5c1.4 0 2.5 1.12 2.5 2.5zm9.13 4.13c0 1.38-1.12 2.5-2.5 2.5s-2.5-1.12-2.5-2.5 1.12-2.5 2.5-2.5 2.5 1.12 2.5 2.5zm9.13 4.14c0 1.38-1.12 2.5-2.5 2.5s-2.5-1.12-2.5-2.5 1.12-2.5 2.5-2.5 2.5 1.12 2.5 2.5zm9.12 4.13c0 1.38-1.12 2.5-2.5 2.5s-2.5-1.12-2.5-2.5 1.12-2.5 2.5-2.5 2.5 1.12 2.5 2.5zm9.12 4.14c0 1.4-1.12 2.5-2.5 2.5s-2.5-1.1-2.5-2.5c0-1.37 1.12-2.5 2.5-2.5s2.5 1.13 2.5 2.5zm9.12 4.14c0 1.38-1.1 2.5-2.5 2.5-1.38 0-2.5-1.12-2.5-2.5s1.12-2.5 2.5-2.5c1.4 0 2.5 1.12 2.5 2.5zm9.13 4.14c0 1.38-1.12 2.5-2.5 2.5s-2.5-1.12-2.5-2.5c0-1.4 1.12-2.5 2.5-2.5s2.5 1.1 2.5 2.5zm9.12 4.13c0 1.4-1.12 2.5-2.5 2.5s-2.5-1.1-2.5-2.5c0-1.37 1.12-2.5 2.5-2.5s2.5 1.13 2.5 2.5zm9.12 4.14c0 1.4-1.13 2.5-2.5 2.5-1.4 0-2.5-1.1-2.5-2.5 0-1.38 1.1-2.5 2.5-2.5 1.37 0 2.5 1.12 2.5 2.5zm9.12 4.14c0 1.38-1.12 2.5-2.5 2.5-1.4 0-2.5-1.12-2.5-2.5s1.1-2.5 2.5-2.5c1.38 0 2.5 1.12 2.5 2.5zm9.12 4.13c0 1.4-1.12 2.5-2.5 2.5s-2.5-1.1-2.5-2.5c0-1.37 1.12-2.5 2.5-2.5s2.5 1.13 2.5 2.5zm9.12 4.15c0 1.38-1.12 2.5-2.5 2.5s-2.5-1.12-2.5-2.5 1.12-2.5 2.5-2.5 2.5 1.12 2.5 2.5zm9.12 4.13c0 1.38-1.12 2.5-2.5 2.5s-2.5-1.12-2.5-2.5 1.12-2.5 2.5-2.5 2.5 1.12 2.5 2.5zm9.13 4.14c0 1.38-1.1 2.5-2.5 2.5-1.37 0-2.5-1.12-2.5-2.5s1.13-2.5 2.5-2.5c1.4 0 2.5 1.12 2.5 2.5zm9.13 4.13c0 1.38-1.12 2.5-2.5 2.5s-2.5-1.12-2.5-2.5 1.12-2.5 2.5-2.5 2.5 1.12 2.5 2.5zm9.12 4.14c0 1.37-1.12 2.5-2.5 2.5s-2.5-1.13-2.5-2.5c0-1.4 1.12-2.5 2.5-2.5s2.5 1.1 2.5 2.5zm9.13 4.12c0 1.38-1.12 2.5-2.5 2.5-1.4 0-2.5-1.12-2.5-2.5s1.1-2.5 2.5-2.5c1.38 0 2.5 1.12 2.5 2.5zm9.12 4.14c0 1.38-1.12 2.5-2.5 2.5s-2.5-1.12-2.5-2.5 1.12-2.5 2.5-2.5 2.5 1.12 2.5 2.5zm9.12 4.13c0 1.37-1.12 2.5-2.5 2.5s-2.5-1.13-2.5-2.5c0-1.4 1.12-2.5 2.5-2.5s2.5 1.1 2.5 2.5zm9.12 4.13c0 1.38-1.12 2.5-2.5 2.5s-2.5-1.12-2.5-2.5 1.12-2.5 2.5-2.5 2.5 1.12 2.5 2.5zm9.13 4.13c0 1.38-1.12 2.5-2.5 2.5s-2.5-1.12-2.5-2.5 1.12-2.5 2.5-2.5 2.5 1.12 2.5 2.5zm9.12 4.14c0 1.38-1.13 2.5-2.5 2.5-1.4 0-2.5-1.12-2.5-2.5s1.1-2.5 2.5-2.5c1.37 0 2.5 1.12 2.5 2.5zm9.1 4.13c0 1.38-1.1 2.5-2.5 2.5-1.37 0-2.5-1.12-2.5-2.5s1.13-2.5 2.5-2.5c1.4 0 2.5 1.12 2.5 2.5zm9.13 4.14c0 1.38-1.1 2.5-2.5 2.5-1.38 0-2.5-1.12-2.5-2.5 0-1.4 1.12-2.5 2.5-2.5 1.4 0 2.5 1.1 2.5 2.5zm9.13 4.13c0 1.38-1.12 2.5-2.5 2.5s-2.5-1.12-2.5-2.5 1.12-2.5 2.5-2.5 2.5 1.12 2.5 2.5zm9.12 4.13c0 1.4-1.12 2.5-2.5 2.5s-2.5-1.1-2.5-2.5c0-1.38 1.12-2.5 2.5-2.5s2.5 1.12 2.5 2.5zm9.12 4.14c0 1.38-1.12 2.5-2.5 2.5s-2.5-1.12-2.5-2.5 1.12-2.5 2.5-2.5 2.5 1.12 2.5 2.5zm9.13 4.13c0 1.38-1.12 2.5-2.5 2.5-1.4 0-2.5-1.12-2.5-2.5s1.1-2.5 2.5-2.5c1.38 0 2.5 1.12 2.5 2.5zm9.12 4.14c0 1.38-1.12 2.5-2.5 2.5s-2.5-1.12-2.5-2.5 1.12-2.5 2.5-2.5 2.5 1.12 2.5 2.5zm9.12 4.13c0 1.38-1.12 2.5-2.5 2.5s-2.5-1.12-2.5-2.5 1.12-2.5 2.5-2.5 2.5 1.12 2.5 2.5zm9.12 4.14c0 1.4-1.13 2.5-2.5 2.5-1.4 0-2.5-1.1-2.5-2.5 0-1.37 1.1-2.5 2.5-2.5 1.37 0 2.5 1.13 2.5 2.5zm9.12 4.14c0 1.38-1.12 2.5-2.5 2.5s-2.5-1.12-2.5-2.5 1.12-2.5 2.5-2.5 2.5 1.12 2.5 2.5zm9.12 4.14c0 1.38-1.12 2.5-2.5 2.5s-2.5-1.12-2.5-2.5 1.12-2.5 2.5-2.5 2.5 1.12 2.5 2.5zm9.12 4.13c0 1.4-1.12 2.5-2.5 2.5s-2.5-1.1-2.5-2.5c0-1.37 1.12-2.5 2.5-2.5s2.5 1.13 2.5 2.5zm9.12 4.15c0 1.38-1.1 2.5-2.5 2.5-1.38 0-2.5-1.12-2.5-2.5s1.12-2.5 2.5-2.5c1.4 0 2.5 1.12 2.5 2.5zm9.13 4.13c0 1.38-1.1 2.5-2.5 2.5-1.37 0-2.5-1.12-2.5-2.5s1.13-2.5 2.5-2.5c1.4 0 2.5 1.12 2.5 2.5zm9.13 4.14c0 1.38-1.12 2.5-2.5 2.5s-2.5-1.12-2.5-2.5 1.12-2.5 2.5-2.5 2.5 1.12 2.5 2.5zm9.12 4.13c0 1.38-1.12 2.5-2.5 2.5s-2.5-1.12-2.5-2.5 1.12-2.5 2.5-2.5 2.5 1.12 2.5 2.5zm9.13 4.14c0 1.37-1.12 2.5-2.5 2.5s-2.5-1.13-2.5-2.5c0-1.4 1.12-2.5 2.5-2.5s2.5 1.1 2.5 2.5zm9.12 4.12c0 1.38-1.12 2.5-2.5 2.5s-2.5-1.12-2.5-2.5 1.12-2.5 2.5-2.5 2.5 1.12 2.5 2.5zm9.12 4.14c0 1.38-1.12 2.5-2.5 2.5s-2.5-1.12-2.5-2.5c0-1.4 1.12-2.5 2.5-2.5s2.5 1.1 2.5 2.5zm9.12 4.13c0 1.37-1.1 2.5-2.5 2.5-1.38 0-2.5-1.13-2.5-2.5 0-1.4 1.12-2.5 2.5-2.5 1.4 0 2.5 1.1 2.5 2.5zm9.13 4.12c0 1.4-1.12 2.5-2.5 2.5s-2.5-1.1-2.5-2.5c0-1.38 1.12-2.5 2.5-2.5s2.5 1.12 2.5 2.5zm9.12 4.14c0 1.38-1.13 2.5-2.5 2.5-1.4 0-2.5-1.12-2.5-2.5s1.1-2.5 2.5-2.5c1.37 0 2.5 1.12 2.5 2.5zm9.1 4.13c0 1.37-1.1 2.5-2.5 2.5-1.37 0-2.5-1.13-2.5-2.5 0-1.4 1.13-2.5 2.5-2.5 1.4 0 2.5 1.1 2.5 2.5zm9.14 4.13c0 1.38-1.12 2.5-2.5 2.5-1.4 0-2.5-1.12-2.5-2.5s1.1-2.5 2.5-2.5c1.38 0 2.5 1.12 2.5 2.5zm9.12 4.13c0 1.38-1.12 2.5-2.5 2.5s-2.5-1.12-2.5-2.5 1.12-2.5 2.5-2.5 2.5 1.12 2.5 2.5zm9.12 4.14c0 1.38-1.12 2.5-2.5 2.5s-2.5-1.12-2.5-2.5 1.12-2.5 2.5-2.5 2.5 1.12 2.5 2.5zm9.12 4.13c0 1.38-1.12 2.5-2.5 2.5s-2.5-1.12-2.5-2.5 1.12-2.5 2.5-2.5 2.5 1.12 2.5 2.5zm9.13 4.14c0 1.38-1.12 2.5-2.5 2.5s-2.5-1.12-2.5-2.5 1.12-2.5 2.5-2.5 2.5 1.12 2.5 2.5zm9.12 4.13c0 1.38-1.12 2.5-2.5 2.5s-2.5-1.12-2.5-2.5 1.12-2.5 2.5-2.5 2.5 1.12 2.5 2.5zm9.12 4.14c0 1.38-1.12 2.5-2.5 2.5s-2.5-1.12-2.5-2.5 1.12-2.5 2.5-2.5 2.5 1.12 2.5 2.5zm9.12 4.13c0 1.38-1.12 2.5-2.5 2.5-1.4 0-2.5-1.12-2.5-2.5s1.1-2.5 2.5-2.5c1.38 0 2.5 1.12 2.5 2.5zm9.12 4.14c0 1.4-1.12 2.5-2.5 2.5s-2.5-1.1-2.5-2.5c0-1.37 1.12-2.5 2.5-2.5s2.5 1.13 2.5 2.5zm9.12 4.14c0 1.38-1.12 2.5-2.5 2.5s-2.5-1.12-2.5-2.5 1.12-2.5 2.5-2.5 2.5 1.12 2.5 2.5zm9.12 4.14c0 1.38-1.12 2.5-2.5 2.5s-2.5-1.12-2.5-2.5 1.12-2.5 2.5-2.5 2.5 1.12 2.5 2.5zm9.13 4.13c0 1.4-1.13 2.5-2.5 2.5-1.4 0-2.5-1.1-2.5-2.5 0-1.37 1.1-2.5 2.5-2.5 1.37 0 2.5 1.13 2.5 2.5zm9.1 4.15c0 1.38-1.1 2.5-2.5 2.5-1.37 0-2.5-1.12-2.5-2.5 0-1.4 1.13-2.5 2.5-2.5 1.4 0 2.5 1.1 2.5 2.5zm9.13 4.13c0 1.38-1.12 2.5-2.5 2.5s-2.5-1.12-2.5-2.5 1.12-2.5 2.5-2.5 2.5 1.12 2.5 2.5zm9.12 4.13c0 1.4-1.1 2.5-2.5 2.5-1.38 0-2.5-1.1-2.5-2.5 0-1.37 1.12-2.5 2.5-2.5 1.4 0 2.5 1.13 2.5 2.5zm9.13 4.15c0 1.38-1.12 2.5-2.5 2.5s-2.5-1.12-2.5-2.5 1.12-2.5 2.5-2.5 2.5 1.12 2.5 2.5zm9.12 4.13c0 1.38-1.12 2.5-2.5 2.5s-2.5-1.12-2.5-2.5 1.12-2.5 2.5-2.5 2.5 1.12 2.5 2.5zm9.12 4.14c0 1.38-1.12 2.5-2.5 2.5s-2.5-1.12-2.5-2.5 1.12-2.5 2.5-2.5 2.5 1.12 2.5 2.5zm9.13 4.13c0 1.38-1.12 2.5-2.5 2.5-1.4 0-2.5-1.12-2.5-2.5s1.1-2.5 2.5-2.5c1.38 0 2.5 1.12 2.5 2.5zm9.12 4.14c0 1.37-1.12 2.5-2.5 2.5s-2.5-1.13-2.5-2.5c0-1.4 1.12-2.5 2.5-2.5s2.5 1.1 2.5 2.5zm9.12 4.12c0 1.38-1.13 2.5-2.5 2.5-1.4 0-2.5-1.12-2.5-2.5s1.1-2.5 2.5-2.5c1.37 0 2.5 1.12 2.5 2.5zm9.1 4.14c0 1.38-1.1 2.5-2.5 2.5-1.37 0-2.5-1.12-2.5-2.5s1.13-2.5 2.5-2.5c1.4 0 2.5 1.12 2.5 2.5zm9.14 4.13c0 1.37-1.12 2.5-2.5 2.5s-2.5-1.13-2.5-2.5c0-1.4 1.12-2.5 2.5-2.5s2.5 1.1 2.5 2.5zm9.12 4.13c0 1.38-1.12 2.5-2.5 2.5s-2.5-1.12-2.5-2.5 1.12-2.5 2.5-2.5 2.5 1.12 2.5 2.5zm9.12 4.13c0 1.38-1.12 2.5-2.5 2.5s-2.5-1.12-2.5-2.5 1.12-2.5 2.5-2.5 2.5 1.12 2.5 2.5zm9.12 4.14c0 1.38-1.1 2.5-2.5 2.5-1.38 0-2.5-1.12-2.5-2.5s1.12-2.5 2.5-2.5c1.4 0 2.5 1.12 2.5 2.5zm9.13 4.13c0 1.38-1.12 2.5-2.5 2.5s-2.5-1.12-2.5-2.5 1.12-2.5 2.5-2.5 2.5 1.12 2.5 2.5zm9.12 4.14c0 1.38-1.12 2.5-2.5 2.5s-2.5-1.12-2.5-2.5c0-1.4 1.12-2.5 2.5-2.5s2.5 1.1 2.5 2.5zm9.12 4.13c0 1.38-1.12 2.5-2.5 2.5s-2.5-1.12-2.5-2.5 1.12-2.5 2.5-2.5 2.5 1.12 2.5 2.5zm9.13 4.13c0 1.4-1.12 2.5-2.5 2.5s-2.5-1.1-2.5-2.5c0-1.38 1.12-2.5 2.5-2.5s2.5 1.12 2.5 2.5zm9.12 4.14c0 1.38-1.12 2.5-2.5 2.5s-2.5-1.12-2.5-2.5 1.12-2.5 2.5-2.5 2.5 1.12 2.5 2.5zm9.12 4.13c0 1.4-1.12 2.5-2.5 2.5s-2.5-1.1-2.5-2.5c0-1.38 1.12-2.5 2.5-2.5s2.5 1.12 2.5 2.5zm9.12 4.14c0 1.38-1.12 2.5-2.5 2.5s-2.5-1.12-2.5-2.5 1.12-2.5 2.5-2.5 2.5 1.12 2.5 2.5zm9.13 4.13c0 1.38-1.13 2.5-2.5 2.5-1.4 0-2.5-1.12-2.5-2.5s1.1-2.5 2.5-2.5c1.37 0 2.5 1.12 2.5 2.5zm9.1 4.14c0 1.4-1.1 2.5-2.5 2.5-1.37 0-2.5-1.1-2.5-2.5 0-1.37 1.13-2.5 2.5-2.5 1.4 0 2.5 1.13 2.5 2.5zm9.13 4.14c0 1.38-1.12 2.5-2.5 2.5s-2.5-1.12-2.5-2.5 1.12-2.5 2.5-2.5 2.5 1.12 2.5 2.5zm9.13 4.14c0 1.38-1.12 2.5-2.5 2.5-1.4 0-2.5-1.12-2.5-2.5s1.1-2.5 2.5-2.5c1.38 0 2.5 1.12 2.5 2.5zm9.12 4.13c0 1.4-1.12 2.5-2.5 2.5s-2.5-1.1-2.5-2.5c0-1.37 1.12-2.5 2.5-2.5s2.5 1.13 2.5 2.5zm9.12 4.15c0 1.38-1.12 2.5-2.5 2.5s-2.5-1.12-2.5-2.5 1.12-2.5 2.5-2.5 2.5 1.12 2.5 2.5zm9.12 4.13c0 1.38-1.12 2.5-2.5 2.5s-2.5-1.12-2.5-2.5 1.12-2.5 2.5-2.5 2.5 1.12 2.5 2.5zm9.13 4.14c0 1.38-1.12 2.5-2.5 2.5s-2.5-1.12-2.5-2.5 1.12-2.5 2.5-2.5 2.5 1.12 2.5 2.5zm9.12 4.13c0 1.38-1.12 2.5-2.5 2.5s-2.5-1.12-2.5-2.5 1.12-2.5 2.5-2.5 2.5 1.12 2.5 2.5zm9.12 4.14c0 1.37-1.13 2.5-2.5 2.5-1.4 0-2.5-1.13-2.5-2.5 0-1.4 1.1-2.5 2.5-2.5 1.37 0 2.5 1.1 2.5 2.5zm9.1 4.12c0 1.38-1.1 2.5-2.5 2.5-1.37 0-2.5-1.12-2.5-2.5s1.13-2.5 2.5-2.5c1.4 0 2.5 1.12 2.5 2.5zm9.14 4.14c0 1.38-1.12 2.5-2.5 2.5s-2.5-1.12-2.5-2.5c0-1.4 1.12-2.5 2.5-2.5s2.5 1.1 2.5 2.5zm9.12 4.13c0 1.37-1.12 2.5-2.5 2.5s-2.5-1.13-2.5-2.5c0-1.4 1.12-2.5 2.5-2.5s2.5 1.1 2.5 2.5zm9.12 4.12c0 1.4-1.12 2.5-2.5 2.5s-2.5-1.1-2.5-2.5c0-1.38 1.12-2.5 2.5-2.5s2.5 1.12 2.5 2.5zm9.13 4.14c0 1.38-1.1 2.5-2.5 2.5-1.37 0-2.5-1.12-2.5-2.5s1.13-2.5 2.5-2.5c1.4 0 2.5 1.12 2.5 2.5zm9.13 4.13c0 1.37-1.12 2.5-2.5 2.5s-2.5-1.13-2.5-2.5c0-1.4 1.12-2.5 2.5-2.5s2.5 1.1 2.5 2.5zm9.12 4.13c0 1.38-1.12 2.5-2.5 2.5s-2.5-1.12-2.5-2.5 1.12-2.5 2.5-2.5 2.5 1.12 2.5 2.5zm9.12 4.13c0 1.38-1.12 2.5-2.5 2.5s-2.5-1.12-2.5-2.5 1.12-2.5 2.5-2.5 2.5 1.12 2.5 2.5zm9.13 4.14c0 1.38-1.12 2.5-2.5 2.5s-2.5-1.12-2.5-2.5 1.12-2.5 2.5-2.5 2.5 1.12 2.5 2.5zm9.12 4.13c0 1.38-1.12 2.5-2.5 2.5s-2.5-1.12-2.5-2.5 1.12-2.5 2.5-2.5 2.5 1.12 2.5 2.5zm9.12 4.14c0 1.38-1.12 2.5-2.5 2.5s-2.5-1.12-2.5-2.5 1.12-2.5 2.5-2.5 2.5 1.12 2.5 2.5zm9.13 4.13c0 1.38-1.12 2.5-2.5 2.5-1.4 0-2.5-1.12-2.5-2.5s1.1-2.5 2.5-2.5c1.38 0 2.5 1.12 2.5 2.5zm9.12 4.14c0 1.38-1.13 2.5-2.5 2.5-1.4 0-2.5-1.12-2.5-2.5s1.1-2.5 2.5-2.5c1.37 0 2.5 1.12 2.5 2.5zm9.1 4.13c0 1.38-1.1 2.5-2.5 2.5-1.37 0-2.5-1.12-2.5-2.5s1.13-2.5 2.5-2.5c1.4 0 2.5 1.12 2.5 2.5zm9.13 4.14c0 1.4-1.12 2.5-2.5 2.5s-2.5-1.1-2.5-2.5c0-1.37 1.12-2.5 2.5-2.5s2.5 1.13 2.5 2.5zm9.13 4.14c0 1.38-1.12 2.5-2.5 2.5s-2.5-1.12-2.5-2.5 1.12-2.5 2.5-2.5 2.5 1.12 2.5 2.5zm9.12 4.14c0 1.38-1.12 2.5-2.5 2.5s-2.5-1.12-2.5-2.5 1.12-2.5 2.5-2.5 2.5 1.12 2.5 2.5zm9.12 4.13c0 1.4-1.12 2.5-2.5 2.5s-2.5-1.1-2.5-2.5c0-1.37 1.12-2.5 2.5-2.5s2.5 1.13 2.5 2.5zm9.12 4.15c0 1.38-1.1 2.5-2.5 2.5-1.38 0-2.5-1.12-2.5-2.5 0-1.4 1.12-2.5 2.5-2.5 1.4 0 2.5 1.1 2.5 2.5zm9.13 4.13c0 1.38-1.12 2.5-2.5 2.5s-2.5-1.12-2.5-2.5 1.12-2.5 2.5-2.5 2.5 1.12 2.5 2.5zm9.12 4.13c0 1.4-1.12 2.5-2.5 2.5s-2.5-1.1-2.5-2.5c0-1.37 1.12-2.5 2.5-2.5s2.5 1.13 2.5 2.5zm9.12 4.15c0 1.38-1.13 2.5-2.5 2.5-1.4 0-2.5-1.12-2.5-2.5s1.1-2.5 2.5-2.5c1.37 0 2.5 1.12 2.5 2.5zm9.12 4.13c0 1.38-1.12 2.5-2.5 2.5-1.4 0-2.5-1.12-2.5-2.5s1.1-2.5 2.5-2.5c1.38 0 2.5 1.12 2.5 2.5zm9.12 4.14c0 1.38-1.12 2.5-2.5 2.5s-2.5-1.12-2.5-2.5 1.12-2.5 2.5-2.5 2.5 1.12 2.5 2.5zm9.12 4.13c0 1.38-1.12 2.5-2.5 2.5s-2.5-1.12-2.5-2.5 1.12-2.5 2.5-2.5 2.5 1.12 2.5 2.5zm9.12 4.14c0 1.37-1.12 2.5-2.5 2.5s-2.5-1.13-2.5-2.5c0-1.4 1.12-2.5 2.5-2.5s2.5 1.1 2.5 2.5zm9.13 4.12c0 1.38-1.1 2.5-2.5 2.5-1.37 0-2.5-1.12-2.5-2.5s1.13-2.5 2.5-2.5c1.4 0 2.5 1.12 2.5 2.5zm9.13 4.14c0 1.38-1.12 2.5-2.5 2.5s-2.5-1.12-2.5-2.5 1.12-2.5 2.5-2.5 2.5 1.12 2.5 2.5zm9.12 4.13c0 1.37-1.12 2.5-2.5 2.5s-2.5-1.13-2.5-2.5c0-1.4 1.12-2.5 2.5-2.5s2.5 1.1 2.5 2.5zm9.13 4.13c0 1.38-1.12 2.5-2.5 2.5-1.4 0-2.5-1.12-2.5-2.5s1.1-2.5 2.5-2.5c1.38 0 2.5 1.12 2.5 2.5zm9.12 4.13c0 1.38-1.12 2.5-2.5 2.5s-2.5-1.12-2.5-2.5 1.12-2.5 2.5-2.5 2.5 1.12 2.5 2.5zm9.12 4.14c0 1.38-1.12 2.5-2.5 2.5s-2.5-1.12-2.5-2.5 1.12-2.5 2.5-2.5 2.5 1.12 2.5 2.5zm9.12 4.13c0 1.38-1.12 2.5-2.5 2.5s-2.5-1.12-2.5-2.5 1.12-2.5 2.5-2.5 2.5 1.12 2.5 2.5zm9.13 4.14c0 1.38-1.12 2.5-2.5 2.5s-2.5-1.12-2.5-2.5 1.12-2.5 2.5-2.5 2.5 1.12 2.5 2.5zm9.12 4.13c0 1.38-1.13 2.5-2.5 2.5-1.4 0-2.5-1.12-2.5-2.5s1.1-2.5 2.5-2.5c1.37 0 2.5 1.12 2.5 2.5zm9.1 4.14c0 1.38-1.1 2.5-2.5 2.5-1.37 0-2.5-1.12-2.5-2.5 0-1.4 1.13-2.5 2.5-2.5 1.4 0 2.5 1.1 2.5 2.5zm9.13 4.13c0 1.38-1.1 2.5-2.5 2.5-1.38 0-2.5-1.12-2.5-2.5s1.12-2.5 2.5-2.5c1.4 0 2.5 1.12 2.5 2.5zm9.13 4.13c0 1.4-1.12 2.5-2.5 2.5s-2.5-1.1-2.5-2.5c0-1.38 1.12-2.5 2.5-2.5s2.5 1.12 2.5 2.5z" fill="#5e5e5e"/><path d="M26555.87 15052.5l-2.07 4.55-1.3-.6v-5.48z" fill="#5e5e5e"/><path d="M28093.55 15752.16l-14.9-1.67 3.82-8.45z" stroke="#5e5e5e" stroke-width="5" fill="#5e5e5e"/><path d="M27080 16446c0-3.3 2.7-6 6-6h788c3.3 0 6 2.7 6 6v225.33c0 3.32-2.7 6-6 6h-788c-3.3 0-6-2.68-6-6z" stroke="#000" fill="#fff"/><use xlink:href="#d" transform="matrix(1,0,0,1,27092,16452) translate(0 71.11111111111111)"/><use xlink:href="#e" transform="matrix(1,0,0,1,27092,16452) translate(279.25925925925924 71.11111111111111)"/><use xlink:href="#f" transform="matrix(1,0,0,1,27092,16452) translate(423.9506172839506 71.11111111111111)"/><use xlink:href="#g" transform="matrix(1,0,0,1,27092,16452) translate(0 177.77777777777777)"/><path d="M24360 15886c0-3.3 2.7-6 6-6h788c3.3 0 6 2.7 6 6v168c0 3.3-2.7 6-6 6h-788c-3.3 0-6-2.7-6-6z" stroke="#000" fill="#fff"/><use xlink:href="#h" transform="matrix(1,0,0,1,24372,15892) translate(30.71604938271605 95.48611111111111)"/><use xlink:href="#i" transform="matrix(1,0,0,1,24372,15892) translate(439.85185185185185 95.48611111111111)"/><path d="M24360 16086c0-3.3 2.7-6 6-6h788c3.3 0 6 2.7 6 6v148c0 3.3-2.7 6-6 6h-788c-3.3 0-6-2.7-6-6z" stroke="#000" fill="#fff"/><use xlink:href="#j" transform="matrix(1,0,0,1,24372,16092) translate(109.60493827160496 83.86111111111111)"/><use xlink:href="#i" transform="matrix(1,0,0,1,24372,16092) translate(360.96296296296293 83.86111111111111)"/><path d="M24360 16267.33c0-3.3 2.7-6 6-6h788c3.3 0 6 2.7 6 6v148c0 3.32-2.7 6-6 6h-788c-3.3 0-6-2.68-6-6z" stroke="#000" fill="#fff"/><use xlink:href="#k" transform="matrix(1,0,0,1,24372,16273.333333333372) translate(40.34567901234567 83.86111111111111)"/><use xlink:href="#i" transform="matrix(1,0,0,1,24372,16273.333333333372) translate(430.22222222222223 83.86111111111111)"/><path d="M25284.7 16025.94H25163v-5h121.7zm481.83 0h-99.33v-5h99.33z" fill="#5e5e5e"/><path d="M25163.07 16025.94h-2.57v-5h2.57zM25783.3 16023.44l-14.27 4.63v-9.27z" fill="#5e5e5e"/><path d="M25791.4 16023.44l-24.87 8.07v-16.14zm-19.87 1.2l3.68-1.2-3.67-1.2z" fill="#5e5e5e"/><use xlink:href="#l" transform="matrix(1,0,0,1,25284.698186116424,15983.436047436327) translate(0.0049999999999954525 26.66666666666667)"/><use xlink:href="#m" transform="matrix(1,0,0,1,25284.698186116424,15983.436047436327) translate(260.65314814814815 26.66666666666667)"/><use xlink:href="#n" transform="matrix(1,0,0,1,25284.698186116424,15983.436047436327) translate(338.24574074074076 26.66666666666667)"/><use xlink:href="#o" transform="matrix(1,0,0,1,25284.698186116424,15983.436047436327) translate(130.32907407407407 66.66666666666669)"/><path d="M25365.07 16167.5H25163v-5h202.07zm401.46 0h-179.7v-5h179.7z" fill="#5e5e5e"/><path d="M25163.07 16167.5h-2.57v-5h2.57zM25783.3 16165l-14.27 4.63v-9.27z" fill="#5e5e5e"/><path d="M25791.4 16165l-24.87 8.08v-16.16zm-19.87 1.2l3.68-1.2-3.67-1.2z" fill="#5e5e5e"/><use xlink:href="#p" transform="matrix(1,0,0,1,25365.068556486793,16124.999284685819) translate(0.0049999999999954525 26.66666666666667)"/><use xlink:href="#m" transform="matrix(1,0,0,1,25365.068556486793,16124.999284685819) translate(99.91240740740741 26.66666666666667)"/><use xlink:href="#n" transform="matrix(1,0,0,1,25365.068556486793,16124.999284685819) translate(177.50500000000002 26.66666666666667)"/><use xlink:href="#o" transform="matrix(1,0,0,1,25365.068556486793,16124.999284685819) translate(49.95870370370372 66.66666666666669)"/><path d="M25840 15906c0-3.3 2.7-6 6-6h808c3.3 0 6 2.7 6 6v225.33c0 3.32-2.7 6-6 6h-808c-3.3 0-6-2.68-6-6z" stroke="#000" fill="#fff"/><use xlink:href="#q" transform="matrix(1,0,0,1,25852,15912) translate(0 71.11111111111111)"/><use xlink:href="#r" transform="matrix(1,0,0,1,25852,15912) translate(0 177.77777777777777)"/><path d="M25336.46 15925.88h-151.1v-5h151.1zm430.07 0h-151.1v-5h151.1zM25182.87 15928.02l-14.27-4.64 14.27-4.63z" fill="#5e5e5e"/><path d="M25185.37 15931.46l-24.86-8.08 24.87-8.07zm-8.68-8.08l3.67 1.2v-2.4zM25783.3 15923.38l-14.27 4.64v-9.27z" fill="#5e5e5e"/><path d="M25791.4 15923.38l-24.87 8.08v-16.15zm-19.87 1.2l3.68-1.2-3.67-1.2z" fill="#5e5e5e"/><use xlink:href="#s" transform="matrix(1,0,0,1,25336.457445375683,15883.384218667374) translate(111.76425925925928 26.66666666666667)"/><use xlink:href="#t" transform="matrix(1,0,0,1,25336.457445375683,15883.384218667374) translate(0.0049999999999954525 66.66666666666669)"/><path d="M26631.08 16568c0 17.67-172.6 32-385.54 32-212.93 0-385.54-14.33-385.54-32v-256c0-17.67 172.6-32 385.54-32 212.93 0 385.54 14.33 385.54 32z" stroke="#000" stroke-width="3" fill="#fff"/><path d="M26631.08 16312c0 17.67-172.6 32-385.54 32-212.93 0-385.54-14.33-385.54-32" stroke="#000" stroke-width="3" fill="none"/><use xlink:href="#u" transform="matrix(1,0,0,1,25865,16349) translate(33.34567901234573 71.11111111111111)"/><use xlink:href="#v" transform="matrix(1,0,0,1,25865,16349) translate(191 177.77777777777777)"/><path d="M26908.2 16522.66l15.85 6.68 14.52 5.4 14.15 4.6 14.3 4 14.88 3.48 15.8 3 17.14 2.53 18.92 2 21.3 1.32 21.98.45-.1 5-22.1-.46-21.5-1.34-19.13-2-17.33-2.56-16-3.05-15.1-3.53-14.5-4.05-14.34-4.66-14.72-5.48-16.04-6.75-16.12-7.6h11.7zm-229.46-83.3l19.13 2 17.34 2.55 16.02 3.06 15.08 3.53 14.5 4.04 14.35 4.66 14.72 5.48 16.08 6.77 16.08 8.17H26811l-7.15-3.63-15.82-6.67-14.52-5.4-14.14-4.6-14.3-4-14.88-3.48-15.8-3-17.13-2.54-18.93-1.97-21.04-1.3.3-5z" fill="#5e5e5e"/><path d="M27079.5 16556.17v5l-2.62-.06.1-5zM26654.84 16445.1l-14.17-4.93 14.36-4.34z" fill="#5e5e5e"/><path d="M26657.26 16448.6l-24.68-8.6 25.02-7.55zm-8.5-8.26l3.65 1.27.06-2.38z" fill="#5e5e5e"/><use xlink:href="#w" transform="matrix(1,0,0,1,26715.85225163524,16479.617318849483) translate(0.0049999999999954525 26.66666666666667)"/><use xlink:href="#x" transform="matrix(1,0,0,1,26715.85225163524,16479.617318849483) translate(127.50500000000002 26.66666666666667)"/><use xlink:href="#y" transform="matrix(1,0,0,1,26715.85225163524,16479.617318849483) translate(184.0790740740741 26.66666666666667)"/><path d="M27080 16166c0-3.3 2.7-6 6-6h748c3.3 0 6 2.7 6 6v225.33c0 3.32-2.7 6-6 6h-748c-3.3 0-6-2.68-6-6z" stroke="#000" fill="#fff"/><use xlink:href="#z" transform="matrix(1,0,0,1,27092,16172) translate(0 71.11111111111111)"/><use xlink:href="#r" transform="matrix(1,0,0,1,27092,16172) translate(394.81481481481484 71.11111111111111)"/><path d="M25401.13 16345.17H25163v-5h238.13zm365.4 0h-215.77v-5h215.77z" fill="#5e5e5e"/><path d="M25163.07 16345.17h-2.56v-5h2.57zM25783.3 16342.67l-14.27 4.63v-9.27z" fill="#5e5e5e"/><path d="M25791.4 16342.67l-24.87 8.07v-16.15zm-19.87 1.2l3.68-1.2-3.67-1.2z" fill="#5e5e5e"/><use xlink:href="#A" transform="matrix(1,0,0,1,25401.13337130161,16302.666666666708) translate(2.3661111111110813 26.66666666666667)"/><use xlink:href="#B" transform="matrix(1,0,0,1,25401.13337130161,16302.666666666708) translate(0.0049999999999954525 66.66666666666669)"/><path d="M24360 16446c0-3.3 2.7-6 6-6h788c3.3 0 6 2.7 6 6v148c0 3.3-2.7 6-6 6h-788c-3.3 0-6-2.7-6-6z" stroke="#000" fill="#fff"/><use xlink:href="#C" transform="matrix(1,0,0,1,24372,16452) translate(18.246913580246883 83.86111111111111)"/><use xlink:href="#c" transform="matrix(1,0,0,1,24372,16452) translate(481.4567901234568 83.86111111111111)"/><path d="M25336.46 16523.83h-151.1v-5h151.1zm452.43 0h-173.46v-5h173.45zM25182.87 16525.97l-14.27-4.64 14.27-4.63z" fill="#5e5e5e"/><path d="M25185.37 16529.4l-24.86-8.07 24.87-8.07zm-8.68-8.07l3.67 1.2v-2.4zM25791.4 16523.83h-2.58v-5h2.57z" fill="#5e5e5e"/><use xlink:href="#D" transform="matrix(1,0,0,1,25336.457445375683,16481.333333333336) translate(0.0049999999999954525 26.66666666666667)"/><use xlink:href="#E" transform="matrix(1,0,0,1,25336.457445375683,16481.333333333336) translate(67.04203703703703 66.66666666666669)"/><path d="M24360 16626c0-3.3 2.7-6 6-6h788c3.3 0 6 2.7 6 6v148c0 3.3-2.7 6-6 6h-788c-3.3 0-6-2.7-6-6z" stroke="#000" fill="#fff"/><use xlink:href="#F" transform="matrix(1,0,0,1,24372,16632) translate(101.95061728395058 83.86111111111111)"/><use xlink:href="#G" transform="matrix(1,0,0,1,24372,16632) translate(215.2839506172839 83.86111111111111)"/><path d="M25336.46 16703.83h-151.1v-5h151.1zm452.43 0h-173.46v-5h173.45zM25182.87 16705.97l-14.27-4.64 14.27-4.63z" fill="#5e5e5e"/><path d="M25185.37 16709.4l-24.86-8.07 24.87-8.07zm-8.68-8.07l3.67 1.2v-2.4zM25791.4 16703.83h-2.58v-5h2.57z" fill="#5e5e5e"/><g><use xlink:href="#D" transform="matrix(1,0,0,1,25336.457445375683,16661.333333333336) translate(0.0049999999999954525 26.66666666666667)"/><use xlink:href="#E" transform="matrix(1,0,0,1,25336.457445375683,16661.333333333336) translate(67.04203703703703 66.66666666666669)"/></g><path d="M27080 15886c0-3.3 2.7-6 6-6h748c3.3 0 6 2.7 6 6v225.33c0 3.32-2.7 6-6 6h-748c-3.3 0-6-2.68-6-6z" stroke="#000" fill="#fff"/><g><use xlink:href="#q" transform="matrix(1,0,0,1,27092,15892) translate(0 71.11111111111111)"/><use xlink:href="#H" transform="matrix(1,0,0,1,27092,15892) translate(0 177.77777777777777)"/></g><path d="M26685.36 16018.2l73.8-1.4 70.23-4.42 151.45-11.86 73.8-1.4" stroke="#5e5e5e" stroke-width="5" fill="none"/><path d="M26668.6 16018.5l14.17-4.9.18 9.28zM27071.4 15998.82l-14.17 4.9-.17-9.27z" stroke="#5e5e5e" stroke-width="5" fill="#5e5e5e"/><path d="M27927.78 16170.36l-1.33 10.53-1.67 9.92-1.97 9.26-2.2 8.56-2.35 7.85-2.5 7.15-2.57 6.5-2.62 5.9-2.66 5.35-2.66 4.84-2.65 4.38-2.65 3.98-2.62 3.6-2.6 3.28-2.57 3-2.55 2.7-2.52 2.48-2.5 2.26-2.5 2.06-2.48 1.9-2.47 1.7-2.47 1.57-2.47 1.42-2.48 1.3-2.48 1.16-1.54.65-1.94-4.6 1.45-.62 2.3-1.08 2.3-1.2 2.27-1.3 2.3-1.46 2.3-1.6 2.3-1.76 2.33-1.92 2.35-2.12 2.38-2.33 2.4-2.58 2.45-2.82 2.47-3.12 2.5-3.44 2.52-3.8 2.54-4.2 2.57-4.66 2.56-5.15 2.54-5.7 2.5-6.32 2.42-6.95 2.3-7.65 2.14-8.36 1.92-9.06 1.65-9.72 1.3-10.32.9-10.44h5zm-60.53-168.6l2.48 1.17 2.47 1.3 2.47 1.4 2.46 1.58 2.47 1.73 2.48 1.88 2.5 2.07 2.5 2.26 2.53 2.48 2.56 2.73 2.58 2.98 2.6 3.3 2.62 3.6 2.64 3.98 2.65 4.38 2.66 4.84 2.66 5.35 2.63 5.9 2.56 6.5 2.5 7.17 2.36 7.85 2.2 8.56 1.96 9.26 1.68 9.93 1.33 10.52.4 4.95h-5.02l-.37-4.43-1.3-10.3-1.63-9.74-1.93-9.06-2.14-8.36-2.3-7.64-2.43-6.96-2.5-6.3-2.53-5.72-2.56-5.16-2.56-4.66-2.55-4.2-2.52-3.8-2.5-3.45-2.47-3.1-2.43-2.83-2.4-2.56-2.4-2.32-2.34-2.12-2.32-1.93-2.32-1.76-2.3-1.6-2.28-1.45-2.3-1.32-2.27-1.2-2.3-1.07-1.43-.6 1.94-4.62zM27861.55 16007.5l-13.1-7.28 14.88-1.8z" fill="#5e5e5e"/><path d="M27863.34 16011.37l-22.84-12.7 25.95-3.15zm-6.96-9.6l3.38 1.9.46-2.36zM27863.33 16286.37l-14.9-1.8 13.12-7.3z" fill="#5e5e5e"/><path d="M27866.44 16289.27l-25.94-3.15 22.84-12.7zm-10.06-6.26l3.84.48-.46-2.35z" fill="#5e5e5e"/><g><use xlink:href="#I" transform="matrix(1,0,0,1,27824.45530939312,16119.395761915264) translate(0.0049999999999954525 26.66666666666667)"/><use xlink:href="#J" transform="matrix(1,0,0,1,27824.45530939312,16119.395761915264) translate(56.57907407407407 26.66666666666667)"/></g><path d="M26822.8 16385.73l-16.52 10.5-13.5 7.8-12.2 6.4-11.57 5.45-11.34 4.77-11.36 4.22-11.56 3.76-11.93 3.33-12.46 2.92-13.18 2.5-14.1 2.1-15.27 1.6-16.7 1.04-15.96.33-.1-5 15.85-.33 16.48-1.03 15.05-1.6 13.9-2.04 12.98-2.47 12.27-2.88 11.73-3.28 11.35-3.7 11.16-4.14 11.17-4.7 11.4-5.36 12-6.28 13.3-7.7 16.37-10.4 29.42-20.28h8.8zm232.02-103.8l-10.12.65-15.05 1.57-13.9 2.05-12.97 2.48-12.27 2.87-11.7 3.27-11.37 3.7-11.16 4.15-11.16 4.7-11.4 5.35-12 6.3-3.92 2.26h-10l11.5-6.65 12.2-6.4 11.6-5.44 11.35-4.78 11.35-4.23 11.56-3.76 11.93-3.33 12.47-2.92 13.18-2.5 14.1-2.1 15.27-1.6 10.2-.63z" fill="#5e5e5e"/><path d="M26635.2 16442.45l-2.62.05v-5l2.52-.05zM27071.4 16278.92l-14.1 5.08-.3-9.26z" fill="#5e5e5e"/><path d="M27079.5 16278.67l-24.6 8.85-.5-16.14zm-19.8 1.8l3.63-1.3-3.7-1.07z" fill="#5e5e5e"/><g><use xlink:href="#w" transform="matrix(1,0,0,1,26742.815112615266,16321.277217564666) translate(0.0049999999999954525 26.66666666666667)"/><use xlink:href="#x" transform="matrix(1,0,0,1,26742.815112615266,16321.277217564666) translate(127.50500000000002 26.66666666666667)"/><use xlink:href="#y" transform="matrix(1,0,0,1,26742.815112615266,16321.277217564666) translate(184.0790740740741 26.66666666666667)"/></g><path d="M26724.02 16225.07l-2.14 10.1-2.12 12.6-8.52 97.8-1.9 15.15-1.74 10.44-1.7 8.06-1.7 6.55-1.65 5.52-1.65 4.73-1.64 4.15-1.64 3.68-1.63 3.3-1.65 3-1.65 2.7-1.66 2.5-1.67 2.3-1.7 2.14-1.7 2-1.75 1.85-1.78 1.74-1.8 1.62-1.88 1.55-1.9 1.45-2 1.37-2.04 1.3-2.12 1.22-2.22 1.16-2.3 1.1-2.45 1-2.56.96-2.72.9-2.9.8-3.1.72-3.3.63-3.6.52-3.93.4-4.3.28-2.18.05-.1-5 2.08-.04 4.08-.25 3.7-.4 3.4-.5 3.12-.58 2.9-.68 2.68-.76 2.52-.82 2.37-.88 2.23-.94 2.13-1 2.03-1.06 1.93-1.13 1.87-1.17 1.8-1.26 1.76-1.32 1.7-1.4 1.66-1.5 1.63-1.6 1.6-1.7 1.58-1.84 1.56-1.96 1.54-2.13 1.54-2.3 1.53-2.55 1.55-2.8 1.55-3.1 1.55-3.5 1.56-3.96 1.6-4.56 1.6-5.3 1.62-6.36 1.66-7.85 1.72-10.23 1.87-14.94 8.53-97.92 2.17-12.9 2.18-10.3 1.6-6.24h5.16zm326.96-216.3l-30.84 9.9-64.27 22.7-37.85 15.2-27.9 12.62-22.63 11.4-19.44 10.83-17.37 10.67-16.02 10.8-15.15 11.15-14.67 11.78-14.5 12.7-14.7 13.98-.9.93-2.7 2.84-2.57 3-2.54 3.18-2.46 3.4-1.23 1.85h-5.95l.54-.9 2.53-3.8 2.58-3.57 2.65-3.35 2.73-3.15 2.8-2.98 1-1 14.82-14.12 14.67-12.84 14.83-11.92 15.3-11.28 16.2-10.9 17.55-10.78 19.62-10.95 22.8-11.5 28.1-12.7 38.05-15.3 64.44-22.72 30.9-9.95z" fill="#5e5e5e"/><path d="M26635.2 16442.45l-2.62.05v-5l2.52-.05zM27066.17 16001.25l-12.16 8.78-2.83-8.82z" fill="#5e5e5e"/><path d="M27073.87 15998.77l-21.2 15.3-4.93-15.37zm-18.53 7.22l3.13-2.27h-3.86z" fill="#5e5e5e"/><g><use xlink:href="#K" transform="matrix(1,0,0,1,26553.470923632794,16177.698192353499) translate(0.0049999999999954525 26.66666666666667)"/><use xlink:href="#L" transform="matrix(1,0,0,1,26553.470923632794,16177.698192353499) translate(257.04203703703706 26.66666666666667)"/></g><defs><path d="M233-177c-1 41-23 64-60 70L243 0h-38l-65-103H63V0H30v-248c88 3 205-21 203 71zM63-129c60-2 137 13 137-47 0-61-80-42-137-45v92" id="M"/><path d="M100-194c63 0 86 42 84 106H49c0 40 14 67 53 68 26 1 43-12 49-29l28 8c-11 28-37 45-77 45C44 4 14-33 15-96c1-61 26-98 85-98zm52 81c6-60-76-77-97-28-3 7-6 17-6 28h103" id="N"/><path d="M96-169c-40 0-48 33-48 73s9 75 48 75c24 0 41-14 43-38l32 2c-6 37-31 61-74 61-59 0-76-41-82-99-10-93 101-131 147-64 4 7 5 14 7 22l-32 3c-4-21-16-35-41-35" id="O"/><path d="M100-194c62-1 85 37 85 99 1 63-27 99-86 99S16-35 15-95c0-66 28-99 85-99zM99-20c44 1 53-31 53-75 0-43-8-75-51-75s-53 32-53 75 10 74 51 75" id="P"/><path d="M210-169c-67 3-38 105-44 169h-31v-121c0-29-5-50-35-48C34-165 62-65 56 0H25l-1-190h30c1 10-1 24 2 32 10-44 99-50 107 0 11-21 27-35 58-36 85-2 47 119 55 194h-31v-121c0-29-5-49-35-48" id="Q"/><path d="M117-194c89-4 53 116 60 194h-32v-121c0-31-8-49-39-48C34-167 62-67 57 0H25l-1-190h30c1 10-1 24 2 32 11-22 29-35 61-36" id="R"/><path d="M85-194c31 0 48 13 60 33l-1-100h32l1 261h-30c-2-10 0-23-3-31C134-8 116 4 85 4 32 4 16-35 15-94c0-66 23-100 70-100zm9 24c-40 0-46 34-46 75 0 40 6 74 45 74 42 0 51-32 51-76 0-42-9-74-50-73" id="S"/><path d="M141-36C126-15 110 5 73 4 37 3 15-17 15-53c-1-64 63-63 125-63 3-35-9-54-41-54-24 1-41 7-42 31l-33-3c5-37 33-52 76-52 45 0 72 20 72 64v82c-1 20 7 32 28 27v20c-31 9-61-2-59-35zM48-53c0 20 12 33 32 33 41-3 63-29 60-74-43 2-92-5-92 41" id="T"/><path d="M59-47c-2 24 18 29 38 22v24C64 9 27 4 27-40v-127H5v-23h24l9-43h21v43h35v23H59v120" id="U"/><path d="M24-231v-30h32v30H24zM24 0v-190h32V0H24" id="V"/><g id="a"><use transform="matrix(0.30864197530864196,0,0,0.30864197530864196,0,0)" xlink:href="#M"/><use transform="matrix(0.30864197530864196,0,0,0.30864197530864196,79.93827160493827,0)" xlink:href="#N"/><use transform="matrix(0.30864197530864196,0,0,0.30864197530864196,141.66666666666666,0)" xlink:href="#O"/><use transform="matrix(0.30864197530864196,0,0,0.30864197530864196,197.2222222222222,0)" xlink:href="#P"/><use transform="matrix(0.30864197530864196,0,0,0.30864197530864196,258.9506172839506,0)" xlink:href="#Q"/><use transform="matrix(0.30864197530864196,0,0,0.30864197530864196,351.2345679012345,0)" xlink:href="#Q"/><use transform="matrix(0.30864197530864196,0,0,0.30864197530864196,443.5185185185185,0)" xlink:href="#N"/><use transform="matrix(0.30864197530864196,0,0,0.30864197530864196,505.2469135802469,0)" xlink:href="#R"/><use transform="matrix(0.30864197530864196,0,0,0.30864197530864196,566.9753086419753,0)" xlink:href="#S"/><use transform="matrix(0.30864197530864196,0,0,0.30864197530864196,628.7037037037037,0)" xlink:href="#T"/><use transform="matrix(0.30864197530864196,0,0,0.30864197530864196,690.4320987654321,0)" xlink:href="#U"/><use transform="matrix(0.30864197530864196,0,0,0.30864197530864196,721.2962962962963,0)" xlink:href="#V"/><use transform="matrix(0.30864197530864196,0,0,0.30864197530864196,745.679012345679,0)" xlink:href="#P"/><use transform="matrix(0.30864197530864196,0,0,0.30864197530864196,807.4074074074074,0)" xlink:href="#R"/></g><g id="b"><use transform="matrix(0.24691358024691357,0,0,0.24691358024691357,0,0)" xlink:href="#M"/><use transform="matrix(0.24691358024691357,0,0,0.24691358024691357,63.95061728395061,0)" xlink:href="#N"/><use transform="matrix(0.24691358024691357,0,0,0.24691358024691357,113.33333333333333,0)" xlink:href="#O"/><use transform="matrix(0.24691358024691357,0,0,0.24691358024691357,157.77777777777777,0)" xlink:href="#P"/><use transform="matrix(0.24691358024691357,0,0,0.24691358024691357,207.16049382716048,0)" xlink:href="#Q"/><use transform="matrix(0.24691358024691357,0,0,0.24691358024691357,280.98765432098764,0)" xlink:href="#Q"/><use transform="matrix(0.24691358024691357,0,0,0.24691358024691357,354.8148148148148,0)" xlink:href="#N"/><use transform="matrix(0.24691358024691357,0,0,0.24691358024691357,404.1975308641975,0)" xlink:href="#R"/><use transform="matrix(0.24691358024691357,0,0,0.24691358024691357,453.58024691358025,0)" xlink:href="#S"/><use transform="matrix(0.24691358024691357,0,0,0.24691358024691357,502.962962962963,0)" xlink:href="#T"/><use transform="matrix(0.24691358024691357,0,0,0.24691358024691357,552.3456790123457,0)" xlink:href="#U"/><use transform="matrix(0.24691358024691357,0,0,0.24691358024691357,577.0370370370371,0)" xlink:href="#V"/><use transform="matrix(0.24691358024691357,0,0,0.24691358024691357,596.5432098765432,0)" xlink:href="#P"/><use transform="matrix(0.24691358024691357,0,0,0.24691358024691357,645.9259259259259,0)" xlink:href="#R"/></g><path d="M30 0v-248h187v28H63v79h144v27H63v87h162V0H30" id="W"/><path d="M177-190C167-65 218 103 67 71c-23-6-38-20-44-43l32-5c15 47 100 32 89-28v-30C133-14 115 1 83 1 29 1 15-40 15-95c0-56 16-97 71-98 29-1 48 16 59 35 1-10 0-23 2-32h30zM94-22c36 0 50-32 50-73 0-42-14-75-50-75-39 0-46 34-46 75s6 73 46 73" id="X"/><g id="c"><use transform="matrix(0.24691358024691357,0,0,0.24691358024691357,0,0)" xlink:href="#W"/><use transform="matrix(0.24691358024691357,0,0,0.24691358024691357,59.25925925925925,0)" xlink:href="#R"/><use transform="matrix(0.24691358024691357,0,0,0.24691358024691357,108.64197530864197,0)" xlink:href="#X"/><use transform="matrix(0.24691358024691357,0,0,0.24691358024691357,158.02469135802468,0)" xlink:href="#V"/><use transform="matrix(0.24691358024691357,0,0,0.24691358024691357,177.53086419753086,0)" xlink:href="#R"/><use transform="matrix(0.24691358024691357,0,0,0.24691358024691357,226.91358024691357,0)" xlink:href="#N"/></g><path d="M140-251c81 0 123 46 123 126C263-46 219 4 140 4 59 4 17-45 17-125s42-126 123-126zm0 227c63 0 89-41 89-101s-29-99-89-99c-61 0-89 39-89 99S79-25 140-24" id="Y"/><path d="M101-234c-31-9-42 10-38 44h38v23H63V0H32v-167H5v-23h27c-7-52 17-82 69-68v24" id="Z"/><path d="M24 0v-261h32V0H24" id="aa"/><g id="d"><use transform="matrix(0.24691358024691357,0,0,0.24691358024691357,0,0)" xlink:href="#Y"/><use transform="matrix(0.24691358024691357,0,0,0.24691358024691357,69.1358024691358,0)" xlink:href="#Z"/><use transform="matrix(0.24691358024691357,0,0,0.24691358024691357,92.09876543209876,0)" xlink:href="#Z"/><use transform="matrix(0.24691358024691357,0,0,0.24691358024691357,116.79012345679011,0)" xlink:href="#aa"/><use transform="matrix(0.24691358024691357,0,0,0.24691358024691357,136.29629629629628,0)" xlink:href="#V"/><use transform="matrix(0.24691358024691357,0,0,0.24691358024691357,155.80246913580245,0)" xlink:href="#R"/><use transform="matrix(0.24691358024691357,0,0,0.24691358024691357,205.18518518518516,0)" xlink:href="#N"/></g><path d="M240 0l2-218c-23 76-54 145-80 218h-23L58-218 59 0H30v-248h44l77 211c21-75 51-140 76-211h43V0h-30" id="ab"/><path d="M30 0v-248h33v221h125V0H30" id="ac"/><g id="e"><use transform="matrix(0.24691358024691357,0,0,0.24691358024691357,0,0)" xlink:href="#ab"/><use transform="matrix(0.24691358024691357,0,0,0.24691358024691357,73.82716049382715,0)" xlink:href="#ac"/></g><g id="f"><use transform="matrix(0.24691358024691357,0,0,0.24691358024691357,0,0)" xlink:href="#ab"/><use transform="matrix(0.24691358024691357,0,0,0.24691358024691357,73.82716049382715,0)" xlink:href="#P"/><use transform="matrix(0.24691358024691357,0,0,0.24691358024691357,123.20987654320987,0)" xlink:href="#S"/><use transform="matrix(0.24691358024691357,0,0,0.24691358024691357,172.59259259259258,0)" xlink:href="#N"/><use transform="matrix(0.24691358024691357,0,0,0.24691358024691357,221.9753086419753,0)" xlink:href="#aa"/></g><path d="M127-220V0H93v-220H8v-28h204v28h-85" id="ad"/><path d="M114-163C36-179 61-72 57 0H25l-1-190h30c1 12-1 29 2 39 6-27 23-49 58-41v29" id="ae"/><g id="g"><use transform="matrix(0.24691358024691357,0,0,0.24691358024691357,0,0)" xlink:href="#ad"/><use transform="matrix(0.24691358024691357,0,0,0.24691358024691357,50.86419753086419,0)" xlink:href="#ae"/><use transform="matrix(0.24691358024691357,0,0,0.24691358024691357,80.24691358024691,0)" xlink:href="#T"/><use transform="matrix(0.24691358024691357,0,0,0.24691358024691357,129.62962962962962,0)" xlink:href="#V"/><use transform="matrix(0.24691358024691357,0,0,0.24691358024691357,149.1358024691358,0)" xlink:href="#R"/><use transform="matrix(0.24691358024691357,0,0,0.24691358024691357,198.5185185185185,0)" xlink:href="#N"/><use transform="matrix(0.24691358024691357,0,0,0.24691358024691357,247.9012345679012,0)" xlink:href="#ae"/></g><path d="M212-179c-10-28-35-45-73-45-59 0-87 40-87 99 0 60 29 101 89 101 43 0 62-24 78-52l27 14C228-24 195 4 139 4 59 4 22-46 18-125c-6-104 99-153 187-111 19 9 31 26 39 46" id="af"/><path d="M84 4C-5 8 30-112 23-190h32v120c0 31 7 50 39 49 72-2 45-101 50-169h31l1 190h-30c-1-10 1-25-2-33-11 22-28 36-60 37" id="ag"/><path d="M135-143c-3-34-86-38-87 0 15 53 115 12 119 90S17 21 10-45l28-5c4 36 97 45 98 0-10-56-113-15-118-90-4-57 82-63 122-42 12 7 21 19 24 35" id="ah"/><g id="h"><use transform="matrix(0.24691358024691357,0,0,0.24691358024691357,0,0)" xlink:href="#af"/><use transform="matrix(0.24691358024691357,0,0,0.24691358024691357,63.95061728395061,0)" xlink:href="#ag"/><use transform="matrix(0.24691358024691357,0,0,0.24691358024691357,113.33333333333333,0)" xlink:href="#ah"/><use transform="matrix(0.24691358024691357,0,0,0.24691358024691357,157.77777777777777,0)" xlink:href="#U"/><use transform="matrix(0.24691358024691357,0,0,0.24691358024691357,182.46913580246914,0)" xlink:href="#P"/><use transform="matrix(0.24691358024691357,0,0,0.24691358024691357,231.85185185185185,0)" xlink:href="#Q"/><use transform="matrix(0.24691358024691357,0,0,0.24691358024691357,305.679012345679,0)" xlink:href="#N"/><use transform="matrix(0.24691358024691357,0,0,0.24691358024691357,355.0617283950617,0)" xlink:href="#ae"/></g><path d="M30-248c118-7 216 8 213 122C240-48 200 0 122 0H30v-248zM63-27c89 8 146-16 146-99s-60-101-146-95v194" id="ai"/><g id="i"><use transform="matrix(0.24691358024691357,0,0,0.24691358024691357,0,0)" xlink:href="#ai"/><use transform="matrix(0.24691358024691357,0,0,0.24691358024691357,63.95061728395061,0)" xlink:href="#P"/><use transform="matrix(0.24691358024691357,0,0,0.24691358024691357,113.33333333333333,0)" xlink:href="#Q"/><use transform="matrix(0.24691358024691357,0,0,0.24691358024691357,187.16049382716048,0)" xlink:href="#T"/><use transform="matrix(0.24691358024691357,0,0,0.24691358024691357,236.5432098765432,0)" xlink:href="#V"/><use transform="matrix(0.24691358024691357,0,0,0.24691358024691357,256.04938271604937,0)" xlink:href="#R"/></g><g id="j"><use transform="matrix(0.24691358024691357,0,0,0.24691358024691357,0,0)" xlink:href="#Y"/><use transform="matrix(0.24691358024691357,0,0,0.24691358024691357,69.1358024691358,0)" xlink:href="#ae"/><use transform="matrix(0.24691358024691357,0,0,0.24691358024691357,98.5185185185185,0)" xlink:href="#S"/><use transform="matrix(0.24691358024691357,0,0,0.24691358024691357,147.9012345679012,0)" xlink:href="#N"/><use transform="matrix(0.24691358024691357,0,0,0.24691358024691357,197.28395061728392,0)" xlink:href="#ae"/></g><path d="M33 0v-248h34V0H33" id="aj"/><path d="M108 0H70L1-190h34L89-25l56-165h34" id="ak"/><path d="M179-190L93 31C79 59 56 82 12 73V49c39 6 53-20 64-50L1-190h34L92-34l54-156h33" id="al"/><g id="k"><use transform="matrix(0.24691358024691357,0,0,0.24691358024691357,0,0)" xlink:href="#aj"/><use transform="matrix(0.24691358024691357,0,0,0.24691358024691357,24.691358024691358,0)" xlink:href="#R"/><use transform="matrix(0.24691358024691357,0,0,0.24691358024691357,74.07407407407408,0)" xlink:href="#ak"/><use transform="matrix(0.24691358024691357,0,0,0.24691358024691357,118.51851851851852,0)" xlink:href="#N"/><use transform="matrix(0.24691358024691357,0,0,0.24691358024691357,167.90123456790124,0)" xlink:href="#R"/><use transform="matrix(0.24691358024691357,0,0,0.24691358024691357,217.28395061728395,0)" xlink:href="#U"/><use transform="matrix(0.24691358024691357,0,0,0.24691358024691357,241.97530864197532,0)" xlink:href="#P"/><use transform="matrix(0.24691358024691357,0,0,0.24691358024691357,291.358024691358,0)" xlink:href="#ae"/><use transform="matrix(0.24691358024691357,0,0,0.24691358024691357,320.74074074074076,0)" xlink:href="#al"/></g><path fill="#333" d="M24-248c93 1 206-16 204 79-1 75-69 88-152 82V0H24v-248zm52 121c47 0 100 7 100-41 0-47-54-39-100-39v80" id="am"/><path fill="#333" d="M185-48c-13 30-37 53-82 52C43 2 14-33 14-96s30-98 90-98c62 0 83 45 84 108H66c0 31 8 55 39 56 18 0 30-7 34-22zm-45-69c5-46-57-63-70-21-2 6-4 13-4 21h74" id="an"/><path fill="#333" d="M135-150c-39-12-60 13-60 57V0H25l-1-190h47c2 13-1 29 3 40 6-28 27-53 61-41v41" id="ao"/><path fill="#333" d="M137-138c1-29-70-34-71-4 15 46 118 7 119 86 1 83-164 76-172 9l43-7c4 19 20 25 44 25 33 8 57-30 24-41C81-84 22-81 20-136c-2-80 154-74 161-7" id="ap"/><path fill="#333" d="M110-194c64 0 96 36 96 99 0 64-35 99-97 99-61 0-95-36-95-99 0-62 34-99 96-99zm-1 164c35 0 45-28 45-65 0-40-10-65-43-65-34 0-45 26-45 65 0 36 10 65 43 65" id="aq"/><path fill="#333" d="M135-194c87-1 58 113 63 194h-50c-7-57 23-157-34-157-59 0-34 97-39 157H25l-1-190h47c2 12-1 28 3 38 12-26 28-41 61-42" id="ar"/><path fill="#333" d="M133-34C117-15 103 5 69 4 32 3 11-16 11-54c-1-60 55-63 116-61 1-26-3-47-28-47-18 1-26 9-28 27l-52-2c7-38 36-58 82-57s74 22 75 68l1 82c-1 14 12 18 25 15v27c-30 8-71 5-69-32zm-48 3c29 0 43-24 42-57-32 0-66-3-65 30 0 17 8 27 23 27" id="as"/><path fill="#333" d="M25 0v-261h50V0H25" id="at"/><path fill="#333" d="M4 7l51-268h42L46 7H4" id="au"/><path fill="#333" d="M186 0v-106H76V0H24v-248h52v99h110v-99h50V0h-50" id="av"/><path fill="#333" d="M115-3C79 11 28 4 28-45v-112H4v-33h27l15-45h31v45h36v33H77v99c-1 23 16 31 38 25v30" id="aw"/><path fill="#333" d="M114-157C55-157 80-60 75 0H25v-261h50l-1 109c12-26 28-41 61-42 86-1 58 113 63 194h-50c-7-57 23-157-34-157" id="ax"/><g id="l"><use transform="matrix(0.0925925925925926,0,0,0.0925925925925926,0,0)" xlink:href="#am"/><use transform="matrix(0.0925925925925926,0,0,0.0925925925925926,22.222222222222225,0)" xlink:href="#an"/><use transform="matrix(0.0925925925925926,0,0,0.0925925925925926,40.74074074074075,0)" xlink:href="#ao"/><use transform="matrix(0.0925925925925926,0,0,0.0925925925925926,53.70370370370371,0)" xlink:href="#ap"/><use transform="matrix(0.0925925925925926,0,0,0.0925925925925926,72.22222222222223,0)" xlink:href="#aq"/><use transform="matrix(0.0925925925925926,0,0,0.0925925925925926,92.5,0)" xlink:href="#ar"/><use transform="matrix(0.0925925925925926,0,0,0.0925925925925926,112.77777777777777,0)" xlink:href="#as"/><use transform="matrix(0.0925925925925926,0,0,0.0925925925925926,131.2962962962963,0)" xlink:href="#at"/><use transform="matrix(0.0925925925925926,0,0,0.0925925925925926,140.55555555555557,0)" xlink:href="#au"/><use transform="matrix(0.0925925925925926,0,0,0.0925925925925926,149.81481481481484,0)" xlink:href="#av"/><use transform="matrix(0.0925925925925926,0,0,0.0925925925925926,173.79629629629633,0)" xlink:href="#an"/><use transform="matrix(0.0925925925925926,0,0,0.0925925925925926,192.31481481481484,0)" xlink:href="#as"/><use transform="matrix(0.0925925925925926,0,0,0.0925925925925926,210.83333333333334,0)" xlink:href="#at"/><use transform="matrix(0.0925925925925926,0,0,0.0925925925925926,220.09259259259267,0)" xlink:href="#aw"/><use transform="matrix(0.0925925925925926,0,0,0.0925925925925926,231.11111111111114,0)" xlink:href="#ax"/></g><path fill="#333" d="M88-194c31-1 46 15 58 34l-1-101h50l1 261h-48c-2-10 0-23-3-31C134-8 116 4 84 4 32 4 16-41 15-95c0-56 19-97 73-99zm17 164c33 0 40-30 41-66 1-37-9-64-41-64s-38 30-39 65c0 43 13 65 39 65" id="ay"/><g id="m"><use transform="matrix(0.0925925925925926,0,0,0.0925925925925926,0,0)" xlink:href="#ay"/><use transform="matrix(0.0925925925925926,0,0,0.0925925925925926,20.27777777777778,0)" xlink:href="#as"/><use transform="matrix(0.0925925925925926,0,0,0.0925925925925926,38.7962962962963,0)" xlink:href="#aw"/><use transform="matrix(0.0925925925925926,0,0,0.0925925925925926,49.81481481481482,0)" xlink:href="#as"/></g><path fill="#333" d="M121-226c-27-7-43 5-38 36h38v33H83V0H34v-157H6v-33h28c-9-59 32-81 87-68v32" id="az"/><g id="n"><use transform="matrix(0.0925925925925926,0,0,0.0925925925925926,0,0)" xlink:href="#az"/><use transform="matrix(0.0925925925925926,0,0,0.0925925925925926,11.018518518518519,0)" xlink:href="#aq"/><use transform="matrix(0.0925925925925926,0,0,0.0925925925925926,31.296296296296298,0)" xlink:href="#ao"/></g><path fill="#333" d="M25-224v-37h50v37H25zM25 0v-190h50V0H25" id="aA"/><path fill="#333" d="M195-6C206 82 75 100 31 46c-4-6-6-13-8-21l49-6c3 16 16 24 34 25 40 0 42-37 40-79-11 22-30 35-61 35-53 0-70-43-70-97 0-56 18-96 73-97 30 0 46 14 59 34l2-30h47zm-90-29c32 0 41-27 41-63 0-35-9-62-40-62-32 0-39 29-40 63 0 36 9 62 39 62" id="aB"/><g id="o"><use transform="matrix(0.0925925925925926,0,0,0.0925925925925926,0,0)" xlink:href="#aw"/><use transform="matrix(0.0925925925925926,0,0,0.0925925925925926,11.018518518518519,0)" xlink:href="#ao"/><use transform="matrix(0.0925925925925926,0,0,0.0925925925925926,23.981481481481477,0)" xlink:href="#as"/><use transform="matrix(0.0925925925925926,0,0,0.0925925925925926,42.5,0)" xlink:href="#aA"/><use transform="matrix(0.0925925925925926,0,0,0.0925925925925926,51.75925925925927,0)" xlink:href="#ar"/><use transform="matrix(0.0925925925925926,0,0,0.0925925925925926,72.03703703703704,0)" xlink:href="#aA"/><use transform="matrix(0.0925925925925926,0,0,0.0925925925925926,81.2962962962963,0)" xlink:href="#ar"/><use transform="matrix(0.0925925925925926,0,0,0.0925925925925926,101.57407407407409,0)" xlink:href="#aB"/></g><path fill="#333" d="M140-251c80 0 125 45 125 126S219 4 139 4C58 4 15-44 15-125s44-126 125-126zm-1 214c52 0 73-35 73-88 0-50-21-86-72-86-52 0-73 35-73 86s22 88 72 88" id="aC"/><g id="p"><use transform="matrix(0.0925925925925926,0,0,0.0925925925925926,0,0)" xlink:href="#aC"/><use transform="matrix(0.0925925925925926,0,0,0.0925925925925926,25.925925925925927,0)" xlink:href="#ao"/><use transform="matrix(0.0925925925925926,0,0,0.0925925925925926,38.88888888888889,0)" xlink:href="#ay"/><use transform="matrix(0.0925925925925926,0,0,0.0925925925925926,59.16666666666667,0)" xlink:href="#an"/><use transform="matrix(0.0925925925925926,0,0,0.0925925925925926,77.68518518518519,0)" xlink:href="#ao"/></g><g id="q"><use transform="matrix(0.24691358024691357,0,0,0.24691358024691357,0,0)" xlink:href="#M"/><use transform="matrix(0.24691358024691357,0,0,0.24691358024691357,63.95061728395061,0)" xlink:href="#N"/><use transform="matrix(0.24691358024691357,0,0,0.24691358024691357,113.33333333333333,0)" xlink:href="#O"/><use transform="matrix(0.24691358024691357,0,0,0.24691358024691357,157.77777777777777,0)" xlink:href="#P"/><use transform="matrix(0.24691358024691357,0,0,0.24691358024691357,207.16049382716048,0)" xlink:href="#Q"/><use transform="matrix(0.24691358024691357,0,0,0.24691358024691357,280.98765432098764,0)" xlink:href="#Q"/><use transform="matrix(0.24691358024691357,0,0,0.24691358024691357,354.8148148148148,0)" xlink:href="#N"/><use transform="matrix(0.24691358024691357,0,0,0.24691358024691357,404.1975308641975,0)" xlink:href="#R"/><use transform="matrix(0.24691358024691357,0,0,0.24691358024691357,453.58024691358025,0)" xlink:href="#S"/><use transform="matrix(0.24691358024691357,0,0,0.24691358024691357,502.962962962963,0)" xlink:href="#T"/><use transform="matrix(0.24691358024691357,0,0,0.24691358024691357,552.3456790123457,0)" xlink:href="#U"/><use transform="matrix(0.24691358024691357,0,0,0.24691358024691357,577.0370370370371,0)" xlink:href="#V"/><use transform="matrix(0.24691358024691357,0,0,0.24691358024691357,596.5432098765432,0)" xlink:href="#P"/><use transform="matrix(0.24691358024691357,0,0,0.24691358024691357,645.9259259259259,0)" xlink:href="#R"/></g><path d="M185-189c-5-48-123-54-124 2 14 75 158 14 163 119 3 78-121 87-175 55-17-10-28-26-33-46l33-7c5 56 141 63 141-1 0-78-155-14-162-118-5-82 145-84 179-34 5 7 8 16 11 25" id="aD"/><g id="r"><use transform="matrix(0.24691358024691357,0,0,0.24691358024691357,0,0)" xlink:href="#aD"/><use transform="matrix(0.24691358024691357,0,0,0.24691358024691357,59.25925925925925,0)" xlink:href="#N"/><use transform="matrix(0.24691358024691357,0,0,0.24691358024691357,108.64197530864197,0)" xlink:href="#ae"/><use transform="matrix(0.24691358024691357,0,0,0.24691358024691357,138.02469135802468,0)" xlink:href="#ak"/><use transform="matrix(0.24691358024691357,0,0,0.24691358024691357,182.4691358024691,0)" xlink:href="#V"/><use transform="matrix(0.24691358024691357,0,0,0.24691358024691357,201.9753086419753,0)" xlink:href="#O"/><use transform="matrix(0.24691358024691357,0,0,0.24691358024691357,246.41975308641975,0)" xlink:href="#N"/></g><path fill="#333" d="M67-125c0 54 23 88 75 88 28 0 53-7 68-21v-34h-60v-39h108v91C232-14 192 4 140 4 58 4 20-42 15-125 8-236 126-280 215-234c19 10 29 26 37 47l-47 15c-11-23-29-39-63-39-53 1-75 33-75 86" id="aE"/><g id="s"><use transform="matrix(0.0925925925925926,0,0,0.0925925925925926,0,0)" xlink:href="#aE"/><use transform="matrix(0.0925925925925926,0,0,0.0925925925925926,25.925925925925927,0)" xlink:href="#an"/><use transform="matrix(0.0925925925925926,0,0,0.0925925925925926,44.44444444444444,0)" xlink:href="#aw"/></g><path fill="#333" d="M240-174c0 40-23 61-54 70L253 0h-59l-57-94H76V0H24v-248c93 4 217-23 216 74zM76-134c48-2 112 12 112-38 0-48-66-32-112-35v73" id="aF"/><path fill="#333" d="M190-63c-7 42-38 67-86 67-59 0-84-38-90-98-12-110 154-137 174-36l-49 2c-2-19-15-32-35-32-30 0-35 28-38 64-6 74 65 87 74 30" id="aG"/><path fill="#333" d="M220-157c-53 9-28 100-34 157h-49v-107c1-27-5-49-29-50C55-147 81-57 75 0H25l-1-190h47c2 12-1 28 3 38 10-53 101-56 108 0 13-22 24-43 59-42 82 1 51 116 57 194h-49v-107c-1-25-5-48-29-50" id="aH"/><g id="t"><use transform="matrix(0.0925925925925926,0,0,0.0925925925925926,0,0)" xlink:href="#aF"/><use transform="matrix(0.0925925925925926,0,0,0.0925925925925926,23.981481481481485,0)" xlink:href="#an"/><use transform="matrix(0.0925925925925926,0,0,0.0925925925925926,42.5,0)" xlink:href="#aG"/><use transform="matrix(0.0925925925925926,0,0,0.0925925925925926,61.018518518518526,0)" xlink:href="#aq"/><use transform="matrix(0.0925925925925926,0,0,0.0925925925925926,81.2962962962963,0)" xlink:href="#aH"/><use transform="matrix(0.0925925925925926,0,0,0.0925925925925926,110.92592592592594,0)" xlink:href="#aH"/><use transform="matrix(0.0925925925925926,0,0,0.0925925925925926,140.55555555555557,0)" xlink:href="#an"/><use transform="matrix(0.0925925925925926,0,0,0.0925925925925926,159.07407407407408,0)" xlink:href="#ar"/><use transform="matrix(0.0925925925925926,0,0,0.0925925925925926,179.35185185185185,0)" xlink:href="#ay"/><use transform="matrix(0.0925925925925926,0,0,0.0925925925925926,199.62962962962962,0)" xlink:href="#as"/><use transform="matrix(0.0925925925925926,0,0,0.0925925925925926,218.14814814814818,0)" xlink:href="#aw"/><use transform="matrix(0.0925925925925926,0,0,0.0925925925925926,229.16666666666669,0)" xlink:href="#aA"/><use transform="matrix(0.0925925925925926,0,0,0.0925925925925926,238.42592592592595,0)" xlink:href="#aq"/><use transform="matrix(0.0925925925925926,0,0,0.0925925925925926,258.70370370370375,0)" xlink:href="#ar"/></g><g id="u"><use transform="matrix(0.24691358024691357,0,0,0.24691358024691357,0,0)" xlink:href="#M"/><use transform="matrix(0.24691358024691357,0,0,0.24691358024691357,63.95061728395061,0)" xlink:href="#N"/><use transform="matrix(0.24691358024691357,0,0,0.24691358024691357,113.33333333333333,0)" xlink:href="#O"/><use transform="matrix(0.24691358024691357,0,0,0.24691358024691357,157.77777777777777,0)" xlink:href="#P"/><use transform="matrix(0.24691358024691357,0,0,0.24691358024691357,207.16049382716048,0)" xlink:href="#Q"/><use transform="matrix(0.24691358024691357,0,0,0.24691358024691357,280.98765432098764,0)" xlink:href="#Q"/><use transform="matrix(0.24691358024691357,0,0,0.24691358024691357,354.8148148148148,0)" xlink:href="#N"/><use transform="matrix(0.24691358024691357,0,0,0.24691358024691357,404.1975308641975,0)" xlink:href="#R"/><use transform="matrix(0.24691358024691357,0,0,0.24691358024691357,453.58024691358025,0)" xlink:href="#S"/><use transform="matrix(0.24691358024691357,0,0,0.24691358024691357,502.962962962963,0)" xlink:href="#T"/><use transform="matrix(0.24691358024691357,0,0,0.24691358024691357,552.3456790123457,0)" xlink:href="#U"/><use transform="matrix(0.24691358024691357,0,0,0.24691358024691357,577.0370370370371,0)" xlink:href="#V"/><use transform="matrix(0.24691358024691357,0,0,0.24691358024691357,596.5432098765432,0)" xlink:href="#P"/><use transform="matrix(0.24691358024691357,0,0,0.24691358024691357,645.9259259259259,0)" xlink:href="#R"/></g><path d="M115-194c53 0 69 39 70 98 0 66-23 100-70 100C84 3 66-7 56-30L54 0H23l1-261h32v101c10-23 28-34 59-34zm-8 174c40 0 45-34 45-75 0-40-5-75-45-74-42 0-51 32-51 76 0 43 10 73 51 73" id="aI"/><g id="v"><use transform="matrix(0.24691358024691357,0,0,0.24691358024691357,0,0)" xlink:href="#ai"/><use transform="matrix(0.24691358024691357,0,0,0.24691358024691357,63.95061728395061,0)" xlink:href="#T"/><use transform="matrix(0.24691358024691357,0,0,0.24691358024691357,113.33333333333333,0)" xlink:href="#U"/><use transform="matrix(0.24691358024691357,0,0,0.24691358024691357,138.02469135802468,0)" xlink:href="#T"/><use transform="matrix(0.24691358024691357,0,0,0.24691358024691357,187.4074074074074,0)" xlink:href="#aI"/><use transform="matrix(0.24691358024691357,0,0,0.24691358024691357,236.7901234567901,0)" xlink:href="#T"/><use transform="matrix(0.24691358024691357,0,0,0.24691358024691357,286.1728395061728,0)" xlink:href="#ah"/><use transform="matrix(0.24691358024691357,0,0,0.24691358024691357,330.61728395061726,0)" xlink:href="#N"/></g><path fill="#333" d="M136-208V0H84v-208H4v-40h212v40h-80" id="aJ"/><g id="w"><use transform="matrix(0.0925925925925926,0,0,0.0925925925925926,0,0)" xlink:href="#aJ"/><use transform="matrix(0.0925925925925926,0,0,0.0925925925925926,18.425925925925927,0)" xlink:href="#ao"/><use transform="matrix(0.0925925925925926,0,0,0.0925925925925926,31.388888888888893,0)" xlink:href="#as"/><use transform="matrix(0.0925925925925926,0,0,0.0925925925925926,49.90740740740741,0)" xlink:href="#aA"/><use transform="matrix(0.0925925925925926,0,0,0.0925925925925926,59.16666666666667,0)" xlink:href="#ar"/><use transform="matrix(0.0925925925925926,0,0,0.0925925925925926,79.44444444444446,0)" xlink:href="#an"/><use transform="matrix(0.0925925925925926,0,0,0.0925925925925926,97.96296296296298,0)" xlink:href="#ay"/></g><path fill="#333" d="M230 0l2-204L168 0h-37L68-204 70 0H24v-248h70l56 185 57-185h69V0h-46" id="aK"/><path fill="#333" d="M24 0v-248h52v208h133V0H24" id="aL"/><g id="x"><use transform="matrix(0.0925925925925926,0,0,0.0925925925925926,0,0)" xlink:href="#aK"/><use transform="matrix(0.0925925925925926,0,0,0.0925925925925926,27.685185185185187,0)" xlink:href="#aL"/></g><g id="y"><use transform="matrix(0.0925925925925926,0,0,0.0925925925925926,0,0)" xlink:href="#aK"/><use transform="matrix(0.0925925925925926,0,0,0.0925925925925926,27.685185185185187,0)" xlink:href="#aq"/><use transform="matrix(0.0925925925925926,0,0,0.0925925925925926,47.962962962962955,0)" xlink:href="#ay"/><use transform="matrix(0.0925925925925926,0,0,0.0925925925925926,68.24074074074073,0)" xlink:href="#an"/><use transform="matrix(0.0925925925925926,0,0,0.0925925925925926,86.75925925925925,0)" xlink:href="#at"/></g><g id="z"><use transform="matrix(0.24691358024691357,0,0,0.24691358024691357,0,0)" xlink:href="#aj"/><use transform="matrix(0.24691358024691357,0,0,0.24691358024691357,24.691358024691358,0)" xlink:href="#R"/><use transform="matrix(0.24691358024691357,0,0,0.24691358024691357,74.07407407407408,0)" xlink:href="#Z"/><use transform="matrix(0.24691358024691357,0,0,0.24691358024691357,98.76543209876543,0)" xlink:href="#N"/><use transform="matrix(0.24691358024691357,0,0,0.24691358024691357,148.14814814814815,0)" xlink:href="#ae"/><use transform="matrix(0.24691358024691357,0,0,0.24691358024691357,177.53086419753086,0)" xlink:href="#N"/><use transform="matrix(0.24691358024691357,0,0,0.24691358024691357,226.91358024691357,0)" xlink:href="#R"/><use transform="matrix(0.24691358024691357,0,0,0.24691358024691357,276.2962962962963,0)" xlink:href="#O"/><use transform="matrix(0.24691358024691357,0,0,0.24691358024691357,320.74074074074076,0)" xlink:href="#N"/></g><path fill="#333" d="M199 0l-22-63H83L61 0H9l90-248h61L250 0h-51zm-33-102l-36-108c-10 38-24 72-36 108h72" id="aM"/><path fill="#333" d="M128 0H69L1-190h53L99-40l48-150h52" id="aN"/><path fill="#333" d="M135-194c52 0 70 43 70 98 0 56-19 99-73 100-30 1-46-15-58-35L72 0H24l1-261h50v104c11-23 29-37 60-37zM114-30c31 0 40-27 40-66 0-37-7-63-39-63s-41 28-41 65c0 36 8 64 40 64" id="aO"/><g id="A"><use transform="matrix(0.0925925925925926,0,0,0.0925925925925926,0,0)" xlink:href="#aM"/><use transform="matrix(0.0925925925925926,0,0,0.0925925925925926,22.777777777777782,0)" xlink:href="#aN"/><use transform="matrix(0.0925925925925926,0,0,0.0925925925925926,41.296296296296305,0)" xlink:href="#as"/><use transform="matrix(0.0925925925925926,0,0,0.0925925925925926,59.814814814814824,0)" xlink:href="#aA"/><use transform="matrix(0.0925925925925926,0,0,0.0925925925925926,69.07407407407408,0)" xlink:href="#at"/><use transform="matrix(0.0925925925925926,0,0,0.0925925925925926,78.33333333333334,0)" xlink:href="#as"/><use transform="matrix(0.0925925925925926,0,0,0.0925925925925926,96.85185185185186,0)" xlink:href="#aO"/><use transform="matrix(0.0925925925925926,0,0,0.0925925925925926,117.12962962962965,0)" xlink:href="#at"/><use transform="matrix(0.0925925925925926,0,0,0.0925925925925926,126.38888888888893,0)" xlink:href="#an"/></g><path fill="#333" d="M24 0v-248h52V0H24" id="aP"/><path fill="#333" d="M123 10C108 53 80 86 19 72V37c35 8 53-11 59-39L3-190h52l48 148c12-52 28-100 44-148h51" id="aQ"/><g id="B"><use transform="matrix(0.0925925925925926,0,0,0.0925925925925926,0,0)" xlink:href="#aP"/><use transform="matrix(0.0925925925925926,0,0,0.0925925925925926,9.25925925925926,0)" xlink:href="#ar"/><use transform="matrix(0.0925925925925926,0,0,0.0925925925925926,29.537037037037038,0)" xlink:href="#aN"/><use transform="matrix(0.0925925925925926,0,0,0.0925925925925926,48.05555555555556,0)" xlink:href="#an"/><use transform="matrix(0.0925925925925926,0,0,0.0925925925925926,66.57407407407408,0)" xlink:href="#ar"/><use transform="matrix(0.0925925925925926,0,0,0.0925925925925926,86.85185185185185,0)" xlink:href="#aw"/><use transform="matrix(0.0925925925925926,0,0,0.0925925925925926,97.87037037037035,0)" xlink:href="#aq"/><use transform="matrix(0.0925925925925926,0,0,0.0925925925925926,118.14814814814815,0)" xlink:href="#ao"/><use transform="matrix(0.0925925925925926,0,0,0.0925925925925926,131.11111111111111,0)" xlink:href="#aQ"/></g><path d="M190 0L58-211 59 0H30v-248h39L202-35l-2-213h31V0h-41" id="aR"/><g id="C"><use transform="matrix(0.24691358024691357,0,0,0.24691358024691357,0,0)" xlink:href="#aR"/><use transform="matrix(0.24691358024691357,0,0,0.24691358024691357,63.95061728395061,0)" xlink:href="#P"/><use transform="matrix(0.24691358024691357,0,0,0.24691358024691357,113.33333333333333,0)" xlink:href="#U"/><use transform="matrix(0.24691358024691357,0,0,0.24691358024691357,138.02469135802468,0)" xlink:href="#V"/><use transform="matrix(0.24691358024691357,0,0,0.24691358024691357,157.53086419753086,0)" xlink:href="#Z"/><use transform="matrix(0.24691358024691357,0,0,0.24691358024691357,182.22222222222223,0)" xlink:href="#V"/><use transform="matrix(0.24691358024691357,0,0,0.24691358024691357,201.7283950617284,0)" xlink:href="#O"/><use transform="matrix(0.24691358024691357,0,0,0.24691358024691357,246.17283950617286,0)" xlink:href="#T"/><use transform="matrix(0.24691358024691357,0,0,0.24691358024691357,295.5555555555556,0)" xlink:href="#U"/><use transform="matrix(0.24691358024691357,0,0,0.24691358024691357,320.24691358024694,0)" xlink:href="#V"/><use transform="matrix(0.24691358024691357,0,0,0.24691358024691357,339.7530864197531,0)" xlink:href="#P"/><use transform="matrix(0.24691358024691357,0,0,0.24691358024691357,389.13580246913585,0)" xlink:href="#R"/></g><g id="D"><use transform="matrix(0.0925925925925926,0,0,0.0925925925925926,0,0)" xlink:href="#aF"/><use transform="matrix(0.0925925925925926,0,0,0.0925925925925926,23.981481481481485,0)" xlink:href="#an"/><use transform="matrix(0.0925925925925926,0,0,0.0925925925925926,42.5,0)" xlink:href="#aG"/><use transform="matrix(0.0925925925925926,0,0,0.0925925925925926,61.018518518518526,0)" xlink:href="#aq"/><use transform="matrix(0.0925925925925926,0,0,0.0925925925925926,81.2962962962963,0)" xlink:href="#aH"/><use transform="matrix(0.0925925925925926,0,0,0.0925925925925926,110.92592592592594,0)" xlink:href="#aH"/><use transform="matrix(0.0925925925925926,0,0,0.0925925925925926,140.55555555555557,0)" xlink:href="#an"/><use transform="matrix(0.0925925925925926,0,0,0.0925925925925926,159.07407407407408,0)" xlink:href="#ar"/><use transform="matrix(0.0925925925925926,0,0,0.0925925925925926,179.35185185185185,0)" xlink:href="#ay"/><use transform="matrix(0.0925925925925926,0,0,0.0925925925925926,199.62962962962962,0)" xlink:href="#as"/><use transform="matrix(0.0925925925925926,0,0,0.0925925925925926,218.14814814814818,0)" xlink:href="#aw"/><use transform="matrix(0.0925925925925926,0,0,0.0925925925925926,229.16666666666669,0)" xlink:href="#aA"/><use transform="matrix(0.0925925925925926,0,0,0.0925925925925926,238.42592592592595,0)" xlink:href="#aq"/><use transform="matrix(0.0925925925925926,0,0,0.0925925925925926,258.70370370370375,0)" xlink:href="#ar"/></g><g id="E"><use transform="matrix(0.0925925925925926,0,0,0.0925925925925926,0,0)" xlink:href="#aM"/><use transform="matrix(0.0925925925925926,0,0,0.0925925925925926,22.777777777777782,0)" xlink:href="#aN"/><use transform="matrix(0.0925925925925926,0,0,0.0925925925925926,41.296296296296305,0)" xlink:href="#as"/><use transform="matrix(0.0925925925925926,0,0,0.0925925925925926,59.814814814814824,0)" xlink:href="#aA"/><use transform="matrix(0.0925925925925926,0,0,0.0925925925925926,69.07407407407408,0)" xlink:href="#at"/><use transform="matrix(0.0925925925925926,0,0,0.0925925925925926,78.33333333333334,0)" xlink:href="#as"/><use transform="matrix(0.0925925925925926,0,0,0.0925925925925926,96.85185185185186,0)" xlink:href="#aO"/><use transform="matrix(0.0925925925925926,0,0,0.0925925925925926,117.12962962962965,0)" xlink:href="#at"/><use transform="matrix(0.0925925925925926,0,0,0.0925925925925926,126.38888888888893,0)" xlink:href="#an"/></g><path d="M232-93c-1 65-40 97-104 97C67 4 28-28 28-90v-158h33c8 89-33 224 67 224 102 0 64-133 71-224h33v155" id="aS"/><g id="F"><use transform="matrix(0.24691358024691357,0,0,0.24691358024691357,0,0)" xlink:href="#aS"/><use transform="matrix(0.24691358024691357,0,0,0.24691358024691357,63.95061728395061,0)" xlink:href="#aj"/></g><path d="M115-194c55 1 70 41 70 98S169 2 115 4C84 4 66-9 55-30l1 105H24l-1-265h31l2 30c10-21 28-34 59-34zm-8 174c40 0 45-34 45-75s-6-73-45-74c-42 0-51 32-51 76 0 43 10 73 51 73" id="aT"/><g id="G"><use transform="matrix(0.24691358024691357,0,0,0.24691358024691357,0,0)" xlink:href="#af"/><use transform="matrix(0.24691358024691357,0,0,0.24691358024691357,63.95061728395061,0)" xlink:href="#P"/><use transform="matrix(0.24691358024691357,0,0,0.24691358024691357,113.33333333333333,0)" xlink:href="#Q"/><use transform="matrix(0.24691358024691357,0,0,0.24691358024691357,187.16049382716048,0)" xlink:href="#aT"/><use transform="matrix(0.24691358024691357,0,0,0.24691358024691357,236.5432098765432,0)" xlink:href="#P"/><use transform="matrix(0.24691358024691357,0,0,0.24691358024691357,285.9259259259259,0)" xlink:href="#R"/><use transform="matrix(0.24691358024691357,0,0,0.24691358024691357,335.30864197530866,0)" xlink:href="#N"/><use transform="matrix(0.24691358024691357,0,0,0.24691358024691357,384.6913580246914,0)" xlink:href="#R"/><use transform="matrix(0.24691358024691357,0,0,0.24691358024691357,434.07407407407413,0)" xlink:href="#U"/></g><g id="H"><use transform="matrix(0.24691358024691357,0,0,0.24691358024691357,0,0)" xlink:href="#ab"/><use transform="matrix(0.24691358024691357,0,0,0.24691358024691357,73.82716049382715,0)" xlink:href="#N"/><use transform="matrix(0.24691358024691357,0,0,0.24691358024691357,123.20987654320987,0)" xlink:href="#ae"/><use transform="matrix(0.24691358024691357,0,0,0.24691358024691357,152.59259259259258,0)" xlink:href="#X"/><use transform="matrix(0.24691358024691357,0,0,0.24691358024691357,201.9753086419753,0)" xlink:href="#N"/><use transform="matrix(0.24691358024691357,0,0,0.24691358024691357,251.358024691358,0)" xlink:href="#ae"/></g><g id="I"><use transform="matrix(0.0925925925925926,0,0,0.0925925925925926,0,0)" xlink:href="#aK"/><use transform="matrix(0.0925925925925926,0,0,0.0925925925925926,27.685185185185187,0)" xlink:href="#aL"/></g><g id="J"><use transform="matrix(0.0925925925925926,0,0,0.0925925925925926,0,0)" xlink:href="#aP"/><use transform="matrix(0.0925925925925926,0,0,0.0925925925925926,9.25925925925926,0)" xlink:href="#ar"/><use transform="matrix(0.0925925925925926,0,0,0.0925925925925926,29.537037037037038,0)" xlink:href="#az"/><use transform="matrix(0.0925925925925926,0,0,0.0925925925925926,40.55555555555556,0)" xlink:href="#an"/><use transform="matrix(0.0925925925925926,0,0,0.0925925925925926,59.074074074074076,0)" xlink:href="#ao"/><use transform="matrix(0.0925925925925926,0,0,0.0925925925925926,72.03703703703704,0)" xlink:href="#an"/><use transform="matrix(0.0925925925925926,0,0,0.0925925925925926,90.55555555555556,0)" xlink:href="#ar"/><use transform="matrix(0.0925925925925926,0,0,0.0925925925925926,110.83333333333334,0)" xlink:href="#aG"/><use transform="matrix(0.0925925925925926,0,0,0.0925925925925926,129.35185185185185,0)" xlink:href="#an"/></g><path fill="#333" d="M85 4C-2 5 27-109 22-190h50c7 57-23 150 33 157 60-5 35-97 40-157h50l1 190h-47c-2-12 1-28-3-38-12 25-28 42-61 42" id="aU"/><g id="K"><use transform="matrix(0.0925925925925926,0,0,0.0925925925925926,0,0)" xlink:href="#aK"/><use transform="matrix(0.0925925925925926,0,0,0.0925925925925926,27.685185185185187,0)" xlink:href="#as"/><use transform="matrix(0.0925925925925926,0,0,0.0925925925925926,46.20370370370371,0)" xlink:href="#ar"/><use transform="matrix(0.0925925925925926,0,0,0.0925925925925926,66.4814814814815,0)" xlink:href="#aU"/><use transform="matrix(0.0925925925925926,0,0,0.0925925925925926,86.75925925925927,0)" xlink:href="#as"/><use transform="matrix(0.0925925925925926,0,0,0.0925925925925926,105.27777777777779,0)" xlink:href="#at"/><use transform="matrix(0.0925925925925926,0,0,0.0925925925925926,114.53703703703705,0)" xlink:href="#au"/><use transform="matrix(0.0925925925925926,0,0,0.0925925925925926,123.7962962962963,0)" xlink:href="#aE"/><use transform="matrix(0.0925925925925926,0,0,0.0925925925925926,149.72222222222223,0)" xlink:href="#an"/><use transform="matrix(0.0925925925925926,0,0,0.0925925925925926,168.24074074074076,0)" xlink:href="#ar"/><use transform="matrix(0.0925925925925926,0,0,0.0925925925925926,188.51851851851853,0)" xlink:href="#an"/><use transform="matrix(0.0925925925925926,0,0,0.0925925925925926,207.03703703703707,0)" xlink:href="#ao"/><use transform="matrix(0.0925925925925926,0,0,0.0925925925925926,220.00000000000003,0)" xlink:href="#aA"/><use transform="matrix(0.0925925925925926,0,0,0.0925925925925926,229.2592592592593,0)" xlink:href="#aG"/></g><g id="L"><use transform="matrix(0.0925925925925926,0,0,0.0925925925925926,0,0)" xlink:href="#aK"/><use transform="matrix(0.0925925925925926,0,0,0.0925925925925926,27.685185185185187,0)" xlink:href="#aq"/><use transform="matrix(0.0925925925925926,0,0,0.0925925925925926,47.962962962962955,0)" xlink:href="#ay"/><use transform="matrix(0.0925925925925926,0,0,0.0925925925925926,68.24074074074073,0)" xlink:href="#an"/><use transform="matrix(0.0925925925925926,0,0,0.0925925925925926,86.75925925925925,0)" xlink:href="#at"/></g></defs></g></svg>
